G04 #@! TF.GenerationSoftware,KiCad,Pcbnew,5.0.2+dfsg1-1*
G04 #@! TF.CreationDate,2019-07-03T17:13:48+03:00*
G04 #@! TF.ProjectId,PocketAdmin,506f636b-6574-4416-946d-696e2e6b6963,1.2*
G04 #@! TF.SameCoordinates,PX7bfa480PY42c1d80*
G04 #@! TF.FileFunction,Copper,L2,Bot*
G04 #@! TF.FilePolarity,Positive*
%FSLAX46Y46*%
G04 Gerber Fmt 4.6, Leading zero omitted, Abs format (unit mm)*
G04 Created by KiCad (PCBNEW 5.0.2+dfsg1-1) date Wed 03 Jul 2019 05:13:48 PM MSK*
%MOMM*%
%LPD*%
G01*
G04 APERTURE LIST*
G04 #@! TA.AperFunction,Conductor*
%ADD10C,0.100000*%
G04 #@! TD*
G04 #@! TA.AperFunction,SMDPad,CuDef*
%ADD11C,0.875000*%
G04 #@! TD*
G04 #@! TA.AperFunction,ComponentPad*
%ADD12R,1.700000X1.700000*%
G04 #@! TD*
G04 #@! TA.AperFunction,ComponentPad*
%ADD13O,1.700000X1.700000*%
G04 #@! TD*
G04 #@! TA.AperFunction,ComponentPad*
%ADD14O,1.900000X3.500000*%
G04 #@! TD*
G04 #@! TA.AperFunction,SMDPad,CuDef*
%ADD15R,0.700000X0.510000*%
G04 #@! TD*
G04 #@! TA.AperFunction,SMDPad,CuDef*
%ADD16R,0.800000X0.900000*%
G04 #@! TD*
G04 #@! TA.AperFunction,SMDPad,CuDef*
%ADD17R,0.250000X1.300000*%
G04 #@! TD*
G04 #@! TA.AperFunction,SMDPad,CuDef*
%ADD18R,1.300000X0.250000*%
G04 #@! TD*
G04 #@! TA.AperFunction,SMDPad,CuDef*
%ADD19R,2.000000X2.400000*%
G04 #@! TD*
G04 #@! TA.AperFunction,SMDPad,CuDef*
%ADD20C,0.975000*%
G04 #@! TD*
G04 #@! TA.AperFunction,ViaPad*
%ADD21C,0.600000*%
G04 #@! TD*
G04 #@! TA.AperFunction,Conductor*
%ADD22C,0.200000*%
G04 #@! TD*
G04 APERTURE END LIST*
D10*
G04 #@! TO.N,GND*
G04 #@! TO.C,C3*
G36*
X12077691Y-10776053D02*
X12098926Y-10779203D01*
X12119750Y-10784419D01*
X12139962Y-10791651D01*
X12159368Y-10800830D01*
X12177781Y-10811866D01*
X12195024Y-10824654D01*
X12210930Y-10839070D01*
X12225346Y-10854976D01*
X12238134Y-10872219D01*
X12249170Y-10890632D01*
X12258349Y-10910038D01*
X12265581Y-10930250D01*
X12270797Y-10951074D01*
X12273947Y-10972309D01*
X12275000Y-10993750D01*
X12275000Y-11431250D01*
X12273947Y-11452691D01*
X12270797Y-11473926D01*
X12265581Y-11494750D01*
X12258349Y-11514962D01*
X12249170Y-11534368D01*
X12238134Y-11552781D01*
X12225346Y-11570024D01*
X12210930Y-11585930D01*
X12195024Y-11600346D01*
X12177781Y-11613134D01*
X12159368Y-11624170D01*
X12139962Y-11633349D01*
X12119750Y-11640581D01*
X12098926Y-11645797D01*
X12077691Y-11648947D01*
X12056250Y-11650000D01*
X11543750Y-11650000D01*
X11522309Y-11648947D01*
X11501074Y-11645797D01*
X11480250Y-11640581D01*
X11460038Y-11633349D01*
X11440632Y-11624170D01*
X11422219Y-11613134D01*
X11404976Y-11600346D01*
X11389070Y-11585930D01*
X11374654Y-11570024D01*
X11361866Y-11552781D01*
X11350830Y-11534368D01*
X11341651Y-11514962D01*
X11334419Y-11494750D01*
X11329203Y-11473926D01*
X11326053Y-11452691D01*
X11325000Y-11431250D01*
X11325000Y-10993750D01*
X11326053Y-10972309D01*
X11329203Y-10951074D01*
X11334419Y-10930250D01*
X11341651Y-10910038D01*
X11350830Y-10890632D01*
X11361866Y-10872219D01*
X11374654Y-10854976D01*
X11389070Y-10839070D01*
X11404976Y-10824654D01*
X11422219Y-10811866D01*
X11440632Y-10800830D01*
X11460038Y-10791651D01*
X11480250Y-10784419D01*
X11501074Y-10779203D01*
X11522309Y-10776053D01*
X11543750Y-10775000D01*
X12056250Y-10775000D01*
X12077691Y-10776053D01*
X12077691Y-10776053D01*
G37*
D11*
G04 #@! TD*
G04 #@! TO.P,C3,1*
G04 #@! TO.N,GND*
X11800000Y-11212500D03*
D10*
G04 #@! TO.N,3.3V*
G04 #@! TO.C,C3*
G36*
X12077691Y-12351053D02*
X12098926Y-12354203D01*
X12119750Y-12359419D01*
X12139962Y-12366651D01*
X12159368Y-12375830D01*
X12177781Y-12386866D01*
X12195024Y-12399654D01*
X12210930Y-12414070D01*
X12225346Y-12429976D01*
X12238134Y-12447219D01*
X12249170Y-12465632D01*
X12258349Y-12485038D01*
X12265581Y-12505250D01*
X12270797Y-12526074D01*
X12273947Y-12547309D01*
X12275000Y-12568750D01*
X12275000Y-13006250D01*
X12273947Y-13027691D01*
X12270797Y-13048926D01*
X12265581Y-13069750D01*
X12258349Y-13089962D01*
X12249170Y-13109368D01*
X12238134Y-13127781D01*
X12225346Y-13145024D01*
X12210930Y-13160930D01*
X12195024Y-13175346D01*
X12177781Y-13188134D01*
X12159368Y-13199170D01*
X12139962Y-13208349D01*
X12119750Y-13215581D01*
X12098926Y-13220797D01*
X12077691Y-13223947D01*
X12056250Y-13225000D01*
X11543750Y-13225000D01*
X11522309Y-13223947D01*
X11501074Y-13220797D01*
X11480250Y-13215581D01*
X11460038Y-13208349D01*
X11440632Y-13199170D01*
X11422219Y-13188134D01*
X11404976Y-13175346D01*
X11389070Y-13160930D01*
X11374654Y-13145024D01*
X11361866Y-13127781D01*
X11350830Y-13109368D01*
X11341651Y-13089962D01*
X11334419Y-13069750D01*
X11329203Y-13048926D01*
X11326053Y-13027691D01*
X11325000Y-13006250D01*
X11325000Y-12568750D01*
X11326053Y-12547309D01*
X11329203Y-12526074D01*
X11334419Y-12505250D01*
X11341651Y-12485038D01*
X11350830Y-12465632D01*
X11361866Y-12447219D01*
X11374654Y-12429976D01*
X11389070Y-12414070D01*
X11404976Y-12399654D01*
X11422219Y-12386866D01*
X11440632Y-12375830D01*
X11460038Y-12366651D01*
X11480250Y-12359419D01*
X11501074Y-12354203D01*
X11522309Y-12351053D01*
X11543750Y-12350000D01*
X12056250Y-12350000D01*
X12077691Y-12351053D01*
X12077691Y-12351053D01*
G37*
D11*
G04 #@! TD*
G04 #@! TO.P,C3,2*
G04 #@! TO.N,3.3V*
X11800000Y-12787500D03*
D10*
G04 #@! TO.N,GND*
G04 #@! TO.C,C4*
G36*
X13227691Y-25626053D02*
X13248926Y-25629203D01*
X13269750Y-25634419D01*
X13289962Y-25641651D01*
X13309368Y-25650830D01*
X13327781Y-25661866D01*
X13345024Y-25674654D01*
X13360930Y-25689070D01*
X13375346Y-25704976D01*
X13388134Y-25722219D01*
X13399170Y-25740632D01*
X13408349Y-25760038D01*
X13415581Y-25780250D01*
X13420797Y-25801074D01*
X13423947Y-25822309D01*
X13425000Y-25843750D01*
X13425000Y-26356250D01*
X13423947Y-26377691D01*
X13420797Y-26398926D01*
X13415581Y-26419750D01*
X13408349Y-26439962D01*
X13399170Y-26459368D01*
X13388134Y-26477781D01*
X13375346Y-26495024D01*
X13360930Y-26510930D01*
X13345024Y-26525346D01*
X13327781Y-26538134D01*
X13309368Y-26549170D01*
X13289962Y-26558349D01*
X13269750Y-26565581D01*
X13248926Y-26570797D01*
X13227691Y-26573947D01*
X13206250Y-26575000D01*
X12768750Y-26575000D01*
X12747309Y-26573947D01*
X12726074Y-26570797D01*
X12705250Y-26565581D01*
X12685038Y-26558349D01*
X12665632Y-26549170D01*
X12647219Y-26538134D01*
X12629976Y-26525346D01*
X12614070Y-26510930D01*
X12599654Y-26495024D01*
X12586866Y-26477781D01*
X12575830Y-26459368D01*
X12566651Y-26439962D01*
X12559419Y-26419750D01*
X12554203Y-26398926D01*
X12551053Y-26377691D01*
X12550000Y-26356250D01*
X12550000Y-25843750D01*
X12551053Y-25822309D01*
X12554203Y-25801074D01*
X12559419Y-25780250D01*
X12566651Y-25760038D01*
X12575830Y-25740632D01*
X12586866Y-25722219D01*
X12599654Y-25704976D01*
X12614070Y-25689070D01*
X12629976Y-25674654D01*
X12647219Y-25661866D01*
X12665632Y-25650830D01*
X12685038Y-25641651D01*
X12705250Y-25634419D01*
X12726074Y-25629203D01*
X12747309Y-25626053D01*
X12768750Y-25625000D01*
X13206250Y-25625000D01*
X13227691Y-25626053D01*
X13227691Y-25626053D01*
G37*
D11*
G04 #@! TD*
G04 #@! TO.P,C4,2*
G04 #@! TO.N,GND*
X12987500Y-26100000D03*
D10*
G04 #@! TO.N,Net-(C4-Pad1)*
G04 #@! TO.C,C4*
G36*
X11652691Y-25626053D02*
X11673926Y-25629203D01*
X11694750Y-25634419D01*
X11714962Y-25641651D01*
X11734368Y-25650830D01*
X11752781Y-25661866D01*
X11770024Y-25674654D01*
X11785930Y-25689070D01*
X11800346Y-25704976D01*
X11813134Y-25722219D01*
X11824170Y-25740632D01*
X11833349Y-25760038D01*
X11840581Y-25780250D01*
X11845797Y-25801074D01*
X11848947Y-25822309D01*
X11850000Y-25843750D01*
X11850000Y-26356250D01*
X11848947Y-26377691D01*
X11845797Y-26398926D01*
X11840581Y-26419750D01*
X11833349Y-26439962D01*
X11824170Y-26459368D01*
X11813134Y-26477781D01*
X11800346Y-26495024D01*
X11785930Y-26510930D01*
X11770024Y-26525346D01*
X11752781Y-26538134D01*
X11734368Y-26549170D01*
X11714962Y-26558349D01*
X11694750Y-26565581D01*
X11673926Y-26570797D01*
X11652691Y-26573947D01*
X11631250Y-26575000D01*
X11193750Y-26575000D01*
X11172309Y-26573947D01*
X11151074Y-26570797D01*
X11130250Y-26565581D01*
X11110038Y-26558349D01*
X11090632Y-26549170D01*
X11072219Y-26538134D01*
X11054976Y-26525346D01*
X11039070Y-26510930D01*
X11024654Y-26495024D01*
X11011866Y-26477781D01*
X11000830Y-26459368D01*
X10991651Y-26439962D01*
X10984419Y-26419750D01*
X10979203Y-26398926D01*
X10976053Y-26377691D01*
X10975000Y-26356250D01*
X10975000Y-25843750D01*
X10976053Y-25822309D01*
X10979203Y-25801074D01*
X10984419Y-25780250D01*
X10991651Y-25760038D01*
X11000830Y-25740632D01*
X11011866Y-25722219D01*
X11024654Y-25704976D01*
X11039070Y-25689070D01*
X11054976Y-25674654D01*
X11072219Y-25661866D01*
X11090632Y-25650830D01*
X11110038Y-25641651D01*
X11130250Y-25634419D01*
X11151074Y-25629203D01*
X11172309Y-25626053D01*
X11193750Y-25625000D01*
X11631250Y-25625000D01*
X11652691Y-25626053D01*
X11652691Y-25626053D01*
G37*
D11*
G04 #@! TD*
G04 #@! TO.P,C4,1*
G04 #@! TO.N,Net-(C4-Pad1)*
X11412500Y-26100000D03*
D10*
G04 #@! TO.N,Net-(C5-Pad1)*
G04 #@! TO.C,C5*
G36*
X3827691Y-25626053D02*
X3848926Y-25629203D01*
X3869750Y-25634419D01*
X3889962Y-25641651D01*
X3909368Y-25650830D01*
X3927781Y-25661866D01*
X3945024Y-25674654D01*
X3960930Y-25689070D01*
X3975346Y-25704976D01*
X3988134Y-25722219D01*
X3999170Y-25740632D01*
X4008349Y-25760038D01*
X4015581Y-25780250D01*
X4020797Y-25801074D01*
X4023947Y-25822309D01*
X4025000Y-25843750D01*
X4025000Y-26356250D01*
X4023947Y-26377691D01*
X4020797Y-26398926D01*
X4015581Y-26419750D01*
X4008349Y-26439962D01*
X3999170Y-26459368D01*
X3988134Y-26477781D01*
X3975346Y-26495024D01*
X3960930Y-26510930D01*
X3945024Y-26525346D01*
X3927781Y-26538134D01*
X3909368Y-26549170D01*
X3889962Y-26558349D01*
X3869750Y-26565581D01*
X3848926Y-26570797D01*
X3827691Y-26573947D01*
X3806250Y-26575000D01*
X3368750Y-26575000D01*
X3347309Y-26573947D01*
X3326074Y-26570797D01*
X3305250Y-26565581D01*
X3285038Y-26558349D01*
X3265632Y-26549170D01*
X3247219Y-26538134D01*
X3229976Y-26525346D01*
X3214070Y-26510930D01*
X3199654Y-26495024D01*
X3186866Y-26477781D01*
X3175830Y-26459368D01*
X3166651Y-26439962D01*
X3159419Y-26419750D01*
X3154203Y-26398926D01*
X3151053Y-26377691D01*
X3150000Y-26356250D01*
X3150000Y-25843750D01*
X3151053Y-25822309D01*
X3154203Y-25801074D01*
X3159419Y-25780250D01*
X3166651Y-25760038D01*
X3175830Y-25740632D01*
X3186866Y-25722219D01*
X3199654Y-25704976D01*
X3214070Y-25689070D01*
X3229976Y-25674654D01*
X3247219Y-25661866D01*
X3265632Y-25650830D01*
X3285038Y-25641651D01*
X3305250Y-25634419D01*
X3326074Y-25629203D01*
X3347309Y-25626053D01*
X3368750Y-25625000D01*
X3806250Y-25625000D01*
X3827691Y-25626053D01*
X3827691Y-25626053D01*
G37*
D11*
G04 #@! TD*
G04 #@! TO.P,C5,1*
G04 #@! TO.N,Net-(C5-Pad1)*
X3587500Y-26100000D03*
D10*
G04 #@! TO.N,GND*
G04 #@! TO.C,C5*
G36*
X2252691Y-25626053D02*
X2273926Y-25629203D01*
X2294750Y-25634419D01*
X2314962Y-25641651D01*
X2334368Y-25650830D01*
X2352781Y-25661866D01*
X2370024Y-25674654D01*
X2385930Y-25689070D01*
X2400346Y-25704976D01*
X2413134Y-25722219D01*
X2424170Y-25740632D01*
X2433349Y-25760038D01*
X2440581Y-25780250D01*
X2445797Y-25801074D01*
X2448947Y-25822309D01*
X2450000Y-25843750D01*
X2450000Y-26356250D01*
X2448947Y-26377691D01*
X2445797Y-26398926D01*
X2440581Y-26419750D01*
X2433349Y-26439962D01*
X2424170Y-26459368D01*
X2413134Y-26477781D01*
X2400346Y-26495024D01*
X2385930Y-26510930D01*
X2370024Y-26525346D01*
X2352781Y-26538134D01*
X2334368Y-26549170D01*
X2314962Y-26558349D01*
X2294750Y-26565581D01*
X2273926Y-26570797D01*
X2252691Y-26573947D01*
X2231250Y-26575000D01*
X1793750Y-26575000D01*
X1772309Y-26573947D01*
X1751074Y-26570797D01*
X1730250Y-26565581D01*
X1710038Y-26558349D01*
X1690632Y-26549170D01*
X1672219Y-26538134D01*
X1654976Y-26525346D01*
X1639070Y-26510930D01*
X1624654Y-26495024D01*
X1611866Y-26477781D01*
X1600830Y-26459368D01*
X1591651Y-26439962D01*
X1584419Y-26419750D01*
X1579203Y-26398926D01*
X1576053Y-26377691D01*
X1575000Y-26356250D01*
X1575000Y-25843750D01*
X1576053Y-25822309D01*
X1579203Y-25801074D01*
X1584419Y-25780250D01*
X1591651Y-25760038D01*
X1600830Y-25740632D01*
X1611866Y-25722219D01*
X1624654Y-25704976D01*
X1639070Y-25689070D01*
X1654976Y-25674654D01*
X1672219Y-25661866D01*
X1690632Y-25650830D01*
X1710038Y-25641651D01*
X1730250Y-25634419D01*
X1751074Y-25629203D01*
X1772309Y-25626053D01*
X1793750Y-25625000D01*
X2231250Y-25625000D01*
X2252691Y-25626053D01*
X2252691Y-25626053D01*
G37*
D11*
G04 #@! TD*
G04 #@! TO.P,C5,2*
G04 #@! TO.N,GND*
X2012500Y-26100000D03*
D10*
G04 #@! TO.N,3.3V*
G04 #@! TO.C,C6*
G36*
X2877691Y-12351053D02*
X2898926Y-12354203D01*
X2919750Y-12359419D01*
X2939962Y-12366651D01*
X2959368Y-12375830D01*
X2977781Y-12386866D01*
X2995024Y-12399654D01*
X3010930Y-12414070D01*
X3025346Y-12429976D01*
X3038134Y-12447219D01*
X3049170Y-12465632D01*
X3058349Y-12485038D01*
X3065581Y-12505250D01*
X3070797Y-12526074D01*
X3073947Y-12547309D01*
X3075000Y-12568750D01*
X3075000Y-13006250D01*
X3073947Y-13027691D01*
X3070797Y-13048926D01*
X3065581Y-13069750D01*
X3058349Y-13089962D01*
X3049170Y-13109368D01*
X3038134Y-13127781D01*
X3025346Y-13145024D01*
X3010930Y-13160930D01*
X2995024Y-13175346D01*
X2977781Y-13188134D01*
X2959368Y-13199170D01*
X2939962Y-13208349D01*
X2919750Y-13215581D01*
X2898926Y-13220797D01*
X2877691Y-13223947D01*
X2856250Y-13225000D01*
X2343750Y-13225000D01*
X2322309Y-13223947D01*
X2301074Y-13220797D01*
X2280250Y-13215581D01*
X2260038Y-13208349D01*
X2240632Y-13199170D01*
X2222219Y-13188134D01*
X2204976Y-13175346D01*
X2189070Y-13160930D01*
X2174654Y-13145024D01*
X2161866Y-13127781D01*
X2150830Y-13109368D01*
X2141651Y-13089962D01*
X2134419Y-13069750D01*
X2129203Y-13048926D01*
X2126053Y-13027691D01*
X2125000Y-13006250D01*
X2125000Y-12568750D01*
X2126053Y-12547309D01*
X2129203Y-12526074D01*
X2134419Y-12505250D01*
X2141651Y-12485038D01*
X2150830Y-12465632D01*
X2161866Y-12447219D01*
X2174654Y-12429976D01*
X2189070Y-12414070D01*
X2204976Y-12399654D01*
X2222219Y-12386866D01*
X2240632Y-12375830D01*
X2260038Y-12366651D01*
X2280250Y-12359419D01*
X2301074Y-12354203D01*
X2322309Y-12351053D01*
X2343750Y-12350000D01*
X2856250Y-12350000D01*
X2877691Y-12351053D01*
X2877691Y-12351053D01*
G37*
D11*
G04 #@! TD*
G04 #@! TO.P,C6,2*
G04 #@! TO.N,3.3V*
X2600000Y-12787500D03*
D10*
G04 #@! TO.N,GND*
G04 #@! TO.C,C6*
G36*
X2877691Y-10776053D02*
X2898926Y-10779203D01*
X2919750Y-10784419D01*
X2939962Y-10791651D01*
X2959368Y-10800830D01*
X2977781Y-10811866D01*
X2995024Y-10824654D01*
X3010930Y-10839070D01*
X3025346Y-10854976D01*
X3038134Y-10872219D01*
X3049170Y-10890632D01*
X3058349Y-10910038D01*
X3065581Y-10930250D01*
X3070797Y-10951074D01*
X3073947Y-10972309D01*
X3075000Y-10993750D01*
X3075000Y-11431250D01*
X3073947Y-11452691D01*
X3070797Y-11473926D01*
X3065581Y-11494750D01*
X3058349Y-11514962D01*
X3049170Y-11534368D01*
X3038134Y-11552781D01*
X3025346Y-11570024D01*
X3010930Y-11585930D01*
X2995024Y-11600346D01*
X2977781Y-11613134D01*
X2959368Y-11624170D01*
X2939962Y-11633349D01*
X2919750Y-11640581D01*
X2898926Y-11645797D01*
X2877691Y-11648947D01*
X2856250Y-11650000D01*
X2343750Y-11650000D01*
X2322309Y-11648947D01*
X2301074Y-11645797D01*
X2280250Y-11640581D01*
X2260038Y-11633349D01*
X2240632Y-11624170D01*
X2222219Y-11613134D01*
X2204976Y-11600346D01*
X2189070Y-11585930D01*
X2174654Y-11570024D01*
X2161866Y-11552781D01*
X2150830Y-11534368D01*
X2141651Y-11514962D01*
X2134419Y-11494750D01*
X2129203Y-11473926D01*
X2126053Y-11452691D01*
X2125000Y-11431250D01*
X2125000Y-10993750D01*
X2126053Y-10972309D01*
X2129203Y-10951074D01*
X2134419Y-10930250D01*
X2141651Y-10910038D01*
X2150830Y-10890632D01*
X2161866Y-10872219D01*
X2174654Y-10854976D01*
X2189070Y-10839070D01*
X2204976Y-10824654D01*
X2222219Y-10811866D01*
X2240632Y-10800830D01*
X2260038Y-10791651D01*
X2280250Y-10784419D01*
X2301074Y-10779203D01*
X2322309Y-10776053D01*
X2343750Y-10775000D01*
X2856250Y-10775000D01*
X2877691Y-10776053D01*
X2877691Y-10776053D01*
G37*
D11*
G04 #@! TD*
G04 #@! TO.P,C6,1*
G04 #@! TO.N,GND*
X2600000Y-11212500D03*
D10*
G04 #@! TO.N,GND*
G04 #@! TO.C,C7*
G36*
X13227691Y-21126053D02*
X13248926Y-21129203D01*
X13269750Y-21134419D01*
X13289962Y-21141651D01*
X13309368Y-21150830D01*
X13327781Y-21161866D01*
X13345024Y-21174654D01*
X13360930Y-21189070D01*
X13375346Y-21204976D01*
X13388134Y-21222219D01*
X13399170Y-21240632D01*
X13408349Y-21260038D01*
X13415581Y-21280250D01*
X13420797Y-21301074D01*
X13423947Y-21322309D01*
X13425000Y-21343750D01*
X13425000Y-21856250D01*
X13423947Y-21877691D01*
X13420797Y-21898926D01*
X13415581Y-21919750D01*
X13408349Y-21939962D01*
X13399170Y-21959368D01*
X13388134Y-21977781D01*
X13375346Y-21995024D01*
X13360930Y-22010930D01*
X13345024Y-22025346D01*
X13327781Y-22038134D01*
X13309368Y-22049170D01*
X13289962Y-22058349D01*
X13269750Y-22065581D01*
X13248926Y-22070797D01*
X13227691Y-22073947D01*
X13206250Y-22075000D01*
X12768750Y-22075000D01*
X12747309Y-22073947D01*
X12726074Y-22070797D01*
X12705250Y-22065581D01*
X12685038Y-22058349D01*
X12665632Y-22049170D01*
X12647219Y-22038134D01*
X12629976Y-22025346D01*
X12614070Y-22010930D01*
X12599654Y-21995024D01*
X12586866Y-21977781D01*
X12575830Y-21959368D01*
X12566651Y-21939962D01*
X12559419Y-21919750D01*
X12554203Y-21898926D01*
X12551053Y-21877691D01*
X12550000Y-21856250D01*
X12550000Y-21343750D01*
X12551053Y-21322309D01*
X12554203Y-21301074D01*
X12559419Y-21280250D01*
X12566651Y-21260038D01*
X12575830Y-21240632D01*
X12586866Y-21222219D01*
X12599654Y-21204976D01*
X12614070Y-21189070D01*
X12629976Y-21174654D01*
X12647219Y-21161866D01*
X12665632Y-21150830D01*
X12685038Y-21141651D01*
X12705250Y-21134419D01*
X12726074Y-21129203D01*
X12747309Y-21126053D01*
X12768750Y-21125000D01*
X13206250Y-21125000D01*
X13227691Y-21126053D01*
X13227691Y-21126053D01*
G37*
D11*
G04 #@! TD*
G04 #@! TO.P,C7,1*
G04 #@! TO.N,GND*
X12987500Y-21600000D03*
D10*
G04 #@! TO.N,3.3V*
G04 #@! TO.C,C7*
G36*
X11652691Y-21126053D02*
X11673926Y-21129203D01*
X11694750Y-21134419D01*
X11714962Y-21141651D01*
X11734368Y-21150830D01*
X11752781Y-21161866D01*
X11770024Y-21174654D01*
X11785930Y-21189070D01*
X11800346Y-21204976D01*
X11813134Y-21222219D01*
X11824170Y-21240632D01*
X11833349Y-21260038D01*
X11840581Y-21280250D01*
X11845797Y-21301074D01*
X11848947Y-21322309D01*
X11850000Y-21343750D01*
X11850000Y-21856250D01*
X11848947Y-21877691D01*
X11845797Y-21898926D01*
X11840581Y-21919750D01*
X11833349Y-21939962D01*
X11824170Y-21959368D01*
X11813134Y-21977781D01*
X11800346Y-21995024D01*
X11785930Y-22010930D01*
X11770024Y-22025346D01*
X11752781Y-22038134D01*
X11734368Y-22049170D01*
X11714962Y-22058349D01*
X11694750Y-22065581D01*
X11673926Y-22070797D01*
X11652691Y-22073947D01*
X11631250Y-22075000D01*
X11193750Y-22075000D01*
X11172309Y-22073947D01*
X11151074Y-22070797D01*
X11130250Y-22065581D01*
X11110038Y-22058349D01*
X11090632Y-22049170D01*
X11072219Y-22038134D01*
X11054976Y-22025346D01*
X11039070Y-22010930D01*
X11024654Y-21995024D01*
X11011866Y-21977781D01*
X11000830Y-21959368D01*
X10991651Y-21939962D01*
X10984419Y-21919750D01*
X10979203Y-21898926D01*
X10976053Y-21877691D01*
X10975000Y-21856250D01*
X10975000Y-21343750D01*
X10976053Y-21322309D01*
X10979203Y-21301074D01*
X10984419Y-21280250D01*
X10991651Y-21260038D01*
X11000830Y-21240632D01*
X11011866Y-21222219D01*
X11024654Y-21204976D01*
X11039070Y-21189070D01*
X11054976Y-21174654D01*
X11072219Y-21161866D01*
X11090632Y-21150830D01*
X11110038Y-21141651D01*
X11130250Y-21134419D01*
X11151074Y-21129203D01*
X11172309Y-21126053D01*
X11193750Y-21125000D01*
X11631250Y-21125000D01*
X11652691Y-21126053D01*
X11652691Y-21126053D01*
G37*
D11*
G04 #@! TD*
G04 #@! TO.P,C7,2*
G04 #@! TO.N,3.3V*
X11412500Y-21600000D03*
D12*
G04 #@! TO.P,CON1,1*
G04 #@! TO.N,swclk*
X12600000Y-29100000D03*
D13*
G04 #@! TO.P,CON1,2*
G04 #@! TO.N,swdio*
X10060000Y-29100000D03*
G04 #@! TO.P,CON1,3*
G04 #@! TO.N,GND*
X7520000Y-29100000D03*
G04 #@! TO.P,CON1,4*
G04 #@! TO.N,3.3V*
X4980000Y-29100000D03*
G04 #@! TO.P,CON1,5*
G04 #@! TO.N,Net-(CON1-Pad5)*
X2440000Y-29100000D03*
G04 #@! TD*
D14*
G04 #@! TO.P,J1,5*
G04 #@! TO.N,GND*
X1800000Y-3100000D03*
X13200000Y-3100000D03*
G04 #@! TD*
D10*
G04 #@! TO.N,swclk*
G04 #@! TO.C,R1*
G36*
X5077691Y-8476053D02*
X5098926Y-8479203D01*
X5119750Y-8484419D01*
X5139962Y-8491651D01*
X5159368Y-8500830D01*
X5177781Y-8511866D01*
X5195024Y-8524654D01*
X5210930Y-8539070D01*
X5225346Y-8554976D01*
X5238134Y-8572219D01*
X5249170Y-8590632D01*
X5258349Y-8610038D01*
X5265581Y-8630250D01*
X5270797Y-8651074D01*
X5273947Y-8672309D01*
X5275000Y-8693750D01*
X5275000Y-9131250D01*
X5273947Y-9152691D01*
X5270797Y-9173926D01*
X5265581Y-9194750D01*
X5258349Y-9214962D01*
X5249170Y-9234368D01*
X5238134Y-9252781D01*
X5225346Y-9270024D01*
X5210930Y-9285930D01*
X5195024Y-9300346D01*
X5177781Y-9313134D01*
X5159368Y-9324170D01*
X5139962Y-9333349D01*
X5119750Y-9340581D01*
X5098926Y-9345797D01*
X5077691Y-9348947D01*
X5056250Y-9350000D01*
X4543750Y-9350000D01*
X4522309Y-9348947D01*
X4501074Y-9345797D01*
X4480250Y-9340581D01*
X4460038Y-9333349D01*
X4440632Y-9324170D01*
X4422219Y-9313134D01*
X4404976Y-9300346D01*
X4389070Y-9285930D01*
X4374654Y-9270024D01*
X4361866Y-9252781D01*
X4350830Y-9234368D01*
X4341651Y-9214962D01*
X4334419Y-9194750D01*
X4329203Y-9173926D01*
X4326053Y-9152691D01*
X4325000Y-9131250D01*
X4325000Y-8693750D01*
X4326053Y-8672309D01*
X4329203Y-8651074D01*
X4334419Y-8630250D01*
X4341651Y-8610038D01*
X4350830Y-8590632D01*
X4361866Y-8572219D01*
X4374654Y-8554976D01*
X4389070Y-8539070D01*
X4404976Y-8524654D01*
X4422219Y-8511866D01*
X4440632Y-8500830D01*
X4460038Y-8491651D01*
X4480250Y-8484419D01*
X4501074Y-8479203D01*
X4522309Y-8476053D01*
X4543750Y-8475000D01*
X5056250Y-8475000D01*
X5077691Y-8476053D01*
X5077691Y-8476053D01*
G37*
D11*
G04 #@! TD*
G04 #@! TO.P,R1,1*
G04 #@! TO.N,swclk*
X4800000Y-8912500D03*
D10*
G04 #@! TO.N,nc1*
G04 #@! TO.C,R1*
G36*
X5077691Y-10051053D02*
X5098926Y-10054203D01*
X5119750Y-10059419D01*
X5139962Y-10066651D01*
X5159368Y-10075830D01*
X5177781Y-10086866D01*
X5195024Y-10099654D01*
X5210930Y-10114070D01*
X5225346Y-10129976D01*
X5238134Y-10147219D01*
X5249170Y-10165632D01*
X5258349Y-10185038D01*
X5265581Y-10205250D01*
X5270797Y-10226074D01*
X5273947Y-10247309D01*
X5275000Y-10268750D01*
X5275000Y-10706250D01*
X5273947Y-10727691D01*
X5270797Y-10748926D01*
X5265581Y-10769750D01*
X5258349Y-10789962D01*
X5249170Y-10809368D01*
X5238134Y-10827781D01*
X5225346Y-10845024D01*
X5210930Y-10860930D01*
X5195024Y-10875346D01*
X5177781Y-10888134D01*
X5159368Y-10899170D01*
X5139962Y-10908349D01*
X5119750Y-10915581D01*
X5098926Y-10920797D01*
X5077691Y-10923947D01*
X5056250Y-10925000D01*
X4543750Y-10925000D01*
X4522309Y-10923947D01*
X4501074Y-10920797D01*
X4480250Y-10915581D01*
X4460038Y-10908349D01*
X4440632Y-10899170D01*
X4422219Y-10888134D01*
X4404976Y-10875346D01*
X4389070Y-10860930D01*
X4374654Y-10845024D01*
X4361866Y-10827781D01*
X4350830Y-10809368D01*
X4341651Y-10789962D01*
X4334419Y-10769750D01*
X4329203Y-10748926D01*
X4326053Y-10727691D01*
X4325000Y-10706250D01*
X4325000Y-10268750D01*
X4326053Y-10247309D01*
X4329203Y-10226074D01*
X4334419Y-10205250D01*
X4341651Y-10185038D01*
X4350830Y-10165632D01*
X4361866Y-10147219D01*
X4374654Y-10129976D01*
X4389070Y-10114070D01*
X4404976Y-10099654D01*
X4422219Y-10086866D01*
X4440632Y-10075830D01*
X4460038Y-10066651D01*
X4480250Y-10059419D01*
X4501074Y-10054203D01*
X4522309Y-10051053D01*
X4543750Y-10050000D01*
X5056250Y-10050000D01*
X5077691Y-10051053D01*
X5077691Y-10051053D01*
G37*
D11*
G04 #@! TD*
G04 #@! TO.P,R1,2*
G04 #@! TO.N,nc1*
X4800000Y-10487500D03*
D10*
G04 #@! TO.N,Net-(R2-Pad2)*
G04 #@! TO.C,R2*
G36*
X10477691Y-10051053D02*
X10498926Y-10054203D01*
X10519750Y-10059419D01*
X10539962Y-10066651D01*
X10559368Y-10075830D01*
X10577781Y-10086866D01*
X10595024Y-10099654D01*
X10610930Y-10114070D01*
X10625346Y-10129976D01*
X10638134Y-10147219D01*
X10649170Y-10165632D01*
X10658349Y-10185038D01*
X10665581Y-10205250D01*
X10670797Y-10226074D01*
X10673947Y-10247309D01*
X10675000Y-10268750D01*
X10675000Y-10706250D01*
X10673947Y-10727691D01*
X10670797Y-10748926D01*
X10665581Y-10769750D01*
X10658349Y-10789962D01*
X10649170Y-10809368D01*
X10638134Y-10827781D01*
X10625346Y-10845024D01*
X10610930Y-10860930D01*
X10595024Y-10875346D01*
X10577781Y-10888134D01*
X10559368Y-10899170D01*
X10539962Y-10908349D01*
X10519750Y-10915581D01*
X10498926Y-10920797D01*
X10477691Y-10923947D01*
X10456250Y-10925000D01*
X9943750Y-10925000D01*
X9922309Y-10923947D01*
X9901074Y-10920797D01*
X9880250Y-10915581D01*
X9860038Y-10908349D01*
X9840632Y-10899170D01*
X9822219Y-10888134D01*
X9804976Y-10875346D01*
X9789070Y-10860930D01*
X9774654Y-10845024D01*
X9761866Y-10827781D01*
X9750830Y-10809368D01*
X9741651Y-10789962D01*
X9734419Y-10769750D01*
X9729203Y-10748926D01*
X9726053Y-10727691D01*
X9725000Y-10706250D01*
X9725000Y-10268750D01*
X9726053Y-10247309D01*
X9729203Y-10226074D01*
X9734419Y-10205250D01*
X9741651Y-10185038D01*
X9750830Y-10165632D01*
X9761866Y-10147219D01*
X9774654Y-10129976D01*
X9789070Y-10114070D01*
X9804976Y-10099654D01*
X9822219Y-10086866D01*
X9840632Y-10075830D01*
X9860038Y-10066651D01*
X9880250Y-10059419D01*
X9901074Y-10054203D01*
X9922309Y-10051053D01*
X9943750Y-10050000D01*
X10456250Y-10050000D01*
X10477691Y-10051053D01*
X10477691Y-10051053D01*
G37*
D11*
G04 #@! TD*
G04 #@! TO.P,R2,2*
G04 #@! TO.N,Net-(R2-Pad2)*
X10200000Y-10487500D03*
D10*
G04 #@! TO.N,swdio*
G04 #@! TO.C,R2*
G36*
X10477691Y-8476053D02*
X10498926Y-8479203D01*
X10519750Y-8484419D01*
X10539962Y-8491651D01*
X10559368Y-8500830D01*
X10577781Y-8511866D01*
X10595024Y-8524654D01*
X10610930Y-8539070D01*
X10625346Y-8554976D01*
X10638134Y-8572219D01*
X10649170Y-8590632D01*
X10658349Y-8610038D01*
X10665581Y-8630250D01*
X10670797Y-8651074D01*
X10673947Y-8672309D01*
X10675000Y-8693750D01*
X10675000Y-9131250D01*
X10673947Y-9152691D01*
X10670797Y-9173926D01*
X10665581Y-9194750D01*
X10658349Y-9214962D01*
X10649170Y-9234368D01*
X10638134Y-9252781D01*
X10625346Y-9270024D01*
X10610930Y-9285930D01*
X10595024Y-9300346D01*
X10577781Y-9313134D01*
X10559368Y-9324170D01*
X10539962Y-9333349D01*
X10519750Y-9340581D01*
X10498926Y-9345797D01*
X10477691Y-9348947D01*
X10456250Y-9350000D01*
X9943750Y-9350000D01*
X9922309Y-9348947D01*
X9901074Y-9345797D01*
X9880250Y-9340581D01*
X9860038Y-9333349D01*
X9840632Y-9324170D01*
X9822219Y-9313134D01*
X9804976Y-9300346D01*
X9789070Y-9285930D01*
X9774654Y-9270024D01*
X9761866Y-9252781D01*
X9750830Y-9234368D01*
X9741651Y-9214962D01*
X9734419Y-9194750D01*
X9729203Y-9173926D01*
X9726053Y-9152691D01*
X9725000Y-9131250D01*
X9725000Y-8693750D01*
X9726053Y-8672309D01*
X9729203Y-8651074D01*
X9734419Y-8630250D01*
X9741651Y-8610038D01*
X9750830Y-8590632D01*
X9761866Y-8572219D01*
X9774654Y-8554976D01*
X9789070Y-8539070D01*
X9804976Y-8524654D01*
X9822219Y-8511866D01*
X9840632Y-8500830D01*
X9860038Y-8491651D01*
X9880250Y-8484419D01*
X9901074Y-8479203D01*
X9922309Y-8476053D01*
X9943750Y-8475000D01*
X10456250Y-8475000D01*
X10477691Y-8476053D01*
X10477691Y-8476053D01*
G37*
D11*
G04 #@! TD*
G04 #@! TO.P,R2,1*
G04 #@! TO.N,swdio*
X10200000Y-8912500D03*
D15*
G04 #@! TO.P,U1,1*
G04 #@! TO.N,swdio*
X8660000Y-8750000D03*
G04 #@! TO.P,U1,2*
G04 #@! TO.N,GND*
X8660000Y-9700000D03*
G04 #@! TO.P,U1,3*
G04 #@! TO.N,d+*
X8660000Y-10650000D03*
G04 #@! TO.P,U1,4*
G04 #@! TO.N,d-*
X6340000Y-10650000D03*
G04 #@! TO.P,U1,5*
G04 #@! TO.N,5V*
X6340000Y-9700000D03*
G04 #@! TO.P,U1,6*
G04 #@! TO.N,swclk*
X6340000Y-8750000D03*
G04 #@! TD*
D16*
G04 #@! TO.P,U2,1*
G04 #@! TO.N,GND*
X6550000Y-4800000D03*
G04 #@! TO.P,U2,2*
G04 #@! TO.N,3.3V*
X8450000Y-4800000D03*
G04 #@! TO.P,U2,3*
G04 #@! TO.N,5V*
X7500000Y-6800000D03*
G04 #@! TD*
D17*
G04 #@! TO.P,U3,1*
G04 #@! TO.N,3.3V*
X9750000Y-21550000D03*
G04 #@! TO.P,U3,2*
G04 #@! TO.N,GND*
X9250000Y-21550000D03*
G04 #@! TO.P,U3,3*
G04 #@! TO.N,Net-(U3-Pad3)*
X8750000Y-21550000D03*
G04 #@! TO.P,U3,4*
G04 #@! TO.N,nrst*
X8250000Y-21550000D03*
G04 #@! TO.P,U3,5*
G04 #@! TO.N,Net-(C4-Pad1)*
X7750000Y-21550000D03*
G04 #@! TO.P,U3,6*
G04 #@! TO.N,Net-(C5-Pad1)*
X7250000Y-21550000D03*
G04 #@! TO.P,U3,7*
G04 #@! TO.N,nrst*
X6750000Y-21550000D03*
G04 #@! TO.P,U3,8*
G04 #@! TO.N,GND*
X6250000Y-21550000D03*
G04 #@! TO.P,U3,9*
G04 #@! TO.N,3.3V*
X5750000Y-21550000D03*
G04 #@! TO.P,U3,10*
G04 #@! TO.N,Net-(U3-Pad10)*
X5250000Y-21550000D03*
G04 #@! TO.P,U3,11*
G04 #@! TO.N,Net-(U3-Pad11)*
X4750000Y-21550000D03*
G04 #@! TO.P,U3,12*
G04 #@! TO.N,Net-(C10-Pad2)*
X4250000Y-21550000D03*
D18*
G04 #@! TO.P,U3,13*
G04 #@! TO.N,Net-(U3-Pad13)*
X2650000Y-19950000D03*
G04 #@! TO.P,U3,14*
G04 #@! TO.N,Net-(U3-Pad14)*
X2650000Y-19450000D03*
G04 #@! TO.P,U3,15*
G04 #@! TO.N,sck*
X2650000Y-18950000D03*
G04 #@! TO.P,U3,16*
G04 #@! TO.N,miso*
X2650000Y-18450000D03*
G04 #@! TO.P,U3,17*
G04 #@! TO.N,mosi*
X2650000Y-17950000D03*
G04 #@! TO.P,U3,18*
G04 #@! TO.N,Net-(U3-Pad18)*
X2650000Y-17450000D03*
G04 #@! TO.P,U3,19*
G04 #@! TO.N,Net-(U3-Pad19)*
X2650000Y-16950000D03*
G04 #@! TO.P,U3,20*
G04 #@! TO.N,Net-(U3-Pad20)*
X2650000Y-16450000D03*
G04 #@! TO.P,U3,21*
G04 #@! TO.N,Net-(U3-Pad21)*
X2650000Y-15950000D03*
G04 #@! TO.P,U3,22*
G04 #@! TO.N,Net-(U3-Pad22)*
X2650000Y-15450000D03*
G04 #@! TO.P,U3,23*
G04 #@! TO.N,GND*
X2650000Y-14950000D03*
G04 #@! TO.P,U3,24*
G04 #@! TO.N,3.3V*
X2650000Y-14450000D03*
D17*
G04 #@! TO.P,U3,25*
G04 #@! TO.N,Net-(U3-Pad25)*
X4250000Y-12850000D03*
G04 #@! TO.P,U3,26*
G04 #@! TO.N,nc1*
X4750000Y-12850000D03*
G04 #@! TO.P,U3,27*
G04 #@! TO.N,Net-(U3-Pad27)*
X5250000Y-12850000D03*
G04 #@! TO.P,U3,28*
G04 #@! TO.N,GND*
X5750000Y-12850000D03*
G04 #@! TO.P,U3,29*
G04 #@! TO.N,Net-(U3-Pad29)*
X6250000Y-12850000D03*
G04 #@! TO.P,U3,30*
G04 #@! TO.N,GND*
X6750000Y-12850000D03*
G04 #@! TO.P,U3,31*
G04 #@! TO.N,Net-(U3-Pad31)*
X7250000Y-12850000D03*
G04 #@! TO.P,U3,32*
G04 #@! TO.N,d-*
X7750000Y-12850000D03*
G04 #@! TO.P,U3,33*
G04 #@! TO.N,d+*
X8250000Y-12850000D03*
G04 #@! TO.P,U3,34*
G04 #@! TO.N,Net-(R2-Pad2)*
X8750000Y-12850000D03*
G04 #@! TO.P,U3,35*
G04 #@! TO.N,GND*
X9250000Y-12850000D03*
G04 #@! TO.P,U3,36*
G04 #@! TO.N,3.3V*
X9750000Y-12850000D03*
D18*
G04 #@! TO.P,U3,37*
G04 #@! TO.N,nc1*
X11350000Y-14450000D03*
G04 #@! TO.P,U3,38*
G04 #@! TO.N,cs*
X11350000Y-14950000D03*
G04 #@! TO.P,U3,39*
G04 #@! TO.N,GND*
X11350000Y-15450000D03*
G04 #@! TO.P,U3,40*
G04 #@! TO.N,Net-(U3-Pad40)*
X11350000Y-15950000D03*
G04 #@! TO.P,U3,41*
G04 #@! TO.N,GND*
X11350000Y-16450000D03*
G04 #@! TO.P,U3,42*
G04 #@! TO.N,Net-(U3-Pad42)*
X11350000Y-16950000D03*
G04 #@! TO.P,U3,43*
G04 #@! TO.N,Net-(U3-Pad43)*
X11350000Y-17450000D03*
G04 #@! TO.P,U3,44*
G04 #@! TO.N,GND*
X11350000Y-17950000D03*
G04 #@! TO.P,U3,45*
G04 #@! TO.N,Net-(U3-Pad45)*
X11350000Y-18450000D03*
G04 #@! TO.P,U3,46*
G04 #@! TO.N,Net-(U3-Pad46)*
X11350000Y-18950000D03*
G04 #@! TO.P,U3,47*
G04 #@! TO.N,GND*
X11350000Y-19450000D03*
G04 #@! TO.P,U3,48*
G04 #@! TO.N,3.3V*
X11350000Y-19950000D03*
G04 #@! TD*
D19*
G04 #@! TO.P,Y1,1*
G04 #@! TO.N,Net-(C4-Pad1)*
X9350000Y-25200000D03*
G04 #@! TO.P,Y1,2*
G04 #@! TO.N,Net-(C5-Pad1)*
X5650000Y-25200000D03*
G04 #@! TD*
D10*
G04 #@! TO.N,nrst*
G04 #@! TO.C,C11*
G36*
X11640191Y-23426053D02*
X11661426Y-23429203D01*
X11682250Y-23434419D01*
X11702462Y-23441651D01*
X11721868Y-23450830D01*
X11740281Y-23461866D01*
X11757524Y-23474654D01*
X11773430Y-23489070D01*
X11787846Y-23504976D01*
X11800634Y-23522219D01*
X11811670Y-23540632D01*
X11820849Y-23560038D01*
X11828081Y-23580250D01*
X11833297Y-23601074D01*
X11836447Y-23622309D01*
X11837500Y-23643750D01*
X11837500Y-24156250D01*
X11836447Y-24177691D01*
X11833297Y-24198926D01*
X11828081Y-24219750D01*
X11820849Y-24239962D01*
X11811670Y-24259368D01*
X11800634Y-24277781D01*
X11787846Y-24295024D01*
X11773430Y-24310930D01*
X11757524Y-24325346D01*
X11740281Y-24338134D01*
X11721868Y-24349170D01*
X11702462Y-24358349D01*
X11682250Y-24365581D01*
X11661426Y-24370797D01*
X11640191Y-24373947D01*
X11618750Y-24375000D01*
X11181250Y-24375000D01*
X11159809Y-24373947D01*
X11138574Y-24370797D01*
X11117750Y-24365581D01*
X11097538Y-24358349D01*
X11078132Y-24349170D01*
X11059719Y-24338134D01*
X11042476Y-24325346D01*
X11026570Y-24310930D01*
X11012154Y-24295024D01*
X10999366Y-24277781D01*
X10988330Y-24259368D01*
X10979151Y-24239962D01*
X10971919Y-24219750D01*
X10966703Y-24198926D01*
X10963553Y-24177691D01*
X10962500Y-24156250D01*
X10962500Y-23643750D01*
X10963553Y-23622309D01*
X10966703Y-23601074D01*
X10971919Y-23580250D01*
X10979151Y-23560038D01*
X10988330Y-23540632D01*
X10999366Y-23522219D01*
X11012154Y-23504976D01*
X11026570Y-23489070D01*
X11042476Y-23474654D01*
X11059719Y-23461866D01*
X11078132Y-23450830D01*
X11097538Y-23441651D01*
X11117750Y-23434419D01*
X11138574Y-23429203D01*
X11159809Y-23426053D01*
X11181250Y-23425000D01*
X11618750Y-23425000D01*
X11640191Y-23426053D01*
X11640191Y-23426053D01*
G37*
D11*
G04 #@! TD*
G04 #@! TO.P,C11,1*
G04 #@! TO.N,nrst*
X11400000Y-23900000D03*
D10*
G04 #@! TO.N,GND*
G04 #@! TO.C,C11*
G36*
X13215191Y-23426053D02*
X13236426Y-23429203D01*
X13257250Y-23434419D01*
X13277462Y-23441651D01*
X13296868Y-23450830D01*
X13315281Y-23461866D01*
X13332524Y-23474654D01*
X13348430Y-23489070D01*
X13362846Y-23504976D01*
X13375634Y-23522219D01*
X13386670Y-23540632D01*
X13395849Y-23560038D01*
X13403081Y-23580250D01*
X13408297Y-23601074D01*
X13411447Y-23622309D01*
X13412500Y-23643750D01*
X13412500Y-24156250D01*
X13411447Y-24177691D01*
X13408297Y-24198926D01*
X13403081Y-24219750D01*
X13395849Y-24239962D01*
X13386670Y-24259368D01*
X13375634Y-24277781D01*
X13362846Y-24295024D01*
X13348430Y-24310930D01*
X13332524Y-24325346D01*
X13315281Y-24338134D01*
X13296868Y-24349170D01*
X13277462Y-24358349D01*
X13257250Y-24365581D01*
X13236426Y-24370797D01*
X13215191Y-24373947D01*
X13193750Y-24375000D01*
X12756250Y-24375000D01*
X12734809Y-24373947D01*
X12713574Y-24370797D01*
X12692750Y-24365581D01*
X12672538Y-24358349D01*
X12653132Y-24349170D01*
X12634719Y-24338134D01*
X12617476Y-24325346D01*
X12601570Y-24310930D01*
X12587154Y-24295024D01*
X12574366Y-24277781D01*
X12563330Y-24259368D01*
X12554151Y-24239962D01*
X12546919Y-24219750D01*
X12541703Y-24198926D01*
X12538553Y-24177691D01*
X12537500Y-24156250D01*
X12537500Y-23643750D01*
X12538553Y-23622309D01*
X12541703Y-23601074D01*
X12546919Y-23580250D01*
X12554151Y-23560038D01*
X12563330Y-23540632D01*
X12574366Y-23522219D01*
X12587154Y-23504976D01*
X12601570Y-23489070D01*
X12617476Y-23474654D01*
X12634719Y-23461866D01*
X12653132Y-23450830D01*
X12672538Y-23441651D01*
X12692750Y-23434419D01*
X12713574Y-23429203D01*
X12734809Y-23426053D01*
X12756250Y-23425000D01*
X13193750Y-23425000D01*
X13215191Y-23426053D01*
X13215191Y-23426053D01*
G37*
D11*
G04 #@! TD*
G04 #@! TO.P,C11,2*
G04 #@! TO.N,GND*
X12975000Y-23900000D03*
D10*
G04 #@! TO.N,5V*
G04 #@! TO.C,C1*
G36*
X4680142Y-6251174D02*
X4703803Y-6254684D01*
X4727007Y-6260496D01*
X4749529Y-6268554D01*
X4771153Y-6278782D01*
X4791670Y-6291079D01*
X4810883Y-6305329D01*
X4828607Y-6321393D01*
X4844671Y-6339117D01*
X4858921Y-6358330D01*
X4871218Y-6378847D01*
X4881446Y-6400471D01*
X4889504Y-6422993D01*
X4895316Y-6446197D01*
X4898826Y-6469858D01*
X4900000Y-6493750D01*
X4900000Y-6981250D01*
X4898826Y-7005142D01*
X4895316Y-7028803D01*
X4889504Y-7052007D01*
X4881446Y-7074529D01*
X4871218Y-7096153D01*
X4858921Y-7116670D01*
X4844671Y-7135883D01*
X4828607Y-7153607D01*
X4810883Y-7169671D01*
X4791670Y-7183921D01*
X4771153Y-7196218D01*
X4749529Y-7206446D01*
X4727007Y-7214504D01*
X4703803Y-7220316D01*
X4680142Y-7223826D01*
X4656250Y-7225000D01*
X3743750Y-7225000D01*
X3719858Y-7223826D01*
X3696197Y-7220316D01*
X3672993Y-7214504D01*
X3650471Y-7206446D01*
X3628847Y-7196218D01*
X3608330Y-7183921D01*
X3589117Y-7169671D01*
X3571393Y-7153607D01*
X3555329Y-7135883D01*
X3541079Y-7116670D01*
X3528782Y-7096153D01*
X3518554Y-7074529D01*
X3510496Y-7052007D01*
X3504684Y-7028803D01*
X3501174Y-7005142D01*
X3500000Y-6981250D01*
X3500000Y-6493750D01*
X3501174Y-6469858D01*
X3504684Y-6446197D01*
X3510496Y-6422993D01*
X3518554Y-6400471D01*
X3528782Y-6378847D01*
X3541079Y-6358330D01*
X3555329Y-6339117D01*
X3571393Y-6321393D01*
X3589117Y-6305329D01*
X3608330Y-6291079D01*
X3628847Y-6278782D01*
X3650471Y-6268554D01*
X3672993Y-6260496D01*
X3696197Y-6254684D01*
X3719858Y-6251174D01*
X3743750Y-6250000D01*
X4656250Y-6250000D01*
X4680142Y-6251174D01*
X4680142Y-6251174D01*
G37*
D20*
G04 #@! TD*
G04 #@! TO.P,C1,1*
G04 #@! TO.N,5V*
X4200000Y-6737500D03*
D10*
G04 #@! TO.N,GND*
G04 #@! TO.C,C1*
G36*
X4680142Y-4376174D02*
X4703803Y-4379684D01*
X4727007Y-4385496D01*
X4749529Y-4393554D01*
X4771153Y-4403782D01*
X4791670Y-4416079D01*
X4810883Y-4430329D01*
X4828607Y-4446393D01*
X4844671Y-4464117D01*
X4858921Y-4483330D01*
X4871218Y-4503847D01*
X4881446Y-4525471D01*
X4889504Y-4547993D01*
X4895316Y-4571197D01*
X4898826Y-4594858D01*
X4900000Y-4618750D01*
X4900000Y-5106250D01*
X4898826Y-5130142D01*
X4895316Y-5153803D01*
X4889504Y-5177007D01*
X4881446Y-5199529D01*
X4871218Y-5221153D01*
X4858921Y-5241670D01*
X4844671Y-5260883D01*
X4828607Y-5278607D01*
X4810883Y-5294671D01*
X4791670Y-5308921D01*
X4771153Y-5321218D01*
X4749529Y-5331446D01*
X4727007Y-5339504D01*
X4703803Y-5345316D01*
X4680142Y-5348826D01*
X4656250Y-5350000D01*
X3743750Y-5350000D01*
X3719858Y-5348826D01*
X3696197Y-5345316D01*
X3672993Y-5339504D01*
X3650471Y-5331446D01*
X3628847Y-5321218D01*
X3608330Y-5308921D01*
X3589117Y-5294671D01*
X3571393Y-5278607D01*
X3555329Y-5260883D01*
X3541079Y-5241670D01*
X3528782Y-5221153D01*
X3518554Y-5199529D01*
X3510496Y-5177007D01*
X3504684Y-5153803D01*
X3501174Y-5130142D01*
X3500000Y-5106250D01*
X3500000Y-4618750D01*
X3501174Y-4594858D01*
X3504684Y-4571197D01*
X3510496Y-4547993D01*
X3518554Y-4525471D01*
X3528782Y-4503847D01*
X3541079Y-4483330D01*
X3555329Y-4464117D01*
X3571393Y-4446393D01*
X3589117Y-4430329D01*
X3608330Y-4416079D01*
X3628847Y-4403782D01*
X3650471Y-4393554D01*
X3672993Y-4385496D01*
X3696197Y-4379684D01*
X3719858Y-4376174D01*
X3743750Y-4375000D01*
X4656250Y-4375000D01*
X4680142Y-4376174D01*
X4680142Y-4376174D01*
G37*
D20*
G04 #@! TD*
G04 #@! TO.P,C1,2*
G04 #@! TO.N,GND*
X4200000Y-4862500D03*
D10*
G04 #@! TO.N,3.3V*
G04 #@! TO.C,C2*
G36*
X11280142Y-4376174D02*
X11303803Y-4379684D01*
X11327007Y-4385496D01*
X11349529Y-4393554D01*
X11371153Y-4403782D01*
X11391670Y-4416079D01*
X11410883Y-4430329D01*
X11428607Y-4446393D01*
X11444671Y-4464117D01*
X11458921Y-4483330D01*
X11471218Y-4503847D01*
X11481446Y-4525471D01*
X11489504Y-4547993D01*
X11495316Y-4571197D01*
X11498826Y-4594858D01*
X11500000Y-4618750D01*
X11500000Y-5106250D01*
X11498826Y-5130142D01*
X11495316Y-5153803D01*
X11489504Y-5177007D01*
X11481446Y-5199529D01*
X11471218Y-5221153D01*
X11458921Y-5241670D01*
X11444671Y-5260883D01*
X11428607Y-5278607D01*
X11410883Y-5294671D01*
X11391670Y-5308921D01*
X11371153Y-5321218D01*
X11349529Y-5331446D01*
X11327007Y-5339504D01*
X11303803Y-5345316D01*
X11280142Y-5348826D01*
X11256250Y-5350000D01*
X10343750Y-5350000D01*
X10319858Y-5348826D01*
X10296197Y-5345316D01*
X10272993Y-5339504D01*
X10250471Y-5331446D01*
X10228847Y-5321218D01*
X10208330Y-5308921D01*
X10189117Y-5294671D01*
X10171393Y-5278607D01*
X10155329Y-5260883D01*
X10141079Y-5241670D01*
X10128782Y-5221153D01*
X10118554Y-5199529D01*
X10110496Y-5177007D01*
X10104684Y-5153803D01*
X10101174Y-5130142D01*
X10100000Y-5106250D01*
X10100000Y-4618750D01*
X10101174Y-4594858D01*
X10104684Y-4571197D01*
X10110496Y-4547993D01*
X10118554Y-4525471D01*
X10128782Y-4503847D01*
X10141079Y-4483330D01*
X10155329Y-4464117D01*
X10171393Y-4446393D01*
X10189117Y-4430329D01*
X10208330Y-4416079D01*
X10228847Y-4403782D01*
X10250471Y-4393554D01*
X10272993Y-4385496D01*
X10296197Y-4379684D01*
X10319858Y-4376174D01*
X10343750Y-4375000D01*
X11256250Y-4375000D01*
X11280142Y-4376174D01*
X11280142Y-4376174D01*
G37*
D20*
G04 #@! TD*
G04 #@! TO.P,C2,1*
G04 #@! TO.N,3.3V*
X10800000Y-4862500D03*
D10*
G04 #@! TO.N,GND*
G04 #@! TO.C,C2*
G36*
X11280142Y-6251174D02*
X11303803Y-6254684D01*
X11327007Y-6260496D01*
X11349529Y-6268554D01*
X11371153Y-6278782D01*
X11391670Y-6291079D01*
X11410883Y-6305329D01*
X11428607Y-6321393D01*
X11444671Y-6339117D01*
X11458921Y-6358330D01*
X11471218Y-6378847D01*
X11481446Y-6400471D01*
X11489504Y-6422993D01*
X11495316Y-6446197D01*
X11498826Y-6469858D01*
X11500000Y-6493750D01*
X11500000Y-6981250D01*
X11498826Y-7005142D01*
X11495316Y-7028803D01*
X11489504Y-7052007D01*
X11481446Y-7074529D01*
X11471218Y-7096153D01*
X11458921Y-7116670D01*
X11444671Y-7135883D01*
X11428607Y-7153607D01*
X11410883Y-7169671D01*
X11391670Y-7183921D01*
X11371153Y-7196218D01*
X11349529Y-7206446D01*
X11327007Y-7214504D01*
X11303803Y-7220316D01*
X11280142Y-7223826D01*
X11256250Y-7225000D01*
X10343750Y-7225000D01*
X10319858Y-7223826D01*
X10296197Y-7220316D01*
X10272993Y-7214504D01*
X10250471Y-7206446D01*
X10228847Y-7196218D01*
X10208330Y-7183921D01*
X10189117Y-7169671D01*
X10171393Y-7153607D01*
X10155329Y-7135883D01*
X10141079Y-7116670D01*
X10128782Y-7096153D01*
X10118554Y-7074529D01*
X10110496Y-7052007D01*
X10104684Y-7028803D01*
X10101174Y-7005142D01*
X10100000Y-6981250D01*
X10100000Y-6493750D01*
X10101174Y-6469858D01*
X10104684Y-6446197D01*
X10110496Y-6422993D01*
X10118554Y-6400471D01*
X10128782Y-6378847D01*
X10141079Y-6358330D01*
X10155329Y-6339117D01*
X10171393Y-6321393D01*
X10189117Y-6305329D01*
X10208330Y-6291079D01*
X10228847Y-6278782D01*
X10250471Y-6268554D01*
X10272993Y-6260496D01*
X10296197Y-6254684D01*
X10319858Y-6251174D01*
X10343750Y-6250000D01*
X11256250Y-6250000D01*
X11280142Y-6251174D01*
X11280142Y-6251174D01*
G37*
D20*
G04 #@! TD*
G04 #@! TO.P,C2,2*
G04 #@! TO.N,GND*
X10800000Y-6737500D03*
D10*
G04 #@! TO.N,GND*
G04 #@! TO.C,C8*
G36*
X2880142Y-23351174D02*
X2903803Y-23354684D01*
X2927007Y-23360496D01*
X2949529Y-23368554D01*
X2971153Y-23378782D01*
X2991670Y-23391079D01*
X3010883Y-23405329D01*
X3028607Y-23421393D01*
X3044671Y-23439117D01*
X3058921Y-23458330D01*
X3071218Y-23478847D01*
X3081446Y-23500471D01*
X3089504Y-23522993D01*
X3095316Y-23546197D01*
X3098826Y-23569858D01*
X3100000Y-23593750D01*
X3100000Y-24081250D01*
X3098826Y-24105142D01*
X3095316Y-24128803D01*
X3089504Y-24152007D01*
X3081446Y-24174529D01*
X3071218Y-24196153D01*
X3058921Y-24216670D01*
X3044671Y-24235883D01*
X3028607Y-24253607D01*
X3010883Y-24269671D01*
X2991670Y-24283921D01*
X2971153Y-24296218D01*
X2949529Y-24306446D01*
X2927007Y-24314504D01*
X2903803Y-24320316D01*
X2880142Y-24323826D01*
X2856250Y-24325000D01*
X1943750Y-24325000D01*
X1919858Y-24323826D01*
X1896197Y-24320316D01*
X1872993Y-24314504D01*
X1850471Y-24306446D01*
X1828847Y-24296218D01*
X1808330Y-24283921D01*
X1789117Y-24269671D01*
X1771393Y-24253607D01*
X1755329Y-24235883D01*
X1741079Y-24216670D01*
X1728782Y-24196153D01*
X1718554Y-24174529D01*
X1710496Y-24152007D01*
X1704684Y-24128803D01*
X1701174Y-24105142D01*
X1700000Y-24081250D01*
X1700000Y-23593750D01*
X1701174Y-23569858D01*
X1704684Y-23546197D01*
X1710496Y-23522993D01*
X1718554Y-23500471D01*
X1728782Y-23478847D01*
X1741079Y-23458330D01*
X1755329Y-23439117D01*
X1771393Y-23421393D01*
X1789117Y-23405329D01*
X1808330Y-23391079D01*
X1828847Y-23378782D01*
X1850471Y-23368554D01*
X1872993Y-23360496D01*
X1896197Y-23354684D01*
X1919858Y-23351174D01*
X1943750Y-23350000D01*
X2856250Y-23350000D01*
X2880142Y-23351174D01*
X2880142Y-23351174D01*
G37*
D20*
G04 #@! TD*
G04 #@! TO.P,C8,2*
G04 #@! TO.N,GND*
X2400000Y-23837500D03*
D10*
G04 #@! TO.N,3.3V*
G04 #@! TO.C,C8*
G36*
X2880142Y-21476174D02*
X2903803Y-21479684D01*
X2927007Y-21485496D01*
X2949529Y-21493554D01*
X2971153Y-21503782D01*
X2991670Y-21516079D01*
X3010883Y-21530329D01*
X3028607Y-21546393D01*
X3044671Y-21564117D01*
X3058921Y-21583330D01*
X3071218Y-21603847D01*
X3081446Y-21625471D01*
X3089504Y-21647993D01*
X3095316Y-21671197D01*
X3098826Y-21694858D01*
X3100000Y-21718750D01*
X3100000Y-22206250D01*
X3098826Y-22230142D01*
X3095316Y-22253803D01*
X3089504Y-22277007D01*
X3081446Y-22299529D01*
X3071218Y-22321153D01*
X3058921Y-22341670D01*
X3044671Y-22360883D01*
X3028607Y-22378607D01*
X3010883Y-22394671D01*
X2991670Y-22408921D01*
X2971153Y-22421218D01*
X2949529Y-22431446D01*
X2927007Y-22439504D01*
X2903803Y-22445316D01*
X2880142Y-22448826D01*
X2856250Y-22450000D01*
X1943750Y-22450000D01*
X1919858Y-22448826D01*
X1896197Y-22445316D01*
X1872993Y-22439504D01*
X1850471Y-22431446D01*
X1828847Y-22421218D01*
X1808330Y-22408921D01*
X1789117Y-22394671D01*
X1771393Y-22378607D01*
X1755329Y-22360883D01*
X1741079Y-22341670D01*
X1728782Y-22321153D01*
X1718554Y-22299529D01*
X1710496Y-22277007D01*
X1704684Y-22253803D01*
X1701174Y-22230142D01*
X1700000Y-22206250D01*
X1700000Y-21718750D01*
X1701174Y-21694858D01*
X1704684Y-21671197D01*
X1710496Y-21647993D01*
X1718554Y-21625471D01*
X1728782Y-21603847D01*
X1741079Y-21583330D01*
X1755329Y-21564117D01*
X1771393Y-21546393D01*
X1789117Y-21530329D01*
X1808330Y-21516079D01*
X1828847Y-21503782D01*
X1850471Y-21493554D01*
X1872993Y-21485496D01*
X1896197Y-21479684D01*
X1919858Y-21476174D01*
X1943750Y-21475000D01*
X2856250Y-21475000D01*
X2880142Y-21476174D01*
X2880142Y-21476174D01*
G37*
D20*
G04 #@! TD*
G04 #@! TO.P,C8,1*
G04 #@! TO.N,3.3V*
X2400000Y-21962500D03*
D21*
G04 #@! TO.N,3.3V*
X700000Y-11700000D03*
X10000000Y-20200000D03*
G04 #@! TO.N,GND*
X11000000Y-8000000D03*
X4000000Y-15300000D03*
X6300000Y-20300000D03*
X10000000Y-19400000D03*
X2600000Y-10200000D03*
X11800000Y-10200000D03*
X3700000Y-24300000D03*
X13100000Y-25000000D03*
X5700000Y-11500000D03*
G04 #@! TO.N,5V*
X4000000Y-8000000D03*
G04 #@! TO.N,swclk*
X5600000Y-7700000D03*
G04 #@! TO.N,swdio*
X9750000Y-7700000D03*
G04 #@! TO.N,d-*
X6500000Y-7700000D03*
G04 #@! TO.N,d+*
X8500000Y-7700000D03*
G04 #@! TO.N,sck*
X1300000Y-20500000D03*
G04 #@! TO.N,miso*
X1300000Y-14800000D03*
G04 #@! TO.N,mosi*
X4000000Y-18000000D03*
G04 #@! TO.N,cs*
X10000000Y-15100000D03*
G04 #@! TO.N,Net-(C10-Pad2)*
X4350000Y-20250000D03*
G04 #@! TO.N,nrst*
X8250000Y-20300000D03*
G04 #@! TD*
D22*
G04 #@! TO.N,3.3V*
X11350000Y-21537500D02*
X11412500Y-21600000D01*
X11350000Y-19950000D02*
X11350000Y-21537500D01*
X11362500Y-21550000D02*
X11412500Y-21600000D01*
X9750000Y-21550000D02*
X11362500Y-21550000D01*
X9812500Y-12787500D02*
X9750000Y-12850000D01*
X11500000Y-12787500D02*
X9812500Y-12787500D01*
X2600000Y-14400000D02*
X2650000Y-14450000D01*
X10687500Y-4800000D02*
X10800000Y-4912500D01*
X8450000Y-4800000D02*
X10687500Y-4800000D01*
X8450000Y-4850000D02*
X8450000Y-4800000D01*
X7524990Y-5775010D02*
X8450000Y-4850000D01*
X1100000Y-6200000D02*
X1524990Y-5775010D01*
X1524990Y-5775010D02*
X7524990Y-5775010D01*
X2600000Y-13800000D02*
X2600000Y-14400000D01*
X600000Y-6700000D02*
X1100000Y-6200000D01*
X2600000Y-12787500D02*
X2600000Y-13800000D01*
X2600000Y-13800000D02*
X600000Y-13800000D01*
X600000Y-11700000D02*
X600000Y-6700000D01*
X600000Y-13800000D02*
X600000Y-11700000D01*
X12900000Y-6387500D02*
X12900000Y-12800000D01*
X11500000Y-12787500D02*
X12887500Y-12787500D01*
X11425000Y-4912500D02*
X12900000Y-6387500D01*
X12887500Y-12787500D02*
X12900000Y-12800000D01*
X10800000Y-4912500D02*
X11425000Y-4912500D01*
X5615001Y-22500001D02*
X2987501Y-22500001D01*
X5750000Y-22365002D02*
X5615001Y-22500001D01*
X5750000Y-21550000D02*
X5750000Y-22365002D01*
X600001Y-22500001D02*
X600000Y-22500000D01*
X2987501Y-22500001D02*
X600001Y-22500001D01*
X600000Y-22500000D02*
X600000Y-13800000D01*
X2400000Y-22500000D02*
X2400000Y-21912500D01*
X2987501Y-22500001D02*
X2987500Y-22500000D01*
X2987500Y-22500000D02*
X2400000Y-22500000D01*
X4960000Y-28900000D02*
X3660000Y-27600000D01*
X600000Y-26700000D02*
X600000Y-22500000D01*
X1500000Y-27600000D02*
X600000Y-26700000D01*
X3660000Y-27600000D02*
X1500000Y-27600000D01*
X12900000Y-19250000D02*
X12200000Y-19950000D01*
X12900000Y-12800000D02*
X12900000Y-19250000D01*
X12200000Y-19950000D02*
X11350000Y-19950000D01*
X11350000Y-19950000D02*
X10250000Y-19950000D01*
X10250000Y-19950000D02*
X10000000Y-20200000D01*
G04 #@! TO.N,GND*
X2650000Y-14950000D02*
X3650000Y-14950000D01*
X3650000Y-14950000D02*
X4000000Y-15300000D01*
X6250000Y-21550000D02*
X6250000Y-20350000D01*
X6250000Y-20350000D02*
X6300000Y-20300000D01*
X11350000Y-19450000D02*
X10050000Y-19450000D01*
X10050000Y-19450000D02*
X10000000Y-19400000D01*
X2600000Y-11212500D02*
X2600000Y-10200000D01*
X11800000Y-11212500D02*
X11800000Y-10200000D01*
G04 #@! TO.N,5V*
X4312500Y-6800000D02*
X4200000Y-6687500D01*
X7500000Y-6800000D02*
X4312500Y-6800000D01*
X4000000Y-6887500D02*
X4200000Y-6687500D01*
X4000000Y-8000000D02*
X4000000Y-6887500D01*
X4000000Y-8424264D02*
X4000000Y-8000000D01*
X4378860Y-9700000D02*
X4000000Y-9321140D01*
X4000000Y-9321140D02*
X4000000Y-8424264D01*
X6340000Y-9700000D02*
X4378860Y-9700000D01*
G04 #@! TO.N,swclk*
X4862500Y-8750000D02*
X4800000Y-8812500D01*
X5600000Y-8750000D02*
X4862500Y-8750000D01*
X6340000Y-8750000D02*
X5600000Y-8750000D01*
X5600000Y-8750000D02*
X5600000Y-7700000D01*
G04 #@! TO.N,swdio*
X10137500Y-8750000D02*
X10200000Y-8812500D01*
X9400000Y-8750000D02*
X10137500Y-8750000D01*
X8660000Y-8750000D02*
X9400000Y-8750000D01*
X9450001Y-8699999D02*
X9400000Y-8750000D01*
X9450001Y-7999999D02*
X9450001Y-8699999D01*
X9750000Y-7700000D02*
X9450001Y-7999999D01*
G04 #@! TO.N,d-*
X6990001Y-10650000D02*
X6340000Y-10650000D01*
X6500000Y-7700000D02*
X6990001Y-8190001D01*
X6990001Y-8190001D02*
X6990001Y-10650000D01*
X6990001Y-11240001D02*
X6990001Y-10650000D01*
X7750000Y-12000000D02*
X6990001Y-11240001D01*
X7750000Y-12850000D02*
X7750000Y-12000000D01*
G04 #@! TO.N,d+*
X8500000Y-7700000D02*
X8009999Y-8190001D01*
X8009999Y-10650000D02*
X8660000Y-10650000D01*
X8009999Y-8190001D02*
X8009999Y-10650000D01*
X8250000Y-11650000D02*
X8250000Y-12000000D01*
X8009999Y-10650000D02*
X8009999Y-11409999D01*
X8250000Y-12000000D02*
X8250000Y-12850000D01*
X8009999Y-11409999D02*
X8250000Y-11650000D01*
G04 #@! TO.N,Net-(C4-Pad1)*
X10250000Y-25700000D02*
X9350000Y-24800000D01*
X11412500Y-26100000D02*
X10250000Y-26100000D01*
X8150000Y-25200000D02*
X9350000Y-25200000D01*
X7750000Y-21550000D02*
X7750000Y-24800000D01*
X7750000Y-24800000D02*
X8150000Y-25200000D01*
G04 #@! TO.N,Net-(C5-Pad1)*
X6850000Y-25200000D02*
X5650000Y-25200000D01*
X7250000Y-24800000D02*
X6850000Y-25200000D01*
X4750000Y-25700000D02*
X5650000Y-24800000D01*
X3587500Y-26100000D02*
X4750000Y-26100000D01*
X7250000Y-21550000D02*
X7250000Y-24800000D01*
G04 #@! TO.N,Net-(R2-Pad2)*
X8750000Y-11950000D02*
X8750000Y-12850000D01*
X10200000Y-10600000D02*
X10100000Y-10600000D01*
X10100000Y-10600000D02*
X8750000Y-11950000D01*
G04 #@! TO.N,sck*
X1300000Y-19400000D02*
X1300000Y-20500000D01*
X2650000Y-18950000D02*
X1750000Y-18950000D01*
X1750000Y-18950000D02*
X1300000Y-19400000D01*
G04 #@! TO.N,miso*
X1300000Y-17950000D02*
X1300000Y-14800000D01*
X2650000Y-18450000D02*
X1800000Y-18450000D01*
X1800000Y-18450000D02*
X1300000Y-17950000D01*
G04 #@! TO.N,mosi*
X2700000Y-18000000D02*
X2650000Y-17950000D01*
X4000000Y-18000000D02*
X2700000Y-18000000D01*
G04 #@! TO.N,cs*
X11350000Y-14950000D02*
X10150000Y-14950000D01*
X10150000Y-14950000D02*
X10000000Y-15100000D01*
G04 #@! TO.N,Net-(C10-Pad2)*
X4250000Y-20350000D02*
X4350000Y-20250000D01*
X4250000Y-21550000D02*
X4250000Y-20350000D01*
G04 #@! TO.N,nrst*
X8250000Y-21550000D02*
X8250000Y-20300000D01*
X7825736Y-20300000D02*
X8250000Y-20300000D01*
X7150000Y-20300000D02*
X7825736Y-20300000D01*
X6750000Y-20700000D02*
X7150000Y-20300000D01*
X6750000Y-21550000D02*
X6750000Y-20700000D01*
X8250000Y-21550000D02*
X8250000Y-22950000D01*
X10938388Y-23438388D02*
X11400000Y-23900000D01*
X8738388Y-23438388D02*
X10938388Y-23438388D01*
X8250000Y-22950000D02*
X8738388Y-23438388D01*
G04 #@! TO.N,nc1*
X4750000Y-10487500D02*
X4750000Y-12800000D01*
X10500000Y-14450000D02*
X11350000Y-14450000D01*
X5500000Y-14450000D02*
X10500000Y-14450000D01*
X4750000Y-13700000D02*
X5500000Y-14450000D01*
X4750000Y-12850000D02*
X4750000Y-13700000D01*
G04 #@! TD*
G04 #@! TO.N,GND*
G36*
X13343666Y-1170319D02*
X13635011Y-1364989D01*
X13829681Y-1656334D01*
X13900000Y-2009851D01*
X13900000Y-28990149D01*
X13829681Y-29343666D01*
X13755877Y-29454122D01*
X13755877Y-28250000D01*
X13732593Y-28132946D01*
X13666288Y-28033712D01*
X13567054Y-27967407D01*
X13450000Y-27944123D01*
X11750000Y-27944123D01*
X11632946Y-27967407D01*
X11533712Y-28033712D01*
X11467407Y-28132946D01*
X11444123Y-28250000D01*
X11444123Y-29900000D01*
X10908549Y-29900000D01*
X11143276Y-29548707D01*
X11232529Y-29100000D01*
X11143276Y-28651293D01*
X10889103Y-28270897D01*
X10508707Y-28016724D01*
X10173261Y-27950000D01*
X9946739Y-27950000D01*
X9611293Y-28016724D01*
X9230897Y-28270897D01*
X8976724Y-28651293D01*
X8887471Y-29100000D01*
X8976724Y-29548707D01*
X9211451Y-29900000D01*
X5828549Y-29900000D01*
X6063276Y-29548707D01*
X6152529Y-29100000D01*
X6063276Y-28651293D01*
X5809103Y-28270897D01*
X5428707Y-28016724D01*
X5093261Y-27950000D01*
X4866739Y-27950000D01*
X4623973Y-27998289D01*
X3970703Y-27345019D01*
X3948384Y-27311616D01*
X3816072Y-27223209D01*
X3699394Y-27200000D01*
X3660000Y-27192164D01*
X3620606Y-27200000D01*
X1665686Y-27200000D01*
X1100000Y-26634316D01*
X1100000Y-25843750D01*
X2844123Y-25843750D01*
X2844123Y-26356250D01*
X2884058Y-26557016D01*
X2997783Y-26727217D01*
X3167984Y-26840942D01*
X3368750Y-26880877D01*
X3806250Y-26880877D01*
X4007016Y-26840942D01*
X4177217Y-26727217D01*
X4290942Y-26557016D01*
X4302283Y-26500000D01*
X4364015Y-26500000D01*
X4367407Y-26517054D01*
X4433712Y-26616288D01*
X4532946Y-26682593D01*
X4650000Y-26705877D01*
X6650000Y-26705877D01*
X6767054Y-26682593D01*
X6866288Y-26616288D01*
X6932593Y-26517054D01*
X6955877Y-26400000D01*
X6955877Y-25586776D01*
X7006072Y-25576791D01*
X7138384Y-25488384D01*
X7160702Y-25454982D01*
X7500001Y-25115685D01*
X7839301Y-25454987D01*
X7861616Y-25488384D01*
X7993928Y-25576791D01*
X8044123Y-25586776D01*
X8044123Y-26400000D01*
X8067407Y-26517054D01*
X8133712Y-26616288D01*
X8232946Y-26682593D01*
X8350000Y-26705877D01*
X10350000Y-26705877D01*
X10467054Y-26682593D01*
X10566288Y-26616288D01*
X10632593Y-26517054D01*
X10635985Y-26500000D01*
X10697717Y-26500000D01*
X10709058Y-26557016D01*
X10822783Y-26727217D01*
X10992984Y-26840942D01*
X11193750Y-26880877D01*
X11631250Y-26880877D01*
X11832016Y-26840942D01*
X12002217Y-26727217D01*
X12115942Y-26557016D01*
X12155877Y-26356250D01*
X12155877Y-25843750D01*
X12115942Y-25642984D01*
X12002217Y-25472783D01*
X11832016Y-25359058D01*
X11631250Y-25319123D01*
X11193750Y-25319123D01*
X10992984Y-25359058D01*
X10822783Y-25472783D01*
X10709058Y-25642984D01*
X10697717Y-25700000D01*
X10657836Y-25700000D01*
X10657836Y-25699999D01*
X10655877Y-25690151D01*
X10655877Y-24000000D01*
X10632593Y-23882946D01*
X10602821Y-23838388D01*
X10656623Y-23838388D01*
X10656623Y-24156250D01*
X10696558Y-24357016D01*
X10810283Y-24527217D01*
X10980484Y-24640942D01*
X11181250Y-24680877D01*
X11618750Y-24680877D01*
X11819516Y-24640942D01*
X11989717Y-24527217D01*
X12103442Y-24357016D01*
X12143377Y-24156250D01*
X12143377Y-23643750D01*
X12103442Y-23442984D01*
X11989717Y-23272783D01*
X11819516Y-23159058D01*
X11618750Y-23119123D01*
X11181250Y-23119123D01*
X11180714Y-23119230D01*
X11094460Y-23061597D01*
X10977782Y-23038388D01*
X10938388Y-23030552D01*
X10898994Y-23038388D01*
X8904073Y-23038388D01*
X8650000Y-22784316D01*
X8650000Y-22505877D01*
X8875000Y-22505877D01*
X8992054Y-22482593D01*
X9091288Y-22416288D01*
X9157593Y-22317054D01*
X9180877Y-22200000D01*
X9180877Y-20900000D01*
X9157593Y-20782946D01*
X9091288Y-20683712D01*
X8992054Y-20617407D01*
X8875000Y-20594123D01*
X8777606Y-20594123D01*
X8850000Y-20419347D01*
X8850000Y-20180653D01*
X8758656Y-19960127D01*
X8589873Y-19791344D01*
X8369347Y-19700000D01*
X8130653Y-19700000D01*
X7910127Y-19791344D01*
X7801471Y-19900000D01*
X7189392Y-19900000D01*
X7149999Y-19892164D01*
X7110606Y-19900000D01*
X6993928Y-19923209D01*
X6861616Y-20011616D01*
X6839301Y-20045013D01*
X6495016Y-20389300D01*
X6461617Y-20411616D01*
X6410324Y-20488383D01*
X6373209Y-20543929D01*
X6342164Y-20700000D01*
X6350001Y-20739398D01*
X6350001Y-20771581D01*
X6342407Y-20782946D01*
X6319123Y-20900000D01*
X6319123Y-22200000D01*
X6342407Y-22317054D01*
X6408712Y-22416288D01*
X6507946Y-22482593D01*
X6625000Y-22505877D01*
X6850000Y-22505877D01*
X6850001Y-23772829D01*
X6767054Y-23717407D01*
X6650000Y-23694123D01*
X4650000Y-23694123D01*
X4532946Y-23717407D01*
X4433712Y-23783712D01*
X4367407Y-23882946D01*
X4344123Y-24000000D01*
X4344123Y-25690152D01*
X4342164Y-25700000D01*
X4302283Y-25700000D01*
X4290942Y-25642984D01*
X4177217Y-25472783D01*
X4007016Y-25359058D01*
X3806250Y-25319123D01*
X3368750Y-25319123D01*
X3167984Y-25359058D01*
X2997783Y-25472783D01*
X2884058Y-25642984D01*
X2844123Y-25843750D01*
X1100000Y-25843750D01*
X1100000Y-22900001D01*
X2360611Y-22900001D01*
X2400000Y-22907836D01*
X2439389Y-22900001D01*
X2948108Y-22900001D01*
X2987500Y-22907837D01*
X3026893Y-22900001D01*
X5575607Y-22900001D01*
X5615001Y-22907837D01*
X5654395Y-22900001D01*
X5771073Y-22876792D01*
X5903385Y-22788385D01*
X5925703Y-22754983D01*
X6004983Y-22675703D01*
X6038384Y-22653386D01*
X6126791Y-22521074D01*
X6150000Y-22404396D01*
X6150000Y-22404395D01*
X6157836Y-22365003D01*
X6150430Y-22327774D01*
X6157593Y-22317054D01*
X6180877Y-22200000D01*
X6180877Y-20900000D01*
X6157593Y-20782946D01*
X6091288Y-20683712D01*
X5992054Y-20617407D01*
X5875000Y-20594123D01*
X5625000Y-20594123D01*
X5507946Y-20617407D01*
X5500000Y-20622716D01*
X5492054Y-20617407D01*
X5375000Y-20594123D01*
X5125000Y-20594123D01*
X5007946Y-20617407D01*
X5000000Y-20622716D01*
X4992054Y-20617407D01*
X4875000Y-20594123D01*
X4854406Y-20594123D01*
X4858656Y-20589873D01*
X4950000Y-20369347D01*
X4950000Y-20130653D01*
X4858656Y-19910127D01*
X4689873Y-19741344D01*
X4469347Y-19650000D01*
X4230653Y-19650000D01*
X4010127Y-19741344D01*
X3841344Y-19910127D01*
X3750000Y-20130653D01*
X3750000Y-20369347D01*
X3841344Y-20589873D01*
X3850001Y-20598530D01*
X3850001Y-20771581D01*
X3842407Y-20782946D01*
X3819123Y-20900000D01*
X3819123Y-22100001D01*
X3405877Y-22100001D01*
X3405877Y-21718750D01*
X3364039Y-21508417D01*
X3244895Y-21330105D01*
X3066583Y-21210961D01*
X2856250Y-21169123D01*
X1943750Y-21169123D01*
X1733417Y-21210961D01*
X1555105Y-21330105D01*
X1435961Y-21508417D01*
X1394123Y-21718750D01*
X1394123Y-22100001D01*
X1100000Y-22100001D01*
X1100000Y-21066593D01*
X1180653Y-21100000D01*
X1419347Y-21100000D01*
X1639873Y-21008656D01*
X1808656Y-20839873D01*
X1900000Y-20619347D01*
X1900000Y-20380653D01*
X1891122Y-20359219D01*
X2000000Y-20380877D01*
X3300000Y-20380877D01*
X3417054Y-20357593D01*
X3516288Y-20291288D01*
X3582593Y-20192054D01*
X3605877Y-20075000D01*
X3605877Y-19825000D01*
X3582593Y-19707946D01*
X3577284Y-19700000D01*
X3582593Y-19692054D01*
X3605877Y-19575000D01*
X3605877Y-19325000D01*
X3582593Y-19207946D01*
X3577284Y-19200000D01*
X3582593Y-19192054D01*
X3605877Y-19075000D01*
X3605877Y-18825000D01*
X3582593Y-18707946D01*
X3577284Y-18700000D01*
X3582593Y-18692054D01*
X3605877Y-18575000D01*
X3605877Y-18454406D01*
X3660127Y-18508656D01*
X3880653Y-18600000D01*
X4119347Y-18600000D01*
X4339873Y-18508656D01*
X4508656Y-18339873D01*
X4514816Y-18325000D01*
X10394123Y-18325000D01*
X10394123Y-18575000D01*
X10417407Y-18692054D01*
X10422716Y-18700000D01*
X10417407Y-18707946D01*
X10394123Y-18825000D01*
X10394123Y-19075000D01*
X10417407Y-19192054D01*
X10483712Y-19291288D01*
X10582946Y-19357593D01*
X10700000Y-19380877D01*
X12000000Y-19380877D01*
X12117054Y-19357593D01*
X12216288Y-19291288D01*
X12282593Y-19192054D01*
X12305877Y-19075000D01*
X12305877Y-18825000D01*
X12282593Y-18707946D01*
X12277284Y-18700000D01*
X12282593Y-18692054D01*
X12305877Y-18575000D01*
X12305877Y-18325000D01*
X12282593Y-18207946D01*
X12216288Y-18108712D01*
X12117054Y-18042407D01*
X12000000Y-18019123D01*
X10700000Y-18019123D01*
X10582946Y-18042407D01*
X10483712Y-18108712D01*
X10417407Y-18207946D01*
X10394123Y-18325000D01*
X4514816Y-18325000D01*
X4600000Y-18119347D01*
X4600000Y-17880653D01*
X4508656Y-17660127D01*
X4339873Y-17491344D01*
X4119347Y-17400000D01*
X3880653Y-17400000D01*
X3660127Y-17491344D01*
X3605877Y-17545594D01*
X3605877Y-17325000D01*
X3582593Y-17207946D01*
X3577284Y-17200000D01*
X3582593Y-17192054D01*
X3605877Y-17075000D01*
X3605877Y-16825000D01*
X10394123Y-16825000D01*
X10394123Y-17075000D01*
X10417407Y-17192054D01*
X10422716Y-17200000D01*
X10417407Y-17207946D01*
X10394123Y-17325000D01*
X10394123Y-17575000D01*
X10417407Y-17692054D01*
X10483712Y-17791288D01*
X10582946Y-17857593D01*
X10700000Y-17880877D01*
X12000000Y-17880877D01*
X12117054Y-17857593D01*
X12216288Y-17791288D01*
X12282593Y-17692054D01*
X12305877Y-17575000D01*
X12305877Y-17325000D01*
X12282593Y-17207946D01*
X12277284Y-17200000D01*
X12282593Y-17192054D01*
X12305877Y-17075000D01*
X12305877Y-16825000D01*
X12282593Y-16707946D01*
X12216288Y-16608712D01*
X12117054Y-16542407D01*
X12000000Y-16519123D01*
X10700000Y-16519123D01*
X10582946Y-16542407D01*
X10483712Y-16608712D01*
X10417407Y-16707946D01*
X10394123Y-16825000D01*
X3605877Y-16825000D01*
X3582593Y-16707946D01*
X3577284Y-16700000D01*
X3582593Y-16692054D01*
X3605877Y-16575000D01*
X3605877Y-16325000D01*
X3582593Y-16207946D01*
X3577284Y-16200000D01*
X3582593Y-16192054D01*
X3605877Y-16075000D01*
X3605877Y-15825000D01*
X10394123Y-15825000D01*
X10394123Y-16075000D01*
X10417407Y-16192054D01*
X10483712Y-16291288D01*
X10582946Y-16357593D01*
X10700000Y-16380877D01*
X12000000Y-16380877D01*
X12117054Y-16357593D01*
X12216288Y-16291288D01*
X12282593Y-16192054D01*
X12305877Y-16075000D01*
X12305877Y-15825000D01*
X12282593Y-15707946D01*
X12216288Y-15608712D01*
X12117054Y-15542407D01*
X12000000Y-15519123D01*
X10700000Y-15519123D01*
X10582946Y-15542407D01*
X10483712Y-15608712D01*
X10417407Y-15707946D01*
X10394123Y-15825000D01*
X3605877Y-15825000D01*
X3582593Y-15707946D01*
X3577284Y-15700000D01*
X3582593Y-15692054D01*
X3605877Y-15575000D01*
X3605877Y-15325000D01*
X3582593Y-15207946D01*
X3516288Y-15108712D01*
X3417054Y-15042407D01*
X3300000Y-15019123D01*
X2000000Y-15019123D01*
X1882946Y-15042407D01*
X1836048Y-15073743D01*
X1900000Y-14919347D01*
X1900000Y-14860985D01*
X2000000Y-14880877D01*
X3300000Y-14880877D01*
X3417054Y-14857593D01*
X3516288Y-14791288D01*
X3582593Y-14692054D01*
X3605877Y-14575000D01*
X3605877Y-14325000D01*
X3582593Y-14207946D01*
X3516288Y-14108712D01*
X3417054Y-14042407D01*
X3300000Y-14019123D01*
X3000000Y-14019123D01*
X3000000Y-13839393D01*
X3007836Y-13800000D01*
X3000000Y-13760606D01*
X3000000Y-13502283D01*
X3057016Y-13490942D01*
X3227217Y-13377217D01*
X3340942Y-13207016D01*
X3380877Y-13006250D01*
X3380877Y-12568750D01*
X3340942Y-12367984D01*
X3227217Y-12197783D01*
X3057016Y-12084058D01*
X2856250Y-12044123D01*
X2343750Y-12044123D01*
X2142984Y-12084058D01*
X1972783Y-12197783D01*
X1859058Y-12367984D01*
X1819123Y-12568750D01*
X1819123Y-13006250D01*
X1859058Y-13207016D01*
X1972783Y-13377217D01*
X2006880Y-13400000D01*
X1100000Y-13400000D01*
X1100000Y-12148529D01*
X1208656Y-12039873D01*
X1300000Y-11819347D01*
X1300000Y-11580653D01*
X1208656Y-11360127D01*
X1100000Y-11251471D01*
X1100000Y-6765684D01*
X1410698Y-6454987D01*
X1410700Y-6454984D01*
X1690675Y-6175010D01*
X3308396Y-6175010D01*
X3235961Y-6283417D01*
X3194123Y-6493750D01*
X3194123Y-6981250D01*
X3235961Y-7191583D01*
X3355105Y-7369895D01*
X3533417Y-7489039D01*
X3600000Y-7502283D01*
X3600000Y-7551471D01*
X3491344Y-7660127D01*
X3400000Y-7880653D01*
X3400000Y-8119347D01*
X3491344Y-8339873D01*
X3600000Y-8448529D01*
X3600000Y-8463657D01*
X3600001Y-8463662D01*
X3600000Y-9281746D01*
X3592164Y-9321140D01*
X3600000Y-9360533D01*
X3623209Y-9477211D01*
X3711616Y-9609524D01*
X3745018Y-9631842D01*
X4068159Y-9954984D01*
X4090476Y-9988384D01*
X4105526Y-9998440D01*
X4059058Y-10067984D01*
X4019123Y-10268750D01*
X4019123Y-10706250D01*
X4059058Y-10907016D01*
X4172783Y-11077217D01*
X4342984Y-11190942D01*
X4350000Y-11192338D01*
X4350001Y-11894123D01*
X4125000Y-11894123D01*
X4007946Y-11917407D01*
X3908712Y-11983712D01*
X3842407Y-12082946D01*
X3819123Y-12200000D01*
X3819123Y-13500000D01*
X3842407Y-13617054D01*
X3908712Y-13716288D01*
X4007946Y-13782593D01*
X4125000Y-13805877D01*
X4363225Y-13805877D01*
X4373209Y-13856071D01*
X4373210Y-13856072D01*
X4461617Y-13988384D01*
X4495016Y-14010700D01*
X5189301Y-14704987D01*
X5211616Y-14738384D01*
X5343928Y-14826791D01*
X5460606Y-14850000D01*
X5499999Y-14857836D01*
X5539392Y-14850000D01*
X9454118Y-14850000D01*
X9400000Y-14980653D01*
X9400000Y-15219347D01*
X9491344Y-15439873D01*
X9660127Y-15608656D01*
X9880653Y-15700000D01*
X10119347Y-15700000D01*
X10339873Y-15608656D01*
X10508656Y-15439873D01*
X10545882Y-15350000D01*
X10571582Y-15350000D01*
X10582946Y-15357593D01*
X10700000Y-15380877D01*
X12000000Y-15380877D01*
X12117054Y-15357593D01*
X12216288Y-15291288D01*
X12282593Y-15192054D01*
X12305877Y-15075000D01*
X12305877Y-14825000D01*
X12282593Y-14707946D01*
X12277284Y-14700000D01*
X12282593Y-14692054D01*
X12305877Y-14575000D01*
X12305877Y-14325000D01*
X12282593Y-14207946D01*
X12216288Y-14108712D01*
X12117054Y-14042407D01*
X12000000Y-14019123D01*
X10700000Y-14019123D01*
X10582946Y-14042407D01*
X10571582Y-14050000D01*
X5665686Y-14050000D01*
X5413837Y-13798152D01*
X5492054Y-13782593D01*
X5591288Y-13716288D01*
X5657593Y-13617054D01*
X5680877Y-13500000D01*
X5680877Y-12200000D01*
X5819123Y-12200000D01*
X5819123Y-13500000D01*
X5842407Y-13617054D01*
X5908712Y-13716288D01*
X6007946Y-13782593D01*
X6125000Y-13805877D01*
X6375000Y-13805877D01*
X6492054Y-13782593D01*
X6591288Y-13716288D01*
X6657593Y-13617054D01*
X6680877Y-13500000D01*
X6680877Y-12200000D01*
X6657593Y-12082946D01*
X6591288Y-11983712D01*
X6492054Y-11917407D01*
X6375000Y-11894123D01*
X6125000Y-11894123D01*
X6007946Y-11917407D01*
X5908712Y-11983712D01*
X5842407Y-12082946D01*
X5819123Y-12200000D01*
X5680877Y-12200000D01*
X5657593Y-12082946D01*
X5591288Y-11983712D01*
X5492054Y-11917407D01*
X5375000Y-11894123D01*
X5150000Y-11894123D01*
X5150000Y-11212229D01*
X5257016Y-11190942D01*
X5427217Y-11077217D01*
X5540942Y-10907016D01*
X5580877Y-10706250D01*
X5580877Y-10268750D01*
X5547310Y-10100000D01*
X5726080Y-10100000D01*
X5773712Y-10171288D01*
X5779267Y-10175000D01*
X5773712Y-10178712D01*
X5707407Y-10277946D01*
X5684123Y-10395000D01*
X5684123Y-10905000D01*
X5707407Y-11022054D01*
X5773712Y-11121288D01*
X5872946Y-11187593D01*
X5990000Y-11210877D01*
X6587958Y-11210877D01*
X6582165Y-11240001D01*
X6590001Y-11279394D01*
X6613210Y-11396072D01*
X6701617Y-11528385D01*
X6735020Y-11550704D01*
X7086164Y-11901848D01*
X7007946Y-11917407D01*
X6908712Y-11983712D01*
X6842407Y-12082946D01*
X6819123Y-12200000D01*
X6819123Y-13500000D01*
X6842407Y-13617054D01*
X6908712Y-13716288D01*
X7007946Y-13782593D01*
X7125000Y-13805877D01*
X7375000Y-13805877D01*
X7492054Y-13782593D01*
X7500000Y-13777284D01*
X7507946Y-13782593D01*
X7625000Y-13805877D01*
X7875000Y-13805877D01*
X7992054Y-13782593D01*
X8000000Y-13777284D01*
X8007946Y-13782593D01*
X8125000Y-13805877D01*
X8375000Y-13805877D01*
X8492054Y-13782593D01*
X8500000Y-13777284D01*
X8507946Y-13782593D01*
X8625000Y-13805877D01*
X8875000Y-13805877D01*
X8992054Y-13782593D01*
X9091288Y-13716288D01*
X9157593Y-13617054D01*
X9180877Y-13500000D01*
X9180877Y-12200000D01*
X9161765Y-12103919D01*
X10034808Y-11230877D01*
X10456250Y-11230877D01*
X10657016Y-11190942D01*
X10827217Y-11077217D01*
X10940942Y-10907016D01*
X10980877Y-10706250D01*
X10980877Y-10268750D01*
X10940942Y-10067984D01*
X10827217Y-9897783D01*
X10657016Y-9784058D01*
X10456250Y-9744123D01*
X9943750Y-9744123D01*
X9742984Y-9784058D01*
X9572783Y-9897783D01*
X9459058Y-10067984D01*
X9419123Y-10268750D01*
X9419123Y-10706250D01*
X9420607Y-10713708D01*
X9315877Y-10818438D01*
X9315877Y-10395000D01*
X9292593Y-10277946D01*
X9226288Y-10178712D01*
X9127054Y-10112407D01*
X9010000Y-10089123D01*
X8409999Y-10089123D01*
X8409999Y-9310877D01*
X9010000Y-9310877D01*
X9127054Y-9287593D01*
X9226288Y-9221288D01*
X9273920Y-9150000D01*
X9360606Y-9150000D01*
X9400000Y-9157836D01*
X9423482Y-9153165D01*
X9459058Y-9332016D01*
X9572783Y-9502217D01*
X9742984Y-9615942D01*
X9943750Y-9655877D01*
X10456250Y-9655877D01*
X10657016Y-9615942D01*
X10827217Y-9502217D01*
X10940942Y-9332016D01*
X10980877Y-9131250D01*
X10980877Y-8693750D01*
X10940942Y-8492984D01*
X10827217Y-8322783D01*
X10657016Y-8209058D01*
X10456250Y-8169123D01*
X10129406Y-8169123D01*
X10258656Y-8039873D01*
X10350000Y-7819347D01*
X10350000Y-7580653D01*
X10258656Y-7360127D01*
X10089873Y-7191344D01*
X9869347Y-7100000D01*
X9630653Y-7100000D01*
X9410127Y-7191344D01*
X9241344Y-7360127D01*
X9150000Y-7580653D01*
X9150000Y-7729001D01*
X9100000Y-7803833D01*
X9100000Y-7580653D01*
X9008656Y-7360127D01*
X8839873Y-7191344D01*
X8619347Y-7100000D01*
X8380653Y-7100000D01*
X8205877Y-7172394D01*
X8205877Y-6350000D01*
X8182593Y-6232946D01*
X8116288Y-6133712D01*
X8017054Y-6067407D01*
X7900000Y-6044123D01*
X7826250Y-6044123D01*
X7835693Y-6029991D01*
X8309808Y-5555877D01*
X8850000Y-5555877D01*
X8967054Y-5532593D01*
X9066288Y-5466288D01*
X9132593Y-5367054D01*
X9155877Y-5250000D01*
X9155877Y-5200000D01*
X9812771Y-5200000D01*
X9835961Y-5316583D01*
X9955105Y-5494895D01*
X10133417Y-5614039D01*
X10343750Y-5655877D01*
X11256250Y-5655877D01*
X11466583Y-5614039D01*
X11523095Y-5576279D01*
X12500000Y-6553185D01*
X12500001Y-12306712D01*
X12427217Y-12197783D01*
X12257016Y-12084058D01*
X12056250Y-12044123D01*
X11543750Y-12044123D01*
X11342984Y-12084058D01*
X11172783Y-12197783D01*
X11059058Y-12367984D01*
X11055176Y-12387500D01*
X10180877Y-12387500D01*
X10180877Y-12200000D01*
X10157593Y-12082946D01*
X10091288Y-11983712D01*
X9992054Y-11917407D01*
X9875000Y-11894123D01*
X9625000Y-11894123D01*
X9507946Y-11917407D01*
X9408712Y-11983712D01*
X9342407Y-12082946D01*
X9319123Y-12200000D01*
X9319123Y-13500000D01*
X9342407Y-13617054D01*
X9408712Y-13716288D01*
X9507946Y-13782593D01*
X9625000Y-13805877D01*
X9875000Y-13805877D01*
X9992054Y-13782593D01*
X10091288Y-13716288D01*
X10157593Y-13617054D01*
X10180877Y-13500000D01*
X10180877Y-13187500D01*
X11055176Y-13187500D01*
X11059058Y-13207016D01*
X11172783Y-13377217D01*
X11342984Y-13490942D01*
X11543750Y-13530877D01*
X12056250Y-13530877D01*
X12257016Y-13490942D01*
X12427217Y-13377217D01*
X12500000Y-13268290D01*
X12500001Y-19084313D01*
X12054376Y-19529939D01*
X12000000Y-19519123D01*
X10700000Y-19519123D01*
X10582946Y-19542407D01*
X10571582Y-19550000D01*
X10289392Y-19550000D01*
X10249999Y-19542164D01*
X10210606Y-19550000D01*
X10093928Y-19573209D01*
X10053832Y-19600000D01*
X9880653Y-19600000D01*
X9660127Y-19691344D01*
X9491344Y-19860127D01*
X9400000Y-20080653D01*
X9400000Y-20319347D01*
X9491344Y-20539873D01*
X9558769Y-20607298D01*
X9507946Y-20617407D01*
X9408712Y-20683712D01*
X9342407Y-20782946D01*
X9319123Y-20900000D01*
X9319123Y-22200000D01*
X9342407Y-22317054D01*
X9408712Y-22416288D01*
X9507946Y-22482593D01*
X9625000Y-22505877D01*
X9875000Y-22505877D01*
X9992054Y-22482593D01*
X10091288Y-22416288D01*
X10157593Y-22317054D01*
X10180877Y-22200000D01*
X10180877Y-21950000D01*
X10687771Y-21950000D01*
X10709058Y-22057016D01*
X10822783Y-22227217D01*
X10992984Y-22340942D01*
X11193750Y-22380877D01*
X11631250Y-22380877D01*
X11832016Y-22340942D01*
X12002217Y-22227217D01*
X12115942Y-22057016D01*
X12155877Y-21856250D01*
X12155877Y-21343750D01*
X12115942Y-21142984D01*
X12002217Y-20972783D01*
X11832016Y-20859058D01*
X11750000Y-20842744D01*
X11750000Y-20380877D01*
X12000000Y-20380877D01*
X12117054Y-20357593D01*
X12128418Y-20350000D01*
X12160606Y-20350000D01*
X12200000Y-20357836D01*
X12239394Y-20350000D01*
X12356072Y-20326791D01*
X12488384Y-20238384D01*
X12510702Y-20204982D01*
X13154987Y-19560699D01*
X13188384Y-19538384D01*
X13276791Y-19406072D01*
X13300000Y-19289394D01*
X13307836Y-19250001D01*
X13300000Y-19210608D01*
X13300000Y-12839394D01*
X13307836Y-12800000D01*
X13300000Y-12760606D01*
X13300000Y-6426893D01*
X13307836Y-6387499D01*
X13276791Y-6231428D01*
X13188384Y-6099116D01*
X13154985Y-6076800D01*
X11805877Y-4727693D01*
X11805877Y-4618750D01*
X11764039Y-4408417D01*
X11644895Y-4230105D01*
X11466583Y-4110961D01*
X11256250Y-4069123D01*
X10343750Y-4069123D01*
X10133417Y-4110961D01*
X9955105Y-4230105D01*
X9841585Y-4400000D01*
X9155877Y-4400000D01*
X9155877Y-4350000D01*
X9132593Y-4232946D01*
X9066288Y-4133712D01*
X8967054Y-4067407D01*
X8850000Y-4044123D01*
X8050000Y-4044123D01*
X7932946Y-4067407D01*
X7833712Y-4133712D01*
X7767407Y-4232946D01*
X7744123Y-4350000D01*
X7744123Y-4990192D01*
X7359306Y-5375010D01*
X1564384Y-5375010D01*
X1524990Y-5367174D01*
X1485596Y-5375010D01*
X1368918Y-5398219D01*
X1236606Y-5486626D01*
X1214289Y-5520026D01*
X1100000Y-5634315D01*
X1100000Y-2930925D01*
X4350000Y-2930925D01*
X4350000Y-3269075D01*
X4479405Y-3581486D01*
X4718514Y-3820595D01*
X5030925Y-3950000D01*
X5369075Y-3950000D01*
X5681486Y-3820595D01*
X5920595Y-3581486D01*
X6050000Y-3269075D01*
X6050000Y-2930925D01*
X8950000Y-2930925D01*
X8950000Y-3269075D01*
X9079405Y-3581486D01*
X9318514Y-3820595D01*
X9630925Y-3950000D01*
X9969075Y-3950000D01*
X10281486Y-3820595D01*
X10520595Y-3581486D01*
X10650000Y-3269075D01*
X10650000Y-2930925D01*
X10520595Y-2618514D01*
X10281486Y-2379405D01*
X9969075Y-2250000D01*
X9630925Y-2250000D01*
X9318514Y-2379405D01*
X9079405Y-2618514D01*
X8950000Y-2930925D01*
X6050000Y-2930925D01*
X5920595Y-2618514D01*
X5681486Y-2379405D01*
X5369075Y-2250000D01*
X5030925Y-2250000D01*
X4718514Y-2379405D01*
X4479405Y-2618514D01*
X4350000Y-2930925D01*
X1100000Y-2930925D01*
X1100000Y-2009851D01*
X1170319Y-1656334D01*
X1364989Y-1364989D01*
X1656334Y-1170319D01*
X2009851Y-1100000D01*
X12990149Y-1100000D01*
X13343666Y-1170319D01*
X13343666Y-1170319D01*
G37*
X13343666Y-1170319D02*
X13635011Y-1364989D01*
X13829681Y-1656334D01*
X13900000Y-2009851D01*
X13900000Y-28990149D01*
X13829681Y-29343666D01*
X13755877Y-29454122D01*
X13755877Y-28250000D01*
X13732593Y-28132946D01*
X13666288Y-28033712D01*
X13567054Y-27967407D01*
X13450000Y-27944123D01*
X11750000Y-27944123D01*
X11632946Y-27967407D01*
X11533712Y-28033712D01*
X11467407Y-28132946D01*
X11444123Y-28250000D01*
X11444123Y-29900000D01*
X10908549Y-29900000D01*
X11143276Y-29548707D01*
X11232529Y-29100000D01*
X11143276Y-28651293D01*
X10889103Y-28270897D01*
X10508707Y-28016724D01*
X10173261Y-27950000D01*
X9946739Y-27950000D01*
X9611293Y-28016724D01*
X9230897Y-28270897D01*
X8976724Y-28651293D01*
X8887471Y-29100000D01*
X8976724Y-29548707D01*
X9211451Y-29900000D01*
X5828549Y-29900000D01*
X6063276Y-29548707D01*
X6152529Y-29100000D01*
X6063276Y-28651293D01*
X5809103Y-28270897D01*
X5428707Y-28016724D01*
X5093261Y-27950000D01*
X4866739Y-27950000D01*
X4623973Y-27998289D01*
X3970703Y-27345019D01*
X3948384Y-27311616D01*
X3816072Y-27223209D01*
X3699394Y-27200000D01*
X3660000Y-27192164D01*
X3620606Y-27200000D01*
X1665686Y-27200000D01*
X1100000Y-26634316D01*
X1100000Y-25843750D01*
X2844123Y-25843750D01*
X2844123Y-26356250D01*
X2884058Y-26557016D01*
X2997783Y-26727217D01*
X3167984Y-26840942D01*
X3368750Y-26880877D01*
X3806250Y-26880877D01*
X4007016Y-26840942D01*
X4177217Y-26727217D01*
X4290942Y-26557016D01*
X4302283Y-26500000D01*
X4364015Y-26500000D01*
X4367407Y-26517054D01*
X4433712Y-26616288D01*
X4532946Y-26682593D01*
X4650000Y-26705877D01*
X6650000Y-26705877D01*
X6767054Y-26682593D01*
X6866288Y-26616288D01*
X6932593Y-26517054D01*
X6955877Y-26400000D01*
X6955877Y-25586776D01*
X7006072Y-25576791D01*
X7138384Y-25488384D01*
X7160702Y-25454982D01*
X7500001Y-25115685D01*
X7839301Y-25454987D01*
X7861616Y-25488384D01*
X7993928Y-25576791D01*
X8044123Y-25586776D01*
X8044123Y-26400000D01*
X8067407Y-26517054D01*
X8133712Y-26616288D01*
X8232946Y-26682593D01*
X8350000Y-26705877D01*
X10350000Y-26705877D01*
X10467054Y-26682593D01*
X10566288Y-26616288D01*
X10632593Y-26517054D01*
X10635985Y-26500000D01*
X10697717Y-26500000D01*
X10709058Y-26557016D01*
X10822783Y-26727217D01*
X10992984Y-26840942D01*
X11193750Y-26880877D01*
X11631250Y-26880877D01*
X11832016Y-26840942D01*
X12002217Y-26727217D01*
X12115942Y-26557016D01*
X12155877Y-26356250D01*
X12155877Y-25843750D01*
X12115942Y-25642984D01*
X12002217Y-25472783D01*
X11832016Y-25359058D01*
X11631250Y-25319123D01*
X11193750Y-25319123D01*
X10992984Y-25359058D01*
X10822783Y-25472783D01*
X10709058Y-25642984D01*
X10697717Y-25700000D01*
X10657836Y-25700000D01*
X10657836Y-25699999D01*
X10655877Y-25690151D01*
X10655877Y-24000000D01*
X10632593Y-23882946D01*
X10602821Y-23838388D01*
X10656623Y-23838388D01*
X10656623Y-24156250D01*
X10696558Y-24357016D01*
X10810283Y-24527217D01*
X10980484Y-24640942D01*
X11181250Y-24680877D01*
X11618750Y-24680877D01*
X11819516Y-24640942D01*
X11989717Y-24527217D01*
X12103442Y-24357016D01*
X12143377Y-24156250D01*
X12143377Y-23643750D01*
X12103442Y-23442984D01*
X11989717Y-23272783D01*
X11819516Y-23159058D01*
X11618750Y-23119123D01*
X11181250Y-23119123D01*
X11180714Y-23119230D01*
X11094460Y-23061597D01*
X10977782Y-23038388D01*
X10938388Y-23030552D01*
X10898994Y-23038388D01*
X8904073Y-23038388D01*
X8650000Y-22784316D01*
X8650000Y-22505877D01*
X8875000Y-22505877D01*
X8992054Y-22482593D01*
X9091288Y-22416288D01*
X9157593Y-22317054D01*
X9180877Y-22200000D01*
X9180877Y-20900000D01*
X9157593Y-20782946D01*
X9091288Y-20683712D01*
X8992054Y-20617407D01*
X8875000Y-20594123D01*
X8777606Y-20594123D01*
X8850000Y-20419347D01*
X8850000Y-20180653D01*
X8758656Y-19960127D01*
X8589873Y-19791344D01*
X8369347Y-19700000D01*
X8130653Y-19700000D01*
X7910127Y-19791344D01*
X7801471Y-19900000D01*
X7189392Y-19900000D01*
X7149999Y-19892164D01*
X7110606Y-19900000D01*
X6993928Y-19923209D01*
X6861616Y-20011616D01*
X6839301Y-20045013D01*
X6495016Y-20389300D01*
X6461617Y-20411616D01*
X6410324Y-20488383D01*
X6373209Y-20543929D01*
X6342164Y-20700000D01*
X6350001Y-20739398D01*
X6350001Y-20771581D01*
X6342407Y-20782946D01*
X6319123Y-20900000D01*
X6319123Y-22200000D01*
X6342407Y-22317054D01*
X6408712Y-22416288D01*
X6507946Y-22482593D01*
X6625000Y-22505877D01*
X6850000Y-22505877D01*
X6850001Y-23772829D01*
X6767054Y-23717407D01*
X6650000Y-23694123D01*
X4650000Y-23694123D01*
X4532946Y-23717407D01*
X4433712Y-23783712D01*
X4367407Y-23882946D01*
X4344123Y-24000000D01*
X4344123Y-25690152D01*
X4342164Y-25700000D01*
X4302283Y-25700000D01*
X4290942Y-25642984D01*
X4177217Y-25472783D01*
X4007016Y-25359058D01*
X3806250Y-25319123D01*
X3368750Y-25319123D01*
X3167984Y-25359058D01*
X2997783Y-25472783D01*
X2884058Y-25642984D01*
X2844123Y-25843750D01*
X1100000Y-25843750D01*
X1100000Y-22900001D01*
X2360611Y-22900001D01*
X2400000Y-22907836D01*
X2439389Y-22900001D01*
X2948108Y-22900001D01*
X2987500Y-22907837D01*
X3026893Y-22900001D01*
X5575607Y-22900001D01*
X5615001Y-22907837D01*
X5654395Y-22900001D01*
X5771073Y-22876792D01*
X5903385Y-22788385D01*
X5925703Y-22754983D01*
X6004983Y-22675703D01*
X6038384Y-22653386D01*
X6126791Y-22521074D01*
X6150000Y-22404396D01*
X6150000Y-22404395D01*
X6157836Y-22365003D01*
X6150430Y-22327774D01*
X6157593Y-22317054D01*
X6180877Y-22200000D01*
X6180877Y-20900000D01*
X6157593Y-20782946D01*
X6091288Y-20683712D01*
X5992054Y-20617407D01*
X5875000Y-20594123D01*
X5625000Y-20594123D01*
X5507946Y-20617407D01*
X5500000Y-20622716D01*
X5492054Y-20617407D01*
X5375000Y-20594123D01*
X5125000Y-20594123D01*
X5007946Y-20617407D01*
X5000000Y-20622716D01*
X4992054Y-20617407D01*
X4875000Y-20594123D01*
X4854406Y-20594123D01*
X4858656Y-20589873D01*
X4950000Y-20369347D01*
X4950000Y-20130653D01*
X4858656Y-19910127D01*
X4689873Y-19741344D01*
X4469347Y-19650000D01*
X4230653Y-19650000D01*
X4010127Y-19741344D01*
X3841344Y-19910127D01*
X3750000Y-20130653D01*
X3750000Y-20369347D01*
X3841344Y-20589873D01*
X3850001Y-20598530D01*
X3850001Y-20771581D01*
X3842407Y-20782946D01*
X3819123Y-20900000D01*
X3819123Y-22100001D01*
X3405877Y-22100001D01*
X3405877Y-21718750D01*
X3364039Y-21508417D01*
X3244895Y-21330105D01*
X3066583Y-21210961D01*
X2856250Y-21169123D01*
X1943750Y-21169123D01*
X1733417Y-21210961D01*
X1555105Y-21330105D01*
X1435961Y-21508417D01*
X1394123Y-21718750D01*
X1394123Y-22100001D01*
X1100000Y-22100001D01*
X1100000Y-21066593D01*
X1180653Y-21100000D01*
X1419347Y-21100000D01*
X1639873Y-21008656D01*
X1808656Y-20839873D01*
X1900000Y-20619347D01*
X1900000Y-20380653D01*
X1891122Y-20359219D01*
X2000000Y-20380877D01*
X3300000Y-20380877D01*
X3417054Y-20357593D01*
X3516288Y-20291288D01*
X3582593Y-20192054D01*
X3605877Y-20075000D01*
X3605877Y-19825000D01*
X3582593Y-19707946D01*
X3577284Y-19700000D01*
X3582593Y-19692054D01*
X3605877Y-19575000D01*
X3605877Y-19325000D01*
X3582593Y-19207946D01*
X3577284Y-19200000D01*
X3582593Y-19192054D01*
X3605877Y-19075000D01*
X3605877Y-18825000D01*
X3582593Y-18707946D01*
X3577284Y-18700000D01*
X3582593Y-18692054D01*
X3605877Y-18575000D01*
X3605877Y-18454406D01*
X3660127Y-18508656D01*
X3880653Y-18600000D01*
X4119347Y-18600000D01*
X4339873Y-18508656D01*
X4508656Y-18339873D01*
X4514816Y-18325000D01*
X10394123Y-18325000D01*
X10394123Y-18575000D01*
X10417407Y-18692054D01*
X10422716Y-18700000D01*
X10417407Y-18707946D01*
X10394123Y-18825000D01*
X10394123Y-19075000D01*
X10417407Y-19192054D01*
X10483712Y-19291288D01*
X10582946Y-19357593D01*
X10700000Y-19380877D01*
X12000000Y-19380877D01*
X12117054Y-19357593D01*
X12216288Y-19291288D01*
X12282593Y-19192054D01*
X12305877Y-19075000D01*
X12305877Y-18825000D01*
X12282593Y-18707946D01*
X12277284Y-18700000D01*
X12282593Y-18692054D01*
X12305877Y-18575000D01*
X12305877Y-18325000D01*
X12282593Y-18207946D01*
X12216288Y-18108712D01*
X12117054Y-18042407D01*
X12000000Y-18019123D01*
X10700000Y-18019123D01*
X10582946Y-18042407D01*
X10483712Y-18108712D01*
X10417407Y-18207946D01*
X10394123Y-18325000D01*
X4514816Y-18325000D01*
X4600000Y-18119347D01*
X4600000Y-17880653D01*
X4508656Y-17660127D01*
X4339873Y-17491344D01*
X4119347Y-17400000D01*
X3880653Y-17400000D01*
X3660127Y-17491344D01*
X3605877Y-17545594D01*
X3605877Y-17325000D01*
X3582593Y-17207946D01*
X3577284Y-17200000D01*
X3582593Y-17192054D01*
X3605877Y-17075000D01*
X3605877Y-16825000D01*
X10394123Y-16825000D01*
X10394123Y-17075000D01*
X10417407Y-17192054D01*
X10422716Y-17200000D01*
X10417407Y-17207946D01*
X10394123Y-17325000D01*
X10394123Y-17575000D01*
X10417407Y-17692054D01*
X10483712Y-17791288D01*
X10582946Y-17857593D01*
X10700000Y-17880877D01*
X12000000Y-17880877D01*
X12117054Y-17857593D01*
X12216288Y-17791288D01*
X12282593Y-17692054D01*
X12305877Y-17575000D01*
X12305877Y-17325000D01*
X12282593Y-17207946D01*
X12277284Y-17200000D01*
X12282593Y-17192054D01*
X12305877Y-17075000D01*
X12305877Y-16825000D01*
X12282593Y-16707946D01*
X12216288Y-16608712D01*
X12117054Y-16542407D01*
X12000000Y-16519123D01*
X10700000Y-16519123D01*
X10582946Y-16542407D01*
X10483712Y-16608712D01*
X10417407Y-16707946D01*
X10394123Y-16825000D01*
X3605877Y-16825000D01*
X3582593Y-16707946D01*
X3577284Y-16700000D01*
X3582593Y-16692054D01*
X3605877Y-16575000D01*
X3605877Y-16325000D01*
X3582593Y-16207946D01*
X3577284Y-16200000D01*
X3582593Y-16192054D01*
X3605877Y-16075000D01*
X3605877Y-15825000D01*
X10394123Y-15825000D01*
X10394123Y-16075000D01*
X10417407Y-16192054D01*
X10483712Y-16291288D01*
X10582946Y-16357593D01*
X10700000Y-16380877D01*
X12000000Y-16380877D01*
X12117054Y-16357593D01*
X12216288Y-16291288D01*
X12282593Y-16192054D01*
X12305877Y-16075000D01*
X12305877Y-15825000D01*
X12282593Y-15707946D01*
X12216288Y-15608712D01*
X12117054Y-15542407D01*
X12000000Y-15519123D01*
X10700000Y-15519123D01*
X10582946Y-15542407D01*
X10483712Y-15608712D01*
X10417407Y-15707946D01*
X10394123Y-15825000D01*
X3605877Y-15825000D01*
X3582593Y-15707946D01*
X3577284Y-15700000D01*
X3582593Y-15692054D01*
X3605877Y-15575000D01*
X3605877Y-15325000D01*
X3582593Y-15207946D01*
X3516288Y-15108712D01*
X3417054Y-15042407D01*
X3300000Y-15019123D01*
X2000000Y-15019123D01*
X1882946Y-15042407D01*
X1836048Y-15073743D01*
X1900000Y-14919347D01*
X1900000Y-14860985D01*
X2000000Y-14880877D01*
X3300000Y-14880877D01*
X3417054Y-14857593D01*
X3516288Y-14791288D01*
X3582593Y-14692054D01*
X3605877Y-14575000D01*
X3605877Y-14325000D01*
X3582593Y-14207946D01*
X3516288Y-14108712D01*
X3417054Y-14042407D01*
X3300000Y-14019123D01*
X3000000Y-14019123D01*
X3000000Y-13839393D01*
X3007836Y-13800000D01*
X3000000Y-13760606D01*
X3000000Y-13502283D01*
X3057016Y-13490942D01*
X3227217Y-13377217D01*
X3340942Y-13207016D01*
X3380877Y-13006250D01*
X3380877Y-12568750D01*
X3340942Y-12367984D01*
X3227217Y-12197783D01*
X3057016Y-12084058D01*
X2856250Y-12044123D01*
X2343750Y-12044123D01*
X2142984Y-12084058D01*
X1972783Y-12197783D01*
X1859058Y-12367984D01*
X1819123Y-12568750D01*
X1819123Y-13006250D01*
X1859058Y-13207016D01*
X1972783Y-13377217D01*
X2006880Y-13400000D01*
X1100000Y-13400000D01*
X1100000Y-12148529D01*
X1208656Y-12039873D01*
X1300000Y-11819347D01*
X1300000Y-11580653D01*
X1208656Y-11360127D01*
X1100000Y-11251471D01*
X1100000Y-6765684D01*
X1410698Y-6454987D01*
X1410700Y-6454984D01*
X1690675Y-6175010D01*
X3308396Y-6175010D01*
X3235961Y-6283417D01*
X3194123Y-6493750D01*
X3194123Y-6981250D01*
X3235961Y-7191583D01*
X3355105Y-7369895D01*
X3533417Y-7489039D01*
X3600000Y-7502283D01*
X3600000Y-7551471D01*
X3491344Y-7660127D01*
X3400000Y-7880653D01*
X3400000Y-8119347D01*
X3491344Y-8339873D01*
X3600000Y-8448529D01*
X3600000Y-8463657D01*
X3600001Y-8463662D01*
X3600000Y-9281746D01*
X3592164Y-9321140D01*
X3600000Y-9360533D01*
X3623209Y-9477211D01*
X3711616Y-9609524D01*
X3745018Y-9631842D01*
X4068159Y-9954984D01*
X4090476Y-9988384D01*
X4105526Y-9998440D01*
X4059058Y-10067984D01*
X4019123Y-10268750D01*
X4019123Y-10706250D01*
X4059058Y-10907016D01*
X4172783Y-11077217D01*
X4342984Y-11190942D01*
X4350000Y-11192338D01*
X4350001Y-11894123D01*
X4125000Y-11894123D01*
X4007946Y-11917407D01*
X3908712Y-11983712D01*
X3842407Y-12082946D01*
X3819123Y-12200000D01*
X3819123Y-13500000D01*
X3842407Y-13617054D01*
X3908712Y-13716288D01*
X4007946Y-13782593D01*
X4125000Y-13805877D01*
X4363225Y-13805877D01*
X4373209Y-13856071D01*
X4373210Y-13856072D01*
X4461617Y-13988384D01*
X4495016Y-14010700D01*
X5189301Y-14704987D01*
X5211616Y-14738384D01*
X5343928Y-14826791D01*
X5460606Y-14850000D01*
X5499999Y-14857836D01*
X5539392Y-14850000D01*
X9454118Y-14850000D01*
X9400000Y-14980653D01*
X9400000Y-15219347D01*
X9491344Y-15439873D01*
X9660127Y-15608656D01*
X9880653Y-15700000D01*
X10119347Y-15700000D01*
X10339873Y-15608656D01*
X10508656Y-15439873D01*
X10545882Y-15350000D01*
X10571582Y-15350000D01*
X10582946Y-15357593D01*
X10700000Y-15380877D01*
X12000000Y-15380877D01*
X12117054Y-15357593D01*
X12216288Y-15291288D01*
X12282593Y-15192054D01*
X12305877Y-15075000D01*
X12305877Y-14825000D01*
X12282593Y-14707946D01*
X12277284Y-14700000D01*
X12282593Y-14692054D01*
X12305877Y-14575000D01*
X12305877Y-14325000D01*
X12282593Y-14207946D01*
X12216288Y-14108712D01*
X12117054Y-14042407D01*
X12000000Y-14019123D01*
X10700000Y-14019123D01*
X10582946Y-14042407D01*
X10571582Y-14050000D01*
X5665686Y-14050000D01*
X5413837Y-13798152D01*
X5492054Y-13782593D01*
X5591288Y-13716288D01*
X5657593Y-13617054D01*
X5680877Y-13500000D01*
X5680877Y-12200000D01*
X5819123Y-12200000D01*
X5819123Y-13500000D01*
X5842407Y-13617054D01*
X5908712Y-13716288D01*
X6007946Y-13782593D01*
X6125000Y-13805877D01*
X6375000Y-13805877D01*
X6492054Y-13782593D01*
X6591288Y-13716288D01*
X6657593Y-13617054D01*
X6680877Y-13500000D01*
X6680877Y-12200000D01*
X6657593Y-12082946D01*
X6591288Y-11983712D01*
X6492054Y-11917407D01*
X6375000Y-11894123D01*
X6125000Y-11894123D01*
X6007946Y-11917407D01*
X5908712Y-11983712D01*
X5842407Y-12082946D01*
X5819123Y-12200000D01*
X5680877Y-12200000D01*
X5657593Y-12082946D01*
X5591288Y-11983712D01*
X5492054Y-11917407D01*
X5375000Y-11894123D01*
X5150000Y-11894123D01*
X5150000Y-11212229D01*
X5257016Y-11190942D01*
X5427217Y-11077217D01*
X5540942Y-10907016D01*
X5580877Y-10706250D01*
X5580877Y-10268750D01*
X5547310Y-10100000D01*
X5726080Y-10100000D01*
X5773712Y-10171288D01*
X5779267Y-10175000D01*
X5773712Y-10178712D01*
X5707407Y-10277946D01*
X5684123Y-10395000D01*
X5684123Y-10905000D01*
X5707407Y-11022054D01*
X5773712Y-11121288D01*
X5872946Y-11187593D01*
X5990000Y-11210877D01*
X6587958Y-11210877D01*
X6582165Y-11240001D01*
X6590001Y-11279394D01*
X6613210Y-11396072D01*
X6701617Y-11528385D01*
X6735020Y-11550704D01*
X7086164Y-11901848D01*
X7007946Y-11917407D01*
X6908712Y-11983712D01*
X6842407Y-12082946D01*
X6819123Y-12200000D01*
X6819123Y-13500000D01*
X6842407Y-13617054D01*
X6908712Y-13716288D01*
X7007946Y-13782593D01*
X7125000Y-13805877D01*
X7375000Y-13805877D01*
X7492054Y-13782593D01*
X7500000Y-13777284D01*
X7507946Y-13782593D01*
X7625000Y-13805877D01*
X7875000Y-13805877D01*
X7992054Y-13782593D01*
X8000000Y-13777284D01*
X8007946Y-13782593D01*
X8125000Y-13805877D01*
X8375000Y-13805877D01*
X8492054Y-13782593D01*
X8500000Y-13777284D01*
X8507946Y-13782593D01*
X8625000Y-13805877D01*
X8875000Y-13805877D01*
X8992054Y-13782593D01*
X9091288Y-13716288D01*
X9157593Y-13617054D01*
X9180877Y-13500000D01*
X9180877Y-12200000D01*
X9161765Y-12103919D01*
X10034808Y-11230877D01*
X10456250Y-11230877D01*
X10657016Y-11190942D01*
X10827217Y-11077217D01*
X10940942Y-10907016D01*
X10980877Y-10706250D01*
X10980877Y-10268750D01*
X10940942Y-10067984D01*
X10827217Y-9897783D01*
X10657016Y-9784058D01*
X10456250Y-9744123D01*
X9943750Y-9744123D01*
X9742984Y-9784058D01*
X9572783Y-9897783D01*
X9459058Y-10067984D01*
X9419123Y-10268750D01*
X9419123Y-10706250D01*
X9420607Y-10713708D01*
X9315877Y-10818438D01*
X9315877Y-10395000D01*
X9292593Y-10277946D01*
X9226288Y-10178712D01*
X9127054Y-10112407D01*
X9010000Y-10089123D01*
X8409999Y-10089123D01*
X8409999Y-9310877D01*
X9010000Y-9310877D01*
X9127054Y-9287593D01*
X9226288Y-9221288D01*
X9273920Y-9150000D01*
X9360606Y-9150000D01*
X9400000Y-9157836D01*
X9423482Y-9153165D01*
X9459058Y-9332016D01*
X9572783Y-9502217D01*
X9742984Y-9615942D01*
X9943750Y-9655877D01*
X10456250Y-9655877D01*
X10657016Y-9615942D01*
X10827217Y-9502217D01*
X10940942Y-9332016D01*
X10980877Y-9131250D01*
X10980877Y-8693750D01*
X10940942Y-8492984D01*
X10827217Y-8322783D01*
X10657016Y-8209058D01*
X10456250Y-8169123D01*
X10129406Y-8169123D01*
X10258656Y-8039873D01*
X10350000Y-7819347D01*
X10350000Y-7580653D01*
X10258656Y-7360127D01*
X10089873Y-7191344D01*
X9869347Y-7100000D01*
X9630653Y-7100000D01*
X9410127Y-7191344D01*
X9241344Y-7360127D01*
X9150000Y-7580653D01*
X9150000Y-7729001D01*
X9100000Y-7803833D01*
X9100000Y-7580653D01*
X9008656Y-7360127D01*
X8839873Y-7191344D01*
X8619347Y-7100000D01*
X8380653Y-7100000D01*
X8205877Y-7172394D01*
X8205877Y-6350000D01*
X8182593Y-6232946D01*
X8116288Y-6133712D01*
X8017054Y-6067407D01*
X7900000Y-6044123D01*
X7826250Y-6044123D01*
X7835693Y-6029991D01*
X8309808Y-5555877D01*
X8850000Y-5555877D01*
X8967054Y-5532593D01*
X9066288Y-5466288D01*
X9132593Y-5367054D01*
X9155877Y-5250000D01*
X9155877Y-5200000D01*
X9812771Y-5200000D01*
X9835961Y-5316583D01*
X9955105Y-5494895D01*
X10133417Y-5614039D01*
X10343750Y-5655877D01*
X11256250Y-5655877D01*
X11466583Y-5614039D01*
X11523095Y-5576279D01*
X12500000Y-6553185D01*
X12500001Y-12306712D01*
X12427217Y-12197783D01*
X12257016Y-12084058D01*
X12056250Y-12044123D01*
X11543750Y-12044123D01*
X11342984Y-12084058D01*
X11172783Y-12197783D01*
X11059058Y-12367984D01*
X11055176Y-12387500D01*
X10180877Y-12387500D01*
X10180877Y-12200000D01*
X10157593Y-12082946D01*
X10091288Y-11983712D01*
X9992054Y-11917407D01*
X9875000Y-11894123D01*
X9625000Y-11894123D01*
X9507946Y-11917407D01*
X9408712Y-11983712D01*
X9342407Y-12082946D01*
X9319123Y-12200000D01*
X9319123Y-13500000D01*
X9342407Y-13617054D01*
X9408712Y-13716288D01*
X9507946Y-13782593D01*
X9625000Y-13805877D01*
X9875000Y-13805877D01*
X9992054Y-13782593D01*
X10091288Y-13716288D01*
X10157593Y-13617054D01*
X10180877Y-13500000D01*
X10180877Y-13187500D01*
X11055176Y-13187500D01*
X11059058Y-13207016D01*
X11172783Y-13377217D01*
X11342984Y-13490942D01*
X11543750Y-13530877D01*
X12056250Y-13530877D01*
X12257016Y-13490942D01*
X12427217Y-13377217D01*
X12500000Y-13268290D01*
X12500001Y-19084313D01*
X12054376Y-19529939D01*
X12000000Y-19519123D01*
X10700000Y-19519123D01*
X10582946Y-19542407D01*
X10571582Y-19550000D01*
X10289392Y-19550000D01*
X10249999Y-19542164D01*
X10210606Y-19550000D01*
X10093928Y-19573209D01*
X10053832Y-19600000D01*
X9880653Y-19600000D01*
X9660127Y-19691344D01*
X9491344Y-19860127D01*
X9400000Y-20080653D01*
X9400000Y-20319347D01*
X9491344Y-20539873D01*
X9558769Y-20607298D01*
X9507946Y-20617407D01*
X9408712Y-20683712D01*
X9342407Y-20782946D01*
X9319123Y-20900000D01*
X9319123Y-22200000D01*
X9342407Y-22317054D01*
X9408712Y-22416288D01*
X9507946Y-22482593D01*
X9625000Y-22505877D01*
X9875000Y-22505877D01*
X9992054Y-22482593D01*
X10091288Y-22416288D01*
X10157593Y-22317054D01*
X10180877Y-22200000D01*
X10180877Y-21950000D01*
X10687771Y-21950000D01*
X10709058Y-22057016D01*
X10822783Y-22227217D01*
X10992984Y-22340942D01*
X11193750Y-22380877D01*
X11631250Y-22380877D01*
X11832016Y-22340942D01*
X12002217Y-22227217D01*
X12115942Y-22057016D01*
X12155877Y-21856250D01*
X12155877Y-21343750D01*
X12115942Y-21142984D01*
X12002217Y-20972783D01*
X11832016Y-20859058D01*
X11750000Y-20842744D01*
X11750000Y-20380877D01*
X12000000Y-20380877D01*
X12117054Y-20357593D01*
X12128418Y-20350000D01*
X12160606Y-20350000D01*
X12200000Y-20357836D01*
X12239394Y-20350000D01*
X12356072Y-20326791D01*
X12488384Y-20238384D01*
X12510702Y-20204982D01*
X13154987Y-19560699D01*
X13188384Y-19538384D01*
X13276791Y-19406072D01*
X13300000Y-19289394D01*
X13307836Y-19250001D01*
X13300000Y-19210608D01*
X13300000Y-12839394D01*
X13307836Y-12800000D01*
X13300000Y-12760606D01*
X13300000Y-6426893D01*
X13307836Y-6387499D01*
X13276791Y-6231428D01*
X13188384Y-6099116D01*
X13154985Y-6076800D01*
X11805877Y-4727693D01*
X11805877Y-4618750D01*
X11764039Y-4408417D01*
X11644895Y-4230105D01*
X11466583Y-4110961D01*
X11256250Y-4069123D01*
X10343750Y-4069123D01*
X10133417Y-4110961D01*
X9955105Y-4230105D01*
X9841585Y-4400000D01*
X9155877Y-4400000D01*
X9155877Y-4350000D01*
X9132593Y-4232946D01*
X9066288Y-4133712D01*
X8967054Y-4067407D01*
X8850000Y-4044123D01*
X8050000Y-4044123D01*
X7932946Y-4067407D01*
X7833712Y-4133712D01*
X7767407Y-4232946D01*
X7744123Y-4350000D01*
X7744123Y-4990192D01*
X7359306Y-5375010D01*
X1564384Y-5375010D01*
X1524990Y-5367174D01*
X1485596Y-5375010D01*
X1368918Y-5398219D01*
X1236606Y-5486626D01*
X1214289Y-5520026D01*
X1100000Y-5634315D01*
X1100000Y-2930925D01*
X4350000Y-2930925D01*
X4350000Y-3269075D01*
X4479405Y-3581486D01*
X4718514Y-3820595D01*
X5030925Y-3950000D01*
X5369075Y-3950000D01*
X5681486Y-3820595D01*
X5920595Y-3581486D01*
X6050000Y-3269075D01*
X6050000Y-2930925D01*
X8950000Y-2930925D01*
X8950000Y-3269075D01*
X9079405Y-3581486D01*
X9318514Y-3820595D01*
X9630925Y-3950000D01*
X9969075Y-3950000D01*
X10281486Y-3820595D01*
X10520595Y-3581486D01*
X10650000Y-3269075D01*
X10650000Y-2930925D01*
X10520595Y-2618514D01*
X10281486Y-2379405D01*
X9969075Y-2250000D01*
X9630925Y-2250000D01*
X9318514Y-2379405D01*
X9079405Y-2618514D01*
X8950000Y-2930925D01*
X6050000Y-2930925D01*
X5920595Y-2618514D01*
X5681486Y-2379405D01*
X5369075Y-2250000D01*
X5030925Y-2250000D01*
X4718514Y-2379405D01*
X4479405Y-2618514D01*
X4350000Y-2930925D01*
X1100000Y-2930925D01*
X1100000Y-2009851D01*
X1170319Y-1656334D01*
X1364989Y-1364989D01*
X1656334Y-1170319D01*
X2009851Y-1100000D01*
X12990149Y-1100000D01*
X13343666Y-1170319D01*
G04 #@! TD*
M02*
