G04 #@! TF.GenerationSoftware,KiCad,Pcbnew,5.0.2+dfsg1-1*
G04 #@! TF.CreationDate,2019-02-22T15:28:55+03:00*
G04 #@! TF.ProjectId,PocketAdmin,506f636b-6574-4416-946d-696e2e6b6963,1.1*
G04 #@! TF.SameCoordinates,PX7bfa480PY42c1d80*
G04 #@! TF.FileFunction,Legend,Bot*
G04 #@! TF.FilePolarity,Positive*
%FSLAX46Y46*%
G04 Gerber Fmt 4.6, Leading zero omitted, Abs format (unit mm)*
G04 Created by KiCad (PCBNEW 5.0.2+dfsg1-1) date Fri 22 Feb 2019 03:28:55 PM MSK*
%MOMM*%
%LPD*%
G01*
G04 APERTURE LIST*
%ADD10C,0.120000*%
%ADD11C,0.150000*%
%ADD12C,0.100000*%
%ADD13C,1.150000*%
%ADD14C,0.975000*%
%ADD15R,1.800000X1.800000*%
%ADD16O,1.800000X1.800000*%
%ADD17O,2.000000X3.600000*%
%ADD18C,1.200000*%
%ADD19R,0.800000X0.610000*%
%ADD20R,0.900000X1.000000*%
%ADD21R,0.350000X1.400000*%
%ADD22R,1.400000X0.350000*%
%ADD23R,2.100000X2.500000*%
G04 APERTURE END LIST*
D10*
G04 #@! TO.C,C8*
X1615000Y-23900000D02*
X1615000Y-21190000D01*
X1615000Y-21190000D02*
X3185000Y-21190000D01*
X3185000Y-21190000D02*
X3185000Y-23900000D01*
G04 #@! TO.C,C1*
X3415000Y-7510000D02*
X3415000Y-4800000D01*
X4985000Y-7510000D02*
X3415000Y-7510000D01*
X4985000Y-4800000D02*
X4985000Y-7510000D01*
G04 #@! TO.C,C2*
X10015000Y-6800000D02*
X10015000Y-4090000D01*
X10015000Y-4090000D02*
X11585000Y-4090000D01*
X11585000Y-4090000D02*
X11585000Y-6800000D01*
G04 #@! TO.C,C3*
X11290000Y-11837221D02*
X11290000Y-12162779D01*
X12310000Y-11837221D02*
X12310000Y-12162779D01*
G04 #@! TO.C,C4*
X12037221Y-25190000D02*
X12362779Y-25190000D01*
X12037221Y-26210000D02*
X12362779Y-26210000D01*
G04 #@! TO.C,C5*
X2962779Y-25190000D02*
X2637221Y-25190000D01*
X2962779Y-26210000D02*
X2637221Y-26210000D01*
G04 #@! TO.C,C6*
X3110000Y-11837221D02*
X3110000Y-12162779D01*
X2090000Y-11837221D02*
X2090000Y-12162779D01*
G04 #@! TO.C,C7*
X12362779Y-21090000D02*
X12037221Y-21090000D01*
X12362779Y-22110000D02*
X12037221Y-22110000D01*
G04 #@! TO.C,R1*
X4290000Y-9537221D02*
X4290000Y-9862779D01*
X5310000Y-9537221D02*
X5310000Y-9862779D01*
G04 #@! TO.C,R2*
X10710000Y-9537221D02*
X10710000Y-9862779D01*
X9690000Y-9537221D02*
X9690000Y-9862779D01*
G04 #@! TO.C,U1*
X8300000Y-11300000D02*
X6700000Y-11300000D01*
X6700000Y-8100000D02*
X9000000Y-8100000D01*
G04 #@! TO.C,U2*
X9080000Y-6560000D02*
X8150000Y-6560000D01*
X5920000Y-6560000D02*
X6850000Y-6560000D01*
X5920000Y-6560000D02*
X5920000Y-4400000D01*
X9080000Y-6560000D02*
X9080000Y-5100000D01*
G04 #@! TO.C,U3*
X10560000Y-13640000D02*
X10140000Y-13640000D01*
X3440000Y-13640000D02*
X3860000Y-13640000D01*
X3440000Y-20760000D02*
X3860000Y-20760000D01*
X10560000Y-20760000D02*
X10560000Y-20340000D01*
X3440000Y-13640000D02*
X3440000Y-14060000D01*
X10560000Y-13640000D02*
X10560000Y-14060000D01*
X10140000Y-20760000D02*
X10140000Y-22140000D01*
X10560000Y-20760000D02*
X10140000Y-20760000D01*
X3440000Y-20760000D02*
X3440000Y-20340000D01*
G04 #@! TO.C,Y1*
X4800000Y-23000000D02*
X10550000Y-23000000D01*
X10550000Y-23000000D02*
X10550000Y-26600000D01*
X10550000Y-26600000D02*
X4800000Y-26600000D01*
G04 #@! TO.C,C11*
X12037221Y-24110000D02*
X12362779Y-24110000D01*
X12037221Y-23090000D02*
X12362779Y-23090000D01*
G04 #@! TO.C,C8*
D11*
X1157142Y-22733333D02*
X1204761Y-22685714D01*
X1252380Y-22542857D01*
X1252380Y-22447619D01*
X1204761Y-22304761D01*
X1109523Y-22209523D01*
X1014285Y-22161904D01*
X823809Y-22114285D01*
X680952Y-22114285D01*
X490476Y-22161904D01*
X395238Y-22209523D01*
X300000Y-22304761D01*
X252380Y-22447619D01*
X252380Y-22542857D01*
X300000Y-22685714D01*
X347619Y-22733333D01*
X680952Y-23304761D02*
X633333Y-23209523D01*
X585714Y-23161904D01*
X490476Y-23114285D01*
X442857Y-23114285D01*
X347619Y-23161904D01*
X300000Y-23209523D01*
X252380Y-23304761D01*
X252380Y-23495238D01*
X300000Y-23590476D01*
X347619Y-23638095D01*
X442857Y-23685714D01*
X490476Y-23685714D01*
X585714Y-23638095D01*
X633333Y-23590476D01*
X680952Y-23495238D01*
X680952Y-23304761D01*
X728571Y-23209523D01*
X776190Y-23161904D01*
X871428Y-23114285D01*
X1061904Y-23114285D01*
X1157142Y-23161904D01*
X1204761Y-23209523D01*
X1252380Y-23304761D01*
X1252380Y-23495238D01*
X1204761Y-23590476D01*
X1157142Y-23638095D01*
X1061904Y-23685714D01*
X871428Y-23685714D01*
X776190Y-23638095D01*
X728571Y-23590476D01*
X680952Y-23495238D01*
G04 #@! TO.C,C1*
X2366666Y-6457142D02*
X2414285Y-6504761D01*
X2557142Y-6552380D01*
X2652380Y-6552380D01*
X2795238Y-6504761D01*
X2890476Y-6409523D01*
X2938095Y-6314285D01*
X2985714Y-6123809D01*
X2985714Y-5980952D01*
X2938095Y-5790476D01*
X2890476Y-5695238D01*
X2795238Y-5600000D01*
X2652380Y-5552380D01*
X2557142Y-5552380D01*
X2414285Y-5600000D01*
X2366666Y-5647619D01*
X1414285Y-6552380D02*
X1985714Y-6552380D01*
X1700000Y-6552380D02*
X1700000Y-5552380D01*
X1795238Y-5695238D01*
X1890476Y-5790476D01*
X1985714Y-5838095D01*
G04 #@! TO.C,C2*
X12966666Y-6357142D02*
X13014285Y-6404761D01*
X13157142Y-6452380D01*
X13252380Y-6452380D01*
X13395238Y-6404761D01*
X13490476Y-6309523D01*
X13538095Y-6214285D01*
X13585714Y-6023809D01*
X13585714Y-5880952D01*
X13538095Y-5690476D01*
X13490476Y-5595238D01*
X13395238Y-5500000D01*
X13252380Y-5452380D01*
X13157142Y-5452380D01*
X13014285Y-5500000D01*
X12966666Y-5547619D01*
X12585714Y-5547619D02*
X12538095Y-5500000D01*
X12442857Y-5452380D01*
X12204761Y-5452380D01*
X12109523Y-5500000D01*
X12061904Y-5547619D01*
X12014285Y-5642857D01*
X12014285Y-5738095D01*
X12061904Y-5880952D01*
X12633333Y-6452380D01*
X12014285Y-6452380D01*
G04 #@! TO.C,C3*
X13766666Y-13257142D02*
X13814285Y-13304761D01*
X13957142Y-13352380D01*
X14052380Y-13352380D01*
X14195238Y-13304761D01*
X14290476Y-13209523D01*
X14338095Y-13114285D01*
X14385714Y-12923809D01*
X14385714Y-12780952D01*
X14338095Y-12590476D01*
X14290476Y-12495238D01*
X14195238Y-12400000D01*
X14052380Y-12352380D01*
X13957142Y-12352380D01*
X13814285Y-12400000D01*
X13766666Y-12447619D01*
X13433333Y-12352380D02*
X12814285Y-12352380D01*
X13147619Y-12733333D01*
X13004761Y-12733333D01*
X12909523Y-12780952D01*
X12861904Y-12828571D01*
X12814285Y-12923809D01*
X12814285Y-13161904D01*
X12861904Y-13257142D01*
X12909523Y-13304761D01*
X13004761Y-13352380D01*
X13290476Y-13352380D01*
X13385714Y-13304761D01*
X13433333Y-13257142D01*
G04 #@! TO.C,C4*
X12166666Y-27557142D02*
X12214285Y-27604761D01*
X12357142Y-27652380D01*
X12452380Y-27652380D01*
X12595238Y-27604761D01*
X12690476Y-27509523D01*
X12738095Y-27414285D01*
X12785714Y-27223809D01*
X12785714Y-27080952D01*
X12738095Y-26890476D01*
X12690476Y-26795238D01*
X12595238Y-26700000D01*
X12452380Y-26652380D01*
X12357142Y-26652380D01*
X12214285Y-26700000D01*
X12166666Y-26747619D01*
X11309523Y-26985714D02*
X11309523Y-27652380D01*
X11547619Y-26604761D02*
X11785714Y-27319047D01*
X11166666Y-27319047D01*
G04 #@! TO.C,C5*
X2966666Y-27557142D02*
X3014285Y-27604761D01*
X3157142Y-27652380D01*
X3252380Y-27652380D01*
X3395238Y-27604761D01*
X3490476Y-27509523D01*
X3538095Y-27414285D01*
X3585714Y-27223809D01*
X3585714Y-27080952D01*
X3538095Y-26890476D01*
X3490476Y-26795238D01*
X3395238Y-26700000D01*
X3252380Y-26652380D01*
X3157142Y-26652380D01*
X3014285Y-26700000D01*
X2966666Y-26747619D01*
X2061904Y-26652380D02*
X2538095Y-26652380D01*
X2585714Y-27128571D01*
X2538095Y-27080952D01*
X2442857Y-27033333D01*
X2204761Y-27033333D01*
X2109523Y-27080952D01*
X2061904Y-27128571D01*
X2014285Y-27223809D01*
X2014285Y-27461904D01*
X2061904Y-27557142D01*
X2109523Y-27604761D01*
X2204761Y-27652380D01*
X2442857Y-27652380D01*
X2538095Y-27604761D01*
X2585714Y-27557142D01*
G04 #@! TO.C,C6*
X1166666Y-13257142D02*
X1214285Y-13304761D01*
X1357142Y-13352380D01*
X1452380Y-13352380D01*
X1595238Y-13304761D01*
X1690476Y-13209523D01*
X1738095Y-13114285D01*
X1785714Y-12923809D01*
X1785714Y-12780952D01*
X1738095Y-12590476D01*
X1690476Y-12495238D01*
X1595238Y-12400000D01*
X1452380Y-12352380D01*
X1357142Y-12352380D01*
X1214285Y-12400000D01*
X1166666Y-12447619D01*
X309523Y-12352380D02*
X500000Y-12352380D01*
X595238Y-12400000D01*
X642857Y-12447619D01*
X738095Y-12590476D01*
X785714Y-12780952D01*
X785714Y-13161904D01*
X738095Y-13257142D01*
X690476Y-13304761D01*
X595238Y-13352380D01*
X404761Y-13352380D01*
X309523Y-13304761D01*
X261904Y-13257142D01*
X214285Y-13161904D01*
X214285Y-12923809D01*
X261904Y-12828571D01*
X309523Y-12780952D01*
X404761Y-12733333D01*
X595238Y-12733333D01*
X690476Y-12780952D01*
X738095Y-12828571D01*
X785714Y-12923809D01*
G04 #@! TO.C,C7*
X13966666Y-20557142D02*
X14014285Y-20604761D01*
X14157142Y-20652380D01*
X14252380Y-20652380D01*
X14395238Y-20604761D01*
X14490476Y-20509523D01*
X14538095Y-20414285D01*
X14585714Y-20223809D01*
X14585714Y-20080952D01*
X14538095Y-19890476D01*
X14490476Y-19795238D01*
X14395238Y-19700000D01*
X14252380Y-19652380D01*
X14157142Y-19652380D01*
X14014285Y-19700000D01*
X13966666Y-19747619D01*
X13633333Y-19652380D02*
X12966666Y-19652380D01*
X13395238Y-20652380D01*
G04 #@! TO.C,R1*
X3166666Y-9552380D02*
X3500000Y-9076190D01*
X3738095Y-9552380D02*
X3738095Y-8552380D01*
X3357142Y-8552380D01*
X3261904Y-8600000D01*
X3214285Y-8647619D01*
X3166666Y-8742857D01*
X3166666Y-8885714D01*
X3214285Y-8980952D01*
X3261904Y-9028571D01*
X3357142Y-9076190D01*
X3738095Y-9076190D01*
X2214285Y-9552380D02*
X2785714Y-9552380D01*
X2500000Y-9552380D02*
X2500000Y-8552380D01*
X2595238Y-8695238D01*
X2690476Y-8790476D01*
X2785714Y-8838095D01*
G04 #@! TO.C,R2*
X12166666Y-9552380D02*
X12500000Y-9076190D01*
X12738095Y-9552380D02*
X12738095Y-8552380D01*
X12357142Y-8552380D01*
X12261904Y-8600000D01*
X12214285Y-8647619D01*
X12166666Y-8742857D01*
X12166666Y-8885714D01*
X12214285Y-8980952D01*
X12261904Y-9028571D01*
X12357142Y-9076190D01*
X12738095Y-9076190D01*
X11785714Y-8647619D02*
X11738095Y-8600000D01*
X11642857Y-8552380D01*
X11404761Y-8552380D01*
X11309523Y-8600000D01*
X11261904Y-8647619D01*
X11214285Y-8742857D01*
X11214285Y-8838095D01*
X11261904Y-8980952D01*
X11833333Y-9552380D01*
X11214285Y-9552380D01*
G04 #@! TO.C,U1*
X6952380Y-8938095D02*
X7761904Y-8938095D01*
X7857142Y-8985714D01*
X7904761Y-9033333D01*
X7952380Y-9128571D01*
X7952380Y-9319047D01*
X7904761Y-9414285D01*
X7857142Y-9461904D01*
X7761904Y-9509523D01*
X6952380Y-9509523D01*
X7952380Y-10509523D02*
X7952380Y-9938095D01*
X7952380Y-10223809D02*
X6952380Y-10223809D01*
X7095238Y-10128571D01*
X7190476Y-10033333D01*
X7238095Y-9938095D01*
G04 #@! TO.C,U2*
X8261904Y-2652380D02*
X8261904Y-3461904D01*
X8214285Y-3557142D01*
X8166666Y-3604761D01*
X8071428Y-3652380D01*
X7880952Y-3652380D01*
X7785714Y-3604761D01*
X7738095Y-3557142D01*
X7690476Y-3461904D01*
X7690476Y-2652380D01*
X7261904Y-2747619D02*
X7214285Y-2700000D01*
X7119047Y-2652380D01*
X6880952Y-2652380D01*
X6785714Y-2700000D01*
X6738095Y-2747619D01*
X6690476Y-2842857D01*
X6690476Y-2938095D01*
X6738095Y-3080952D01*
X7309523Y-3652380D01*
X6690476Y-3652380D01*
G04 #@! TO.C,U3*
X12452380Y-16438095D02*
X13261904Y-16438095D01*
X13357142Y-16485714D01*
X13404761Y-16533333D01*
X13452380Y-16628571D01*
X13452380Y-16819047D01*
X13404761Y-16914285D01*
X13357142Y-16961904D01*
X13261904Y-17009523D01*
X12452380Y-17009523D01*
X12452380Y-17390476D02*
X12452380Y-18009523D01*
X12833333Y-17676190D01*
X12833333Y-17819047D01*
X12880952Y-17914285D01*
X12928571Y-17961904D01*
X13023809Y-18009523D01*
X13261904Y-18009523D01*
X13357142Y-17961904D01*
X13404761Y-17914285D01*
X13452380Y-17819047D01*
X13452380Y-17533333D01*
X13404761Y-17438095D01*
X13357142Y-17390476D01*
G04 #@! TO.C,Y1*
X7976190Y-27376190D02*
X7976190Y-27852380D01*
X8309523Y-26852380D02*
X7976190Y-27376190D01*
X7642857Y-26852380D01*
X6785714Y-27852380D02*
X7357142Y-27852380D01*
X7071428Y-27852380D02*
X7071428Y-26852380D01*
X7166666Y-26995238D01*
X7261904Y-27090476D01*
X7357142Y-27138095D01*
G04 #@! TO.C,C11*
X14657142Y-22957142D02*
X14704761Y-22909523D01*
X14752380Y-22766666D01*
X14752380Y-22671428D01*
X14704761Y-22528571D01*
X14609523Y-22433333D01*
X14514285Y-22385714D01*
X14323809Y-22338095D01*
X14180952Y-22338095D01*
X13990476Y-22385714D01*
X13895238Y-22433333D01*
X13800000Y-22528571D01*
X13752380Y-22671428D01*
X13752380Y-22766666D01*
X13800000Y-22909523D01*
X13847619Y-22957142D01*
X14752380Y-23909523D02*
X14752380Y-23338095D01*
X14752380Y-23623809D02*
X13752380Y-23623809D01*
X13895238Y-23528571D01*
X13990476Y-23433333D01*
X14038095Y-23338095D01*
X14752380Y-24861904D02*
X14752380Y-24290476D01*
X14752380Y-24576190D02*
X13752380Y-24576190D01*
X13895238Y-24480952D01*
X13990476Y-24385714D01*
X14038095Y-24290476D01*
G04 #@! TD*
%LPC*%
D12*
G04 #@! TO.C,C8*
G36*
X2728029Y-21401318D02*
X2754608Y-21405261D01*
X2780674Y-21411790D01*
X2805973Y-21420842D01*
X2830264Y-21432331D01*
X2853311Y-21446145D01*
X2874894Y-21462152D01*
X2894803Y-21480197D01*
X2912848Y-21500106D01*
X2928855Y-21521689D01*
X2942669Y-21544736D01*
X2954158Y-21569027D01*
X2963210Y-21594326D01*
X2969739Y-21620392D01*
X2973682Y-21646971D01*
X2975000Y-21673809D01*
X2975000Y-22351191D01*
X2973682Y-22378029D01*
X2969739Y-22404608D01*
X2963210Y-22430674D01*
X2954158Y-22455973D01*
X2942669Y-22480264D01*
X2928855Y-22503311D01*
X2912848Y-22524894D01*
X2894803Y-22544803D01*
X2874894Y-22562848D01*
X2853311Y-22578855D01*
X2830264Y-22592669D01*
X2805973Y-22604158D01*
X2780674Y-22613210D01*
X2754608Y-22619739D01*
X2728029Y-22623682D01*
X2701191Y-22625000D01*
X2098809Y-22625000D01*
X2071971Y-22623682D01*
X2045392Y-22619739D01*
X2019326Y-22613210D01*
X1994027Y-22604158D01*
X1969736Y-22592669D01*
X1946689Y-22578855D01*
X1925106Y-22562848D01*
X1905197Y-22544803D01*
X1887152Y-22524894D01*
X1871145Y-22503311D01*
X1857331Y-22480264D01*
X1845842Y-22455973D01*
X1836790Y-22430674D01*
X1830261Y-22404608D01*
X1826318Y-22378029D01*
X1825000Y-22351191D01*
X1825000Y-21673809D01*
X1826318Y-21646971D01*
X1830261Y-21620392D01*
X1836790Y-21594326D01*
X1845842Y-21569027D01*
X1857331Y-21544736D01*
X1871145Y-21521689D01*
X1887152Y-21500106D01*
X1905197Y-21480197D01*
X1925106Y-21462152D01*
X1946689Y-21446145D01*
X1969736Y-21432331D01*
X1994027Y-21420842D01*
X2019326Y-21411790D01*
X2045392Y-21405261D01*
X2071971Y-21401318D01*
X2098809Y-21400000D01*
X2701191Y-21400000D01*
X2728029Y-21401318D01*
X2728029Y-21401318D01*
G37*
D13*
X2400000Y-22012500D03*
D12*
G36*
X2728029Y-23176318D02*
X2754608Y-23180261D01*
X2780674Y-23186790D01*
X2805973Y-23195842D01*
X2830264Y-23207331D01*
X2853311Y-23221145D01*
X2874894Y-23237152D01*
X2894803Y-23255197D01*
X2912848Y-23275106D01*
X2928855Y-23296689D01*
X2942669Y-23319736D01*
X2954158Y-23344027D01*
X2963210Y-23369326D01*
X2969739Y-23395392D01*
X2973682Y-23421971D01*
X2975000Y-23448809D01*
X2975000Y-24126191D01*
X2973682Y-24153029D01*
X2969739Y-24179608D01*
X2963210Y-24205674D01*
X2954158Y-24230973D01*
X2942669Y-24255264D01*
X2928855Y-24278311D01*
X2912848Y-24299894D01*
X2894803Y-24319803D01*
X2874894Y-24337848D01*
X2853311Y-24353855D01*
X2830264Y-24367669D01*
X2805973Y-24379158D01*
X2780674Y-24388210D01*
X2754608Y-24394739D01*
X2728029Y-24398682D01*
X2701191Y-24400000D01*
X2098809Y-24400000D01*
X2071971Y-24398682D01*
X2045392Y-24394739D01*
X2019326Y-24388210D01*
X1994027Y-24379158D01*
X1969736Y-24367669D01*
X1946689Y-24353855D01*
X1925106Y-24337848D01*
X1905197Y-24319803D01*
X1887152Y-24299894D01*
X1871145Y-24278311D01*
X1857331Y-24255264D01*
X1845842Y-24230973D01*
X1836790Y-24205674D01*
X1830261Y-24179608D01*
X1826318Y-24153029D01*
X1825000Y-24126191D01*
X1825000Y-23448809D01*
X1826318Y-23421971D01*
X1830261Y-23395392D01*
X1836790Y-23369326D01*
X1845842Y-23344027D01*
X1857331Y-23319736D01*
X1871145Y-23296689D01*
X1887152Y-23275106D01*
X1905197Y-23255197D01*
X1925106Y-23237152D01*
X1946689Y-23221145D01*
X1969736Y-23207331D01*
X1994027Y-23195842D01*
X2019326Y-23186790D01*
X2045392Y-23180261D01*
X2071971Y-23176318D01*
X2098809Y-23175000D01*
X2701191Y-23175000D01*
X2728029Y-23176318D01*
X2728029Y-23176318D01*
G37*
D13*
X2400000Y-23787500D03*
G04 #@! TD*
D12*
G04 #@! TO.C,C1*
G36*
X4528029Y-4301318D02*
X4554608Y-4305261D01*
X4580674Y-4311790D01*
X4605973Y-4320842D01*
X4630264Y-4332331D01*
X4653311Y-4346145D01*
X4674894Y-4362152D01*
X4694803Y-4380197D01*
X4712848Y-4400106D01*
X4728855Y-4421689D01*
X4742669Y-4444736D01*
X4754158Y-4469027D01*
X4763210Y-4494326D01*
X4769739Y-4520392D01*
X4773682Y-4546971D01*
X4775000Y-4573809D01*
X4775000Y-5251191D01*
X4773682Y-5278029D01*
X4769739Y-5304608D01*
X4763210Y-5330674D01*
X4754158Y-5355973D01*
X4742669Y-5380264D01*
X4728855Y-5403311D01*
X4712848Y-5424894D01*
X4694803Y-5444803D01*
X4674894Y-5462848D01*
X4653311Y-5478855D01*
X4630264Y-5492669D01*
X4605973Y-5504158D01*
X4580674Y-5513210D01*
X4554608Y-5519739D01*
X4528029Y-5523682D01*
X4501191Y-5525000D01*
X3898809Y-5525000D01*
X3871971Y-5523682D01*
X3845392Y-5519739D01*
X3819326Y-5513210D01*
X3794027Y-5504158D01*
X3769736Y-5492669D01*
X3746689Y-5478855D01*
X3725106Y-5462848D01*
X3705197Y-5444803D01*
X3687152Y-5424894D01*
X3671145Y-5403311D01*
X3657331Y-5380264D01*
X3645842Y-5355973D01*
X3636790Y-5330674D01*
X3630261Y-5304608D01*
X3626318Y-5278029D01*
X3625000Y-5251191D01*
X3625000Y-4573809D01*
X3626318Y-4546971D01*
X3630261Y-4520392D01*
X3636790Y-4494326D01*
X3645842Y-4469027D01*
X3657331Y-4444736D01*
X3671145Y-4421689D01*
X3687152Y-4400106D01*
X3705197Y-4380197D01*
X3725106Y-4362152D01*
X3746689Y-4346145D01*
X3769736Y-4332331D01*
X3794027Y-4320842D01*
X3819326Y-4311790D01*
X3845392Y-4305261D01*
X3871971Y-4301318D01*
X3898809Y-4300000D01*
X4501191Y-4300000D01*
X4528029Y-4301318D01*
X4528029Y-4301318D01*
G37*
D13*
X4200000Y-4912500D03*
D12*
G36*
X4528029Y-6076318D02*
X4554608Y-6080261D01*
X4580674Y-6086790D01*
X4605973Y-6095842D01*
X4630264Y-6107331D01*
X4653311Y-6121145D01*
X4674894Y-6137152D01*
X4694803Y-6155197D01*
X4712848Y-6175106D01*
X4728855Y-6196689D01*
X4742669Y-6219736D01*
X4754158Y-6244027D01*
X4763210Y-6269326D01*
X4769739Y-6295392D01*
X4773682Y-6321971D01*
X4775000Y-6348809D01*
X4775000Y-7026191D01*
X4773682Y-7053029D01*
X4769739Y-7079608D01*
X4763210Y-7105674D01*
X4754158Y-7130973D01*
X4742669Y-7155264D01*
X4728855Y-7178311D01*
X4712848Y-7199894D01*
X4694803Y-7219803D01*
X4674894Y-7237848D01*
X4653311Y-7253855D01*
X4630264Y-7267669D01*
X4605973Y-7279158D01*
X4580674Y-7288210D01*
X4554608Y-7294739D01*
X4528029Y-7298682D01*
X4501191Y-7300000D01*
X3898809Y-7300000D01*
X3871971Y-7298682D01*
X3845392Y-7294739D01*
X3819326Y-7288210D01*
X3794027Y-7279158D01*
X3769736Y-7267669D01*
X3746689Y-7253855D01*
X3725106Y-7237848D01*
X3705197Y-7219803D01*
X3687152Y-7199894D01*
X3671145Y-7178311D01*
X3657331Y-7155264D01*
X3645842Y-7130973D01*
X3636790Y-7105674D01*
X3630261Y-7079608D01*
X3626318Y-7053029D01*
X3625000Y-7026191D01*
X3625000Y-6348809D01*
X3626318Y-6321971D01*
X3630261Y-6295392D01*
X3636790Y-6269326D01*
X3645842Y-6244027D01*
X3657331Y-6219736D01*
X3671145Y-6196689D01*
X3687152Y-6175106D01*
X3705197Y-6155197D01*
X3725106Y-6137152D01*
X3746689Y-6121145D01*
X3769736Y-6107331D01*
X3794027Y-6095842D01*
X3819326Y-6086790D01*
X3845392Y-6080261D01*
X3871971Y-6076318D01*
X3898809Y-6075000D01*
X4501191Y-6075000D01*
X4528029Y-6076318D01*
X4528029Y-6076318D01*
G37*
D13*
X4200000Y-6687500D03*
G04 #@! TD*
D12*
G04 #@! TO.C,C2*
G36*
X11128029Y-4301318D02*
X11154608Y-4305261D01*
X11180674Y-4311790D01*
X11205973Y-4320842D01*
X11230264Y-4332331D01*
X11253311Y-4346145D01*
X11274894Y-4362152D01*
X11294803Y-4380197D01*
X11312848Y-4400106D01*
X11328855Y-4421689D01*
X11342669Y-4444736D01*
X11354158Y-4469027D01*
X11363210Y-4494326D01*
X11369739Y-4520392D01*
X11373682Y-4546971D01*
X11375000Y-4573809D01*
X11375000Y-5251191D01*
X11373682Y-5278029D01*
X11369739Y-5304608D01*
X11363210Y-5330674D01*
X11354158Y-5355973D01*
X11342669Y-5380264D01*
X11328855Y-5403311D01*
X11312848Y-5424894D01*
X11294803Y-5444803D01*
X11274894Y-5462848D01*
X11253311Y-5478855D01*
X11230264Y-5492669D01*
X11205973Y-5504158D01*
X11180674Y-5513210D01*
X11154608Y-5519739D01*
X11128029Y-5523682D01*
X11101191Y-5525000D01*
X10498809Y-5525000D01*
X10471971Y-5523682D01*
X10445392Y-5519739D01*
X10419326Y-5513210D01*
X10394027Y-5504158D01*
X10369736Y-5492669D01*
X10346689Y-5478855D01*
X10325106Y-5462848D01*
X10305197Y-5444803D01*
X10287152Y-5424894D01*
X10271145Y-5403311D01*
X10257331Y-5380264D01*
X10245842Y-5355973D01*
X10236790Y-5330674D01*
X10230261Y-5304608D01*
X10226318Y-5278029D01*
X10225000Y-5251191D01*
X10225000Y-4573809D01*
X10226318Y-4546971D01*
X10230261Y-4520392D01*
X10236790Y-4494326D01*
X10245842Y-4469027D01*
X10257331Y-4444736D01*
X10271145Y-4421689D01*
X10287152Y-4400106D01*
X10305197Y-4380197D01*
X10325106Y-4362152D01*
X10346689Y-4346145D01*
X10369736Y-4332331D01*
X10394027Y-4320842D01*
X10419326Y-4311790D01*
X10445392Y-4305261D01*
X10471971Y-4301318D01*
X10498809Y-4300000D01*
X11101191Y-4300000D01*
X11128029Y-4301318D01*
X11128029Y-4301318D01*
G37*
D13*
X10800000Y-4912500D03*
D12*
G36*
X11128029Y-6076318D02*
X11154608Y-6080261D01*
X11180674Y-6086790D01*
X11205973Y-6095842D01*
X11230264Y-6107331D01*
X11253311Y-6121145D01*
X11274894Y-6137152D01*
X11294803Y-6155197D01*
X11312848Y-6175106D01*
X11328855Y-6196689D01*
X11342669Y-6219736D01*
X11354158Y-6244027D01*
X11363210Y-6269326D01*
X11369739Y-6295392D01*
X11373682Y-6321971D01*
X11375000Y-6348809D01*
X11375000Y-7026191D01*
X11373682Y-7053029D01*
X11369739Y-7079608D01*
X11363210Y-7105674D01*
X11354158Y-7130973D01*
X11342669Y-7155264D01*
X11328855Y-7178311D01*
X11312848Y-7199894D01*
X11294803Y-7219803D01*
X11274894Y-7237848D01*
X11253311Y-7253855D01*
X11230264Y-7267669D01*
X11205973Y-7279158D01*
X11180674Y-7288210D01*
X11154608Y-7294739D01*
X11128029Y-7298682D01*
X11101191Y-7300000D01*
X10498809Y-7300000D01*
X10471971Y-7298682D01*
X10445392Y-7294739D01*
X10419326Y-7288210D01*
X10394027Y-7279158D01*
X10369736Y-7267669D01*
X10346689Y-7253855D01*
X10325106Y-7237848D01*
X10305197Y-7219803D01*
X10287152Y-7199894D01*
X10271145Y-7178311D01*
X10257331Y-7155264D01*
X10245842Y-7130973D01*
X10236790Y-7105674D01*
X10230261Y-7079608D01*
X10226318Y-7053029D01*
X10225000Y-7026191D01*
X10225000Y-6348809D01*
X10226318Y-6321971D01*
X10230261Y-6295392D01*
X10236790Y-6269326D01*
X10245842Y-6244027D01*
X10257331Y-6219736D01*
X10271145Y-6196689D01*
X10287152Y-6175106D01*
X10305197Y-6155197D01*
X10325106Y-6137152D01*
X10346689Y-6121145D01*
X10369736Y-6107331D01*
X10394027Y-6095842D01*
X10419326Y-6086790D01*
X10445392Y-6080261D01*
X10471971Y-6076318D01*
X10498809Y-6075000D01*
X11101191Y-6075000D01*
X11128029Y-6076318D01*
X11128029Y-6076318D01*
G37*
D13*
X10800000Y-6687500D03*
G04 #@! TD*
D12*
G04 #@! TO.C,C3*
G36*
X12105142Y-10726174D02*
X12128803Y-10729684D01*
X12152007Y-10735496D01*
X12174529Y-10743554D01*
X12196153Y-10753782D01*
X12216670Y-10766079D01*
X12235883Y-10780329D01*
X12253607Y-10796393D01*
X12269671Y-10814117D01*
X12283921Y-10833330D01*
X12296218Y-10853847D01*
X12306446Y-10875471D01*
X12314504Y-10897993D01*
X12320316Y-10921197D01*
X12323826Y-10944858D01*
X12325000Y-10968750D01*
X12325000Y-11456250D01*
X12323826Y-11480142D01*
X12320316Y-11503803D01*
X12314504Y-11527007D01*
X12306446Y-11549529D01*
X12296218Y-11571153D01*
X12283921Y-11591670D01*
X12269671Y-11610883D01*
X12253607Y-11628607D01*
X12235883Y-11644671D01*
X12216670Y-11658921D01*
X12196153Y-11671218D01*
X12174529Y-11681446D01*
X12152007Y-11689504D01*
X12128803Y-11695316D01*
X12105142Y-11698826D01*
X12081250Y-11700000D01*
X11518750Y-11700000D01*
X11494858Y-11698826D01*
X11471197Y-11695316D01*
X11447993Y-11689504D01*
X11425471Y-11681446D01*
X11403847Y-11671218D01*
X11383330Y-11658921D01*
X11364117Y-11644671D01*
X11346393Y-11628607D01*
X11330329Y-11610883D01*
X11316079Y-11591670D01*
X11303782Y-11571153D01*
X11293554Y-11549529D01*
X11285496Y-11527007D01*
X11279684Y-11503803D01*
X11276174Y-11480142D01*
X11275000Y-11456250D01*
X11275000Y-10968750D01*
X11276174Y-10944858D01*
X11279684Y-10921197D01*
X11285496Y-10897993D01*
X11293554Y-10875471D01*
X11303782Y-10853847D01*
X11316079Y-10833330D01*
X11330329Y-10814117D01*
X11346393Y-10796393D01*
X11364117Y-10780329D01*
X11383330Y-10766079D01*
X11403847Y-10753782D01*
X11425471Y-10743554D01*
X11447993Y-10735496D01*
X11471197Y-10729684D01*
X11494858Y-10726174D01*
X11518750Y-10725000D01*
X12081250Y-10725000D01*
X12105142Y-10726174D01*
X12105142Y-10726174D01*
G37*
D14*
X11800000Y-11212500D03*
D12*
G36*
X12105142Y-12301174D02*
X12128803Y-12304684D01*
X12152007Y-12310496D01*
X12174529Y-12318554D01*
X12196153Y-12328782D01*
X12216670Y-12341079D01*
X12235883Y-12355329D01*
X12253607Y-12371393D01*
X12269671Y-12389117D01*
X12283921Y-12408330D01*
X12296218Y-12428847D01*
X12306446Y-12450471D01*
X12314504Y-12472993D01*
X12320316Y-12496197D01*
X12323826Y-12519858D01*
X12325000Y-12543750D01*
X12325000Y-13031250D01*
X12323826Y-13055142D01*
X12320316Y-13078803D01*
X12314504Y-13102007D01*
X12306446Y-13124529D01*
X12296218Y-13146153D01*
X12283921Y-13166670D01*
X12269671Y-13185883D01*
X12253607Y-13203607D01*
X12235883Y-13219671D01*
X12216670Y-13233921D01*
X12196153Y-13246218D01*
X12174529Y-13256446D01*
X12152007Y-13264504D01*
X12128803Y-13270316D01*
X12105142Y-13273826D01*
X12081250Y-13275000D01*
X11518750Y-13275000D01*
X11494858Y-13273826D01*
X11471197Y-13270316D01*
X11447993Y-13264504D01*
X11425471Y-13256446D01*
X11403847Y-13246218D01*
X11383330Y-13233921D01*
X11364117Y-13219671D01*
X11346393Y-13203607D01*
X11330329Y-13185883D01*
X11316079Y-13166670D01*
X11303782Y-13146153D01*
X11293554Y-13124529D01*
X11285496Y-13102007D01*
X11279684Y-13078803D01*
X11276174Y-13055142D01*
X11275000Y-13031250D01*
X11275000Y-12543750D01*
X11276174Y-12519858D01*
X11279684Y-12496197D01*
X11285496Y-12472993D01*
X11293554Y-12450471D01*
X11303782Y-12428847D01*
X11316079Y-12408330D01*
X11330329Y-12389117D01*
X11346393Y-12371393D01*
X11364117Y-12355329D01*
X11383330Y-12341079D01*
X11403847Y-12328782D01*
X11425471Y-12318554D01*
X11447993Y-12310496D01*
X11471197Y-12304684D01*
X11494858Y-12301174D01*
X11518750Y-12300000D01*
X12081250Y-12300000D01*
X12105142Y-12301174D01*
X12105142Y-12301174D01*
G37*
D14*
X11800000Y-12787500D03*
G04 #@! TD*
D12*
G04 #@! TO.C,C4*
G36*
X13255142Y-25176174D02*
X13278803Y-25179684D01*
X13302007Y-25185496D01*
X13324529Y-25193554D01*
X13346153Y-25203782D01*
X13366670Y-25216079D01*
X13385883Y-25230329D01*
X13403607Y-25246393D01*
X13419671Y-25264117D01*
X13433921Y-25283330D01*
X13446218Y-25303847D01*
X13456446Y-25325471D01*
X13464504Y-25347993D01*
X13470316Y-25371197D01*
X13473826Y-25394858D01*
X13475000Y-25418750D01*
X13475000Y-25981250D01*
X13473826Y-26005142D01*
X13470316Y-26028803D01*
X13464504Y-26052007D01*
X13456446Y-26074529D01*
X13446218Y-26096153D01*
X13433921Y-26116670D01*
X13419671Y-26135883D01*
X13403607Y-26153607D01*
X13385883Y-26169671D01*
X13366670Y-26183921D01*
X13346153Y-26196218D01*
X13324529Y-26206446D01*
X13302007Y-26214504D01*
X13278803Y-26220316D01*
X13255142Y-26223826D01*
X13231250Y-26225000D01*
X12743750Y-26225000D01*
X12719858Y-26223826D01*
X12696197Y-26220316D01*
X12672993Y-26214504D01*
X12650471Y-26206446D01*
X12628847Y-26196218D01*
X12608330Y-26183921D01*
X12589117Y-26169671D01*
X12571393Y-26153607D01*
X12555329Y-26135883D01*
X12541079Y-26116670D01*
X12528782Y-26096153D01*
X12518554Y-26074529D01*
X12510496Y-26052007D01*
X12504684Y-26028803D01*
X12501174Y-26005142D01*
X12500000Y-25981250D01*
X12500000Y-25418750D01*
X12501174Y-25394858D01*
X12504684Y-25371197D01*
X12510496Y-25347993D01*
X12518554Y-25325471D01*
X12528782Y-25303847D01*
X12541079Y-25283330D01*
X12555329Y-25264117D01*
X12571393Y-25246393D01*
X12589117Y-25230329D01*
X12608330Y-25216079D01*
X12628847Y-25203782D01*
X12650471Y-25193554D01*
X12672993Y-25185496D01*
X12696197Y-25179684D01*
X12719858Y-25176174D01*
X12743750Y-25175000D01*
X13231250Y-25175000D01*
X13255142Y-25176174D01*
X13255142Y-25176174D01*
G37*
D14*
X12987500Y-25700000D03*
D12*
G36*
X11680142Y-25176174D02*
X11703803Y-25179684D01*
X11727007Y-25185496D01*
X11749529Y-25193554D01*
X11771153Y-25203782D01*
X11791670Y-25216079D01*
X11810883Y-25230329D01*
X11828607Y-25246393D01*
X11844671Y-25264117D01*
X11858921Y-25283330D01*
X11871218Y-25303847D01*
X11881446Y-25325471D01*
X11889504Y-25347993D01*
X11895316Y-25371197D01*
X11898826Y-25394858D01*
X11900000Y-25418750D01*
X11900000Y-25981250D01*
X11898826Y-26005142D01*
X11895316Y-26028803D01*
X11889504Y-26052007D01*
X11881446Y-26074529D01*
X11871218Y-26096153D01*
X11858921Y-26116670D01*
X11844671Y-26135883D01*
X11828607Y-26153607D01*
X11810883Y-26169671D01*
X11791670Y-26183921D01*
X11771153Y-26196218D01*
X11749529Y-26206446D01*
X11727007Y-26214504D01*
X11703803Y-26220316D01*
X11680142Y-26223826D01*
X11656250Y-26225000D01*
X11168750Y-26225000D01*
X11144858Y-26223826D01*
X11121197Y-26220316D01*
X11097993Y-26214504D01*
X11075471Y-26206446D01*
X11053847Y-26196218D01*
X11033330Y-26183921D01*
X11014117Y-26169671D01*
X10996393Y-26153607D01*
X10980329Y-26135883D01*
X10966079Y-26116670D01*
X10953782Y-26096153D01*
X10943554Y-26074529D01*
X10935496Y-26052007D01*
X10929684Y-26028803D01*
X10926174Y-26005142D01*
X10925000Y-25981250D01*
X10925000Y-25418750D01*
X10926174Y-25394858D01*
X10929684Y-25371197D01*
X10935496Y-25347993D01*
X10943554Y-25325471D01*
X10953782Y-25303847D01*
X10966079Y-25283330D01*
X10980329Y-25264117D01*
X10996393Y-25246393D01*
X11014117Y-25230329D01*
X11033330Y-25216079D01*
X11053847Y-25203782D01*
X11075471Y-25193554D01*
X11097993Y-25185496D01*
X11121197Y-25179684D01*
X11144858Y-25176174D01*
X11168750Y-25175000D01*
X11656250Y-25175000D01*
X11680142Y-25176174D01*
X11680142Y-25176174D01*
G37*
D14*
X11412500Y-25700000D03*
G04 #@! TD*
D12*
G04 #@! TO.C,C5*
G36*
X3855142Y-25176174D02*
X3878803Y-25179684D01*
X3902007Y-25185496D01*
X3924529Y-25193554D01*
X3946153Y-25203782D01*
X3966670Y-25216079D01*
X3985883Y-25230329D01*
X4003607Y-25246393D01*
X4019671Y-25264117D01*
X4033921Y-25283330D01*
X4046218Y-25303847D01*
X4056446Y-25325471D01*
X4064504Y-25347993D01*
X4070316Y-25371197D01*
X4073826Y-25394858D01*
X4075000Y-25418750D01*
X4075000Y-25981250D01*
X4073826Y-26005142D01*
X4070316Y-26028803D01*
X4064504Y-26052007D01*
X4056446Y-26074529D01*
X4046218Y-26096153D01*
X4033921Y-26116670D01*
X4019671Y-26135883D01*
X4003607Y-26153607D01*
X3985883Y-26169671D01*
X3966670Y-26183921D01*
X3946153Y-26196218D01*
X3924529Y-26206446D01*
X3902007Y-26214504D01*
X3878803Y-26220316D01*
X3855142Y-26223826D01*
X3831250Y-26225000D01*
X3343750Y-26225000D01*
X3319858Y-26223826D01*
X3296197Y-26220316D01*
X3272993Y-26214504D01*
X3250471Y-26206446D01*
X3228847Y-26196218D01*
X3208330Y-26183921D01*
X3189117Y-26169671D01*
X3171393Y-26153607D01*
X3155329Y-26135883D01*
X3141079Y-26116670D01*
X3128782Y-26096153D01*
X3118554Y-26074529D01*
X3110496Y-26052007D01*
X3104684Y-26028803D01*
X3101174Y-26005142D01*
X3100000Y-25981250D01*
X3100000Y-25418750D01*
X3101174Y-25394858D01*
X3104684Y-25371197D01*
X3110496Y-25347993D01*
X3118554Y-25325471D01*
X3128782Y-25303847D01*
X3141079Y-25283330D01*
X3155329Y-25264117D01*
X3171393Y-25246393D01*
X3189117Y-25230329D01*
X3208330Y-25216079D01*
X3228847Y-25203782D01*
X3250471Y-25193554D01*
X3272993Y-25185496D01*
X3296197Y-25179684D01*
X3319858Y-25176174D01*
X3343750Y-25175000D01*
X3831250Y-25175000D01*
X3855142Y-25176174D01*
X3855142Y-25176174D01*
G37*
D14*
X3587500Y-25700000D03*
D12*
G36*
X2280142Y-25176174D02*
X2303803Y-25179684D01*
X2327007Y-25185496D01*
X2349529Y-25193554D01*
X2371153Y-25203782D01*
X2391670Y-25216079D01*
X2410883Y-25230329D01*
X2428607Y-25246393D01*
X2444671Y-25264117D01*
X2458921Y-25283330D01*
X2471218Y-25303847D01*
X2481446Y-25325471D01*
X2489504Y-25347993D01*
X2495316Y-25371197D01*
X2498826Y-25394858D01*
X2500000Y-25418750D01*
X2500000Y-25981250D01*
X2498826Y-26005142D01*
X2495316Y-26028803D01*
X2489504Y-26052007D01*
X2481446Y-26074529D01*
X2471218Y-26096153D01*
X2458921Y-26116670D01*
X2444671Y-26135883D01*
X2428607Y-26153607D01*
X2410883Y-26169671D01*
X2391670Y-26183921D01*
X2371153Y-26196218D01*
X2349529Y-26206446D01*
X2327007Y-26214504D01*
X2303803Y-26220316D01*
X2280142Y-26223826D01*
X2256250Y-26225000D01*
X1768750Y-26225000D01*
X1744858Y-26223826D01*
X1721197Y-26220316D01*
X1697993Y-26214504D01*
X1675471Y-26206446D01*
X1653847Y-26196218D01*
X1633330Y-26183921D01*
X1614117Y-26169671D01*
X1596393Y-26153607D01*
X1580329Y-26135883D01*
X1566079Y-26116670D01*
X1553782Y-26096153D01*
X1543554Y-26074529D01*
X1535496Y-26052007D01*
X1529684Y-26028803D01*
X1526174Y-26005142D01*
X1525000Y-25981250D01*
X1525000Y-25418750D01*
X1526174Y-25394858D01*
X1529684Y-25371197D01*
X1535496Y-25347993D01*
X1543554Y-25325471D01*
X1553782Y-25303847D01*
X1566079Y-25283330D01*
X1580329Y-25264117D01*
X1596393Y-25246393D01*
X1614117Y-25230329D01*
X1633330Y-25216079D01*
X1653847Y-25203782D01*
X1675471Y-25193554D01*
X1697993Y-25185496D01*
X1721197Y-25179684D01*
X1744858Y-25176174D01*
X1768750Y-25175000D01*
X2256250Y-25175000D01*
X2280142Y-25176174D01*
X2280142Y-25176174D01*
G37*
D14*
X2012500Y-25700000D03*
G04 #@! TD*
D12*
G04 #@! TO.C,C6*
G36*
X2905142Y-12301174D02*
X2928803Y-12304684D01*
X2952007Y-12310496D01*
X2974529Y-12318554D01*
X2996153Y-12328782D01*
X3016670Y-12341079D01*
X3035883Y-12355329D01*
X3053607Y-12371393D01*
X3069671Y-12389117D01*
X3083921Y-12408330D01*
X3096218Y-12428847D01*
X3106446Y-12450471D01*
X3114504Y-12472993D01*
X3120316Y-12496197D01*
X3123826Y-12519858D01*
X3125000Y-12543750D01*
X3125000Y-13031250D01*
X3123826Y-13055142D01*
X3120316Y-13078803D01*
X3114504Y-13102007D01*
X3106446Y-13124529D01*
X3096218Y-13146153D01*
X3083921Y-13166670D01*
X3069671Y-13185883D01*
X3053607Y-13203607D01*
X3035883Y-13219671D01*
X3016670Y-13233921D01*
X2996153Y-13246218D01*
X2974529Y-13256446D01*
X2952007Y-13264504D01*
X2928803Y-13270316D01*
X2905142Y-13273826D01*
X2881250Y-13275000D01*
X2318750Y-13275000D01*
X2294858Y-13273826D01*
X2271197Y-13270316D01*
X2247993Y-13264504D01*
X2225471Y-13256446D01*
X2203847Y-13246218D01*
X2183330Y-13233921D01*
X2164117Y-13219671D01*
X2146393Y-13203607D01*
X2130329Y-13185883D01*
X2116079Y-13166670D01*
X2103782Y-13146153D01*
X2093554Y-13124529D01*
X2085496Y-13102007D01*
X2079684Y-13078803D01*
X2076174Y-13055142D01*
X2075000Y-13031250D01*
X2075000Y-12543750D01*
X2076174Y-12519858D01*
X2079684Y-12496197D01*
X2085496Y-12472993D01*
X2093554Y-12450471D01*
X2103782Y-12428847D01*
X2116079Y-12408330D01*
X2130329Y-12389117D01*
X2146393Y-12371393D01*
X2164117Y-12355329D01*
X2183330Y-12341079D01*
X2203847Y-12328782D01*
X2225471Y-12318554D01*
X2247993Y-12310496D01*
X2271197Y-12304684D01*
X2294858Y-12301174D01*
X2318750Y-12300000D01*
X2881250Y-12300000D01*
X2905142Y-12301174D01*
X2905142Y-12301174D01*
G37*
D14*
X2600000Y-12787500D03*
D12*
G36*
X2905142Y-10726174D02*
X2928803Y-10729684D01*
X2952007Y-10735496D01*
X2974529Y-10743554D01*
X2996153Y-10753782D01*
X3016670Y-10766079D01*
X3035883Y-10780329D01*
X3053607Y-10796393D01*
X3069671Y-10814117D01*
X3083921Y-10833330D01*
X3096218Y-10853847D01*
X3106446Y-10875471D01*
X3114504Y-10897993D01*
X3120316Y-10921197D01*
X3123826Y-10944858D01*
X3125000Y-10968750D01*
X3125000Y-11456250D01*
X3123826Y-11480142D01*
X3120316Y-11503803D01*
X3114504Y-11527007D01*
X3106446Y-11549529D01*
X3096218Y-11571153D01*
X3083921Y-11591670D01*
X3069671Y-11610883D01*
X3053607Y-11628607D01*
X3035883Y-11644671D01*
X3016670Y-11658921D01*
X2996153Y-11671218D01*
X2974529Y-11681446D01*
X2952007Y-11689504D01*
X2928803Y-11695316D01*
X2905142Y-11698826D01*
X2881250Y-11700000D01*
X2318750Y-11700000D01*
X2294858Y-11698826D01*
X2271197Y-11695316D01*
X2247993Y-11689504D01*
X2225471Y-11681446D01*
X2203847Y-11671218D01*
X2183330Y-11658921D01*
X2164117Y-11644671D01*
X2146393Y-11628607D01*
X2130329Y-11610883D01*
X2116079Y-11591670D01*
X2103782Y-11571153D01*
X2093554Y-11549529D01*
X2085496Y-11527007D01*
X2079684Y-11503803D01*
X2076174Y-11480142D01*
X2075000Y-11456250D01*
X2075000Y-10968750D01*
X2076174Y-10944858D01*
X2079684Y-10921197D01*
X2085496Y-10897993D01*
X2093554Y-10875471D01*
X2103782Y-10853847D01*
X2116079Y-10833330D01*
X2130329Y-10814117D01*
X2146393Y-10796393D01*
X2164117Y-10780329D01*
X2183330Y-10766079D01*
X2203847Y-10753782D01*
X2225471Y-10743554D01*
X2247993Y-10735496D01*
X2271197Y-10729684D01*
X2294858Y-10726174D01*
X2318750Y-10725000D01*
X2881250Y-10725000D01*
X2905142Y-10726174D01*
X2905142Y-10726174D01*
G37*
D14*
X2600000Y-11212500D03*
G04 #@! TD*
D12*
G04 #@! TO.C,C7*
G36*
X13255142Y-21076174D02*
X13278803Y-21079684D01*
X13302007Y-21085496D01*
X13324529Y-21093554D01*
X13346153Y-21103782D01*
X13366670Y-21116079D01*
X13385883Y-21130329D01*
X13403607Y-21146393D01*
X13419671Y-21164117D01*
X13433921Y-21183330D01*
X13446218Y-21203847D01*
X13456446Y-21225471D01*
X13464504Y-21247993D01*
X13470316Y-21271197D01*
X13473826Y-21294858D01*
X13475000Y-21318750D01*
X13475000Y-21881250D01*
X13473826Y-21905142D01*
X13470316Y-21928803D01*
X13464504Y-21952007D01*
X13456446Y-21974529D01*
X13446218Y-21996153D01*
X13433921Y-22016670D01*
X13419671Y-22035883D01*
X13403607Y-22053607D01*
X13385883Y-22069671D01*
X13366670Y-22083921D01*
X13346153Y-22096218D01*
X13324529Y-22106446D01*
X13302007Y-22114504D01*
X13278803Y-22120316D01*
X13255142Y-22123826D01*
X13231250Y-22125000D01*
X12743750Y-22125000D01*
X12719858Y-22123826D01*
X12696197Y-22120316D01*
X12672993Y-22114504D01*
X12650471Y-22106446D01*
X12628847Y-22096218D01*
X12608330Y-22083921D01*
X12589117Y-22069671D01*
X12571393Y-22053607D01*
X12555329Y-22035883D01*
X12541079Y-22016670D01*
X12528782Y-21996153D01*
X12518554Y-21974529D01*
X12510496Y-21952007D01*
X12504684Y-21928803D01*
X12501174Y-21905142D01*
X12500000Y-21881250D01*
X12500000Y-21318750D01*
X12501174Y-21294858D01*
X12504684Y-21271197D01*
X12510496Y-21247993D01*
X12518554Y-21225471D01*
X12528782Y-21203847D01*
X12541079Y-21183330D01*
X12555329Y-21164117D01*
X12571393Y-21146393D01*
X12589117Y-21130329D01*
X12608330Y-21116079D01*
X12628847Y-21103782D01*
X12650471Y-21093554D01*
X12672993Y-21085496D01*
X12696197Y-21079684D01*
X12719858Y-21076174D01*
X12743750Y-21075000D01*
X13231250Y-21075000D01*
X13255142Y-21076174D01*
X13255142Y-21076174D01*
G37*
D14*
X12987500Y-21600000D03*
D12*
G36*
X11680142Y-21076174D02*
X11703803Y-21079684D01*
X11727007Y-21085496D01*
X11749529Y-21093554D01*
X11771153Y-21103782D01*
X11791670Y-21116079D01*
X11810883Y-21130329D01*
X11828607Y-21146393D01*
X11844671Y-21164117D01*
X11858921Y-21183330D01*
X11871218Y-21203847D01*
X11881446Y-21225471D01*
X11889504Y-21247993D01*
X11895316Y-21271197D01*
X11898826Y-21294858D01*
X11900000Y-21318750D01*
X11900000Y-21881250D01*
X11898826Y-21905142D01*
X11895316Y-21928803D01*
X11889504Y-21952007D01*
X11881446Y-21974529D01*
X11871218Y-21996153D01*
X11858921Y-22016670D01*
X11844671Y-22035883D01*
X11828607Y-22053607D01*
X11810883Y-22069671D01*
X11791670Y-22083921D01*
X11771153Y-22096218D01*
X11749529Y-22106446D01*
X11727007Y-22114504D01*
X11703803Y-22120316D01*
X11680142Y-22123826D01*
X11656250Y-22125000D01*
X11168750Y-22125000D01*
X11144858Y-22123826D01*
X11121197Y-22120316D01*
X11097993Y-22114504D01*
X11075471Y-22106446D01*
X11053847Y-22096218D01*
X11033330Y-22083921D01*
X11014117Y-22069671D01*
X10996393Y-22053607D01*
X10980329Y-22035883D01*
X10966079Y-22016670D01*
X10953782Y-21996153D01*
X10943554Y-21974529D01*
X10935496Y-21952007D01*
X10929684Y-21928803D01*
X10926174Y-21905142D01*
X10925000Y-21881250D01*
X10925000Y-21318750D01*
X10926174Y-21294858D01*
X10929684Y-21271197D01*
X10935496Y-21247993D01*
X10943554Y-21225471D01*
X10953782Y-21203847D01*
X10966079Y-21183330D01*
X10980329Y-21164117D01*
X10996393Y-21146393D01*
X11014117Y-21130329D01*
X11033330Y-21116079D01*
X11053847Y-21103782D01*
X11075471Y-21093554D01*
X11097993Y-21085496D01*
X11121197Y-21079684D01*
X11144858Y-21076174D01*
X11168750Y-21075000D01*
X11656250Y-21075000D01*
X11680142Y-21076174D01*
X11680142Y-21076174D01*
G37*
D14*
X11412500Y-21600000D03*
G04 #@! TD*
D15*
G04 #@! TO.C,CON1*
X12600000Y-29100000D03*
D16*
X10060000Y-29100000D03*
X7520000Y-29100000D03*
X4980000Y-29100000D03*
X2440000Y-29100000D03*
G04 #@! TD*
D17*
G04 #@! TO.C,J1*
X1800000Y-3100000D03*
X13200000Y-3100000D03*
D18*
X5200000Y-3100000D03*
X9800000Y-3100000D03*
G04 #@! TD*
D12*
G04 #@! TO.C,R1*
G36*
X5105142Y-8426174D02*
X5128803Y-8429684D01*
X5152007Y-8435496D01*
X5174529Y-8443554D01*
X5196153Y-8453782D01*
X5216670Y-8466079D01*
X5235883Y-8480329D01*
X5253607Y-8496393D01*
X5269671Y-8514117D01*
X5283921Y-8533330D01*
X5296218Y-8553847D01*
X5306446Y-8575471D01*
X5314504Y-8597993D01*
X5320316Y-8621197D01*
X5323826Y-8644858D01*
X5325000Y-8668750D01*
X5325000Y-9156250D01*
X5323826Y-9180142D01*
X5320316Y-9203803D01*
X5314504Y-9227007D01*
X5306446Y-9249529D01*
X5296218Y-9271153D01*
X5283921Y-9291670D01*
X5269671Y-9310883D01*
X5253607Y-9328607D01*
X5235883Y-9344671D01*
X5216670Y-9358921D01*
X5196153Y-9371218D01*
X5174529Y-9381446D01*
X5152007Y-9389504D01*
X5128803Y-9395316D01*
X5105142Y-9398826D01*
X5081250Y-9400000D01*
X4518750Y-9400000D01*
X4494858Y-9398826D01*
X4471197Y-9395316D01*
X4447993Y-9389504D01*
X4425471Y-9381446D01*
X4403847Y-9371218D01*
X4383330Y-9358921D01*
X4364117Y-9344671D01*
X4346393Y-9328607D01*
X4330329Y-9310883D01*
X4316079Y-9291670D01*
X4303782Y-9271153D01*
X4293554Y-9249529D01*
X4285496Y-9227007D01*
X4279684Y-9203803D01*
X4276174Y-9180142D01*
X4275000Y-9156250D01*
X4275000Y-8668750D01*
X4276174Y-8644858D01*
X4279684Y-8621197D01*
X4285496Y-8597993D01*
X4293554Y-8575471D01*
X4303782Y-8553847D01*
X4316079Y-8533330D01*
X4330329Y-8514117D01*
X4346393Y-8496393D01*
X4364117Y-8480329D01*
X4383330Y-8466079D01*
X4403847Y-8453782D01*
X4425471Y-8443554D01*
X4447993Y-8435496D01*
X4471197Y-8429684D01*
X4494858Y-8426174D01*
X4518750Y-8425000D01*
X5081250Y-8425000D01*
X5105142Y-8426174D01*
X5105142Y-8426174D01*
G37*
D14*
X4800000Y-8912500D03*
D12*
G36*
X5105142Y-10001174D02*
X5128803Y-10004684D01*
X5152007Y-10010496D01*
X5174529Y-10018554D01*
X5196153Y-10028782D01*
X5216670Y-10041079D01*
X5235883Y-10055329D01*
X5253607Y-10071393D01*
X5269671Y-10089117D01*
X5283921Y-10108330D01*
X5296218Y-10128847D01*
X5306446Y-10150471D01*
X5314504Y-10172993D01*
X5320316Y-10196197D01*
X5323826Y-10219858D01*
X5325000Y-10243750D01*
X5325000Y-10731250D01*
X5323826Y-10755142D01*
X5320316Y-10778803D01*
X5314504Y-10802007D01*
X5306446Y-10824529D01*
X5296218Y-10846153D01*
X5283921Y-10866670D01*
X5269671Y-10885883D01*
X5253607Y-10903607D01*
X5235883Y-10919671D01*
X5216670Y-10933921D01*
X5196153Y-10946218D01*
X5174529Y-10956446D01*
X5152007Y-10964504D01*
X5128803Y-10970316D01*
X5105142Y-10973826D01*
X5081250Y-10975000D01*
X4518750Y-10975000D01*
X4494858Y-10973826D01*
X4471197Y-10970316D01*
X4447993Y-10964504D01*
X4425471Y-10956446D01*
X4403847Y-10946218D01*
X4383330Y-10933921D01*
X4364117Y-10919671D01*
X4346393Y-10903607D01*
X4330329Y-10885883D01*
X4316079Y-10866670D01*
X4303782Y-10846153D01*
X4293554Y-10824529D01*
X4285496Y-10802007D01*
X4279684Y-10778803D01*
X4276174Y-10755142D01*
X4275000Y-10731250D01*
X4275000Y-10243750D01*
X4276174Y-10219858D01*
X4279684Y-10196197D01*
X4285496Y-10172993D01*
X4293554Y-10150471D01*
X4303782Y-10128847D01*
X4316079Y-10108330D01*
X4330329Y-10089117D01*
X4346393Y-10071393D01*
X4364117Y-10055329D01*
X4383330Y-10041079D01*
X4403847Y-10028782D01*
X4425471Y-10018554D01*
X4447993Y-10010496D01*
X4471197Y-10004684D01*
X4494858Y-10001174D01*
X4518750Y-10000000D01*
X5081250Y-10000000D01*
X5105142Y-10001174D01*
X5105142Y-10001174D01*
G37*
D14*
X4800000Y-10487500D03*
G04 #@! TD*
D12*
G04 #@! TO.C,R2*
G36*
X10505142Y-10001174D02*
X10528803Y-10004684D01*
X10552007Y-10010496D01*
X10574529Y-10018554D01*
X10596153Y-10028782D01*
X10616670Y-10041079D01*
X10635883Y-10055329D01*
X10653607Y-10071393D01*
X10669671Y-10089117D01*
X10683921Y-10108330D01*
X10696218Y-10128847D01*
X10706446Y-10150471D01*
X10714504Y-10172993D01*
X10720316Y-10196197D01*
X10723826Y-10219858D01*
X10725000Y-10243750D01*
X10725000Y-10731250D01*
X10723826Y-10755142D01*
X10720316Y-10778803D01*
X10714504Y-10802007D01*
X10706446Y-10824529D01*
X10696218Y-10846153D01*
X10683921Y-10866670D01*
X10669671Y-10885883D01*
X10653607Y-10903607D01*
X10635883Y-10919671D01*
X10616670Y-10933921D01*
X10596153Y-10946218D01*
X10574529Y-10956446D01*
X10552007Y-10964504D01*
X10528803Y-10970316D01*
X10505142Y-10973826D01*
X10481250Y-10975000D01*
X9918750Y-10975000D01*
X9894858Y-10973826D01*
X9871197Y-10970316D01*
X9847993Y-10964504D01*
X9825471Y-10956446D01*
X9803847Y-10946218D01*
X9783330Y-10933921D01*
X9764117Y-10919671D01*
X9746393Y-10903607D01*
X9730329Y-10885883D01*
X9716079Y-10866670D01*
X9703782Y-10846153D01*
X9693554Y-10824529D01*
X9685496Y-10802007D01*
X9679684Y-10778803D01*
X9676174Y-10755142D01*
X9675000Y-10731250D01*
X9675000Y-10243750D01*
X9676174Y-10219858D01*
X9679684Y-10196197D01*
X9685496Y-10172993D01*
X9693554Y-10150471D01*
X9703782Y-10128847D01*
X9716079Y-10108330D01*
X9730329Y-10089117D01*
X9746393Y-10071393D01*
X9764117Y-10055329D01*
X9783330Y-10041079D01*
X9803847Y-10028782D01*
X9825471Y-10018554D01*
X9847993Y-10010496D01*
X9871197Y-10004684D01*
X9894858Y-10001174D01*
X9918750Y-10000000D01*
X10481250Y-10000000D01*
X10505142Y-10001174D01*
X10505142Y-10001174D01*
G37*
D14*
X10200000Y-10487500D03*
D12*
G36*
X10505142Y-8426174D02*
X10528803Y-8429684D01*
X10552007Y-8435496D01*
X10574529Y-8443554D01*
X10596153Y-8453782D01*
X10616670Y-8466079D01*
X10635883Y-8480329D01*
X10653607Y-8496393D01*
X10669671Y-8514117D01*
X10683921Y-8533330D01*
X10696218Y-8553847D01*
X10706446Y-8575471D01*
X10714504Y-8597993D01*
X10720316Y-8621197D01*
X10723826Y-8644858D01*
X10725000Y-8668750D01*
X10725000Y-9156250D01*
X10723826Y-9180142D01*
X10720316Y-9203803D01*
X10714504Y-9227007D01*
X10706446Y-9249529D01*
X10696218Y-9271153D01*
X10683921Y-9291670D01*
X10669671Y-9310883D01*
X10653607Y-9328607D01*
X10635883Y-9344671D01*
X10616670Y-9358921D01*
X10596153Y-9371218D01*
X10574529Y-9381446D01*
X10552007Y-9389504D01*
X10528803Y-9395316D01*
X10505142Y-9398826D01*
X10481250Y-9400000D01*
X9918750Y-9400000D01*
X9894858Y-9398826D01*
X9871197Y-9395316D01*
X9847993Y-9389504D01*
X9825471Y-9381446D01*
X9803847Y-9371218D01*
X9783330Y-9358921D01*
X9764117Y-9344671D01*
X9746393Y-9328607D01*
X9730329Y-9310883D01*
X9716079Y-9291670D01*
X9703782Y-9271153D01*
X9693554Y-9249529D01*
X9685496Y-9227007D01*
X9679684Y-9203803D01*
X9676174Y-9180142D01*
X9675000Y-9156250D01*
X9675000Y-8668750D01*
X9676174Y-8644858D01*
X9679684Y-8621197D01*
X9685496Y-8597993D01*
X9693554Y-8575471D01*
X9703782Y-8553847D01*
X9716079Y-8533330D01*
X9730329Y-8514117D01*
X9746393Y-8496393D01*
X9764117Y-8480329D01*
X9783330Y-8466079D01*
X9803847Y-8453782D01*
X9825471Y-8443554D01*
X9847993Y-8435496D01*
X9871197Y-8429684D01*
X9894858Y-8426174D01*
X9918750Y-8425000D01*
X10481250Y-8425000D01*
X10505142Y-8426174D01*
X10505142Y-8426174D01*
G37*
D14*
X10200000Y-8912500D03*
G04 #@! TD*
D19*
G04 #@! TO.C,U1*
X8660000Y-8750000D03*
X8660000Y-9700000D03*
X8660000Y-10650000D03*
X6340000Y-10650000D03*
X6340000Y-9700000D03*
X6340000Y-8750000D03*
G04 #@! TD*
D20*
G04 #@! TO.C,U2*
X6550000Y-4800000D03*
X8450000Y-4800000D03*
X7500000Y-6800000D03*
G04 #@! TD*
D21*
G04 #@! TO.C,U3*
X9750000Y-21550000D03*
X9250000Y-21550000D03*
X8750000Y-21550000D03*
X8250000Y-21550000D03*
X7750000Y-21550000D03*
X7250000Y-21550000D03*
X6750000Y-21550000D03*
X6250000Y-21550000D03*
X5750000Y-21550000D03*
X5250000Y-21550000D03*
X4750000Y-21550000D03*
X4250000Y-21550000D03*
D22*
X2650000Y-19950000D03*
X2650000Y-19450000D03*
X2650000Y-18950000D03*
X2650000Y-18450000D03*
X2650000Y-17950000D03*
X2650000Y-17450000D03*
X2650000Y-16950000D03*
X2650000Y-16450000D03*
X2650000Y-15950000D03*
X2650000Y-15450000D03*
X2650000Y-14950000D03*
X2650000Y-14450000D03*
D21*
X4250000Y-12850000D03*
X4750000Y-12850000D03*
X5250000Y-12850000D03*
X5750000Y-12850000D03*
X6250000Y-12850000D03*
X6750000Y-12850000D03*
X7250000Y-12850000D03*
X7750000Y-12850000D03*
X8250000Y-12850000D03*
X8750000Y-12850000D03*
X9250000Y-12850000D03*
X9750000Y-12850000D03*
D22*
X11350000Y-14450000D03*
X11350000Y-14950000D03*
X11350000Y-15450000D03*
X11350000Y-15950000D03*
X11350000Y-16450000D03*
X11350000Y-16950000D03*
X11350000Y-17450000D03*
X11350000Y-17950000D03*
X11350000Y-18450000D03*
X11350000Y-18950000D03*
X11350000Y-19450000D03*
X11350000Y-19950000D03*
G04 #@! TD*
D23*
G04 #@! TO.C,Y1*
X9350000Y-24800000D03*
X5650000Y-24800000D03*
G04 #@! TD*
D12*
G04 #@! TO.C,C11*
G36*
X11680142Y-23076174D02*
X11703803Y-23079684D01*
X11727007Y-23085496D01*
X11749529Y-23093554D01*
X11771153Y-23103782D01*
X11791670Y-23116079D01*
X11810883Y-23130329D01*
X11828607Y-23146393D01*
X11844671Y-23164117D01*
X11858921Y-23183330D01*
X11871218Y-23203847D01*
X11881446Y-23225471D01*
X11889504Y-23247993D01*
X11895316Y-23271197D01*
X11898826Y-23294858D01*
X11900000Y-23318750D01*
X11900000Y-23881250D01*
X11898826Y-23905142D01*
X11895316Y-23928803D01*
X11889504Y-23952007D01*
X11881446Y-23974529D01*
X11871218Y-23996153D01*
X11858921Y-24016670D01*
X11844671Y-24035883D01*
X11828607Y-24053607D01*
X11810883Y-24069671D01*
X11791670Y-24083921D01*
X11771153Y-24096218D01*
X11749529Y-24106446D01*
X11727007Y-24114504D01*
X11703803Y-24120316D01*
X11680142Y-24123826D01*
X11656250Y-24125000D01*
X11168750Y-24125000D01*
X11144858Y-24123826D01*
X11121197Y-24120316D01*
X11097993Y-24114504D01*
X11075471Y-24106446D01*
X11053847Y-24096218D01*
X11033330Y-24083921D01*
X11014117Y-24069671D01*
X10996393Y-24053607D01*
X10980329Y-24035883D01*
X10966079Y-24016670D01*
X10953782Y-23996153D01*
X10943554Y-23974529D01*
X10935496Y-23952007D01*
X10929684Y-23928803D01*
X10926174Y-23905142D01*
X10925000Y-23881250D01*
X10925000Y-23318750D01*
X10926174Y-23294858D01*
X10929684Y-23271197D01*
X10935496Y-23247993D01*
X10943554Y-23225471D01*
X10953782Y-23203847D01*
X10966079Y-23183330D01*
X10980329Y-23164117D01*
X10996393Y-23146393D01*
X11014117Y-23130329D01*
X11033330Y-23116079D01*
X11053847Y-23103782D01*
X11075471Y-23093554D01*
X11097993Y-23085496D01*
X11121197Y-23079684D01*
X11144858Y-23076174D01*
X11168750Y-23075000D01*
X11656250Y-23075000D01*
X11680142Y-23076174D01*
X11680142Y-23076174D01*
G37*
D14*
X11412500Y-23600000D03*
D12*
G36*
X13255142Y-23076174D02*
X13278803Y-23079684D01*
X13302007Y-23085496D01*
X13324529Y-23093554D01*
X13346153Y-23103782D01*
X13366670Y-23116079D01*
X13385883Y-23130329D01*
X13403607Y-23146393D01*
X13419671Y-23164117D01*
X13433921Y-23183330D01*
X13446218Y-23203847D01*
X13456446Y-23225471D01*
X13464504Y-23247993D01*
X13470316Y-23271197D01*
X13473826Y-23294858D01*
X13475000Y-23318750D01*
X13475000Y-23881250D01*
X13473826Y-23905142D01*
X13470316Y-23928803D01*
X13464504Y-23952007D01*
X13456446Y-23974529D01*
X13446218Y-23996153D01*
X13433921Y-24016670D01*
X13419671Y-24035883D01*
X13403607Y-24053607D01*
X13385883Y-24069671D01*
X13366670Y-24083921D01*
X13346153Y-24096218D01*
X13324529Y-24106446D01*
X13302007Y-24114504D01*
X13278803Y-24120316D01*
X13255142Y-24123826D01*
X13231250Y-24125000D01*
X12743750Y-24125000D01*
X12719858Y-24123826D01*
X12696197Y-24120316D01*
X12672993Y-24114504D01*
X12650471Y-24106446D01*
X12628847Y-24096218D01*
X12608330Y-24083921D01*
X12589117Y-24069671D01*
X12571393Y-24053607D01*
X12555329Y-24035883D01*
X12541079Y-24016670D01*
X12528782Y-23996153D01*
X12518554Y-23974529D01*
X12510496Y-23952007D01*
X12504684Y-23928803D01*
X12501174Y-23905142D01*
X12500000Y-23881250D01*
X12500000Y-23318750D01*
X12501174Y-23294858D01*
X12504684Y-23271197D01*
X12510496Y-23247993D01*
X12518554Y-23225471D01*
X12528782Y-23203847D01*
X12541079Y-23183330D01*
X12555329Y-23164117D01*
X12571393Y-23146393D01*
X12589117Y-23130329D01*
X12608330Y-23116079D01*
X12628847Y-23103782D01*
X12650471Y-23093554D01*
X12672993Y-23085496D01*
X12696197Y-23079684D01*
X12719858Y-23076174D01*
X12743750Y-23075000D01*
X13231250Y-23075000D01*
X13255142Y-23076174D01*
X13255142Y-23076174D01*
G37*
D14*
X12987500Y-23600000D03*
G04 #@! TD*
M02*
