G04 #@! TF.GenerationSoftware,KiCad,Pcbnew,6.0.11+dfsg-1*
G04 #@! TF.CreationDate,2024-04-11T19:32:10+03:00*
G04 #@! TF.ProjectId,PocketAdmin,506f636b-6574-4416-946d-696e2e6b6963,1.3*
G04 #@! TF.SameCoordinates,PX7bfa480PY42c1d80*
G04 #@! TF.FileFunction,Soldermask,Bot*
G04 #@! TF.FilePolarity,Negative*
%FSLAX46Y46*%
G04 Gerber Fmt 4.6, Leading zero omitted, Abs format (unit mm)*
G04 Created by KiCad (PCBNEW 6.0.11+dfsg-1) date 2024-04-11 19:32:10*
%MOMM*%
%LPD*%
G01*
G04 APERTURE LIST*
G04 Aperture macros list*
%AMRoundRect*
0 Rectangle with rounded corners*
0 $1 Rounding radius*
0 $2 $3 $4 $5 $6 $7 $8 $9 X,Y pos of 4 corners*
0 Add a 4 corners polygon primitive as box body*
4,1,4,$2,$3,$4,$5,$6,$7,$8,$9,$2,$3,0*
0 Add four circle primitives for the rounded corners*
1,1,$1+$1,$2,$3*
1,1,$1+$1,$4,$5*
1,1,$1+$1,$6,$7*
1,1,$1+$1,$8,$9*
0 Add four rect primitives between the rounded corners*
20,1,$1+$1,$2,$3,$4,$5,0*
20,1,$1+$1,$4,$5,$6,$7,0*
20,1,$1+$1,$6,$7,$8,$9,0*
20,1,$1+$1,$8,$9,$2,$3,0*%
G04 Aperture macros list end*
%ADD10C,1.200000*%
%ADD11O,2.000000X3.600000*%
%ADD12RoundRect,0.050000X-0.850000X0.850000X-0.850000X-0.850000X0.850000X-0.850000X0.850000X0.850000X0*%
%ADD13O,1.800000X1.800000*%
%ADD14RoundRect,0.268750X-0.256250X0.218750X-0.256250X-0.218750X0.256250X-0.218750X0.256250X0.218750X0*%
%ADD15RoundRect,0.050000X0.350000X0.255000X-0.350000X0.255000X-0.350000X-0.255000X0.350000X-0.255000X0*%
%ADD16RoundRect,0.050000X-0.400000X0.450000X-0.400000X-0.450000X0.400000X-0.450000X0.400000X0.450000X0*%
%ADD17RoundRect,0.268750X0.218750X0.256250X-0.218750X0.256250X-0.218750X-0.256250X0.218750X-0.256250X0*%
%ADD18RoundRect,0.050000X1.000000X1.200000X-1.000000X1.200000X-1.000000X-1.200000X1.000000X-1.200000X0*%
%ADD19RoundRect,0.293750X-0.456250X0.243750X-0.456250X-0.243750X0.456250X-0.243750X0.456250X0.243750X0*%
%ADD20RoundRect,0.293750X0.456250X-0.243750X0.456250X0.243750X-0.456250X0.243750X-0.456250X-0.243750X0*%
%ADD21RoundRect,0.268750X-0.218750X-0.256250X0.218750X-0.256250X0.218750X0.256250X-0.218750X0.256250X0*%
%ADD22RoundRect,0.050000X0.125000X-0.650000X0.125000X0.650000X-0.125000X0.650000X-0.125000X-0.650000X0*%
%ADD23RoundRect,0.050000X-0.650000X-0.125000X0.650000X-0.125000X0.650000X0.125000X-0.650000X0.125000X0*%
G04 APERTURE END LIST*
D10*
X5200000Y-3100000D03*
X9800000Y-3100000D03*
D11*
X13200000Y-3100000D03*
X1800000Y-3100000D03*
D12*
X12600000Y-29100000D03*
D13*
X10060000Y-29100000D03*
X7520000Y-29100000D03*
X4980000Y-29100000D03*
X2440000Y-29100000D03*
D14*
X12000000Y-11212500D03*
X12000000Y-12787500D03*
D15*
X8660000Y-8750000D03*
X8660000Y-9700000D03*
X8660000Y-10650000D03*
X6340000Y-10650000D03*
X6340000Y-9700000D03*
X6340000Y-8750000D03*
D16*
X6550000Y-4800000D03*
X8450000Y-4800000D03*
X7500000Y-6800000D03*
D14*
X2600000Y-11112500D03*
X2600000Y-12687500D03*
X4800000Y-8912500D03*
X4800000Y-10487500D03*
X10200000Y-8912500D03*
X10200000Y-10487500D03*
D17*
X3587500Y-26500000D03*
X2012500Y-26500000D03*
D18*
X9350000Y-25600000D03*
X5650000Y-25600000D03*
D19*
X10800000Y-4862500D03*
X10800000Y-6737500D03*
D20*
X4200000Y-6737500D03*
X4200000Y-4862500D03*
D17*
X12987500Y-22650000D03*
X11412500Y-22650000D03*
D21*
X11412500Y-26600000D03*
X12987500Y-26600000D03*
D19*
X2300000Y-22435000D03*
X2300000Y-24310000D03*
D21*
X11400000Y-24400000D03*
X12975000Y-24400000D03*
D22*
X9750000Y-21550000D03*
X9250000Y-21550000D03*
X8750000Y-21550000D03*
X8250000Y-21550000D03*
X7750000Y-21550000D03*
X7250000Y-21550000D03*
X6750000Y-21550000D03*
X6250000Y-21550000D03*
X5750000Y-21550000D03*
X5250000Y-21550000D03*
X4750000Y-21550000D03*
X4250000Y-21550000D03*
D23*
X2650000Y-19950000D03*
X2650000Y-19450000D03*
X2650000Y-18950000D03*
X2650000Y-18450000D03*
X2650000Y-17950000D03*
X2650000Y-17450000D03*
X2650000Y-16950000D03*
X2650000Y-16450000D03*
X2650000Y-15950000D03*
X2650000Y-15450000D03*
X2650000Y-14950000D03*
X2650000Y-14450000D03*
D22*
X4250000Y-12850000D03*
X4750000Y-12850000D03*
X5250000Y-12850000D03*
X5750000Y-12850000D03*
X6250000Y-12850000D03*
X6750000Y-12850000D03*
X7250000Y-12850000D03*
X7750000Y-12850000D03*
X8250000Y-12850000D03*
X8750000Y-12850000D03*
X9250000Y-12850000D03*
X9750000Y-12850000D03*
D23*
X11350000Y-14450000D03*
X11350000Y-14950000D03*
X11350000Y-15450000D03*
X11350000Y-15950000D03*
X11350000Y-16450000D03*
X11350000Y-16950000D03*
X11350000Y-17450000D03*
X11350000Y-17950000D03*
X11350000Y-18450000D03*
X11350000Y-18950000D03*
X11350000Y-19450000D03*
X11350000Y-19950000D03*
M02*
