G04 #@! TF.GenerationSoftware,KiCad,Pcbnew,5.0.2+dfsg1-1*
G04 #@! TF.CreationDate,2019-10-07T21:24:19+03:00*
G04 #@! TF.ProjectId,PocketAdmin,506f636b-6574-4416-946d-696e2e6b6963,1.3*
G04 #@! TF.SameCoordinates,PX7bfa480PY42c1d80*
G04 #@! TF.FileFunction,Legend,Top*
G04 #@! TF.FilePolarity,Positive*
%FSLAX46Y46*%
G04 Gerber Fmt 4.6, Leading zero omitted, Abs format (unit mm)*
G04 Created by KiCad (PCBNEW 5.0.2+dfsg1-1) date Mon 07 Oct 2019 09:24:19 PM MSK*
%MOMM*%
%LPD*%
G01*
G04 APERTURE LIST*
%ADD10C,0.150000*%
%ADD11C,0.120000*%
%ADD12C,0.100000*%
%ADD13C,0.975000*%
%ADD14R,1.800000X1.800000*%
%ADD15O,1.800000X1.800000*%
%ADD16R,1.200000X2.600000*%
%ADD17O,2.000000X3.600000*%
%ADD18C,1.200000*%
%ADD19R,1.800000X1.100000*%
%ADD20R,0.700000X1.100000*%
%ADD21R,4.100000X3.300000*%
G04 APERTURE END LIST*
D10*
X1961904Y-9661904D02*
X1428571Y-9661904D01*
X1580952Y-9661904D02*
X1504761Y-9623809D01*
X1466666Y-9585714D01*
X1428571Y-9509523D01*
X1428571Y-9433333D01*
X1923809Y-8861904D02*
X1961904Y-8938095D01*
X1961904Y-9090476D01*
X1923809Y-9166666D01*
X1847619Y-9204761D01*
X1542857Y-9204761D01*
X1466666Y-9166666D01*
X1428571Y-9090476D01*
X1428571Y-8938095D01*
X1466666Y-8861904D01*
X1542857Y-8823809D01*
X1619047Y-8823809D01*
X1695238Y-9204761D01*
X1428571Y-8557142D02*
X1961904Y-8366666D01*
X1428571Y-8176190D01*
X2038095Y-8061904D02*
X2038095Y-7452380D01*
X1961904Y-6842857D02*
X1961904Y-7300000D01*
X1961904Y-7071428D02*
X1161904Y-7071428D01*
X1276190Y-7147619D01*
X1352380Y-7223809D01*
X1390476Y-7300000D01*
X1885714Y-6500000D02*
X1923809Y-6461904D01*
X1961904Y-6500000D01*
X1923809Y-6538095D01*
X1885714Y-6500000D01*
X1961904Y-6500000D01*
X1161904Y-6195238D02*
X1161904Y-5700000D01*
X1466666Y-5966666D01*
X1466666Y-5852380D01*
X1504761Y-5776190D01*
X1542857Y-5738095D01*
X1619047Y-5700000D01*
X1809523Y-5700000D01*
X1885714Y-5738095D01*
X1923809Y-5776190D01*
X1961904Y-5852380D01*
X1961904Y-6080952D01*
X1923809Y-6157142D01*
X1885714Y-6195238D01*
D11*
G04 #@! TO.C,R3*
X12190000Y-24750279D02*
X12190000Y-24424721D01*
X13210000Y-24750279D02*
X13210000Y-24424721D01*
G04 #@! TO.C,CON1*
X1110000Y-27770000D02*
X1110000Y-30430000D01*
X11330000Y-27770000D02*
X1110000Y-27770000D01*
X11330000Y-30430000D02*
X1110000Y-30430000D01*
X11330000Y-27770000D02*
X11330000Y-30430000D01*
X12600000Y-27770000D02*
X13930000Y-27770000D01*
X13930000Y-27770000D02*
X13930000Y-29100000D01*
G04 #@! TO.C,J1*
X3100000Y-4220000D02*
X11900000Y-4220000D01*
X1355000Y-1050000D02*
X1355000Y0D01*
X13645000Y-1050000D02*
X13645000Y0D01*
G04 #@! TO.C,C9*
X8812779Y-21710000D02*
X8487221Y-21710000D01*
X8812779Y-20690000D02*
X8487221Y-20690000D01*
G04 #@! TO.C,SW1*
X5400000Y-27150000D02*
X5850000Y-27600000D01*
X8800000Y-27150000D02*
X8350000Y-27600000D01*
X8800000Y-22550000D02*
X8350000Y-22100000D01*
X5400000Y-22550000D02*
X5850000Y-22100000D01*
X9850000Y-23850000D02*
X9850000Y-25850000D01*
X5850000Y-27600000D02*
X8350000Y-27600000D01*
X4350000Y-23850000D02*
X4350000Y-25850000D01*
X5850000Y-22100000D02*
X8350000Y-22100000D01*
G04 #@! TO.C,C10*
X5550279Y-21710000D02*
X5224721Y-21710000D01*
X5550279Y-20690000D02*
X5224721Y-20690000D01*
G04 #@! TO.C,U4*
X10505000Y-10400000D02*
X4505000Y-10400000D01*
X4505000Y-10400000D02*
X4505000Y-18400000D01*
X4505000Y-18400000D02*
X10505000Y-18400000D01*
X10505000Y-18400000D02*
X10505000Y-10400000D01*
G04 #@! TO.C,D1*
X12435000Y-16700000D02*
X12435000Y-14415000D01*
X12435000Y-14415000D02*
X10965000Y-14415000D01*
X10965000Y-14415000D02*
X10965000Y-16700000D01*
G04 #@! TO.C,R4*
X11190000Y-12225279D02*
X11190000Y-11899721D01*
X12210000Y-12225279D02*
X12210000Y-11899721D01*
G04 #@! TO.C,C12*
X2110000Y-24424721D02*
X2110000Y-24750279D01*
X1090000Y-24424721D02*
X1090000Y-24750279D01*
G04 #@! TO.C,R3*
D10*
X12383333Y-27252380D02*
X12050000Y-26776190D01*
X11811904Y-27252380D02*
X11811904Y-26252380D01*
X12192857Y-26252380D01*
X12288095Y-26300000D01*
X12335714Y-26347619D01*
X12383333Y-26442857D01*
X12383333Y-26585714D01*
X12335714Y-26680952D01*
X12288095Y-26728571D01*
X12192857Y-26776190D01*
X11811904Y-26776190D01*
X12716666Y-26252380D02*
X13335714Y-26252380D01*
X13002380Y-26633333D01*
X13145238Y-26633333D01*
X13240476Y-26680952D01*
X13288095Y-26728571D01*
X13335714Y-26823809D01*
X13335714Y-27061904D01*
X13288095Y-27157142D01*
X13240476Y-27204761D01*
X13145238Y-27252380D01*
X12859523Y-27252380D01*
X12764285Y-27204761D01*
X12716666Y-27157142D01*
G04 #@! TO.C,J1*
X7166666Y-2452380D02*
X7166666Y-3166666D01*
X7119047Y-3309523D01*
X7023809Y-3404761D01*
X6880952Y-3452380D01*
X6785714Y-3452380D01*
X8166666Y-3452380D02*
X7595238Y-3452380D01*
X7880952Y-3452380D02*
X7880952Y-2452380D01*
X7785714Y-2595238D01*
X7690476Y-2690476D01*
X7595238Y-2738095D01*
G04 #@! TO.C,C9*
X8495833Y-20057142D02*
X8448214Y-20104761D01*
X8305357Y-20152380D01*
X8210119Y-20152380D01*
X8067261Y-20104761D01*
X7972023Y-20009523D01*
X7924404Y-19914285D01*
X7876785Y-19723809D01*
X7876785Y-19580952D01*
X7924404Y-19390476D01*
X7972023Y-19295238D01*
X8067261Y-19200000D01*
X8210119Y-19152380D01*
X8305357Y-19152380D01*
X8448214Y-19200000D01*
X8495833Y-19247619D01*
X8972023Y-20152380D02*
X9162500Y-20152380D01*
X9257738Y-20104761D01*
X9305357Y-20057142D01*
X9400595Y-19914285D01*
X9448214Y-19723809D01*
X9448214Y-19342857D01*
X9400595Y-19247619D01*
X9352976Y-19200000D01*
X9257738Y-19152380D01*
X9067261Y-19152380D01*
X8972023Y-19200000D01*
X8924404Y-19247619D01*
X8876785Y-19342857D01*
X8876785Y-19580952D01*
X8924404Y-19676190D01*
X8972023Y-19723809D01*
X9067261Y-19771428D01*
X9257738Y-19771428D01*
X9352976Y-19723809D01*
X9400595Y-19676190D01*
X9448214Y-19580952D01*
G04 #@! TO.C,SW1*
X5816666Y-25254761D02*
X5959523Y-25302380D01*
X6197619Y-25302380D01*
X6292857Y-25254761D01*
X6340476Y-25207142D01*
X6388095Y-25111904D01*
X6388095Y-25016666D01*
X6340476Y-24921428D01*
X6292857Y-24873809D01*
X6197619Y-24826190D01*
X6007142Y-24778571D01*
X5911904Y-24730952D01*
X5864285Y-24683333D01*
X5816666Y-24588095D01*
X5816666Y-24492857D01*
X5864285Y-24397619D01*
X5911904Y-24350000D01*
X6007142Y-24302380D01*
X6245238Y-24302380D01*
X6388095Y-24350000D01*
X6721428Y-24302380D02*
X6959523Y-25302380D01*
X7150000Y-24588095D01*
X7340476Y-25302380D01*
X7578571Y-24302380D01*
X8483333Y-25302380D02*
X7911904Y-25302380D01*
X8197619Y-25302380D02*
X8197619Y-24302380D01*
X8102380Y-24445238D01*
X8007142Y-24540476D01*
X7911904Y-24588095D01*
G04 #@! TO.C,C10*
X4757142Y-20057142D02*
X4709523Y-20104761D01*
X4566666Y-20152380D01*
X4471428Y-20152380D01*
X4328571Y-20104761D01*
X4233333Y-20009523D01*
X4185714Y-19914285D01*
X4138095Y-19723809D01*
X4138095Y-19580952D01*
X4185714Y-19390476D01*
X4233333Y-19295238D01*
X4328571Y-19200000D01*
X4471428Y-19152380D01*
X4566666Y-19152380D01*
X4709523Y-19200000D01*
X4757142Y-19247619D01*
X5709523Y-20152380D02*
X5138095Y-20152380D01*
X5423809Y-20152380D02*
X5423809Y-19152380D01*
X5328571Y-19295238D01*
X5233333Y-19390476D01*
X5138095Y-19438095D01*
X6328571Y-19152380D02*
X6423809Y-19152380D01*
X6519047Y-19200000D01*
X6566666Y-19247619D01*
X6614285Y-19342857D01*
X6661904Y-19533333D01*
X6661904Y-19771428D01*
X6614285Y-19961904D01*
X6566666Y-20057142D01*
X6519047Y-20104761D01*
X6423809Y-20152380D01*
X6328571Y-20152380D01*
X6233333Y-20104761D01*
X6185714Y-20057142D01*
X6138095Y-19961904D01*
X6090476Y-19771428D01*
X6090476Y-19533333D01*
X6138095Y-19342857D01*
X6185714Y-19247619D01*
X6233333Y-19200000D01*
X6328571Y-19152380D01*
G04 #@! TO.C,U4*
X3052380Y-15911904D02*
X3861904Y-15911904D01*
X3957142Y-15864285D01*
X4004761Y-15816666D01*
X4052380Y-15721428D01*
X4052380Y-15530952D01*
X4004761Y-15435714D01*
X3957142Y-15388095D01*
X3861904Y-15340476D01*
X3052380Y-15340476D01*
X3385714Y-14435714D02*
X4052380Y-14435714D01*
X3004761Y-14673809D02*
X3719047Y-14911904D01*
X3719047Y-14292857D01*
G04 #@! TO.C,D1*
X13802380Y-16238095D02*
X12802380Y-16238095D01*
X12802380Y-16000000D01*
X12850000Y-15857142D01*
X12945238Y-15761904D01*
X13040476Y-15714285D01*
X13230952Y-15666666D01*
X13373809Y-15666666D01*
X13564285Y-15714285D01*
X13659523Y-15761904D01*
X13754761Y-15857142D01*
X13802380Y-16000000D01*
X13802380Y-16238095D01*
X13802380Y-14714285D02*
X13802380Y-15285714D01*
X13802380Y-15000000D02*
X12802380Y-15000000D01*
X12945238Y-15095238D01*
X13040476Y-15190476D01*
X13088095Y-15285714D01*
G04 #@! TO.C,R4*
X13802380Y-12216666D02*
X13326190Y-12550000D01*
X13802380Y-12788095D02*
X12802380Y-12788095D01*
X12802380Y-12407142D01*
X12850000Y-12311904D01*
X12897619Y-12264285D01*
X12992857Y-12216666D01*
X13135714Y-12216666D01*
X13230952Y-12264285D01*
X13278571Y-12311904D01*
X13326190Y-12407142D01*
X13326190Y-12788095D01*
X13135714Y-11359523D02*
X13802380Y-11359523D01*
X12754761Y-11597619D02*
X13469047Y-11835714D01*
X13469047Y-11216666D01*
G04 #@! TO.C,C12*
X932142Y-27157142D02*
X884523Y-27204761D01*
X741666Y-27252380D01*
X646428Y-27252380D01*
X503571Y-27204761D01*
X408333Y-27109523D01*
X360714Y-27014285D01*
X313095Y-26823809D01*
X313095Y-26680952D01*
X360714Y-26490476D01*
X408333Y-26395238D01*
X503571Y-26300000D01*
X646428Y-26252380D01*
X741666Y-26252380D01*
X884523Y-26300000D01*
X932142Y-26347619D01*
X1884523Y-27252380D02*
X1313095Y-27252380D01*
X1598809Y-27252380D02*
X1598809Y-26252380D01*
X1503571Y-26395238D01*
X1408333Y-26490476D01*
X1313095Y-26538095D01*
X2265476Y-26347619D02*
X2313095Y-26300000D01*
X2408333Y-26252380D01*
X2646428Y-26252380D01*
X2741666Y-26300000D01*
X2789285Y-26347619D01*
X2836904Y-26442857D01*
X2836904Y-26538095D01*
X2789285Y-26680952D01*
X2217857Y-27252380D01*
X2836904Y-27252380D01*
G04 #@! TD*
%LPC*%
D12*
G04 #@! TO.C,R3*
G36*
X13005142Y-24888674D02*
X13028803Y-24892184D01*
X13052007Y-24897996D01*
X13074529Y-24906054D01*
X13096153Y-24916282D01*
X13116670Y-24928579D01*
X13135883Y-24942829D01*
X13153607Y-24958893D01*
X13169671Y-24976617D01*
X13183921Y-24995830D01*
X13196218Y-25016347D01*
X13206446Y-25037971D01*
X13214504Y-25060493D01*
X13220316Y-25083697D01*
X13223826Y-25107358D01*
X13225000Y-25131250D01*
X13225000Y-25618750D01*
X13223826Y-25642642D01*
X13220316Y-25666303D01*
X13214504Y-25689507D01*
X13206446Y-25712029D01*
X13196218Y-25733653D01*
X13183921Y-25754170D01*
X13169671Y-25773383D01*
X13153607Y-25791107D01*
X13135883Y-25807171D01*
X13116670Y-25821421D01*
X13096153Y-25833718D01*
X13074529Y-25843946D01*
X13052007Y-25852004D01*
X13028803Y-25857816D01*
X13005142Y-25861326D01*
X12981250Y-25862500D01*
X12418750Y-25862500D01*
X12394858Y-25861326D01*
X12371197Y-25857816D01*
X12347993Y-25852004D01*
X12325471Y-25843946D01*
X12303847Y-25833718D01*
X12283330Y-25821421D01*
X12264117Y-25807171D01*
X12246393Y-25791107D01*
X12230329Y-25773383D01*
X12216079Y-25754170D01*
X12203782Y-25733653D01*
X12193554Y-25712029D01*
X12185496Y-25689507D01*
X12179684Y-25666303D01*
X12176174Y-25642642D01*
X12175000Y-25618750D01*
X12175000Y-25131250D01*
X12176174Y-25107358D01*
X12179684Y-25083697D01*
X12185496Y-25060493D01*
X12193554Y-25037971D01*
X12203782Y-25016347D01*
X12216079Y-24995830D01*
X12230329Y-24976617D01*
X12246393Y-24958893D01*
X12264117Y-24942829D01*
X12283330Y-24928579D01*
X12303847Y-24916282D01*
X12325471Y-24906054D01*
X12347993Y-24897996D01*
X12371197Y-24892184D01*
X12394858Y-24888674D01*
X12418750Y-24887500D01*
X12981250Y-24887500D01*
X13005142Y-24888674D01*
X13005142Y-24888674D01*
G37*
D13*
X12700000Y-25375000D03*
D12*
G36*
X13005142Y-23313674D02*
X13028803Y-23317184D01*
X13052007Y-23322996D01*
X13074529Y-23331054D01*
X13096153Y-23341282D01*
X13116670Y-23353579D01*
X13135883Y-23367829D01*
X13153607Y-23383893D01*
X13169671Y-23401617D01*
X13183921Y-23420830D01*
X13196218Y-23441347D01*
X13206446Y-23462971D01*
X13214504Y-23485493D01*
X13220316Y-23508697D01*
X13223826Y-23532358D01*
X13225000Y-23556250D01*
X13225000Y-24043750D01*
X13223826Y-24067642D01*
X13220316Y-24091303D01*
X13214504Y-24114507D01*
X13206446Y-24137029D01*
X13196218Y-24158653D01*
X13183921Y-24179170D01*
X13169671Y-24198383D01*
X13153607Y-24216107D01*
X13135883Y-24232171D01*
X13116670Y-24246421D01*
X13096153Y-24258718D01*
X13074529Y-24268946D01*
X13052007Y-24277004D01*
X13028803Y-24282816D01*
X13005142Y-24286326D01*
X12981250Y-24287500D01*
X12418750Y-24287500D01*
X12394858Y-24286326D01*
X12371197Y-24282816D01*
X12347993Y-24277004D01*
X12325471Y-24268946D01*
X12303847Y-24258718D01*
X12283330Y-24246421D01*
X12264117Y-24232171D01*
X12246393Y-24216107D01*
X12230329Y-24198383D01*
X12216079Y-24179170D01*
X12203782Y-24158653D01*
X12193554Y-24137029D01*
X12185496Y-24114507D01*
X12179684Y-24091303D01*
X12176174Y-24067642D01*
X12175000Y-24043750D01*
X12175000Y-23556250D01*
X12176174Y-23532358D01*
X12179684Y-23508697D01*
X12185496Y-23485493D01*
X12193554Y-23462971D01*
X12203782Y-23441347D01*
X12216079Y-23420830D01*
X12230329Y-23401617D01*
X12246393Y-23383893D01*
X12264117Y-23367829D01*
X12283330Y-23353579D01*
X12303847Y-23341282D01*
X12325471Y-23331054D01*
X12347993Y-23322996D01*
X12371197Y-23317184D01*
X12394858Y-23313674D01*
X12418750Y-23312500D01*
X12981250Y-23312500D01*
X13005142Y-23313674D01*
X13005142Y-23313674D01*
G37*
D13*
X12700000Y-23800000D03*
G04 #@! TD*
D14*
G04 #@! TO.C,CON1*
X12600000Y-29100000D03*
D15*
X10060000Y-29100000D03*
X7520000Y-29100000D03*
X4980000Y-29100000D03*
X2440000Y-29100000D03*
G04 #@! TD*
D16*
G04 #@! TO.C,J1*
X6500000Y-5850000D03*
X8500000Y-5850000D03*
X4000000Y-5850000D03*
X11000000Y-5850000D03*
D17*
X1800000Y-3100000D03*
X13200000Y-3100000D03*
D18*
X5200000Y-3100000D03*
X9800000Y-3100000D03*
G04 #@! TD*
D12*
G04 #@! TO.C,C9*
G36*
X9705142Y-20676174D02*
X9728803Y-20679684D01*
X9752007Y-20685496D01*
X9774529Y-20693554D01*
X9796153Y-20703782D01*
X9816670Y-20716079D01*
X9835883Y-20730329D01*
X9853607Y-20746393D01*
X9869671Y-20764117D01*
X9883921Y-20783330D01*
X9896218Y-20803847D01*
X9906446Y-20825471D01*
X9914504Y-20847993D01*
X9920316Y-20871197D01*
X9923826Y-20894858D01*
X9925000Y-20918750D01*
X9925000Y-21481250D01*
X9923826Y-21505142D01*
X9920316Y-21528803D01*
X9914504Y-21552007D01*
X9906446Y-21574529D01*
X9896218Y-21596153D01*
X9883921Y-21616670D01*
X9869671Y-21635883D01*
X9853607Y-21653607D01*
X9835883Y-21669671D01*
X9816670Y-21683921D01*
X9796153Y-21696218D01*
X9774529Y-21706446D01*
X9752007Y-21714504D01*
X9728803Y-21720316D01*
X9705142Y-21723826D01*
X9681250Y-21725000D01*
X9193750Y-21725000D01*
X9169858Y-21723826D01*
X9146197Y-21720316D01*
X9122993Y-21714504D01*
X9100471Y-21706446D01*
X9078847Y-21696218D01*
X9058330Y-21683921D01*
X9039117Y-21669671D01*
X9021393Y-21653607D01*
X9005329Y-21635883D01*
X8991079Y-21616670D01*
X8978782Y-21596153D01*
X8968554Y-21574529D01*
X8960496Y-21552007D01*
X8954684Y-21528803D01*
X8951174Y-21505142D01*
X8950000Y-21481250D01*
X8950000Y-20918750D01*
X8951174Y-20894858D01*
X8954684Y-20871197D01*
X8960496Y-20847993D01*
X8968554Y-20825471D01*
X8978782Y-20803847D01*
X8991079Y-20783330D01*
X9005329Y-20764117D01*
X9021393Y-20746393D01*
X9039117Y-20730329D01*
X9058330Y-20716079D01*
X9078847Y-20703782D01*
X9100471Y-20693554D01*
X9122993Y-20685496D01*
X9146197Y-20679684D01*
X9169858Y-20676174D01*
X9193750Y-20675000D01*
X9681250Y-20675000D01*
X9705142Y-20676174D01*
X9705142Y-20676174D01*
G37*
D13*
X9437500Y-21200000D03*
D12*
G36*
X8130142Y-20676174D02*
X8153803Y-20679684D01*
X8177007Y-20685496D01*
X8199529Y-20693554D01*
X8221153Y-20703782D01*
X8241670Y-20716079D01*
X8260883Y-20730329D01*
X8278607Y-20746393D01*
X8294671Y-20764117D01*
X8308921Y-20783330D01*
X8321218Y-20803847D01*
X8331446Y-20825471D01*
X8339504Y-20847993D01*
X8345316Y-20871197D01*
X8348826Y-20894858D01*
X8350000Y-20918750D01*
X8350000Y-21481250D01*
X8348826Y-21505142D01*
X8345316Y-21528803D01*
X8339504Y-21552007D01*
X8331446Y-21574529D01*
X8321218Y-21596153D01*
X8308921Y-21616670D01*
X8294671Y-21635883D01*
X8278607Y-21653607D01*
X8260883Y-21669671D01*
X8241670Y-21683921D01*
X8221153Y-21696218D01*
X8199529Y-21706446D01*
X8177007Y-21714504D01*
X8153803Y-21720316D01*
X8130142Y-21723826D01*
X8106250Y-21725000D01*
X7618750Y-21725000D01*
X7594858Y-21723826D01*
X7571197Y-21720316D01*
X7547993Y-21714504D01*
X7525471Y-21706446D01*
X7503847Y-21696218D01*
X7483330Y-21683921D01*
X7464117Y-21669671D01*
X7446393Y-21653607D01*
X7430329Y-21635883D01*
X7416079Y-21616670D01*
X7403782Y-21596153D01*
X7393554Y-21574529D01*
X7385496Y-21552007D01*
X7379684Y-21528803D01*
X7376174Y-21505142D01*
X7375000Y-21481250D01*
X7375000Y-20918750D01*
X7376174Y-20894858D01*
X7379684Y-20871197D01*
X7385496Y-20847993D01*
X7393554Y-20825471D01*
X7403782Y-20803847D01*
X7416079Y-20783330D01*
X7430329Y-20764117D01*
X7446393Y-20746393D01*
X7464117Y-20730329D01*
X7483330Y-20716079D01*
X7503847Y-20703782D01*
X7525471Y-20693554D01*
X7547993Y-20685496D01*
X7571197Y-20679684D01*
X7594858Y-20676174D01*
X7618750Y-20675000D01*
X8106250Y-20675000D01*
X8130142Y-20676174D01*
X8130142Y-20676174D01*
G37*
D13*
X7862500Y-21200000D03*
G04 #@! TD*
D19*
G04 #@! TO.C,SW1*
X3950000Y-22950000D03*
X10250000Y-22950000D03*
X3950000Y-26750000D03*
X10250000Y-26750000D03*
G04 #@! TD*
D12*
G04 #@! TO.C,C10*
G36*
X6442642Y-20676174D02*
X6466303Y-20679684D01*
X6489507Y-20685496D01*
X6512029Y-20693554D01*
X6533653Y-20703782D01*
X6554170Y-20716079D01*
X6573383Y-20730329D01*
X6591107Y-20746393D01*
X6607171Y-20764117D01*
X6621421Y-20783330D01*
X6633718Y-20803847D01*
X6643946Y-20825471D01*
X6652004Y-20847993D01*
X6657816Y-20871197D01*
X6661326Y-20894858D01*
X6662500Y-20918750D01*
X6662500Y-21481250D01*
X6661326Y-21505142D01*
X6657816Y-21528803D01*
X6652004Y-21552007D01*
X6643946Y-21574529D01*
X6633718Y-21596153D01*
X6621421Y-21616670D01*
X6607171Y-21635883D01*
X6591107Y-21653607D01*
X6573383Y-21669671D01*
X6554170Y-21683921D01*
X6533653Y-21696218D01*
X6512029Y-21706446D01*
X6489507Y-21714504D01*
X6466303Y-21720316D01*
X6442642Y-21723826D01*
X6418750Y-21725000D01*
X5931250Y-21725000D01*
X5907358Y-21723826D01*
X5883697Y-21720316D01*
X5860493Y-21714504D01*
X5837971Y-21706446D01*
X5816347Y-21696218D01*
X5795830Y-21683921D01*
X5776617Y-21669671D01*
X5758893Y-21653607D01*
X5742829Y-21635883D01*
X5728579Y-21616670D01*
X5716282Y-21596153D01*
X5706054Y-21574529D01*
X5697996Y-21552007D01*
X5692184Y-21528803D01*
X5688674Y-21505142D01*
X5687500Y-21481250D01*
X5687500Y-20918750D01*
X5688674Y-20894858D01*
X5692184Y-20871197D01*
X5697996Y-20847993D01*
X5706054Y-20825471D01*
X5716282Y-20803847D01*
X5728579Y-20783330D01*
X5742829Y-20764117D01*
X5758893Y-20746393D01*
X5776617Y-20730329D01*
X5795830Y-20716079D01*
X5816347Y-20703782D01*
X5837971Y-20693554D01*
X5860493Y-20685496D01*
X5883697Y-20679684D01*
X5907358Y-20676174D01*
X5931250Y-20675000D01*
X6418750Y-20675000D01*
X6442642Y-20676174D01*
X6442642Y-20676174D01*
G37*
D13*
X6175000Y-21200000D03*
D12*
G36*
X4867642Y-20676174D02*
X4891303Y-20679684D01*
X4914507Y-20685496D01*
X4937029Y-20693554D01*
X4958653Y-20703782D01*
X4979170Y-20716079D01*
X4998383Y-20730329D01*
X5016107Y-20746393D01*
X5032171Y-20764117D01*
X5046421Y-20783330D01*
X5058718Y-20803847D01*
X5068946Y-20825471D01*
X5077004Y-20847993D01*
X5082816Y-20871197D01*
X5086326Y-20894858D01*
X5087500Y-20918750D01*
X5087500Y-21481250D01*
X5086326Y-21505142D01*
X5082816Y-21528803D01*
X5077004Y-21552007D01*
X5068946Y-21574529D01*
X5058718Y-21596153D01*
X5046421Y-21616670D01*
X5032171Y-21635883D01*
X5016107Y-21653607D01*
X4998383Y-21669671D01*
X4979170Y-21683921D01*
X4958653Y-21696218D01*
X4937029Y-21706446D01*
X4914507Y-21714504D01*
X4891303Y-21720316D01*
X4867642Y-21723826D01*
X4843750Y-21725000D01*
X4356250Y-21725000D01*
X4332358Y-21723826D01*
X4308697Y-21720316D01*
X4285493Y-21714504D01*
X4262971Y-21706446D01*
X4241347Y-21696218D01*
X4220830Y-21683921D01*
X4201617Y-21669671D01*
X4183893Y-21653607D01*
X4167829Y-21635883D01*
X4153579Y-21616670D01*
X4141282Y-21596153D01*
X4131054Y-21574529D01*
X4122996Y-21552007D01*
X4117184Y-21528803D01*
X4113674Y-21505142D01*
X4112500Y-21481250D01*
X4112500Y-20918750D01*
X4113674Y-20894858D01*
X4117184Y-20871197D01*
X4122996Y-20847993D01*
X4131054Y-20825471D01*
X4141282Y-20803847D01*
X4153579Y-20783330D01*
X4167829Y-20764117D01*
X4183893Y-20746393D01*
X4201617Y-20730329D01*
X4220830Y-20716079D01*
X4241347Y-20703782D01*
X4262971Y-20693554D01*
X4285493Y-20685496D01*
X4308697Y-20679684D01*
X4332358Y-20676174D01*
X4356250Y-20675000D01*
X4843750Y-20675000D01*
X4867642Y-20676174D01*
X4867642Y-20676174D01*
G37*
D13*
X4600000Y-21200000D03*
G04 #@! TD*
D20*
G04 #@! TO.C,U4*
X9405000Y-10650000D03*
X8135000Y-10650000D03*
X6865000Y-10650000D03*
X5595000Y-10650000D03*
X5595000Y-18150000D03*
X6865000Y-18150000D03*
X8135000Y-18150000D03*
X9405000Y-18150000D03*
D21*
X7500000Y-14400000D03*
G04 #@! TD*
D12*
G04 #@! TO.C,D1*
G36*
X12005142Y-14626174D02*
X12028803Y-14629684D01*
X12052007Y-14635496D01*
X12074529Y-14643554D01*
X12096153Y-14653782D01*
X12116670Y-14666079D01*
X12135883Y-14680329D01*
X12153607Y-14696393D01*
X12169671Y-14714117D01*
X12183921Y-14733330D01*
X12196218Y-14753847D01*
X12206446Y-14775471D01*
X12214504Y-14797993D01*
X12220316Y-14821197D01*
X12223826Y-14844858D01*
X12225000Y-14868750D01*
X12225000Y-15356250D01*
X12223826Y-15380142D01*
X12220316Y-15403803D01*
X12214504Y-15427007D01*
X12206446Y-15449529D01*
X12196218Y-15471153D01*
X12183921Y-15491670D01*
X12169671Y-15510883D01*
X12153607Y-15528607D01*
X12135883Y-15544671D01*
X12116670Y-15558921D01*
X12096153Y-15571218D01*
X12074529Y-15581446D01*
X12052007Y-15589504D01*
X12028803Y-15595316D01*
X12005142Y-15598826D01*
X11981250Y-15600000D01*
X11418750Y-15600000D01*
X11394858Y-15598826D01*
X11371197Y-15595316D01*
X11347993Y-15589504D01*
X11325471Y-15581446D01*
X11303847Y-15571218D01*
X11283330Y-15558921D01*
X11264117Y-15544671D01*
X11246393Y-15528607D01*
X11230329Y-15510883D01*
X11216079Y-15491670D01*
X11203782Y-15471153D01*
X11193554Y-15449529D01*
X11185496Y-15427007D01*
X11179684Y-15403803D01*
X11176174Y-15380142D01*
X11175000Y-15356250D01*
X11175000Y-14868750D01*
X11176174Y-14844858D01*
X11179684Y-14821197D01*
X11185496Y-14797993D01*
X11193554Y-14775471D01*
X11203782Y-14753847D01*
X11216079Y-14733330D01*
X11230329Y-14714117D01*
X11246393Y-14696393D01*
X11264117Y-14680329D01*
X11283330Y-14666079D01*
X11303847Y-14653782D01*
X11325471Y-14643554D01*
X11347993Y-14635496D01*
X11371197Y-14629684D01*
X11394858Y-14626174D01*
X11418750Y-14625000D01*
X11981250Y-14625000D01*
X12005142Y-14626174D01*
X12005142Y-14626174D01*
G37*
D13*
X11700000Y-15112500D03*
D12*
G36*
X12005142Y-16201174D02*
X12028803Y-16204684D01*
X12052007Y-16210496D01*
X12074529Y-16218554D01*
X12096153Y-16228782D01*
X12116670Y-16241079D01*
X12135883Y-16255329D01*
X12153607Y-16271393D01*
X12169671Y-16289117D01*
X12183921Y-16308330D01*
X12196218Y-16328847D01*
X12206446Y-16350471D01*
X12214504Y-16372993D01*
X12220316Y-16396197D01*
X12223826Y-16419858D01*
X12225000Y-16443750D01*
X12225000Y-16931250D01*
X12223826Y-16955142D01*
X12220316Y-16978803D01*
X12214504Y-17002007D01*
X12206446Y-17024529D01*
X12196218Y-17046153D01*
X12183921Y-17066670D01*
X12169671Y-17085883D01*
X12153607Y-17103607D01*
X12135883Y-17119671D01*
X12116670Y-17133921D01*
X12096153Y-17146218D01*
X12074529Y-17156446D01*
X12052007Y-17164504D01*
X12028803Y-17170316D01*
X12005142Y-17173826D01*
X11981250Y-17175000D01*
X11418750Y-17175000D01*
X11394858Y-17173826D01*
X11371197Y-17170316D01*
X11347993Y-17164504D01*
X11325471Y-17156446D01*
X11303847Y-17146218D01*
X11283330Y-17133921D01*
X11264117Y-17119671D01*
X11246393Y-17103607D01*
X11230329Y-17085883D01*
X11216079Y-17066670D01*
X11203782Y-17046153D01*
X11193554Y-17024529D01*
X11185496Y-17002007D01*
X11179684Y-16978803D01*
X11176174Y-16955142D01*
X11175000Y-16931250D01*
X11175000Y-16443750D01*
X11176174Y-16419858D01*
X11179684Y-16396197D01*
X11185496Y-16372993D01*
X11193554Y-16350471D01*
X11203782Y-16328847D01*
X11216079Y-16308330D01*
X11230329Y-16289117D01*
X11246393Y-16271393D01*
X11264117Y-16255329D01*
X11283330Y-16241079D01*
X11303847Y-16228782D01*
X11325471Y-16218554D01*
X11347993Y-16210496D01*
X11371197Y-16204684D01*
X11394858Y-16201174D01*
X11418750Y-16200000D01*
X11981250Y-16200000D01*
X12005142Y-16201174D01*
X12005142Y-16201174D01*
G37*
D13*
X11700000Y-16687500D03*
G04 #@! TD*
D12*
G04 #@! TO.C,R4*
G36*
X12005142Y-12363674D02*
X12028803Y-12367184D01*
X12052007Y-12372996D01*
X12074529Y-12381054D01*
X12096153Y-12391282D01*
X12116670Y-12403579D01*
X12135883Y-12417829D01*
X12153607Y-12433893D01*
X12169671Y-12451617D01*
X12183921Y-12470830D01*
X12196218Y-12491347D01*
X12206446Y-12512971D01*
X12214504Y-12535493D01*
X12220316Y-12558697D01*
X12223826Y-12582358D01*
X12225000Y-12606250D01*
X12225000Y-13093750D01*
X12223826Y-13117642D01*
X12220316Y-13141303D01*
X12214504Y-13164507D01*
X12206446Y-13187029D01*
X12196218Y-13208653D01*
X12183921Y-13229170D01*
X12169671Y-13248383D01*
X12153607Y-13266107D01*
X12135883Y-13282171D01*
X12116670Y-13296421D01*
X12096153Y-13308718D01*
X12074529Y-13318946D01*
X12052007Y-13327004D01*
X12028803Y-13332816D01*
X12005142Y-13336326D01*
X11981250Y-13337500D01*
X11418750Y-13337500D01*
X11394858Y-13336326D01*
X11371197Y-13332816D01*
X11347993Y-13327004D01*
X11325471Y-13318946D01*
X11303847Y-13308718D01*
X11283330Y-13296421D01*
X11264117Y-13282171D01*
X11246393Y-13266107D01*
X11230329Y-13248383D01*
X11216079Y-13229170D01*
X11203782Y-13208653D01*
X11193554Y-13187029D01*
X11185496Y-13164507D01*
X11179684Y-13141303D01*
X11176174Y-13117642D01*
X11175000Y-13093750D01*
X11175000Y-12606250D01*
X11176174Y-12582358D01*
X11179684Y-12558697D01*
X11185496Y-12535493D01*
X11193554Y-12512971D01*
X11203782Y-12491347D01*
X11216079Y-12470830D01*
X11230329Y-12451617D01*
X11246393Y-12433893D01*
X11264117Y-12417829D01*
X11283330Y-12403579D01*
X11303847Y-12391282D01*
X11325471Y-12381054D01*
X11347993Y-12372996D01*
X11371197Y-12367184D01*
X11394858Y-12363674D01*
X11418750Y-12362500D01*
X11981250Y-12362500D01*
X12005142Y-12363674D01*
X12005142Y-12363674D01*
G37*
D13*
X11700000Y-12850000D03*
D12*
G36*
X12005142Y-10788674D02*
X12028803Y-10792184D01*
X12052007Y-10797996D01*
X12074529Y-10806054D01*
X12096153Y-10816282D01*
X12116670Y-10828579D01*
X12135883Y-10842829D01*
X12153607Y-10858893D01*
X12169671Y-10876617D01*
X12183921Y-10895830D01*
X12196218Y-10916347D01*
X12206446Y-10937971D01*
X12214504Y-10960493D01*
X12220316Y-10983697D01*
X12223826Y-11007358D01*
X12225000Y-11031250D01*
X12225000Y-11518750D01*
X12223826Y-11542642D01*
X12220316Y-11566303D01*
X12214504Y-11589507D01*
X12206446Y-11612029D01*
X12196218Y-11633653D01*
X12183921Y-11654170D01*
X12169671Y-11673383D01*
X12153607Y-11691107D01*
X12135883Y-11707171D01*
X12116670Y-11721421D01*
X12096153Y-11733718D01*
X12074529Y-11743946D01*
X12052007Y-11752004D01*
X12028803Y-11757816D01*
X12005142Y-11761326D01*
X11981250Y-11762500D01*
X11418750Y-11762500D01*
X11394858Y-11761326D01*
X11371197Y-11757816D01*
X11347993Y-11752004D01*
X11325471Y-11743946D01*
X11303847Y-11733718D01*
X11283330Y-11721421D01*
X11264117Y-11707171D01*
X11246393Y-11691107D01*
X11230329Y-11673383D01*
X11216079Y-11654170D01*
X11203782Y-11633653D01*
X11193554Y-11612029D01*
X11185496Y-11589507D01*
X11179684Y-11566303D01*
X11176174Y-11542642D01*
X11175000Y-11518750D01*
X11175000Y-11031250D01*
X11176174Y-11007358D01*
X11179684Y-10983697D01*
X11185496Y-10960493D01*
X11193554Y-10937971D01*
X11203782Y-10916347D01*
X11216079Y-10895830D01*
X11230329Y-10876617D01*
X11246393Y-10858893D01*
X11264117Y-10842829D01*
X11283330Y-10828579D01*
X11303847Y-10816282D01*
X11325471Y-10806054D01*
X11347993Y-10797996D01*
X11371197Y-10792184D01*
X11394858Y-10788674D01*
X11418750Y-10787500D01*
X11981250Y-10787500D01*
X12005142Y-10788674D01*
X12005142Y-10788674D01*
G37*
D13*
X11700000Y-11275000D03*
G04 #@! TD*
D12*
G04 #@! TO.C,C12*
G36*
X1905142Y-23313674D02*
X1928803Y-23317184D01*
X1952007Y-23322996D01*
X1974529Y-23331054D01*
X1996153Y-23341282D01*
X2016670Y-23353579D01*
X2035883Y-23367829D01*
X2053607Y-23383893D01*
X2069671Y-23401617D01*
X2083921Y-23420830D01*
X2096218Y-23441347D01*
X2106446Y-23462971D01*
X2114504Y-23485493D01*
X2120316Y-23508697D01*
X2123826Y-23532358D01*
X2125000Y-23556250D01*
X2125000Y-24043750D01*
X2123826Y-24067642D01*
X2120316Y-24091303D01*
X2114504Y-24114507D01*
X2106446Y-24137029D01*
X2096218Y-24158653D01*
X2083921Y-24179170D01*
X2069671Y-24198383D01*
X2053607Y-24216107D01*
X2035883Y-24232171D01*
X2016670Y-24246421D01*
X1996153Y-24258718D01*
X1974529Y-24268946D01*
X1952007Y-24277004D01*
X1928803Y-24282816D01*
X1905142Y-24286326D01*
X1881250Y-24287500D01*
X1318750Y-24287500D01*
X1294858Y-24286326D01*
X1271197Y-24282816D01*
X1247993Y-24277004D01*
X1225471Y-24268946D01*
X1203847Y-24258718D01*
X1183330Y-24246421D01*
X1164117Y-24232171D01*
X1146393Y-24216107D01*
X1130329Y-24198383D01*
X1116079Y-24179170D01*
X1103782Y-24158653D01*
X1093554Y-24137029D01*
X1085496Y-24114507D01*
X1079684Y-24091303D01*
X1076174Y-24067642D01*
X1075000Y-24043750D01*
X1075000Y-23556250D01*
X1076174Y-23532358D01*
X1079684Y-23508697D01*
X1085496Y-23485493D01*
X1093554Y-23462971D01*
X1103782Y-23441347D01*
X1116079Y-23420830D01*
X1130329Y-23401617D01*
X1146393Y-23383893D01*
X1164117Y-23367829D01*
X1183330Y-23353579D01*
X1203847Y-23341282D01*
X1225471Y-23331054D01*
X1247993Y-23322996D01*
X1271197Y-23317184D01*
X1294858Y-23313674D01*
X1318750Y-23312500D01*
X1881250Y-23312500D01*
X1905142Y-23313674D01*
X1905142Y-23313674D01*
G37*
D13*
X1600000Y-23800000D03*
D12*
G36*
X1905142Y-24888674D02*
X1928803Y-24892184D01*
X1952007Y-24897996D01*
X1974529Y-24906054D01*
X1996153Y-24916282D01*
X2016670Y-24928579D01*
X2035883Y-24942829D01*
X2053607Y-24958893D01*
X2069671Y-24976617D01*
X2083921Y-24995830D01*
X2096218Y-25016347D01*
X2106446Y-25037971D01*
X2114504Y-25060493D01*
X2120316Y-25083697D01*
X2123826Y-25107358D01*
X2125000Y-25131250D01*
X2125000Y-25618750D01*
X2123826Y-25642642D01*
X2120316Y-25666303D01*
X2114504Y-25689507D01*
X2106446Y-25712029D01*
X2096218Y-25733653D01*
X2083921Y-25754170D01*
X2069671Y-25773383D01*
X2053607Y-25791107D01*
X2035883Y-25807171D01*
X2016670Y-25821421D01*
X1996153Y-25833718D01*
X1974529Y-25843946D01*
X1952007Y-25852004D01*
X1928803Y-25857816D01*
X1905142Y-25861326D01*
X1881250Y-25862500D01*
X1318750Y-25862500D01*
X1294858Y-25861326D01*
X1271197Y-25857816D01*
X1247993Y-25852004D01*
X1225471Y-25843946D01*
X1203847Y-25833718D01*
X1183330Y-25821421D01*
X1164117Y-25807171D01*
X1146393Y-25791107D01*
X1130329Y-25773383D01*
X1116079Y-25754170D01*
X1103782Y-25733653D01*
X1093554Y-25712029D01*
X1085496Y-25689507D01*
X1079684Y-25666303D01*
X1076174Y-25642642D01*
X1075000Y-25618750D01*
X1075000Y-25131250D01*
X1076174Y-25107358D01*
X1079684Y-25083697D01*
X1085496Y-25060493D01*
X1093554Y-25037971D01*
X1103782Y-25016347D01*
X1116079Y-24995830D01*
X1130329Y-24976617D01*
X1146393Y-24958893D01*
X1164117Y-24942829D01*
X1183330Y-24928579D01*
X1203847Y-24916282D01*
X1225471Y-24906054D01*
X1247993Y-24897996D01*
X1271197Y-24892184D01*
X1294858Y-24888674D01*
X1318750Y-24887500D01*
X1881250Y-24887500D01*
X1905142Y-24888674D01*
X1905142Y-24888674D01*
G37*
D13*
X1600000Y-25375000D03*
G04 #@! TD*
M02*
