G04 #@! TF.GenerationSoftware,KiCad,Pcbnew,6.0.11+dfsg-1*
G04 #@! TF.CreationDate,2024-04-15T01:17:26+03:00*
G04 #@! TF.ProjectId,PocketAdmin,506f636b-6574-4416-946d-696e2e6b6963,1.3*
G04 #@! TF.SameCoordinates,PX7bfa480PY42c1d80*
G04 #@! TF.FileFunction,Legend,Top*
G04 #@! TF.FilePolarity,Positive*
%FSLAX46Y46*%
G04 Gerber Fmt 4.6, Leading zero omitted, Abs format (unit mm)*
G04 Created by KiCad (PCBNEW 6.0.11+dfsg-1) date 2024-04-15 01:17:26*
%MOMM*%
%LPD*%
G01*
G04 APERTURE LIST*
G04 Aperture macros list*
%AMRoundRect*
0 Rectangle with rounded corners*
0 $1 Rounding radius*
0 $2 $3 $4 $5 $6 $7 $8 $9 X,Y pos of 4 corners*
0 Add a 4 corners polygon primitive as box body*
4,1,4,$2,$3,$4,$5,$6,$7,$8,$9,$2,$3,0*
0 Add four circle primitives for the rounded corners*
1,1,$1+$1,$2,$3*
1,1,$1+$1,$4,$5*
1,1,$1+$1,$6,$7*
1,1,$1+$1,$8,$9*
0 Add four rect primitives between the rounded corners*
20,1,$1+$1,$2,$3,$4,$5,0*
20,1,$1+$1,$4,$5,$6,$7,0*
20,1,$1+$1,$6,$7,$8,$9,0*
20,1,$1+$1,$8,$9,$2,$3,0*%
G04 Aperture macros list end*
%ADD10C,0.150000*%
%ADD11C,0.120000*%
%ADD12C,1.200000*%
%ADD13RoundRect,0.050000X0.550000X-1.250000X0.550000X1.250000X-0.550000X1.250000X-0.550000X-1.250000X0*%
%ADD14O,2.000000X3.600000*%
%ADD15RoundRect,0.050000X-0.850000X-0.500000X0.850000X-0.500000X0.850000X0.500000X-0.850000X0.500000X0*%
%ADD16RoundRect,0.268750X0.218750X0.256250X-0.218750X0.256250X-0.218750X-0.256250X0.218750X-0.256250X0*%
%ADD17RoundRect,0.050000X-0.850000X0.850000X-0.850000X-0.850000X0.850000X-0.850000X0.850000X0.850000X0*%
%ADD18O,1.800000X1.800000*%
%ADD19RoundRect,0.268750X0.256250X-0.218750X0.256250X0.218750X-0.256250X0.218750X-0.256250X-0.218750X0*%
%ADD20RoundRect,0.268750X-0.256250X0.218750X-0.256250X-0.218750X0.256250X-0.218750X0.256250X0.218750X0*%
%ADD21RoundRect,0.050000X-0.300000X0.500000X-0.300000X-0.500000X0.300000X-0.500000X0.300000X0.500000X0*%
%ADD22RoundRect,0.050000X-2.000000X1.600000X-2.000000X-1.600000X2.000000X-1.600000X2.000000X1.600000X0*%
G04 APERTURE END LIST*
D10*
X1961904Y-9661904D02*
X1428571Y-9661904D01*
X1580952Y-9661904D02*
X1504761Y-9623809D01*
X1466666Y-9585714D01*
X1428571Y-9509523D01*
X1428571Y-9433333D01*
X1923809Y-8861904D02*
X1961904Y-8938095D01*
X1961904Y-9090476D01*
X1923809Y-9166666D01*
X1847619Y-9204761D01*
X1542857Y-9204761D01*
X1466666Y-9166666D01*
X1428571Y-9090476D01*
X1428571Y-8938095D01*
X1466666Y-8861904D01*
X1542857Y-8823809D01*
X1619047Y-8823809D01*
X1695238Y-9204761D01*
X1428571Y-8557142D02*
X1961904Y-8366666D01*
X1428571Y-8176190D01*
X2038095Y-8061904D02*
X2038095Y-7452380D01*
X1961904Y-6842857D02*
X1961904Y-7300000D01*
X1961904Y-7071428D02*
X1161904Y-7071428D01*
X1276190Y-7147619D01*
X1352380Y-7223809D01*
X1390476Y-7300000D01*
X1885714Y-6500000D02*
X1923809Y-6461904D01*
X1961904Y-6500000D01*
X1923809Y-6538095D01*
X1885714Y-6500000D01*
X1961904Y-6500000D01*
X1161904Y-6195238D02*
X1161904Y-5700000D01*
X1466666Y-5966666D01*
X1466666Y-5852380D01*
X1504761Y-5776190D01*
X1542857Y-5738095D01*
X1619047Y-5700000D01*
X1809523Y-5700000D01*
X1885714Y-5738095D01*
X1923809Y-5776190D01*
X1961904Y-5852380D01*
X1961904Y-6080952D01*
X1923809Y-6157142D01*
X1885714Y-6195238D01*
X7166666Y-2452380D02*
X7166666Y-3166666D01*
X7119047Y-3309523D01*
X7023809Y-3404761D01*
X6880952Y-3452380D01*
X6785714Y-3452380D01*
X8166666Y-3452380D02*
X7595238Y-3452380D01*
X7880952Y-3452380D02*
X7880952Y-2452380D01*
X7785714Y-2595238D01*
X7690476Y-2690476D01*
X7595238Y-2738095D01*
X5816666Y-25254761D02*
X5959523Y-25302380D01*
X6197619Y-25302380D01*
X6292857Y-25254761D01*
X6340476Y-25207142D01*
X6388095Y-25111904D01*
X6388095Y-25016666D01*
X6340476Y-24921428D01*
X6292857Y-24873809D01*
X6197619Y-24826190D01*
X6007142Y-24778571D01*
X5911904Y-24730952D01*
X5864285Y-24683333D01*
X5816666Y-24588095D01*
X5816666Y-24492857D01*
X5864285Y-24397619D01*
X5911904Y-24350000D01*
X6007142Y-24302380D01*
X6245238Y-24302380D01*
X6388095Y-24350000D01*
X6721428Y-24302380D02*
X6959523Y-25302380D01*
X7150000Y-24588095D01*
X7340476Y-25302380D01*
X7578571Y-24302380D01*
X8483333Y-25302380D02*
X7911904Y-25302380D01*
X8197619Y-25302380D02*
X8197619Y-24302380D01*
X8102380Y-24445238D01*
X8007142Y-24540476D01*
X7911904Y-24588095D01*
X4757142Y-19957142D02*
X4709523Y-20004761D01*
X4566666Y-20052380D01*
X4471428Y-20052380D01*
X4328571Y-20004761D01*
X4233333Y-19909523D01*
X4185714Y-19814285D01*
X4138095Y-19623809D01*
X4138095Y-19480952D01*
X4185714Y-19290476D01*
X4233333Y-19195238D01*
X4328571Y-19100000D01*
X4471428Y-19052380D01*
X4566666Y-19052380D01*
X4709523Y-19100000D01*
X4757142Y-19147619D01*
X5709523Y-20052380D02*
X5138095Y-20052380D01*
X5423809Y-20052380D02*
X5423809Y-19052380D01*
X5328571Y-19195238D01*
X5233333Y-19290476D01*
X5138095Y-19338095D01*
X6328571Y-19052380D02*
X6423809Y-19052380D01*
X6519047Y-19100000D01*
X6566666Y-19147619D01*
X6614285Y-19242857D01*
X6661904Y-19433333D01*
X6661904Y-19671428D01*
X6614285Y-19861904D01*
X6566666Y-19957142D01*
X6519047Y-20004761D01*
X6423809Y-20052380D01*
X6328571Y-20052380D01*
X6233333Y-20004761D01*
X6185714Y-19957142D01*
X6138095Y-19861904D01*
X6090476Y-19671428D01*
X6090476Y-19433333D01*
X6138095Y-19242857D01*
X6185714Y-19147619D01*
X6233333Y-19100000D01*
X6328571Y-19052380D01*
X13802380Y-12216666D02*
X13326190Y-12550000D01*
X13802380Y-12788095D02*
X12802380Y-12788095D01*
X12802380Y-12407142D01*
X12850000Y-12311904D01*
X12897619Y-12264285D01*
X12992857Y-12216666D01*
X13135714Y-12216666D01*
X13230952Y-12264285D01*
X13278571Y-12311904D01*
X13326190Y-12407142D01*
X13326190Y-12788095D01*
X13135714Y-11359523D02*
X13802380Y-11359523D01*
X12754761Y-11597619D02*
X13469047Y-11835714D01*
X13469047Y-11216666D01*
X13802380Y-16238095D02*
X12802380Y-16238095D01*
X12802380Y-16000000D01*
X12850000Y-15857142D01*
X12945238Y-15761904D01*
X13040476Y-15714285D01*
X13230952Y-15666666D01*
X13373809Y-15666666D01*
X13564285Y-15714285D01*
X13659523Y-15761904D01*
X13754761Y-15857142D01*
X13802380Y-16000000D01*
X13802380Y-16238095D01*
X13802380Y-14714285D02*
X13802380Y-15285714D01*
X13802380Y-15000000D02*
X12802380Y-15000000D01*
X12945238Y-15095238D01*
X13040476Y-15190476D01*
X13088095Y-15285714D01*
X8495833Y-19957142D02*
X8448214Y-20004761D01*
X8305357Y-20052380D01*
X8210119Y-20052380D01*
X8067261Y-20004761D01*
X7972023Y-19909523D01*
X7924404Y-19814285D01*
X7876785Y-19623809D01*
X7876785Y-19480952D01*
X7924404Y-19290476D01*
X7972023Y-19195238D01*
X8067261Y-19100000D01*
X8210119Y-19052380D01*
X8305357Y-19052380D01*
X8448214Y-19100000D01*
X8495833Y-19147619D01*
X8972023Y-20052380D02*
X9162500Y-20052380D01*
X9257738Y-20004761D01*
X9305357Y-19957142D01*
X9400595Y-19814285D01*
X9448214Y-19623809D01*
X9448214Y-19242857D01*
X9400595Y-19147619D01*
X9352976Y-19100000D01*
X9257738Y-19052380D01*
X9067261Y-19052380D01*
X8972023Y-19100000D01*
X8924404Y-19147619D01*
X8876785Y-19242857D01*
X8876785Y-19480952D01*
X8924404Y-19576190D01*
X8972023Y-19623809D01*
X9067261Y-19671428D01*
X9257738Y-19671428D01*
X9352976Y-19623809D01*
X9400595Y-19576190D01*
X9448214Y-19480952D01*
X932142Y-27157142D02*
X884523Y-27204761D01*
X741666Y-27252380D01*
X646428Y-27252380D01*
X503571Y-27204761D01*
X408333Y-27109523D01*
X360714Y-27014285D01*
X313095Y-26823809D01*
X313095Y-26680952D01*
X360714Y-26490476D01*
X408333Y-26395238D01*
X503571Y-26300000D01*
X646428Y-26252380D01*
X741666Y-26252380D01*
X884523Y-26300000D01*
X932142Y-26347619D01*
X1884523Y-27252380D02*
X1313095Y-27252380D01*
X1598809Y-27252380D02*
X1598809Y-26252380D01*
X1503571Y-26395238D01*
X1408333Y-26490476D01*
X1313095Y-26538095D01*
X2265476Y-26347619D02*
X2313095Y-26300000D01*
X2408333Y-26252380D01*
X2646428Y-26252380D01*
X2741666Y-26300000D01*
X2789285Y-26347619D01*
X2836904Y-26442857D01*
X2836904Y-26538095D01*
X2789285Y-26680952D01*
X2217857Y-27252380D01*
X2836904Y-27252380D01*
X12383333Y-27252380D02*
X12050000Y-26776190D01*
X11811904Y-27252380D02*
X11811904Y-26252380D01*
X12192857Y-26252380D01*
X12288095Y-26300000D01*
X12335714Y-26347619D01*
X12383333Y-26442857D01*
X12383333Y-26585714D01*
X12335714Y-26680952D01*
X12288095Y-26728571D01*
X12192857Y-26776190D01*
X11811904Y-26776190D01*
X12716666Y-26252380D02*
X13335714Y-26252380D01*
X13002380Y-26633333D01*
X13145238Y-26633333D01*
X13240476Y-26680952D01*
X13288095Y-26728571D01*
X13335714Y-26823809D01*
X13335714Y-27061904D01*
X13288095Y-27157142D01*
X13240476Y-27204761D01*
X13145238Y-27252380D01*
X12859523Y-27252380D01*
X12764285Y-27204761D01*
X12716666Y-27157142D01*
X3052380Y-15911904D02*
X3861904Y-15911904D01*
X3957142Y-15864285D01*
X4004761Y-15816666D01*
X4052380Y-15721428D01*
X4052380Y-15530952D01*
X4004761Y-15435714D01*
X3957142Y-15388095D01*
X3861904Y-15340476D01*
X3052380Y-15340476D01*
X3385714Y-14435714D02*
X4052380Y-14435714D01*
X3004761Y-14673809D02*
X3719047Y-14911904D01*
X3719047Y-14292857D01*
D11*
X3100000Y-4220000D02*
X11900000Y-4220000D01*
X13645000Y-1050000D02*
X13645000Y0D01*
X1355000Y-1050000D02*
X1355000Y0D01*
X5850000Y-22100000D02*
X8350000Y-22100000D01*
X9850000Y-23850000D02*
X9850000Y-25850000D01*
X8800000Y-22550000D02*
X8350000Y-22100000D01*
X5400000Y-22550000D02*
X5850000Y-22100000D01*
X5400000Y-27150000D02*
X5850000Y-27600000D01*
X5850000Y-27600000D02*
X8350000Y-27600000D01*
X8800000Y-27150000D02*
X8350000Y-27600000D01*
X4350000Y-23850000D02*
X4350000Y-25850000D01*
X5550279Y-20490000D02*
X5224721Y-20490000D01*
X5550279Y-21510000D02*
X5224721Y-21510000D01*
X11330000Y-27770000D02*
X11330000Y-30430000D01*
X1110000Y-27770000D02*
X1110000Y-30430000D01*
X13930000Y-27770000D02*
X13930000Y-29100000D01*
X11330000Y-27770000D02*
X1110000Y-27770000D01*
X11330000Y-30430000D02*
X1110000Y-30430000D01*
X12600000Y-27770000D02*
X13930000Y-27770000D01*
X12210000Y-12225279D02*
X12210000Y-11899721D01*
X11190000Y-12225279D02*
X11190000Y-11899721D01*
X12435000Y-16700000D02*
X12435000Y-14415000D01*
X12435000Y-14415000D02*
X10965000Y-14415000D01*
X10965000Y-14415000D02*
X10965000Y-16700000D01*
X8812779Y-20490000D02*
X8487221Y-20490000D01*
X8812779Y-21510000D02*
X8487221Y-21510000D01*
X2110000Y-24424721D02*
X2110000Y-24750279D01*
X1090000Y-24424721D02*
X1090000Y-24750279D01*
X12190000Y-24750279D02*
X12190000Y-24424721D01*
X13210000Y-24750279D02*
X13210000Y-24424721D01*
X9005000Y-10400000D02*
X8530000Y-10400000D01*
X10505000Y-10400000D02*
X9805000Y-10400000D01*
X9805000Y-18400000D02*
X10505000Y-18400000D01*
X10505000Y-18400000D02*
X10505000Y-10400000D01*
X7280000Y-18400000D02*
X7730000Y-18400000D01*
X6455000Y-10400000D02*
X6005000Y-10400000D01*
X4505000Y-18400000D02*
X5180000Y-18400000D01*
X5180000Y-10400000D02*
X4505000Y-10400000D01*
X8530000Y-18400000D02*
X9005000Y-18400000D01*
X7730000Y-10400000D02*
X7255000Y-10400000D01*
X4505000Y-10400000D02*
X4505000Y-18400000D01*
X6005000Y-18400000D02*
X6455000Y-18400000D01*
%LPC*%
D12*
X5200000Y-3100000D03*
X9800000Y-3100000D03*
D13*
X4000000Y-5850000D03*
X6500000Y-5850000D03*
X8500000Y-5850000D03*
X11000000Y-5850000D03*
D14*
X13200000Y-3100000D03*
X1800000Y-3100000D03*
D15*
X3950000Y-22950000D03*
X10250000Y-22950000D03*
X10250000Y-26750000D03*
X3950000Y-26750000D03*
D16*
X6175000Y-21000000D03*
X4600000Y-21000000D03*
D17*
X12600000Y-29100000D03*
D18*
X10060000Y-29100000D03*
X7520000Y-29100000D03*
X4980000Y-29100000D03*
X2440000Y-29100000D03*
D19*
X11700000Y-12850000D03*
X11700000Y-11275000D03*
D20*
X11700000Y-15112500D03*
X11700000Y-16687500D03*
D16*
X9437500Y-21000000D03*
X7862500Y-21000000D03*
D20*
X1600000Y-23800000D03*
X1600000Y-25375000D03*
D19*
X12700000Y-25375000D03*
X12700000Y-23800000D03*
D21*
X9405000Y-10650000D03*
X8135000Y-10650000D03*
X6865000Y-10650000D03*
X5595000Y-10650000D03*
X5595000Y-18150000D03*
X6865000Y-18150000D03*
X8135000Y-18150000D03*
X9405000Y-18150000D03*
D22*
X7500000Y-14400000D03*
M02*
