G04 #@! TF.GenerationSoftware,KiCad,Pcbnew,5.0.2+dfsg1-1*
G04 #@! TF.CreationDate,2019-07-08T19:17:17+03:00*
G04 #@! TF.ProjectId,PocketAdmin,506f636b-6574-4416-946d-696e2e6b6963,1.2*
G04 #@! TF.SameCoordinates,PX7bfa480PY42c1d80*
G04 #@! TF.FileFunction,Copper,L2,Bot*
G04 #@! TF.FilePolarity,Positive*
%FSLAX46Y46*%
G04 Gerber Fmt 4.6, Leading zero omitted, Abs format (unit mm)*
G04 Created by KiCad (PCBNEW 5.0.2+dfsg1-1) date Mon 08 Jul 2019 07:17:17 PM MSK*
%MOMM*%
%LPD*%
G01*
G04 APERTURE LIST*
G04 #@! TA.AperFunction,Conductor*
%ADD10C,0.100000*%
G04 #@! TD*
G04 #@! TA.AperFunction,SMDPad,CuDef*
%ADD11C,0.875000*%
G04 #@! TD*
G04 #@! TA.AperFunction,ComponentPad*
%ADD12R,1.700000X1.700000*%
G04 #@! TD*
G04 #@! TA.AperFunction,ComponentPad*
%ADD13O,1.700000X1.700000*%
G04 #@! TD*
G04 #@! TA.AperFunction,ComponentPad*
%ADD14O,1.900000X3.500000*%
G04 #@! TD*
G04 #@! TA.AperFunction,SMDPad,CuDef*
%ADD15R,0.700000X0.510000*%
G04 #@! TD*
G04 #@! TA.AperFunction,SMDPad,CuDef*
%ADD16R,0.800000X0.900000*%
G04 #@! TD*
G04 #@! TA.AperFunction,SMDPad,CuDef*
%ADD17R,0.250000X1.300000*%
G04 #@! TD*
G04 #@! TA.AperFunction,SMDPad,CuDef*
%ADD18R,1.300000X0.250000*%
G04 #@! TD*
G04 #@! TA.AperFunction,SMDPad,CuDef*
%ADD19R,2.000000X2.400000*%
G04 #@! TD*
G04 #@! TA.AperFunction,SMDPad,CuDef*
%ADD20C,0.975000*%
G04 #@! TD*
G04 #@! TA.AperFunction,ViaPad*
%ADD21C,0.600000*%
G04 #@! TD*
G04 #@! TA.AperFunction,Conductor*
%ADD22C,0.200000*%
G04 #@! TD*
G04 #@! TA.AperFunction,Conductor*
%ADD23C,0.190000*%
G04 #@! TD*
G04 APERTURE END LIST*
D10*
G04 #@! TO.N,GND*
G04 #@! TO.C,C3*
G36*
X12277691Y-10776053D02*
X12298926Y-10779203D01*
X12319750Y-10784419D01*
X12339962Y-10791651D01*
X12359368Y-10800830D01*
X12377781Y-10811866D01*
X12395024Y-10824654D01*
X12410930Y-10839070D01*
X12425346Y-10854976D01*
X12438134Y-10872219D01*
X12449170Y-10890632D01*
X12458349Y-10910038D01*
X12465581Y-10930250D01*
X12470797Y-10951074D01*
X12473947Y-10972309D01*
X12475000Y-10993750D01*
X12475000Y-11431250D01*
X12473947Y-11452691D01*
X12470797Y-11473926D01*
X12465581Y-11494750D01*
X12458349Y-11514962D01*
X12449170Y-11534368D01*
X12438134Y-11552781D01*
X12425346Y-11570024D01*
X12410930Y-11585930D01*
X12395024Y-11600346D01*
X12377781Y-11613134D01*
X12359368Y-11624170D01*
X12339962Y-11633349D01*
X12319750Y-11640581D01*
X12298926Y-11645797D01*
X12277691Y-11648947D01*
X12256250Y-11650000D01*
X11743750Y-11650000D01*
X11722309Y-11648947D01*
X11701074Y-11645797D01*
X11680250Y-11640581D01*
X11660038Y-11633349D01*
X11640632Y-11624170D01*
X11622219Y-11613134D01*
X11604976Y-11600346D01*
X11589070Y-11585930D01*
X11574654Y-11570024D01*
X11561866Y-11552781D01*
X11550830Y-11534368D01*
X11541651Y-11514962D01*
X11534419Y-11494750D01*
X11529203Y-11473926D01*
X11526053Y-11452691D01*
X11525000Y-11431250D01*
X11525000Y-10993750D01*
X11526053Y-10972309D01*
X11529203Y-10951074D01*
X11534419Y-10930250D01*
X11541651Y-10910038D01*
X11550830Y-10890632D01*
X11561866Y-10872219D01*
X11574654Y-10854976D01*
X11589070Y-10839070D01*
X11604976Y-10824654D01*
X11622219Y-10811866D01*
X11640632Y-10800830D01*
X11660038Y-10791651D01*
X11680250Y-10784419D01*
X11701074Y-10779203D01*
X11722309Y-10776053D01*
X11743750Y-10775000D01*
X12256250Y-10775000D01*
X12277691Y-10776053D01*
X12277691Y-10776053D01*
G37*
D11*
G04 #@! TD*
G04 #@! TO.P,C3,1*
G04 #@! TO.N,GND*
X12000000Y-11212500D03*
D10*
G04 #@! TO.N,3.3V*
G04 #@! TO.C,C3*
G36*
X12277691Y-12351053D02*
X12298926Y-12354203D01*
X12319750Y-12359419D01*
X12339962Y-12366651D01*
X12359368Y-12375830D01*
X12377781Y-12386866D01*
X12395024Y-12399654D01*
X12410930Y-12414070D01*
X12425346Y-12429976D01*
X12438134Y-12447219D01*
X12449170Y-12465632D01*
X12458349Y-12485038D01*
X12465581Y-12505250D01*
X12470797Y-12526074D01*
X12473947Y-12547309D01*
X12475000Y-12568750D01*
X12475000Y-13006250D01*
X12473947Y-13027691D01*
X12470797Y-13048926D01*
X12465581Y-13069750D01*
X12458349Y-13089962D01*
X12449170Y-13109368D01*
X12438134Y-13127781D01*
X12425346Y-13145024D01*
X12410930Y-13160930D01*
X12395024Y-13175346D01*
X12377781Y-13188134D01*
X12359368Y-13199170D01*
X12339962Y-13208349D01*
X12319750Y-13215581D01*
X12298926Y-13220797D01*
X12277691Y-13223947D01*
X12256250Y-13225000D01*
X11743750Y-13225000D01*
X11722309Y-13223947D01*
X11701074Y-13220797D01*
X11680250Y-13215581D01*
X11660038Y-13208349D01*
X11640632Y-13199170D01*
X11622219Y-13188134D01*
X11604976Y-13175346D01*
X11589070Y-13160930D01*
X11574654Y-13145024D01*
X11561866Y-13127781D01*
X11550830Y-13109368D01*
X11541651Y-13089962D01*
X11534419Y-13069750D01*
X11529203Y-13048926D01*
X11526053Y-13027691D01*
X11525000Y-13006250D01*
X11525000Y-12568750D01*
X11526053Y-12547309D01*
X11529203Y-12526074D01*
X11534419Y-12505250D01*
X11541651Y-12485038D01*
X11550830Y-12465632D01*
X11561866Y-12447219D01*
X11574654Y-12429976D01*
X11589070Y-12414070D01*
X11604976Y-12399654D01*
X11622219Y-12386866D01*
X11640632Y-12375830D01*
X11660038Y-12366651D01*
X11680250Y-12359419D01*
X11701074Y-12354203D01*
X11722309Y-12351053D01*
X11743750Y-12350000D01*
X12256250Y-12350000D01*
X12277691Y-12351053D01*
X12277691Y-12351053D01*
G37*
D11*
G04 #@! TD*
G04 #@! TO.P,C3,2*
G04 #@! TO.N,3.3V*
X12000000Y-12787500D03*
D10*
G04 #@! TO.N,GND*
G04 #@! TO.C,C4*
G36*
X13227691Y-25626053D02*
X13248926Y-25629203D01*
X13269750Y-25634419D01*
X13289962Y-25641651D01*
X13309368Y-25650830D01*
X13327781Y-25661866D01*
X13345024Y-25674654D01*
X13360930Y-25689070D01*
X13375346Y-25704976D01*
X13388134Y-25722219D01*
X13399170Y-25740632D01*
X13408349Y-25760038D01*
X13415581Y-25780250D01*
X13420797Y-25801074D01*
X13423947Y-25822309D01*
X13425000Y-25843750D01*
X13425000Y-26356250D01*
X13423947Y-26377691D01*
X13420797Y-26398926D01*
X13415581Y-26419750D01*
X13408349Y-26439962D01*
X13399170Y-26459368D01*
X13388134Y-26477781D01*
X13375346Y-26495024D01*
X13360930Y-26510930D01*
X13345024Y-26525346D01*
X13327781Y-26538134D01*
X13309368Y-26549170D01*
X13289962Y-26558349D01*
X13269750Y-26565581D01*
X13248926Y-26570797D01*
X13227691Y-26573947D01*
X13206250Y-26575000D01*
X12768750Y-26575000D01*
X12747309Y-26573947D01*
X12726074Y-26570797D01*
X12705250Y-26565581D01*
X12685038Y-26558349D01*
X12665632Y-26549170D01*
X12647219Y-26538134D01*
X12629976Y-26525346D01*
X12614070Y-26510930D01*
X12599654Y-26495024D01*
X12586866Y-26477781D01*
X12575830Y-26459368D01*
X12566651Y-26439962D01*
X12559419Y-26419750D01*
X12554203Y-26398926D01*
X12551053Y-26377691D01*
X12550000Y-26356250D01*
X12550000Y-25843750D01*
X12551053Y-25822309D01*
X12554203Y-25801074D01*
X12559419Y-25780250D01*
X12566651Y-25760038D01*
X12575830Y-25740632D01*
X12586866Y-25722219D01*
X12599654Y-25704976D01*
X12614070Y-25689070D01*
X12629976Y-25674654D01*
X12647219Y-25661866D01*
X12665632Y-25650830D01*
X12685038Y-25641651D01*
X12705250Y-25634419D01*
X12726074Y-25629203D01*
X12747309Y-25626053D01*
X12768750Y-25625000D01*
X13206250Y-25625000D01*
X13227691Y-25626053D01*
X13227691Y-25626053D01*
G37*
D11*
G04 #@! TD*
G04 #@! TO.P,C4,2*
G04 #@! TO.N,GND*
X12987500Y-26100000D03*
D10*
G04 #@! TO.N,Net-(C4-Pad1)*
G04 #@! TO.C,C4*
G36*
X11652691Y-25626053D02*
X11673926Y-25629203D01*
X11694750Y-25634419D01*
X11714962Y-25641651D01*
X11734368Y-25650830D01*
X11752781Y-25661866D01*
X11770024Y-25674654D01*
X11785930Y-25689070D01*
X11800346Y-25704976D01*
X11813134Y-25722219D01*
X11824170Y-25740632D01*
X11833349Y-25760038D01*
X11840581Y-25780250D01*
X11845797Y-25801074D01*
X11848947Y-25822309D01*
X11850000Y-25843750D01*
X11850000Y-26356250D01*
X11848947Y-26377691D01*
X11845797Y-26398926D01*
X11840581Y-26419750D01*
X11833349Y-26439962D01*
X11824170Y-26459368D01*
X11813134Y-26477781D01*
X11800346Y-26495024D01*
X11785930Y-26510930D01*
X11770024Y-26525346D01*
X11752781Y-26538134D01*
X11734368Y-26549170D01*
X11714962Y-26558349D01*
X11694750Y-26565581D01*
X11673926Y-26570797D01*
X11652691Y-26573947D01*
X11631250Y-26575000D01*
X11193750Y-26575000D01*
X11172309Y-26573947D01*
X11151074Y-26570797D01*
X11130250Y-26565581D01*
X11110038Y-26558349D01*
X11090632Y-26549170D01*
X11072219Y-26538134D01*
X11054976Y-26525346D01*
X11039070Y-26510930D01*
X11024654Y-26495024D01*
X11011866Y-26477781D01*
X11000830Y-26459368D01*
X10991651Y-26439962D01*
X10984419Y-26419750D01*
X10979203Y-26398926D01*
X10976053Y-26377691D01*
X10975000Y-26356250D01*
X10975000Y-25843750D01*
X10976053Y-25822309D01*
X10979203Y-25801074D01*
X10984419Y-25780250D01*
X10991651Y-25760038D01*
X11000830Y-25740632D01*
X11011866Y-25722219D01*
X11024654Y-25704976D01*
X11039070Y-25689070D01*
X11054976Y-25674654D01*
X11072219Y-25661866D01*
X11090632Y-25650830D01*
X11110038Y-25641651D01*
X11130250Y-25634419D01*
X11151074Y-25629203D01*
X11172309Y-25626053D01*
X11193750Y-25625000D01*
X11631250Y-25625000D01*
X11652691Y-25626053D01*
X11652691Y-25626053D01*
G37*
D11*
G04 #@! TD*
G04 #@! TO.P,C4,1*
G04 #@! TO.N,Net-(C4-Pad1)*
X11412500Y-26100000D03*
D10*
G04 #@! TO.N,Net-(C5-Pad1)*
G04 #@! TO.C,C5*
G36*
X3827691Y-25626053D02*
X3848926Y-25629203D01*
X3869750Y-25634419D01*
X3889962Y-25641651D01*
X3909368Y-25650830D01*
X3927781Y-25661866D01*
X3945024Y-25674654D01*
X3960930Y-25689070D01*
X3975346Y-25704976D01*
X3988134Y-25722219D01*
X3999170Y-25740632D01*
X4008349Y-25760038D01*
X4015581Y-25780250D01*
X4020797Y-25801074D01*
X4023947Y-25822309D01*
X4025000Y-25843750D01*
X4025000Y-26356250D01*
X4023947Y-26377691D01*
X4020797Y-26398926D01*
X4015581Y-26419750D01*
X4008349Y-26439962D01*
X3999170Y-26459368D01*
X3988134Y-26477781D01*
X3975346Y-26495024D01*
X3960930Y-26510930D01*
X3945024Y-26525346D01*
X3927781Y-26538134D01*
X3909368Y-26549170D01*
X3889962Y-26558349D01*
X3869750Y-26565581D01*
X3848926Y-26570797D01*
X3827691Y-26573947D01*
X3806250Y-26575000D01*
X3368750Y-26575000D01*
X3347309Y-26573947D01*
X3326074Y-26570797D01*
X3305250Y-26565581D01*
X3285038Y-26558349D01*
X3265632Y-26549170D01*
X3247219Y-26538134D01*
X3229976Y-26525346D01*
X3214070Y-26510930D01*
X3199654Y-26495024D01*
X3186866Y-26477781D01*
X3175830Y-26459368D01*
X3166651Y-26439962D01*
X3159419Y-26419750D01*
X3154203Y-26398926D01*
X3151053Y-26377691D01*
X3150000Y-26356250D01*
X3150000Y-25843750D01*
X3151053Y-25822309D01*
X3154203Y-25801074D01*
X3159419Y-25780250D01*
X3166651Y-25760038D01*
X3175830Y-25740632D01*
X3186866Y-25722219D01*
X3199654Y-25704976D01*
X3214070Y-25689070D01*
X3229976Y-25674654D01*
X3247219Y-25661866D01*
X3265632Y-25650830D01*
X3285038Y-25641651D01*
X3305250Y-25634419D01*
X3326074Y-25629203D01*
X3347309Y-25626053D01*
X3368750Y-25625000D01*
X3806250Y-25625000D01*
X3827691Y-25626053D01*
X3827691Y-25626053D01*
G37*
D11*
G04 #@! TD*
G04 #@! TO.P,C5,1*
G04 #@! TO.N,Net-(C5-Pad1)*
X3587500Y-26100000D03*
D10*
G04 #@! TO.N,GND*
G04 #@! TO.C,C5*
G36*
X2252691Y-25626053D02*
X2273926Y-25629203D01*
X2294750Y-25634419D01*
X2314962Y-25641651D01*
X2334368Y-25650830D01*
X2352781Y-25661866D01*
X2370024Y-25674654D01*
X2385930Y-25689070D01*
X2400346Y-25704976D01*
X2413134Y-25722219D01*
X2424170Y-25740632D01*
X2433349Y-25760038D01*
X2440581Y-25780250D01*
X2445797Y-25801074D01*
X2448947Y-25822309D01*
X2450000Y-25843750D01*
X2450000Y-26356250D01*
X2448947Y-26377691D01*
X2445797Y-26398926D01*
X2440581Y-26419750D01*
X2433349Y-26439962D01*
X2424170Y-26459368D01*
X2413134Y-26477781D01*
X2400346Y-26495024D01*
X2385930Y-26510930D01*
X2370024Y-26525346D01*
X2352781Y-26538134D01*
X2334368Y-26549170D01*
X2314962Y-26558349D01*
X2294750Y-26565581D01*
X2273926Y-26570797D01*
X2252691Y-26573947D01*
X2231250Y-26575000D01*
X1793750Y-26575000D01*
X1772309Y-26573947D01*
X1751074Y-26570797D01*
X1730250Y-26565581D01*
X1710038Y-26558349D01*
X1690632Y-26549170D01*
X1672219Y-26538134D01*
X1654976Y-26525346D01*
X1639070Y-26510930D01*
X1624654Y-26495024D01*
X1611866Y-26477781D01*
X1600830Y-26459368D01*
X1591651Y-26439962D01*
X1584419Y-26419750D01*
X1579203Y-26398926D01*
X1576053Y-26377691D01*
X1575000Y-26356250D01*
X1575000Y-25843750D01*
X1576053Y-25822309D01*
X1579203Y-25801074D01*
X1584419Y-25780250D01*
X1591651Y-25760038D01*
X1600830Y-25740632D01*
X1611866Y-25722219D01*
X1624654Y-25704976D01*
X1639070Y-25689070D01*
X1654976Y-25674654D01*
X1672219Y-25661866D01*
X1690632Y-25650830D01*
X1710038Y-25641651D01*
X1730250Y-25634419D01*
X1751074Y-25629203D01*
X1772309Y-25626053D01*
X1793750Y-25625000D01*
X2231250Y-25625000D01*
X2252691Y-25626053D01*
X2252691Y-25626053D01*
G37*
D11*
G04 #@! TD*
G04 #@! TO.P,C5,2*
G04 #@! TO.N,GND*
X2012500Y-26100000D03*
D10*
G04 #@! TO.N,3.3V*
G04 #@! TO.C,C6*
G36*
X2877691Y-12351053D02*
X2898926Y-12354203D01*
X2919750Y-12359419D01*
X2939962Y-12366651D01*
X2959368Y-12375830D01*
X2977781Y-12386866D01*
X2995024Y-12399654D01*
X3010930Y-12414070D01*
X3025346Y-12429976D01*
X3038134Y-12447219D01*
X3049170Y-12465632D01*
X3058349Y-12485038D01*
X3065581Y-12505250D01*
X3070797Y-12526074D01*
X3073947Y-12547309D01*
X3075000Y-12568750D01*
X3075000Y-13006250D01*
X3073947Y-13027691D01*
X3070797Y-13048926D01*
X3065581Y-13069750D01*
X3058349Y-13089962D01*
X3049170Y-13109368D01*
X3038134Y-13127781D01*
X3025346Y-13145024D01*
X3010930Y-13160930D01*
X2995024Y-13175346D01*
X2977781Y-13188134D01*
X2959368Y-13199170D01*
X2939962Y-13208349D01*
X2919750Y-13215581D01*
X2898926Y-13220797D01*
X2877691Y-13223947D01*
X2856250Y-13225000D01*
X2343750Y-13225000D01*
X2322309Y-13223947D01*
X2301074Y-13220797D01*
X2280250Y-13215581D01*
X2260038Y-13208349D01*
X2240632Y-13199170D01*
X2222219Y-13188134D01*
X2204976Y-13175346D01*
X2189070Y-13160930D01*
X2174654Y-13145024D01*
X2161866Y-13127781D01*
X2150830Y-13109368D01*
X2141651Y-13089962D01*
X2134419Y-13069750D01*
X2129203Y-13048926D01*
X2126053Y-13027691D01*
X2125000Y-13006250D01*
X2125000Y-12568750D01*
X2126053Y-12547309D01*
X2129203Y-12526074D01*
X2134419Y-12505250D01*
X2141651Y-12485038D01*
X2150830Y-12465632D01*
X2161866Y-12447219D01*
X2174654Y-12429976D01*
X2189070Y-12414070D01*
X2204976Y-12399654D01*
X2222219Y-12386866D01*
X2240632Y-12375830D01*
X2260038Y-12366651D01*
X2280250Y-12359419D01*
X2301074Y-12354203D01*
X2322309Y-12351053D01*
X2343750Y-12350000D01*
X2856250Y-12350000D01*
X2877691Y-12351053D01*
X2877691Y-12351053D01*
G37*
D11*
G04 #@! TD*
G04 #@! TO.P,C6,2*
G04 #@! TO.N,3.3V*
X2600000Y-12787500D03*
D10*
G04 #@! TO.N,GND*
G04 #@! TO.C,C6*
G36*
X2877691Y-10776053D02*
X2898926Y-10779203D01*
X2919750Y-10784419D01*
X2939962Y-10791651D01*
X2959368Y-10800830D01*
X2977781Y-10811866D01*
X2995024Y-10824654D01*
X3010930Y-10839070D01*
X3025346Y-10854976D01*
X3038134Y-10872219D01*
X3049170Y-10890632D01*
X3058349Y-10910038D01*
X3065581Y-10930250D01*
X3070797Y-10951074D01*
X3073947Y-10972309D01*
X3075000Y-10993750D01*
X3075000Y-11431250D01*
X3073947Y-11452691D01*
X3070797Y-11473926D01*
X3065581Y-11494750D01*
X3058349Y-11514962D01*
X3049170Y-11534368D01*
X3038134Y-11552781D01*
X3025346Y-11570024D01*
X3010930Y-11585930D01*
X2995024Y-11600346D01*
X2977781Y-11613134D01*
X2959368Y-11624170D01*
X2939962Y-11633349D01*
X2919750Y-11640581D01*
X2898926Y-11645797D01*
X2877691Y-11648947D01*
X2856250Y-11650000D01*
X2343750Y-11650000D01*
X2322309Y-11648947D01*
X2301074Y-11645797D01*
X2280250Y-11640581D01*
X2260038Y-11633349D01*
X2240632Y-11624170D01*
X2222219Y-11613134D01*
X2204976Y-11600346D01*
X2189070Y-11585930D01*
X2174654Y-11570024D01*
X2161866Y-11552781D01*
X2150830Y-11534368D01*
X2141651Y-11514962D01*
X2134419Y-11494750D01*
X2129203Y-11473926D01*
X2126053Y-11452691D01*
X2125000Y-11431250D01*
X2125000Y-10993750D01*
X2126053Y-10972309D01*
X2129203Y-10951074D01*
X2134419Y-10930250D01*
X2141651Y-10910038D01*
X2150830Y-10890632D01*
X2161866Y-10872219D01*
X2174654Y-10854976D01*
X2189070Y-10839070D01*
X2204976Y-10824654D01*
X2222219Y-10811866D01*
X2240632Y-10800830D01*
X2260038Y-10791651D01*
X2280250Y-10784419D01*
X2301074Y-10779203D01*
X2322309Y-10776053D01*
X2343750Y-10775000D01*
X2856250Y-10775000D01*
X2877691Y-10776053D01*
X2877691Y-10776053D01*
G37*
D11*
G04 #@! TD*
G04 #@! TO.P,C6,1*
G04 #@! TO.N,GND*
X2600000Y-11212500D03*
D10*
G04 #@! TO.N,GND*
G04 #@! TO.C,C7*
G36*
X13227691Y-21126053D02*
X13248926Y-21129203D01*
X13269750Y-21134419D01*
X13289962Y-21141651D01*
X13309368Y-21150830D01*
X13327781Y-21161866D01*
X13345024Y-21174654D01*
X13360930Y-21189070D01*
X13375346Y-21204976D01*
X13388134Y-21222219D01*
X13399170Y-21240632D01*
X13408349Y-21260038D01*
X13415581Y-21280250D01*
X13420797Y-21301074D01*
X13423947Y-21322309D01*
X13425000Y-21343750D01*
X13425000Y-21856250D01*
X13423947Y-21877691D01*
X13420797Y-21898926D01*
X13415581Y-21919750D01*
X13408349Y-21939962D01*
X13399170Y-21959368D01*
X13388134Y-21977781D01*
X13375346Y-21995024D01*
X13360930Y-22010930D01*
X13345024Y-22025346D01*
X13327781Y-22038134D01*
X13309368Y-22049170D01*
X13289962Y-22058349D01*
X13269750Y-22065581D01*
X13248926Y-22070797D01*
X13227691Y-22073947D01*
X13206250Y-22075000D01*
X12768750Y-22075000D01*
X12747309Y-22073947D01*
X12726074Y-22070797D01*
X12705250Y-22065581D01*
X12685038Y-22058349D01*
X12665632Y-22049170D01*
X12647219Y-22038134D01*
X12629976Y-22025346D01*
X12614070Y-22010930D01*
X12599654Y-21995024D01*
X12586866Y-21977781D01*
X12575830Y-21959368D01*
X12566651Y-21939962D01*
X12559419Y-21919750D01*
X12554203Y-21898926D01*
X12551053Y-21877691D01*
X12550000Y-21856250D01*
X12550000Y-21343750D01*
X12551053Y-21322309D01*
X12554203Y-21301074D01*
X12559419Y-21280250D01*
X12566651Y-21260038D01*
X12575830Y-21240632D01*
X12586866Y-21222219D01*
X12599654Y-21204976D01*
X12614070Y-21189070D01*
X12629976Y-21174654D01*
X12647219Y-21161866D01*
X12665632Y-21150830D01*
X12685038Y-21141651D01*
X12705250Y-21134419D01*
X12726074Y-21129203D01*
X12747309Y-21126053D01*
X12768750Y-21125000D01*
X13206250Y-21125000D01*
X13227691Y-21126053D01*
X13227691Y-21126053D01*
G37*
D11*
G04 #@! TD*
G04 #@! TO.P,C7,1*
G04 #@! TO.N,GND*
X12987500Y-21600000D03*
D10*
G04 #@! TO.N,3.3V*
G04 #@! TO.C,C7*
G36*
X11652691Y-21126053D02*
X11673926Y-21129203D01*
X11694750Y-21134419D01*
X11714962Y-21141651D01*
X11734368Y-21150830D01*
X11752781Y-21161866D01*
X11770024Y-21174654D01*
X11785930Y-21189070D01*
X11800346Y-21204976D01*
X11813134Y-21222219D01*
X11824170Y-21240632D01*
X11833349Y-21260038D01*
X11840581Y-21280250D01*
X11845797Y-21301074D01*
X11848947Y-21322309D01*
X11850000Y-21343750D01*
X11850000Y-21856250D01*
X11848947Y-21877691D01*
X11845797Y-21898926D01*
X11840581Y-21919750D01*
X11833349Y-21939962D01*
X11824170Y-21959368D01*
X11813134Y-21977781D01*
X11800346Y-21995024D01*
X11785930Y-22010930D01*
X11770024Y-22025346D01*
X11752781Y-22038134D01*
X11734368Y-22049170D01*
X11714962Y-22058349D01*
X11694750Y-22065581D01*
X11673926Y-22070797D01*
X11652691Y-22073947D01*
X11631250Y-22075000D01*
X11193750Y-22075000D01*
X11172309Y-22073947D01*
X11151074Y-22070797D01*
X11130250Y-22065581D01*
X11110038Y-22058349D01*
X11090632Y-22049170D01*
X11072219Y-22038134D01*
X11054976Y-22025346D01*
X11039070Y-22010930D01*
X11024654Y-21995024D01*
X11011866Y-21977781D01*
X11000830Y-21959368D01*
X10991651Y-21939962D01*
X10984419Y-21919750D01*
X10979203Y-21898926D01*
X10976053Y-21877691D01*
X10975000Y-21856250D01*
X10975000Y-21343750D01*
X10976053Y-21322309D01*
X10979203Y-21301074D01*
X10984419Y-21280250D01*
X10991651Y-21260038D01*
X11000830Y-21240632D01*
X11011866Y-21222219D01*
X11024654Y-21204976D01*
X11039070Y-21189070D01*
X11054976Y-21174654D01*
X11072219Y-21161866D01*
X11090632Y-21150830D01*
X11110038Y-21141651D01*
X11130250Y-21134419D01*
X11151074Y-21129203D01*
X11172309Y-21126053D01*
X11193750Y-21125000D01*
X11631250Y-21125000D01*
X11652691Y-21126053D01*
X11652691Y-21126053D01*
G37*
D11*
G04 #@! TD*
G04 #@! TO.P,C7,2*
G04 #@! TO.N,3.3V*
X11412500Y-21600000D03*
D12*
G04 #@! TO.P,CON1,1*
G04 #@! TO.N,swclk*
X12600000Y-29100000D03*
D13*
G04 #@! TO.P,CON1,2*
G04 #@! TO.N,swdio*
X10060000Y-29100000D03*
G04 #@! TO.P,CON1,3*
G04 #@! TO.N,GND*
X7520000Y-29100000D03*
G04 #@! TO.P,CON1,4*
G04 #@! TO.N,3.3V*
X4980000Y-29100000D03*
G04 #@! TO.P,CON1,5*
G04 #@! TO.N,Net-(CON1-Pad5)*
X2440000Y-29100000D03*
G04 #@! TD*
D14*
G04 #@! TO.P,J1,5*
G04 #@! TO.N,GND*
X1800000Y-3100000D03*
X13200000Y-3100000D03*
G04 #@! TD*
D10*
G04 #@! TO.N,swclk*
G04 #@! TO.C,R1*
G36*
X5077691Y-8476053D02*
X5098926Y-8479203D01*
X5119750Y-8484419D01*
X5139962Y-8491651D01*
X5159368Y-8500830D01*
X5177781Y-8511866D01*
X5195024Y-8524654D01*
X5210930Y-8539070D01*
X5225346Y-8554976D01*
X5238134Y-8572219D01*
X5249170Y-8590632D01*
X5258349Y-8610038D01*
X5265581Y-8630250D01*
X5270797Y-8651074D01*
X5273947Y-8672309D01*
X5275000Y-8693750D01*
X5275000Y-9131250D01*
X5273947Y-9152691D01*
X5270797Y-9173926D01*
X5265581Y-9194750D01*
X5258349Y-9214962D01*
X5249170Y-9234368D01*
X5238134Y-9252781D01*
X5225346Y-9270024D01*
X5210930Y-9285930D01*
X5195024Y-9300346D01*
X5177781Y-9313134D01*
X5159368Y-9324170D01*
X5139962Y-9333349D01*
X5119750Y-9340581D01*
X5098926Y-9345797D01*
X5077691Y-9348947D01*
X5056250Y-9350000D01*
X4543750Y-9350000D01*
X4522309Y-9348947D01*
X4501074Y-9345797D01*
X4480250Y-9340581D01*
X4460038Y-9333349D01*
X4440632Y-9324170D01*
X4422219Y-9313134D01*
X4404976Y-9300346D01*
X4389070Y-9285930D01*
X4374654Y-9270024D01*
X4361866Y-9252781D01*
X4350830Y-9234368D01*
X4341651Y-9214962D01*
X4334419Y-9194750D01*
X4329203Y-9173926D01*
X4326053Y-9152691D01*
X4325000Y-9131250D01*
X4325000Y-8693750D01*
X4326053Y-8672309D01*
X4329203Y-8651074D01*
X4334419Y-8630250D01*
X4341651Y-8610038D01*
X4350830Y-8590632D01*
X4361866Y-8572219D01*
X4374654Y-8554976D01*
X4389070Y-8539070D01*
X4404976Y-8524654D01*
X4422219Y-8511866D01*
X4440632Y-8500830D01*
X4460038Y-8491651D01*
X4480250Y-8484419D01*
X4501074Y-8479203D01*
X4522309Y-8476053D01*
X4543750Y-8475000D01*
X5056250Y-8475000D01*
X5077691Y-8476053D01*
X5077691Y-8476053D01*
G37*
D11*
G04 #@! TD*
G04 #@! TO.P,R1,1*
G04 #@! TO.N,swclk*
X4800000Y-8912500D03*
D10*
G04 #@! TO.N,nc1*
G04 #@! TO.C,R1*
G36*
X5077691Y-10051053D02*
X5098926Y-10054203D01*
X5119750Y-10059419D01*
X5139962Y-10066651D01*
X5159368Y-10075830D01*
X5177781Y-10086866D01*
X5195024Y-10099654D01*
X5210930Y-10114070D01*
X5225346Y-10129976D01*
X5238134Y-10147219D01*
X5249170Y-10165632D01*
X5258349Y-10185038D01*
X5265581Y-10205250D01*
X5270797Y-10226074D01*
X5273947Y-10247309D01*
X5275000Y-10268750D01*
X5275000Y-10706250D01*
X5273947Y-10727691D01*
X5270797Y-10748926D01*
X5265581Y-10769750D01*
X5258349Y-10789962D01*
X5249170Y-10809368D01*
X5238134Y-10827781D01*
X5225346Y-10845024D01*
X5210930Y-10860930D01*
X5195024Y-10875346D01*
X5177781Y-10888134D01*
X5159368Y-10899170D01*
X5139962Y-10908349D01*
X5119750Y-10915581D01*
X5098926Y-10920797D01*
X5077691Y-10923947D01*
X5056250Y-10925000D01*
X4543750Y-10925000D01*
X4522309Y-10923947D01*
X4501074Y-10920797D01*
X4480250Y-10915581D01*
X4460038Y-10908349D01*
X4440632Y-10899170D01*
X4422219Y-10888134D01*
X4404976Y-10875346D01*
X4389070Y-10860930D01*
X4374654Y-10845024D01*
X4361866Y-10827781D01*
X4350830Y-10809368D01*
X4341651Y-10789962D01*
X4334419Y-10769750D01*
X4329203Y-10748926D01*
X4326053Y-10727691D01*
X4325000Y-10706250D01*
X4325000Y-10268750D01*
X4326053Y-10247309D01*
X4329203Y-10226074D01*
X4334419Y-10205250D01*
X4341651Y-10185038D01*
X4350830Y-10165632D01*
X4361866Y-10147219D01*
X4374654Y-10129976D01*
X4389070Y-10114070D01*
X4404976Y-10099654D01*
X4422219Y-10086866D01*
X4440632Y-10075830D01*
X4460038Y-10066651D01*
X4480250Y-10059419D01*
X4501074Y-10054203D01*
X4522309Y-10051053D01*
X4543750Y-10050000D01*
X5056250Y-10050000D01*
X5077691Y-10051053D01*
X5077691Y-10051053D01*
G37*
D11*
G04 #@! TD*
G04 #@! TO.P,R1,2*
G04 #@! TO.N,nc1*
X4800000Y-10487500D03*
D10*
G04 #@! TO.N,Net-(R2-Pad2)*
G04 #@! TO.C,R2*
G36*
X10477691Y-10051053D02*
X10498926Y-10054203D01*
X10519750Y-10059419D01*
X10539962Y-10066651D01*
X10559368Y-10075830D01*
X10577781Y-10086866D01*
X10595024Y-10099654D01*
X10610930Y-10114070D01*
X10625346Y-10129976D01*
X10638134Y-10147219D01*
X10649170Y-10165632D01*
X10658349Y-10185038D01*
X10665581Y-10205250D01*
X10670797Y-10226074D01*
X10673947Y-10247309D01*
X10675000Y-10268750D01*
X10675000Y-10706250D01*
X10673947Y-10727691D01*
X10670797Y-10748926D01*
X10665581Y-10769750D01*
X10658349Y-10789962D01*
X10649170Y-10809368D01*
X10638134Y-10827781D01*
X10625346Y-10845024D01*
X10610930Y-10860930D01*
X10595024Y-10875346D01*
X10577781Y-10888134D01*
X10559368Y-10899170D01*
X10539962Y-10908349D01*
X10519750Y-10915581D01*
X10498926Y-10920797D01*
X10477691Y-10923947D01*
X10456250Y-10925000D01*
X9943750Y-10925000D01*
X9922309Y-10923947D01*
X9901074Y-10920797D01*
X9880250Y-10915581D01*
X9860038Y-10908349D01*
X9840632Y-10899170D01*
X9822219Y-10888134D01*
X9804976Y-10875346D01*
X9789070Y-10860930D01*
X9774654Y-10845024D01*
X9761866Y-10827781D01*
X9750830Y-10809368D01*
X9741651Y-10789962D01*
X9734419Y-10769750D01*
X9729203Y-10748926D01*
X9726053Y-10727691D01*
X9725000Y-10706250D01*
X9725000Y-10268750D01*
X9726053Y-10247309D01*
X9729203Y-10226074D01*
X9734419Y-10205250D01*
X9741651Y-10185038D01*
X9750830Y-10165632D01*
X9761866Y-10147219D01*
X9774654Y-10129976D01*
X9789070Y-10114070D01*
X9804976Y-10099654D01*
X9822219Y-10086866D01*
X9840632Y-10075830D01*
X9860038Y-10066651D01*
X9880250Y-10059419D01*
X9901074Y-10054203D01*
X9922309Y-10051053D01*
X9943750Y-10050000D01*
X10456250Y-10050000D01*
X10477691Y-10051053D01*
X10477691Y-10051053D01*
G37*
D11*
G04 #@! TD*
G04 #@! TO.P,R2,2*
G04 #@! TO.N,Net-(R2-Pad2)*
X10200000Y-10487500D03*
D10*
G04 #@! TO.N,swdio*
G04 #@! TO.C,R2*
G36*
X10477691Y-8476053D02*
X10498926Y-8479203D01*
X10519750Y-8484419D01*
X10539962Y-8491651D01*
X10559368Y-8500830D01*
X10577781Y-8511866D01*
X10595024Y-8524654D01*
X10610930Y-8539070D01*
X10625346Y-8554976D01*
X10638134Y-8572219D01*
X10649170Y-8590632D01*
X10658349Y-8610038D01*
X10665581Y-8630250D01*
X10670797Y-8651074D01*
X10673947Y-8672309D01*
X10675000Y-8693750D01*
X10675000Y-9131250D01*
X10673947Y-9152691D01*
X10670797Y-9173926D01*
X10665581Y-9194750D01*
X10658349Y-9214962D01*
X10649170Y-9234368D01*
X10638134Y-9252781D01*
X10625346Y-9270024D01*
X10610930Y-9285930D01*
X10595024Y-9300346D01*
X10577781Y-9313134D01*
X10559368Y-9324170D01*
X10539962Y-9333349D01*
X10519750Y-9340581D01*
X10498926Y-9345797D01*
X10477691Y-9348947D01*
X10456250Y-9350000D01*
X9943750Y-9350000D01*
X9922309Y-9348947D01*
X9901074Y-9345797D01*
X9880250Y-9340581D01*
X9860038Y-9333349D01*
X9840632Y-9324170D01*
X9822219Y-9313134D01*
X9804976Y-9300346D01*
X9789070Y-9285930D01*
X9774654Y-9270024D01*
X9761866Y-9252781D01*
X9750830Y-9234368D01*
X9741651Y-9214962D01*
X9734419Y-9194750D01*
X9729203Y-9173926D01*
X9726053Y-9152691D01*
X9725000Y-9131250D01*
X9725000Y-8693750D01*
X9726053Y-8672309D01*
X9729203Y-8651074D01*
X9734419Y-8630250D01*
X9741651Y-8610038D01*
X9750830Y-8590632D01*
X9761866Y-8572219D01*
X9774654Y-8554976D01*
X9789070Y-8539070D01*
X9804976Y-8524654D01*
X9822219Y-8511866D01*
X9840632Y-8500830D01*
X9860038Y-8491651D01*
X9880250Y-8484419D01*
X9901074Y-8479203D01*
X9922309Y-8476053D01*
X9943750Y-8475000D01*
X10456250Y-8475000D01*
X10477691Y-8476053D01*
X10477691Y-8476053D01*
G37*
D11*
G04 #@! TD*
G04 #@! TO.P,R2,1*
G04 #@! TO.N,swdio*
X10200000Y-8912500D03*
D15*
G04 #@! TO.P,U1,1*
G04 #@! TO.N,swdio*
X8660000Y-8750000D03*
G04 #@! TO.P,U1,2*
G04 #@! TO.N,GND*
X8660000Y-9700000D03*
G04 #@! TO.P,U1,3*
G04 #@! TO.N,d+*
X8660000Y-10650000D03*
G04 #@! TO.P,U1,4*
G04 #@! TO.N,d-*
X6340000Y-10650000D03*
G04 #@! TO.P,U1,5*
G04 #@! TO.N,5V*
X6340000Y-9700000D03*
G04 #@! TO.P,U1,6*
G04 #@! TO.N,swclk*
X6340000Y-8750000D03*
G04 #@! TD*
D16*
G04 #@! TO.P,U2,1*
G04 #@! TO.N,GND*
X6550000Y-4800000D03*
G04 #@! TO.P,U2,2*
G04 #@! TO.N,3.3V*
X8450000Y-4800000D03*
G04 #@! TO.P,U2,3*
G04 #@! TO.N,5V*
X7500000Y-6800000D03*
G04 #@! TD*
D17*
G04 #@! TO.P,U3,1*
G04 #@! TO.N,3.3V*
X9750000Y-21550000D03*
G04 #@! TO.P,U3,2*
G04 #@! TO.N,GND*
X9250000Y-21550000D03*
G04 #@! TO.P,U3,3*
G04 #@! TO.N,Net-(U3-Pad3)*
X8750000Y-21550000D03*
G04 #@! TO.P,U3,4*
G04 #@! TO.N,nrst*
X8250000Y-21550000D03*
G04 #@! TO.P,U3,5*
G04 #@! TO.N,Net-(C4-Pad1)*
X7750000Y-21550000D03*
G04 #@! TO.P,U3,6*
G04 #@! TO.N,Net-(C5-Pad1)*
X7250000Y-21550000D03*
G04 #@! TO.P,U3,7*
G04 #@! TO.N,nrst*
X6750000Y-21550000D03*
G04 #@! TO.P,U3,8*
G04 #@! TO.N,GND*
X6250000Y-21550000D03*
G04 #@! TO.P,U3,9*
G04 #@! TO.N,3.3V*
X5750000Y-21550000D03*
G04 #@! TO.P,U3,10*
G04 #@! TO.N,Net-(U3-Pad10)*
X5250000Y-21550000D03*
G04 #@! TO.P,U3,11*
G04 #@! TO.N,Net-(U3-Pad11)*
X4750000Y-21550000D03*
G04 #@! TO.P,U3,12*
G04 #@! TO.N,Net-(C10-Pad2)*
X4250000Y-21550000D03*
D18*
G04 #@! TO.P,U3,13*
G04 #@! TO.N,Net-(U3-Pad13)*
X2650000Y-19950000D03*
G04 #@! TO.P,U3,14*
G04 #@! TO.N,Net-(U3-Pad14)*
X2650000Y-19450000D03*
G04 #@! TO.P,U3,15*
G04 #@! TO.N,sck*
X2650000Y-18950000D03*
G04 #@! TO.P,U3,16*
G04 #@! TO.N,miso*
X2650000Y-18450000D03*
G04 #@! TO.P,U3,17*
G04 #@! TO.N,mosi*
X2650000Y-17950000D03*
G04 #@! TO.P,U3,18*
G04 #@! TO.N,Net-(U3-Pad18)*
X2650000Y-17450000D03*
G04 #@! TO.P,U3,19*
G04 #@! TO.N,Net-(U3-Pad19)*
X2650000Y-16950000D03*
G04 #@! TO.P,U3,20*
G04 #@! TO.N,Net-(U3-Pad20)*
X2650000Y-16450000D03*
G04 #@! TO.P,U3,21*
G04 #@! TO.N,Net-(U3-Pad21)*
X2650000Y-15950000D03*
G04 #@! TO.P,U3,22*
G04 #@! TO.N,Net-(U3-Pad22)*
X2650000Y-15450000D03*
G04 #@! TO.P,U3,23*
G04 #@! TO.N,GND*
X2650000Y-14950000D03*
G04 #@! TO.P,U3,24*
G04 #@! TO.N,3.3V*
X2650000Y-14450000D03*
D17*
G04 #@! TO.P,U3,25*
G04 #@! TO.N,Net-(U3-Pad25)*
X4250000Y-12850000D03*
G04 #@! TO.P,U3,26*
G04 #@! TO.N,nc1*
X4750000Y-12850000D03*
G04 #@! TO.P,U3,27*
G04 #@! TO.N,Net-(U3-Pad27)*
X5250000Y-12850000D03*
G04 #@! TO.P,U3,28*
G04 #@! TO.N,GND*
X5750000Y-12850000D03*
G04 #@! TO.P,U3,29*
G04 #@! TO.N,Net-(U3-Pad29)*
X6250000Y-12850000D03*
G04 #@! TO.P,U3,30*
G04 #@! TO.N,GND*
X6750000Y-12850000D03*
G04 #@! TO.P,U3,31*
G04 #@! TO.N,Net-(U3-Pad31)*
X7250000Y-12850000D03*
G04 #@! TO.P,U3,32*
G04 #@! TO.N,d-*
X7750000Y-12850000D03*
G04 #@! TO.P,U3,33*
G04 #@! TO.N,d+*
X8250000Y-12850000D03*
G04 #@! TO.P,U3,34*
G04 #@! TO.N,Net-(R2-Pad2)*
X8750000Y-12850000D03*
G04 #@! TO.P,U3,35*
G04 #@! TO.N,GND*
X9250000Y-12850000D03*
G04 #@! TO.P,U3,36*
G04 #@! TO.N,3.3V*
X9750000Y-12850000D03*
D18*
G04 #@! TO.P,U3,37*
G04 #@! TO.N,nc1*
X11350000Y-14450000D03*
G04 #@! TO.P,U3,38*
G04 #@! TO.N,cs*
X11350000Y-14950000D03*
G04 #@! TO.P,U3,39*
G04 #@! TO.N,GND*
X11350000Y-15450000D03*
G04 #@! TO.P,U3,40*
G04 #@! TO.N,Net-(U3-Pad40)*
X11350000Y-15950000D03*
G04 #@! TO.P,U3,41*
G04 #@! TO.N,GND*
X11350000Y-16450000D03*
G04 #@! TO.P,U3,42*
G04 #@! TO.N,Net-(U3-Pad42)*
X11350000Y-16950000D03*
G04 #@! TO.P,U3,43*
G04 #@! TO.N,Net-(U3-Pad43)*
X11350000Y-17450000D03*
G04 #@! TO.P,U3,44*
G04 #@! TO.N,GND*
X11350000Y-17950000D03*
G04 #@! TO.P,U3,45*
G04 #@! TO.N,Net-(U3-Pad45)*
X11350000Y-18450000D03*
G04 #@! TO.P,U3,46*
G04 #@! TO.N,Net-(U3-Pad46)*
X11350000Y-18950000D03*
G04 #@! TO.P,U3,47*
G04 #@! TO.N,GND*
X11350000Y-19450000D03*
G04 #@! TO.P,U3,48*
G04 #@! TO.N,3.3V*
X11350000Y-19950000D03*
G04 #@! TD*
D19*
G04 #@! TO.P,Y1,1*
G04 #@! TO.N,Net-(C4-Pad1)*
X9350000Y-25200000D03*
G04 #@! TO.P,Y1,2*
G04 #@! TO.N,Net-(C5-Pad1)*
X5650000Y-25200000D03*
G04 #@! TD*
D10*
G04 #@! TO.N,nrst*
G04 #@! TO.C,C11*
G36*
X11640191Y-23426053D02*
X11661426Y-23429203D01*
X11682250Y-23434419D01*
X11702462Y-23441651D01*
X11721868Y-23450830D01*
X11740281Y-23461866D01*
X11757524Y-23474654D01*
X11773430Y-23489070D01*
X11787846Y-23504976D01*
X11800634Y-23522219D01*
X11811670Y-23540632D01*
X11820849Y-23560038D01*
X11828081Y-23580250D01*
X11833297Y-23601074D01*
X11836447Y-23622309D01*
X11837500Y-23643750D01*
X11837500Y-24156250D01*
X11836447Y-24177691D01*
X11833297Y-24198926D01*
X11828081Y-24219750D01*
X11820849Y-24239962D01*
X11811670Y-24259368D01*
X11800634Y-24277781D01*
X11787846Y-24295024D01*
X11773430Y-24310930D01*
X11757524Y-24325346D01*
X11740281Y-24338134D01*
X11721868Y-24349170D01*
X11702462Y-24358349D01*
X11682250Y-24365581D01*
X11661426Y-24370797D01*
X11640191Y-24373947D01*
X11618750Y-24375000D01*
X11181250Y-24375000D01*
X11159809Y-24373947D01*
X11138574Y-24370797D01*
X11117750Y-24365581D01*
X11097538Y-24358349D01*
X11078132Y-24349170D01*
X11059719Y-24338134D01*
X11042476Y-24325346D01*
X11026570Y-24310930D01*
X11012154Y-24295024D01*
X10999366Y-24277781D01*
X10988330Y-24259368D01*
X10979151Y-24239962D01*
X10971919Y-24219750D01*
X10966703Y-24198926D01*
X10963553Y-24177691D01*
X10962500Y-24156250D01*
X10962500Y-23643750D01*
X10963553Y-23622309D01*
X10966703Y-23601074D01*
X10971919Y-23580250D01*
X10979151Y-23560038D01*
X10988330Y-23540632D01*
X10999366Y-23522219D01*
X11012154Y-23504976D01*
X11026570Y-23489070D01*
X11042476Y-23474654D01*
X11059719Y-23461866D01*
X11078132Y-23450830D01*
X11097538Y-23441651D01*
X11117750Y-23434419D01*
X11138574Y-23429203D01*
X11159809Y-23426053D01*
X11181250Y-23425000D01*
X11618750Y-23425000D01*
X11640191Y-23426053D01*
X11640191Y-23426053D01*
G37*
D11*
G04 #@! TD*
G04 #@! TO.P,C11,1*
G04 #@! TO.N,nrst*
X11400000Y-23900000D03*
D10*
G04 #@! TO.N,GND*
G04 #@! TO.C,C11*
G36*
X13215191Y-23426053D02*
X13236426Y-23429203D01*
X13257250Y-23434419D01*
X13277462Y-23441651D01*
X13296868Y-23450830D01*
X13315281Y-23461866D01*
X13332524Y-23474654D01*
X13348430Y-23489070D01*
X13362846Y-23504976D01*
X13375634Y-23522219D01*
X13386670Y-23540632D01*
X13395849Y-23560038D01*
X13403081Y-23580250D01*
X13408297Y-23601074D01*
X13411447Y-23622309D01*
X13412500Y-23643750D01*
X13412500Y-24156250D01*
X13411447Y-24177691D01*
X13408297Y-24198926D01*
X13403081Y-24219750D01*
X13395849Y-24239962D01*
X13386670Y-24259368D01*
X13375634Y-24277781D01*
X13362846Y-24295024D01*
X13348430Y-24310930D01*
X13332524Y-24325346D01*
X13315281Y-24338134D01*
X13296868Y-24349170D01*
X13277462Y-24358349D01*
X13257250Y-24365581D01*
X13236426Y-24370797D01*
X13215191Y-24373947D01*
X13193750Y-24375000D01*
X12756250Y-24375000D01*
X12734809Y-24373947D01*
X12713574Y-24370797D01*
X12692750Y-24365581D01*
X12672538Y-24358349D01*
X12653132Y-24349170D01*
X12634719Y-24338134D01*
X12617476Y-24325346D01*
X12601570Y-24310930D01*
X12587154Y-24295024D01*
X12574366Y-24277781D01*
X12563330Y-24259368D01*
X12554151Y-24239962D01*
X12546919Y-24219750D01*
X12541703Y-24198926D01*
X12538553Y-24177691D01*
X12537500Y-24156250D01*
X12537500Y-23643750D01*
X12538553Y-23622309D01*
X12541703Y-23601074D01*
X12546919Y-23580250D01*
X12554151Y-23560038D01*
X12563330Y-23540632D01*
X12574366Y-23522219D01*
X12587154Y-23504976D01*
X12601570Y-23489070D01*
X12617476Y-23474654D01*
X12634719Y-23461866D01*
X12653132Y-23450830D01*
X12672538Y-23441651D01*
X12692750Y-23434419D01*
X12713574Y-23429203D01*
X12734809Y-23426053D01*
X12756250Y-23425000D01*
X13193750Y-23425000D01*
X13215191Y-23426053D01*
X13215191Y-23426053D01*
G37*
D11*
G04 #@! TD*
G04 #@! TO.P,C11,2*
G04 #@! TO.N,GND*
X12975000Y-23900000D03*
D10*
G04 #@! TO.N,5V*
G04 #@! TO.C,C1*
G36*
X4680142Y-6251174D02*
X4703803Y-6254684D01*
X4727007Y-6260496D01*
X4749529Y-6268554D01*
X4771153Y-6278782D01*
X4791670Y-6291079D01*
X4810883Y-6305329D01*
X4828607Y-6321393D01*
X4844671Y-6339117D01*
X4858921Y-6358330D01*
X4871218Y-6378847D01*
X4881446Y-6400471D01*
X4889504Y-6422993D01*
X4895316Y-6446197D01*
X4898826Y-6469858D01*
X4900000Y-6493750D01*
X4900000Y-6981250D01*
X4898826Y-7005142D01*
X4895316Y-7028803D01*
X4889504Y-7052007D01*
X4881446Y-7074529D01*
X4871218Y-7096153D01*
X4858921Y-7116670D01*
X4844671Y-7135883D01*
X4828607Y-7153607D01*
X4810883Y-7169671D01*
X4791670Y-7183921D01*
X4771153Y-7196218D01*
X4749529Y-7206446D01*
X4727007Y-7214504D01*
X4703803Y-7220316D01*
X4680142Y-7223826D01*
X4656250Y-7225000D01*
X3743750Y-7225000D01*
X3719858Y-7223826D01*
X3696197Y-7220316D01*
X3672993Y-7214504D01*
X3650471Y-7206446D01*
X3628847Y-7196218D01*
X3608330Y-7183921D01*
X3589117Y-7169671D01*
X3571393Y-7153607D01*
X3555329Y-7135883D01*
X3541079Y-7116670D01*
X3528782Y-7096153D01*
X3518554Y-7074529D01*
X3510496Y-7052007D01*
X3504684Y-7028803D01*
X3501174Y-7005142D01*
X3500000Y-6981250D01*
X3500000Y-6493750D01*
X3501174Y-6469858D01*
X3504684Y-6446197D01*
X3510496Y-6422993D01*
X3518554Y-6400471D01*
X3528782Y-6378847D01*
X3541079Y-6358330D01*
X3555329Y-6339117D01*
X3571393Y-6321393D01*
X3589117Y-6305329D01*
X3608330Y-6291079D01*
X3628847Y-6278782D01*
X3650471Y-6268554D01*
X3672993Y-6260496D01*
X3696197Y-6254684D01*
X3719858Y-6251174D01*
X3743750Y-6250000D01*
X4656250Y-6250000D01*
X4680142Y-6251174D01*
X4680142Y-6251174D01*
G37*
D20*
G04 #@! TD*
G04 #@! TO.P,C1,1*
G04 #@! TO.N,5V*
X4200000Y-6737500D03*
D10*
G04 #@! TO.N,GND*
G04 #@! TO.C,C1*
G36*
X4680142Y-4376174D02*
X4703803Y-4379684D01*
X4727007Y-4385496D01*
X4749529Y-4393554D01*
X4771153Y-4403782D01*
X4791670Y-4416079D01*
X4810883Y-4430329D01*
X4828607Y-4446393D01*
X4844671Y-4464117D01*
X4858921Y-4483330D01*
X4871218Y-4503847D01*
X4881446Y-4525471D01*
X4889504Y-4547993D01*
X4895316Y-4571197D01*
X4898826Y-4594858D01*
X4900000Y-4618750D01*
X4900000Y-5106250D01*
X4898826Y-5130142D01*
X4895316Y-5153803D01*
X4889504Y-5177007D01*
X4881446Y-5199529D01*
X4871218Y-5221153D01*
X4858921Y-5241670D01*
X4844671Y-5260883D01*
X4828607Y-5278607D01*
X4810883Y-5294671D01*
X4791670Y-5308921D01*
X4771153Y-5321218D01*
X4749529Y-5331446D01*
X4727007Y-5339504D01*
X4703803Y-5345316D01*
X4680142Y-5348826D01*
X4656250Y-5350000D01*
X3743750Y-5350000D01*
X3719858Y-5348826D01*
X3696197Y-5345316D01*
X3672993Y-5339504D01*
X3650471Y-5331446D01*
X3628847Y-5321218D01*
X3608330Y-5308921D01*
X3589117Y-5294671D01*
X3571393Y-5278607D01*
X3555329Y-5260883D01*
X3541079Y-5241670D01*
X3528782Y-5221153D01*
X3518554Y-5199529D01*
X3510496Y-5177007D01*
X3504684Y-5153803D01*
X3501174Y-5130142D01*
X3500000Y-5106250D01*
X3500000Y-4618750D01*
X3501174Y-4594858D01*
X3504684Y-4571197D01*
X3510496Y-4547993D01*
X3518554Y-4525471D01*
X3528782Y-4503847D01*
X3541079Y-4483330D01*
X3555329Y-4464117D01*
X3571393Y-4446393D01*
X3589117Y-4430329D01*
X3608330Y-4416079D01*
X3628847Y-4403782D01*
X3650471Y-4393554D01*
X3672993Y-4385496D01*
X3696197Y-4379684D01*
X3719858Y-4376174D01*
X3743750Y-4375000D01*
X4656250Y-4375000D01*
X4680142Y-4376174D01*
X4680142Y-4376174D01*
G37*
D20*
G04 #@! TD*
G04 #@! TO.P,C1,2*
G04 #@! TO.N,GND*
X4200000Y-4862500D03*
D10*
G04 #@! TO.N,3.3V*
G04 #@! TO.C,C2*
G36*
X11280142Y-4376174D02*
X11303803Y-4379684D01*
X11327007Y-4385496D01*
X11349529Y-4393554D01*
X11371153Y-4403782D01*
X11391670Y-4416079D01*
X11410883Y-4430329D01*
X11428607Y-4446393D01*
X11444671Y-4464117D01*
X11458921Y-4483330D01*
X11471218Y-4503847D01*
X11481446Y-4525471D01*
X11489504Y-4547993D01*
X11495316Y-4571197D01*
X11498826Y-4594858D01*
X11500000Y-4618750D01*
X11500000Y-5106250D01*
X11498826Y-5130142D01*
X11495316Y-5153803D01*
X11489504Y-5177007D01*
X11481446Y-5199529D01*
X11471218Y-5221153D01*
X11458921Y-5241670D01*
X11444671Y-5260883D01*
X11428607Y-5278607D01*
X11410883Y-5294671D01*
X11391670Y-5308921D01*
X11371153Y-5321218D01*
X11349529Y-5331446D01*
X11327007Y-5339504D01*
X11303803Y-5345316D01*
X11280142Y-5348826D01*
X11256250Y-5350000D01*
X10343750Y-5350000D01*
X10319858Y-5348826D01*
X10296197Y-5345316D01*
X10272993Y-5339504D01*
X10250471Y-5331446D01*
X10228847Y-5321218D01*
X10208330Y-5308921D01*
X10189117Y-5294671D01*
X10171393Y-5278607D01*
X10155329Y-5260883D01*
X10141079Y-5241670D01*
X10128782Y-5221153D01*
X10118554Y-5199529D01*
X10110496Y-5177007D01*
X10104684Y-5153803D01*
X10101174Y-5130142D01*
X10100000Y-5106250D01*
X10100000Y-4618750D01*
X10101174Y-4594858D01*
X10104684Y-4571197D01*
X10110496Y-4547993D01*
X10118554Y-4525471D01*
X10128782Y-4503847D01*
X10141079Y-4483330D01*
X10155329Y-4464117D01*
X10171393Y-4446393D01*
X10189117Y-4430329D01*
X10208330Y-4416079D01*
X10228847Y-4403782D01*
X10250471Y-4393554D01*
X10272993Y-4385496D01*
X10296197Y-4379684D01*
X10319858Y-4376174D01*
X10343750Y-4375000D01*
X11256250Y-4375000D01*
X11280142Y-4376174D01*
X11280142Y-4376174D01*
G37*
D20*
G04 #@! TD*
G04 #@! TO.P,C2,1*
G04 #@! TO.N,3.3V*
X10800000Y-4862500D03*
D10*
G04 #@! TO.N,GND*
G04 #@! TO.C,C2*
G36*
X11280142Y-6251174D02*
X11303803Y-6254684D01*
X11327007Y-6260496D01*
X11349529Y-6268554D01*
X11371153Y-6278782D01*
X11391670Y-6291079D01*
X11410883Y-6305329D01*
X11428607Y-6321393D01*
X11444671Y-6339117D01*
X11458921Y-6358330D01*
X11471218Y-6378847D01*
X11481446Y-6400471D01*
X11489504Y-6422993D01*
X11495316Y-6446197D01*
X11498826Y-6469858D01*
X11500000Y-6493750D01*
X11500000Y-6981250D01*
X11498826Y-7005142D01*
X11495316Y-7028803D01*
X11489504Y-7052007D01*
X11481446Y-7074529D01*
X11471218Y-7096153D01*
X11458921Y-7116670D01*
X11444671Y-7135883D01*
X11428607Y-7153607D01*
X11410883Y-7169671D01*
X11391670Y-7183921D01*
X11371153Y-7196218D01*
X11349529Y-7206446D01*
X11327007Y-7214504D01*
X11303803Y-7220316D01*
X11280142Y-7223826D01*
X11256250Y-7225000D01*
X10343750Y-7225000D01*
X10319858Y-7223826D01*
X10296197Y-7220316D01*
X10272993Y-7214504D01*
X10250471Y-7206446D01*
X10228847Y-7196218D01*
X10208330Y-7183921D01*
X10189117Y-7169671D01*
X10171393Y-7153607D01*
X10155329Y-7135883D01*
X10141079Y-7116670D01*
X10128782Y-7096153D01*
X10118554Y-7074529D01*
X10110496Y-7052007D01*
X10104684Y-7028803D01*
X10101174Y-7005142D01*
X10100000Y-6981250D01*
X10100000Y-6493750D01*
X10101174Y-6469858D01*
X10104684Y-6446197D01*
X10110496Y-6422993D01*
X10118554Y-6400471D01*
X10128782Y-6378847D01*
X10141079Y-6358330D01*
X10155329Y-6339117D01*
X10171393Y-6321393D01*
X10189117Y-6305329D01*
X10208330Y-6291079D01*
X10228847Y-6278782D01*
X10250471Y-6268554D01*
X10272993Y-6260496D01*
X10296197Y-6254684D01*
X10319858Y-6251174D01*
X10343750Y-6250000D01*
X11256250Y-6250000D01*
X11280142Y-6251174D01*
X11280142Y-6251174D01*
G37*
D20*
G04 #@! TD*
G04 #@! TO.P,C2,2*
G04 #@! TO.N,GND*
X10800000Y-6737500D03*
D10*
G04 #@! TO.N,GND*
G04 #@! TO.C,C8*
G36*
X2870142Y-23423674D02*
X2893803Y-23427184D01*
X2917007Y-23432996D01*
X2939529Y-23441054D01*
X2961153Y-23451282D01*
X2981670Y-23463579D01*
X3000883Y-23477829D01*
X3018607Y-23493893D01*
X3034671Y-23511617D01*
X3048921Y-23530830D01*
X3061218Y-23551347D01*
X3071446Y-23572971D01*
X3079504Y-23595493D01*
X3085316Y-23618697D01*
X3088826Y-23642358D01*
X3090000Y-23666250D01*
X3090000Y-24153750D01*
X3088826Y-24177642D01*
X3085316Y-24201303D01*
X3079504Y-24224507D01*
X3071446Y-24247029D01*
X3061218Y-24268653D01*
X3048921Y-24289170D01*
X3034671Y-24308383D01*
X3018607Y-24326107D01*
X3000883Y-24342171D01*
X2981670Y-24356421D01*
X2961153Y-24368718D01*
X2939529Y-24378946D01*
X2917007Y-24387004D01*
X2893803Y-24392816D01*
X2870142Y-24396326D01*
X2846250Y-24397500D01*
X1933750Y-24397500D01*
X1909858Y-24396326D01*
X1886197Y-24392816D01*
X1862993Y-24387004D01*
X1840471Y-24378946D01*
X1818847Y-24368718D01*
X1798330Y-24356421D01*
X1779117Y-24342171D01*
X1761393Y-24326107D01*
X1745329Y-24308383D01*
X1731079Y-24289170D01*
X1718782Y-24268653D01*
X1708554Y-24247029D01*
X1700496Y-24224507D01*
X1694684Y-24201303D01*
X1691174Y-24177642D01*
X1690000Y-24153750D01*
X1690000Y-23666250D01*
X1691174Y-23642358D01*
X1694684Y-23618697D01*
X1700496Y-23595493D01*
X1708554Y-23572971D01*
X1718782Y-23551347D01*
X1731079Y-23530830D01*
X1745329Y-23511617D01*
X1761393Y-23493893D01*
X1779117Y-23477829D01*
X1798330Y-23463579D01*
X1818847Y-23451282D01*
X1840471Y-23441054D01*
X1862993Y-23432996D01*
X1886197Y-23427184D01*
X1909858Y-23423674D01*
X1933750Y-23422500D01*
X2846250Y-23422500D01*
X2870142Y-23423674D01*
X2870142Y-23423674D01*
G37*
D20*
G04 #@! TD*
G04 #@! TO.P,C8,2*
G04 #@! TO.N,GND*
X2390000Y-23910000D03*
D10*
G04 #@! TO.N,3.3V*
G04 #@! TO.C,C8*
G36*
X2870142Y-21548674D02*
X2893803Y-21552184D01*
X2917007Y-21557996D01*
X2939529Y-21566054D01*
X2961153Y-21576282D01*
X2981670Y-21588579D01*
X3000883Y-21602829D01*
X3018607Y-21618893D01*
X3034671Y-21636617D01*
X3048921Y-21655830D01*
X3061218Y-21676347D01*
X3071446Y-21697971D01*
X3079504Y-21720493D01*
X3085316Y-21743697D01*
X3088826Y-21767358D01*
X3090000Y-21791250D01*
X3090000Y-22278750D01*
X3088826Y-22302642D01*
X3085316Y-22326303D01*
X3079504Y-22349507D01*
X3071446Y-22372029D01*
X3061218Y-22393653D01*
X3048921Y-22414170D01*
X3034671Y-22433383D01*
X3018607Y-22451107D01*
X3000883Y-22467171D01*
X2981670Y-22481421D01*
X2961153Y-22493718D01*
X2939529Y-22503946D01*
X2917007Y-22512004D01*
X2893803Y-22517816D01*
X2870142Y-22521326D01*
X2846250Y-22522500D01*
X1933750Y-22522500D01*
X1909858Y-22521326D01*
X1886197Y-22517816D01*
X1862993Y-22512004D01*
X1840471Y-22503946D01*
X1818847Y-22493718D01*
X1798330Y-22481421D01*
X1779117Y-22467171D01*
X1761393Y-22451107D01*
X1745329Y-22433383D01*
X1731079Y-22414170D01*
X1718782Y-22393653D01*
X1708554Y-22372029D01*
X1700496Y-22349507D01*
X1694684Y-22326303D01*
X1691174Y-22302642D01*
X1690000Y-22278750D01*
X1690000Y-21791250D01*
X1691174Y-21767358D01*
X1694684Y-21743697D01*
X1700496Y-21720493D01*
X1708554Y-21697971D01*
X1718782Y-21676347D01*
X1731079Y-21655830D01*
X1745329Y-21636617D01*
X1761393Y-21618893D01*
X1779117Y-21602829D01*
X1798330Y-21588579D01*
X1818847Y-21576282D01*
X1840471Y-21566054D01*
X1862993Y-21557996D01*
X1886197Y-21552184D01*
X1909858Y-21548674D01*
X1933750Y-21547500D01*
X2846250Y-21547500D01*
X2870142Y-21548674D01*
X2870142Y-21548674D01*
G37*
D20*
G04 #@! TD*
G04 #@! TO.P,C8,1*
G04 #@! TO.N,3.3V*
X2390000Y-22035000D03*
D21*
G04 #@! TO.N,3.3V*
X700000Y-11700000D03*
X10000000Y-20200000D03*
G04 #@! TO.N,GND*
X11000000Y-8000000D03*
X4000000Y-15300000D03*
X6300000Y-20300000D03*
X10000000Y-19400000D03*
X2600000Y-9900000D03*
X3700000Y-24300000D03*
X13100000Y-25000000D03*
X5700000Y-11500000D03*
X12000000Y-9900002D03*
G04 #@! TO.N,5V*
X4000000Y-8000000D03*
G04 #@! TO.N,swclk*
X5600000Y-7700000D03*
G04 #@! TO.N,swdio*
X9750000Y-7700000D03*
G04 #@! TO.N,d-*
X6500000Y-7700000D03*
G04 #@! TO.N,d+*
X8500000Y-7700000D03*
G04 #@! TO.N,sck*
X1300000Y-20500000D03*
G04 #@! TO.N,miso*
X1300000Y-14800000D03*
G04 #@! TO.N,mosi*
X4000000Y-18000000D03*
G04 #@! TO.N,cs*
X9700000Y-15300000D03*
G04 #@! TO.N,Net-(C10-Pad2)*
X4350000Y-20250000D03*
G04 #@! TO.N,nrst*
X8250000Y-20300000D03*
G04 #@! TD*
D22*
G04 #@! TO.N,3.3V*
X11350000Y-21537500D02*
X11412500Y-21600000D01*
X11350000Y-19950000D02*
X11350000Y-21537500D01*
X11362500Y-21550000D02*
X11412500Y-21600000D01*
X9750000Y-21550000D02*
X11362500Y-21550000D01*
X2600000Y-14400000D02*
X2650000Y-14450000D01*
X2600000Y-13800000D02*
X2600000Y-14400000D01*
X2600000Y-12787500D02*
X2600000Y-13800000D01*
X2600000Y-13800000D02*
X600000Y-13800000D01*
X5615001Y-22500001D02*
X2987501Y-22500001D01*
X5750000Y-22365002D02*
X5615001Y-22500001D01*
X5750000Y-21550000D02*
X5750000Y-22365002D01*
X600001Y-22500001D02*
X600000Y-22500000D01*
X2987501Y-22500001D02*
X600001Y-22500001D01*
X600000Y-22500000D02*
X600000Y-13800000D01*
X2987501Y-22500001D02*
X2987500Y-22500000D01*
X2987500Y-22500000D02*
X2400000Y-22500000D01*
X11350000Y-19950000D02*
X10250000Y-19950000D01*
X10250000Y-19950000D02*
X10000000Y-20200000D01*
X1400000Y-27600000D02*
X600000Y-26800000D01*
X600000Y-26800000D02*
X600000Y-22500000D01*
X4960000Y-28900000D02*
X3660000Y-27600000D01*
X3660000Y-27600000D02*
X1400000Y-27600000D01*
X12550000Y-19950000D02*
X11350000Y-19950000D01*
X13100000Y-12800000D02*
X13100000Y-19400000D01*
X13100000Y-19400000D02*
X12550000Y-19950000D01*
X9812500Y-12787500D02*
X9750000Y-12850000D01*
X13087500Y-12787500D02*
X9812500Y-12787500D01*
X10687500Y-4800000D02*
X10800000Y-4912500D01*
X11425000Y-4912500D02*
X13100000Y-6587500D01*
X10800000Y-4912500D02*
X11425000Y-4912500D01*
X13100000Y-6587500D02*
X13100000Y-12800000D01*
X8450000Y-4800000D02*
X10687500Y-4800000D01*
X13100000Y-12800000D02*
X13087500Y-12787500D01*
X2390000Y-22490000D02*
X2400000Y-22500000D01*
X2390000Y-22035000D02*
X2390000Y-22490000D01*
X7524990Y-5775010D02*
X8450000Y-4850000D01*
X1524990Y-5775010D02*
X7524990Y-5775010D01*
X1100000Y-6200000D02*
X1524990Y-5775010D01*
X600000Y-6700000D02*
X1100000Y-6200000D01*
X600000Y-13800000D02*
X600000Y-11700000D01*
X600000Y-11700000D02*
X600000Y-6700000D01*
X8450000Y-4850000D02*
X8450000Y-4800000D01*
G04 #@! TO.N,GND*
X2650000Y-14950000D02*
X3650000Y-14950000D01*
X3650000Y-14950000D02*
X4000000Y-15300000D01*
X6250000Y-21550000D02*
X6250000Y-20350000D01*
X6250000Y-20350000D02*
X6300000Y-20300000D01*
X11350000Y-19450000D02*
X10050000Y-19450000D01*
X10050000Y-19450000D02*
X10000000Y-19400000D01*
X2600000Y-11212500D02*
X2600000Y-10200000D01*
X12000000Y-11212500D02*
X12000000Y-9900002D01*
X9250000Y-12850000D02*
X9250000Y-12050000D01*
X9250000Y-12050000D02*
X9500000Y-11800000D01*
G04 #@! TO.N,5V*
X4312500Y-6800000D02*
X4200000Y-6687500D01*
X7500000Y-6800000D02*
X4312500Y-6800000D01*
X4000000Y-6887500D02*
X4200000Y-6687500D01*
X4000000Y-8000000D02*
X4000000Y-6887500D01*
X4000000Y-8424264D02*
X4000000Y-8000000D01*
X4378860Y-9700000D02*
X4000000Y-9321140D01*
X4000000Y-9321140D02*
X4000000Y-8424264D01*
X6340000Y-9700000D02*
X4378860Y-9700000D01*
G04 #@! TO.N,swclk*
X4862500Y-8750000D02*
X4800000Y-8812500D01*
X5600000Y-8750000D02*
X4862500Y-8750000D01*
X6340000Y-8750000D02*
X5600000Y-8750000D01*
X5600000Y-8750000D02*
X5600000Y-7700000D01*
G04 #@! TO.N,swdio*
X10137500Y-8750000D02*
X10200000Y-8812500D01*
X9400000Y-8750000D02*
X10137500Y-8750000D01*
X8660000Y-8750000D02*
X9400000Y-8750000D01*
X9450001Y-8699999D02*
X9400000Y-8750000D01*
X9450001Y-7999999D02*
X9450001Y-8699999D01*
X9750000Y-7700000D02*
X9450001Y-7999999D01*
G04 #@! TO.N,d-*
X6990001Y-10650000D02*
X6340000Y-10650000D01*
X6500000Y-7700000D02*
X6990001Y-8190001D01*
X6990001Y-8190001D02*
X6990001Y-10650000D01*
X6990001Y-11240001D02*
X6990001Y-10650000D01*
X7750000Y-12000000D02*
X6990001Y-11240001D01*
X7750000Y-12850000D02*
X7750000Y-12000000D01*
G04 #@! TO.N,d+*
X8500000Y-7700000D02*
X8009999Y-8190001D01*
X8009999Y-10650000D02*
X8660000Y-10650000D01*
X8009999Y-8190001D02*
X8009999Y-10650000D01*
X8250000Y-11650000D02*
X8250000Y-12000000D01*
X8009999Y-10650000D02*
X8009999Y-11409999D01*
X8250000Y-12000000D02*
X8250000Y-12850000D01*
X8009999Y-11409999D02*
X8250000Y-11650000D01*
G04 #@! TO.N,Net-(C4-Pad1)*
X10250000Y-25700000D02*
X9350000Y-24800000D01*
X11412500Y-26100000D02*
X10250000Y-26100000D01*
X8150000Y-25200000D02*
X9350000Y-25200000D01*
X7750000Y-21550000D02*
X7750000Y-24800000D01*
X7750000Y-24800000D02*
X8150000Y-25200000D01*
G04 #@! TO.N,Net-(C5-Pad1)*
X6850000Y-25200000D02*
X5650000Y-25200000D01*
X7250000Y-24800000D02*
X6850000Y-25200000D01*
X4750000Y-25700000D02*
X5650000Y-24800000D01*
X3587500Y-26100000D02*
X4750000Y-26100000D01*
X7250000Y-21550000D02*
X7250000Y-24800000D01*
G04 #@! TO.N,Net-(R2-Pad2)*
X10100000Y-10600000D02*
X8750000Y-11950000D01*
X10200000Y-10600000D02*
X10100000Y-10600000D01*
X8750000Y-11950000D02*
X8750000Y-12850000D01*
G04 #@! TO.N,sck*
X1300000Y-19400000D02*
X1300000Y-20500000D01*
X2650000Y-18950000D02*
X1750000Y-18950000D01*
X1750000Y-18950000D02*
X1300000Y-19400000D01*
G04 #@! TO.N,miso*
X1300000Y-17950000D02*
X1300000Y-14800000D01*
X2650000Y-18450000D02*
X1800000Y-18450000D01*
X1800000Y-18450000D02*
X1300000Y-17950000D01*
G04 #@! TO.N,mosi*
X2700000Y-18000000D02*
X2650000Y-17950000D01*
X4000000Y-18000000D02*
X2700000Y-18000000D01*
G04 #@! TO.N,cs*
X10050000Y-14950000D02*
X9700000Y-15300000D01*
X11350000Y-14950000D02*
X10050000Y-14950000D01*
G04 #@! TO.N,Net-(C10-Pad2)*
X4250000Y-20350000D02*
X4350000Y-20250000D01*
X4250000Y-21550000D02*
X4250000Y-20350000D01*
G04 #@! TO.N,nrst*
X8250000Y-21550000D02*
X8250000Y-20300000D01*
X7825736Y-20300000D02*
X8250000Y-20300000D01*
X7150000Y-20300000D02*
X7825736Y-20300000D01*
X6750000Y-20700000D02*
X7150000Y-20300000D01*
X6750000Y-21550000D02*
X6750000Y-20700000D01*
X8250000Y-21550000D02*
X8250000Y-22950000D01*
X10938388Y-23438388D02*
X11400000Y-23900000D01*
X8738388Y-23438388D02*
X10938388Y-23438388D01*
X8250000Y-22950000D02*
X8738388Y-23438388D01*
G04 #@! TO.N,nc1*
X4750000Y-10487500D02*
X4750000Y-12800000D01*
X10500000Y-14450000D02*
X11350000Y-14450000D01*
X5500000Y-14450000D02*
X10500000Y-14450000D01*
X4750000Y-13700000D02*
X5500000Y-14450000D01*
X4750000Y-12850000D02*
X4750000Y-13700000D01*
G04 #@! TD*
D23*
G04 #@! TO.N,GND*
G36*
X13345616Y-1165608D02*
X13638616Y-1361384D01*
X13834392Y-1654384D01*
X13905000Y-2009358D01*
X13905000Y-28990642D01*
X13834392Y-29345616D01*
X13750779Y-29470752D01*
X13750779Y-28250000D01*
X13727884Y-28134897D01*
X13662683Y-28037317D01*
X13565103Y-27972116D01*
X13450000Y-27949221D01*
X11750000Y-27949221D01*
X11634897Y-27972116D01*
X11537317Y-28037317D01*
X11472116Y-28134897D01*
X11449221Y-28250000D01*
X11449221Y-29905000D01*
X10899194Y-29905000D01*
X11138566Y-29546757D01*
X11227431Y-29100000D01*
X11138566Y-28653243D01*
X10885498Y-28274502D01*
X10506757Y-28021434D01*
X10172769Y-27955000D01*
X9947231Y-27955000D01*
X9613243Y-28021434D01*
X9234502Y-28274502D01*
X8981434Y-28653243D01*
X8892569Y-29100000D01*
X8981434Y-29546757D01*
X9220806Y-29905000D01*
X5819194Y-29905000D01*
X6058566Y-29546757D01*
X6147431Y-29100000D01*
X6058566Y-28653243D01*
X5805498Y-28274502D01*
X5426757Y-28021434D01*
X5092769Y-27955000D01*
X4867231Y-27955000D01*
X4622328Y-28003714D01*
X3966816Y-27348202D01*
X3944779Y-27315221D01*
X3814121Y-27227919D01*
X3698901Y-27205000D01*
X3660000Y-27197262D01*
X3621099Y-27205000D01*
X1563614Y-27205000D01*
X1095000Y-26736386D01*
X1095000Y-26208750D01*
X1180000Y-26208750D01*
X1180000Y-26653571D01*
X1240135Y-26798750D01*
X1351251Y-26909865D01*
X1496430Y-26970000D01*
X1903750Y-26970000D01*
X2002500Y-26871250D01*
X2002500Y-26110000D01*
X2022500Y-26110000D01*
X2022500Y-26871250D01*
X2121250Y-26970000D01*
X2528570Y-26970000D01*
X2673749Y-26909865D01*
X2784865Y-26798750D01*
X2845000Y-26653571D01*
X2845000Y-26208750D01*
X2746250Y-26110000D01*
X2022500Y-26110000D01*
X2002500Y-26110000D01*
X1278750Y-26110000D01*
X1180000Y-26208750D01*
X1095000Y-26208750D01*
X1095000Y-25546429D01*
X1180000Y-25546429D01*
X1180000Y-25991250D01*
X1278750Y-26090000D01*
X2002500Y-26090000D01*
X2002500Y-25328750D01*
X2022500Y-25328750D01*
X2022500Y-26090000D01*
X2746250Y-26090000D01*
X2845000Y-25991250D01*
X2845000Y-25843750D01*
X2849221Y-25843750D01*
X2849221Y-26356250D01*
X2888768Y-26555065D01*
X3001388Y-26723612D01*
X3169935Y-26836232D01*
X3368750Y-26875779D01*
X3806250Y-26875779D01*
X4005065Y-26836232D01*
X4173612Y-26723612D01*
X4286232Y-26555065D01*
X4298180Y-26495000D01*
X4368117Y-26495000D01*
X4372116Y-26515103D01*
X4437317Y-26612683D01*
X4534897Y-26677884D01*
X4650000Y-26700779D01*
X6650000Y-26700779D01*
X6765103Y-26677884D01*
X6862683Y-26612683D01*
X6927884Y-26515103D01*
X6950779Y-26400000D01*
X6950779Y-25582692D01*
X7004121Y-25572081D01*
X7134779Y-25484779D01*
X7156816Y-25451798D01*
X7500000Y-25108615D01*
X7843186Y-25451801D01*
X7865221Y-25484779D01*
X7995879Y-25572081D01*
X8049221Y-25582692D01*
X8049221Y-26400000D01*
X8072116Y-26515103D01*
X8137317Y-26612683D01*
X8234897Y-26677884D01*
X8350000Y-26700779D01*
X10350000Y-26700779D01*
X10465103Y-26677884D01*
X10562683Y-26612683D01*
X10627884Y-26515103D01*
X10631883Y-26495000D01*
X10701820Y-26495000D01*
X10713768Y-26555065D01*
X10826388Y-26723612D01*
X10994935Y-26836232D01*
X11193750Y-26875779D01*
X11631250Y-26875779D01*
X11830065Y-26836232D01*
X11998612Y-26723612D01*
X12111232Y-26555065D01*
X12150779Y-26356250D01*
X12150779Y-26208750D01*
X12155000Y-26208750D01*
X12155000Y-26653571D01*
X12215135Y-26798750D01*
X12326251Y-26909865D01*
X12471430Y-26970000D01*
X12878750Y-26970000D01*
X12977500Y-26871250D01*
X12977500Y-26110000D01*
X12997500Y-26110000D01*
X12997500Y-26871250D01*
X13096250Y-26970000D01*
X13503570Y-26970000D01*
X13648749Y-26909865D01*
X13759865Y-26798750D01*
X13820000Y-26653571D01*
X13820000Y-26208750D01*
X13721250Y-26110000D01*
X12997500Y-26110000D01*
X12977500Y-26110000D01*
X12253750Y-26110000D01*
X12155000Y-26208750D01*
X12150779Y-26208750D01*
X12150779Y-25843750D01*
X12111232Y-25644935D01*
X12045413Y-25546429D01*
X12155000Y-25546429D01*
X12155000Y-25991250D01*
X12253750Y-26090000D01*
X12977500Y-26090000D01*
X12977500Y-25328750D01*
X12997500Y-25328750D01*
X12997500Y-26090000D01*
X13721250Y-26090000D01*
X13820000Y-25991250D01*
X13820000Y-25546429D01*
X13759865Y-25401250D01*
X13648749Y-25290135D01*
X13503570Y-25230000D01*
X13096250Y-25230000D01*
X12997500Y-25328750D01*
X12977500Y-25328750D01*
X12878750Y-25230000D01*
X12471430Y-25230000D01*
X12326251Y-25290135D01*
X12215135Y-25401250D01*
X12155000Y-25546429D01*
X12045413Y-25546429D01*
X11998612Y-25476388D01*
X11830065Y-25363768D01*
X11631250Y-25324221D01*
X11193750Y-25324221D01*
X10994935Y-25363768D01*
X10826388Y-25476388D01*
X10713768Y-25644935D01*
X10701820Y-25705000D01*
X10651743Y-25705000D01*
X10652738Y-25699999D01*
X10650779Y-25690151D01*
X10650779Y-24000000D01*
X10627884Y-23884897D01*
X10593467Y-23833388D01*
X10661721Y-23833388D01*
X10661721Y-24156250D01*
X10701268Y-24355065D01*
X10813888Y-24523612D01*
X10982435Y-24636232D01*
X11181250Y-24675779D01*
X11618750Y-24675779D01*
X11817565Y-24636232D01*
X11986112Y-24523612D01*
X12098732Y-24355065D01*
X12138279Y-24156250D01*
X12138279Y-24008750D01*
X12142500Y-24008750D01*
X12142500Y-24453571D01*
X12202635Y-24598750D01*
X12313751Y-24709865D01*
X12458930Y-24770000D01*
X12866250Y-24770000D01*
X12965000Y-24671250D01*
X12965000Y-23910000D01*
X12985000Y-23910000D01*
X12985000Y-24671250D01*
X13083750Y-24770000D01*
X13491070Y-24770000D01*
X13636249Y-24709865D01*
X13747365Y-24598750D01*
X13807500Y-24453571D01*
X13807500Y-24008750D01*
X13708750Y-23910000D01*
X12985000Y-23910000D01*
X12965000Y-23910000D01*
X12241250Y-23910000D01*
X12142500Y-24008750D01*
X12138279Y-24008750D01*
X12138279Y-23643750D01*
X12098732Y-23444935D01*
X12032913Y-23346429D01*
X12142500Y-23346429D01*
X12142500Y-23791250D01*
X12241250Y-23890000D01*
X12965000Y-23890000D01*
X12965000Y-23128750D01*
X12985000Y-23128750D01*
X12985000Y-23890000D01*
X13708750Y-23890000D01*
X13807500Y-23791250D01*
X13807500Y-23346429D01*
X13747365Y-23201250D01*
X13636249Y-23090135D01*
X13491070Y-23030000D01*
X13083750Y-23030000D01*
X12985000Y-23128750D01*
X12965000Y-23128750D01*
X12866250Y-23030000D01*
X12458930Y-23030000D01*
X12313751Y-23090135D01*
X12202635Y-23201250D01*
X12142500Y-23346429D01*
X12032913Y-23346429D01*
X11986112Y-23276388D01*
X11817565Y-23163768D01*
X11618750Y-23124221D01*
X11181250Y-23124221D01*
X11179658Y-23124538D01*
X11092509Y-23066307D01*
X10977289Y-23043388D01*
X10938388Y-23035650D01*
X10899487Y-23043388D01*
X8902002Y-23043388D01*
X8645000Y-22786386D01*
X8645000Y-22500779D01*
X8867164Y-22500779D01*
X8901250Y-22534865D01*
X9046429Y-22595000D01*
X9141250Y-22595000D01*
X9240000Y-22496250D01*
X9240000Y-21560000D01*
X9220000Y-21560000D01*
X9220000Y-21540000D01*
X9240000Y-21540000D01*
X9240000Y-20603750D01*
X9141250Y-20505000D01*
X9046429Y-20505000D01*
X8901250Y-20565135D01*
X8867164Y-20599221D01*
X8770082Y-20599221D01*
X8845000Y-20418353D01*
X8845000Y-20181647D01*
X8754417Y-19962959D01*
X8587041Y-19795583D01*
X8368353Y-19705000D01*
X8131647Y-19705000D01*
X7912959Y-19795583D01*
X7803542Y-19905000D01*
X7188899Y-19905000D01*
X7149999Y-19897262D01*
X7111099Y-19905000D01*
X6995879Y-19927919D01*
X6865221Y-20015221D01*
X6843186Y-20048199D01*
X6498200Y-20393186D01*
X6465222Y-20415221D01*
X6443187Y-20448199D01*
X6443186Y-20448200D01*
X6405234Y-20505000D01*
X6358750Y-20505000D01*
X6260000Y-20603750D01*
X6260000Y-21540000D01*
X6280000Y-21540000D01*
X6280000Y-21560000D01*
X6260000Y-21560000D01*
X6260000Y-22496250D01*
X6358750Y-22595000D01*
X6453571Y-22595000D01*
X6598750Y-22534865D01*
X6632836Y-22500779D01*
X6855000Y-22500779D01*
X6855001Y-23782184D01*
X6765103Y-23722116D01*
X6650000Y-23699221D01*
X4650000Y-23699221D01*
X4534897Y-23722116D01*
X4437317Y-23787317D01*
X4372116Y-23884897D01*
X4349221Y-24000000D01*
X4349221Y-25690152D01*
X4347262Y-25700000D01*
X4348257Y-25705000D01*
X4298180Y-25705000D01*
X4286232Y-25644935D01*
X4173612Y-25476388D01*
X4005065Y-25363768D01*
X3806250Y-25324221D01*
X3368750Y-25324221D01*
X3169935Y-25363768D01*
X3001388Y-25476388D01*
X2888768Y-25644935D01*
X2849221Y-25843750D01*
X2845000Y-25843750D01*
X2845000Y-25546429D01*
X2784865Y-25401250D01*
X2673749Y-25290135D01*
X2528570Y-25230000D01*
X2121250Y-25230000D01*
X2022500Y-25328750D01*
X2002500Y-25328750D01*
X1903750Y-25230000D01*
X1496430Y-25230000D01*
X1351251Y-25290135D01*
X1240135Y-25401250D01*
X1180000Y-25546429D01*
X1095000Y-25546429D01*
X1095000Y-24018750D01*
X1295000Y-24018750D01*
X1295000Y-24476070D01*
X1355135Y-24621249D01*
X1466250Y-24732365D01*
X1611429Y-24792500D01*
X2281250Y-24792500D01*
X2380000Y-24693750D01*
X2380000Y-23920000D01*
X2400000Y-23920000D01*
X2400000Y-24693750D01*
X2498750Y-24792500D01*
X3168571Y-24792500D01*
X3313750Y-24732365D01*
X3424865Y-24621249D01*
X3485000Y-24476070D01*
X3485000Y-24018750D01*
X3386250Y-23920000D01*
X2400000Y-23920000D01*
X2380000Y-23920000D01*
X1393750Y-23920000D01*
X1295000Y-24018750D01*
X1095000Y-24018750D01*
X1095000Y-23343930D01*
X1295000Y-23343930D01*
X1295000Y-23801250D01*
X1393750Y-23900000D01*
X2380000Y-23900000D01*
X2380000Y-23126250D01*
X2400000Y-23126250D01*
X2400000Y-23900000D01*
X3386250Y-23900000D01*
X3485000Y-23801250D01*
X3485000Y-23343930D01*
X3424865Y-23198751D01*
X3313750Y-23087635D01*
X3168571Y-23027500D01*
X2498750Y-23027500D01*
X2400000Y-23126250D01*
X2380000Y-23126250D01*
X2281250Y-23027500D01*
X1611429Y-23027500D01*
X1466250Y-23087635D01*
X1355135Y-23198751D01*
X1295000Y-23343930D01*
X1095000Y-23343930D01*
X1095000Y-22895001D01*
X2361105Y-22895001D01*
X2399999Y-22902738D01*
X2438894Y-22895001D01*
X2948601Y-22895001D01*
X2987500Y-22902739D01*
X3026400Y-22895001D01*
X5576100Y-22895001D01*
X5615001Y-22902739D01*
X5653902Y-22895001D01*
X5769122Y-22872082D01*
X5899780Y-22784780D01*
X5921817Y-22751799D01*
X6001798Y-22671818D01*
X6034779Y-22649781D01*
X6071382Y-22595000D01*
X6141250Y-22595000D01*
X6240000Y-22496250D01*
X6240000Y-21560000D01*
X6220000Y-21560000D01*
X6220000Y-21540000D01*
X6240000Y-21540000D01*
X6240000Y-20603750D01*
X6141250Y-20505000D01*
X6046429Y-20505000D01*
X5901250Y-20565135D01*
X5867164Y-20599221D01*
X5625000Y-20599221D01*
X5509897Y-20622116D01*
X5500000Y-20628729D01*
X5490103Y-20622116D01*
X5375000Y-20599221D01*
X5125000Y-20599221D01*
X5009897Y-20622116D01*
X5000000Y-20628729D01*
X4990103Y-20622116D01*
X4875000Y-20599221D01*
X4842237Y-20599221D01*
X4854417Y-20587041D01*
X4945000Y-20368353D01*
X4945000Y-20131647D01*
X4854417Y-19912959D01*
X4687041Y-19745583D01*
X4468353Y-19655000D01*
X4231647Y-19655000D01*
X4012959Y-19745583D01*
X3845583Y-19912959D01*
X3755000Y-20131647D01*
X3755000Y-20368353D01*
X3845583Y-20587041D01*
X3855001Y-20596459D01*
X3855001Y-20773097D01*
X3847116Y-20784897D01*
X3824221Y-20900000D01*
X3824221Y-22105001D01*
X3390779Y-22105001D01*
X3390779Y-21791250D01*
X3349329Y-21582868D01*
X3231290Y-21406210D01*
X3054632Y-21288171D01*
X2846250Y-21246721D01*
X1933750Y-21246721D01*
X1725368Y-21288171D01*
X1548710Y-21406210D01*
X1430671Y-21582868D01*
X1389221Y-21791250D01*
X1389221Y-22105001D01*
X1095000Y-22105001D01*
X1095000Y-21059110D01*
X1181647Y-21095000D01*
X1418353Y-21095000D01*
X1637041Y-21004417D01*
X1804417Y-20837041D01*
X1895000Y-20618353D01*
X1895000Y-20381647D01*
X1882393Y-20351211D01*
X1884897Y-20352884D01*
X2000000Y-20375779D01*
X3300000Y-20375779D01*
X3415103Y-20352884D01*
X3512683Y-20287683D01*
X3577884Y-20190103D01*
X3600779Y-20075000D01*
X3600779Y-19825000D01*
X3577884Y-19709897D01*
X3571271Y-19700000D01*
X3577884Y-19690103D01*
X3600779Y-19575000D01*
X3600779Y-19325000D01*
X3577884Y-19209897D01*
X3571271Y-19200000D01*
X3577884Y-19190103D01*
X3600779Y-19075000D01*
X3600779Y-18825000D01*
X3577884Y-18709897D01*
X3571271Y-18700000D01*
X3577884Y-18690103D01*
X3600779Y-18575000D01*
X3600779Y-18442237D01*
X3662959Y-18504417D01*
X3881647Y-18595000D01*
X4118353Y-18595000D01*
X4337041Y-18504417D01*
X4504417Y-18337041D01*
X4595000Y-18118353D01*
X4595000Y-18058750D01*
X10305000Y-18058750D01*
X10305000Y-18153571D01*
X10365135Y-18298750D01*
X10399221Y-18332836D01*
X10399221Y-18575000D01*
X10422116Y-18690103D01*
X10428729Y-18700000D01*
X10422116Y-18709897D01*
X10399221Y-18825000D01*
X10399221Y-19067164D01*
X10365135Y-19101250D01*
X10305000Y-19246429D01*
X10305000Y-19341250D01*
X10403750Y-19440000D01*
X11340000Y-19440000D01*
X11340000Y-19420000D01*
X11360000Y-19420000D01*
X11360000Y-19440000D01*
X12296250Y-19440000D01*
X12395000Y-19341250D01*
X12395000Y-19246429D01*
X12334865Y-19101250D01*
X12300779Y-19067164D01*
X12300779Y-18825000D01*
X12277884Y-18709897D01*
X12271271Y-18700000D01*
X12277884Y-18690103D01*
X12300779Y-18575000D01*
X12300779Y-18332836D01*
X12334865Y-18298750D01*
X12395000Y-18153571D01*
X12395000Y-18058750D01*
X12296250Y-17960000D01*
X11360000Y-17960000D01*
X11360000Y-17980000D01*
X11340000Y-17980000D01*
X11340000Y-17960000D01*
X10403750Y-17960000D01*
X10305000Y-18058750D01*
X4595000Y-18058750D01*
X4595000Y-17881647D01*
X4504417Y-17662959D01*
X4337041Y-17495583D01*
X4118353Y-17405000D01*
X3881647Y-17405000D01*
X3662959Y-17495583D01*
X3600779Y-17557763D01*
X3600779Y-17325000D01*
X3577884Y-17209897D01*
X3571271Y-17200000D01*
X3577884Y-17190103D01*
X3600779Y-17075000D01*
X3600779Y-16825000D01*
X3577884Y-16709897D01*
X3571271Y-16700000D01*
X3577884Y-16690103D01*
X3600779Y-16575000D01*
X3600779Y-16558750D01*
X10305000Y-16558750D01*
X10305000Y-16653571D01*
X10365135Y-16798750D01*
X10399221Y-16832836D01*
X10399221Y-17075000D01*
X10422116Y-17190103D01*
X10428729Y-17200000D01*
X10422116Y-17209897D01*
X10399221Y-17325000D01*
X10399221Y-17567164D01*
X10365135Y-17601250D01*
X10305000Y-17746429D01*
X10305000Y-17841250D01*
X10403750Y-17940000D01*
X11340000Y-17940000D01*
X11340000Y-17920000D01*
X11360000Y-17920000D01*
X11360000Y-17940000D01*
X12296250Y-17940000D01*
X12395000Y-17841250D01*
X12395000Y-17746429D01*
X12334865Y-17601250D01*
X12300779Y-17567164D01*
X12300779Y-17325000D01*
X12277884Y-17209897D01*
X12271271Y-17200000D01*
X12277884Y-17190103D01*
X12300779Y-17075000D01*
X12300779Y-16832836D01*
X12334865Y-16798750D01*
X12395000Y-16653571D01*
X12395000Y-16558750D01*
X12296250Y-16460000D01*
X11360000Y-16460000D01*
X11360000Y-16480000D01*
X11340000Y-16480000D01*
X11340000Y-16460000D01*
X10403750Y-16460000D01*
X10305000Y-16558750D01*
X3600779Y-16558750D01*
X3600779Y-16325000D01*
X3577884Y-16209897D01*
X3571271Y-16200000D01*
X3577884Y-16190103D01*
X3600779Y-16075000D01*
X3600779Y-15825000D01*
X3577884Y-15709897D01*
X3571271Y-15700000D01*
X3577884Y-15690103D01*
X3600779Y-15575000D01*
X3600779Y-15332836D01*
X3634865Y-15298750D01*
X3695000Y-15153571D01*
X3695000Y-15058750D01*
X3596250Y-14960000D01*
X2660000Y-14960000D01*
X2660000Y-14980000D01*
X2640000Y-14980000D01*
X2640000Y-14960000D01*
X2620000Y-14960000D01*
X2620000Y-14940000D01*
X2640000Y-14940000D01*
X2640000Y-14920000D01*
X2660000Y-14920000D01*
X2660000Y-14940000D01*
X3596250Y-14940000D01*
X3695000Y-14841250D01*
X3695000Y-14746429D01*
X3634865Y-14601250D01*
X3600779Y-14567164D01*
X3600779Y-14325000D01*
X3577884Y-14209897D01*
X3512683Y-14112317D01*
X3415103Y-14047116D01*
X3300000Y-14024221D01*
X2995000Y-14024221D01*
X2995000Y-13838901D01*
X3002738Y-13800000D01*
X2995000Y-13761099D01*
X2995000Y-13498180D01*
X3055065Y-13486232D01*
X3223612Y-13373612D01*
X3336232Y-13205065D01*
X3375779Y-13006250D01*
X3375779Y-12568750D01*
X3336232Y-12369935D01*
X3223612Y-12201388D01*
X3055065Y-12088768D01*
X2856250Y-12049221D01*
X2343750Y-12049221D01*
X2144935Y-12088768D01*
X1976388Y-12201388D01*
X1863768Y-12369935D01*
X1824221Y-12568750D01*
X1824221Y-13006250D01*
X1863768Y-13205065D01*
X1976388Y-13373612D01*
X2023363Y-13405000D01*
X1095000Y-13405000D01*
X1095000Y-12146458D01*
X1204417Y-12037041D01*
X1295000Y-11818353D01*
X1295000Y-11581647D01*
X1204417Y-11362959D01*
X1162708Y-11321250D01*
X1730000Y-11321250D01*
X1730000Y-11728570D01*
X1790135Y-11873749D01*
X1901250Y-11984865D01*
X2046429Y-12045000D01*
X2491250Y-12045000D01*
X2590000Y-11946250D01*
X2590000Y-11222500D01*
X2610000Y-11222500D01*
X2610000Y-11946250D01*
X2708750Y-12045000D01*
X3153571Y-12045000D01*
X3298750Y-11984865D01*
X3409865Y-11873749D01*
X3470000Y-11728570D01*
X3470000Y-11321250D01*
X3371250Y-11222500D01*
X2610000Y-11222500D01*
X2590000Y-11222500D01*
X1828750Y-11222500D01*
X1730000Y-11321250D01*
X1162708Y-11321250D01*
X1095000Y-11253542D01*
X1095000Y-10696430D01*
X1730000Y-10696430D01*
X1730000Y-11103750D01*
X1828750Y-11202500D01*
X2590000Y-11202500D01*
X2590000Y-10478750D01*
X2610000Y-10478750D01*
X2610000Y-11202500D01*
X3371250Y-11202500D01*
X3470000Y-11103750D01*
X3470000Y-10696430D01*
X3409865Y-10551251D01*
X3298750Y-10440135D01*
X3153571Y-10380000D01*
X2708750Y-10380000D01*
X2610000Y-10478750D01*
X2590000Y-10478750D01*
X2491250Y-10380000D01*
X2046429Y-10380000D01*
X1901250Y-10440135D01*
X1790135Y-10551251D01*
X1730000Y-10696430D01*
X1095000Y-10696430D01*
X1095000Y-6763614D01*
X1688604Y-6170010D01*
X3317751Y-6170010D01*
X3240671Y-6285368D01*
X3199221Y-6493750D01*
X3199221Y-6981250D01*
X3240671Y-7189632D01*
X3358710Y-7366290D01*
X3535368Y-7484329D01*
X3605000Y-7498180D01*
X3605000Y-7553542D01*
X3495583Y-7662959D01*
X3405000Y-7881647D01*
X3405000Y-8118353D01*
X3495583Y-8337041D01*
X3605000Y-8446458D01*
X3605000Y-8463164D01*
X3605001Y-8463169D01*
X3605000Y-9282239D01*
X3597262Y-9321140D01*
X3605000Y-9360040D01*
X3627919Y-9475260D01*
X3715221Y-9605919D01*
X3748202Y-9627956D01*
X4072044Y-9951798D01*
X4094081Y-9984779D01*
X4112462Y-9997060D01*
X4063768Y-10069935D01*
X4024221Y-10268750D01*
X4024221Y-10706250D01*
X4063768Y-10905065D01*
X4176388Y-11073612D01*
X4344935Y-11186232D01*
X4355000Y-11188234D01*
X4355001Y-11899221D01*
X4125000Y-11899221D01*
X4009897Y-11922116D01*
X3912317Y-11987317D01*
X3847116Y-12084897D01*
X3824221Y-12200000D01*
X3824221Y-13500000D01*
X3847116Y-13615103D01*
X3912317Y-13712683D01*
X4009897Y-13777884D01*
X4125000Y-13800779D01*
X4367309Y-13800779D01*
X4377919Y-13854120D01*
X4377920Y-13854121D01*
X4465222Y-13984779D01*
X4498200Y-14006814D01*
X5193186Y-14701801D01*
X5215221Y-14734779D01*
X5345879Y-14822081D01*
X5461099Y-14845000D01*
X5499999Y-14852738D01*
X5538899Y-14845000D01*
X9313542Y-14845000D01*
X9195583Y-14962959D01*
X9105000Y-15181647D01*
X9105000Y-15418353D01*
X9195583Y-15637041D01*
X9362959Y-15804417D01*
X9581647Y-15895000D01*
X9818353Y-15895000D01*
X10037041Y-15804417D01*
X10204417Y-15637041D01*
X10236846Y-15558750D01*
X10305000Y-15558750D01*
X10305000Y-15653571D01*
X10365135Y-15798750D01*
X10399221Y-15832836D01*
X10399221Y-16067164D01*
X10365135Y-16101250D01*
X10305000Y-16246429D01*
X10305000Y-16341250D01*
X10403750Y-16440000D01*
X11340000Y-16440000D01*
X11340000Y-16420000D01*
X11360000Y-16420000D01*
X11360000Y-16440000D01*
X12296250Y-16440000D01*
X12395000Y-16341250D01*
X12395000Y-16246429D01*
X12334865Y-16101250D01*
X12300779Y-16067164D01*
X12300779Y-15832836D01*
X12334865Y-15798750D01*
X12395000Y-15653571D01*
X12395000Y-15558750D01*
X12296250Y-15460000D01*
X11360000Y-15460000D01*
X11360000Y-15480000D01*
X11340000Y-15480000D01*
X11340000Y-15460000D01*
X10403750Y-15460000D01*
X10305000Y-15558750D01*
X10236846Y-15558750D01*
X10295000Y-15418353D01*
X10295000Y-15345000D01*
X10308750Y-15345000D01*
X10403750Y-15440000D01*
X11340000Y-15440000D01*
X11340000Y-15420000D01*
X11360000Y-15420000D01*
X11360000Y-15440000D01*
X12296250Y-15440000D01*
X12395000Y-15341250D01*
X12395000Y-15246429D01*
X12334865Y-15101250D01*
X12300779Y-15067164D01*
X12300779Y-14825000D01*
X12277884Y-14709897D01*
X12271271Y-14700000D01*
X12277884Y-14690103D01*
X12300779Y-14575000D01*
X12300779Y-14325000D01*
X12277884Y-14209897D01*
X12212683Y-14112317D01*
X12115103Y-14047116D01*
X12000000Y-14024221D01*
X10700000Y-14024221D01*
X10584897Y-14047116D01*
X10573098Y-14055000D01*
X5663615Y-14055000D01*
X5473340Y-13864726D01*
X5546429Y-13895000D01*
X5641250Y-13895000D01*
X5740000Y-13796250D01*
X5740000Y-12860000D01*
X5720000Y-12860000D01*
X5720000Y-12840000D01*
X5740000Y-12840000D01*
X5740000Y-11903750D01*
X5760000Y-11903750D01*
X5760000Y-12840000D01*
X5780000Y-12840000D01*
X5780000Y-12860000D01*
X5760000Y-12860000D01*
X5760000Y-13796250D01*
X5858750Y-13895000D01*
X5953571Y-13895000D01*
X6098750Y-13834865D01*
X6132836Y-13800779D01*
X6367164Y-13800779D01*
X6401250Y-13834865D01*
X6546429Y-13895000D01*
X6641250Y-13895000D01*
X6740000Y-13796250D01*
X6740000Y-12860000D01*
X6720000Y-12860000D01*
X6720000Y-12840000D01*
X6740000Y-12840000D01*
X6740000Y-11903750D01*
X6641250Y-11805000D01*
X6546429Y-11805000D01*
X6401250Y-11865135D01*
X6367164Y-11899221D01*
X6132836Y-11899221D01*
X6098750Y-11865135D01*
X5953571Y-11805000D01*
X5858750Y-11805000D01*
X5760000Y-11903750D01*
X5740000Y-11903750D01*
X5641250Y-11805000D01*
X5546429Y-11805000D01*
X5401250Y-11865135D01*
X5367164Y-11899221D01*
X5145000Y-11899221D01*
X5145000Y-11208125D01*
X5255065Y-11186232D01*
X5423612Y-11073612D01*
X5536232Y-10905065D01*
X5575779Y-10706250D01*
X5575779Y-10268750D01*
X5541218Y-10095000D01*
X5728752Y-10095000D01*
X5777317Y-10167683D01*
X5788268Y-10175000D01*
X5777317Y-10182317D01*
X5712116Y-10279897D01*
X5689221Y-10395000D01*
X5689221Y-10905000D01*
X5712116Y-11020103D01*
X5777317Y-11117683D01*
X5874897Y-11182884D01*
X5990000Y-11205779D01*
X6594070Y-11205779D01*
X6587263Y-11240001D01*
X6595001Y-11278901D01*
X6617920Y-11394121D01*
X6705222Y-11524780D01*
X6738203Y-11546817D01*
X7026661Y-11835275D01*
X6953571Y-11805000D01*
X6858750Y-11805000D01*
X6760000Y-11903750D01*
X6760000Y-12840000D01*
X6780000Y-12840000D01*
X6780000Y-12860000D01*
X6760000Y-12860000D01*
X6760000Y-13796250D01*
X6858750Y-13895000D01*
X6953571Y-13895000D01*
X7098750Y-13834865D01*
X7132836Y-13800779D01*
X7375000Y-13800779D01*
X7490103Y-13777884D01*
X7500000Y-13771271D01*
X7509897Y-13777884D01*
X7625000Y-13800779D01*
X7875000Y-13800779D01*
X7990103Y-13777884D01*
X8000000Y-13771271D01*
X8009897Y-13777884D01*
X8125000Y-13800779D01*
X8375000Y-13800779D01*
X8490103Y-13777884D01*
X8500000Y-13771271D01*
X8509897Y-13777884D01*
X8625000Y-13800779D01*
X8867164Y-13800779D01*
X8901250Y-13834865D01*
X9046429Y-13895000D01*
X9141250Y-13895000D01*
X9240000Y-13796250D01*
X9240000Y-12860000D01*
X9220000Y-12860000D01*
X9220000Y-12840000D01*
X9240000Y-12840000D01*
X9240000Y-12820000D01*
X9260000Y-12820000D01*
X9260000Y-12840000D01*
X9280000Y-12840000D01*
X9280000Y-12860000D01*
X9260000Y-12860000D01*
X9260000Y-13796250D01*
X9358750Y-13895000D01*
X9453571Y-13895000D01*
X9598750Y-13834865D01*
X9632836Y-13800779D01*
X9875000Y-13800779D01*
X9990103Y-13777884D01*
X10087683Y-13712683D01*
X10152884Y-13615103D01*
X10175779Y-13500000D01*
X10175779Y-13182500D01*
X11259280Y-13182500D01*
X11263768Y-13205065D01*
X11376388Y-13373612D01*
X11544935Y-13486232D01*
X11743750Y-13525779D01*
X12256250Y-13525779D01*
X12455065Y-13486232D01*
X12623612Y-13373612D01*
X12705000Y-13251807D01*
X12705001Y-19236384D01*
X12388818Y-19552568D01*
X12296250Y-19460000D01*
X11360000Y-19460000D01*
X11360000Y-19480000D01*
X11340000Y-19480000D01*
X11340000Y-19460000D01*
X10403750Y-19460000D01*
X10308750Y-19555000D01*
X10288899Y-19555000D01*
X10249999Y-19547262D01*
X10211099Y-19555000D01*
X10095879Y-19577919D01*
X10055349Y-19605000D01*
X9881647Y-19605000D01*
X9662959Y-19695583D01*
X9495583Y-19862959D01*
X9405000Y-20081647D01*
X9405000Y-20318353D01*
X9488264Y-20519370D01*
X9453571Y-20505000D01*
X9358750Y-20505000D01*
X9260000Y-20603750D01*
X9260000Y-21540000D01*
X9280000Y-21540000D01*
X9280000Y-21560000D01*
X9260000Y-21560000D01*
X9260000Y-22496250D01*
X9358750Y-22595000D01*
X9453571Y-22595000D01*
X9598750Y-22534865D01*
X9632836Y-22500779D01*
X9875000Y-22500779D01*
X9990103Y-22477884D01*
X10087683Y-22412683D01*
X10152884Y-22315103D01*
X10175779Y-22200000D01*
X10175779Y-21945000D01*
X10691875Y-21945000D01*
X10713768Y-22055065D01*
X10826388Y-22223612D01*
X10994935Y-22336232D01*
X11193750Y-22375779D01*
X11631250Y-22375779D01*
X11830065Y-22336232D01*
X11998612Y-22223612D01*
X12111232Y-22055065D01*
X12150779Y-21856250D01*
X12150779Y-21708750D01*
X12155000Y-21708750D01*
X12155000Y-22153571D01*
X12215135Y-22298750D01*
X12326251Y-22409865D01*
X12471430Y-22470000D01*
X12878750Y-22470000D01*
X12977500Y-22371250D01*
X12977500Y-21610000D01*
X12997500Y-21610000D01*
X12997500Y-22371250D01*
X13096250Y-22470000D01*
X13503570Y-22470000D01*
X13648749Y-22409865D01*
X13759865Y-22298750D01*
X13820000Y-22153571D01*
X13820000Y-21708750D01*
X13721250Y-21610000D01*
X12997500Y-21610000D01*
X12977500Y-21610000D01*
X12253750Y-21610000D01*
X12155000Y-21708750D01*
X12150779Y-21708750D01*
X12150779Y-21343750D01*
X12111232Y-21144935D01*
X12045413Y-21046429D01*
X12155000Y-21046429D01*
X12155000Y-21491250D01*
X12253750Y-21590000D01*
X12977500Y-21590000D01*
X12977500Y-20828750D01*
X12997500Y-20828750D01*
X12997500Y-21590000D01*
X13721250Y-21590000D01*
X13820000Y-21491250D01*
X13820000Y-21046429D01*
X13759865Y-20901250D01*
X13648749Y-20790135D01*
X13503570Y-20730000D01*
X13096250Y-20730000D01*
X12997500Y-20828750D01*
X12977500Y-20828750D01*
X12878750Y-20730000D01*
X12471430Y-20730000D01*
X12326251Y-20790135D01*
X12215135Y-20901250D01*
X12155000Y-21046429D01*
X12045413Y-21046429D01*
X11998612Y-20976388D01*
X11830065Y-20863768D01*
X11745000Y-20846847D01*
X11745000Y-20375779D01*
X12000000Y-20375779D01*
X12115103Y-20352884D01*
X12126902Y-20345000D01*
X12511099Y-20345000D01*
X12550000Y-20352738D01*
X12588901Y-20345000D01*
X12704121Y-20322081D01*
X12834779Y-20234779D01*
X12856816Y-20201798D01*
X13351801Y-19706814D01*
X13384779Y-19684779D01*
X13472081Y-19554121D01*
X13495000Y-19438901D01*
X13495000Y-19438897D01*
X13502737Y-19400001D01*
X13495000Y-19361105D01*
X13495000Y-12838901D01*
X13502738Y-12800000D01*
X13495000Y-12761099D01*
X13495000Y-6626401D01*
X13502738Y-6587500D01*
X13472081Y-6433379D01*
X13416369Y-6350000D01*
X13384779Y-6302721D01*
X13351799Y-6280685D01*
X11800779Y-4729665D01*
X11800779Y-4618750D01*
X11759329Y-4410368D01*
X11641290Y-4233710D01*
X11464632Y-4115671D01*
X11256250Y-4074221D01*
X10343750Y-4074221D01*
X10135368Y-4115671D01*
X9958710Y-4233710D01*
X9844258Y-4405000D01*
X9150779Y-4405000D01*
X9150779Y-4350000D01*
X9127884Y-4234897D01*
X9062683Y-4137317D01*
X8965103Y-4072116D01*
X8850000Y-4049221D01*
X8050000Y-4049221D01*
X7934897Y-4072116D01*
X7837317Y-4137317D01*
X7772116Y-4234897D01*
X7749221Y-4350000D01*
X7749221Y-4992165D01*
X7361376Y-5380010D01*
X7323693Y-5380010D01*
X7345000Y-5328570D01*
X7345000Y-4908750D01*
X7246250Y-4810000D01*
X6560000Y-4810000D01*
X6560000Y-4830000D01*
X6540000Y-4830000D01*
X6540000Y-4810000D01*
X5853750Y-4810000D01*
X5755000Y-4908750D01*
X5755000Y-5328570D01*
X5776307Y-5380010D01*
X5295000Y-5380010D01*
X5295000Y-4971250D01*
X5196250Y-4872500D01*
X4210000Y-4872500D01*
X4210000Y-4892500D01*
X4190000Y-4892500D01*
X4190000Y-4872500D01*
X3203750Y-4872500D01*
X3105000Y-4971250D01*
X3105000Y-5380010D01*
X1563891Y-5380010D01*
X1524990Y-5372272D01*
X1486089Y-5380010D01*
X1370869Y-5402929D01*
X1240211Y-5490231D01*
X1218174Y-5523212D01*
X1095000Y-5646386D01*
X1095000Y-4296430D01*
X3105000Y-4296430D01*
X3105000Y-4753750D01*
X3203750Y-4852500D01*
X4190000Y-4852500D01*
X4190000Y-4078750D01*
X4210000Y-4078750D01*
X4210000Y-4852500D01*
X5196250Y-4852500D01*
X5295000Y-4753750D01*
X5295000Y-4296430D01*
X5284645Y-4271430D01*
X5755000Y-4271430D01*
X5755000Y-4691250D01*
X5853750Y-4790000D01*
X6540000Y-4790000D01*
X6540000Y-4053750D01*
X6560000Y-4053750D01*
X6560000Y-4790000D01*
X7246250Y-4790000D01*
X7345000Y-4691250D01*
X7345000Y-4271430D01*
X7284865Y-4126251D01*
X7173750Y-4015135D01*
X7028571Y-3955000D01*
X6658750Y-3955000D01*
X6560000Y-4053750D01*
X6540000Y-4053750D01*
X6441250Y-3955000D01*
X6071429Y-3955000D01*
X5926250Y-4015135D01*
X5815135Y-4126251D01*
X5755000Y-4271430D01*
X5284645Y-4271430D01*
X5234865Y-4151251D01*
X5123750Y-4040135D01*
X4978571Y-3980000D01*
X4308750Y-3980000D01*
X4210000Y-4078750D01*
X4190000Y-4078750D01*
X4091250Y-3980000D01*
X3421429Y-3980000D01*
X3276250Y-4040135D01*
X3165135Y-4151251D01*
X3105000Y-4296430D01*
X1095000Y-4296430D01*
X1095000Y-2931919D01*
X4355000Y-2931919D01*
X4355000Y-3268081D01*
X4483643Y-3578654D01*
X4721346Y-3816357D01*
X5031919Y-3945000D01*
X5368081Y-3945000D01*
X5678654Y-3816357D01*
X5916357Y-3578654D01*
X6045000Y-3268081D01*
X6045000Y-2931919D01*
X8955000Y-2931919D01*
X8955000Y-3268081D01*
X9083643Y-3578654D01*
X9321346Y-3816357D01*
X9631919Y-3945000D01*
X9968081Y-3945000D01*
X10278654Y-3816357D01*
X10516357Y-3578654D01*
X10645000Y-3268081D01*
X10645000Y-2931919D01*
X10516357Y-2621346D01*
X10278654Y-2383643D01*
X9968081Y-2255000D01*
X9631919Y-2255000D01*
X9321346Y-2383643D01*
X9083643Y-2621346D01*
X8955000Y-2931919D01*
X6045000Y-2931919D01*
X5916357Y-2621346D01*
X5678654Y-2383643D01*
X5368081Y-2255000D01*
X5031919Y-2255000D01*
X4721346Y-2383643D01*
X4483643Y-2621346D01*
X4355000Y-2931919D01*
X1095000Y-2931919D01*
X1095000Y-2009358D01*
X1165608Y-1654384D01*
X1361384Y-1361384D01*
X1654384Y-1165608D01*
X2009358Y-1095000D01*
X12990642Y-1095000D01*
X13345616Y-1165608D01*
X13345616Y-1165608D01*
G37*
X13345616Y-1165608D02*
X13638616Y-1361384D01*
X13834392Y-1654384D01*
X13905000Y-2009358D01*
X13905000Y-28990642D01*
X13834392Y-29345616D01*
X13750779Y-29470752D01*
X13750779Y-28250000D01*
X13727884Y-28134897D01*
X13662683Y-28037317D01*
X13565103Y-27972116D01*
X13450000Y-27949221D01*
X11750000Y-27949221D01*
X11634897Y-27972116D01*
X11537317Y-28037317D01*
X11472116Y-28134897D01*
X11449221Y-28250000D01*
X11449221Y-29905000D01*
X10899194Y-29905000D01*
X11138566Y-29546757D01*
X11227431Y-29100000D01*
X11138566Y-28653243D01*
X10885498Y-28274502D01*
X10506757Y-28021434D01*
X10172769Y-27955000D01*
X9947231Y-27955000D01*
X9613243Y-28021434D01*
X9234502Y-28274502D01*
X8981434Y-28653243D01*
X8892569Y-29100000D01*
X8981434Y-29546757D01*
X9220806Y-29905000D01*
X5819194Y-29905000D01*
X6058566Y-29546757D01*
X6147431Y-29100000D01*
X6058566Y-28653243D01*
X5805498Y-28274502D01*
X5426757Y-28021434D01*
X5092769Y-27955000D01*
X4867231Y-27955000D01*
X4622328Y-28003714D01*
X3966816Y-27348202D01*
X3944779Y-27315221D01*
X3814121Y-27227919D01*
X3698901Y-27205000D01*
X3660000Y-27197262D01*
X3621099Y-27205000D01*
X1563614Y-27205000D01*
X1095000Y-26736386D01*
X1095000Y-26208750D01*
X1180000Y-26208750D01*
X1180000Y-26653571D01*
X1240135Y-26798750D01*
X1351251Y-26909865D01*
X1496430Y-26970000D01*
X1903750Y-26970000D01*
X2002500Y-26871250D01*
X2002500Y-26110000D01*
X2022500Y-26110000D01*
X2022500Y-26871250D01*
X2121250Y-26970000D01*
X2528570Y-26970000D01*
X2673749Y-26909865D01*
X2784865Y-26798750D01*
X2845000Y-26653571D01*
X2845000Y-26208750D01*
X2746250Y-26110000D01*
X2022500Y-26110000D01*
X2002500Y-26110000D01*
X1278750Y-26110000D01*
X1180000Y-26208750D01*
X1095000Y-26208750D01*
X1095000Y-25546429D01*
X1180000Y-25546429D01*
X1180000Y-25991250D01*
X1278750Y-26090000D01*
X2002500Y-26090000D01*
X2002500Y-25328750D01*
X2022500Y-25328750D01*
X2022500Y-26090000D01*
X2746250Y-26090000D01*
X2845000Y-25991250D01*
X2845000Y-25843750D01*
X2849221Y-25843750D01*
X2849221Y-26356250D01*
X2888768Y-26555065D01*
X3001388Y-26723612D01*
X3169935Y-26836232D01*
X3368750Y-26875779D01*
X3806250Y-26875779D01*
X4005065Y-26836232D01*
X4173612Y-26723612D01*
X4286232Y-26555065D01*
X4298180Y-26495000D01*
X4368117Y-26495000D01*
X4372116Y-26515103D01*
X4437317Y-26612683D01*
X4534897Y-26677884D01*
X4650000Y-26700779D01*
X6650000Y-26700779D01*
X6765103Y-26677884D01*
X6862683Y-26612683D01*
X6927884Y-26515103D01*
X6950779Y-26400000D01*
X6950779Y-25582692D01*
X7004121Y-25572081D01*
X7134779Y-25484779D01*
X7156816Y-25451798D01*
X7500000Y-25108615D01*
X7843186Y-25451801D01*
X7865221Y-25484779D01*
X7995879Y-25572081D01*
X8049221Y-25582692D01*
X8049221Y-26400000D01*
X8072116Y-26515103D01*
X8137317Y-26612683D01*
X8234897Y-26677884D01*
X8350000Y-26700779D01*
X10350000Y-26700779D01*
X10465103Y-26677884D01*
X10562683Y-26612683D01*
X10627884Y-26515103D01*
X10631883Y-26495000D01*
X10701820Y-26495000D01*
X10713768Y-26555065D01*
X10826388Y-26723612D01*
X10994935Y-26836232D01*
X11193750Y-26875779D01*
X11631250Y-26875779D01*
X11830065Y-26836232D01*
X11998612Y-26723612D01*
X12111232Y-26555065D01*
X12150779Y-26356250D01*
X12150779Y-26208750D01*
X12155000Y-26208750D01*
X12155000Y-26653571D01*
X12215135Y-26798750D01*
X12326251Y-26909865D01*
X12471430Y-26970000D01*
X12878750Y-26970000D01*
X12977500Y-26871250D01*
X12977500Y-26110000D01*
X12997500Y-26110000D01*
X12997500Y-26871250D01*
X13096250Y-26970000D01*
X13503570Y-26970000D01*
X13648749Y-26909865D01*
X13759865Y-26798750D01*
X13820000Y-26653571D01*
X13820000Y-26208750D01*
X13721250Y-26110000D01*
X12997500Y-26110000D01*
X12977500Y-26110000D01*
X12253750Y-26110000D01*
X12155000Y-26208750D01*
X12150779Y-26208750D01*
X12150779Y-25843750D01*
X12111232Y-25644935D01*
X12045413Y-25546429D01*
X12155000Y-25546429D01*
X12155000Y-25991250D01*
X12253750Y-26090000D01*
X12977500Y-26090000D01*
X12977500Y-25328750D01*
X12997500Y-25328750D01*
X12997500Y-26090000D01*
X13721250Y-26090000D01*
X13820000Y-25991250D01*
X13820000Y-25546429D01*
X13759865Y-25401250D01*
X13648749Y-25290135D01*
X13503570Y-25230000D01*
X13096250Y-25230000D01*
X12997500Y-25328750D01*
X12977500Y-25328750D01*
X12878750Y-25230000D01*
X12471430Y-25230000D01*
X12326251Y-25290135D01*
X12215135Y-25401250D01*
X12155000Y-25546429D01*
X12045413Y-25546429D01*
X11998612Y-25476388D01*
X11830065Y-25363768D01*
X11631250Y-25324221D01*
X11193750Y-25324221D01*
X10994935Y-25363768D01*
X10826388Y-25476388D01*
X10713768Y-25644935D01*
X10701820Y-25705000D01*
X10651743Y-25705000D01*
X10652738Y-25699999D01*
X10650779Y-25690151D01*
X10650779Y-24000000D01*
X10627884Y-23884897D01*
X10593467Y-23833388D01*
X10661721Y-23833388D01*
X10661721Y-24156250D01*
X10701268Y-24355065D01*
X10813888Y-24523612D01*
X10982435Y-24636232D01*
X11181250Y-24675779D01*
X11618750Y-24675779D01*
X11817565Y-24636232D01*
X11986112Y-24523612D01*
X12098732Y-24355065D01*
X12138279Y-24156250D01*
X12138279Y-24008750D01*
X12142500Y-24008750D01*
X12142500Y-24453571D01*
X12202635Y-24598750D01*
X12313751Y-24709865D01*
X12458930Y-24770000D01*
X12866250Y-24770000D01*
X12965000Y-24671250D01*
X12965000Y-23910000D01*
X12985000Y-23910000D01*
X12985000Y-24671250D01*
X13083750Y-24770000D01*
X13491070Y-24770000D01*
X13636249Y-24709865D01*
X13747365Y-24598750D01*
X13807500Y-24453571D01*
X13807500Y-24008750D01*
X13708750Y-23910000D01*
X12985000Y-23910000D01*
X12965000Y-23910000D01*
X12241250Y-23910000D01*
X12142500Y-24008750D01*
X12138279Y-24008750D01*
X12138279Y-23643750D01*
X12098732Y-23444935D01*
X12032913Y-23346429D01*
X12142500Y-23346429D01*
X12142500Y-23791250D01*
X12241250Y-23890000D01*
X12965000Y-23890000D01*
X12965000Y-23128750D01*
X12985000Y-23128750D01*
X12985000Y-23890000D01*
X13708750Y-23890000D01*
X13807500Y-23791250D01*
X13807500Y-23346429D01*
X13747365Y-23201250D01*
X13636249Y-23090135D01*
X13491070Y-23030000D01*
X13083750Y-23030000D01*
X12985000Y-23128750D01*
X12965000Y-23128750D01*
X12866250Y-23030000D01*
X12458930Y-23030000D01*
X12313751Y-23090135D01*
X12202635Y-23201250D01*
X12142500Y-23346429D01*
X12032913Y-23346429D01*
X11986112Y-23276388D01*
X11817565Y-23163768D01*
X11618750Y-23124221D01*
X11181250Y-23124221D01*
X11179658Y-23124538D01*
X11092509Y-23066307D01*
X10977289Y-23043388D01*
X10938388Y-23035650D01*
X10899487Y-23043388D01*
X8902002Y-23043388D01*
X8645000Y-22786386D01*
X8645000Y-22500779D01*
X8867164Y-22500779D01*
X8901250Y-22534865D01*
X9046429Y-22595000D01*
X9141250Y-22595000D01*
X9240000Y-22496250D01*
X9240000Y-21560000D01*
X9220000Y-21560000D01*
X9220000Y-21540000D01*
X9240000Y-21540000D01*
X9240000Y-20603750D01*
X9141250Y-20505000D01*
X9046429Y-20505000D01*
X8901250Y-20565135D01*
X8867164Y-20599221D01*
X8770082Y-20599221D01*
X8845000Y-20418353D01*
X8845000Y-20181647D01*
X8754417Y-19962959D01*
X8587041Y-19795583D01*
X8368353Y-19705000D01*
X8131647Y-19705000D01*
X7912959Y-19795583D01*
X7803542Y-19905000D01*
X7188899Y-19905000D01*
X7149999Y-19897262D01*
X7111099Y-19905000D01*
X6995879Y-19927919D01*
X6865221Y-20015221D01*
X6843186Y-20048199D01*
X6498200Y-20393186D01*
X6465222Y-20415221D01*
X6443187Y-20448199D01*
X6443186Y-20448200D01*
X6405234Y-20505000D01*
X6358750Y-20505000D01*
X6260000Y-20603750D01*
X6260000Y-21540000D01*
X6280000Y-21540000D01*
X6280000Y-21560000D01*
X6260000Y-21560000D01*
X6260000Y-22496250D01*
X6358750Y-22595000D01*
X6453571Y-22595000D01*
X6598750Y-22534865D01*
X6632836Y-22500779D01*
X6855000Y-22500779D01*
X6855001Y-23782184D01*
X6765103Y-23722116D01*
X6650000Y-23699221D01*
X4650000Y-23699221D01*
X4534897Y-23722116D01*
X4437317Y-23787317D01*
X4372116Y-23884897D01*
X4349221Y-24000000D01*
X4349221Y-25690152D01*
X4347262Y-25700000D01*
X4348257Y-25705000D01*
X4298180Y-25705000D01*
X4286232Y-25644935D01*
X4173612Y-25476388D01*
X4005065Y-25363768D01*
X3806250Y-25324221D01*
X3368750Y-25324221D01*
X3169935Y-25363768D01*
X3001388Y-25476388D01*
X2888768Y-25644935D01*
X2849221Y-25843750D01*
X2845000Y-25843750D01*
X2845000Y-25546429D01*
X2784865Y-25401250D01*
X2673749Y-25290135D01*
X2528570Y-25230000D01*
X2121250Y-25230000D01*
X2022500Y-25328750D01*
X2002500Y-25328750D01*
X1903750Y-25230000D01*
X1496430Y-25230000D01*
X1351251Y-25290135D01*
X1240135Y-25401250D01*
X1180000Y-25546429D01*
X1095000Y-25546429D01*
X1095000Y-24018750D01*
X1295000Y-24018750D01*
X1295000Y-24476070D01*
X1355135Y-24621249D01*
X1466250Y-24732365D01*
X1611429Y-24792500D01*
X2281250Y-24792500D01*
X2380000Y-24693750D01*
X2380000Y-23920000D01*
X2400000Y-23920000D01*
X2400000Y-24693750D01*
X2498750Y-24792500D01*
X3168571Y-24792500D01*
X3313750Y-24732365D01*
X3424865Y-24621249D01*
X3485000Y-24476070D01*
X3485000Y-24018750D01*
X3386250Y-23920000D01*
X2400000Y-23920000D01*
X2380000Y-23920000D01*
X1393750Y-23920000D01*
X1295000Y-24018750D01*
X1095000Y-24018750D01*
X1095000Y-23343930D01*
X1295000Y-23343930D01*
X1295000Y-23801250D01*
X1393750Y-23900000D01*
X2380000Y-23900000D01*
X2380000Y-23126250D01*
X2400000Y-23126250D01*
X2400000Y-23900000D01*
X3386250Y-23900000D01*
X3485000Y-23801250D01*
X3485000Y-23343930D01*
X3424865Y-23198751D01*
X3313750Y-23087635D01*
X3168571Y-23027500D01*
X2498750Y-23027500D01*
X2400000Y-23126250D01*
X2380000Y-23126250D01*
X2281250Y-23027500D01*
X1611429Y-23027500D01*
X1466250Y-23087635D01*
X1355135Y-23198751D01*
X1295000Y-23343930D01*
X1095000Y-23343930D01*
X1095000Y-22895001D01*
X2361105Y-22895001D01*
X2399999Y-22902738D01*
X2438894Y-22895001D01*
X2948601Y-22895001D01*
X2987500Y-22902739D01*
X3026400Y-22895001D01*
X5576100Y-22895001D01*
X5615001Y-22902739D01*
X5653902Y-22895001D01*
X5769122Y-22872082D01*
X5899780Y-22784780D01*
X5921817Y-22751799D01*
X6001798Y-22671818D01*
X6034779Y-22649781D01*
X6071382Y-22595000D01*
X6141250Y-22595000D01*
X6240000Y-22496250D01*
X6240000Y-21560000D01*
X6220000Y-21560000D01*
X6220000Y-21540000D01*
X6240000Y-21540000D01*
X6240000Y-20603750D01*
X6141250Y-20505000D01*
X6046429Y-20505000D01*
X5901250Y-20565135D01*
X5867164Y-20599221D01*
X5625000Y-20599221D01*
X5509897Y-20622116D01*
X5500000Y-20628729D01*
X5490103Y-20622116D01*
X5375000Y-20599221D01*
X5125000Y-20599221D01*
X5009897Y-20622116D01*
X5000000Y-20628729D01*
X4990103Y-20622116D01*
X4875000Y-20599221D01*
X4842237Y-20599221D01*
X4854417Y-20587041D01*
X4945000Y-20368353D01*
X4945000Y-20131647D01*
X4854417Y-19912959D01*
X4687041Y-19745583D01*
X4468353Y-19655000D01*
X4231647Y-19655000D01*
X4012959Y-19745583D01*
X3845583Y-19912959D01*
X3755000Y-20131647D01*
X3755000Y-20368353D01*
X3845583Y-20587041D01*
X3855001Y-20596459D01*
X3855001Y-20773097D01*
X3847116Y-20784897D01*
X3824221Y-20900000D01*
X3824221Y-22105001D01*
X3390779Y-22105001D01*
X3390779Y-21791250D01*
X3349329Y-21582868D01*
X3231290Y-21406210D01*
X3054632Y-21288171D01*
X2846250Y-21246721D01*
X1933750Y-21246721D01*
X1725368Y-21288171D01*
X1548710Y-21406210D01*
X1430671Y-21582868D01*
X1389221Y-21791250D01*
X1389221Y-22105001D01*
X1095000Y-22105001D01*
X1095000Y-21059110D01*
X1181647Y-21095000D01*
X1418353Y-21095000D01*
X1637041Y-21004417D01*
X1804417Y-20837041D01*
X1895000Y-20618353D01*
X1895000Y-20381647D01*
X1882393Y-20351211D01*
X1884897Y-20352884D01*
X2000000Y-20375779D01*
X3300000Y-20375779D01*
X3415103Y-20352884D01*
X3512683Y-20287683D01*
X3577884Y-20190103D01*
X3600779Y-20075000D01*
X3600779Y-19825000D01*
X3577884Y-19709897D01*
X3571271Y-19700000D01*
X3577884Y-19690103D01*
X3600779Y-19575000D01*
X3600779Y-19325000D01*
X3577884Y-19209897D01*
X3571271Y-19200000D01*
X3577884Y-19190103D01*
X3600779Y-19075000D01*
X3600779Y-18825000D01*
X3577884Y-18709897D01*
X3571271Y-18700000D01*
X3577884Y-18690103D01*
X3600779Y-18575000D01*
X3600779Y-18442237D01*
X3662959Y-18504417D01*
X3881647Y-18595000D01*
X4118353Y-18595000D01*
X4337041Y-18504417D01*
X4504417Y-18337041D01*
X4595000Y-18118353D01*
X4595000Y-18058750D01*
X10305000Y-18058750D01*
X10305000Y-18153571D01*
X10365135Y-18298750D01*
X10399221Y-18332836D01*
X10399221Y-18575000D01*
X10422116Y-18690103D01*
X10428729Y-18700000D01*
X10422116Y-18709897D01*
X10399221Y-18825000D01*
X10399221Y-19067164D01*
X10365135Y-19101250D01*
X10305000Y-19246429D01*
X10305000Y-19341250D01*
X10403750Y-19440000D01*
X11340000Y-19440000D01*
X11340000Y-19420000D01*
X11360000Y-19420000D01*
X11360000Y-19440000D01*
X12296250Y-19440000D01*
X12395000Y-19341250D01*
X12395000Y-19246429D01*
X12334865Y-19101250D01*
X12300779Y-19067164D01*
X12300779Y-18825000D01*
X12277884Y-18709897D01*
X12271271Y-18700000D01*
X12277884Y-18690103D01*
X12300779Y-18575000D01*
X12300779Y-18332836D01*
X12334865Y-18298750D01*
X12395000Y-18153571D01*
X12395000Y-18058750D01*
X12296250Y-17960000D01*
X11360000Y-17960000D01*
X11360000Y-17980000D01*
X11340000Y-17980000D01*
X11340000Y-17960000D01*
X10403750Y-17960000D01*
X10305000Y-18058750D01*
X4595000Y-18058750D01*
X4595000Y-17881647D01*
X4504417Y-17662959D01*
X4337041Y-17495583D01*
X4118353Y-17405000D01*
X3881647Y-17405000D01*
X3662959Y-17495583D01*
X3600779Y-17557763D01*
X3600779Y-17325000D01*
X3577884Y-17209897D01*
X3571271Y-17200000D01*
X3577884Y-17190103D01*
X3600779Y-17075000D01*
X3600779Y-16825000D01*
X3577884Y-16709897D01*
X3571271Y-16700000D01*
X3577884Y-16690103D01*
X3600779Y-16575000D01*
X3600779Y-16558750D01*
X10305000Y-16558750D01*
X10305000Y-16653571D01*
X10365135Y-16798750D01*
X10399221Y-16832836D01*
X10399221Y-17075000D01*
X10422116Y-17190103D01*
X10428729Y-17200000D01*
X10422116Y-17209897D01*
X10399221Y-17325000D01*
X10399221Y-17567164D01*
X10365135Y-17601250D01*
X10305000Y-17746429D01*
X10305000Y-17841250D01*
X10403750Y-17940000D01*
X11340000Y-17940000D01*
X11340000Y-17920000D01*
X11360000Y-17920000D01*
X11360000Y-17940000D01*
X12296250Y-17940000D01*
X12395000Y-17841250D01*
X12395000Y-17746429D01*
X12334865Y-17601250D01*
X12300779Y-17567164D01*
X12300779Y-17325000D01*
X12277884Y-17209897D01*
X12271271Y-17200000D01*
X12277884Y-17190103D01*
X12300779Y-17075000D01*
X12300779Y-16832836D01*
X12334865Y-16798750D01*
X12395000Y-16653571D01*
X12395000Y-16558750D01*
X12296250Y-16460000D01*
X11360000Y-16460000D01*
X11360000Y-16480000D01*
X11340000Y-16480000D01*
X11340000Y-16460000D01*
X10403750Y-16460000D01*
X10305000Y-16558750D01*
X3600779Y-16558750D01*
X3600779Y-16325000D01*
X3577884Y-16209897D01*
X3571271Y-16200000D01*
X3577884Y-16190103D01*
X3600779Y-16075000D01*
X3600779Y-15825000D01*
X3577884Y-15709897D01*
X3571271Y-15700000D01*
X3577884Y-15690103D01*
X3600779Y-15575000D01*
X3600779Y-15332836D01*
X3634865Y-15298750D01*
X3695000Y-15153571D01*
X3695000Y-15058750D01*
X3596250Y-14960000D01*
X2660000Y-14960000D01*
X2660000Y-14980000D01*
X2640000Y-14980000D01*
X2640000Y-14960000D01*
X2620000Y-14960000D01*
X2620000Y-14940000D01*
X2640000Y-14940000D01*
X2640000Y-14920000D01*
X2660000Y-14920000D01*
X2660000Y-14940000D01*
X3596250Y-14940000D01*
X3695000Y-14841250D01*
X3695000Y-14746429D01*
X3634865Y-14601250D01*
X3600779Y-14567164D01*
X3600779Y-14325000D01*
X3577884Y-14209897D01*
X3512683Y-14112317D01*
X3415103Y-14047116D01*
X3300000Y-14024221D01*
X2995000Y-14024221D01*
X2995000Y-13838901D01*
X3002738Y-13800000D01*
X2995000Y-13761099D01*
X2995000Y-13498180D01*
X3055065Y-13486232D01*
X3223612Y-13373612D01*
X3336232Y-13205065D01*
X3375779Y-13006250D01*
X3375779Y-12568750D01*
X3336232Y-12369935D01*
X3223612Y-12201388D01*
X3055065Y-12088768D01*
X2856250Y-12049221D01*
X2343750Y-12049221D01*
X2144935Y-12088768D01*
X1976388Y-12201388D01*
X1863768Y-12369935D01*
X1824221Y-12568750D01*
X1824221Y-13006250D01*
X1863768Y-13205065D01*
X1976388Y-13373612D01*
X2023363Y-13405000D01*
X1095000Y-13405000D01*
X1095000Y-12146458D01*
X1204417Y-12037041D01*
X1295000Y-11818353D01*
X1295000Y-11581647D01*
X1204417Y-11362959D01*
X1162708Y-11321250D01*
X1730000Y-11321250D01*
X1730000Y-11728570D01*
X1790135Y-11873749D01*
X1901250Y-11984865D01*
X2046429Y-12045000D01*
X2491250Y-12045000D01*
X2590000Y-11946250D01*
X2590000Y-11222500D01*
X2610000Y-11222500D01*
X2610000Y-11946250D01*
X2708750Y-12045000D01*
X3153571Y-12045000D01*
X3298750Y-11984865D01*
X3409865Y-11873749D01*
X3470000Y-11728570D01*
X3470000Y-11321250D01*
X3371250Y-11222500D01*
X2610000Y-11222500D01*
X2590000Y-11222500D01*
X1828750Y-11222500D01*
X1730000Y-11321250D01*
X1162708Y-11321250D01*
X1095000Y-11253542D01*
X1095000Y-10696430D01*
X1730000Y-10696430D01*
X1730000Y-11103750D01*
X1828750Y-11202500D01*
X2590000Y-11202500D01*
X2590000Y-10478750D01*
X2610000Y-10478750D01*
X2610000Y-11202500D01*
X3371250Y-11202500D01*
X3470000Y-11103750D01*
X3470000Y-10696430D01*
X3409865Y-10551251D01*
X3298750Y-10440135D01*
X3153571Y-10380000D01*
X2708750Y-10380000D01*
X2610000Y-10478750D01*
X2590000Y-10478750D01*
X2491250Y-10380000D01*
X2046429Y-10380000D01*
X1901250Y-10440135D01*
X1790135Y-10551251D01*
X1730000Y-10696430D01*
X1095000Y-10696430D01*
X1095000Y-6763614D01*
X1688604Y-6170010D01*
X3317751Y-6170010D01*
X3240671Y-6285368D01*
X3199221Y-6493750D01*
X3199221Y-6981250D01*
X3240671Y-7189632D01*
X3358710Y-7366290D01*
X3535368Y-7484329D01*
X3605000Y-7498180D01*
X3605000Y-7553542D01*
X3495583Y-7662959D01*
X3405000Y-7881647D01*
X3405000Y-8118353D01*
X3495583Y-8337041D01*
X3605000Y-8446458D01*
X3605000Y-8463164D01*
X3605001Y-8463169D01*
X3605000Y-9282239D01*
X3597262Y-9321140D01*
X3605000Y-9360040D01*
X3627919Y-9475260D01*
X3715221Y-9605919D01*
X3748202Y-9627956D01*
X4072044Y-9951798D01*
X4094081Y-9984779D01*
X4112462Y-9997060D01*
X4063768Y-10069935D01*
X4024221Y-10268750D01*
X4024221Y-10706250D01*
X4063768Y-10905065D01*
X4176388Y-11073612D01*
X4344935Y-11186232D01*
X4355000Y-11188234D01*
X4355001Y-11899221D01*
X4125000Y-11899221D01*
X4009897Y-11922116D01*
X3912317Y-11987317D01*
X3847116Y-12084897D01*
X3824221Y-12200000D01*
X3824221Y-13500000D01*
X3847116Y-13615103D01*
X3912317Y-13712683D01*
X4009897Y-13777884D01*
X4125000Y-13800779D01*
X4367309Y-13800779D01*
X4377919Y-13854120D01*
X4377920Y-13854121D01*
X4465222Y-13984779D01*
X4498200Y-14006814D01*
X5193186Y-14701801D01*
X5215221Y-14734779D01*
X5345879Y-14822081D01*
X5461099Y-14845000D01*
X5499999Y-14852738D01*
X5538899Y-14845000D01*
X9313542Y-14845000D01*
X9195583Y-14962959D01*
X9105000Y-15181647D01*
X9105000Y-15418353D01*
X9195583Y-15637041D01*
X9362959Y-15804417D01*
X9581647Y-15895000D01*
X9818353Y-15895000D01*
X10037041Y-15804417D01*
X10204417Y-15637041D01*
X10236846Y-15558750D01*
X10305000Y-15558750D01*
X10305000Y-15653571D01*
X10365135Y-15798750D01*
X10399221Y-15832836D01*
X10399221Y-16067164D01*
X10365135Y-16101250D01*
X10305000Y-16246429D01*
X10305000Y-16341250D01*
X10403750Y-16440000D01*
X11340000Y-16440000D01*
X11340000Y-16420000D01*
X11360000Y-16420000D01*
X11360000Y-16440000D01*
X12296250Y-16440000D01*
X12395000Y-16341250D01*
X12395000Y-16246429D01*
X12334865Y-16101250D01*
X12300779Y-16067164D01*
X12300779Y-15832836D01*
X12334865Y-15798750D01*
X12395000Y-15653571D01*
X12395000Y-15558750D01*
X12296250Y-15460000D01*
X11360000Y-15460000D01*
X11360000Y-15480000D01*
X11340000Y-15480000D01*
X11340000Y-15460000D01*
X10403750Y-15460000D01*
X10305000Y-15558750D01*
X10236846Y-15558750D01*
X10295000Y-15418353D01*
X10295000Y-15345000D01*
X10308750Y-15345000D01*
X10403750Y-15440000D01*
X11340000Y-15440000D01*
X11340000Y-15420000D01*
X11360000Y-15420000D01*
X11360000Y-15440000D01*
X12296250Y-15440000D01*
X12395000Y-15341250D01*
X12395000Y-15246429D01*
X12334865Y-15101250D01*
X12300779Y-15067164D01*
X12300779Y-14825000D01*
X12277884Y-14709897D01*
X12271271Y-14700000D01*
X12277884Y-14690103D01*
X12300779Y-14575000D01*
X12300779Y-14325000D01*
X12277884Y-14209897D01*
X12212683Y-14112317D01*
X12115103Y-14047116D01*
X12000000Y-14024221D01*
X10700000Y-14024221D01*
X10584897Y-14047116D01*
X10573098Y-14055000D01*
X5663615Y-14055000D01*
X5473340Y-13864726D01*
X5546429Y-13895000D01*
X5641250Y-13895000D01*
X5740000Y-13796250D01*
X5740000Y-12860000D01*
X5720000Y-12860000D01*
X5720000Y-12840000D01*
X5740000Y-12840000D01*
X5740000Y-11903750D01*
X5760000Y-11903750D01*
X5760000Y-12840000D01*
X5780000Y-12840000D01*
X5780000Y-12860000D01*
X5760000Y-12860000D01*
X5760000Y-13796250D01*
X5858750Y-13895000D01*
X5953571Y-13895000D01*
X6098750Y-13834865D01*
X6132836Y-13800779D01*
X6367164Y-13800779D01*
X6401250Y-13834865D01*
X6546429Y-13895000D01*
X6641250Y-13895000D01*
X6740000Y-13796250D01*
X6740000Y-12860000D01*
X6720000Y-12860000D01*
X6720000Y-12840000D01*
X6740000Y-12840000D01*
X6740000Y-11903750D01*
X6641250Y-11805000D01*
X6546429Y-11805000D01*
X6401250Y-11865135D01*
X6367164Y-11899221D01*
X6132836Y-11899221D01*
X6098750Y-11865135D01*
X5953571Y-11805000D01*
X5858750Y-11805000D01*
X5760000Y-11903750D01*
X5740000Y-11903750D01*
X5641250Y-11805000D01*
X5546429Y-11805000D01*
X5401250Y-11865135D01*
X5367164Y-11899221D01*
X5145000Y-11899221D01*
X5145000Y-11208125D01*
X5255065Y-11186232D01*
X5423612Y-11073612D01*
X5536232Y-10905065D01*
X5575779Y-10706250D01*
X5575779Y-10268750D01*
X5541218Y-10095000D01*
X5728752Y-10095000D01*
X5777317Y-10167683D01*
X5788268Y-10175000D01*
X5777317Y-10182317D01*
X5712116Y-10279897D01*
X5689221Y-10395000D01*
X5689221Y-10905000D01*
X5712116Y-11020103D01*
X5777317Y-11117683D01*
X5874897Y-11182884D01*
X5990000Y-11205779D01*
X6594070Y-11205779D01*
X6587263Y-11240001D01*
X6595001Y-11278901D01*
X6617920Y-11394121D01*
X6705222Y-11524780D01*
X6738203Y-11546817D01*
X7026661Y-11835275D01*
X6953571Y-11805000D01*
X6858750Y-11805000D01*
X6760000Y-11903750D01*
X6760000Y-12840000D01*
X6780000Y-12840000D01*
X6780000Y-12860000D01*
X6760000Y-12860000D01*
X6760000Y-13796250D01*
X6858750Y-13895000D01*
X6953571Y-13895000D01*
X7098750Y-13834865D01*
X7132836Y-13800779D01*
X7375000Y-13800779D01*
X7490103Y-13777884D01*
X7500000Y-13771271D01*
X7509897Y-13777884D01*
X7625000Y-13800779D01*
X7875000Y-13800779D01*
X7990103Y-13777884D01*
X8000000Y-13771271D01*
X8009897Y-13777884D01*
X8125000Y-13800779D01*
X8375000Y-13800779D01*
X8490103Y-13777884D01*
X8500000Y-13771271D01*
X8509897Y-13777884D01*
X8625000Y-13800779D01*
X8867164Y-13800779D01*
X8901250Y-13834865D01*
X9046429Y-13895000D01*
X9141250Y-13895000D01*
X9240000Y-13796250D01*
X9240000Y-12860000D01*
X9220000Y-12860000D01*
X9220000Y-12840000D01*
X9240000Y-12840000D01*
X9240000Y-12820000D01*
X9260000Y-12820000D01*
X9260000Y-12840000D01*
X9280000Y-12840000D01*
X9280000Y-12860000D01*
X9260000Y-12860000D01*
X9260000Y-13796250D01*
X9358750Y-13895000D01*
X9453571Y-13895000D01*
X9598750Y-13834865D01*
X9632836Y-13800779D01*
X9875000Y-13800779D01*
X9990103Y-13777884D01*
X10087683Y-13712683D01*
X10152884Y-13615103D01*
X10175779Y-13500000D01*
X10175779Y-13182500D01*
X11259280Y-13182500D01*
X11263768Y-13205065D01*
X11376388Y-13373612D01*
X11544935Y-13486232D01*
X11743750Y-13525779D01*
X12256250Y-13525779D01*
X12455065Y-13486232D01*
X12623612Y-13373612D01*
X12705000Y-13251807D01*
X12705001Y-19236384D01*
X12388818Y-19552568D01*
X12296250Y-19460000D01*
X11360000Y-19460000D01*
X11360000Y-19480000D01*
X11340000Y-19480000D01*
X11340000Y-19460000D01*
X10403750Y-19460000D01*
X10308750Y-19555000D01*
X10288899Y-19555000D01*
X10249999Y-19547262D01*
X10211099Y-19555000D01*
X10095879Y-19577919D01*
X10055349Y-19605000D01*
X9881647Y-19605000D01*
X9662959Y-19695583D01*
X9495583Y-19862959D01*
X9405000Y-20081647D01*
X9405000Y-20318353D01*
X9488264Y-20519370D01*
X9453571Y-20505000D01*
X9358750Y-20505000D01*
X9260000Y-20603750D01*
X9260000Y-21540000D01*
X9280000Y-21540000D01*
X9280000Y-21560000D01*
X9260000Y-21560000D01*
X9260000Y-22496250D01*
X9358750Y-22595000D01*
X9453571Y-22595000D01*
X9598750Y-22534865D01*
X9632836Y-22500779D01*
X9875000Y-22500779D01*
X9990103Y-22477884D01*
X10087683Y-22412683D01*
X10152884Y-22315103D01*
X10175779Y-22200000D01*
X10175779Y-21945000D01*
X10691875Y-21945000D01*
X10713768Y-22055065D01*
X10826388Y-22223612D01*
X10994935Y-22336232D01*
X11193750Y-22375779D01*
X11631250Y-22375779D01*
X11830065Y-22336232D01*
X11998612Y-22223612D01*
X12111232Y-22055065D01*
X12150779Y-21856250D01*
X12150779Y-21708750D01*
X12155000Y-21708750D01*
X12155000Y-22153571D01*
X12215135Y-22298750D01*
X12326251Y-22409865D01*
X12471430Y-22470000D01*
X12878750Y-22470000D01*
X12977500Y-22371250D01*
X12977500Y-21610000D01*
X12997500Y-21610000D01*
X12997500Y-22371250D01*
X13096250Y-22470000D01*
X13503570Y-22470000D01*
X13648749Y-22409865D01*
X13759865Y-22298750D01*
X13820000Y-22153571D01*
X13820000Y-21708750D01*
X13721250Y-21610000D01*
X12997500Y-21610000D01*
X12977500Y-21610000D01*
X12253750Y-21610000D01*
X12155000Y-21708750D01*
X12150779Y-21708750D01*
X12150779Y-21343750D01*
X12111232Y-21144935D01*
X12045413Y-21046429D01*
X12155000Y-21046429D01*
X12155000Y-21491250D01*
X12253750Y-21590000D01*
X12977500Y-21590000D01*
X12977500Y-20828750D01*
X12997500Y-20828750D01*
X12997500Y-21590000D01*
X13721250Y-21590000D01*
X13820000Y-21491250D01*
X13820000Y-21046429D01*
X13759865Y-20901250D01*
X13648749Y-20790135D01*
X13503570Y-20730000D01*
X13096250Y-20730000D01*
X12997500Y-20828750D01*
X12977500Y-20828750D01*
X12878750Y-20730000D01*
X12471430Y-20730000D01*
X12326251Y-20790135D01*
X12215135Y-20901250D01*
X12155000Y-21046429D01*
X12045413Y-21046429D01*
X11998612Y-20976388D01*
X11830065Y-20863768D01*
X11745000Y-20846847D01*
X11745000Y-20375779D01*
X12000000Y-20375779D01*
X12115103Y-20352884D01*
X12126902Y-20345000D01*
X12511099Y-20345000D01*
X12550000Y-20352738D01*
X12588901Y-20345000D01*
X12704121Y-20322081D01*
X12834779Y-20234779D01*
X12856816Y-20201798D01*
X13351801Y-19706814D01*
X13384779Y-19684779D01*
X13472081Y-19554121D01*
X13495000Y-19438901D01*
X13495000Y-19438897D01*
X13502737Y-19400001D01*
X13495000Y-19361105D01*
X13495000Y-12838901D01*
X13502738Y-12800000D01*
X13495000Y-12761099D01*
X13495000Y-6626401D01*
X13502738Y-6587500D01*
X13472081Y-6433379D01*
X13416369Y-6350000D01*
X13384779Y-6302721D01*
X13351799Y-6280685D01*
X11800779Y-4729665D01*
X11800779Y-4618750D01*
X11759329Y-4410368D01*
X11641290Y-4233710D01*
X11464632Y-4115671D01*
X11256250Y-4074221D01*
X10343750Y-4074221D01*
X10135368Y-4115671D01*
X9958710Y-4233710D01*
X9844258Y-4405000D01*
X9150779Y-4405000D01*
X9150779Y-4350000D01*
X9127884Y-4234897D01*
X9062683Y-4137317D01*
X8965103Y-4072116D01*
X8850000Y-4049221D01*
X8050000Y-4049221D01*
X7934897Y-4072116D01*
X7837317Y-4137317D01*
X7772116Y-4234897D01*
X7749221Y-4350000D01*
X7749221Y-4992165D01*
X7361376Y-5380010D01*
X7323693Y-5380010D01*
X7345000Y-5328570D01*
X7345000Y-4908750D01*
X7246250Y-4810000D01*
X6560000Y-4810000D01*
X6560000Y-4830000D01*
X6540000Y-4830000D01*
X6540000Y-4810000D01*
X5853750Y-4810000D01*
X5755000Y-4908750D01*
X5755000Y-5328570D01*
X5776307Y-5380010D01*
X5295000Y-5380010D01*
X5295000Y-4971250D01*
X5196250Y-4872500D01*
X4210000Y-4872500D01*
X4210000Y-4892500D01*
X4190000Y-4892500D01*
X4190000Y-4872500D01*
X3203750Y-4872500D01*
X3105000Y-4971250D01*
X3105000Y-5380010D01*
X1563891Y-5380010D01*
X1524990Y-5372272D01*
X1486089Y-5380010D01*
X1370869Y-5402929D01*
X1240211Y-5490231D01*
X1218174Y-5523212D01*
X1095000Y-5646386D01*
X1095000Y-4296430D01*
X3105000Y-4296430D01*
X3105000Y-4753750D01*
X3203750Y-4852500D01*
X4190000Y-4852500D01*
X4190000Y-4078750D01*
X4210000Y-4078750D01*
X4210000Y-4852500D01*
X5196250Y-4852500D01*
X5295000Y-4753750D01*
X5295000Y-4296430D01*
X5284645Y-4271430D01*
X5755000Y-4271430D01*
X5755000Y-4691250D01*
X5853750Y-4790000D01*
X6540000Y-4790000D01*
X6540000Y-4053750D01*
X6560000Y-4053750D01*
X6560000Y-4790000D01*
X7246250Y-4790000D01*
X7345000Y-4691250D01*
X7345000Y-4271430D01*
X7284865Y-4126251D01*
X7173750Y-4015135D01*
X7028571Y-3955000D01*
X6658750Y-3955000D01*
X6560000Y-4053750D01*
X6540000Y-4053750D01*
X6441250Y-3955000D01*
X6071429Y-3955000D01*
X5926250Y-4015135D01*
X5815135Y-4126251D01*
X5755000Y-4271430D01*
X5284645Y-4271430D01*
X5234865Y-4151251D01*
X5123750Y-4040135D01*
X4978571Y-3980000D01*
X4308750Y-3980000D01*
X4210000Y-4078750D01*
X4190000Y-4078750D01*
X4091250Y-3980000D01*
X3421429Y-3980000D01*
X3276250Y-4040135D01*
X3165135Y-4151251D01*
X3105000Y-4296430D01*
X1095000Y-4296430D01*
X1095000Y-2931919D01*
X4355000Y-2931919D01*
X4355000Y-3268081D01*
X4483643Y-3578654D01*
X4721346Y-3816357D01*
X5031919Y-3945000D01*
X5368081Y-3945000D01*
X5678654Y-3816357D01*
X5916357Y-3578654D01*
X6045000Y-3268081D01*
X6045000Y-2931919D01*
X8955000Y-2931919D01*
X8955000Y-3268081D01*
X9083643Y-3578654D01*
X9321346Y-3816357D01*
X9631919Y-3945000D01*
X9968081Y-3945000D01*
X10278654Y-3816357D01*
X10516357Y-3578654D01*
X10645000Y-3268081D01*
X10645000Y-2931919D01*
X10516357Y-2621346D01*
X10278654Y-2383643D01*
X9968081Y-2255000D01*
X9631919Y-2255000D01*
X9321346Y-2383643D01*
X9083643Y-2621346D01*
X8955000Y-2931919D01*
X6045000Y-2931919D01*
X5916357Y-2621346D01*
X5678654Y-2383643D01*
X5368081Y-2255000D01*
X5031919Y-2255000D01*
X4721346Y-2383643D01*
X4483643Y-2621346D01*
X4355000Y-2931919D01*
X1095000Y-2931919D01*
X1095000Y-2009358D01*
X1165608Y-1654384D01*
X1361384Y-1361384D01*
X1654384Y-1165608D01*
X2009358Y-1095000D01*
X12990642Y-1095000D01*
X13345616Y-1165608D01*
G36*
X9840671Y-5314632D02*
X9958710Y-5491290D01*
X10135368Y-5609329D01*
X10343750Y-5650779D01*
X11256250Y-5650779D01*
X11464632Y-5609329D01*
X11523728Y-5569842D01*
X12705000Y-6751114D01*
X12705001Y-10446386D01*
X12698750Y-10440135D01*
X12553571Y-10380000D01*
X12108750Y-10380000D01*
X12010000Y-10478750D01*
X12010000Y-11202500D01*
X12030000Y-11202500D01*
X12030000Y-11222500D01*
X12010000Y-11222500D01*
X12010000Y-11946250D01*
X12108750Y-12045000D01*
X12553571Y-12045000D01*
X12698750Y-11984865D01*
X12705001Y-11978614D01*
X12705001Y-12323195D01*
X12623612Y-12201388D01*
X12455065Y-12088768D01*
X12256250Y-12049221D01*
X11743750Y-12049221D01*
X11544935Y-12088768D01*
X11376388Y-12201388D01*
X11263768Y-12369935D01*
X11259280Y-12392500D01*
X10175779Y-12392500D01*
X10175779Y-12200000D01*
X10152884Y-12084897D01*
X10087683Y-11987317D01*
X9990103Y-11922116D01*
X9875000Y-11899221D01*
X9632836Y-11899221D01*
X9598750Y-11865135D01*
X9453602Y-11805013D01*
X9937365Y-11321250D01*
X11130000Y-11321250D01*
X11130000Y-11728570D01*
X11190135Y-11873749D01*
X11301250Y-11984865D01*
X11446429Y-12045000D01*
X11891250Y-12045000D01*
X11990000Y-11946250D01*
X11990000Y-11222500D01*
X11228750Y-11222500D01*
X11130000Y-11321250D01*
X9937365Y-11321250D01*
X10032836Y-11225779D01*
X10456250Y-11225779D01*
X10655065Y-11186232D01*
X10823612Y-11073612D01*
X10936232Y-10905065D01*
X10975779Y-10706250D01*
X10975779Y-10696430D01*
X11130000Y-10696430D01*
X11130000Y-11103750D01*
X11228750Y-11202500D01*
X11990000Y-11202500D01*
X11990000Y-10478750D01*
X11891250Y-10380000D01*
X11446429Y-10380000D01*
X11301250Y-10440135D01*
X11190135Y-10551251D01*
X11130000Y-10696430D01*
X10975779Y-10696430D01*
X10975779Y-10268750D01*
X10936232Y-10069935D01*
X10823612Y-9901388D01*
X10655065Y-9788768D01*
X10456250Y-9749221D01*
X9943750Y-9749221D01*
X9744935Y-9788768D01*
X9576388Y-9901388D01*
X9463768Y-10069935D01*
X9424221Y-10268750D01*
X9424221Y-10706250D01*
X9426032Y-10715353D01*
X9310779Y-10830606D01*
X9310779Y-10395000D01*
X9287884Y-10279897D01*
X9270193Y-10253421D01*
X9344865Y-10178750D01*
X9405000Y-10033571D01*
X9405000Y-9808750D01*
X9306250Y-9710000D01*
X8670000Y-9710000D01*
X8670000Y-9730000D01*
X8650000Y-9730000D01*
X8650000Y-9710000D01*
X8630000Y-9710000D01*
X8630000Y-9690000D01*
X8650000Y-9690000D01*
X8650000Y-9670000D01*
X8670000Y-9670000D01*
X8670000Y-9690000D01*
X9306250Y-9690000D01*
X9405000Y-9591250D01*
X9405000Y-9366429D01*
X9344865Y-9221250D01*
X9270193Y-9146579D01*
X9271248Y-9145000D01*
X9361099Y-9145000D01*
X9400000Y-9152738D01*
X9427411Y-9147286D01*
X9463768Y-9330065D01*
X9576388Y-9498612D01*
X9744935Y-9611232D01*
X9943750Y-9650779D01*
X10456250Y-9650779D01*
X10655065Y-9611232D01*
X10823612Y-9498612D01*
X10936232Y-9330065D01*
X10975779Y-9131250D01*
X10975779Y-8693750D01*
X10936232Y-8494935D01*
X10823612Y-8326388D01*
X10655065Y-8213768D01*
X10456250Y-8174221D01*
X10117237Y-8174221D01*
X10254417Y-8037041D01*
X10345000Y-7818353D01*
X10345000Y-7620000D01*
X10691250Y-7620000D01*
X10790000Y-7521250D01*
X10790000Y-6747500D01*
X10810000Y-6747500D01*
X10810000Y-7521250D01*
X10908750Y-7620000D01*
X11578571Y-7620000D01*
X11723750Y-7559865D01*
X11834865Y-7448749D01*
X11895000Y-7303570D01*
X11895000Y-6846250D01*
X11796250Y-6747500D01*
X10810000Y-6747500D01*
X10790000Y-6747500D01*
X9803750Y-6747500D01*
X9705000Y-6846250D01*
X9705000Y-7105000D01*
X9631647Y-7105000D01*
X9412959Y-7195583D01*
X9245583Y-7362959D01*
X9155000Y-7581647D01*
X9155000Y-7730519D01*
X9096601Y-7817920D01*
X9092860Y-7823520D01*
X9095000Y-7818353D01*
X9095000Y-7581647D01*
X9004417Y-7362959D01*
X8837041Y-7195583D01*
X8618353Y-7105000D01*
X8381647Y-7105000D01*
X8200779Y-7179918D01*
X8200779Y-6350000D01*
X8177884Y-6234897D01*
X8135477Y-6171430D01*
X9705000Y-6171430D01*
X9705000Y-6628750D01*
X9803750Y-6727500D01*
X10790000Y-6727500D01*
X10790000Y-5953750D01*
X10810000Y-5953750D01*
X10810000Y-6727500D01*
X11796250Y-6727500D01*
X11895000Y-6628750D01*
X11895000Y-6171430D01*
X11834865Y-6026251D01*
X11723750Y-5915135D01*
X11578571Y-5855000D01*
X10908750Y-5855000D01*
X10810000Y-5953750D01*
X10790000Y-5953750D01*
X10691250Y-5855000D01*
X10021429Y-5855000D01*
X9876250Y-5915135D01*
X9765135Y-6026251D01*
X9705000Y-6171430D01*
X8135477Y-6171430D01*
X8112683Y-6137317D01*
X8015103Y-6072116D01*
X7900000Y-6049221D01*
X7816830Y-6049221D01*
X7831806Y-6026808D01*
X8307835Y-5550779D01*
X8850000Y-5550779D01*
X8965103Y-5527884D01*
X9062683Y-5462683D01*
X9127884Y-5365103D01*
X9150779Y-5250000D01*
X9150779Y-5195000D01*
X9816875Y-5195000D01*
X9840671Y-5314632D01*
X9840671Y-5314632D01*
G37*
X9840671Y-5314632D02*
X9958710Y-5491290D01*
X10135368Y-5609329D01*
X10343750Y-5650779D01*
X11256250Y-5650779D01*
X11464632Y-5609329D01*
X11523728Y-5569842D01*
X12705000Y-6751114D01*
X12705001Y-10446386D01*
X12698750Y-10440135D01*
X12553571Y-10380000D01*
X12108750Y-10380000D01*
X12010000Y-10478750D01*
X12010000Y-11202500D01*
X12030000Y-11202500D01*
X12030000Y-11222500D01*
X12010000Y-11222500D01*
X12010000Y-11946250D01*
X12108750Y-12045000D01*
X12553571Y-12045000D01*
X12698750Y-11984865D01*
X12705001Y-11978614D01*
X12705001Y-12323195D01*
X12623612Y-12201388D01*
X12455065Y-12088768D01*
X12256250Y-12049221D01*
X11743750Y-12049221D01*
X11544935Y-12088768D01*
X11376388Y-12201388D01*
X11263768Y-12369935D01*
X11259280Y-12392500D01*
X10175779Y-12392500D01*
X10175779Y-12200000D01*
X10152884Y-12084897D01*
X10087683Y-11987317D01*
X9990103Y-11922116D01*
X9875000Y-11899221D01*
X9632836Y-11899221D01*
X9598750Y-11865135D01*
X9453602Y-11805013D01*
X9937365Y-11321250D01*
X11130000Y-11321250D01*
X11130000Y-11728570D01*
X11190135Y-11873749D01*
X11301250Y-11984865D01*
X11446429Y-12045000D01*
X11891250Y-12045000D01*
X11990000Y-11946250D01*
X11990000Y-11222500D01*
X11228750Y-11222500D01*
X11130000Y-11321250D01*
X9937365Y-11321250D01*
X10032836Y-11225779D01*
X10456250Y-11225779D01*
X10655065Y-11186232D01*
X10823612Y-11073612D01*
X10936232Y-10905065D01*
X10975779Y-10706250D01*
X10975779Y-10696430D01*
X11130000Y-10696430D01*
X11130000Y-11103750D01*
X11228750Y-11202500D01*
X11990000Y-11202500D01*
X11990000Y-10478750D01*
X11891250Y-10380000D01*
X11446429Y-10380000D01*
X11301250Y-10440135D01*
X11190135Y-10551251D01*
X11130000Y-10696430D01*
X10975779Y-10696430D01*
X10975779Y-10268750D01*
X10936232Y-10069935D01*
X10823612Y-9901388D01*
X10655065Y-9788768D01*
X10456250Y-9749221D01*
X9943750Y-9749221D01*
X9744935Y-9788768D01*
X9576388Y-9901388D01*
X9463768Y-10069935D01*
X9424221Y-10268750D01*
X9424221Y-10706250D01*
X9426032Y-10715353D01*
X9310779Y-10830606D01*
X9310779Y-10395000D01*
X9287884Y-10279897D01*
X9270193Y-10253421D01*
X9344865Y-10178750D01*
X9405000Y-10033571D01*
X9405000Y-9808750D01*
X9306250Y-9710000D01*
X8670000Y-9710000D01*
X8670000Y-9730000D01*
X8650000Y-9730000D01*
X8650000Y-9710000D01*
X8630000Y-9710000D01*
X8630000Y-9690000D01*
X8650000Y-9690000D01*
X8650000Y-9670000D01*
X8670000Y-9670000D01*
X8670000Y-9690000D01*
X9306250Y-9690000D01*
X9405000Y-9591250D01*
X9405000Y-9366429D01*
X9344865Y-9221250D01*
X9270193Y-9146579D01*
X9271248Y-9145000D01*
X9361099Y-9145000D01*
X9400000Y-9152738D01*
X9427411Y-9147286D01*
X9463768Y-9330065D01*
X9576388Y-9498612D01*
X9744935Y-9611232D01*
X9943750Y-9650779D01*
X10456250Y-9650779D01*
X10655065Y-9611232D01*
X10823612Y-9498612D01*
X10936232Y-9330065D01*
X10975779Y-9131250D01*
X10975779Y-8693750D01*
X10936232Y-8494935D01*
X10823612Y-8326388D01*
X10655065Y-8213768D01*
X10456250Y-8174221D01*
X10117237Y-8174221D01*
X10254417Y-8037041D01*
X10345000Y-7818353D01*
X10345000Y-7620000D01*
X10691250Y-7620000D01*
X10790000Y-7521250D01*
X10790000Y-6747500D01*
X10810000Y-6747500D01*
X10810000Y-7521250D01*
X10908750Y-7620000D01*
X11578571Y-7620000D01*
X11723750Y-7559865D01*
X11834865Y-7448749D01*
X11895000Y-7303570D01*
X11895000Y-6846250D01*
X11796250Y-6747500D01*
X10810000Y-6747500D01*
X10790000Y-6747500D01*
X9803750Y-6747500D01*
X9705000Y-6846250D01*
X9705000Y-7105000D01*
X9631647Y-7105000D01*
X9412959Y-7195583D01*
X9245583Y-7362959D01*
X9155000Y-7581647D01*
X9155000Y-7730519D01*
X9096601Y-7817920D01*
X9092860Y-7823520D01*
X9095000Y-7818353D01*
X9095000Y-7581647D01*
X9004417Y-7362959D01*
X8837041Y-7195583D01*
X8618353Y-7105000D01*
X8381647Y-7105000D01*
X8200779Y-7179918D01*
X8200779Y-6350000D01*
X8177884Y-6234897D01*
X8135477Y-6171430D01*
X9705000Y-6171430D01*
X9705000Y-6628750D01*
X9803750Y-6727500D01*
X10790000Y-6727500D01*
X10790000Y-5953750D01*
X10810000Y-5953750D01*
X10810000Y-6727500D01*
X11796250Y-6727500D01*
X11895000Y-6628750D01*
X11895000Y-6171430D01*
X11834865Y-6026251D01*
X11723750Y-5915135D01*
X11578571Y-5855000D01*
X10908750Y-5855000D01*
X10810000Y-5953750D01*
X10790000Y-5953750D01*
X10691250Y-5855000D01*
X10021429Y-5855000D01*
X9876250Y-5915135D01*
X9765135Y-6026251D01*
X9705000Y-6171430D01*
X8135477Y-6171430D01*
X8112683Y-6137317D01*
X8015103Y-6072116D01*
X7900000Y-6049221D01*
X7816830Y-6049221D01*
X7831806Y-6026808D01*
X8307835Y-5550779D01*
X8850000Y-5550779D01*
X8965103Y-5527884D01*
X9062683Y-5462683D01*
X9127884Y-5365103D01*
X9150779Y-5250000D01*
X9150779Y-5195000D01*
X9816875Y-5195000D01*
X9840671Y-5314632D01*
G04 #@! TD*
M02*
