G04 #@! TF.GenerationSoftware,KiCad,Pcbnew,5.0.2+dfsg1-1*
G04 #@! TF.CreationDate,2019-10-07T21:24:18+03:00*
G04 #@! TF.ProjectId,PocketAdmin,506f636b-6574-4416-946d-696e2e6b6963,1.3*
G04 #@! TF.SameCoordinates,PX7bfa480PY42c1d80*
G04 #@! TF.FileFunction,Copper,L1,Top*
G04 #@! TF.FilePolarity,Positive*
%FSLAX46Y46*%
G04 Gerber Fmt 4.6, Leading zero omitted, Abs format (unit mm)*
G04 Created by KiCad (PCBNEW 5.0.2+dfsg1-1) date Mon 07 Oct 2019 09:24:18 PM MSK*
%MOMM*%
%LPD*%
G01*
G04 APERTURE LIST*
G04 #@! TA.AperFunction,Conductor*
%ADD10C,0.100000*%
G04 #@! TD*
G04 #@! TA.AperFunction,SMDPad,CuDef*
%ADD11C,0.875000*%
G04 #@! TD*
G04 #@! TA.AperFunction,ComponentPad*
%ADD12R,1.700000X1.700000*%
G04 #@! TD*
G04 #@! TA.AperFunction,ComponentPad*
%ADD13O,1.700000X1.700000*%
G04 #@! TD*
G04 #@! TA.AperFunction,SMDPad,CuDef*
%ADD14R,1.100000X2.500000*%
G04 #@! TD*
G04 #@! TA.AperFunction,ComponentPad*
%ADD15O,1.900000X3.500000*%
G04 #@! TD*
G04 #@! TA.AperFunction,SMDPad,CuDef*
%ADD16R,1.700000X1.000000*%
G04 #@! TD*
G04 #@! TA.AperFunction,SMDPad,CuDef*
%ADD17R,0.600000X1.000000*%
G04 #@! TD*
G04 #@! TA.AperFunction,SMDPad,CuDef*
%ADD18R,4.000000X3.200000*%
G04 #@! TD*
G04 #@! TA.AperFunction,ViaPad*
%ADD19C,0.600000*%
G04 #@! TD*
G04 #@! TA.AperFunction,Conductor*
%ADD20C,0.200000*%
G04 #@! TD*
G04 #@! TA.AperFunction,Conductor*
%ADD21C,0.190000*%
G04 #@! TD*
G04 APERTURE END LIST*
D10*
G04 #@! TO.N,GND*
G04 #@! TO.C,R3*
G36*
X12977691Y-24938553D02*
X12998926Y-24941703D01*
X13019750Y-24946919D01*
X13039962Y-24954151D01*
X13059368Y-24963330D01*
X13077781Y-24974366D01*
X13095024Y-24987154D01*
X13110930Y-25001570D01*
X13125346Y-25017476D01*
X13138134Y-25034719D01*
X13149170Y-25053132D01*
X13158349Y-25072538D01*
X13165581Y-25092750D01*
X13170797Y-25113574D01*
X13173947Y-25134809D01*
X13175000Y-25156250D01*
X13175000Y-25593750D01*
X13173947Y-25615191D01*
X13170797Y-25636426D01*
X13165581Y-25657250D01*
X13158349Y-25677462D01*
X13149170Y-25696868D01*
X13138134Y-25715281D01*
X13125346Y-25732524D01*
X13110930Y-25748430D01*
X13095024Y-25762846D01*
X13077781Y-25775634D01*
X13059368Y-25786670D01*
X13039962Y-25795849D01*
X13019750Y-25803081D01*
X12998926Y-25808297D01*
X12977691Y-25811447D01*
X12956250Y-25812500D01*
X12443750Y-25812500D01*
X12422309Y-25811447D01*
X12401074Y-25808297D01*
X12380250Y-25803081D01*
X12360038Y-25795849D01*
X12340632Y-25786670D01*
X12322219Y-25775634D01*
X12304976Y-25762846D01*
X12289070Y-25748430D01*
X12274654Y-25732524D01*
X12261866Y-25715281D01*
X12250830Y-25696868D01*
X12241651Y-25677462D01*
X12234419Y-25657250D01*
X12229203Y-25636426D01*
X12226053Y-25615191D01*
X12225000Y-25593750D01*
X12225000Y-25156250D01*
X12226053Y-25134809D01*
X12229203Y-25113574D01*
X12234419Y-25092750D01*
X12241651Y-25072538D01*
X12250830Y-25053132D01*
X12261866Y-25034719D01*
X12274654Y-25017476D01*
X12289070Y-25001570D01*
X12304976Y-24987154D01*
X12322219Y-24974366D01*
X12340632Y-24963330D01*
X12360038Y-24954151D01*
X12380250Y-24946919D01*
X12401074Y-24941703D01*
X12422309Y-24938553D01*
X12443750Y-24937500D01*
X12956250Y-24937500D01*
X12977691Y-24938553D01*
X12977691Y-24938553D01*
G37*
D11*
G04 #@! TD*
G04 #@! TO.P,R3,1*
G04 #@! TO.N,GND*
X12700000Y-25375000D03*
D10*
G04 #@! TO.N,boot0*
G04 #@! TO.C,R3*
G36*
X12977691Y-23363553D02*
X12998926Y-23366703D01*
X13019750Y-23371919D01*
X13039962Y-23379151D01*
X13059368Y-23388330D01*
X13077781Y-23399366D01*
X13095024Y-23412154D01*
X13110930Y-23426570D01*
X13125346Y-23442476D01*
X13138134Y-23459719D01*
X13149170Y-23478132D01*
X13158349Y-23497538D01*
X13165581Y-23517750D01*
X13170797Y-23538574D01*
X13173947Y-23559809D01*
X13175000Y-23581250D01*
X13175000Y-24018750D01*
X13173947Y-24040191D01*
X13170797Y-24061426D01*
X13165581Y-24082250D01*
X13158349Y-24102462D01*
X13149170Y-24121868D01*
X13138134Y-24140281D01*
X13125346Y-24157524D01*
X13110930Y-24173430D01*
X13095024Y-24187846D01*
X13077781Y-24200634D01*
X13059368Y-24211670D01*
X13039962Y-24220849D01*
X13019750Y-24228081D01*
X12998926Y-24233297D01*
X12977691Y-24236447D01*
X12956250Y-24237500D01*
X12443750Y-24237500D01*
X12422309Y-24236447D01*
X12401074Y-24233297D01*
X12380250Y-24228081D01*
X12360038Y-24220849D01*
X12340632Y-24211670D01*
X12322219Y-24200634D01*
X12304976Y-24187846D01*
X12289070Y-24173430D01*
X12274654Y-24157524D01*
X12261866Y-24140281D01*
X12250830Y-24121868D01*
X12241651Y-24102462D01*
X12234419Y-24082250D01*
X12229203Y-24061426D01*
X12226053Y-24040191D01*
X12225000Y-24018750D01*
X12225000Y-23581250D01*
X12226053Y-23559809D01*
X12229203Y-23538574D01*
X12234419Y-23517750D01*
X12241651Y-23497538D01*
X12250830Y-23478132D01*
X12261866Y-23459719D01*
X12274654Y-23442476D01*
X12289070Y-23426570D01*
X12304976Y-23412154D01*
X12322219Y-23399366D01*
X12340632Y-23388330D01*
X12360038Y-23379151D01*
X12380250Y-23371919D01*
X12401074Y-23366703D01*
X12422309Y-23363553D01*
X12443750Y-23362500D01*
X12956250Y-23362500D01*
X12977691Y-23363553D01*
X12977691Y-23363553D01*
G37*
D11*
G04 #@! TD*
G04 #@! TO.P,R3,2*
G04 #@! TO.N,boot0*
X12700000Y-23800000D03*
D12*
G04 #@! TO.P,CON1,1*
G04 #@! TO.N,swclk*
X12600000Y-29100000D03*
D13*
G04 #@! TO.P,CON1,2*
G04 #@! TO.N,swdio*
X10060000Y-29100000D03*
G04 #@! TO.P,CON1,3*
G04 #@! TO.N,GND*
X7520000Y-29100000D03*
G04 #@! TO.P,CON1,4*
G04 #@! TO.N,3.3V*
X4980000Y-29100000D03*
G04 #@! TO.P,CON1,5*
G04 #@! TO.N,boot0*
X2440000Y-29100000D03*
G04 #@! TD*
D14*
G04 #@! TO.P,J1,2*
G04 #@! TO.N,d-*
X6500000Y-5850000D03*
G04 #@! TO.P,J1,3*
G04 #@! TO.N,d+*
X8500000Y-5850000D03*
G04 #@! TO.P,J1,1*
G04 #@! TO.N,5V*
X4000000Y-5850000D03*
G04 #@! TO.P,J1,4*
G04 #@! TO.N,GND*
X11000000Y-5850000D03*
D15*
G04 #@! TO.P,J1,5*
X1800000Y-3100000D03*
X13200000Y-3100000D03*
G04 #@! TD*
D10*
G04 #@! TO.N,3.3V*
G04 #@! TO.C,C9*
G36*
X9677691Y-20726053D02*
X9698926Y-20729203D01*
X9719750Y-20734419D01*
X9739962Y-20741651D01*
X9759368Y-20750830D01*
X9777781Y-20761866D01*
X9795024Y-20774654D01*
X9810930Y-20789070D01*
X9825346Y-20804976D01*
X9838134Y-20822219D01*
X9849170Y-20840632D01*
X9858349Y-20860038D01*
X9865581Y-20880250D01*
X9870797Y-20901074D01*
X9873947Y-20922309D01*
X9875000Y-20943750D01*
X9875000Y-21456250D01*
X9873947Y-21477691D01*
X9870797Y-21498926D01*
X9865581Y-21519750D01*
X9858349Y-21539962D01*
X9849170Y-21559368D01*
X9838134Y-21577781D01*
X9825346Y-21595024D01*
X9810930Y-21610930D01*
X9795024Y-21625346D01*
X9777781Y-21638134D01*
X9759368Y-21649170D01*
X9739962Y-21658349D01*
X9719750Y-21665581D01*
X9698926Y-21670797D01*
X9677691Y-21673947D01*
X9656250Y-21675000D01*
X9218750Y-21675000D01*
X9197309Y-21673947D01*
X9176074Y-21670797D01*
X9155250Y-21665581D01*
X9135038Y-21658349D01*
X9115632Y-21649170D01*
X9097219Y-21638134D01*
X9079976Y-21625346D01*
X9064070Y-21610930D01*
X9049654Y-21595024D01*
X9036866Y-21577781D01*
X9025830Y-21559368D01*
X9016651Y-21539962D01*
X9009419Y-21519750D01*
X9004203Y-21498926D01*
X9001053Y-21477691D01*
X9000000Y-21456250D01*
X9000000Y-20943750D01*
X9001053Y-20922309D01*
X9004203Y-20901074D01*
X9009419Y-20880250D01*
X9016651Y-20860038D01*
X9025830Y-20840632D01*
X9036866Y-20822219D01*
X9049654Y-20804976D01*
X9064070Y-20789070D01*
X9079976Y-20774654D01*
X9097219Y-20761866D01*
X9115632Y-20750830D01*
X9135038Y-20741651D01*
X9155250Y-20734419D01*
X9176074Y-20729203D01*
X9197309Y-20726053D01*
X9218750Y-20725000D01*
X9656250Y-20725000D01*
X9677691Y-20726053D01*
X9677691Y-20726053D01*
G37*
D11*
G04 #@! TD*
G04 #@! TO.P,C9,1*
G04 #@! TO.N,3.3V*
X9437500Y-21200000D03*
D10*
G04 #@! TO.N,GND*
G04 #@! TO.C,C9*
G36*
X8102691Y-20726053D02*
X8123926Y-20729203D01*
X8144750Y-20734419D01*
X8164962Y-20741651D01*
X8184368Y-20750830D01*
X8202781Y-20761866D01*
X8220024Y-20774654D01*
X8235930Y-20789070D01*
X8250346Y-20804976D01*
X8263134Y-20822219D01*
X8274170Y-20840632D01*
X8283349Y-20860038D01*
X8290581Y-20880250D01*
X8295797Y-20901074D01*
X8298947Y-20922309D01*
X8300000Y-20943750D01*
X8300000Y-21456250D01*
X8298947Y-21477691D01*
X8295797Y-21498926D01*
X8290581Y-21519750D01*
X8283349Y-21539962D01*
X8274170Y-21559368D01*
X8263134Y-21577781D01*
X8250346Y-21595024D01*
X8235930Y-21610930D01*
X8220024Y-21625346D01*
X8202781Y-21638134D01*
X8184368Y-21649170D01*
X8164962Y-21658349D01*
X8144750Y-21665581D01*
X8123926Y-21670797D01*
X8102691Y-21673947D01*
X8081250Y-21675000D01*
X7643750Y-21675000D01*
X7622309Y-21673947D01*
X7601074Y-21670797D01*
X7580250Y-21665581D01*
X7560038Y-21658349D01*
X7540632Y-21649170D01*
X7522219Y-21638134D01*
X7504976Y-21625346D01*
X7489070Y-21610930D01*
X7474654Y-21595024D01*
X7461866Y-21577781D01*
X7450830Y-21559368D01*
X7441651Y-21539962D01*
X7434419Y-21519750D01*
X7429203Y-21498926D01*
X7426053Y-21477691D01*
X7425000Y-21456250D01*
X7425000Y-20943750D01*
X7426053Y-20922309D01*
X7429203Y-20901074D01*
X7434419Y-20880250D01*
X7441651Y-20860038D01*
X7450830Y-20840632D01*
X7461866Y-20822219D01*
X7474654Y-20804976D01*
X7489070Y-20789070D01*
X7504976Y-20774654D01*
X7522219Y-20761866D01*
X7540632Y-20750830D01*
X7560038Y-20741651D01*
X7580250Y-20734419D01*
X7601074Y-20729203D01*
X7622309Y-20726053D01*
X7643750Y-20725000D01*
X8081250Y-20725000D01*
X8102691Y-20726053D01*
X8102691Y-20726053D01*
G37*
D11*
G04 #@! TD*
G04 #@! TO.P,C9,2*
G04 #@! TO.N,GND*
X7862500Y-21200000D03*
D16*
G04 #@! TO.P,SW1,1*
G04 #@! TO.N,Net-(C10-Pad2)*
X3950000Y-22950000D03*
X10250000Y-22950000D03*
G04 #@! TO.P,SW1,2*
G04 #@! TO.N,GND*
X3950000Y-26750000D03*
X10250000Y-26750000D03*
G04 #@! TD*
D10*
G04 #@! TO.N,GND*
G04 #@! TO.C,C10*
G36*
X6415191Y-20726053D02*
X6436426Y-20729203D01*
X6457250Y-20734419D01*
X6477462Y-20741651D01*
X6496868Y-20750830D01*
X6515281Y-20761866D01*
X6532524Y-20774654D01*
X6548430Y-20789070D01*
X6562846Y-20804976D01*
X6575634Y-20822219D01*
X6586670Y-20840632D01*
X6595849Y-20860038D01*
X6603081Y-20880250D01*
X6608297Y-20901074D01*
X6611447Y-20922309D01*
X6612500Y-20943750D01*
X6612500Y-21456250D01*
X6611447Y-21477691D01*
X6608297Y-21498926D01*
X6603081Y-21519750D01*
X6595849Y-21539962D01*
X6586670Y-21559368D01*
X6575634Y-21577781D01*
X6562846Y-21595024D01*
X6548430Y-21610930D01*
X6532524Y-21625346D01*
X6515281Y-21638134D01*
X6496868Y-21649170D01*
X6477462Y-21658349D01*
X6457250Y-21665581D01*
X6436426Y-21670797D01*
X6415191Y-21673947D01*
X6393750Y-21675000D01*
X5956250Y-21675000D01*
X5934809Y-21673947D01*
X5913574Y-21670797D01*
X5892750Y-21665581D01*
X5872538Y-21658349D01*
X5853132Y-21649170D01*
X5834719Y-21638134D01*
X5817476Y-21625346D01*
X5801570Y-21610930D01*
X5787154Y-21595024D01*
X5774366Y-21577781D01*
X5763330Y-21559368D01*
X5754151Y-21539962D01*
X5746919Y-21519750D01*
X5741703Y-21498926D01*
X5738553Y-21477691D01*
X5737500Y-21456250D01*
X5737500Y-20943750D01*
X5738553Y-20922309D01*
X5741703Y-20901074D01*
X5746919Y-20880250D01*
X5754151Y-20860038D01*
X5763330Y-20840632D01*
X5774366Y-20822219D01*
X5787154Y-20804976D01*
X5801570Y-20789070D01*
X5817476Y-20774654D01*
X5834719Y-20761866D01*
X5853132Y-20750830D01*
X5872538Y-20741651D01*
X5892750Y-20734419D01*
X5913574Y-20729203D01*
X5934809Y-20726053D01*
X5956250Y-20725000D01*
X6393750Y-20725000D01*
X6415191Y-20726053D01*
X6415191Y-20726053D01*
G37*
D11*
G04 #@! TD*
G04 #@! TO.P,C10,1*
G04 #@! TO.N,GND*
X6175000Y-21200000D03*
D10*
G04 #@! TO.N,Net-(C10-Pad2)*
G04 #@! TO.C,C10*
G36*
X4840191Y-20726053D02*
X4861426Y-20729203D01*
X4882250Y-20734419D01*
X4902462Y-20741651D01*
X4921868Y-20750830D01*
X4940281Y-20761866D01*
X4957524Y-20774654D01*
X4973430Y-20789070D01*
X4987846Y-20804976D01*
X5000634Y-20822219D01*
X5011670Y-20840632D01*
X5020849Y-20860038D01*
X5028081Y-20880250D01*
X5033297Y-20901074D01*
X5036447Y-20922309D01*
X5037500Y-20943750D01*
X5037500Y-21456250D01*
X5036447Y-21477691D01*
X5033297Y-21498926D01*
X5028081Y-21519750D01*
X5020849Y-21539962D01*
X5011670Y-21559368D01*
X5000634Y-21577781D01*
X4987846Y-21595024D01*
X4973430Y-21610930D01*
X4957524Y-21625346D01*
X4940281Y-21638134D01*
X4921868Y-21649170D01*
X4902462Y-21658349D01*
X4882250Y-21665581D01*
X4861426Y-21670797D01*
X4840191Y-21673947D01*
X4818750Y-21675000D01*
X4381250Y-21675000D01*
X4359809Y-21673947D01*
X4338574Y-21670797D01*
X4317750Y-21665581D01*
X4297538Y-21658349D01*
X4278132Y-21649170D01*
X4259719Y-21638134D01*
X4242476Y-21625346D01*
X4226570Y-21610930D01*
X4212154Y-21595024D01*
X4199366Y-21577781D01*
X4188330Y-21559368D01*
X4179151Y-21539962D01*
X4171919Y-21519750D01*
X4166703Y-21498926D01*
X4163553Y-21477691D01*
X4162500Y-21456250D01*
X4162500Y-20943750D01*
X4163553Y-20922309D01*
X4166703Y-20901074D01*
X4171919Y-20880250D01*
X4179151Y-20860038D01*
X4188330Y-20840632D01*
X4199366Y-20822219D01*
X4212154Y-20804976D01*
X4226570Y-20789070D01*
X4242476Y-20774654D01*
X4259719Y-20761866D01*
X4278132Y-20750830D01*
X4297538Y-20741651D01*
X4317750Y-20734419D01*
X4338574Y-20729203D01*
X4359809Y-20726053D01*
X4381250Y-20725000D01*
X4818750Y-20725000D01*
X4840191Y-20726053D01*
X4840191Y-20726053D01*
G37*
D11*
G04 #@! TD*
G04 #@! TO.P,C10,2*
G04 #@! TO.N,Net-(C10-Pad2)*
X4600000Y-21200000D03*
D17*
G04 #@! TO.P,U4,1*
G04 #@! TO.N,cs*
X9405000Y-10650000D03*
G04 #@! TO.P,U4,2*
G04 #@! TO.N,miso*
X8135000Y-10650000D03*
G04 #@! TO.P,U4,3*
G04 #@! TO.N,wp*
X6865000Y-10650000D03*
G04 #@! TO.P,U4,4*
G04 #@! TO.N,GND*
X5595000Y-10650000D03*
G04 #@! TO.P,U4,5*
G04 #@! TO.N,mosi*
X5595000Y-18150000D03*
G04 #@! TO.P,U4,6*
G04 #@! TO.N,sck*
X6865000Y-18150000D03*
G04 #@! TO.P,U4,7*
G04 #@! TO.N,hold*
X8135000Y-18150000D03*
G04 #@! TO.P,U4,8*
G04 #@! TO.N,3.3V*
X9405000Y-18150000D03*
D18*
G04 #@! TO.P,U4,9*
G04 #@! TO.N,GND*
X7500000Y-14400000D03*
G04 #@! TD*
D10*
G04 #@! TO.N,Net-(D1-Pad1)*
G04 #@! TO.C,D1*
G36*
X11977691Y-14676053D02*
X11998926Y-14679203D01*
X12019750Y-14684419D01*
X12039962Y-14691651D01*
X12059368Y-14700830D01*
X12077781Y-14711866D01*
X12095024Y-14724654D01*
X12110930Y-14739070D01*
X12125346Y-14754976D01*
X12138134Y-14772219D01*
X12149170Y-14790632D01*
X12158349Y-14810038D01*
X12165581Y-14830250D01*
X12170797Y-14851074D01*
X12173947Y-14872309D01*
X12175000Y-14893750D01*
X12175000Y-15331250D01*
X12173947Y-15352691D01*
X12170797Y-15373926D01*
X12165581Y-15394750D01*
X12158349Y-15414962D01*
X12149170Y-15434368D01*
X12138134Y-15452781D01*
X12125346Y-15470024D01*
X12110930Y-15485930D01*
X12095024Y-15500346D01*
X12077781Y-15513134D01*
X12059368Y-15524170D01*
X12039962Y-15533349D01*
X12019750Y-15540581D01*
X11998926Y-15545797D01*
X11977691Y-15548947D01*
X11956250Y-15550000D01*
X11443750Y-15550000D01*
X11422309Y-15548947D01*
X11401074Y-15545797D01*
X11380250Y-15540581D01*
X11360038Y-15533349D01*
X11340632Y-15524170D01*
X11322219Y-15513134D01*
X11304976Y-15500346D01*
X11289070Y-15485930D01*
X11274654Y-15470024D01*
X11261866Y-15452781D01*
X11250830Y-15434368D01*
X11241651Y-15414962D01*
X11234419Y-15394750D01*
X11229203Y-15373926D01*
X11226053Y-15352691D01*
X11225000Y-15331250D01*
X11225000Y-14893750D01*
X11226053Y-14872309D01*
X11229203Y-14851074D01*
X11234419Y-14830250D01*
X11241651Y-14810038D01*
X11250830Y-14790632D01*
X11261866Y-14772219D01*
X11274654Y-14754976D01*
X11289070Y-14739070D01*
X11304976Y-14724654D01*
X11322219Y-14711866D01*
X11340632Y-14700830D01*
X11360038Y-14691651D01*
X11380250Y-14684419D01*
X11401074Y-14679203D01*
X11422309Y-14676053D01*
X11443750Y-14675000D01*
X11956250Y-14675000D01*
X11977691Y-14676053D01*
X11977691Y-14676053D01*
G37*
D11*
G04 #@! TD*
G04 #@! TO.P,D1,1*
G04 #@! TO.N,Net-(D1-Pad1)*
X11700000Y-15112500D03*
D10*
G04 #@! TO.N,Net-(D1-Pad2)*
G04 #@! TO.C,D1*
G36*
X11977691Y-16251053D02*
X11998926Y-16254203D01*
X12019750Y-16259419D01*
X12039962Y-16266651D01*
X12059368Y-16275830D01*
X12077781Y-16286866D01*
X12095024Y-16299654D01*
X12110930Y-16314070D01*
X12125346Y-16329976D01*
X12138134Y-16347219D01*
X12149170Y-16365632D01*
X12158349Y-16385038D01*
X12165581Y-16405250D01*
X12170797Y-16426074D01*
X12173947Y-16447309D01*
X12175000Y-16468750D01*
X12175000Y-16906250D01*
X12173947Y-16927691D01*
X12170797Y-16948926D01*
X12165581Y-16969750D01*
X12158349Y-16989962D01*
X12149170Y-17009368D01*
X12138134Y-17027781D01*
X12125346Y-17045024D01*
X12110930Y-17060930D01*
X12095024Y-17075346D01*
X12077781Y-17088134D01*
X12059368Y-17099170D01*
X12039962Y-17108349D01*
X12019750Y-17115581D01*
X11998926Y-17120797D01*
X11977691Y-17123947D01*
X11956250Y-17125000D01*
X11443750Y-17125000D01*
X11422309Y-17123947D01*
X11401074Y-17120797D01*
X11380250Y-17115581D01*
X11360038Y-17108349D01*
X11340632Y-17099170D01*
X11322219Y-17088134D01*
X11304976Y-17075346D01*
X11289070Y-17060930D01*
X11274654Y-17045024D01*
X11261866Y-17027781D01*
X11250830Y-17009368D01*
X11241651Y-16989962D01*
X11234419Y-16969750D01*
X11229203Y-16948926D01*
X11226053Y-16927691D01*
X11225000Y-16906250D01*
X11225000Y-16468750D01*
X11226053Y-16447309D01*
X11229203Y-16426074D01*
X11234419Y-16405250D01*
X11241651Y-16385038D01*
X11250830Y-16365632D01*
X11261866Y-16347219D01*
X11274654Y-16329976D01*
X11289070Y-16314070D01*
X11304976Y-16299654D01*
X11322219Y-16286866D01*
X11340632Y-16275830D01*
X11360038Y-16266651D01*
X11380250Y-16259419D01*
X11401074Y-16254203D01*
X11422309Y-16251053D01*
X11443750Y-16250000D01*
X11956250Y-16250000D01*
X11977691Y-16251053D01*
X11977691Y-16251053D01*
G37*
D11*
G04 #@! TD*
G04 #@! TO.P,D1,2*
G04 #@! TO.N,Net-(D1-Pad2)*
X11700000Y-16687500D03*
D10*
G04 #@! TO.N,Net-(D1-Pad1)*
G04 #@! TO.C,R4*
G36*
X11977691Y-12413553D02*
X11998926Y-12416703D01*
X12019750Y-12421919D01*
X12039962Y-12429151D01*
X12059368Y-12438330D01*
X12077781Y-12449366D01*
X12095024Y-12462154D01*
X12110930Y-12476570D01*
X12125346Y-12492476D01*
X12138134Y-12509719D01*
X12149170Y-12528132D01*
X12158349Y-12547538D01*
X12165581Y-12567750D01*
X12170797Y-12588574D01*
X12173947Y-12609809D01*
X12175000Y-12631250D01*
X12175000Y-13068750D01*
X12173947Y-13090191D01*
X12170797Y-13111426D01*
X12165581Y-13132250D01*
X12158349Y-13152462D01*
X12149170Y-13171868D01*
X12138134Y-13190281D01*
X12125346Y-13207524D01*
X12110930Y-13223430D01*
X12095024Y-13237846D01*
X12077781Y-13250634D01*
X12059368Y-13261670D01*
X12039962Y-13270849D01*
X12019750Y-13278081D01*
X11998926Y-13283297D01*
X11977691Y-13286447D01*
X11956250Y-13287500D01*
X11443750Y-13287500D01*
X11422309Y-13286447D01*
X11401074Y-13283297D01*
X11380250Y-13278081D01*
X11360038Y-13270849D01*
X11340632Y-13261670D01*
X11322219Y-13250634D01*
X11304976Y-13237846D01*
X11289070Y-13223430D01*
X11274654Y-13207524D01*
X11261866Y-13190281D01*
X11250830Y-13171868D01*
X11241651Y-13152462D01*
X11234419Y-13132250D01*
X11229203Y-13111426D01*
X11226053Y-13090191D01*
X11225000Y-13068750D01*
X11225000Y-12631250D01*
X11226053Y-12609809D01*
X11229203Y-12588574D01*
X11234419Y-12567750D01*
X11241651Y-12547538D01*
X11250830Y-12528132D01*
X11261866Y-12509719D01*
X11274654Y-12492476D01*
X11289070Y-12476570D01*
X11304976Y-12462154D01*
X11322219Y-12449366D01*
X11340632Y-12438330D01*
X11360038Y-12429151D01*
X11380250Y-12421919D01*
X11401074Y-12416703D01*
X11422309Y-12413553D01*
X11443750Y-12412500D01*
X11956250Y-12412500D01*
X11977691Y-12413553D01*
X11977691Y-12413553D01*
G37*
D11*
G04 #@! TD*
G04 #@! TO.P,R4,1*
G04 #@! TO.N,Net-(D1-Pad1)*
X11700000Y-12850000D03*
D10*
G04 #@! TO.N,GND*
G04 #@! TO.C,R4*
G36*
X11977691Y-10838553D02*
X11998926Y-10841703D01*
X12019750Y-10846919D01*
X12039962Y-10854151D01*
X12059368Y-10863330D01*
X12077781Y-10874366D01*
X12095024Y-10887154D01*
X12110930Y-10901570D01*
X12125346Y-10917476D01*
X12138134Y-10934719D01*
X12149170Y-10953132D01*
X12158349Y-10972538D01*
X12165581Y-10992750D01*
X12170797Y-11013574D01*
X12173947Y-11034809D01*
X12175000Y-11056250D01*
X12175000Y-11493750D01*
X12173947Y-11515191D01*
X12170797Y-11536426D01*
X12165581Y-11557250D01*
X12158349Y-11577462D01*
X12149170Y-11596868D01*
X12138134Y-11615281D01*
X12125346Y-11632524D01*
X12110930Y-11648430D01*
X12095024Y-11662846D01*
X12077781Y-11675634D01*
X12059368Y-11686670D01*
X12039962Y-11695849D01*
X12019750Y-11703081D01*
X11998926Y-11708297D01*
X11977691Y-11711447D01*
X11956250Y-11712500D01*
X11443750Y-11712500D01*
X11422309Y-11711447D01*
X11401074Y-11708297D01*
X11380250Y-11703081D01*
X11360038Y-11695849D01*
X11340632Y-11686670D01*
X11322219Y-11675634D01*
X11304976Y-11662846D01*
X11289070Y-11648430D01*
X11274654Y-11632524D01*
X11261866Y-11615281D01*
X11250830Y-11596868D01*
X11241651Y-11577462D01*
X11234419Y-11557250D01*
X11229203Y-11536426D01*
X11226053Y-11515191D01*
X11225000Y-11493750D01*
X11225000Y-11056250D01*
X11226053Y-11034809D01*
X11229203Y-11013574D01*
X11234419Y-10992750D01*
X11241651Y-10972538D01*
X11250830Y-10953132D01*
X11261866Y-10934719D01*
X11274654Y-10917476D01*
X11289070Y-10901570D01*
X11304976Y-10887154D01*
X11322219Y-10874366D01*
X11340632Y-10863330D01*
X11360038Y-10854151D01*
X11380250Y-10846919D01*
X11401074Y-10841703D01*
X11422309Y-10838553D01*
X11443750Y-10837500D01*
X11956250Y-10837500D01*
X11977691Y-10838553D01*
X11977691Y-10838553D01*
G37*
D11*
G04 #@! TD*
G04 #@! TO.P,R4,2*
G04 #@! TO.N,GND*
X11700000Y-11275000D03*
D10*
G04 #@! TO.N,GND*
G04 #@! TO.C,C12*
G36*
X1877691Y-23363553D02*
X1898926Y-23366703D01*
X1919750Y-23371919D01*
X1939962Y-23379151D01*
X1959368Y-23388330D01*
X1977781Y-23399366D01*
X1995024Y-23412154D01*
X2010930Y-23426570D01*
X2025346Y-23442476D01*
X2038134Y-23459719D01*
X2049170Y-23478132D01*
X2058349Y-23497538D01*
X2065581Y-23517750D01*
X2070797Y-23538574D01*
X2073947Y-23559809D01*
X2075000Y-23581250D01*
X2075000Y-24018750D01*
X2073947Y-24040191D01*
X2070797Y-24061426D01*
X2065581Y-24082250D01*
X2058349Y-24102462D01*
X2049170Y-24121868D01*
X2038134Y-24140281D01*
X2025346Y-24157524D01*
X2010930Y-24173430D01*
X1995024Y-24187846D01*
X1977781Y-24200634D01*
X1959368Y-24211670D01*
X1939962Y-24220849D01*
X1919750Y-24228081D01*
X1898926Y-24233297D01*
X1877691Y-24236447D01*
X1856250Y-24237500D01*
X1343750Y-24237500D01*
X1322309Y-24236447D01*
X1301074Y-24233297D01*
X1280250Y-24228081D01*
X1260038Y-24220849D01*
X1240632Y-24211670D01*
X1222219Y-24200634D01*
X1204976Y-24187846D01*
X1189070Y-24173430D01*
X1174654Y-24157524D01*
X1161866Y-24140281D01*
X1150830Y-24121868D01*
X1141651Y-24102462D01*
X1134419Y-24082250D01*
X1129203Y-24061426D01*
X1126053Y-24040191D01*
X1125000Y-24018750D01*
X1125000Y-23581250D01*
X1126053Y-23559809D01*
X1129203Y-23538574D01*
X1134419Y-23517750D01*
X1141651Y-23497538D01*
X1150830Y-23478132D01*
X1161866Y-23459719D01*
X1174654Y-23442476D01*
X1189070Y-23426570D01*
X1204976Y-23412154D01*
X1222219Y-23399366D01*
X1240632Y-23388330D01*
X1260038Y-23379151D01*
X1280250Y-23371919D01*
X1301074Y-23366703D01*
X1322309Y-23363553D01*
X1343750Y-23362500D01*
X1856250Y-23362500D01*
X1877691Y-23363553D01*
X1877691Y-23363553D01*
G37*
D11*
G04 #@! TD*
G04 #@! TO.P,C12,1*
G04 #@! TO.N,GND*
X1600000Y-23800000D03*
D10*
G04 #@! TO.N,boot0*
G04 #@! TO.C,C12*
G36*
X1877691Y-24938553D02*
X1898926Y-24941703D01*
X1919750Y-24946919D01*
X1939962Y-24954151D01*
X1959368Y-24963330D01*
X1977781Y-24974366D01*
X1995024Y-24987154D01*
X2010930Y-25001570D01*
X2025346Y-25017476D01*
X2038134Y-25034719D01*
X2049170Y-25053132D01*
X2058349Y-25072538D01*
X2065581Y-25092750D01*
X2070797Y-25113574D01*
X2073947Y-25134809D01*
X2075000Y-25156250D01*
X2075000Y-25593750D01*
X2073947Y-25615191D01*
X2070797Y-25636426D01*
X2065581Y-25657250D01*
X2058349Y-25677462D01*
X2049170Y-25696868D01*
X2038134Y-25715281D01*
X2025346Y-25732524D01*
X2010930Y-25748430D01*
X1995024Y-25762846D01*
X1977781Y-25775634D01*
X1959368Y-25786670D01*
X1939962Y-25795849D01*
X1919750Y-25803081D01*
X1898926Y-25808297D01*
X1877691Y-25811447D01*
X1856250Y-25812500D01*
X1343750Y-25812500D01*
X1322309Y-25811447D01*
X1301074Y-25808297D01*
X1280250Y-25803081D01*
X1260038Y-25795849D01*
X1240632Y-25786670D01*
X1222219Y-25775634D01*
X1204976Y-25762846D01*
X1189070Y-25748430D01*
X1174654Y-25732524D01*
X1161866Y-25715281D01*
X1150830Y-25696868D01*
X1141651Y-25677462D01*
X1134419Y-25657250D01*
X1129203Y-25636426D01*
X1126053Y-25615191D01*
X1125000Y-25593750D01*
X1125000Y-25156250D01*
X1126053Y-25134809D01*
X1129203Y-25113574D01*
X1134419Y-25092750D01*
X1141651Y-25072538D01*
X1150830Y-25053132D01*
X1161866Y-25034719D01*
X1174654Y-25017476D01*
X1189070Y-25001570D01*
X1204976Y-24987154D01*
X1222219Y-24974366D01*
X1240632Y-24963330D01*
X1260038Y-24954151D01*
X1280250Y-24946919D01*
X1301074Y-24941703D01*
X1322309Y-24938553D01*
X1343750Y-24937500D01*
X1856250Y-24937500D01*
X1877691Y-24938553D01*
X1877691Y-24938553D01*
G37*
D11*
G04 #@! TD*
G04 #@! TO.P,C12,2*
G04 #@! TO.N,boot0*
X1600000Y-25375000D03*
D19*
G04 #@! TO.N,3.3V*
X11412500Y-21550000D03*
G04 #@! TO.N,GND*
X11000000Y-8000000D03*
X2600000Y-9900000D03*
X2700000Y-25400000D03*
X11500000Y-25450000D03*
X12000000Y-9900002D03*
X6400000Y-23300000D03*
X12700000Y-13800000D03*
X3400000Y-13750000D03*
X10500000Y-20750000D03*
X2600000Y-20900000D03*
G04 #@! TO.N,5V*
X4000000Y-8000000D03*
G04 #@! TO.N,swclk*
X5600000Y-7700000D03*
G04 #@! TO.N,swdio*
X9750000Y-7700000D03*
G04 #@! TO.N,d-*
X6500000Y-7700000D03*
G04 #@! TO.N,d+*
X8500000Y-7700000D03*
G04 #@! TO.N,sck*
X1200000Y-18950000D03*
G04 #@! TO.N,miso*
X1200000Y-15950000D03*
G04 #@! TO.N,mosi*
X1200000Y-18050000D03*
G04 #@! TO.N,cs*
X1200000Y-16850000D03*
G04 #@! TO.N,Net-(C10-Pad2)*
X3500000Y-21550000D03*
G04 #@! TO.N,wp*
X1200000Y-15000000D03*
G04 #@! TO.N,hold*
X1200000Y-20200000D03*
G04 #@! TO.N,boot0*
X12700000Y-20950000D03*
X12700000Y-19250000D03*
G04 #@! TO.N,Net-(D1-Pad2)*
X12700000Y-16700000D03*
G04 #@! TD*
D20*
G04 #@! TO.N,3.3V*
X9405000Y-21370000D02*
X9375000Y-21400000D01*
X9405000Y-19945000D02*
X9405000Y-18150000D01*
X9405000Y-21167500D02*
X9437500Y-21200000D01*
X9405000Y-19945000D02*
X9405000Y-21167500D01*
X9400000Y-19950000D02*
X9405000Y-19945000D01*
X9787500Y-21550000D02*
X9437500Y-21200000D01*
X11412500Y-21550000D02*
X9787500Y-21550000D01*
G04 #@! TO.N,GND*
X11000000Y-5850000D02*
X11000000Y-8000000D01*
G04 #@! TO.N,5V*
X4000000Y-5850000D02*
X4000000Y-8000000D01*
G04 #@! TO.N,swclk*
X14400000Y-27080000D02*
X12580000Y-28900000D01*
X14400000Y-9500000D02*
X14400000Y-27080000D01*
X5600000Y-7700000D02*
X5600000Y-4500000D01*
X11600000Y-4100000D02*
X11900000Y-4400000D01*
X6000000Y-4100000D02*
X11600000Y-4100000D01*
X5600000Y-4500000D02*
X6000000Y-4100000D01*
X11900000Y-7000000D02*
X14400000Y-9500000D01*
X11900000Y-4400000D02*
X11900000Y-7000000D01*
G04 #@! TO.N,swdio*
X10850000Y-8800000D02*
X9750000Y-7700000D01*
X14000000Y-9900000D02*
X12900000Y-8800000D01*
X12900000Y-8800000D02*
X10850000Y-8800000D01*
X10040000Y-27900000D02*
X10340000Y-27600000D01*
X10040000Y-28900000D02*
X10040000Y-27900000D01*
X12600000Y-27600000D02*
X14000000Y-26200000D01*
X14000000Y-26200000D02*
X14000000Y-9900000D01*
X10340000Y-27600000D02*
X12600000Y-27600000D01*
G04 #@! TO.N,d-*
X6500000Y-5850000D02*
X6500000Y-7700000D01*
G04 #@! TO.N,d+*
X8500000Y-5850000D02*
X8500000Y-7700000D01*
G04 #@! TO.N,sck*
X6865000Y-18350000D02*
X6865000Y-18150000D01*
X6265000Y-18950000D02*
X6865000Y-18350000D01*
X1300000Y-18950000D02*
X6265000Y-18950000D01*
G04 #@! TO.N,miso*
X7700000Y-11950000D02*
X8135000Y-11515000D01*
X2000000Y-13400000D02*
X3450000Y-11950000D01*
X3450000Y-11950000D02*
X7700000Y-11950000D01*
X8135000Y-11515000D02*
X8135000Y-10650000D01*
X2000000Y-15150000D02*
X1200000Y-15950000D01*
X2000000Y-13400000D02*
X2000000Y-15150000D01*
G04 #@! TO.N,mosi*
X5395000Y-17950000D02*
X5595000Y-18150000D01*
X5495000Y-18050000D02*
X5595000Y-18150000D01*
X1300000Y-18050000D02*
X5495000Y-18050000D01*
G04 #@! TO.N,cs*
X9405000Y-11350000D02*
X8405000Y-12350000D01*
X3750000Y-12350000D02*
X2500000Y-13600000D01*
X9405000Y-10650000D02*
X9405000Y-11350000D01*
X8405000Y-12350000D02*
X3750000Y-12350000D01*
X2500000Y-15550000D02*
X2500000Y-13600000D01*
X1200000Y-16850000D02*
X2500000Y-15550000D01*
G04 #@! TO.N,Net-(C10-Pad2)*
X4200000Y-22750000D02*
X4150000Y-22800000D01*
X4600000Y-22800000D02*
X3950000Y-22800000D01*
X4600000Y-21400000D02*
X4600000Y-22800000D01*
X4250000Y-21550000D02*
X4600000Y-21200000D01*
X3500000Y-21550000D02*
X4250000Y-21550000D01*
G04 #@! TO.N,wp*
X6665000Y-11550000D02*
X3150000Y-11550000D01*
X6865000Y-10650000D02*
X6865000Y-11350000D01*
X6865000Y-11350000D02*
X6665000Y-11550000D01*
X1200000Y-13500000D02*
X3150000Y-11550000D01*
X1200000Y-15000000D02*
X1200000Y-13500000D01*
G04 #@! TO.N,hold*
X1500000Y-19900000D02*
X7200000Y-19900000D01*
X1200000Y-20200000D02*
X1500000Y-19900000D01*
X7200000Y-19900000D02*
X8135000Y-18965000D01*
X8135000Y-18965000D02*
X8135000Y-18150000D01*
G04 #@! TO.N,boot0*
X12700000Y-21374264D02*
X12700000Y-23800000D01*
X12700000Y-20950000D02*
X12700000Y-21374264D01*
X12700000Y-19250000D02*
X12700000Y-20950000D01*
X1600000Y-28260000D02*
X2440000Y-29100000D01*
X1600000Y-25375000D02*
X1600000Y-28260000D01*
G04 #@! TO.N,Net-(D1-Pad1)*
X11700000Y-14575000D02*
X11700000Y-12850000D01*
X11700000Y-15112500D02*
X11700000Y-14575000D01*
G04 #@! TO.N,Net-(D1-Pad2)*
X11712500Y-16700000D02*
X11700000Y-16687500D01*
X12700000Y-16700000D02*
X11712500Y-16700000D01*
G04 #@! TD*
D21*
G04 #@! TO.N,GND*
G36*
X13845616Y-665608D02*
X14138616Y-861384D01*
X14334392Y-1154384D01*
X14405000Y-1509358D01*
X14405000Y-8946386D01*
X12295000Y-6836386D01*
X12295000Y-4438899D01*
X12302738Y-4399999D01*
X12291973Y-4345880D01*
X12272081Y-4245879D01*
X12184779Y-4115221D01*
X12151801Y-4093186D01*
X11906816Y-3848201D01*
X11884779Y-3815221D01*
X11754121Y-3727919D01*
X11638901Y-3705000D01*
X11600000Y-3697262D01*
X11561099Y-3705000D01*
X10390011Y-3705000D01*
X10516357Y-3578654D01*
X10645000Y-3268081D01*
X10645000Y-2931919D01*
X10516357Y-2621346D01*
X10278654Y-2383643D01*
X9968081Y-2255000D01*
X9631919Y-2255000D01*
X9321346Y-2383643D01*
X9083643Y-2621346D01*
X8955000Y-2931919D01*
X8955000Y-3268081D01*
X9083643Y-3578654D01*
X9209989Y-3705000D01*
X6038899Y-3705000D01*
X5999999Y-3697262D01*
X5961099Y-3705000D01*
X5845879Y-3727919D01*
X5715221Y-3815221D01*
X5693186Y-3848199D01*
X5348200Y-4193186D01*
X5315222Y-4215221D01*
X5293187Y-4248199D01*
X5293186Y-4248200D01*
X5227919Y-4345880D01*
X5197262Y-4500000D01*
X5205001Y-4538906D01*
X5205000Y-7253542D01*
X5095583Y-7362959D01*
X5005000Y-7581647D01*
X5005000Y-7818353D01*
X5095583Y-8037041D01*
X5262959Y-8204417D01*
X5481647Y-8295000D01*
X5718353Y-8295000D01*
X5937041Y-8204417D01*
X6050000Y-8091458D01*
X6162959Y-8204417D01*
X6381647Y-8295000D01*
X6618353Y-8295000D01*
X6837041Y-8204417D01*
X7004417Y-8037041D01*
X7095000Y-7818353D01*
X7095000Y-7581647D01*
X7020082Y-7400779D01*
X7050000Y-7400779D01*
X7165103Y-7377884D01*
X7262683Y-7312683D01*
X7327884Y-7215103D01*
X7350779Y-7100000D01*
X7350779Y-4600000D01*
X7329894Y-4495000D01*
X7670106Y-4495000D01*
X7649221Y-4600000D01*
X7649221Y-7100000D01*
X7672116Y-7215103D01*
X7737317Y-7312683D01*
X7834897Y-7377884D01*
X7950000Y-7400779D01*
X7979918Y-7400779D01*
X7905000Y-7581647D01*
X7905000Y-7818353D01*
X7995583Y-8037041D01*
X8162959Y-8204417D01*
X8381647Y-8295000D01*
X8618353Y-8295000D01*
X8837041Y-8204417D01*
X9004417Y-8037041D01*
X9095000Y-7818353D01*
X9095000Y-7581647D01*
X9020082Y-7400779D01*
X9050000Y-7400779D01*
X9165103Y-7377884D01*
X9262683Y-7312683D01*
X9327884Y-7215103D01*
X9350779Y-7100000D01*
X9350779Y-4600000D01*
X9329894Y-4495000D01*
X11436386Y-4495000D01*
X11505000Y-4563615D01*
X11505001Y-6961094D01*
X11497262Y-7000000D01*
X11527919Y-7154120D01*
X11555624Y-7195583D01*
X11615222Y-7284779D01*
X11648200Y-7306814D01*
X12746386Y-8405000D01*
X11013614Y-8405000D01*
X10345000Y-7736386D01*
X10345000Y-7581647D01*
X10254417Y-7362959D01*
X10087041Y-7195583D01*
X9868353Y-7105000D01*
X9631647Y-7105000D01*
X9412959Y-7195583D01*
X9245583Y-7362959D01*
X9155000Y-7581647D01*
X9155000Y-7818353D01*
X9245583Y-8037041D01*
X9412959Y-8204417D01*
X9631647Y-8295000D01*
X9786386Y-8295000D01*
X10543184Y-9051798D01*
X10565221Y-9084779D01*
X10695879Y-9172081D01*
X10850000Y-9202738D01*
X10888901Y-9195000D01*
X12736386Y-9195000D01*
X13605001Y-10063615D01*
X13605000Y-26036385D01*
X12436386Y-27205000D01*
X11495000Y-27205000D01*
X11495000Y-26858750D01*
X11396250Y-26760000D01*
X10260000Y-26760000D01*
X10260000Y-26780000D01*
X10240000Y-26780000D01*
X10240000Y-26760000D01*
X9103750Y-26760000D01*
X9005000Y-26858750D01*
X9005000Y-27328571D01*
X9065135Y-27473750D01*
X9176251Y-27584865D01*
X9321430Y-27645000D01*
X9735325Y-27645000D01*
X9733187Y-27648199D01*
X9733186Y-27648200D01*
X9667919Y-27745880D01*
X9637262Y-27900000D01*
X9645001Y-27938905D01*
X9645001Y-28015117D01*
X9613243Y-28021434D01*
X9234502Y-28274502D01*
X8981434Y-28653243D01*
X8892569Y-29100000D01*
X8981434Y-29546757D01*
X9234502Y-29925498D01*
X9613243Y-30178566D01*
X9947231Y-30245000D01*
X10172769Y-30245000D01*
X10506757Y-30178566D01*
X10885498Y-29925498D01*
X11138566Y-29546757D01*
X11227431Y-29100000D01*
X11138566Y-28653243D01*
X10885498Y-28274502D01*
X10506757Y-28021434D01*
X10482088Y-28016527D01*
X10503615Y-27995000D01*
X11600649Y-27995000D01*
X11537317Y-28037317D01*
X11472116Y-28134897D01*
X11449221Y-28250000D01*
X11449221Y-29950000D01*
X11472116Y-30065103D01*
X11537317Y-30162683D01*
X11634897Y-30227884D01*
X11750000Y-30250779D01*
X13450000Y-30250779D01*
X13565103Y-30227884D01*
X13662683Y-30162683D01*
X13727884Y-30065103D01*
X13750779Y-29950000D01*
X13750779Y-28287835D01*
X14405000Y-27633614D01*
X14405000Y-29490642D01*
X14334392Y-29845616D01*
X14138616Y-30138616D01*
X13845616Y-30334392D01*
X13490642Y-30405000D01*
X1509358Y-30405000D01*
X1154384Y-30334392D01*
X861384Y-30138616D01*
X665608Y-29845616D01*
X595000Y-29490642D01*
X595000Y-25156250D01*
X824221Y-25156250D01*
X824221Y-25593750D01*
X863768Y-25792565D01*
X976388Y-25961112D01*
X1144935Y-26073732D01*
X1205000Y-26085680D01*
X1205001Y-28221094D01*
X1197262Y-28260000D01*
X1227919Y-28414120D01*
X1227920Y-28414121D01*
X1315222Y-28544779D01*
X1348200Y-28566814D01*
X1390752Y-28609366D01*
X1361434Y-28653243D01*
X1272569Y-29100000D01*
X1361434Y-29546757D01*
X1614502Y-29925498D01*
X1993243Y-30178566D01*
X2327231Y-30245000D01*
X2552769Y-30245000D01*
X2886757Y-30178566D01*
X3265498Y-29925498D01*
X3518566Y-29546757D01*
X3607431Y-29100000D01*
X3812569Y-29100000D01*
X3901434Y-29546757D01*
X4154502Y-29925498D01*
X4533243Y-30178566D01*
X4867231Y-30245000D01*
X5092769Y-30245000D01*
X5426757Y-30178566D01*
X5805498Y-29925498D01*
X6058566Y-29546757D01*
X6147431Y-29100000D01*
X6058566Y-28653243D01*
X5805498Y-28274502D01*
X5426757Y-28021434D01*
X5092769Y-27955000D01*
X4867231Y-27955000D01*
X4533243Y-28021434D01*
X4154502Y-28274502D01*
X3901434Y-28653243D01*
X3812569Y-29100000D01*
X3607431Y-29100000D01*
X3518566Y-28653243D01*
X3265498Y-28274502D01*
X2886757Y-28021434D01*
X2552769Y-27955000D01*
X2327231Y-27955000D01*
X1995000Y-28021085D01*
X1995000Y-26858750D01*
X2705000Y-26858750D01*
X2705000Y-27328571D01*
X2765135Y-27473750D01*
X2876251Y-27584865D01*
X3021430Y-27645000D01*
X3841250Y-27645000D01*
X3940000Y-27546250D01*
X3940000Y-26760000D01*
X3960000Y-26760000D01*
X3960000Y-27546250D01*
X4058750Y-27645000D01*
X4878570Y-27645000D01*
X5023749Y-27584865D01*
X5134865Y-27473750D01*
X5195000Y-27328571D01*
X5195000Y-26858750D01*
X5096250Y-26760000D01*
X3960000Y-26760000D01*
X3940000Y-26760000D01*
X2803750Y-26760000D01*
X2705000Y-26858750D01*
X1995000Y-26858750D01*
X1995000Y-26171429D01*
X2705000Y-26171429D01*
X2705000Y-26641250D01*
X2803750Y-26740000D01*
X3940000Y-26740000D01*
X3940000Y-25953750D01*
X3960000Y-25953750D01*
X3960000Y-26740000D01*
X5096250Y-26740000D01*
X5195000Y-26641250D01*
X5195000Y-26171429D01*
X9005000Y-26171429D01*
X9005000Y-26641250D01*
X9103750Y-26740000D01*
X10240000Y-26740000D01*
X10240000Y-25953750D01*
X10260000Y-25953750D01*
X10260000Y-26740000D01*
X11396250Y-26740000D01*
X11495000Y-26641250D01*
X11495000Y-26171429D01*
X11434865Y-26026250D01*
X11323749Y-25915135D01*
X11178570Y-25855000D01*
X10358750Y-25855000D01*
X10260000Y-25953750D01*
X10240000Y-25953750D01*
X10141250Y-25855000D01*
X9321430Y-25855000D01*
X9176251Y-25915135D01*
X9065135Y-26026250D01*
X9005000Y-26171429D01*
X5195000Y-26171429D01*
X5134865Y-26026250D01*
X5023749Y-25915135D01*
X4878570Y-25855000D01*
X4058750Y-25855000D01*
X3960000Y-25953750D01*
X3940000Y-25953750D01*
X3841250Y-25855000D01*
X3021430Y-25855000D01*
X2876251Y-25915135D01*
X2765135Y-26026250D01*
X2705000Y-26171429D01*
X1995000Y-26171429D01*
X1995000Y-26085680D01*
X2055065Y-26073732D01*
X2223612Y-25961112D01*
X2336232Y-25792565D01*
X2375779Y-25593750D01*
X2375779Y-25483750D01*
X11830000Y-25483750D01*
X11830000Y-25891070D01*
X11890135Y-26036249D01*
X12001250Y-26147365D01*
X12146429Y-26207500D01*
X12591250Y-26207500D01*
X12690000Y-26108750D01*
X12690000Y-25385000D01*
X12710000Y-25385000D01*
X12710000Y-26108750D01*
X12808750Y-26207500D01*
X13253571Y-26207500D01*
X13398750Y-26147365D01*
X13509865Y-26036249D01*
X13570000Y-25891070D01*
X13570000Y-25483750D01*
X13471250Y-25385000D01*
X12710000Y-25385000D01*
X12690000Y-25385000D01*
X11928750Y-25385000D01*
X11830000Y-25483750D01*
X2375779Y-25483750D01*
X2375779Y-25156250D01*
X2336232Y-24957435D01*
X2270413Y-24858930D01*
X11830000Y-24858930D01*
X11830000Y-25266250D01*
X11928750Y-25365000D01*
X12690000Y-25365000D01*
X12690000Y-24641250D01*
X12710000Y-24641250D01*
X12710000Y-25365000D01*
X13471250Y-25365000D01*
X13570000Y-25266250D01*
X13570000Y-24858930D01*
X13509865Y-24713751D01*
X13398750Y-24602635D01*
X13253571Y-24542500D01*
X12808750Y-24542500D01*
X12710000Y-24641250D01*
X12690000Y-24641250D01*
X12591250Y-24542500D01*
X12146429Y-24542500D01*
X12001250Y-24602635D01*
X11890135Y-24713751D01*
X11830000Y-24858930D01*
X2270413Y-24858930D01*
X2223612Y-24788888D01*
X2055065Y-24676268D01*
X1856250Y-24636721D01*
X1343750Y-24636721D01*
X1144935Y-24676268D01*
X976388Y-24788888D01*
X863768Y-24957435D01*
X824221Y-25156250D01*
X595000Y-25156250D01*
X595000Y-23908750D01*
X730000Y-23908750D01*
X730000Y-24316070D01*
X790135Y-24461249D01*
X901250Y-24572365D01*
X1046429Y-24632500D01*
X1491250Y-24632500D01*
X1590000Y-24533750D01*
X1590000Y-23810000D01*
X1610000Y-23810000D01*
X1610000Y-24533750D01*
X1708750Y-24632500D01*
X2153571Y-24632500D01*
X2298750Y-24572365D01*
X2409865Y-24461249D01*
X2470000Y-24316070D01*
X2470000Y-23908750D01*
X2371250Y-23810000D01*
X1610000Y-23810000D01*
X1590000Y-23810000D01*
X828750Y-23810000D01*
X730000Y-23908750D01*
X595000Y-23908750D01*
X595000Y-23283930D01*
X730000Y-23283930D01*
X730000Y-23691250D01*
X828750Y-23790000D01*
X1590000Y-23790000D01*
X1590000Y-23066250D01*
X1610000Y-23066250D01*
X1610000Y-23790000D01*
X2371250Y-23790000D01*
X2470000Y-23691250D01*
X2470000Y-23283930D01*
X2409865Y-23138751D01*
X2298750Y-23027635D01*
X2153571Y-22967500D01*
X1708750Y-22967500D01*
X1610000Y-23066250D01*
X1590000Y-23066250D01*
X1491250Y-22967500D01*
X1046429Y-22967500D01*
X901250Y-23027635D01*
X790135Y-23138751D01*
X730000Y-23283930D01*
X595000Y-23283930D01*
X595000Y-22450000D01*
X2799221Y-22450000D01*
X2799221Y-23450000D01*
X2822116Y-23565103D01*
X2887317Y-23662683D01*
X2984897Y-23727884D01*
X3100000Y-23750779D01*
X4800000Y-23750779D01*
X4915103Y-23727884D01*
X5012683Y-23662683D01*
X5077884Y-23565103D01*
X5100779Y-23450000D01*
X5100779Y-22450000D01*
X9099221Y-22450000D01*
X9099221Y-23450000D01*
X9122116Y-23565103D01*
X9187317Y-23662683D01*
X9284897Y-23727884D01*
X9400000Y-23750779D01*
X11100000Y-23750779D01*
X11215103Y-23727884D01*
X11312683Y-23662683D01*
X11367094Y-23581250D01*
X11924221Y-23581250D01*
X11924221Y-24018750D01*
X11963768Y-24217565D01*
X12076388Y-24386112D01*
X12244935Y-24498732D01*
X12443750Y-24538279D01*
X12956250Y-24538279D01*
X13155065Y-24498732D01*
X13323612Y-24386112D01*
X13436232Y-24217565D01*
X13475779Y-24018750D01*
X13475779Y-23581250D01*
X13436232Y-23382435D01*
X13323612Y-23213888D01*
X13155065Y-23101268D01*
X13095000Y-23089320D01*
X13095000Y-21396458D01*
X13204417Y-21287041D01*
X13295000Y-21068353D01*
X13295000Y-20831647D01*
X13204417Y-20612959D01*
X13095000Y-20503542D01*
X13095000Y-19696458D01*
X13204417Y-19587041D01*
X13295000Y-19368353D01*
X13295000Y-19131647D01*
X13204417Y-18912959D01*
X13037041Y-18745583D01*
X12818353Y-18655000D01*
X12581647Y-18655000D01*
X12362959Y-18745583D01*
X12195583Y-18912959D01*
X12105000Y-19131647D01*
X12105000Y-19368353D01*
X12195583Y-19587041D01*
X12305000Y-19696458D01*
X12305001Y-20503541D01*
X12195583Y-20612959D01*
X12105000Y-20831647D01*
X12105000Y-21068353D01*
X12195583Y-21287041D01*
X12305000Y-21396458D01*
X12305001Y-23089320D01*
X12244935Y-23101268D01*
X12076388Y-23213888D01*
X11963768Y-23382435D01*
X11924221Y-23581250D01*
X11367094Y-23581250D01*
X11377884Y-23565103D01*
X11400779Y-23450000D01*
X11400779Y-22450000D01*
X11377884Y-22334897D01*
X11312683Y-22237317D01*
X11215103Y-22172116D01*
X11100000Y-22149221D01*
X9400000Y-22149221D01*
X9284897Y-22172116D01*
X9187317Y-22237317D01*
X9122116Y-22334897D01*
X9099221Y-22450000D01*
X5100779Y-22450000D01*
X5077884Y-22334897D01*
X5012683Y-22237317D01*
X4995000Y-22225502D01*
X4995000Y-21940720D01*
X5017565Y-21936232D01*
X5186112Y-21823612D01*
X5298732Y-21655065D01*
X5338279Y-21456250D01*
X5338279Y-21308750D01*
X5342500Y-21308750D01*
X5342500Y-21753571D01*
X5402635Y-21898750D01*
X5513751Y-22009865D01*
X5658930Y-22070000D01*
X6066250Y-22070000D01*
X6165000Y-21971250D01*
X6165000Y-21210000D01*
X6185000Y-21210000D01*
X6185000Y-21971250D01*
X6283750Y-22070000D01*
X6691070Y-22070000D01*
X6836249Y-22009865D01*
X6947365Y-21898750D01*
X7007500Y-21753571D01*
X7007500Y-21308750D01*
X7030000Y-21308750D01*
X7030000Y-21753571D01*
X7090135Y-21898750D01*
X7201251Y-22009865D01*
X7346430Y-22070000D01*
X7753750Y-22070000D01*
X7852500Y-21971250D01*
X7852500Y-21210000D01*
X7872500Y-21210000D01*
X7872500Y-21971250D01*
X7971250Y-22070000D01*
X8378570Y-22070000D01*
X8523749Y-22009865D01*
X8634865Y-21898750D01*
X8695000Y-21753571D01*
X8695000Y-21308750D01*
X8596250Y-21210000D01*
X7872500Y-21210000D01*
X7852500Y-21210000D01*
X7128750Y-21210000D01*
X7030000Y-21308750D01*
X7007500Y-21308750D01*
X6908750Y-21210000D01*
X6185000Y-21210000D01*
X6165000Y-21210000D01*
X5441250Y-21210000D01*
X5342500Y-21308750D01*
X5338279Y-21308750D01*
X5338279Y-20943750D01*
X5298732Y-20744935D01*
X5232913Y-20646429D01*
X5342500Y-20646429D01*
X5342500Y-21091250D01*
X5441250Y-21190000D01*
X6165000Y-21190000D01*
X6165000Y-20428750D01*
X6185000Y-20428750D01*
X6185000Y-21190000D01*
X6908750Y-21190000D01*
X7007500Y-21091250D01*
X7007500Y-20646429D01*
X7030000Y-20646429D01*
X7030000Y-21091250D01*
X7128750Y-21190000D01*
X7852500Y-21190000D01*
X7852500Y-20428750D01*
X7872500Y-20428750D01*
X7872500Y-21190000D01*
X8596250Y-21190000D01*
X8695000Y-21091250D01*
X8695000Y-20943750D01*
X8699221Y-20943750D01*
X8699221Y-21456250D01*
X8738768Y-21655065D01*
X8851388Y-21823612D01*
X9019935Y-21936232D01*
X9218750Y-21975779D01*
X9656250Y-21975779D01*
X9779792Y-21951205D01*
X9787500Y-21952738D01*
X9826401Y-21945000D01*
X10966042Y-21945000D01*
X11075459Y-22054417D01*
X11294147Y-22145000D01*
X11530853Y-22145000D01*
X11749541Y-22054417D01*
X11916917Y-21887041D01*
X12007500Y-21668353D01*
X12007500Y-21431647D01*
X11916917Y-21212959D01*
X11749541Y-21045583D01*
X11530853Y-20955000D01*
X11294147Y-20955000D01*
X11075459Y-21045583D01*
X10966042Y-21155000D01*
X10175779Y-21155000D01*
X10175779Y-20943750D01*
X10136232Y-20744935D01*
X10023612Y-20576388D01*
X9855065Y-20463768D01*
X9800000Y-20452815D01*
X9800000Y-19983900D01*
X9807738Y-19945001D01*
X9800000Y-19906099D01*
X9800000Y-18931883D01*
X9820103Y-18927884D01*
X9917683Y-18862683D01*
X9982884Y-18765103D01*
X10005779Y-18650000D01*
X10005779Y-17650000D01*
X9982884Y-17534897D01*
X9917683Y-17437317D01*
X9820103Y-17372116D01*
X9705000Y-17349221D01*
X9105000Y-17349221D01*
X8989897Y-17372116D01*
X8892317Y-17437317D01*
X8827116Y-17534897D01*
X8804221Y-17650000D01*
X8804221Y-18650000D01*
X8827116Y-18765103D01*
X8892317Y-18862683D01*
X8989897Y-18927884D01*
X9010001Y-18931883D01*
X9010000Y-19885963D01*
X8997262Y-19950000D01*
X9010000Y-20014037D01*
X9010000Y-20470406D01*
X8851388Y-20576388D01*
X8738768Y-20744935D01*
X8699221Y-20943750D01*
X8695000Y-20943750D01*
X8695000Y-20646429D01*
X8634865Y-20501250D01*
X8523749Y-20390135D01*
X8378570Y-20330000D01*
X7971250Y-20330000D01*
X7872500Y-20428750D01*
X7852500Y-20428750D01*
X7753750Y-20330000D01*
X7346430Y-20330000D01*
X7201251Y-20390135D01*
X7090135Y-20501250D01*
X7030000Y-20646429D01*
X7007500Y-20646429D01*
X6947365Y-20501250D01*
X6836249Y-20390135D01*
X6691070Y-20330000D01*
X6283750Y-20330000D01*
X6185000Y-20428750D01*
X6165000Y-20428750D01*
X6066250Y-20330000D01*
X5658930Y-20330000D01*
X5513751Y-20390135D01*
X5402635Y-20501250D01*
X5342500Y-20646429D01*
X5232913Y-20646429D01*
X5186112Y-20576388D01*
X5017565Y-20463768D01*
X4818750Y-20424221D01*
X4381250Y-20424221D01*
X4182435Y-20463768D01*
X4013888Y-20576388D01*
X3901268Y-20744935D01*
X3861721Y-20943750D01*
X3861721Y-21070263D01*
X3837041Y-21045583D01*
X3618353Y-20955000D01*
X3381647Y-20955000D01*
X3162959Y-21045583D01*
X2995583Y-21212959D01*
X2905000Y-21431647D01*
X2905000Y-21668353D01*
X2995583Y-21887041D01*
X3162959Y-22054417D01*
X3381647Y-22145000D01*
X3618353Y-22145000D01*
X3837041Y-22054417D01*
X3946458Y-21945000D01*
X4205000Y-21945000D01*
X4205001Y-22149221D01*
X3100000Y-22149221D01*
X2984897Y-22172116D01*
X2887317Y-22237317D01*
X2822116Y-22334897D01*
X2799221Y-22450000D01*
X595000Y-22450000D01*
X595000Y-17931647D01*
X605000Y-17931647D01*
X605000Y-18168353D01*
X695583Y-18387041D01*
X808542Y-18500000D01*
X695583Y-18612959D01*
X605000Y-18831647D01*
X605000Y-19068353D01*
X695583Y-19287041D01*
X862959Y-19454417D01*
X1081647Y-19545000D01*
X1318353Y-19545000D01*
X1323516Y-19542862D01*
X1230518Y-19605000D01*
X1081647Y-19605000D01*
X862959Y-19695583D01*
X695583Y-19862959D01*
X605000Y-20081647D01*
X605000Y-20318353D01*
X695583Y-20537041D01*
X862959Y-20704417D01*
X1081647Y-20795000D01*
X1318353Y-20795000D01*
X1537041Y-20704417D01*
X1704417Y-20537041D01*
X1795000Y-20318353D01*
X1795000Y-20295000D01*
X7161099Y-20295000D01*
X7200000Y-20302738D01*
X7238901Y-20295000D01*
X7354121Y-20272081D01*
X7484779Y-20184779D01*
X7506816Y-20151798D01*
X8386799Y-19271815D01*
X8419779Y-19249779D01*
X8507081Y-19119121D01*
X8530000Y-19003901D01*
X8530000Y-19003900D01*
X8537738Y-18965000D01*
X8531107Y-18931663D01*
X8550103Y-18927884D01*
X8647683Y-18862683D01*
X8712884Y-18765103D01*
X8735779Y-18650000D01*
X8735779Y-17650000D01*
X8712884Y-17534897D01*
X8647683Y-17437317D01*
X8550103Y-17372116D01*
X8435000Y-17349221D01*
X7835000Y-17349221D01*
X7719897Y-17372116D01*
X7622317Y-17437317D01*
X7557116Y-17534897D01*
X7534221Y-17650000D01*
X7534221Y-18650000D01*
X7557116Y-18765103D01*
X7622317Y-18862683D01*
X7656118Y-18885268D01*
X7036386Y-19505000D01*
X1538899Y-19505000D01*
X1499999Y-19497262D01*
X1461099Y-19505000D01*
X1372259Y-19522672D01*
X1537041Y-19454417D01*
X1646458Y-19345000D01*
X6226099Y-19345000D01*
X6265000Y-19352738D01*
X6303901Y-19345000D01*
X6419121Y-19322081D01*
X6549779Y-19234779D01*
X6571816Y-19201798D01*
X6822835Y-18950779D01*
X7165000Y-18950779D01*
X7280103Y-18927884D01*
X7377683Y-18862683D01*
X7442884Y-18765103D01*
X7465779Y-18650000D01*
X7465779Y-17650000D01*
X7442884Y-17534897D01*
X7377683Y-17437317D01*
X7280103Y-17372116D01*
X7165000Y-17349221D01*
X6565000Y-17349221D01*
X6449897Y-17372116D01*
X6352317Y-17437317D01*
X6287116Y-17534897D01*
X6264221Y-17650000D01*
X6264221Y-18392165D01*
X6195779Y-18460607D01*
X6195779Y-17650000D01*
X6172884Y-17534897D01*
X6107683Y-17437317D01*
X6010103Y-17372116D01*
X5895000Y-17349221D01*
X5295000Y-17349221D01*
X5179897Y-17372116D01*
X5082317Y-17437317D01*
X5017116Y-17534897D01*
X4994221Y-17650000D01*
X4994221Y-17655000D01*
X1646458Y-17655000D01*
X1537041Y-17545583D01*
X1318353Y-17455000D01*
X1081647Y-17455000D01*
X862959Y-17545583D01*
X695583Y-17712959D01*
X605000Y-17931647D01*
X595000Y-17931647D01*
X595000Y-14881647D01*
X605000Y-14881647D01*
X605000Y-15118353D01*
X695583Y-15337041D01*
X833542Y-15475000D01*
X695583Y-15612959D01*
X605000Y-15831647D01*
X605000Y-16068353D01*
X695583Y-16287041D01*
X808542Y-16400000D01*
X695583Y-16512959D01*
X605000Y-16731647D01*
X605000Y-16968353D01*
X695583Y-17187041D01*
X862959Y-17354417D01*
X1081647Y-17445000D01*
X1318353Y-17445000D01*
X1537041Y-17354417D01*
X1704417Y-17187041D01*
X1795000Y-16968353D01*
X1795000Y-16813614D01*
X2139864Y-16468750D01*
X10924221Y-16468750D01*
X10924221Y-16906250D01*
X10963768Y-17105065D01*
X11076388Y-17273612D01*
X11244935Y-17386232D01*
X11443750Y-17425779D01*
X11956250Y-17425779D01*
X12155065Y-17386232D01*
X12323612Y-17273612D01*
X12368354Y-17206652D01*
X12581647Y-17295000D01*
X12818353Y-17295000D01*
X13037041Y-17204417D01*
X13204417Y-17037041D01*
X13295000Y-16818353D01*
X13295000Y-16581647D01*
X13204417Y-16362959D01*
X13037041Y-16195583D01*
X12818353Y-16105000D01*
X12581647Y-16105000D01*
X12381437Y-16187929D01*
X12323612Y-16101388D01*
X12155065Y-15988768D01*
X11956250Y-15949221D01*
X11443750Y-15949221D01*
X11244935Y-15988768D01*
X11076388Y-16101388D01*
X10963768Y-16269935D01*
X10924221Y-16468750D01*
X2139864Y-16468750D01*
X2751799Y-15856815D01*
X2784779Y-15834779D01*
X2872081Y-15704121D01*
X2895000Y-15588901D01*
X2895000Y-15588900D01*
X2902738Y-15550000D01*
X2895000Y-15511099D01*
X2895000Y-13763614D01*
X3913614Y-12745000D01*
X8366099Y-12745000D01*
X8405000Y-12752738D01*
X8443901Y-12745000D01*
X8559121Y-12722081D01*
X8689779Y-12634779D01*
X8692136Y-12631250D01*
X10924221Y-12631250D01*
X10924221Y-13068750D01*
X10963768Y-13267565D01*
X11076388Y-13436112D01*
X11244935Y-13548732D01*
X11305001Y-13560680D01*
X11305000Y-14401820D01*
X11244935Y-14413768D01*
X11076388Y-14526388D01*
X10963768Y-14694935D01*
X10924221Y-14893750D01*
X10924221Y-15331250D01*
X10963768Y-15530065D01*
X11076388Y-15698612D01*
X11244935Y-15811232D01*
X11443750Y-15850779D01*
X11956250Y-15850779D01*
X12155065Y-15811232D01*
X12323612Y-15698612D01*
X12436232Y-15530065D01*
X12475779Y-15331250D01*
X12475779Y-14893750D01*
X12436232Y-14694935D01*
X12323612Y-14526388D01*
X12155065Y-14413768D01*
X12095000Y-14401820D01*
X12095000Y-13560680D01*
X12155065Y-13548732D01*
X12323612Y-13436112D01*
X12436232Y-13267565D01*
X12475779Y-13068750D01*
X12475779Y-12631250D01*
X12436232Y-12432435D01*
X12323612Y-12263888D01*
X12155065Y-12151268D01*
X11956250Y-12111721D01*
X11443750Y-12111721D01*
X11244935Y-12151268D01*
X11076388Y-12263888D01*
X10963768Y-12432435D01*
X10924221Y-12631250D01*
X8692136Y-12631250D01*
X8711816Y-12601798D01*
X9656798Y-11656816D01*
X9689779Y-11634779D01*
X9777081Y-11504121D01*
X9791098Y-11433653D01*
X9820103Y-11427884D01*
X9886154Y-11383750D01*
X10830000Y-11383750D01*
X10830000Y-11791070D01*
X10890135Y-11936249D01*
X11001250Y-12047365D01*
X11146429Y-12107500D01*
X11591250Y-12107500D01*
X11690000Y-12008750D01*
X11690000Y-11285000D01*
X11710000Y-11285000D01*
X11710000Y-12008750D01*
X11808750Y-12107500D01*
X12253571Y-12107500D01*
X12398750Y-12047365D01*
X12509865Y-11936249D01*
X12570000Y-11791070D01*
X12570000Y-11383750D01*
X12471250Y-11285000D01*
X11710000Y-11285000D01*
X11690000Y-11285000D01*
X10928750Y-11285000D01*
X10830000Y-11383750D01*
X9886154Y-11383750D01*
X9917683Y-11362683D01*
X9982884Y-11265103D01*
X10005779Y-11150000D01*
X10005779Y-10758930D01*
X10830000Y-10758930D01*
X10830000Y-11166250D01*
X10928750Y-11265000D01*
X11690000Y-11265000D01*
X11690000Y-10541250D01*
X11710000Y-10541250D01*
X11710000Y-11265000D01*
X12471250Y-11265000D01*
X12570000Y-11166250D01*
X12570000Y-10758930D01*
X12509865Y-10613751D01*
X12398750Y-10502635D01*
X12253571Y-10442500D01*
X11808750Y-10442500D01*
X11710000Y-10541250D01*
X11690000Y-10541250D01*
X11591250Y-10442500D01*
X11146429Y-10442500D01*
X11001250Y-10502635D01*
X10890135Y-10613751D01*
X10830000Y-10758930D01*
X10005779Y-10758930D01*
X10005779Y-10150000D01*
X9982884Y-10034897D01*
X9917683Y-9937317D01*
X9820103Y-9872116D01*
X9705000Y-9849221D01*
X9105000Y-9849221D01*
X8989897Y-9872116D01*
X8892317Y-9937317D01*
X8827116Y-10034897D01*
X8804221Y-10150000D01*
X8804221Y-11150000D01*
X8827116Y-11265103D01*
X8868839Y-11327547D01*
X8466438Y-11729948D01*
X8507081Y-11669121D01*
X8530000Y-11553901D01*
X8530000Y-11553900D01*
X8537738Y-11515000D01*
X8530000Y-11476099D01*
X8530000Y-11431883D01*
X8550103Y-11427884D01*
X8647683Y-11362683D01*
X8712884Y-11265103D01*
X8735779Y-11150000D01*
X8735779Y-10150000D01*
X8712884Y-10034897D01*
X8647683Y-9937317D01*
X8550103Y-9872116D01*
X8435000Y-9849221D01*
X7835000Y-9849221D01*
X7719897Y-9872116D01*
X7622317Y-9937317D01*
X7557116Y-10034897D01*
X7534221Y-10150000D01*
X7534221Y-11150000D01*
X7557116Y-11265103D01*
X7622317Y-11362683D01*
X7686091Y-11405295D01*
X7536386Y-11555000D01*
X7203085Y-11555000D01*
X7237081Y-11504121D01*
X7251098Y-11433653D01*
X7280103Y-11427884D01*
X7377683Y-11362683D01*
X7442884Y-11265103D01*
X7465779Y-11150000D01*
X7465779Y-10150000D01*
X7442884Y-10034897D01*
X7377683Y-9937317D01*
X7280103Y-9872116D01*
X7165000Y-9849221D01*
X6565000Y-9849221D01*
X6449897Y-9872116D01*
X6352317Y-9937317D01*
X6287116Y-10034897D01*
X6283142Y-10054874D01*
X6229865Y-9926251D01*
X6118750Y-9815135D01*
X5973571Y-9755000D01*
X5703750Y-9755000D01*
X5605000Y-9853750D01*
X5605000Y-10640000D01*
X5625000Y-10640000D01*
X5625000Y-10660000D01*
X5605000Y-10660000D01*
X5605000Y-10680000D01*
X5585000Y-10680000D01*
X5585000Y-10660000D01*
X4998750Y-10660000D01*
X4900000Y-10758750D01*
X4900000Y-11155000D01*
X3188899Y-11155000D01*
X3149999Y-11147262D01*
X3111099Y-11155000D01*
X2995879Y-11177919D01*
X2865221Y-11265221D01*
X2843186Y-11298199D01*
X948200Y-13193186D01*
X915222Y-13215221D01*
X893187Y-13248199D01*
X893186Y-13248200D01*
X827919Y-13345880D01*
X797262Y-13500000D01*
X805001Y-13538906D01*
X805000Y-14553542D01*
X695583Y-14662959D01*
X605000Y-14881647D01*
X595000Y-14881647D01*
X595000Y-10071430D01*
X4900000Y-10071430D01*
X4900000Y-10541250D01*
X4998750Y-10640000D01*
X5585000Y-10640000D01*
X5585000Y-9853750D01*
X5486250Y-9755000D01*
X5216429Y-9755000D01*
X5071250Y-9815135D01*
X4960135Y-9926251D01*
X4900000Y-10071430D01*
X595000Y-10071430D01*
X595000Y-4600000D01*
X3149221Y-4600000D01*
X3149221Y-7100000D01*
X3172116Y-7215103D01*
X3237317Y-7312683D01*
X3334897Y-7377884D01*
X3450000Y-7400779D01*
X3605001Y-7400779D01*
X3605001Y-7553541D01*
X3495583Y-7662959D01*
X3405000Y-7881647D01*
X3405000Y-8118353D01*
X3495583Y-8337041D01*
X3662959Y-8504417D01*
X3881647Y-8595000D01*
X4118353Y-8595000D01*
X4337041Y-8504417D01*
X4504417Y-8337041D01*
X4595000Y-8118353D01*
X4595000Y-7881647D01*
X4504417Y-7662959D01*
X4395000Y-7553542D01*
X4395000Y-7400779D01*
X4550000Y-7400779D01*
X4665103Y-7377884D01*
X4762683Y-7312683D01*
X4827884Y-7215103D01*
X4850779Y-7100000D01*
X4850779Y-4600000D01*
X4827884Y-4484897D01*
X4762683Y-4387317D01*
X4665103Y-4322116D01*
X4550000Y-4299221D01*
X3450000Y-4299221D01*
X3334897Y-4322116D01*
X3237317Y-4387317D01*
X3172116Y-4484897D01*
X3149221Y-4600000D01*
X595000Y-4600000D01*
X595000Y-2931919D01*
X4355000Y-2931919D01*
X4355000Y-3268081D01*
X4483643Y-3578654D01*
X4721346Y-3816357D01*
X5031919Y-3945000D01*
X5368081Y-3945000D01*
X5678654Y-3816357D01*
X5916357Y-3578654D01*
X6045000Y-3268081D01*
X6045000Y-2931919D01*
X5916357Y-2621346D01*
X5678654Y-2383643D01*
X5368081Y-2255000D01*
X5031919Y-2255000D01*
X4721346Y-2383643D01*
X4483643Y-2621346D01*
X4355000Y-2931919D01*
X595000Y-2931919D01*
X595000Y-1509358D01*
X665608Y-1154384D01*
X861384Y-861384D01*
X1154384Y-665608D01*
X1509358Y-595000D01*
X13490642Y-595000D01*
X13845616Y-665608D01*
X13845616Y-665608D01*
G37*
X13845616Y-665608D02*
X14138616Y-861384D01*
X14334392Y-1154384D01*
X14405000Y-1509358D01*
X14405000Y-8946386D01*
X12295000Y-6836386D01*
X12295000Y-4438899D01*
X12302738Y-4399999D01*
X12291973Y-4345880D01*
X12272081Y-4245879D01*
X12184779Y-4115221D01*
X12151801Y-4093186D01*
X11906816Y-3848201D01*
X11884779Y-3815221D01*
X11754121Y-3727919D01*
X11638901Y-3705000D01*
X11600000Y-3697262D01*
X11561099Y-3705000D01*
X10390011Y-3705000D01*
X10516357Y-3578654D01*
X10645000Y-3268081D01*
X10645000Y-2931919D01*
X10516357Y-2621346D01*
X10278654Y-2383643D01*
X9968081Y-2255000D01*
X9631919Y-2255000D01*
X9321346Y-2383643D01*
X9083643Y-2621346D01*
X8955000Y-2931919D01*
X8955000Y-3268081D01*
X9083643Y-3578654D01*
X9209989Y-3705000D01*
X6038899Y-3705000D01*
X5999999Y-3697262D01*
X5961099Y-3705000D01*
X5845879Y-3727919D01*
X5715221Y-3815221D01*
X5693186Y-3848199D01*
X5348200Y-4193186D01*
X5315222Y-4215221D01*
X5293187Y-4248199D01*
X5293186Y-4248200D01*
X5227919Y-4345880D01*
X5197262Y-4500000D01*
X5205001Y-4538906D01*
X5205000Y-7253542D01*
X5095583Y-7362959D01*
X5005000Y-7581647D01*
X5005000Y-7818353D01*
X5095583Y-8037041D01*
X5262959Y-8204417D01*
X5481647Y-8295000D01*
X5718353Y-8295000D01*
X5937041Y-8204417D01*
X6050000Y-8091458D01*
X6162959Y-8204417D01*
X6381647Y-8295000D01*
X6618353Y-8295000D01*
X6837041Y-8204417D01*
X7004417Y-8037041D01*
X7095000Y-7818353D01*
X7095000Y-7581647D01*
X7020082Y-7400779D01*
X7050000Y-7400779D01*
X7165103Y-7377884D01*
X7262683Y-7312683D01*
X7327884Y-7215103D01*
X7350779Y-7100000D01*
X7350779Y-4600000D01*
X7329894Y-4495000D01*
X7670106Y-4495000D01*
X7649221Y-4600000D01*
X7649221Y-7100000D01*
X7672116Y-7215103D01*
X7737317Y-7312683D01*
X7834897Y-7377884D01*
X7950000Y-7400779D01*
X7979918Y-7400779D01*
X7905000Y-7581647D01*
X7905000Y-7818353D01*
X7995583Y-8037041D01*
X8162959Y-8204417D01*
X8381647Y-8295000D01*
X8618353Y-8295000D01*
X8837041Y-8204417D01*
X9004417Y-8037041D01*
X9095000Y-7818353D01*
X9095000Y-7581647D01*
X9020082Y-7400779D01*
X9050000Y-7400779D01*
X9165103Y-7377884D01*
X9262683Y-7312683D01*
X9327884Y-7215103D01*
X9350779Y-7100000D01*
X9350779Y-4600000D01*
X9329894Y-4495000D01*
X11436386Y-4495000D01*
X11505000Y-4563615D01*
X11505001Y-6961094D01*
X11497262Y-7000000D01*
X11527919Y-7154120D01*
X11555624Y-7195583D01*
X11615222Y-7284779D01*
X11648200Y-7306814D01*
X12746386Y-8405000D01*
X11013614Y-8405000D01*
X10345000Y-7736386D01*
X10345000Y-7581647D01*
X10254417Y-7362959D01*
X10087041Y-7195583D01*
X9868353Y-7105000D01*
X9631647Y-7105000D01*
X9412959Y-7195583D01*
X9245583Y-7362959D01*
X9155000Y-7581647D01*
X9155000Y-7818353D01*
X9245583Y-8037041D01*
X9412959Y-8204417D01*
X9631647Y-8295000D01*
X9786386Y-8295000D01*
X10543184Y-9051798D01*
X10565221Y-9084779D01*
X10695879Y-9172081D01*
X10850000Y-9202738D01*
X10888901Y-9195000D01*
X12736386Y-9195000D01*
X13605001Y-10063615D01*
X13605000Y-26036385D01*
X12436386Y-27205000D01*
X11495000Y-27205000D01*
X11495000Y-26858750D01*
X11396250Y-26760000D01*
X10260000Y-26760000D01*
X10260000Y-26780000D01*
X10240000Y-26780000D01*
X10240000Y-26760000D01*
X9103750Y-26760000D01*
X9005000Y-26858750D01*
X9005000Y-27328571D01*
X9065135Y-27473750D01*
X9176251Y-27584865D01*
X9321430Y-27645000D01*
X9735325Y-27645000D01*
X9733187Y-27648199D01*
X9733186Y-27648200D01*
X9667919Y-27745880D01*
X9637262Y-27900000D01*
X9645001Y-27938905D01*
X9645001Y-28015117D01*
X9613243Y-28021434D01*
X9234502Y-28274502D01*
X8981434Y-28653243D01*
X8892569Y-29100000D01*
X8981434Y-29546757D01*
X9234502Y-29925498D01*
X9613243Y-30178566D01*
X9947231Y-30245000D01*
X10172769Y-30245000D01*
X10506757Y-30178566D01*
X10885498Y-29925498D01*
X11138566Y-29546757D01*
X11227431Y-29100000D01*
X11138566Y-28653243D01*
X10885498Y-28274502D01*
X10506757Y-28021434D01*
X10482088Y-28016527D01*
X10503615Y-27995000D01*
X11600649Y-27995000D01*
X11537317Y-28037317D01*
X11472116Y-28134897D01*
X11449221Y-28250000D01*
X11449221Y-29950000D01*
X11472116Y-30065103D01*
X11537317Y-30162683D01*
X11634897Y-30227884D01*
X11750000Y-30250779D01*
X13450000Y-30250779D01*
X13565103Y-30227884D01*
X13662683Y-30162683D01*
X13727884Y-30065103D01*
X13750779Y-29950000D01*
X13750779Y-28287835D01*
X14405000Y-27633614D01*
X14405000Y-29490642D01*
X14334392Y-29845616D01*
X14138616Y-30138616D01*
X13845616Y-30334392D01*
X13490642Y-30405000D01*
X1509358Y-30405000D01*
X1154384Y-30334392D01*
X861384Y-30138616D01*
X665608Y-29845616D01*
X595000Y-29490642D01*
X595000Y-25156250D01*
X824221Y-25156250D01*
X824221Y-25593750D01*
X863768Y-25792565D01*
X976388Y-25961112D01*
X1144935Y-26073732D01*
X1205000Y-26085680D01*
X1205001Y-28221094D01*
X1197262Y-28260000D01*
X1227919Y-28414120D01*
X1227920Y-28414121D01*
X1315222Y-28544779D01*
X1348200Y-28566814D01*
X1390752Y-28609366D01*
X1361434Y-28653243D01*
X1272569Y-29100000D01*
X1361434Y-29546757D01*
X1614502Y-29925498D01*
X1993243Y-30178566D01*
X2327231Y-30245000D01*
X2552769Y-30245000D01*
X2886757Y-30178566D01*
X3265498Y-29925498D01*
X3518566Y-29546757D01*
X3607431Y-29100000D01*
X3812569Y-29100000D01*
X3901434Y-29546757D01*
X4154502Y-29925498D01*
X4533243Y-30178566D01*
X4867231Y-30245000D01*
X5092769Y-30245000D01*
X5426757Y-30178566D01*
X5805498Y-29925498D01*
X6058566Y-29546757D01*
X6147431Y-29100000D01*
X6058566Y-28653243D01*
X5805498Y-28274502D01*
X5426757Y-28021434D01*
X5092769Y-27955000D01*
X4867231Y-27955000D01*
X4533243Y-28021434D01*
X4154502Y-28274502D01*
X3901434Y-28653243D01*
X3812569Y-29100000D01*
X3607431Y-29100000D01*
X3518566Y-28653243D01*
X3265498Y-28274502D01*
X2886757Y-28021434D01*
X2552769Y-27955000D01*
X2327231Y-27955000D01*
X1995000Y-28021085D01*
X1995000Y-26858750D01*
X2705000Y-26858750D01*
X2705000Y-27328571D01*
X2765135Y-27473750D01*
X2876251Y-27584865D01*
X3021430Y-27645000D01*
X3841250Y-27645000D01*
X3940000Y-27546250D01*
X3940000Y-26760000D01*
X3960000Y-26760000D01*
X3960000Y-27546250D01*
X4058750Y-27645000D01*
X4878570Y-27645000D01*
X5023749Y-27584865D01*
X5134865Y-27473750D01*
X5195000Y-27328571D01*
X5195000Y-26858750D01*
X5096250Y-26760000D01*
X3960000Y-26760000D01*
X3940000Y-26760000D01*
X2803750Y-26760000D01*
X2705000Y-26858750D01*
X1995000Y-26858750D01*
X1995000Y-26171429D01*
X2705000Y-26171429D01*
X2705000Y-26641250D01*
X2803750Y-26740000D01*
X3940000Y-26740000D01*
X3940000Y-25953750D01*
X3960000Y-25953750D01*
X3960000Y-26740000D01*
X5096250Y-26740000D01*
X5195000Y-26641250D01*
X5195000Y-26171429D01*
X9005000Y-26171429D01*
X9005000Y-26641250D01*
X9103750Y-26740000D01*
X10240000Y-26740000D01*
X10240000Y-25953750D01*
X10260000Y-25953750D01*
X10260000Y-26740000D01*
X11396250Y-26740000D01*
X11495000Y-26641250D01*
X11495000Y-26171429D01*
X11434865Y-26026250D01*
X11323749Y-25915135D01*
X11178570Y-25855000D01*
X10358750Y-25855000D01*
X10260000Y-25953750D01*
X10240000Y-25953750D01*
X10141250Y-25855000D01*
X9321430Y-25855000D01*
X9176251Y-25915135D01*
X9065135Y-26026250D01*
X9005000Y-26171429D01*
X5195000Y-26171429D01*
X5134865Y-26026250D01*
X5023749Y-25915135D01*
X4878570Y-25855000D01*
X4058750Y-25855000D01*
X3960000Y-25953750D01*
X3940000Y-25953750D01*
X3841250Y-25855000D01*
X3021430Y-25855000D01*
X2876251Y-25915135D01*
X2765135Y-26026250D01*
X2705000Y-26171429D01*
X1995000Y-26171429D01*
X1995000Y-26085680D01*
X2055065Y-26073732D01*
X2223612Y-25961112D01*
X2336232Y-25792565D01*
X2375779Y-25593750D01*
X2375779Y-25483750D01*
X11830000Y-25483750D01*
X11830000Y-25891070D01*
X11890135Y-26036249D01*
X12001250Y-26147365D01*
X12146429Y-26207500D01*
X12591250Y-26207500D01*
X12690000Y-26108750D01*
X12690000Y-25385000D01*
X12710000Y-25385000D01*
X12710000Y-26108750D01*
X12808750Y-26207500D01*
X13253571Y-26207500D01*
X13398750Y-26147365D01*
X13509865Y-26036249D01*
X13570000Y-25891070D01*
X13570000Y-25483750D01*
X13471250Y-25385000D01*
X12710000Y-25385000D01*
X12690000Y-25385000D01*
X11928750Y-25385000D01*
X11830000Y-25483750D01*
X2375779Y-25483750D01*
X2375779Y-25156250D01*
X2336232Y-24957435D01*
X2270413Y-24858930D01*
X11830000Y-24858930D01*
X11830000Y-25266250D01*
X11928750Y-25365000D01*
X12690000Y-25365000D01*
X12690000Y-24641250D01*
X12710000Y-24641250D01*
X12710000Y-25365000D01*
X13471250Y-25365000D01*
X13570000Y-25266250D01*
X13570000Y-24858930D01*
X13509865Y-24713751D01*
X13398750Y-24602635D01*
X13253571Y-24542500D01*
X12808750Y-24542500D01*
X12710000Y-24641250D01*
X12690000Y-24641250D01*
X12591250Y-24542500D01*
X12146429Y-24542500D01*
X12001250Y-24602635D01*
X11890135Y-24713751D01*
X11830000Y-24858930D01*
X2270413Y-24858930D01*
X2223612Y-24788888D01*
X2055065Y-24676268D01*
X1856250Y-24636721D01*
X1343750Y-24636721D01*
X1144935Y-24676268D01*
X976388Y-24788888D01*
X863768Y-24957435D01*
X824221Y-25156250D01*
X595000Y-25156250D01*
X595000Y-23908750D01*
X730000Y-23908750D01*
X730000Y-24316070D01*
X790135Y-24461249D01*
X901250Y-24572365D01*
X1046429Y-24632500D01*
X1491250Y-24632500D01*
X1590000Y-24533750D01*
X1590000Y-23810000D01*
X1610000Y-23810000D01*
X1610000Y-24533750D01*
X1708750Y-24632500D01*
X2153571Y-24632500D01*
X2298750Y-24572365D01*
X2409865Y-24461249D01*
X2470000Y-24316070D01*
X2470000Y-23908750D01*
X2371250Y-23810000D01*
X1610000Y-23810000D01*
X1590000Y-23810000D01*
X828750Y-23810000D01*
X730000Y-23908750D01*
X595000Y-23908750D01*
X595000Y-23283930D01*
X730000Y-23283930D01*
X730000Y-23691250D01*
X828750Y-23790000D01*
X1590000Y-23790000D01*
X1590000Y-23066250D01*
X1610000Y-23066250D01*
X1610000Y-23790000D01*
X2371250Y-23790000D01*
X2470000Y-23691250D01*
X2470000Y-23283930D01*
X2409865Y-23138751D01*
X2298750Y-23027635D01*
X2153571Y-22967500D01*
X1708750Y-22967500D01*
X1610000Y-23066250D01*
X1590000Y-23066250D01*
X1491250Y-22967500D01*
X1046429Y-22967500D01*
X901250Y-23027635D01*
X790135Y-23138751D01*
X730000Y-23283930D01*
X595000Y-23283930D01*
X595000Y-22450000D01*
X2799221Y-22450000D01*
X2799221Y-23450000D01*
X2822116Y-23565103D01*
X2887317Y-23662683D01*
X2984897Y-23727884D01*
X3100000Y-23750779D01*
X4800000Y-23750779D01*
X4915103Y-23727884D01*
X5012683Y-23662683D01*
X5077884Y-23565103D01*
X5100779Y-23450000D01*
X5100779Y-22450000D01*
X9099221Y-22450000D01*
X9099221Y-23450000D01*
X9122116Y-23565103D01*
X9187317Y-23662683D01*
X9284897Y-23727884D01*
X9400000Y-23750779D01*
X11100000Y-23750779D01*
X11215103Y-23727884D01*
X11312683Y-23662683D01*
X11367094Y-23581250D01*
X11924221Y-23581250D01*
X11924221Y-24018750D01*
X11963768Y-24217565D01*
X12076388Y-24386112D01*
X12244935Y-24498732D01*
X12443750Y-24538279D01*
X12956250Y-24538279D01*
X13155065Y-24498732D01*
X13323612Y-24386112D01*
X13436232Y-24217565D01*
X13475779Y-24018750D01*
X13475779Y-23581250D01*
X13436232Y-23382435D01*
X13323612Y-23213888D01*
X13155065Y-23101268D01*
X13095000Y-23089320D01*
X13095000Y-21396458D01*
X13204417Y-21287041D01*
X13295000Y-21068353D01*
X13295000Y-20831647D01*
X13204417Y-20612959D01*
X13095000Y-20503542D01*
X13095000Y-19696458D01*
X13204417Y-19587041D01*
X13295000Y-19368353D01*
X13295000Y-19131647D01*
X13204417Y-18912959D01*
X13037041Y-18745583D01*
X12818353Y-18655000D01*
X12581647Y-18655000D01*
X12362959Y-18745583D01*
X12195583Y-18912959D01*
X12105000Y-19131647D01*
X12105000Y-19368353D01*
X12195583Y-19587041D01*
X12305000Y-19696458D01*
X12305001Y-20503541D01*
X12195583Y-20612959D01*
X12105000Y-20831647D01*
X12105000Y-21068353D01*
X12195583Y-21287041D01*
X12305000Y-21396458D01*
X12305001Y-23089320D01*
X12244935Y-23101268D01*
X12076388Y-23213888D01*
X11963768Y-23382435D01*
X11924221Y-23581250D01*
X11367094Y-23581250D01*
X11377884Y-23565103D01*
X11400779Y-23450000D01*
X11400779Y-22450000D01*
X11377884Y-22334897D01*
X11312683Y-22237317D01*
X11215103Y-22172116D01*
X11100000Y-22149221D01*
X9400000Y-22149221D01*
X9284897Y-22172116D01*
X9187317Y-22237317D01*
X9122116Y-22334897D01*
X9099221Y-22450000D01*
X5100779Y-22450000D01*
X5077884Y-22334897D01*
X5012683Y-22237317D01*
X4995000Y-22225502D01*
X4995000Y-21940720D01*
X5017565Y-21936232D01*
X5186112Y-21823612D01*
X5298732Y-21655065D01*
X5338279Y-21456250D01*
X5338279Y-21308750D01*
X5342500Y-21308750D01*
X5342500Y-21753571D01*
X5402635Y-21898750D01*
X5513751Y-22009865D01*
X5658930Y-22070000D01*
X6066250Y-22070000D01*
X6165000Y-21971250D01*
X6165000Y-21210000D01*
X6185000Y-21210000D01*
X6185000Y-21971250D01*
X6283750Y-22070000D01*
X6691070Y-22070000D01*
X6836249Y-22009865D01*
X6947365Y-21898750D01*
X7007500Y-21753571D01*
X7007500Y-21308750D01*
X7030000Y-21308750D01*
X7030000Y-21753571D01*
X7090135Y-21898750D01*
X7201251Y-22009865D01*
X7346430Y-22070000D01*
X7753750Y-22070000D01*
X7852500Y-21971250D01*
X7852500Y-21210000D01*
X7872500Y-21210000D01*
X7872500Y-21971250D01*
X7971250Y-22070000D01*
X8378570Y-22070000D01*
X8523749Y-22009865D01*
X8634865Y-21898750D01*
X8695000Y-21753571D01*
X8695000Y-21308750D01*
X8596250Y-21210000D01*
X7872500Y-21210000D01*
X7852500Y-21210000D01*
X7128750Y-21210000D01*
X7030000Y-21308750D01*
X7007500Y-21308750D01*
X6908750Y-21210000D01*
X6185000Y-21210000D01*
X6165000Y-21210000D01*
X5441250Y-21210000D01*
X5342500Y-21308750D01*
X5338279Y-21308750D01*
X5338279Y-20943750D01*
X5298732Y-20744935D01*
X5232913Y-20646429D01*
X5342500Y-20646429D01*
X5342500Y-21091250D01*
X5441250Y-21190000D01*
X6165000Y-21190000D01*
X6165000Y-20428750D01*
X6185000Y-20428750D01*
X6185000Y-21190000D01*
X6908750Y-21190000D01*
X7007500Y-21091250D01*
X7007500Y-20646429D01*
X7030000Y-20646429D01*
X7030000Y-21091250D01*
X7128750Y-21190000D01*
X7852500Y-21190000D01*
X7852500Y-20428750D01*
X7872500Y-20428750D01*
X7872500Y-21190000D01*
X8596250Y-21190000D01*
X8695000Y-21091250D01*
X8695000Y-20943750D01*
X8699221Y-20943750D01*
X8699221Y-21456250D01*
X8738768Y-21655065D01*
X8851388Y-21823612D01*
X9019935Y-21936232D01*
X9218750Y-21975779D01*
X9656250Y-21975779D01*
X9779792Y-21951205D01*
X9787500Y-21952738D01*
X9826401Y-21945000D01*
X10966042Y-21945000D01*
X11075459Y-22054417D01*
X11294147Y-22145000D01*
X11530853Y-22145000D01*
X11749541Y-22054417D01*
X11916917Y-21887041D01*
X12007500Y-21668353D01*
X12007500Y-21431647D01*
X11916917Y-21212959D01*
X11749541Y-21045583D01*
X11530853Y-20955000D01*
X11294147Y-20955000D01*
X11075459Y-21045583D01*
X10966042Y-21155000D01*
X10175779Y-21155000D01*
X10175779Y-20943750D01*
X10136232Y-20744935D01*
X10023612Y-20576388D01*
X9855065Y-20463768D01*
X9800000Y-20452815D01*
X9800000Y-19983900D01*
X9807738Y-19945001D01*
X9800000Y-19906099D01*
X9800000Y-18931883D01*
X9820103Y-18927884D01*
X9917683Y-18862683D01*
X9982884Y-18765103D01*
X10005779Y-18650000D01*
X10005779Y-17650000D01*
X9982884Y-17534897D01*
X9917683Y-17437317D01*
X9820103Y-17372116D01*
X9705000Y-17349221D01*
X9105000Y-17349221D01*
X8989897Y-17372116D01*
X8892317Y-17437317D01*
X8827116Y-17534897D01*
X8804221Y-17650000D01*
X8804221Y-18650000D01*
X8827116Y-18765103D01*
X8892317Y-18862683D01*
X8989897Y-18927884D01*
X9010001Y-18931883D01*
X9010000Y-19885963D01*
X8997262Y-19950000D01*
X9010000Y-20014037D01*
X9010000Y-20470406D01*
X8851388Y-20576388D01*
X8738768Y-20744935D01*
X8699221Y-20943750D01*
X8695000Y-20943750D01*
X8695000Y-20646429D01*
X8634865Y-20501250D01*
X8523749Y-20390135D01*
X8378570Y-20330000D01*
X7971250Y-20330000D01*
X7872500Y-20428750D01*
X7852500Y-20428750D01*
X7753750Y-20330000D01*
X7346430Y-20330000D01*
X7201251Y-20390135D01*
X7090135Y-20501250D01*
X7030000Y-20646429D01*
X7007500Y-20646429D01*
X6947365Y-20501250D01*
X6836249Y-20390135D01*
X6691070Y-20330000D01*
X6283750Y-20330000D01*
X6185000Y-20428750D01*
X6165000Y-20428750D01*
X6066250Y-20330000D01*
X5658930Y-20330000D01*
X5513751Y-20390135D01*
X5402635Y-20501250D01*
X5342500Y-20646429D01*
X5232913Y-20646429D01*
X5186112Y-20576388D01*
X5017565Y-20463768D01*
X4818750Y-20424221D01*
X4381250Y-20424221D01*
X4182435Y-20463768D01*
X4013888Y-20576388D01*
X3901268Y-20744935D01*
X3861721Y-20943750D01*
X3861721Y-21070263D01*
X3837041Y-21045583D01*
X3618353Y-20955000D01*
X3381647Y-20955000D01*
X3162959Y-21045583D01*
X2995583Y-21212959D01*
X2905000Y-21431647D01*
X2905000Y-21668353D01*
X2995583Y-21887041D01*
X3162959Y-22054417D01*
X3381647Y-22145000D01*
X3618353Y-22145000D01*
X3837041Y-22054417D01*
X3946458Y-21945000D01*
X4205000Y-21945000D01*
X4205001Y-22149221D01*
X3100000Y-22149221D01*
X2984897Y-22172116D01*
X2887317Y-22237317D01*
X2822116Y-22334897D01*
X2799221Y-22450000D01*
X595000Y-22450000D01*
X595000Y-17931647D01*
X605000Y-17931647D01*
X605000Y-18168353D01*
X695583Y-18387041D01*
X808542Y-18500000D01*
X695583Y-18612959D01*
X605000Y-18831647D01*
X605000Y-19068353D01*
X695583Y-19287041D01*
X862959Y-19454417D01*
X1081647Y-19545000D01*
X1318353Y-19545000D01*
X1323516Y-19542862D01*
X1230518Y-19605000D01*
X1081647Y-19605000D01*
X862959Y-19695583D01*
X695583Y-19862959D01*
X605000Y-20081647D01*
X605000Y-20318353D01*
X695583Y-20537041D01*
X862959Y-20704417D01*
X1081647Y-20795000D01*
X1318353Y-20795000D01*
X1537041Y-20704417D01*
X1704417Y-20537041D01*
X1795000Y-20318353D01*
X1795000Y-20295000D01*
X7161099Y-20295000D01*
X7200000Y-20302738D01*
X7238901Y-20295000D01*
X7354121Y-20272081D01*
X7484779Y-20184779D01*
X7506816Y-20151798D01*
X8386799Y-19271815D01*
X8419779Y-19249779D01*
X8507081Y-19119121D01*
X8530000Y-19003901D01*
X8530000Y-19003900D01*
X8537738Y-18965000D01*
X8531107Y-18931663D01*
X8550103Y-18927884D01*
X8647683Y-18862683D01*
X8712884Y-18765103D01*
X8735779Y-18650000D01*
X8735779Y-17650000D01*
X8712884Y-17534897D01*
X8647683Y-17437317D01*
X8550103Y-17372116D01*
X8435000Y-17349221D01*
X7835000Y-17349221D01*
X7719897Y-17372116D01*
X7622317Y-17437317D01*
X7557116Y-17534897D01*
X7534221Y-17650000D01*
X7534221Y-18650000D01*
X7557116Y-18765103D01*
X7622317Y-18862683D01*
X7656118Y-18885268D01*
X7036386Y-19505000D01*
X1538899Y-19505000D01*
X1499999Y-19497262D01*
X1461099Y-19505000D01*
X1372259Y-19522672D01*
X1537041Y-19454417D01*
X1646458Y-19345000D01*
X6226099Y-19345000D01*
X6265000Y-19352738D01*
X6303901Y-19345000D01*
X6419121Y-19322081D01*
X6549779Y-19234779D01*
X6571816Y-19201798D01*
X6822835Y-18950779D01*
X7165000Y-18950779D01*
X7280103Y-18927884D01*
X7377683Y-18862683D01*
X7442884Y-18765103D01*
X7465779Y-18650000D01*
X7465779Y-17650000D01*
X7442884Y-17534897D01*
X7377683Y-17437317D01*
X7280103Y-17372116D01*
X7165000Y-17349221D01*
X6565000Y-17349221D01*
X6449897Y-17372116D01*
X6352317Y-17437317D01*
X6287116Y-17534897D01*
X6264221Y-17650000D01*
X6264221Y-18392165D01*
X6195779Y-18460607D01*
X6195779Y-17650000D01*
X6172884Y-17534897D01*
X6107683Y-17437317D01*
X6010103Y-17372116D01*
X5895000Y-17349221D01*
X5295000Y-17349221D01*
X5179897Y-17372116D01*
X5082317Y-17437317D01*
X5017116Y-17534897D01*
X4994221Y-17650000D01*
X4994221Y-17655000D01*
X1646458Y-17655000D01*
X1537041Y-17545583D01*
X1318353Y-17455000D01*
X1081647Y-17455000D01*
X862959Y-17545583D01*
X695583Y-17712959D01*
X605000Y-17931647D01*
X595000Y-17931647D01*
X595000Y-14881647D01*
X605000Y-14881647D01*
X605000Y-15118353D01*
X695583Y-15337041D01*
X833542Y-15475000D01*
X695583Y-15612959D01*
X605000Y-15831647D01*
X605000Y-16068353D01*
X695583Y-16287041D01*
X808542Y-16400000D01*
X695583Y-16512959D01*
X605000Y-16731647D01*
X605000Y-16968353D01*
X695583Y-17187041D01*
X862959Y-17354417D01*
X1081647Y-17445000D01*
X1318353Y-17445000D01*
X1537041Y-17354417D01*
X1704417Y-17187041D01*
X1795000Y-16968353D01*
X1795000Y-16813614D01*
X2139864Y-16468750D01*
X10924221Y-16468750D01*
X10924221Y-16906250D01*
X10963768Y-17105065D01*
X11076388Y-17273612D01*
X11244935Y-17386232D01*
X11443750Y-17425779D01*
X11956250Y-17425779D01*
X12155065Y-17386232D01*
X12323612Y-17273612D01*
X12368354Y-17206652D01*
X12581647Y-17295000D01*
X12818353Y-17295000D01*
X13037041Y-17204417D01*
X13204417Y-17037041D01*
X13295000Y-16818353D01*
X13295000Y-16581647D01*
X13204417Y-16362959D01*
X13037041Y-16195583D01*
X12818353Y-16105000D01*
X12581647Y-16105000D01*
X12381437Y-16187929D01*
X12323612Y-16101388D01*
X12155065Y-15988768D01*
X11956250Y-15949221D01*
X11443750Y-15949221D01*
X11244935Y-15988768D01*
X11076388Y-16101388D01*
X10963768Y-16269935D01*
X10924221Y-16468750D01*
X2139864Y-16468750D01*
X2751799Y-15856815D01*
X2784779Y-15834779D01*
X2872081Y-15704121D01*
X2895000Y-15588901D01*
X2895000Y-15588900D01*
X2902738Y-15550000D01*
X2895000Y-15511099D01*
X2895000Y-13763614D01*
X3913614Y-12745000D01*
X8366099Y-12745000D01*
X8405000Y-12752738D01*
X8443901Y-12745000D01*
X8559121Y-12722081D01*
X8689779Y-12634779D01*
X8692136Y-12631250D01*
X10924221Y-12631250D01*
X10924221Y-13068750D01*
X10963768Y-13267565D01*
X11076388Y-13436112D01*
X11244935Y-13548732D01*
X11305001Y-13560680D01*
X11305000Y-14401820D01*
X11244935Y-14413768D01*
X11076388Y-14526388D01*
X10963768Y-14694935D01*
X10924221Y-14893750D01*
X10924221Y-15331250D01*
X10963768Y-15530065D01*
X11076388Y-15698612D01*
X11244935Y-15811232D01*
X11443750Y-15850779D01*
X11956250Y-15850779D01*
X12155065Y-15811232D01*
X12323612Y-15698612D01*
X12436232Y-15530065D01*
X12475779Y-15331250D01*
X12475779Y-14893750D01*
X12436232Y-14694935D01*
X12323612Y-14526388D01*
X12155065Y-14413768D01*
X12095000Y-14401820D01*
X12095000Y-13560680D01*
X12155065Y-13548732D01*
X12323612Y-13436112D01*
X12436232Y-13267565D01*
X12475779Y-13068750D01*
X12475779Y-12631250D01*
X12436232Y-12432435D01*
X12323612Y-12263888D01*
X12155065Y-12151268D01*
X11956250Y-12111721D01*
X11443750Y-12111721D01*
X11244935Y-12151268D01*
X11076388Y-12263888D01*
X10963768Y-12432435D01*
X10924221Y-12631250D01*
X8692136Y-12631250D01*
X8711816Y-12601798D01*
X9656798Y-11656816D01*
X9689779Y-11634779D01*
X9777081Y-11504121D01*
X9791098Y-11433653D01*
X9820103Y-11427884D01*
X9886154Y-11383750D01*
X10830000Y-11383750D01*
X10830000Y-11791070D01*
X10890135Y-11936249D01*
X11001250Y-12047365D01*
X11146429Y-12107500D01*
X11591250Y-12107500D01*
X11690000Y-12008750D01*
X11690000Y-11285000D01*
X11710000Y-11285000D01*
X11710000Y-12008750D01*
X11808750Y-12107500D01*
X12253571Y-12107500D01*
X12398750Y-12047365D01*
X12509865Y-11936249D01*
X12570000Y-11791070D01*
X12570000Y-11383750D01*
X12471250Y-11285000D01*
X11710000Y-11285000D01*
X11690000Y-11285000D01*
X10928750Y-11285000D01*
X10830000Y-11383750D01*
X9886154Y-11383750D01*
X9917683Y-11362683D01*
X9982884Y-11265103D01*
X10005779Y-11150000D01*
X10005779Y-10758930D01*
X10830000Y-10758930D01*
X10830000Y-11166250D01*
X10928750Y-11265000D01*
X11690000Y-11265000D01*
X11690000Y-10541250D01*
X11710000Y-10541250D01*
X11710000Y-11265000D01*
X12471250Y-11265000D01*
X12570000Y-11166250D01*
X12570000Y-10758930D01*
X12509865Y-10613751D01*
X12398750Y-10502635D01*
X12253571Y-10442500D01*
X11808750Y-10442500D01*
X11710000Y-10541250D01*
X11690000Y-10541250D01*
X11591250Y-10442500D01*
X11146429Y-10442500D01*
X11001250Y-10502635D01*
X10890135Y-10613751D01*
X10830000Y-10758930D01*
X10005779Y-10758930D01*
X10005779Y-10150000D01*
X9982884Y-10034897D01*
X9917683Y-9937317D01*
X9820103Y-9872116D01*
X9705000Y-9849221D01*
X9105000Y-9849221D01*
X8989897Y-9872116D01*
X8892317Y-9937317D01*
X8827116Y-10034897D01*
X8804221Y-10150000D01*
X8804221Y-11150000D01*
X8827116Y-11265103D01*
X8868839Y-11327547D01*
X8466438Y-11729948D01*
X8507081Y-11669121D01*
X8530000Y-11553901D01*
X8530000Y-11553900D01*
X8537738Y-11515000D01*
X8530000Y-11476099D01*
X8530000Y-11431883D01*
X8550103Y-11427884D01*
X8647683Y-11362683D01*
X8712884Y-11265103D01*
X8735779Y-11150000D01*
X8735779Y-10150000D01*
X8712884Y-10034897D01*
X8647683Y-9937317D01*
X8550103Y-9872116D01*
X8435000Y-9849221D01*
X7835000Y-9849221D01*
X7719897Y-9872116D01*
X7622317Y-9937317D01*
X7557116Y-10034897D01*
X7534221Y-10150000D01*
X7534221Y-11150000D01*
X7557116Y-11265103D01*
X7622317Y-11362683D01*
X7686091Y-11405295D01*
X7536386Y-11555000D01*
X7203085Y-11555000D01*
X7237081Y-11504121D01*
X7251098Y-11433653D01*
X7280103Y-11427884D01*
X7377683Y-11362683D01*
X7442884Y-11265103D01*
X7465779Y-11150000D01*
X7465779Y-10150000D01*
X7442884Y-10034897D01*
X7377683Y-9937317D01*
X7280103Y-9872116D01*
X7165000Y-9849221D01*
X6565000Y-9849221D01*
X6449897Y-9872116D01*
X6352317Y-9937317D01*
X6287116Y-10034897D01*
X6283142Y-10054874D01*
X6229865Y-9926251D01*
X6118750Y-9815135D01*
X5973571Y-9755000D01*
X5703750Y-9755000D01*
X5605000Y-9853750D01*
X5605000Y-10640000D01*
X5625000Y-10640000D01*
X5625000Y-10660000D01*
X5605000Y-10660000D01*
X5605000Y-10680000D01*
X5585000Y-10680000D01*
X5585000Y-10660000D01*
X4998750Y-10660000D01*
X4900000Y-10758750D01*
X4900000Y-11155000D01*
X3188899Y-11155000D01*
X3149999Y-11147262D01*
X3111099Y-11155000D01*
X2995879Y-11177919D01*
X2865221Y-11265221D01*
X2843186Y-11298199D01*
X948200Y-13193186D01*
X915222Y-13215221D01*
X893187Y-13248199D01*
X893186Y-13248200D01*
X827919Y-13345880D01*
X797262Y-13500000D01*
X805001Y-13538906D01*
X805000Y-14553542D01*
X695583Y-14662959D01*
X605000Y-14881647D01*
X595000Y-14881647D01*
X595000Y-10071430D01*
X4900000Y-10071430D01*
X4900000Y-10541250D01*
X4998750Y-10640000D01*
X5585000Y-10640000D01*
X5585000Y-9853750D01*
X5486250Y-9755000D01*
X5216429Y-9755000D01*
X5071250Y-9815135D01*
X4960135Y-9926251D01*
X4900000Y-10071430D01*
X595000Y-10071430D01*
X595000Y-4600000D01*
X3149221Y-4600000D01*
X3149221Y-7100000D01*
X3172116Y-7215103D01*
X3237317Y-7312683D01*
X3334897Y-7377884D01*
X3450000Y-7400779D01*
X3605001Y-7400779D01*
X3605001Y-7553541D01*
X3495583Y-7662959D01*
X3405000Y-7881647D01*
X3405000Y-8118353D01*
X3495583Y-8337041D01*
X3662959Y-8504417D01*
X3881647Y-8595000D01*
X4118353Y-8595000D01*
X4337041Y-8504417D01*
X4504417Y-8337041D01*
X4595000Y-8118353D01*
X4595000Y-7881647D01*
X4504417Y-7662959D01*
X4395000Y-7553542D01*
X4395000Y-7400779D01*
X4550000Y-7400779D01*
X4665103Y-7377884D01*
X4762683Y-7312683D01*
X4827884Y-7215103D01*
X4850779Y-7100000D01*
X4850779Y-4600000D01*
X4827884Y-4484897D01*
X4762683Y-4387317D01*
X4665103Y-4322116D01*
X4550000Y-4299221D01*
X3450000Y-4299221D01*
X3334897Y-4322116D01*
X3237317Y-4387317D01*
X3172116Y-4484897D01*
X3149221Y-4600000D01*
X595000Y-4600000D01*
X595000Y-2931919D01*
X4355000Y-2931919D01*
X4355000Y-3268081D01*
X4483643Y-3578654D01*
X4721346Y-3816357D01*
X5031919Y-3945000D01*
X5368081Y-3945000D01*
X5678654Y-3816357D01*
X5916357Y-3578654D01*
X6045000Y-3268081D01*
X6045000Y-2931919D01*
X5916357Y-2621346D01*
X5678654Y-2383643D01*
X5368081Y-2255000D01*
X5031919Y-2255000D01*
X4721346Y-2383643D01*
X4483643Y-2621346D01*
X4355000Y-2931919D01*
X595000Y-2931919D01*
X595000Y-1509358D01*
X665608Y-1154384D01*
X861384Y-861384D01*
X1154384Y-665608D01*
X1509358Y-595000D01*
X13490642Y-595000D01*
X13845616Y-665608D01*
G04 #@! TD*
M02*
