G04 #@! TF.GenerationSoftware,KiCad,Pcbnew,5.0.2+dfsg1-1*
G04 #@! TF.CreationDate,2019-07-08T19:17:17+03:00*
G04 #@! TF.ProjectId,PocketAdmin,506f636b-6574-4416-946d-696e2e6b6963,1.2*
G04 #@! TF.SameCoordinates,PX7bfa480PY42c1d80*
G04 #@! TF.FileFunction,Soldermask,Bot*
G04 #@! TF.FilePolarity,Negative*
%FSLAX46Y46*%
G04 Gerber Fmt 4.6, Leading zero omitted, Abs format (unit mm)*
G04 Created by KiCad (PCBNEW 5.0.2+dfsg1-1) date Mon 08 Jul 2019 07:17:17 PM MSK*
%MOMM*%
%LPD*%
G01*
G04 APERTURE LIST*
%ADD10C,0.100000*%
G04 APERTURE END LIST*
D10*
G36*
X13500000Y-30000000D02*
X11700000Y-30000000D01*
X11700000Y-28200000D01*
X13500000Y-28200000D01*
X13500000Y-30000000D01*
X13500000Y-30000000D01*
G37*
G36*
X10236430Y-28213022D02*
X10406084Y-28264486D01*
X10562428Y-28348054D01*
X10699475Y-28460525D01*
X10811946Y-28597572D01*
X10895514Y-28753916D01*
X10946978Y-28923570D01*
X10964354Y-29100000D01*
X10946978Y-29276430D01*
X10895514Y-29446084D01*
X10811946Y-29602428D01*
X10699475Y-29739475D01*
X10562428Y-29851946D01*
X10406084Y-29935514D01*
X10236430Y-29986978D01*
X10104211Y-30000000D01*
X10015789Y-30000000D01*
X9883570Y-29986978D01*
X9713916Y-29935514D01*
X9557572Y-29851946D01*
X9420525Y-29739475D01*
X9308054Y-29602428D01*
X9224486Y-29446084D01*
X9173022Y-29276430D01*
X9155646Y-29100000D01*
X9173022Y-28923570D01*
X9224486Y-28753916D01*
X9308054Y-28597572D01*
X9420525Y-28460525D01*
X9557572Y-28348054D01*
X9713916Y-28264486D01*
X9883570Y-28213022D01*
X10015789Y-28200000D01*
X10104211Y-28200000D01*
X10236430Y-28213022D01*
X10236430Y-28213022D01*
G37*
G36*
X2616430Y-28213022D02*
X2786084Y-28264486D01*
X2942428Y-28348054D01*
X3079475Y-28460525D01*
X3191946Y-28597572D01*
X3275514Y-28753916D01*
X3326978Y-28923570D01*
X3344354Y-29100000D01*
X3326978Y-29276430D01*
X3275514Y-29446084D01*
X3191946Y-29602428D01*
X3079475Y-29739475D01*
X2942428Y-29851946D01*
X2786084Y-29935514D01*
X2616430Y-29986978D01*
X2484211Y-30000000D01*
X2395789Y-30000000D01*
X2263570Y-29986978D01*
X2093916Y-29935514D01*
X1937572Y-29851946D01*
X1800525Y-29739475D01*
X1688054Y-29602428D01*
X1604486Y-29446084D01*
X1553022Y-29276430D01*
X1535646Y-29100000D01*
X1553022Y-28923570D01*
X1604486Y-28753916D01*
X1688054Y-28597572D01*
X1800525Y-28460525D01*
X1937572Y-28348054D01*
X2093916Y-28264486D01*
X2263570Y-28213022D01*
X2395789Y-28200000D01*
X2484211Y-28200000D01*
X2616430Y-28213022D01*
X2616430Y-28213022D01*
G37*
G36*
X7696430Y-28213022D02*
X7866084Y-28264486D01*
X8022428Y-28348054D01*
X8159475Y-28460525D01*
X8271946Y-28597572D01*
X8355514Y-28753916D01*
X8406978Y-28923570D01*
X8424354Y-29100000D01*
X8406978Y-29276430D01*
X8355514Y-29446084D01*
X8271946Y-29602428D01*
X8159475Y-29739475D01*
X8022428Y-29851946D01*
X7866084Y-29935514D01*
X7696430Y-29986978D01*
X7564211Y-30000000D01*
X7475789Y-30000000D01*
X7343570Y-29986978D01*
X7173916Y-29935514D01*
X7017572Y-29851946D01*
X6880525Y-29739475D01*
X6768054Y-29602428D01*
X6684486Y-29446084D01*
X6633022Y-29276430D01*
X6615646Y-29100000D01*
X6633022Y-28923570D01*
X6684486Y-28753916D01*
X6768054Y-28597572D01*
X6880525Y-28460525D01*
X7017572Y-28348054D01*
X7173916Y-28264486D01*
X7343570Y-28213022D01*
X7475789Y-28200000D01*
X7564211Y-28200000D01*
X7696430Y-28213022D01*
X7696430Y-28213022D01*
G37*
G36*
X5156430Y-28213022D02*
X5326084Y-28264486D01*
X5482428Y-28348054D01*
X5619475Y-28460525D01*
X5731946Y-28597572D01*
X5815514Y-28753916D01*
X5866978Y-28923570D01*
X5884354Y-29100000D01*
X5866978Y-29276430D01*
X5815514Y-29446084D01*
X5731946Y-29602428D01*
X5619475Y-29739475D01*
X5482428Y-29851946D01*
X5326084Y-29935514D01*
X5156430Y-29986978D01*
X5024211Y-30000000D01*
X4935789Y-30000000D01*
X4803570Y-29986978D01*
X4633916Y-29935514D01*
X4477572Y-29851946D01*
X4340525Y-29739475D01*
X4228054Y-29602428D01*
X4144486Y-29446084D01*
X4093022Y-29276430D01*
X4075646Y-29100000D01*
X4093022Y-28923570D01*
X4144486Y-28753916D01*
X4228054Y-28597572D01*
X4340525Y-28460525D01*
X4477572Y-28348054D01*
X4633916Y-28264486D01*
X4803570Y-28213022D01*
X4935789Y-28200000D01*
X5024211Y-28200000D01*
X5156430Y-28213022D01*
X5156430Y-28213022D01*
G37*
G36*
X2331908Y-25579343D02*
X2371004Y-25591203D01*
X2407040Y-25610465D01*
X2438619Y-25636381D01*
X2464535Y-25667960D01*
X2483797Y-25703996D01*
X2495657Y-25743092D01*
X2500000Y-25787189D01*
X2500000Y-26412811D01*
X2495657Y-26456908D01*
X2483797Y-26496004D01*
X2464535Y-26532040D01*
X2438619Y-26563619D01*
X2407040Y-26589535D01*
X2371004Y-26608797D01*
X2331908Y-26620657D01*
X2287811Y-26625000D01*
X1737189Y-26625000D01*
X1693092Y-26620657D01*
X1653996Y-26608797D01*
X1617960Y-26589535D01*
X1586381Y-26563619D01*
X1560465Y-26532040D01*
X1541203Y-26496004D01*
X1529343Y-26456908D01*
X1525000Y-26412811D01*
X1525000Y-25787189D01*
X1529343Y-25743092D01*
X1541203Y-25703996D01*
X1560465Y-25667960D01*
X1586381Y-25636381D01*
X1617960Y-25610465D01*
X1653996Y-25591203D01*
X1693092Y-25579343D01*
X1737189Y-25575000D01*
X2287811Y-25575000D01*
X2331908Y-25579343D01*
X2331908Y-25579343D01*
G37*
G36*
X13306908Y-25579343D02*
X13346004Y-25591203D01*
X13382040Y-25610465D01*
X13413619Y-25636381D01*
X13439535Y-25667960D01*
X13458797Y-25703996D01*
X13470657Y-25743092D01*
X13475000Y-25787189D01*
X13475000Y-26412811D01*
X13470657Y-26456908D01*
X13458797Y-26496004D01*
X13439535Y-26532040D01*
X13413619Y-26563619D01*
X13382040Y-26589535D01*
X13346004Y-26608797D01*
X13306908Y-26620657D01*
X13262811Y-26625000D01*
X12712189Y-26625000D01*
X12668092Y-26620657D01*
X12628996Y-26608797D01*
X12592960Y-26589535D01*
X12561381Y-26563619D01*
X12535465Y-26532040D01*
X12516203Y-26496004D01*
X12504343Y-26456908D01*
X12500000Y-26412811D01*
X12500000Y-25787189D01*
X12504343Y-25743092D01*
X12516203Y-25703996D01*
X12535465Y-25667960D01*
X12561381Y-25636381D01*
X12592960Y-25610465D01*
X12628996Y-25591203D01*
X12668092Y-25579343D01*
X12712189Y-25575000D01*
X13262811Y-25575000D01*
X13306908Y-25579343D01*
X13306908Y-25579343D01*
G37*
G36*
X11731908Y-25579343D02*
X11771004Y-25591203D01*
X11807040Y-25610465D01*
X11838619Y-25636381D01*
X11864535Y-25667960D01*
X11883797Y-25703996D01*
X11895657Y-25743092D01*
X11900000Y-25787189D01*
X11900000Y-26412811D01*
X11895657Y-26456908D01*
X11883797Y-26496004D01*
X11864535Y-26532040D01*
X11838619Y-26563619D01*
X11807040Y-26589535D01*
X11771004Y-26608797D01*
X11731908Y-26620657D01*
X11687811Y-26625000D01*
X11137189Y-26625000D01*
X11093092Y-26620657D01*
X11053996Y-26608797D01*
X11017960Y-26589535D01*
X10986381Y-26563619D01*
X10960465Y-26532040D01*
X10941203Y-26496004D01*
X10929343Y-26456908D01*
X10925000Y-26412811D01*
X10925000Y-25787189D01*
X10929343Y-25743092D01*
X10941203Y-25703996D01*
X10960465Y-25667960D01*
X10986381Y-25636381D01*
X11017960Y-25610465D01*
X11053996Y-25591203D01*
X11093092Y-25579343D01*
X11137189Y-25575000D01*
X11687811Y-25575000D01*
X11731908Y-25579343D01*
X11731908Y-25579343D01*
G37*
G36*
X3906908Y-25579343D02*
X3946004Y-25591203D01*
X3982040Y-25610465D01*
X4013619Y-25636381D01*
X4039535Y-25667960D01*
X4058797Y-25703996D01*
X4070657Y-25743092D01*
X4075000Y-25787189D01*
X4075000Y-26412811D01*
X4070657Y-26456908D01*
X4058797Y-26496004D01*
X4039535Y-26532040D01*
X4013619Y-26563619D01*
X3982040Y-26589535D01*
X3946004Y-26608797D01*
X3906908Y-26620657D01*
X3862811Y-26625000D01*
X3312189Y-26625000D01*
X3268092Y-26620657D01*
X3228996Y-26608797D01*
X3192960Y-26589535D01*
X3161381Y-26563619D01*
X3135465Y-26532040D01*
X3116203Y-26496004D01*
X3104343Y-26456908D01*
X3100000Y-26412811D01*
X3100000Y-25787189D01*
X3104343Y-25743092D01*
X3116203Y-25703996D01*
X3135465Y-25667960D01*
X3161381Y-25636381D01*
X3192960Y-25610465D01*
X3228996Y-25591203D01*
X3268092Y-25579343D01*
X3312189Y-25575000D01*
X3862811Y-25575000D01*
X3906908Y-25579343D01*
X3906908Y-25579343D01*
G37*
G36*
X6700000Y-26450000D02*
X4600000Y-26450000D01*
X4600000Y-23950000D01*
X6700000Y-23950000D01*
X6700000Y-26450000D01*
X6700000Y-26450000D01*
G37*
G36*
X10400000Y-26450000D02*
X8300000Y-26450000D01*
X8300000Y-23950000D01*
X10400000Y-23950000D01*
X10400000Y-26450000D01*
X10400000Y-26450000D01*
G37*
G36*
X2951789Y-23377324D02*
X2995570Y-23390605D01*
X3035927Y-23412176D01*
X3071297Y-23441203D01*
X3100324Y-23476573D01*
X3121895Y-23516930D01*
X3135176Y-23560711D01*
X3140000Y-23609689D01*
X3140000Y-24210311D01*
X3135176Y-24259289D01*
X3121895Y-24303070D01*
X3100324Y-24343427D01*
X3071297Y-24378797D01*
X3035927Y-24407824D01*
X2995570Y-24429395D01*
X2951789Y-24442676D01*
X2902811Y-24447500D01*
X1877189Y-24447500D01*
X1828211Y-24442676D01*
X1784430Y-24429395D01*
X1744073Y-24407824D01*
X1708703Y-24378797D01*
X1679676Y-24343427D01*
X1658105Y-24303070D01*
X1644824Y-24259289D01*
X1640000Y-24210311D01*
X1640000Y-23609689D01*
X1644824Y-23560711D01*
X1658105Y-23516930D01*
X1679676Y-23476573D01*
X1708703Y-23441203D01*
X1744073Y-23412176D01*
X1784430Y-23390605D01*
X1828211Y-23377324D01*
X1877189Y-23372500D01*
X2902811Y-23372500D01*
X2951789Y-23377324D01*
X2951789Y-23377324D01*
G37*
G36*
X13294408Y-23379343D02*
X13333504Y-23391203D01*
X13369540Y-23410465D01*
X13401119Y-23436381D01*
X13427035Y-23467960D01*
X13446297Y-23503996D01*
X13458157Y-23543092D01*
X13462500Y-23587189D01*
X13462500Y-24212811D01*
X13458157Y-24256908D01*
X13446297Y-24296004D01*
X13427035Y-24332040D01*
X13401119Y-24363619D01*
X13369540Y-24389535D01*
X13333504Y-24408797D01*
X13294408Y-24420657D01*
X13250311Y-24425000D01*
X12699689Y-24425000D01*
X12655592Y-24420657D01*
X12616496Y-24408797D01*
X12580460Y-24389535D01*
X12548881Y-24363619D01*
X12522965Y-24332040D01*
X12503703Y-24296004D01*
X12491843Y-24256908D01*
X12487500Y-24212811D01*
X12487500Y-23587189D01*
X12491843Y-23543092D01*
X12503703Y-23503996D01*
X12522965Y-23467960D01*
X12548881Y-23436381D01*
X12580460Y-23410465D01*
X12616496Y-23391203D01*
X12655592Y-23379343D01*
X12699689Y-23375000D01*
X13250311Y-23375000D01*
X13294408Y-23379343D01*
X13294408Y-23379343D01*
G37*
G36*
X11719408Y-23379343D02*
X11758504Y-23391203D01*
X11794540Y-23410465D01*
X11826119Y-23436381D01*
X11852035Y-23467960D01*
X11871297Y-23503996D01*
X11883157Y-23543092D01*
X11887500Y-23587189D01*
X11887500Y-24212811D01*
X11883157Y-24256908D01*
X11871297Y-24296004D01*
X11852035Y-24332040D01*
X11826119Y-24363619D01*
X11794540Y-24389535D01*
X11758504Y-24408797D01*
X11719408Y-24420657D01*
X11675311Y-24425000D01*
X11124689Y-24425000D01*
X11080592Y-24420657D01*
X11041496Y-24408797D01*
X11005460Y-24389535D01*
X10973881Y-24363619D01*
X10947965Y-24332040D01*
X10928703Y-24296004D01*
X10916843Y-24256908D01*
X10912500Y-24212811D01*
X10912500Y-23587189D01*
X10916843Y-23543092D01*
X10928703Y-23503996D01*
X10947965Y-23467960D01*
X10973881Y-23436381D01*
X11005460Y-23410465D01*
X11041496Y-23391203D01*
X11080592Y-23379343D01*
X11124689Y-23375000D01*
X11675311Y-23375000D01*
X11719408Y-23379343D01*
X11719408Y-23379343D01*
G37*
G36*
X2951789Y-21502324D02*
X2995570Y-21515605D01*
X3035927Y-21537176D01*
X3071297Y-21566203D01*
X3100324Y-21601573D01*
X3121895Y-21641930D01*
X3135176Y-21685711D01*
X3140000Y-21734689D01*
X3140000Y-22335311D01*
X3135176Y-22384289D01*
X3121895Y-22428070D01*
X3100324Y-22468427D01*
X3071297Y-22503797D01*
X3035927Y-22532824D01*
X2995570Y-22554395D01*
X2951789Y-22567676D01*
X2902811Y-22572500D01*
X1877189Y-22572500D01*
X1828211Y-22567676D01*
X1784430Y-22554395D01*
X1744073Y-22532824D01*
X1708703Y-22503797D01*
X1679676Y-22468427D01*
X1658105Y-22428070D01*
X1644824Y-22384289D01*
X1640000Y-22335311D01*
X1640000Y-21734689D01*
X1644824Y-21685711D01*
X1658105Y-21641930D01*
X1679676Y-21601573D01*
X1708703Y-21566203D01*
X1744073Y-21537176D01*
X1784430Y-21515605D01*
X1828211Y-21502324D01*
X1877189Y-21497500D01*
X2902811Y-21497500D01*
X2951789Y-21502324D01*
X2951789Y-21502324D01*
G37*
G36*
X7925000Y-22250000D02*
X7575000Y-22250000D01*
X7575000Y-20850000D01*
X7925000Y-20850000D01*
X7925000Y-22250000D01*
X7925000Y-22250000D01*
G37*
G36*
X8425000Y-22250000D02*
X8075000Y-22250000D01*
X8075000Y-20850000D01*
X8425000Y-20850000D01*
X8425000Y-22250000D01*
X8425000Y-22250000D01*
G37*
G36*
X8925000Y-22250000D02*
X8575000Y-22250000D01*
X8575000Y-20850000D01*
X8925000Y-20850000D01*
X8925000Y-22250000D01*
X8925000Y-22250000D01*
G37*
G36*
X9425000Y-22250000D02*
X9075000Y-22250000D01*
X9075000Y-20850000D01*
X9425000Y-20850000D01*
X9425000Y-22250000D01*
X9425000Y-22250000D01*
G37*
G36*
X9925000Y-22250000D02*
X9575000Y-22250000D01*
X9575000Y-20850000D01*
X9925000Y-20850000D01*
X9925000Y-22250000D01*
X9925000Y-22250000D01*
G37*
G36*
X6925000Y-22250000D02*
X6575000Y-22250000D01*
X6575000Y-20850000D01*
X6925000Y-20850000D01*
X6925000Y-22250000D01*
X6925000Y-22250000D01*
G37*
G36*
X5925000Y-22250000D02*
X5575000Y-22250000D01*
X5575000Y-20850000D01*
X5925000Y-20850000D01*
X5925000Y-22250000D01*
X5925000Y-22250000D01*
G37*
G36*
X5425000Y-22250000D02*
X5075000Y-22250000D01*
X5075000Y-20850000D01*
X5425000Y-20850000D01*
X5425000Y-22250000D01*
X5425000Y-22250000D01*
G37*
G36*
X4925000Y-22250000D02*
X4575000Y-22250000D01*
X4575000Y-20850000D01*
X4925000Y-20850000D01*
X4925000Y-22250000D01*
X4925000Y-22250000D01*
G37*
G36*
X7425000Y-22250000D02*
X7075000Y-22250000D01*
X7075000Y-20850000D01*
X7425000Y-20850000D01*
X7425000Y-22250000D01*
X7425000Y-22250000D01*
G37*
G36*
X4425000Y-22250000D02*
X4075000Y-22250000D01*
X4075000Y-20850000D01*
X4425000Y-20850000D01*
X4425000Y-22250000D01*
X4425000Y-22250000D01*
G37*
G36*
X6425000Y-22250000D02*
X6075000Y-22250000D01*
X6075000Y-20850000D01*
X6425000Y-20850000D01*
X6425000Y-22250000D01*
X6425000Y-22250000D01*
G37*
G36*
X13306908Y-21079343D02*
X13346004Y-21091203D01*
X13382040Y-21110465D01*
X13413619Y-21136381D01*
X13439535Y-21167960D01*
X13458797Y-21203996D01*
X13470657Y-21243092D01*
X13475000Y-21287189D01*
X13475000Y-21912811D01*
X13470657Y-21956908D01*
X13458797Y-21996004D01*
X13439535Y-22032040D01*
X13413619Y-22063619D01*
X13382040Y-22089535D01*
X13346004Y-22108797D01*
X13306908Y-22120657D01*
X13262811Y-22125000D01*
X12712189Y-22125000D01*
X12668092Y-22120657D01*
X12628996Y-22108797D01*
X12592960Y-22089535D01*
X12561381Y-22063619D01*
X12535465Y-22032040D01*
X12516203Y-21996004D01*
X12504343Y-21956908D01*
X12500000Y-21912811D01*
X12500000Y-21287189D01*
X12504343Y-21243092D01*
X12516203Y-21203996D01*
X12535465Y-21167960D01*
X12561381Y-21136381D01*
X12592960Y-21110465D01*
X12628996Y-21091203D01*
X12668092Y-21079343D01*
X12712189Y-21075000D01*
X13262811Y-21075000D01*
X13306908Y-21079343D01*
X13306908Y-21079343D01*
G37*
G36*
X11731908Y-21079343D02*
X11771004Y-21091203D01*
X11807040Y-21110465D01*
X11838619Y-21136381D01*
X11864535Y-21167960D01*
X11883797Y-21203996D01*
X11895657Y-21243092D01*
X11900000Y-21287189D01*
X11900000Y-21912811D01*
X11895657Y-21956908D01*
X11883797Y-21996004D01*
X11864535Y-22032040D01*
X11838619Y-22063619D01*
X11807040Y-22089535D01*
X11771004Y-22108797D01*
X11731908Y-22120657D01*
X11687811Y-22125000D01*
X11137189Y-22125000D01*
X11093092Y-22120657D01*
X11053996Y-22108797D01*
X11017960Y-22089535D01*
X10986381Y-22063619D01*
X10960465Y-22032040D01*
X10941203Y-21996004D01*
X10929343Y-21956908D01*
X10925000Y-21912811D01*
X10925000Y-21287189D01*
X10929343Y-21243092D01*
X10941203Y-21203996D01*
X10960465Y-21167960D01*
X10986381Y-21136381D01*
X11017960Y-21110465D01*
X11053996Y-21091203D01*
X11093092Y-21079343D01*
X11137189Y-21075000D01*
X11687811Y-21075000D01*
X11731908Y-21079343D01*
X11731908Y-21079343D01*
G37*
G36*
X3350000Y-20125000D02*
X1950000Y-20125000D01*
X1950000Y-19775000D01*
X3350000Y-19775000D01*
X3350000Y-20125000D01*
X3350000Y-20125000D01*
G37*
G36*
X12050000Y-20125000D02*
X10650000Y-20125000D01*
X10650000Y-19775000D01*
X12050000Y-19775000D01*
X12050000Y-20125000D01*
X12050000Y-20125000D01*
G37*
G36*
X12050000Y-19625000D02*
X10650000Y-19625000D01*
X10650000Y-19275000D01*
X12050000Y-19275000D01*
X12050000Y-19625000D01*
X12050000Y-19625000D01*
G37*
G36*
X3350000Y-19625000D02*
X1950000Y-19625000D01*
X1950000Y-19275000D01*
X3350000Y-19275000D01*
X3350000Y-19625000D01*
X3350000Y-19625000D01*
G37*
G36*
X12050000Y-19125000D02*
X10650000Y-19125000D01*
X10650000Y-18775000D01*
X12050000Y-18775000D01*
X12050000Y-19125000D01*
X12050000Y-19125000D01*
G37*
G36*
X3350000Y-19125000D02*
X1950000Y-19125000D01*
X1950000Y-18775000D01*
X3350000Y-18775000D01*
X3350000Y-19125000D01*
X3350000Y-19125000D01*
G37*
G36*
X3350000Y-18625000D02*
X1950000Y-18625000D01*
X1950000Y-18275000D01*
X3350000Y-18275000D01*
X3350000Y-18625000D01*
X3350000Y-18625000D01*
G37*
G36*
X12050000Y-18625000D02*
X10650000Y-18625000D01*
X10650000Y-18275000D01*
X12050000Y-18275000D01*
X12050000Y-18625000D01*
X12050000Y-18625000D01*
G37*
G36*
X3350000Y-18125000D02*
X1950000Y-18125000D01*
X1950000Y-17775000D01*
X3350000Y-17775000D01*
X3350000Y-18125000D01*
X3350000Y-18125000D01*
G37*
G36*
X12050000Y-18125000D02*
X10650000Y-18125000D01*
X10650000Y-17775000D01*
X12050000Y-17775000D01*
X12050000Y-18125000D01*
X12050000Y-18125000D01*
G37*
G36*
X3350000Y-17625000D02*
X1950000Y-17625000D01*
X1950000Y-17275000D01*
X3350000Y-17275000D01*
X3350000Y-17625000D01*
X3350000Y-17625000D01*
G37*
G36*
X12050000Y-17625000D02*
X10650000Y-17625000D01*
X10650000Y-17275000D01*
X12050000Y-17275000D01*
X12050000Y-17625000D01*
X12050000Y-17625000D01*
G37*
G36*
X3350000Y-17125000D02*
X1950000Y-17125000D01*
X1950000Y-16775000D01*
X3350000Y-16775000D01*
X3350000Y-17125000D01*
X3350000Y-17125000D01*
G37*
G36*
X12050000Y-17125000D02*
X10650000Y-17125000D01*
X10650000Y-16775000D01*
X12050000Y-16775000D01*
X12050000Y-17125000D01*
X12050000Y-17125000D01*
G37*
G36*
X12050000Y-16625000D02*
X10650000Y-16625000D01*
X10650000Y-16275000D01*
X12050000Y-16275000D01*
X12050000Y-16625000D01*
X12050000Y-16625000D01*
G37*
G36*
X3350000Y-16625000D02*
X1950000Y-16625000D01*
X1950000Y-16275000D01*
X3350000Y-16275000D01*
X3350000Y-16625000D01*
X3350000Y-16625000D01*
G37*
G36*
X3350000Y-16125000D02*
X1950000Y-16125000D01*
X1950000Y-15775000D01*
X3350000Y-15775000D01*
X3350000Y-16125000D01*
X3350000Y-16125000D01*
G37*
G36*
X12050000Y-16125000D02*
X10650000Y-16125000D01*
X10650000Y-15775000D01*
X12050000Y-15775000D01*
X12050000Y-16125000D01*
X12050000Y-16125000D01*
G37*
G36*
X12050000Y-15625000D02*
X10650000Y-15625000D01*
X10650000Y-15275000D01*
X12050000Y-15275000D01*
X12050000Y-15625000D01*
X12050000Y-15625000D01*
G37*
G36*
X3350000Y-15625000D02*
X1950000Y-15625000D01*
X1950000Y-15275000D01*
X3350000Y-15275000D01*
X3350000Y-15625000D01*
X3350000Y-15625000D01*
G37*
G36*
X3350000Y-15125000D02*
X1950000Y-15125000D01*
X1950000Y-14775000D01*
X3350000Y-14775000D01*
X3350000Y-15125000D01*
X3350000Y-15125000D01*
G37*
G36*
X12050000Y-15125000D02*
X10650000Y-15125000D01*
X10650000Y-14775000D01*
X12050000Y-14775000D01*
X12050000Y-15125000D01*
X12050000Y-15125000D01*
G37*
G36*
X3350000Y-14625000D02*
X1950000Y-14625000D01*
X1950000Y-14275000D01*
X3350000Y-14275000D01*
X3350000Y-14625000D01*
X3350000Y-14625000D01*
G37*
G36*
X12050000Y-14625000D02*
X10650000Y-14625000D01*
X10650000Y-14275000D01*
X12050000Y-14275000D01*
X12050000Y-14625000D01*
X12050000Y-14625000D01*
G37*
G36*
X7425000Y-13550000D02*
X7075000Y-13550000D01*
X7075000Y-12150000D01*
X7425000Y-12150000D01*
X7425000Y-13550000D01*
X7425000Y-13550000D01*
G37*
G36*
X4425000Y-13550000D02*
X4075000Y-13550000D01*
X4075000Y-12150000D01*
X4425000Y-12150000D01*
X4425000Y-13550000D01*
X4425000Y-13550000D01*
G37*
G36*
X4925000Y-13550000D02*
X4575000Y-13550000D01*
X4575000Y-12150000D01*
X4925000Y-12150000D01*
X4925000Y-13550000D01*
X4925000Y-13550000D01*
G37*
G36*
X5425000Y-13550000D02*
X5075000Y-13550000D01*
X5075000Y-12150000D01*
X5425000Y-12150000D01*
X5425000Y-13550000D01*
X5425000Y-13550000D01*
G37*
G36*
X5925000Y-13550000D02*
X5575000Y-13550000D01*
X5575000Y-12150000D01*
X5925000Y-12150000D01*
X5925000Y-13550000D01*
X5925000Y-13550000D01*
G37*
G36*
X6425000Y-13550000D02*
X6075000Y-13550000D01*
X6075000Y-12150000D01*
X6425000Y-12150000D01*
X6425000Y-13550000D01*
X6425000Y-13550000D01*
G37*
G36*
X6925000Y-13550000D02*
X6575000Y-13550000D01*
X6575000Y-12150000D01*
X6925000Y-12150000D01*
X6925000Y-13550000D01*
X6925000Y-13550000D01*
G37*
G36*
X7925000Y-13550000D02*
X7575000Y-13550000D01*
X7575000Y-12150000D01*
X7925000Y-12150000D01*
X7925000Y-13550000D01*
X7925000Y-13550000D01*
G37*
G36*
X8425000Y-13550000D02*
X8075000Y-13550000D01*
X8075000Y-12150000D01*
X8425000Y-12150000D01*
X8425000Y-13550000D01*
X8425000Y-13550000D01*
G37*
G36*
X9425000Y-13550000D02*
X9075000Y-13550000D01*
X9075000Y-12150000D01*
X9425000Y-12150000D01*
X9425000Y-13550000D01*
X9425000Y-13550000D01*
G37*
G36*
X9925000Y-13550000D02*
X9575000Y-13550000D01*
X9575000Y-12150000D01*
X9925000Y-12150000D01*
X9925000Y-13550000D01*
X9925000Y-13550000D01*
G37*
G36*
X8925000Y-13550000D02*
X8575000Y-13550000D01*
X8575000Y-12150000D01*
X8925000Y-12150000D01*
X8925000Y-13550000D01*
X8925000Y-13550000D01*
G37*
G36*
X12356908Y-12304343D02*
X12396004Y-12316203D01*
X12432040Y-12335465D01*
X12463619Y-12361381D01*
X12489535Y-12392960D01*
X12508797Y-12428996D01*
X12520657Y-12468092D01*
X12525000Y-12512189D01*
X12525000Y-13062811D01*
X12520657Y-13106908D01*
X12508797Y-13146004D01*
X12489535Y-13182040D01*
X12463619Y-13213619D01*
X12432040Y-13239535D01*
X12396004Y-13258797D01*
X12356908Y-13270657D01*
X12312811Y-13275000D01*
X11687189Y-13275000D01*
X11643092Y-13270657D01*
X11603996Y-13258797D01*
X11567960Y-13239535D01*
X11536381Y-13213619D01*
X11510465Y-13182040D01*
X11491203Y-13146004D01*
X11479343Y-13106908D01*
X11475000Y-13062811D01*
X11475000Y-12512189D01*
X11479343Y-12468092D01*
X11491203Y-12428996D01*
X11510465Y-12392960D01*
X11536381Y-12361381D01*
X11567960Y-12335465D01*
X11603996Y-12316203D01*
X11643092Y-12304343D01*
X11687189Y-12300000D01*
X12312811Y-12300000D01*
X12356908Y-12304343D01*
X12356908Y-12304343D01*
G37*
G36*
X2956908Y-12304343D02*
X2996004Y-12316203D01*
X3032040Y-12335465D01*
X3063619Y-12361381D01*
X3089535Y-12392960D01*
X3108797Y-12428996D01*
X3120657Y-12468092D01*
X3125000Y-12512189D01*
X3125000Y-13062811D01*
X3120657Y-13106908D01*
X3108797Y-13146004D01*
X3089535Y-13182040D01*
X3063619Y-13213619D01*
X3032040Y-13239535D01*
X2996004Y-13258797D01*
X2956908Y-13270657D01*
X2912811Y-13275000D01*
X2287189Y-13275000D01*
X2243092Y-13270657D01*
X2203996Y-13258797D01*
X2167960Y-13239535D01*
X2136381Y-13213619D01*
X2110465Y-13182040D01*
X2091203Y-13146004D01*
X2079343Y-13106908D01*
X2075000Y-13062811D01*
X2075000Y-12512189D01*
X2079343Y-12468092D01*
X2091203Y-12428996D01*
X2110465Y-12392960D01*
X2136381Y-12361381D01*
X2167960Y-12335465D01*
X2203996Y-12316203D01*
X2243092Y-12304343D01*
X2287189Y-12300000D01*
X2912811Y-12300000D01*
X2956908Y-12304343D01*
X2956908Y-12304343D01*
G37*
G36*
X12356908Y-10729343D02*
X12396004Y-10741203D01*
X12432040Y-10760465D01*
X12463619Y-10786381D01*
X12489535Y-10817960D01*
X12508797Y-10853996D01*
X12520657Y-10893092D01*
X12525000Y-10937189D01*
X12525000Y-11487811D01*
X12520657Y-11531908D01*
X12508797Y-11571004D01*
X12489535Y-11607040D01*
X12463619Y-11638619D01*
X12432040Y-11664535D01*
X12396004Y-11683797D01*
X12356908Y-11695657D01*
X12312811Y-11700000D01*
X11687189Y-11700000D01*
X11643092Y-11695657D01*
X11603996Y-11683797D01*
X11567960Y-11664535D01*
X11536381Y-11638619D01*
X11510465Y-11607040D01*
X11491203Y-11571004D01*
X11479343Y-11531908D01*
X11475000Y-11487811D01*
X11475000Y-10937189D01*
X11479343Y-10893092D01*
X11491203Y-10853996D01*
X11510465Y-10817960D01*
X11536381Y-10786381D01*
X11567960Y-10760465D01*
X11603996Y-10741203D01*
X11643092Y-10729343D01*
X11687189Y-10725000D01*
X12312811Y-10725000D01*
X12356908Y-10729343D01*
X12356908Y-10729343D01*
G37*
G36*
X2956908Y-10729343D02*
X2996004Y-10741203D01*
X3032040Y-10760465D01*
X3063619Y-10786381D01*
X3089535Y-10817960D01*
X3108797Y-10853996D01*
X3120657Y-10893092D01*
X3125000Y-10937189D01*
X3125000Y-11487811D01*
X3120657Y-11531908D01*
X3108797Y-11571004D01*
X3089535Y-11607040D01*
X3063619Y-11638619D01*
X3032040Y-11664535D01*
X2996004Y-11683797D01*
X2956908Y-11695657D01*
X2912811Y-11700000D01*
X2287189Y-11700000D01*
X2243092Y-11695657D01*
X2203996Y-11683797D01*
X2167960Y-11664535D01*
X2136381Y-11638619D01*
X2110465Y-11607040D01*
X2091203Y-11571004D01*
X2079343Y-11531908D01*
X2075000Y-11487811D01*
X2075000Y-10937189D01*
X2079343Y-10893092D01*
X2091203Y-10853996D01*
X2110465Y-10817960D01*
X2136381Y-10786381D01*
X2167960Y-10760465D01*
X2203996Y-10741203D01*
X2243092Y-10729343D01*
X2287189Y-10725000D01*
X2912811Y-10725000D01*
X2956908Y-10729343D01*
X2956908Y-10729343D01*
G37*
G36*
X5156908Y-10004343D02*
X5196004Y-10016203D01*
X5232040Y-10035465D01*
X5263619Y-10061381D01*
X5289535Y-10092960D01*
X5308797Y-10128996D01*
X5320657Y-10168092D01*
X5325000Y-10212189D01*
X5325000Y-10762811D01*
X5320657Y-10806908D01*
X5308797Y-10846004D01*
X5289535Y-10882040D01*
X5263619Y-10913619D01*
X5232040Y-10939535D01*
X5196004Y-10958797D01*
X5156908Y-10970657D01*
X5112811Y-10975000D01*
X4487189Y-10975000D01*
X4443092Y-10970657D01*
X4403996Y-10958797D01*
X4367960Y-10939535D01*
X4336381Y-10913619D01*
X4310465Y-10882040D01*
X4291203Y-10846004D01*
X4279343Y-10806908D01*
X4275000Y-10762811D01*
X4275000Y-10212189D01*
X4279343Y-10168092D01*
X4291203Y-10128996D01*
X4310465Y-10092960D01*
X4336381Y-10061381D01*
X4367960Y-10035465D01*
X4403996Y-10016203D01*
X4443092Y-10004343D01*
X4487189Y-10000000D01*
X5112811Y-10000000D01*
X5156908Y-10004343D01*
X5156908Y-10004343D01*
G37*
G36*
X10556908Y-10004343D02*
X10596004Y-10016203D01*
X10632040Y-10035465D01*
X10663619Y-10061381D01*
X10689535Y-10092960D01*
X10708797Y-10128996D01*
X10720657Y-10168092D01*
X10725000Y-10212189D01*
X10725000Y-10762811D01*
X10720657Y-10806908D01*
X10708797Y-10846004D01*
X10689535Y-10882040D01*
X10663619Y-10913619D01*
X10632040Y-10939535D01*
X10596004Y-10958797D01*
X10556908Y-10970657D01*
X10512811Y-10975000D01*
X9887189Y-10975000D01*
X9843092Y-10970657D01*
X9803996Y-10958797D01*
X9767960Y-10939535D01*
X9736381Y-10913619D01*
X9710465Y-10882040D01*
X9691203Y-10846004D01*
X9679343Y-10806908D01*
X9675000Y-10762811D01*
X9675000Y-10212189D01*
X9679343Y-10168092D01*
X9691203Y-10128996D01*
X9710465Y-10092960D01*
X9736381Y-10061381D01*
X9767960Y-10035465D01*
X9803996Y-10016203D01*
X9843092Y-10004343D01*
X9887189Y-10000000D01*
X10512811Y-10000000D01*
X10556908Y-10004343D01*
X10556908Y-10004343D01*
G37*
G36*
X9060000Y-10955000D02*
X8260000Y-10955000D01*
X8260000Y-10345000D01*
X9060000Y-10345000D01*
X9060000Y-10955000D01*
X9060000Y-10955000D01*
G37*
G36*
X6740000Y-10955000D02*
X5940000Y-10955000D01*
X5940000Y-10345000D01*
X6740000Y-10345000D01*
X6740000Y-10955000D01*
X6740000Y-10955000D01*
G37*
G36*
X9060000Y-10005000D02*
X8260000Y-10005000D01*
X8260000Y-9395000D01*
X9060000Y-9395000D01*
X9060000Y-10005000D01*
X9060000Y-10005000D01*
G37*
G36*
X6740000Y-10005000D02*
X5940000Y-10005000D01*
X5940000Y-9395000D01*
X6740000Y-9395000D01*
X6740000Y-10005000D01*
X6740000Y-10005000D01*
G37*
G36*
X5156908Y-8429343D02*
X5196004Y-8441203D01*
X5232040Y-8460465D01*
X5263619Y-8486381D01*
X5289535Y-8517960D01*
X5308797Y-8553996D01*
X5320657Y-8593092D01*
X5325000Y-8637189D01*
X5325000Y-9187811D01*
X5320657Y-9231908D01*
X5308797Y-9271004D01*
X5289535Y-9307040D01*
X5263619Y-9338619D01*
X5232040Y-9364535D01*
X5196004Y-9383797D01*
X5156908Y-9395657D01*
X5112811Y-9400000D01*
X4487189Y-9400000D01*
X4443092Y-9395657D01*
X4403996Y-9383797D01*
X4367960Y-9364535D01*
X4336381Y-9338619D01*
X4310465Y-9307040D01*
X4291203Y-9271004D01*
X4279343Y-9231908D01*
X4275000Y-9187811D01*
X4275000Y-8637189D01*
X4279343Y-8593092D01*
X4291203Y-8553996D01*
X4310465Y-8517960D01*
X4336381Y-8486381D01*
X4367960Y-8460465D01*
X4403996Y-8441203D01*
X4443092Y-8429343D01*
X4487189Y-8425000D01*
X5112811Y-8425000D01*
X5156908Y-8429343D01*
X5156908Y-8429343D01*
G37*
G36*
X10556908Y-8429343D02*
X10596004Y-8441203D01*
X10632040Y-8460465D01*
X10663619Y-8486381D01*
X10689535Y-8517960D01*
X10708797Y-8553996D01*
X10720657Y-8593092D01*
X10725000Y-8637189D01*
X10725000Y-9187811D01*
X10720657Y-9231908D01*
X10708797Y-9271004D01*
X10689535Y-9307040D01*
X10663619Y-9338619D01*
X10632040Y-9364535D01*
X10596004Y-9383797D01*
X10556908Y-9395657D01*
X10512811Y-9400000D01*
X9887189Y-9400000D01*
X9843092Y-9395657D01*
X9803996Y-9383797D01*
X9767960Y-9364535D01*
X9736381Y-9338619D01*
X9710465Y-9307040D01*
X9691203Y-9271004D01*
X9679343Y-9231908D01*
X9675000Y-9187811D01*
X9675000Y-8637189D01*
X9679343Y-8593092D01*
X9691203Y-8553996D01*
X9710465Y-8517960D01*
X9736381Y-8486381D01*
X9767960Y-8460465D01*
X9803996Y-8441203D01*
X9843092Y-8429343D01*
X9887189Y-8425000D01*
X10512811Y-8425000D01*
X10556908Y-8429343D01*
X10556908Y-8429343D01*
G37*
G36*
X9060000Y-9055000D02*
X8260000Y-9055000D01*
X8260000Y-8445000D01*
X9060000Y-8445000D01*
X9060000Y-9055000D01*
X9060000Y-9055000D01*
G37*
G36*
X6740000Y-9055000D02*
X5940000Y-9055000D01*
X5940000Y-8445000D01*
X6740000Y-8445000D01*
X6740000Y-9055000D01*
X6740000Y-9055000D01*
G37*
G36*
X7950000Y-7300000D02*
X7050000Y-7300000D01*
X7050000Y-6300000D01*
X7950000Y-6300000D01*
X7950000Y-7300000D01*
X7950000Y-7300000D01*
G37*
G36*
X4761789Y-6204824D02*
X4805570Y-6218105D01*
X4845927Y-6239676D01*
X4881297Y-6268703D01*
X4910324Y-6304073D01*
X4931895Y-6344430D01*
X4945176Y-6388211D01*
X4950000Y-6437189D01*
X4950000Y-7037811D01*
X4945176Y-7086789D01*
X4931895Y-7130570D01*
X4910324Y-7170927D01*
X4881297Y-7206297D01*
X4845927Y-7235324D01*
X4805570Y-7256895D01*
X4761789Y-7270176D01*
X4712811Y-7275000D01*
X3687189Y-7275000D01*
X3638211Y-7270176D01*
X3594430Y-7256895D01*
X3554073Y-7235324D01*
X3518703Y-7206297D01*
X3489676Y-7170927D01*
X3468105Y-7130570D01*
X3454824Y-7086789D01*
X3450000Y-7037811D01*
X3450000Y-6437189D01*
X3454824Y-6388211D01*
X3468105Y-6344430D01*
X3489676Y-6304073D01*
X3518703Y-6268703D01*
X3554073Y-6239676D01*
X3594430Y-6218105D01*
X3638211Y-6204824D01*
X3687189Y-6200000D01*
X4712811Y-6200000D01*
X4761789Y-6204824D01*
X4761789Y-6204824D01*
G37*
G36*
X11361789Y-6204824D02*
X11405570Y-6218105D01*
X11445927Y-6239676D01*
X11481297Y-6268703D01*
X11510324Y-6304073D01*
X11531895Y-6344430D01*
X11545176Y-6388211D01*
X11550000Y-6437189D01*
X11550000Y-7037811D01*
X11545176Y-7086789D01*
X11531895Y-7130570D01*
X11510324Y-7170927D01*
X11481297Y-7206297D01*
X11445927Y-7235324D01*
X11405570Y-7256895D01*
X11361789Y-7270176D01*
X11312811Y-7275000D01*
X10287189Y-7275000D01*
X10238211Y-7270176D01*
X10194430Y-7256895D01*
X10154073Y-7235324D01*
X10118703Y-7206297D01*
X10089676Y-7170927D01*
X10068105Y-7130570D01*
X10054824Y-7086789D01*
X10050000Y-7037811D01*
X10050000Y-6437189D01*
X10054824Y-6388211D01*
X10068105Y-6344430D01*
X10089676Y-6304073D01*
X10118703Y-6268703D01*
X10154073Y-6239676D01*
X10194430Y-6218105D01*
X10238211Y-6204824D01*
X10287189Y-6200000D01*
X11312811Y-6200000D01*
X11361789Y-6204824D01*
X11361789Y-6204824D01*
G37*
G36*
X11361789Y-4329824D02*
X11405570Y-4343105D01*
X11445927Y-4364676D01*
X11481297Y-4393703D01*
X11510324Y-4429073D01*
X11531895Y-4469430D01*
X11545176Y-4513211D01*
X11550000Y-4562189D01*
X11550000Y-5162811D01*
X11545176Y-5211789D01*
X11531895Y-5255570D01*
X11510324Y-5295927D01*
X11481297Y-5331297D01*
X11445927Y-5360324D01*
X11405570Y-5381895D01*
X11361789Y-5395176D01*
X11312811Y-5400000D01*
X10287189Y-5400000D01*
X10238211Y-5395176D01*
X10194430Y-5381895D01*
X10154073Y-5360324D01*
X10118703Y-5331297D01*
X10089676Y-5295927D01*
X10068105Y-5255570D01*
X10054824Y-5211789D01*
X10050000Y-5162811D01*
X10050000Y-4562189D01*
X10054824Y-4513211D01*
X10068105Y-4469430D01*
X10089676Y-4429073D01*
X10118703Y-4393703D01*
X10154073Y-4364676D01*
X10194430Y-4343105D01*
X10238211Y-4329824D01*
X10287189Y-4325000D01*
X11312811Y-4325000D01*
X11361789Y-4329824D01*
X11361789Y-4329824D01*
G37*
G36*
X4761789Y-4329824D02*
X4805570Y-4343105D01*
X4845927Y-4364676D01*
X4881297Y-4393703D01*
X4910324Y-4429073D01*
X4931895Y-4469430D01*
X4945176Y-4513211D01*
X4950000Y-4562189D01*
X4950000Y-5162811D01*
X4945176Y-5211789D01*
X4931895Y-5255570D01*
X4910324Y-5295927D01*
X4881297Y-5331297D01*
X4845927Y-5360324D01*
X4805570Y-5381895D01*
X4761789Y-5395176D01*
X4712811Y-5400000D01*
X3687189Y-5400000D01*
X3638211Y-5395176D01*
X3594430Y-5381895D01*
X3554073Y-5360324D01*
X3518703Y-5331297D01*
X3489676Y-5295927D01*
X3468105Y-5255570D01*
X3454824Y-5211789D01*
X3450000Y-5162811D01*
X3450000Y-4562189D01*
X3454824Y-4513211D01*
X3468105Y-4469430D01*
X3489676Y-4429073D01*
X3518703Y-4393703D01*
X3554073Y-4364676D01*
X3594430Y-4343105D01*
X3638211Y-4329824D01*
X3687189Y-4325000D01*
X4712811Y-4325000D01*
X4761789Y-4329824D01*
X4761789Y-4329824D01*
G37*
G36*
X7000000Y-5300000D02*
X6100000Y-5300000D01*
X6100000Y-4300000D01*
X7000000Y-4300000D01*
X7000000Y-5300000D01*
X7000000Y-5300000D01*
G37*
G36*
X8900000Y-5300000D02*
X8000000Y-5300000D01*
X8000000Y-4300000D01*
X8900000Y-4300000D01*
X8900000Y-5300000D01*
X8900000Y-5300000D01*
G37*
G36*
X13396033Y-1314469D02*
X13584532Y-1371650D01*
X13584534Y-1371651D01*
X13758258Y-1464508D01*
X13758259Y-1464509D01*
X13758261Y-1464510D01*
X13910528Y-1589472D01*
X14035493Y-1741743D01*
X14128349Y-1915463D01*
X14185531Y-2103966D01*
X14200000Y-2250875D01*
X14200000Y-3949125D01*
X14185531Y-4096034D01*
X14128349Y-4284537D01*
X14035493Y-4458257D01*
X13910528Y-4610528D01*
X13758257Y-4735493D01*
X13584537Y-4828349D01*
X13396034Y-4885531D01*
X13200000Y-4904838D01*
X13003967Y-4885531D01*
X12815464Y-4828349D01*
X12641744Y-4735493D01*
X12489473Y-4610528D01*
X12364508Y-4458257D01*
X12271652Y-4284537D01*
X12214469Y-4096034D01*
X12200000Y-3949125D01*
X12200000Y-2250876D01*
X12214469Y-2103967D01*
X12271650Y-1915468D01*
X12271653Y-1915463D01*
X12364508Y-1741742D01*
X12489472Y-1589472D01*
X12641743Y-1464507D01*
X12815463Y-1371651D01*
X13003966Y-1314469D01*
X13200000Y-1295162D01*
X13396033Y-1314469D01*
X13396033Y-1314469D01*
G37*
G36*
X1996033Y-1314469D02*
X2184532Y-1371650D01*
X2184534Y-1371651D01*
X2358258Y-1464508D01*
X2358259Y-1464509D01*
X2358261Y-1464510D01*
X2510528Y-1589472D01*
X2635493Y-1741743D01*
X2728349Y-1915463D01*
X2785531Y-2103966D01*
X2800000Y-2250875D01*
X2800000Y-3949125D01*
X2785531Y-4096034D01*
X2728349Y-4284537D01*
X2635493Y-4458257D01*
X2510528Y-4610528D01*
X2358257Y-4735493D01*
X2184537Y-4828349D01*
X1996034Y-4885531D01*
X1800000Y-4904838D01*
X1603967Y-4885531D01*
X1415464Y-4828349D01*
X1241744Y-4735493D01*
X1089473Y-4610528D01*
X964508Y-4458257D01*
X871652Y-4284537D01*
X814469Y-4096034D01*
X800000Y-3949125D01*
X800000Y-2250876D01*
X814469Y-2103967D01*
X871650Y-1915468D01*
X871653Y-1915463D01*
X964508Y-1741742D01*
X1089472Y-1589472D01*
X1241743Y-1464507D01*
X1415463Y-1371651D01*
X1603966Y-1314469D01*
X1800000Y-1295162D01*
X1996033Y-1314469D01*
X1996033Y-1314469D01*
G37*
G36*
X9975011Y-2523057D02*
X9975013Y-2523058D01*
X9975014Y-2523058D01*
X10084207Y-2568287D01*
X10084208Y-2568288D01*
X10182481Y-2633952D01*
X10266048Y-2717519D01*
X10266050Y-2717522D01*
X10331713Y-2815793D01*
X10376942Y-2924986D01*
X10400000Y-3040905D01*
X10400000Y-3159095D01*
X10376942Y-3275014D01*
X10331713Y-3384207D01*
X10331712Y-3384208D01*
X10266048Y-3482481D01*
X10182481Y-3566048D01*
X10182478Y-3566050D01*
X10084207Y-3631713D01*
X9975014Y-3676942D01*
X9975013Y-3676942D01*
X9975011Y-3676943D01*
X9859095Y-3700000D01*
X9740905Y-3700000D01*
X9624989Y-3676943D01*
X9624987Y-3676942D01*
X9624986Y-3676942D01*
X9515793Y-3631713D01*
X9417522Y-3566050D01*
X9417519Y-3566048D01*
X9333952Y-3482481D01*
X9268288Y-3384208D01*
X9268287Y-3384207D01*
X9223058Y-3275014D01*
X9200000Y-3159095D01*
X9200000Y-3040905D01*
X9223058Y-2924986D01*
X9268287Y-2815793D01*
X9333950Y-2717522D01*
X9333952Y-2717519D01*
X9417519Y-2633952D01*
X9515792Y-2568288D01*
X9515793Y-2568287D01*
X9624986Y-2523058D01*
X9624987Y-2523058D01*
X9624989Y-2523057D01*
X9740905Y-2500000D01*
X9859095Y-2500000D01*
X9975011Y-2523057D01*
X9975011Y-2523057D01*
G37*
G36*
X5375011Y-2523057D02*
X5375013Y-2523058D01*
X5375014Y-2523058D01*
X5484207Y-2568287D01*
X5484208Y-2568288D01*
X5582481Y-2633952D01*
X5666048Y-2717519D01*
X5666050Y-2717522D01*
X5731713Y-2815793D01*
X5776942Y-2924986D01*
X5800000Y-3040905D01*
X5800000Y-3159095D01*
X5776942Y-3275014D01*
X5731713Y-3384207D01*
X5731712Y-3384208D01*
X5666048Y-3482481D01*
X5582481Y-3566048D01*
X5582478Y-3566050D01*
X5484207Y-3631713D01*
X5375014Y-3676942D01*
X5375013Y-3676942D01*
X5375011Y-3676943D01*
X5259095Y-3700000D01*
X5140905Y-3700000D01*
X5024989Y-3676943D01*
X5024987Y-3676942D01*
X5024986Y-3676942D01*
X4915793Y-3631713D01*
X4817522Y-3566050D01*
X4817519Y-3566048D01*
X4733952Y-3482481D01*
X4668288Y-3384208D01*
X4668287Y-3384207D01*
X4623058Y-3275014D01*
X4600000Y-3159095D01*
X4600000Y-3040905D01*
X4623058Y-2924986D01*
X4668287Y-2815793D01*
X4733950Y-2717522D01*
X4733952Y-2717519D01*
X4817519Y-2633952D01*
X4915792Y-2568288D01*
X4915793Y-2568287D01*
X5024986Y-2523058D01*
X5024987Y-2523058D01*
X5024989Y-2523057D01*
X5140905Y-2500000D01*
X5259095Y-2500000D01*
X5375011Y-2523057D01*
X5375011Y-2523057D01*
G37*
M02*
