G04 #@! TF.GenerationSoftware,KiCad,Pcbnew,5.0.2+dfsg1-1*
G04 #@! TF.CreationDate,2019-10-16T13:50:26+03:00*
G04 #@! TF.ProjectId,PocketAdmin,506f636b-6574-4416-946d-696e2e6b6963,1.2*
G04 #@! TF.SameCoordinates,PX7bfa480PY42c1d80*
G04 #@! TF.FileFunction,Copper,L1,Top*
G04 #@! TF.FilePolarity,Positive*
%FSLAX46Y46*%
G04 Gerber Fmt 4.6, Leading zero omitted, Abs format (unit mm)*
G04 Created by KiCad (PCBNEW 5.0.2+dfsg1-1) date Wed 16 Oct 2019 01:50:26 PM MSK*
%MOMM*%
%LPD*%
G01*
G04 APERTURE LIST*
G04 #@! TA.AperFunction,ComponentPad*
%ADD10R,1.700000X1.700000*%
G04 #@! TD*
G04 #@! TA.AperFunction,ComponentPad*
%ADD11O,1.700000X1.700000*%
G04 #@! TD*
G04 #@! TA.AperFunction,SMDPad,CuDef*
%ADD12R,1.100000X2.500000*%
G04 #@! TD*
G04 #@! TA.AperFunction,ComponentPad*
%ADD13O,1.900000X3.500000*%
G04 #@! TD*
G04 #@! TA.AperFunction,Conductor*
%ADD14C,0.100000*%
G04 #@! TD*
G04 #@! TA.AperFunction,SMDPad,CuDef*
%ADD15C,0.875000*%
G04 #@! TD*
G04 #@! TA.AperFunction,SMDPad,CuDef*
%ADD16R,1.500000X0.600000*%
G04 #@! TD*
G04 #@! TA.AperFunction,SMDPad,CuDef*
%ADD17R,1.700000X1.000000*%
G04 #@! TD*
G04 #@! TA.AperFunction,ViaPad*
%ADD18C,0.600000*%
G04 #@! TD*
G04 #@! TA.AperFunction,Conductor*
%ADD19C,0.200000*%
G04 #@! TD*
G04 #@! TA.AperFunction,Conductor*
%ADD20C,0.190000*%
G04 #@! TD*
G04 APERTURE END LIST*
D10*
G04 #@! TO.P,CON1,1*
G04 #@! TO.N,swclk*
X12600000Y-29100000D03*
D11*
G04 #@! TO.P,CON1,2*
G04 #@! TO.N,swdio*
X10060000Y-29100000D03*
G04 #@! TO.P,CON1,3*
G04 #@! TO.N,GND*
X7520000Y-29100000D03*
G04 #@! TO.P,CON1,4*
G04 #@! TO.N,3.3V*
X4980000Y-29100000D03*
G04 #@! TO.P,CON1,5*
G04 #@! TO.N,Net-(CON1-Pad5)*
X2440000Y-29100000D03*
G04 #@! TD*
D12*
G04 #@! TO.P,J1,2*
G04 #@! TO.N,d-*
X6500000Y-5850000D03*
G04 #@! TO.P,J1,3*
G04 #@! TO.N,d+*
X8500000Y-5850000D03*
G04 #@! TO.P,J1,1*
G04 #@! TO.N,5V*
X4000000Y-5850000D03*
G04 #@! TO.P,J1,4*
G04 #@! TO.N,GND*
X11000000Y-5850000D03*
D13*
G04 #@! TO.P,J1,5*
X1800000Y-3100000D03*
X13200000Y-3100000D03*
G04 #@! TD*
D14*
G04 #@! TO.N,3.3V*
G04 #@! TO.C,C9*
G36*
X12577691Y-21676053D02*
X12598926Y-21679203D01*
X12619750Y-21684419D01*
X12639962Y-21691651D01*
X12659368Y-21700830D01*
X12677781Y-21711866D01*
X12695024Y-21724654D01*
X12710930Y-21739070D01*
X12725346Y-21754976D01*
X12738134Y-21772219D01*
X12749170Y-21790632D01*
X12758349Y-21810038D01*
X12765581Y-21830250D01*
X12770797Y-21851074D01*
X12773947Y-21872309D01*
X12775000Y-21893750D01*
X12775000Y-22331250D01*
X12773947Y-22352691D01*
X12770797Y-22373926D01*
X12765581Y-22394750D01*
X12758349Y-22414962D01*
X12749170Y-22434368D01*
X12738134Y-22452781D01*
X12725346Y-22470024D01*
X12710930Y-22485930D01*
X12695024Y-22500346D01*
X12677781Y-22513134D01*
X12659368Y-22524170D01*
X12639962Y-22533349D01*
X12619750Y-22540581D01*
X12598926Y-22545797D01*
X12577691Y-22548947D01*
X12556250Y-22550000D01*
X12043750Y-22550000D01*
X12022309Y-22548947D01*
X12001074Y-22545797D01*
X11980250Y-22540581D01*
X11960038Y-22533349D01*
X11940632Y-22524170D01*
X11922219Y-22513134D01*
X11904976Y-22500346D01*
X11889070Y-22485930D01*
X11874654Y-22470024D01*
X11861866Y-22452781D01*
X11850830Y-22434368D01*
X11841651Y-22414962D01*
X11834419Y-22394750D01*
X11829203Y-22373926D01*
X11826053Y-22352691D01*
X11825000Y-22331250D01*
X11825000Y-21893750D01*
X11826053Y-21872309D01*
X11829203Y-21851074D01*
X11834419Y-21830250D01*
X11841651Y-21810038D01*
X11850830Y-21790632D01*
X11861866Y-21772219D01*
X11874654Y-21754976D01*
X11889070Y-21739070D01*
X11904976Y-21724654D01*
X11922219Y-21711866D01*
X11940632Y-21700830D01*
X11960038Y-21691651D01*
X11980250Y-21684419D01*
X12001074Y-21679203D01*
X12022309Y-21676053D01*
X12043750Y-21675000D01*
X12556250Y-21675000D01*
X12577691Y-21676053D01*
X12577691Y-21676053D01*
G37*
D15*
G04 #@! TD*
G04 #@! TO.P,C9,1*
G04 #@! TO.N,3.3V*
X12300000Y-22112500D03*
D14*
G04 #@! TO.N,GND*
G04 #@! TO.C,C9*
G36*
X12577691Y-23251053D02*
X12598926Y-23254203D01*
X12619750Y-23259419D01*
X12639962Y-23266651D01*
X12659368Y-23275830D01*
X12677781Y-23286866D01*
X12695024Y-23299654D01*
X12710930Y-23314070D01*
X12725346Y-23329976D01*
X12738134Y-23347219D01*
X12749170Y-23365632D01*
X12758349Y-23385038D01*
X12765581Y-23405250D01*
X12770797Y-23426074D01*
X12773947Y-23447309D01*
X12775000Y-23468750D01*
X12775000Y-23906250D01*
X12773947Y-23927691D01*
X12770797Y-23948926D01*
X12765581Y-23969750D01*
X12758349Y-23989962D01*
X12749170Y-24009368D01*
X12738134Y-24027781D01*
X12725346Y-24045024D01*
X12710930Y-24060930D01*
X12695024Y-24075346D01*
X12677781Y-24088134D01*
X12659368Y-24099170D01*
X12639962Y-24108349D01*
X12619750Y-24115581D01*
X12598926Y-24120797D01*
X12577691Y-24123947D01*
X12556250Y-24125000D01*
X12043750Y-24125000D01*
X12022309Y-24123947D01*
X12001074Y-24120797D01*
X11980250Y-24115581D01*
X11960038Y-24108349D01*
X11940632Y-24099170D01*
X11922219Y-24088134D01*
X11904976Y-24075346D01*
X11889070Y-24060930D01*
X11874654Y-24045024D01*
X11861866Y-24027781D01*
X11850830Y-24009368D01*
X11841651Y-23989962D01*
X11834419Y-23969750D01*
X11829203Y-23948926D01*
X11826053Y-23927691D01*
X11825000Y-23906250D01*
X11825000Y-23468750D01*
X11826053Y-23447309D01*
X11829203Y-23426074D01*
X11834419Y-23405250D01*
X11841651Y-23385038D01*
X11850830Y-23365632D01*
X11861866Y-23347219D01*
X11874654Y-23329976D01*
X11889070Y-23314070D01*
X11904976Y-23299654D01*
X11922219Y-23286866D01*
X11940632Y-23275830D01*
X11960038Y-23266651D01*
X11980250Y-23259419D01*
X12001074Y-23254203D01*
X12022309Y-23251053D01*
X12043750Y-23250000D01*
X12556250Y-23250000D01*
X12577691Y-23251053D01*
X12577691Y-23251053D01*
G37*
D15*
G04 #@! TD*
G04 #@! TO.P,C9,2*
G04 #@! TO.N,GND*
X12300000Y-23687500D03*
D16*
G04 #@! TO.P,U4,1*
G04 #@! TO.N,3.3V*
X11850000Y-20545000D03*
G04 #@! TO.P,U4,2*
X11850000Y-19275000D03*
G04 #@! TO.P,U4,3*
G04 #@! TO.N,nrst*
X11850000Y-18005000D03*
G04 #@! TO.P,U4,4*
G04 #@! TO.N,Net-(U4-Pad11)*
X11850000Y-16735000D03*
G04 #@! TO.P,U4,5*
X11850000Y-15465000D03*
G04 #@! TO.P,U4,6*
X11850000Y-14195000D03*
G04 #@! TO.P,U4,7*
G04 #@! TO.N,cs*
X11850000Y-12925000D03*
G04 #@! TO.P,U4,8*
G04 #@! TO.N,miso*
X11850000Y-11655000D03*
G04 #@! TO.P,U4,9*
G04 #@! TO.N,3.3V*
X2550000Y-11655000D03*
G04 #@! TO.P,U4,10*
G04 #@! TO.N,GND*
X2550000Y-12925000D03*
G04 #@! TO.P,U4,11*
G04 #@! TO.N,Net-(U4-Pad11)*
X2550000Y-14195000D03*
G04 #@! TO.P,U4,12*
X2550000Y-15465000D03*
G04 #@! TO.P,U4,13*
X2550000Y-16735000D03*
G04 #@! TO.P,U4,14*
X2550000Y-18005000D03*
G04 #@! TO.P,U4,15*
G04 #@! TO.N,mosi*
X2550000Y-19275000D03*
G04 #@! TO.P,U4,16*
G04 #@! TO.N,sck*
X2550000Y-20545000D03*
G04 #@! TD*
D17*
G04 #@! TO.P,SW1,1*
G04 #@! TO.N,Net-(C10-Pad2)*
X3950000Y-22800000D03*
X10250000Y-22800000D03*
G04 #@! TO.P,SW1,2*
G04 #@! TO.N,GND*
X3950000Y-26600000D03*
X10250000Y-26600000D03*
G04 #@! TD*
D14*
G04 #@! TO.N,GND*
G04 #@! TO.C,C10*
G36*
X2277691Y-23251053D02*
X2298926Y-23254203D01*
X2319750Y-23259419D01*
X2339962Y-23266651D01*
X2359368Y-23275830D01*
X2377781Y-23286866D01*
X2395024Y-23299654D01*
X2410930Y-23314070D01*
X2425346Y-23329976D01*
X2438134Y-23347219D01*
X2449170Y-23365632D01*
X2458349Y-23385038D01*
X2465581Y-23405250D01*
X2470797Y-23426074D01*
X2473947Y-23447309D01*
X2475000Y-23468750D01*
X2475000Y-23906250D01*
X2473947Y-23927691D01*
X2470797Y-23948926D01*
X2465581Y-23969750D01*
X2458349Y-23989962D01*
X2449170Y-24009368D01*
X2438134Y-24027781D01*
X2425346Y-24045024D01*
X2410930Y-24060930D01*
X2395024Y-24075346D01*
X2377781Y-24088134D01*
X2359368Y-24099170D01*
X2339962Y-24108349D01*
X2319750Y-24115581D01*
X2298926Y-24120797D01*
X2277691Y-24123947D01*
X2256250Y-24125000D01*
X1743750Y-24125000D01*
X1722309Y-24123947D01*
X1701074Y-24120797D01*
X1680250Y-24115581D01*
X1660038Y-24108349D01*
X1640632Y-24099170D01*
X1622219Y-24088134D01*
X1604976Y-24075346D01*
X1589070Y-24060930D01*
X1574654Y-24045024D01*
X1561866Y-24027781D01*
X1550830Y-24009368D01*
X1541651Y-23989962D01*
X1534419Y-23969750D01*
X1529203Y-23948926D01*
X1526053Y-23927691D01*
X1525000Y-23906250D01*
X1525000Y-23468750D01*
X1526053Y-23447309D01*
X1529203Y-23426074D01*
X1534419Y-23405250D01*
X1541651Y-23385038D01*
X1550830Y-23365632D01*
X1561866Y-23347219D01*
X1574654Y-23329976D01*
X1589070Y-23314070D01*
X1604976Y-23299654D01*
X1622219Y-23286866D01*
X1640632Y-23275830D01*
X1660038Y-23266651D01*
X1680250Y-23259419D01*
X1701074Y-23254203D01*
X1722309Y-23251053D01*
X1743750Y-23250000D01*
X2256250Y-23250000D01*
X2277691Y-23251053D01*
X2277691Y-23251053D01*
G37*
D15*
G04 #@! TD*
G04 #@! TO.P,C10,1*
G04 #@! TO.N,GND*
X2000000Y-23687500D03*
D14*
G04 #@! TO.N,Net-(C10-Pad2)*
G04 #@! TO.C,C10*
G36*
X2277691Y-21676053D02*
X2298926Y-21679203D01*
X2319750Y-21684419D01*
X2339962Y-21691651D01*
X2359368Y-21700830D01*
X2377781Y-21711866D01*
X2395024Y-21724654D01*
X2410930Y-21739070D01*
X2425346Y-21754976D01*
X2438134Y-21772219D01*
X2449170Y-21790632D01*
X2458349Y-21810038D01*
X2465581Y-21830250D01*
X2470797Y-21851074D01*
X2473947Y-21872309D01*
X2475000Y-21893750D01*
X2475000Y-22331250D01*
X2473947Y-22352691D01*
X2470797Y-22373926D01*
X2465581Y-22394750D01*
X2458349Y-22414962D01*
X2449170Y-22434368D01*
X2438134Y-22452781D01*
X2425346Y-22470024D01*
X2410930Y-22485930D01*
X2395024Y-22500346D01*
X2377781Y-22513134D01*
X2359368Y-22524170D01*
X2339962Y-22533349D01*
X2319750Y-22540581D01*
X2298926Y-22545797D01*
X2277691Y-22548947D01*
X2256250Y-22550000D01*
X1743750Y-22550000D01*
X1722309Y-22548947D01*
X1701074Y-22545797D01*
X1680250Y-22540581D01*
X1660038Y-22533349D01*
X1640632Y-22524170D01*
X1622219Y-22513134D01*
X1604976Y-22500346D01*
X1589070Y-22485930D01*
X1574654Y-22470024D01*
X1561866Y-22452781D01*
X1550830Y-22434368D01*
X1541651Y-22414962D01*
X1534419Y-22394750D01*
X1529203Y-22373926D01*
X1526053Y-22352691D01*
X1525000Y-22331250D01*
X1525000Y-21893750D01*
X1526053Y-21872309D01*
X1529203Y-21851074D01*
X1534419Y-21830250D01*
X1541651Y-21810038D01*
X1550830Y-21790632D01*
X1561866Y-21772219D01*
X1574654Y-21754976D01*
X1589070Y-21739070D01*
X1604976Y-21724654D01*
X1622219Y-21711866D01*
X1640632Y-21700830D01*
X1660038Y-21691651D01*
X1680250Y-21684419D01*
X1701074Y-21679203D01*
X1722309Y-21676053D01*
X1743750Y-21675000D01*
X2256250Y-21675000D01*
X2277691Y-21676053D01*
X2277691Y-21676053D01*
G37*
D15*
G04 #@! TD*
G04 #@! TO.P,C10,2*
G04 #@! TO.N,Net-(C10-Pad2)*
X2000000Y-22112500D03*
D18*
G04 #@! TO.N,3.3V*
X700000Y-11700000D03*
X10000000Y-20200000D03*
G04 #@! TO.N,GND*
X11000000Y-8000000D03*
X4000000Y-15300000D03*
X6300000Y-20300000D03*
X10000000Y-19400000D03*
X2600000Y-9900000D03*
X3700000Y-24300000D03*
X13100000Y-25000000D03*
X5700000Y-11500000D03*
X12000000Y-9900002D03*
G04 #@! TO.N,5V*
X4000000Y-8000000D03*
G04 #@! TO.N,swclk*
X5600000Y-7700000D03*
G04 #@! TO.N,swdio*
X9750000Y-7700000D03*
G04 #@! TO.N,d-*
X6500000Y-7700000D03*
G04 #@! TO.N,d+*
X8500000Y-7700000D03*
G04 #@! TO.N,sck*
X1300000Y-20500000D03*
G04 #@! TO.N,miso*
X1300000Y-14800000D03*
G04 #@! TO.N,mosi*
X4000000Y-18000000D03*
G04 #@! TO.N,cs*
X9700000Y-15300000D03*
G04 #@! TO.N,Net-(C10-Pad2)*
X4350000Y-20250000D03*
G04 #@! TO.N,nrst*
X8250000Y-20300000D03*
G04 #@! TD*
D19*
G04 #@! TO.N,3.3V*
X11850000Y-20545000D02*
X11850000Y-19275000D01*
X2505000Y-11700000D02*
X2550000Y-11655000D01*
X600000Y-11700000D02*
X2505000Y-11700000D01*
X11805000Y-20500000D02*
X11850000Y-20545000D01*
X10000000Y-20200000D02*
X10300000Y-20500000D01*
X10300000Y-20500000D02*
X11805000Y-20500000D01*
X12300000Y-20545000D02*
X11850000Y-20545000D01*
X12300000Y-22112500D02*
X12300000Y-20545000D01*
G04 #@! TO.N,GND*
X11000000Y-5850000D02*
X11000000Y-8000000D01*
G04 #@! TO.N,5V*
X4000000Y-5850000D02*
X4000000Y-8000000D01*
G04 #@! TO.N,swclk*
X14400000Y-27080000D02*
X12580000Y-28900000D01*
X14400000Y-9500000D02*
X14400000Y-27080000D01*
X5600000Y-7700000D02*
X5600000Y-4500000D01*
X11600000Y-4100000D02*
X11900000Y-4400000D01*
X6000000Y-4100000D02*
X11600000Y-4100000D01*
X5600000Y-4500000D02*
X6000000Y-4100000D01*
X11900000Y-7000000D02*
X14400000Y-9500000D01*
X11900000Y-4400000D02*
X11900000Y-7000000D01*
G04 #@! TO.N,swdio*
X10850000Y-8800000D02*
X9750000Y-7700000D01*
X12300000Y-27600000D02*
X13700000Y-26200000D01*
X10040000Y-28900000D02*
X10040000Y-27900000D01*
X12700000Y-8800000D02*
X10850000Y-8800000D01*
X10340000Y-27600000D02*
X12300000Y-27600000D01*
X10040000Y-27900000D02*
X10340000Y-27600000D01*
X13700000Y-26200000D02*
X13700000Y-9800000D01*
X13700000Y-9800000D02*
X12700000Y-8800000D01*
G04 #@! TO.N,d-*
X6500000Y-5850000D02*
X6500000Y-7700000D01*
G04 #@! TO.N,d+*
X8500000Y-5850000D02*
X8500000Y-7700000D01*
G04 #@! TO.N,sck*
X2505000Y-20500000D02*
X2550000Y-20545000D01*
X1300000Y-20500000D02*
X2505000Y-20500000D01*
G04 #@! TO.N,miso*
X10100000Y-12300000D02*
X10745000Y-11655000D01*
X10745000Y-11655000D02*
X11850000Y-11655000D01*
X1584998Y-12300000D02*
X10100000Y-12300000D01*
X1300000Y-14800000D02*
X1300000Y-12584998D01*
X1300000Y-12584998D02*
X1584998Y-12300000D01*
G04 #@! TO.N,mosi*
X3525000Y-19275000D02*
X4000000Y-18800000D01*
X2550000Y-19275000D02*
X3525000Y-19275000D01*
X4000000Y-18145002D02*
X4000000Y-18000000D01*
X4000000Y-18800000D02*
X4000000Y-18145002D01*
G04 #@! TO.N,cs*
X10775000Y-12925000D02*
X11850000Y-12925000D01*
X10000000Y-13700000D02*
X10775000Y-12925000D01*
X9999999Y-15000001D02*
X10000000Y-13700000D01*
X9700000Y-15300000D02*
X9999999Y-15000001D01*
G04 #@! TO.N,Net-(C10-Pad2)*
X2000000Y-22112500D02*
X2187500Y-22300000D01*
X4200000Y-22750000D02*
X4150000Y-22800000D01*
X4350000Y-20250000D02*
X4250000Y-20350000D01*
X4250000Y-22500000D02*
X3950000Y-22800000D01*
X4250000Y-20350000D02*
X4250000Y-22500000D01*
X2687500Y-22800000D02*
X3950000Y-22800000D01*
X2000000Y-22112500D02*
X2687500Y-22800000D01*
G04 #@! TO.N,nrst*
X9495000Y-18005000D02*
X11850000Y-18005000D01*
X8250000Y-20300000D02*
X8250000Y-19250000D01*
X8250000Y-19250000D02*
X9495000Y-18005000D01*
G04 #@! TD*
D20*
G04 #@! TO.N,GND*
G36*
X13345616Y-1165608D02*
X13638616Y-1361384D01*
X13834392Y-1654384D01*
X13905000Y-2009358D01*
X13905000Y-8446386D01*
X12295000Y-6836386D01*
X12295000Y-4438899D01*
X12302738Y-4399999D01*
X12291973Y-4345880D01*
X12272081Y-4245879D01*
X12184779Y-4115221D01*
X12151801Y-4093186D01*
X11906816Y-3848201D01*
X11884779Y-3815221D01*
X11754121Y-3727919D01*
X11638901Y-3705000D01*
X11600000Y-3697262D01*
X11561099Y-3705000D01*
X10390011Y-3705000D01*
X10516357Y-3578654D01*
X10645000Y-3268081D01*
X10645000Y-2931919D01*
X10516357Y-2621346D01*
X10278654Y-2383643D01*
X9968081Y-2255000D01*
X9631919Y-2255000D01*
X9321346Y-2383643D01*
X9083643Y-2621346D01*
X8955000Y-2931919D01*
X8955000Y-3268081D01*
X9083643Y-3578654D01*
X9209989Y-3705000D01*
X6038899Y-3705000D01*
X5999999Y-3697262D01*
X5961099Y-3705000D01*
X5845879Y-3727919D01*
X5715221Y-3815221D01*
X5693186Y-3848199D01*
X5348200Y-4193186D01*
X5315222Y-4215221D01*
X5293187Y-4248199D01*
X5293186Y-4248200D01*
X5227919Y-4345880D01*
X5197262Y-4500000D01*
X5205001Y-4538906D01*
X5205000Y-7253542D01*
X5095583Y-7362959D01*
X5005000Y-7581647D01*
X5005000Y-7818353D01*
X5095583Y-8037041D01*
X5262959Y-8204417D01*
X5481647Y-8295000D01*
X5718353Y-8295000D01*
X5937041Y-8204417D01*
X6050000Y-8091458D01*
X6162959Y-8204417D01*
X6381647Y-8295000D01*
X6618353Y-8295000D01*
X6837041Y-8204417D01*
X7004417Y-8037041D01*
X7095000Y-7818353D01*
X7095000Y-7581647D01*
X7020082Y-7400779D01*
X7050000Y-7400779D01*
X7165103Y-7377884D01*
X7262683Y-7312683D01*
X7327884Y-7215103D01*
X7350779Y-7100000D01*
X7350779Y-4600000D01*
X7329894Y-4495000D01*
X7670106Y-4495000D01*
X7649221Y-4600000D01*
X7649221Y-7100000D01*
X7672116Y-7215103D01*
X7737317Y-7312683D01*
X7834897Y-7377884D01*
X7950000Y-7400779D01*
X7979918Y-7400779D01*
X7905000Y-7581647D01*
X7905000Y-7818353D01*
X7995583Y-8037041D01*
X8162959Y-8204417D01*
X8381647Y-8295000D01*
X8618353Y-8295000D01*
X8837041Y-8204417D01*
X9004417Y-8037041D01*
X9095000Y-7818353D01*
X9095000Y-7581647D01*
X9020082Y-7400779D01*
X9050000Y-7400779D01*
X9165103Y-7377884D01*
X9262683Y-7312683D01*
X9327884Y-7215103D01*
X9350779Y-7100000D01*
X9350779Y-4600000D01*
X9329894Y-4495000D01*
X11436386Y-4495000D01*
X11505000Y-4563615D01*
X11505001Y-6961094D01*
X11497262Y-7000000D01*
X11527919Y-7154120D01*
X11555624Y-7195583D01*
X11615222Y-7284779D01*
X11648200Y-7306814D01*
X12748245Y-8406859D01*
X12738901Y-8405000D01*
X12700000Y-8397262D01*
X12661099Y-8405000D01*
X11013614Y-8405000D01*
X10345000Y-7736386D01*
X10345000Y-7581647D01*
X10254417Y-7362959D01*
X10087041Y-7195583D01*
X9868353Y-7105000D01*
X9631647Y-7105000D01*
X9412959Y-7195583D01*
X9245583Y-7362959D01*
X9155000Y-7581647D01*
X9155000Y-7818353D01*
X9245583Y-8037041D01*
X9412959Y-8204417D01*
X9631647Y-8295000D01*
X9786386Y-8295000D01*
X10543184Y-9051798D01*
X10565221Y-9084779D01*
X10695879Y-9172081D01*
X10850000Y-9202738D01*
X10888901Y-9195000D01*
X12536386Y-9195000D01*
X13305001Y-9963615D01*
X13305000Y-26036385D01*
X12136386Y-27205000D01*
X11484053Y-27205000D01*
X11495000Y-27178571D01*
X11495000Y-26708750D01*
X11396250Y-26610000D01*
X10260000Y-26610000D01*
X10260000Y-26630000D01*
X10240000Y-26630000D01*
X10240000Y-26610000D01*
X9103750Y-26610000D01*
X9005000Y-26708750D01*
X9005000Y-27178571D01*
X9065135Y-27323750D01*
X9176251Y-27434865D01*
X9321430Y-27495000D01*
X9886386Y-27495000D01*
X9788199Y-27593186D01*
X9755222Y-27615221D01*
X9733187Y-27648199D01*
X9733186Y-27648200D01*
X9667919Y-27745880D01*
X9637262Y-27900000D01*
X9645001Y-27938905D01*
X9645001Y-28015117D01*
X9613243Y-28021434D01*
X9234502Y-28274502D01*
X8981434Y-28653243D01*
X8892569Y-29100000D01*
X8981434Y-29546757D01*
X9220806Y-29905000D01*
X5819194Y-29905000D01*
X6058566Y-29546757D01*
X6147431Y-29100000D01*
X6058566Y-28653243D01*
X5805498Y-28274502D01*
X5426757Y-28021434D01*
X5092769Y-27955000D01*
X4867231Y-27955000D01*
X4533243Y-28021434D01*
X4154502Y-28274502D01*
X3901434Y-28653243D01*
X3812569Y-29100000D01*
X3901434Y-29546757D01*
X4140806Y-29905000D01*
X3279194Y-29905000D01*
X3518566Y-29546757D01*
X3607431Y-29100000D01*
X3518566Y-28653243D01*
X3265498Y-28274502D01*
X2886757Y-28021434D01*
X2552769Y-27955000D01*
X2327231Y-27955000D01*
X1993243Y-28021434D01*
X1614502Y-28274502D01*
X1361434Y-28653243D01*
X1272569Y-29100000D01*
X1361434Y-29546757D01*
X1472359Y-29712767D01*
X1361384Y-29638616D01*
X1165608Y-29345616D01*
X1095000Y-28990642D01*
X1095000Y-26708750D01*
X2705000Y-26708750D01*
X2705000Y-27178571D01*
X2765135Y-27323750D01*
X2876251Y-27434865D01*
X3021430Y-27495000D01*
X3841250Y-27495000D01*
X3940000Y-27396250D01*
X3940000Y-26610000D01*
X3960000Y-26610000D01*
X3960000Y-27396250D01*
X4058750Y-27495000D01*
X4878570Y-27495000D01*
X5023749Y-27434865D01*
X5134865Y-27323750D01*
X5195000Y-27178571D01*
X5195000Y-26708750D01*
X5096250Y-26610000D01*
X3960000Y-26610000D01*
X3940000Y-26610000D01*
X2803750Y-26610000D01*
X2705000Y-26708750D01*
X1095000Y-26708750D01*
X1095000Y-26021429D01*
X2705000Y-26021429D01*
X2705000Y-26491250D01*
X2803750Y-26590000D01*
X3940000Y-26590000D01*
X3940000Y-25803750D01*
X3960000Y-25803750D01*
X3960000Y-26590000D01*
X5096250Y-26590000D01*
X5195000Y-26491250D01*
X5195000Y-26021429D01*
X9005000Y-26021429D01*
X9005000Y-26491250D01*
X9103750Y-26590000D01*
X10240000Y-26590000D01*
X10240000Y-25803750D01*
X10260000Y-25803750D01*
X10260000Y-26590000D01*
X11396250Y-26590000D01*
X11495000Y-26491250D01*
X11495000Y-26021429D01*
X11434865Y-25876250D01*
X11323749Y-25765135D01*
X11178570Y-25705000D01*
X10358750Y-25705000D01*
X10260000Y-25803750D01*
X10240000Y-25803750D01*
X10141250Y-25705000D01*
X9321430Y-25705000D01*
X9176251Y-25765135D01*
X9065135Y-25876250D01*
X9005000Y-26021429D01*
X5195000Y-26021429D01*
X5134865Y-25876250D01*
X5023749Y-25765135D01*
X4878570Y-25705000D01*
X4058750Y-25705000D01*
X3960000Y-25803750D01*
X3940000Y-25803750D01*
X3841250Y-25705000D01*
X3021430Y-25705000D01*
X2876251Y-25765135D01*
X2765135Y-25876250D01*
X2705000Y-26021429D01*
X1095000Y-26021429D01*
X1095000Y-23796250D01*
X1130000Y-23796250D01*
X1130000Y-24203570D01*
X1190135Y-24348749D01*
X1301250Y-24459865D01*
X1446429Y-24520000D01*
X1891250Y-24520000D01*
X1990000Y-24421250D01*
X1990000Y-23697500D01*
X2010000Y-23697500D01*
X2010000Y-24421250D01*
X2108750Y-24520000D01*
X2553571Y-24520000D01*
X2698750Y-24459865D01*
X2809865Y-24348749D01*
X2870000Y-24203570D01*
X2870000Y-23796250D01*
X11430000Y-23796250D01*
X11430000Y-24203570D01*
X11490135Y-24348749D01*
X11601250Y-24459865D01*
X11746429Y-24520000D01*
X12191250Y-24520000D01*
X12290000Y-24421250D01*
X12290000Y-23697500D01*
X12310000Y-23697500D01*
X12310000Y-24421250D01*
X12408750Y-24520000D01*
X12853571Y-24520000D01*
X12998750Y-24459865D01*
X13109865Y-24348749D01*
X13170000Y-24203570D01*
X13170000Y-23796250D01*
X13071250Y-23697500D01*
X12310000Y-23697500D01*
X12290000Y-23697500D01*
X11528750Y-23697500D01*
X11430000Y-23796250D01*
X2870000Y-23796250D01*
X2771250Y-23697500D01*
X2010000Y-23697500D01*
X1990000Y-23697500D01*
X1228750Y-23697500D01*
X1130000Y-23796250D01*
X1095000Y-23796250D01*
X1095000Y-23171430D01*
X1130000Y-23171430D01*
X1130000Y-23578750D01*
X1228750Y-23677500D01*
X1990000Y-23677500D01*
X1990000Y-22953750D01*
X1891250Y-22855000D01*
X1446429Y-22855000D01*
X1301250Y-22915135D01*
X1190135Y-23026251D01*
X1130000Y-23171430D01*
X1095000Y-23171430D01*
X1095000Y-21893750D01*
X1224221Y-21893750D01*
X1224221Y-22331250D01*
X1263768Y-22530065D01*
X1376388Y-22698612D01*
X1544935Y-22811232D01*
X1743750Y-22850779D01*
X2179665Y-22850779D01*
X2183886Y-22855000D01*
X2108750Y-22855000D01*
X2010000Y-22953750D01*
X2010000Y-23677500D01*
X2771250Y-23677500D01*
X2870000Y-23578750D01*
X2870000Y-23486766D01*
X2887317Y-23512683D01*
X2984897Y-23577884D01*
X3100000Y-23600779D01*
X4800000Y-23600779D01*
X4915103Y-23577884D01*
X5012683Y-23512683D01*
X5077884Y-23415103D01*
X5100779Y-23300000D01*
X5100779Y-22300000D01*
X9099221Y-22300000D01*
X9099221Y-23300000D01*
X9122116Y-23415103D01*
X9187317Y-23512683D01*
X9284897Y-23577884D01*
X9400000Y-23600779D01*
X11100000Y-23600779D01*
X11215103Y-23577884D01*
X11312683Y-23512683D01*
X11377884Y-23415103D01*
X11400779Y-23300000D01*
X11400779Y-23171430D01*
X11430000Y-23171430D01*
X11430000Y-23578750D01*
X11528750Y-23677500D01*
X12290000Y-23677500D01*
X12290000Y-22953750D01*
X12310000Y-22953750D01*
X12310000Y-23677500D01*
X13071250Y-23677500D01*
X13170000Y-23578750D01*
X13170000Y-23171430D01*
X13109865Y-23026251D01*
X12998750Y-22915135D01*
X12853571Y-22855000D01*
X12408750Y-22855000D01*
X12310000Y-22953750D01*
X12290000Y-22953750D01*
X12191250Y-22855000D01*
X11746429Y-22855000D01*
X11601250Y-22915135D01*
X11490135Y-23026251D01*
X11430000Y-23171430D01*
X11400779Y-23171430D01*
X11400779Y-22300000D01*
X11377884Y-22184897D01*
X11312683Y-22087317D01*
X11215103Y-22022116D01*
X11100000Y-21999221D01*
X9400000Y-21999221D01*
X9284897Y-22022116D01*
X9187317Y-22087317D01*
X9122116Y-22184897D01*
X9099221Y-22300000D01*
X5100779Y-22300000D01*
X5077884Y-22184897D01*
X5012683Y-22087317D01*
X4915103Y-22022116D01*
X4800000Y-21999221D01*
X4645000Y-21999221D01*
X4645000Y-20771831D01*
X4687041Y-20754417D01*
X4854417Y-20587041D01*
X4945000Y-20368353D01*
X4945000Y-20181647D01*
X7655000Y-20181647D01*
X7655000Y-20418353D01*
X7745583Y-20637041D01*
X7912959Y-20804417D01*
X8131647Y-20895000D01*
X8368353Y-20895000D01*
X8587041Y-20804417D01*
X8754417Y-20637041D01*
X8845000Y-20418353D01*
X8845000Y-20181647D01*
X8803579Y-20081647D01*
X9405000Y-20081647D01*
X9405000Y-20318353D01*
X9495583Y-20537041D01*
X9662959Y-20704417D01*
X9881647Y-20795000D01*
X10030518Y-20795000D01*
X10145879Y-20872081D01*
X10261099Y-20895000D01*
X10299999Y-20902738D01*
X10338899Y-20895000D01*
X10809166Y-20895000D01*
X10822116Y-20960103D01*
X10887317Y-21057683D01*
X10984897Y-21122884D01*
X11100000Y-21145779D01*
X11905001Y-21145779D01*
X11905000Y-21401820D01*
X11844935Y-21413768D01*
X11676388Y-21526388D01*
X11563768Y-21694935D01*
X11524221Y-21893750D01*
X11524221Y-22331250D01*
X11563768Y-22530065D01*
X11676388Y-22698612D01*
X11844935Y-22811232D01*
X12043750Y-22850779D01*
X12556250Y-22850779D01*
X12755065Y-22811232D01*
X12923612Y-22698612D01*
X13036232Y-22530065D01*
X13075779Y-22331250D01*
X13075779Y-21893750D01*
X13036232Y-21694935D01*
X12923612Y-21526388D01*
X12755065Y-21413768D01*
X12695000Y-21401820D01*
X12695000Y-21126883D01*
X12715103Y-21122884D01*
X12812683Y-21057683D01*
X12877884Y-20960103D01*
X12900779Y-20845000D01*
X12900779Y-20245000D01*
X12877884Y-20129897D01*
X12812683Y-20032317D01*
X12715103Y-19967116D01*
X12600000Y-19944221D01*
X12245000Y-19944221D01*
X12245000Y-19875779D01*
X12600000Y-19875779D01*
X12715103Y-19852884D01*
X12812683Y-19787683D01*
X12877884Y-19690103D01*
X12900779Y-19575000D01*
X12900779Y-18975000D01*
X12877884Y-18859897D01*
X12812683Y-18762317D01*
X12715103Y-18697116D01*
X12600000Y-18674221D01*
X11100000Y-18674221D01*
X10984897Y-18697116D01*
X10887317Y-18762317D01*
X10822116Y-18859897D01*
X10799221Y-18975000D01*
X10799221Y-19575000D01*
X10822116Y-19690103D01*
X10887317Y-19787683D01*
X10984897Y-19852884D01*
X11100000Y-19875779D01*
X11455001Y-19875779D01*
X11455000Y-19944221D01*
X11100000Y-19944221D01*
X10984897Y-19967116D01*
X10887317Y-20032317D01*
X10838752Y-20105000D01*
X10595000Y-20105000D01*
X10595000Y-20081647D01*
X10504417Y-19862959D01*
X10337041Y-19695583D01*
X10118353Y-19605000D01*
X9881647Y-19605000D01*
X9662959Y-19695583D01*
X9495583Y-19862959D01*
X9405000Y-20081647D01*
X8803579Y-20081647D01*
X8754417Y-19962959D01*
X8645000Y-19853542D01*
X8645000Y-19413614D01*
X9658614Y-18400000D01*
X10818117Y-18400000D01*
X10822116Y-18420103D01*
X10887317Y-18517683D01*
X10984897Y-18582884D01*
X11100000Y-18605779D01*
X12600000Y-18605779D01*
X12715103Y-18582884D01*
X12812683Y-18517683D01*
X12877884Y-18420103D01*
X12900779Y-18305000D01*
X12900779Y-17705000D01*
X12877884Y-17589897D01*
X12812683Y-17492317D01*
X12715103Y-17427116D01*
X12600000Y-17404221D01*
X11100000Y-17404221D01*
X10984897Y-17427116D01*
X10887317Y-17492317D01*
X10822116Y-17589897D01*
X10818117Y-17610000D01*
X9533901Y-17610000D01*
X9495000Y-17602262D01*
X9456099Y-17610000D01*
X9340879Y-17632919D01*
X9210221Y-17720221D01*
X9188184Y-17753202D01*
X7998200Y-18943186D01*
X7965222Y-18965221D01*
X7943187Y-18998199D01*
X7943186Y-18998200D01*
X7877919Y-19095880D01*
X7847262Y-19250000D01*
X7855001Y-19288905D01*
X7855000Y-19853542D01*
X7745583Y-19962959D01*
X7655000Y-20181647D01*
X4945000Y-20181647D01*
X4945000Y-20131647D01*
X4854417Y-19912959D01*
X4687041Y-19745583D01*
X4468353Y-19655000D01*
X4231647Y-19655000D01*
X4012959Y-19745583D01*
X3845583Y-19912959D01*
X3755000Y-20131647D01*
X3755000Y-20368353D01*
X3845583Y-20587041D01*
X3855000Y-20596458D01*
X3855001Y-21999221D01*
X3100000Y-21999221D01*
X2984897Y-22022116D01*
X2887317Y-22087317D01*
X2822116Y-22184897D01*
X2799221Y-22300000D01*
X2799221Y-22353107D01*
X2775779Y-22329665D01*
X2775779Y-21893750D01*
X2736232Y-21694935D01*
X2623612Y-21526388D01*
X2455065Y-21413768D01*
X2256250Y-21374221D01*
X1743750Y-21374221D01*
X1544935Y-21413768D01*
X1376388Y-21526388D01*
X1263768Y-21694935D01*
X1224221Y-21893750D01*
X1095000Y-21893750D01*
X1095000Y-21059110D01*
X1181647Y-21095000D01*
X1418353Y-21095000D01*
X1570220Y-21032095D01*
X1587317Y-21057683D01*
X1684897Y-21122884D01*
X1800000Y-21145779D01*
X3300000Y-21145779D01*
X3415103Y-21122884D01*
X3512683Y-21057683D01*
X3577884Y-20960103D01*
X3600779Y-20845000D01*
X3600779Y-20245000D01*
X3577884Y-20129897D01*
X3512683Y-20032317D01*
X3415103Y-19967116D01*
X3300000Y-19944221D01*
X1800000Y-19944221D01*
X1684897Y-19967116D01*
X1639145Y-19997687D01*
X1637041Y-19995583D01*
X1418353Y-19905000D01*
X1181647Y-19905000D01*
X1095000Y-19940890D01*
X1095000Y-17705000D01*
X1499221Y-17705000D01*
X1499221Y-18305000D01*
X1522116Y-18420103D01*
X1587317Y-18517683D01*
X1684897Y-18582884D01*
X1800000Y-18605779D01*
X3300000Y-18605779D01*
X3415103Y-18582884D01*
X3512683Y-18517683D01*
X3577884Y-18420103D01*
X3578010Y-18419468D01*
X3605001Y-18446459D01*
X3605000Y-18636385D01*
X3492533Y-18748853D01*
X3415103Y-18697116D01*
X3300000Y-18674221D01*
X1800000Y-18674221D01*
X1684897Y-18697116D01*
X1587317Y-18762317D01*
X1522116Y-18859897D01*
X1499221Y-18975000D01*
X1499221Y-19575000D01*
X1522116Y-19690103D01*
X1587317Y-19787683D01*
X1684897Y-19852884D01*
X1800000Y-19875779D01*
X3300000Y-19875779D01*
X3415103Y-19852884D01*
X3512683Y-19787683D01*
X3577884Y-19690103D01*
X3582623Y-19666276D01*
X3679121Y-19647081D01*
X3809779Y-19559779D01*
X3831816Y-19526798D01*
X4251801Y-19106814D01*
X4284779Y-19084779D01*
X4372081Y-18954121D01*
X4395000Y-18838901D01*
X4395000Y-18838900D01*
X4402738Y-18800001D01*
X4395000Y-18761101D01*
X4395000Y-18446458D01*
X4504417Y-18337041D01*
X4595000Y-18118353D01*
X4595000Y-17881647D01*
X4504417Y-17662959D01*
X4337041Y-17495583D01*
X4118353Y-17405000D01*
X3881647Y-17405000D01*
X3662959Y-17495583D01*
X3574183Y-17584359D01*
X3512683Y-17492317D01*
X3415103Y-17427116D01*
X3300000Y-17404221D01*
X1800000Y-17404221D01*
X1684897Y-17427116D01*
X1587317Y-17492317D01*
X1522116Y-17589897D01*
X1499221Y-17705000D01*
X1095000Y-17705000D01*
X1095000Y-16435000D01*
X1499221Y-16435000D01*
X1499221Y-17035000D01*
X1522116Y-17150103D01*
X1587317Y-17247683D01*
X1684897Y-17312884D01*
X1800000Y-17335779D01*
X3300000Y-17335779D01*
X3415103Y-17312884D01*
X3512683Y-17247683D01*
X3577884Y-17150103D01*
X3600779Y-17035000D01*
X3600779Y-16435000D01*
X10799221Y-16435000D01*
X10799221Y-17035000D01*
X10822116Y-17150103D01*
X10887317Y-17247683D01*
X10984897Y-17312884D01*
X11100000Y-17335779D01*
X12600000Y-17335779D01*
X12715103Y-17312884D01*
X12812683Y-17247683D01*
X12877884Y-17150103D01*
X12900779Y-17035000D01*
X12900779Y-16435000D01*
X12877884Y-16319897D01*
X12812683Y-16222317D01*
X12715103Y-16157116D01*
X12600000Y-16134221D01*
X11100000Y-16134221D01*
X10984897Y-16157116D01*
X10887317Y-16222317D01*
X10822116Y-16319897D01*
X10799221Y-16435000D01*
X3600779Y-16435000D01*
X3577884Y-16319897D01*
X3512683Y-16222317D01*
X3415103Y-16157116D01*
X3300000Y-16134221D01*
X1800000Y-16134221D01*
X1684897Y-16157116D01*
X1587317Y-16222317D01*
X1522116Y-16319897D01*
X1499221Y-16435000D01*
X1095000Y-16435000D01*
X1095000Y-15359110D01*
X1181647Y-15395000D01*
X1418353Y-15395000D01*
X1499221Y-15361504D01*
X1499221Y-15765000D01*
X1522116Y-15880103D01*
X1587317Y-15977683D01*
X1684897Y-16042884D01*
X1800000Y-16065779D01*
X3300000Y-16065779D01*
X3415103Y-16042884D01*
X3512683Y-15977683D01*
X3577884Y-15880103D01*
X3600779Y-15765000D01*
X3600779Y-15181647D01*
X9105000Y-15181647D01*
X9105000Y-15418353D01*
X9195583Y-15637041D01*
X9362959Y-15804417D01*
X9581647Y-15895000D01*
X9818353Y-15895000D01*
X10037041Y-15804417D01*
X10204417Y-15637041D01*
X10295000Y-15418353D01*
X10295000Y-15269480D01*
X10306813Y-15251801D01*
X10364811Y-15165000D01*
X10799221Y-15165000D01*
X10799221Y-15765000D01*
X10822116Y-15880103D01*
X10887317Y-15977683D01*
X10984897Y-16042884D01*
X11100000Y-16065779D01*
X12600000Y-16065779D01*
X12715103Y-16042884D01*
X12812683Y-15977683D01*
X12877884Y-15880103D01*
X12900779Y-15765000D01*
X12900779Y-15165000D01*
X12877884Y-15049897D01*
X12812683Y-14952317D01*
X12715103Y-14887116D01*
X12600000Y-14864221D01*
X11100000Y-14864221D01*
X10984897Y-14887116D01*
X10887317Y-14952317D01*
X10822116Y-15049897D01*
X10799221Y-15165000D01*
X10364811Y-15165000D01*
X10372080Y-15154122D01*
X10402737Y-15000001D01*
X10394998Y-14961096D01*
X10394999Y-13895000D01*
X10799221Y-13895000D01*
X10799221Y-14495000D01*
X10822116Y-14610103D01*
X10887317Y-14707683D01*
X10984897Y-14772884D01*
X11100000Y-14795779D01*
X12600000Y-14795779D01*
X12715103Y-14772884D01*
X12812683Y-14707683D01*
X12877884Y-14610103D01*
X12900779Y-14495000D01*
X12900779Y-13895000D01*
X12877884Y-13779897D01*
X12812683Y-13682317D01*
X12715103Y-13617116D01*
X12600000Y-13594221D01*
X11100000Y-13594221D01*
X10984897Y-13617116D01*
X10887317Y-13682317D01*
X10822116Y-13779897D01*
X10799221Y-13895000D01*
X10394999Y-13895000D01*
X10395000Y-13863614D01*
X10860726Y-13397888D01*
X10887317Y-13437683D01*
X10984897Y-13502884D01*
X11100000Y-13525779D01*
X12600000Y-13525779D01*
X12715103Y-13502884D01*
X12812683Y-13437683D01*
X12877884Y-13340103D01*
X12900779Y-13225000D01*
X12900779Y-12625000D01*
X12877884Y-12509897D01*
X12812683Y-12412317D01*
X12715103Y-12347116D01*
X12600000Y-12324221D01*
X11100000Y-12324221D01*
X10984897Y-12347116D01*
X10887317Y-12412317D01*
X10822116Y-12509897D01*
X10818117Y-12530000D01*
X10813901Y-12530000D01*
X10775000Y-12522262D01*
X10736099Y-12530000D01*
X10620879Y-12552919D01*
X10490221Y-12640221D01*
X10468184Y-12673202D01*
X9748200Y-13393186D01*
X9715222Y-13415221D01*
X9693187Y-13448199D01*
X9693186Y-13448200D01*
X9627919Y-13545880D01*
X9597262Y-13700000D01*
X9605001Y-13738905D01*
X9604999Y-14705000D01*
X9581647Y-14705000D01*
X9362959Y-14795583D01*
X9195583Y-14962959D01*
X9105000Y-15181647D01*
X3600779Y-15181647D01*
X3600779Y-15165000D01*
X3577884Y-15049897D01*
X3512683Y-14952317D01*
X3415103Y-14887116D01*
X3300000Y-14864221D01*
X1895000Y-14864221D01*
X1895000Y-14795779D01*
X3300000Y-14795779D01*
X3415103Y-14772884D01*
X3512683Y-14707683D01*
X3577884Y-14610103D01*
X3600779Y-14495000D01*
X3600779Y-13895000D01*
X3577884Y-13779897D01*
X3512683Y-13682317D01*
X3415103Y-13617116D01*
X3395126Y-13613142D01*
X3523749Y-13559865D01*
X3634865Y-13448750D01*
X3695000Y-13303571D01*
X3695000Y-13033750D01*
X3596250Y-12935000D01*
X2560000Y-12935000D01*
X2560000Y-12955000D01*
X2540000Y-12955000D01*
X2540000Y-12935000D01*
X2520000Y-12935000D01*
X2520000Y-12915000D01*
X2540000Y-12915000D01*
X2540000Y-12895000D01*
X2560000Y-12895000D01*
X2560000Y-12915000D01*
X3596250Y-12915000D01*
X3695000Y-12816250D01*
X3695000Y-12695000D01*
X10061099Y-12695000D01*
X10100000Y-12702738D01*
X10138901Y-12695000D01*
X10254121Y-12672081D01*
X10384779Y-12584779D01*
X10406816Y-12551798D01*
X10848710Y-12109904D01*
X10887317Y-12167683D01*
X10984897Y-12232884D01*
X11100000Y-12255779D01*
X12600000Y-12255779D01*
X12715103Y-12232884D01*
X12812683Y-12167683D01*
X12877884Y-12070103D01*
X12900779Y-11955000D01*
X12900779Y-11355000D01*
X12877884Y-11239897D01*
X12812683Y-11142317D01*
X12715103Y-11077116D01*
X12600000Y-11054221D01*
X11100000Y-11054221D01*
X10984897Y-11077116D01*
X10887317Y-11142317D01*
X10822116Y-11239897D01*
X10818117Y-11260000D01*
X10783901Y-11260000D01*
X10745000Y-11252262D01*
X10706099Y-11260000D01*
X10590879Y-11282919D01*
X10460221Y-11370221D01*
X10438184Y-11403202D01*
X9936386Y-11905000D01*
X3600779Y-11905000D01*
X3600779Y-11355000D01*
X3577884Y-11239897D01*
X3512683Y-11142317D01*
X3415103Y-11077116D01*
X3300000Y-11054221D01*
X1800000Y-11054221D01*
X1684897Y-11077116D01*
X1587317Y-11142317D01*
X1522116Y-11239897D01*
X1509166Y-11305000D01*
X1146458Y-11305000D01*
X1095000Y-11253542D01*
X1095000Y-4600000D01*
X3149221Y-4600000D01*
X3149221Y-7100000D01*
X3172116Y-7215103D01*
X3237317Y-7312683D01*
X3334897Y-7377884D01*
X3450000Y-7400779D01*
X3605001Y-7400779D01*
X3605001Y-7553541D01*
X3495583Y-7662959D01*
X3405000Y-7881647D01*
X3405000Y-8118353D01*
X3495583Y-8337041D01*
X3662959Y-8504417D01*
X3881647Y-8595000D01*
X4118353Y-8595000D01*
X4337041Y-8504417D01*
X4504417Y-8337041D01*
X4595000Y-8118353D01*
X4595000Y-7881647D01*
X4504417Y-7662959D01*
X4395000Y-7553542D01*
X4395000Y-7400779D01*
X4550000Y-7400779D01*
X4665103Y-7377884D01*
X4762683Y-7312683D01*
X4827884Y-7215103D01*
X4850779Y-7100000D01*
X4850779Y-4600000D01*
X4827884Y-4484897D01*
X4762683Y-4387317D01*
X4665103Y-4322116D01*
X4550000Y-4299221D01*
X3450000Y-4299221D01*
X3334897Y-4322116D01*
X3237317Y-4387317D01*
X3172116Y-4484897D01*
X3149221Y-4600000D01*
X1095000Y-4600000D01*
X1095000Y-2931919D01*
X4355000Y-2931919D01*
X4355000Y-3268081D01*
X4483643Y-3578654D01*
X4721346Y-3816357D01*
X5031919Y-3945000D01*
X5368081Y-3945000D01*
X5678654Y-3816357D01*
X5916357Y-3578654D01*
X6045000Y-3268081D01*
X6045000Y-2931919D01*
X5916357Y-2621346D01*
X5678654Y-2383643D01*
X5368081Y-2255000D01*
X5031919Y-2255000D01*
X4721346Y-2383643D01*
X4483643Y-2621346D01*
X4355000Y-2931919D01*
X1095000Y-2931919D01*
X1095000Y-2009358D01*
X1165608Y-1654384D01*
X1361384Y-1361384D01*
X1654384Y-1165608D01*
X2009358Y-1095000D01*
X12990642Y-1095000D01*
X13345616Y-1165608D01*
X13345616Y-1165608D01*
G37*
X13345616Y-1165608D02*
X13638616Y-1361384D01*
X13834392Y-1654384D01*
X13905000Y-2009358D01*
X13905000Y-8446386D01*
X12295000Y-6836386D01*
X12295000Y-4438899D01*
X12302738Y-4399999D01*
X12291973Y-4345880D01*
X12272081Y-4245879D01*
X12184779Y-4115221D01*
X12151801Y-4093186D01*
X11906816Y-3848201D01*
X11884779Y-3815221D01*
X11754121Y-3727919D01*
X11638901Y-3705000D01*
X11600000Y-3697262D01*
X11561099Y-3705000D01*
X10390011Y-3705000D01*
X10516357Y-3578654D01*
X10645000Y-3268081D01*
X10645000Y-2931919D01*
X10516357Y-2621346D01*
X10278654Y-2383643D01*
X9968081Y-2255000D01*
X9631919Y-2255000D01*
X9321346Y-2383643D01*
X9083643Y-2621346D01*
X8955000Y-2931919D01*
X8955000Y-3268081D01*
X9083643Y-3578654D01*
X9209989Y-3705000D01*
X6038899Y-3705000D01*
X5999999Y-3697262D01*
X5961099Y-3705000D01*
X5845879Y-3727919D01*
X5715221Y-3815221D01*
X5693186Y-3848199D01*
X5348200Y-4193186D01*
X5315222Y-4215221D01*
X5293187Y-4248199D01*
X5293186Y-4248200D01*
X5227919Y-4345880D01*
X5197262Y-4500000D01*
X5205001Y-4538906D01*
X5205000Y-7253542D01*
X5095583Y-7362959D01*
X5005000Y-7581647D01*
X5005000Y-7818353D01*
X5095583Y-8037041D01*
X5262959Y-8204417D01*
X5481647Y-8295000D01*
X5718353Y-8295000D01*
X5937041Y-8204417D01*
X6050000Y-8091458D01*
X6162959Y-8204417D01*
X6381647Y-8295000D01*
X6618353Y-8295000D01*
X6837041Y-8204417D01*
X7004417Y-8037041D01*
X7095000Y-7818353D01*
X7095000Y-7581647D01*
X7020082Y-7400779D01*
X7050000Y-7400779D01*
X7165103Y-7377884D01*
X7262683Y-7312683D01*
X7327884Y-7215103D01*
X7350779Y-7100000D01*
X7350779Y-4600000D01*
X7329894Y-4495000D01*
X7670106Y-4495000D01*
X7649221Y-4600000D01*
X7649221Y-7100000D01*
X7672116Y-7215103D01*
X7737317Y-7312683D01*
X7834897Y-7377884D01*
X7950000Y-7400779D01*
X7979918Y-7400779D01*
X7905000Y-7581647D01*
X7905000Y-7818353D01*
X7995583Y-8037041D01*
X8162959Y-8204417D01*
X8381647Y-8295000D01*
X8618353Y-8295000D01*
X8837041Y-8204417D01*
X9004417Y-8037041D01*
X9095000Y-7818353D01*
X9095000Y-7581647D01*
X9020082Y-7400779D01*
X9050000Y-7400779D01*
X9165103Y-7377884D01*
X9262683Y-7312683D01*
X9327884Y-7215103D01*
X9350779Y-7100000D01*
X9350779Y-4600000D01*
X9329894Y-4495000D01*
X11436386Y-4495000D01*
X11505000Y-4563615D01*
X11505001Y-6961094D01*
X11497262Y-7000000D01*
X11527919Y-7154120D01*
X11555624Y-7195583D01*
X11615222Y-7284779D01*
X11648200Y-7306814D01*
X12748245Y-8406859D01*
X12738901Y-8405000D01*
X12700000Y-8397262D01*
X12661099Y-8405000D01*
X11013614Y-8405000D01*
X10345000Y-7736386D01*
X10345000Y-7581647D01*
X10254417Y-7362959D01*
X10087041Y-7195583D01*
X9868353Y-7105000D01*
X9631647Y-7105000D01*
X9412959Y-7195583D01*
X9245583Y-7362959D01*
X9155000Y-7581647D01*
X9155000Y-7818353D01*
X9245583Y-8037041D01*
X9412959Y-8204417D01*
X9631647Y-8295000D01*
X9786386Y-8295000D01*
X10543184Y-9051798D01*
X10565221Y-9084779D01*
X10695879Y-9172081D01*
X10850000Y-9202738D01*
X10888901Y-9195000D01*
X12536386Y-9195000D01*
X13305001Y-9963615D01*
X13305000Y-26036385D01*
X12136386Y-27205000D01*
X11484053Y-27205000D01*
X11495000Y-27178571D01*
X11495000Y-26708750D01*
X11396250Y-26610000D01*
X10260000Y-26610000D01*
X10260000Y-26630000D01*
X10240000Y-26630000D01*
X10240000Y-26610000D01*
X9103750Y-26610000D01*
X9005000Y-26708750D01*
X9005000Y-27178571D01*
X9065135Y-27323750D01*
X9176251Y-27434865D01*
X9321430Y-27495000D01*
X9886386Y-27495000D01*
X9788199Y-27593186D01*
X9755222Y-27615221D01*
X9733187Y-27648199D01*
X9733186Y-27648200D01*
X9667919Y-27745880D01*
X9637262Y-27900000D01*
X9645001Y-27938905D01*
X9645001Y-28015117D01*
X9613243Y-28021434D01*
X9234502Y-28274502D01*
X8981434Y-28653243D01*
X8892569Y-29100000D01*
X8981434Y-29546757D01*
X9220806Y-29905000D01*
X5819194Y-29905000D01*
X6058566Y-29546757D01*
X6147431Y-29100000D01*
X6058566Y-28653243D01*
X5805498Y-28274502D01*
X5426757Y-28021434D01*
X5092769Y-27955000D01*
X4867231Y-27955000D01*
X4533243Y-28021434D01*
X4154502Y-28274502D01*
X3901434Y-28653243D01*
X3812569Y-29100000D01*
X3901434Y-29546757D01*
X4140806Y-29905000D01*
X3279194Y-29905000D01*
X3518566Y-29546757D01*
X3607431Y-29100000D01*
X3518566Y-28653243D01*
X3265498Y-28274502D01*
X2886757Y-28021434D01*
X2552769Y-27955000D01*
X2327231Y-27955000D01*
X1993243Y-28021434D01*
X1614502Y-28274502D01*
X1361434Y-28653243D01*
X1272569Y-29100000D01*
X1361434Y-29546757D01*
X1472359Y-29712767D01*
X1361384Y-29638616D01*
X1165608Y-29345616D01*
X1095000Y-28990642D01*
X1095000Y-26708750D01*
X2705000Y-26708750D01*
X2705000Y-27178571D01*
X2765135Y-27323750D01*
X2876251Y-27434865D01*
X3021430Y-27495000D01*
X3841250Y-27495000D01*
X3940000Y-27396250D01*
X3940000Y-26610000D01*
X3960000Y-26610000D01*
X3960000Y-27396250D01*
X4058750Y-27495000D01*
X4878570Y-27495000D01*
X5023749Y-27434865D01*
X5134865Y-27323750D01*
X5195000Y-27178571D01*
X5195000Y-26708750D01*
X5096250Y-26610000D01*
X3960000Y-26610000D01*
X3940000Y-26610000D01*
X2803750Y-26610000D01*
X2705000Y-26708750D01*
X1095000Y-26708750D01*
X1095000Y-26021429D01*
X2705000Y-26021429D01*
X2705000Y-26491250D01*
X2803750Y-26590000D01*
X3940000Y-26590000D01*
X3940000Y-25803750D01*
X3960000Y-25803750D01*
X3960000Y-26590000D01*
X5096250Y-26590000D01*
X5195000Y-26491250D01*
X5195000Y-26021429D01*
X9005000Y-26021429D01*
X9005000Y-26491250D01*
X9103750Y-26590000D01*
X10240000Y-26590000D01*
X10240000Y-25803750D01*
X10260000Y-25803750D01*
X10260000Y-26590000D01*
X11396250Y-26590000D01*
X11495000Y-26491250D01*
X11495000Y-26021429D01*
X11434865Y-25876250D01*
X11323749Y-25765135D01*
X11178570Y-25705000D01*
X10358750Y-25705000D01*
X10260000Y-25803750D01*
X10240000Y-25803750D01*
X10141250Y-25705000D01*
X9321430Y-25705000D01*
X9176251Y-25765135D01*
X9065135Y-25876250D01*
X9005000Y-26021429D01*
X5195000Y-26021429D01*
X5134865Y-25876250D01*
X5023749Y-25765135D01*
X4878570Y-25705000D01*
X4058750Y-25705000D01*
X3960000Y-25803750D01*
X3940000Y-25803750D01*
X3841250Y-25705000D01*
X3021430Y-25705000D01*
X2876251Y-25765135D01*
X2765135Y-25876250D01*
X2705000Y-26021429D01*
X1095000Y-26021429D01*
X1095000Y-23796250D01*
X1130000Y-23796250D01*
X1130000Y-24203570D01*
X1190135Y-24348749D01*
X1301250Y-24459865D01*
X1446429Y-24520000D01*
X1891250Y-24520000D01*
X1990000Y-24421250D01*
X1990000Y-23697500D01*
X2010000Y-23697500D01*
X2010000Y-24421250D01*
X2108750Y-24520000D01*
X2553571Y-24520000D01*
X2698750Y-24459865D01*
X2809865Y-24348749D01*
X2870000Y-24203570D01*
X2870000Y-23796250D01*
X11430000Y-23796250D01*
X11430000Y-24203570D01*
X11490135Y-24348749D01*
X11601250Y-24459865D01*
X11746429Y-24520000D01*
X12191250Y-24520000D01*
X12290000Y-24421250D01*
X12290000Y-23697500D01*
X12310000Y-23697500D01*
X12310000Y-24421250D01*
X12408750Y-24520000D01*
X12853571Y-24520000D01*
X12998750Y-24459865D01*
X13109865Y-24348749D01*
X13170000Y-24203570D01*
X13170000Y-23796250D01*
X13071250Y-23697500D01*
X12310000Y-23697500D01*
X12290000Y-23697500D01*
X11528750Y-23697500D01*
X11430000Y-23796250D01*
X2870000Y-23796250D01*
X2771250Y-23697500D01*
X2010000Y-23697500D01*
X1990000Y-23697500D01*
X1228750Y-23697500D01*
X1130000Y-23796250D01*
X1095000Y-23796250D01*
X1095000Y-23171430D01*
X1130000Y-23171430D01*
X1130000Y-23578750D01*
X1228750Y-23677500D01*
X1990000Y-23677500D01*
X1990000Y-22953750D01*
X1891250Y-22855000D01*
X1446429Y-22855000D01*
X1301250Y-22915135D01*
X1190135Y-23026251D01*
X1130000Y-23171430D01*
X1095000Y-23171430D01*
X1095000Y-21893750D01*
X1224221Y-21893750D01*
X1224221Y-22331250D01*
X1263768Y-22530065D01*
X1376388Y-22698612D01*
X1544935Y-22811232D01*
X1743750Y-22850779D01*
X2179665Y-22850779D01*
X2183886Y-22855000D01*
X2108750Y-22855000D01*
X2010000Y-22953750D01*
X2010000Y-23677500D01*
X2771250Y-23677500D01*
X2870000Y-23578750D01*
X2870000Y-23486766D01*
X2887317Y-23512683D01*
X2984897Y-23577884D01*
X3100000Y-23600779D01*
X4800000Y-23600779D01*
X4915103Y-23577884D01*
X5012683Y-23512683D01*
X5077884Y-23415103D01*
X5100779Y-23300000D01*
X5100779Y-22300000D01*
X9099221Y-22300000D01*
X9099221Y-23300000D01*
X9122116Y-23415103D01*
X9187317Y-23512683D01*
X9284897Y-23577884D01*
X9400000Y-23600779D01*
X11100000Y-23600779D01*
X11215103Y-23577884D01*
X11312683Y-23512683D01*
X11377884Y-23415103D01*
X11400779Y-23300000D01*
X11400779Y-23171430D01*
X11430000Y-23171430D01*
X11430000Y-23578750D01*
X11528750Y-23677500D01*
X12290000Y-23677500D01*
X12290000Y-22953750D01*
X12310000Y-22953750D01*
X12310000Y-23677500D01*
X13071250Y-23677500D01*
X13170000Y-23578750D01*
X13170000Y-23171430D01*
X13109865Y-23026251D01*
X12998750Y-22915135D01*
X12853571Y-22855000D01*
X12408750Y-22855000D01*
X12310000Y-22953750D01*
X12290000Y-22953750D01*
X12191250Y-22855000D01*
X11746429Y-22855000D01*
X11601250Y-22915135D01*
X11490135Y-23026251D01*
X11430000Y-23171430D01*
X11400779Y-23171430D01*
X11400779Y-22300000D01*
X11377884Y-22184897D01*
X11312683Y-22087317D01*
X11215103Y-22022116D01*
X11100000Y-21999221D01*
X9400000Y-21999221D01*
X9284897Y-22022116D01*
X9187317Y-22087317D01*
X9122116Y-22184897D01*
X9099221Y-22300000D01*
X5100779Y-22300000D01*
X5077884Y-22184897D01*
X5012683Y-22087317D01*
X4915103Y-22022116D01*
X4800000Y-21999221D01*
X4645000Y-21999221D01*
X4645000Y-20771831D01*
X4687041Y-20754417D01*
X4854417Y-20587041D01*
X4945000Y-20368353D01*
X4945000Y-20181647D01*
X7655000Y-20181647D01*
X7655000Y-20418353D01*
X7745583Y-20637041D01*
X7912959Y-20804417D01*
X8131647Y-20895000D01*
X8368353Y-20895000D01*
X8587041Y-20804417D01*
X8754417Y-20637041D01*
X8845000Y-20418353D01*
X8845000Y-20181647D01*
X8803579Y-20081647D01*
X9405000Y-20081647D01*
X9405000Y-20318353D01*
X9495583Y-20537041D01*
X9662959Y-20704417D01*
X9881647Y-20795000D01*
X10030518Y-20795000D01*
X10145879Y-20872081D01*
X10261099Y-20895000D01*
X10299999Y-20902738D01*
X10338899Y-20895000D01*
X10809166Y-20895000D01*
X10822116Y-20960103D01*
X10887317Y-21057683D01*
X10984897Y-21122884D01*
X11100000Y-21145779D01*
X11905001Y-21145779D01*
X11905000Y-21401820D01*
X11844935Y-21413768D01*
X11676388Y-21526388D01*
X11563768Y-21694935D01*
X11524221Y-21893750D01*
X11524221Y-22331250D01*
X11563768Y-22530065D01*
X11676388Y-22698612D01*
X11844935Y-22811232D01*
X12043750Y-22850779D01*
X12556250Y-22850779D01*
X12755065Y-22811232D01*
X12923612Y-22698612D01*
X13036232Y-22530065D01*
X13075779Y-22331250D01*
X13075779Y-21893750D01*
X13036232Y-21694935D01*
X12923612Y-21526388D01*
X12755065Y-21413768D01*
X12695000Y-21401820D01*
X12695000Y-21126883D01*
X12715103Y-21122884D01*
X12812683Y-21057683D01*
X12877884Y-20960103D01*
X12900779Y-20845000D01*
X12900779Y-20245000D01*
X12877884Y-20129897D01*
X12812683Y-20032317D01*
X12715103Y-19967116D01*
X12600000Y-19944221D01*
X12245000Y-19944221D01*
X12245000Y-19875779D01*
X12600000Y-19875779D01*
X12715103Y-19852884D01*
X12812683Y-19787683D01*
X12877884Y-19690103D01*
X12900779Y-19575000D01*
X12900779Y-18975000D01*
X12877884Y-18859897D01*
X12812683Y-18762317D01*
X12715103Y-18697116D01*
X12600000Y-18674221D01*
X11100000Y-18674221D01*
X10984897Y-18697116D01*
X10887317Y-18762317D01*
X10822116Y-18859897D01*
X10799221Y-18975000D01*
X10799221Y-19575000D01*
X10822116Y-19690103D01*
X10887317Y-19787683D01*
X10984897Y-19852884D01*
X11100000Y-19875779D01*
X11455001Y-19875779D01*
X11455000Y-19944221D01*
X11100000Y-19944221D01*
X10984897Y-19967116D01*
X10887317Y-20032317D01*
X10838752Y-20105000D01*
X10595000Y-20105000D01*
X10595000Y-20081647D01*
X10504417Y-19862959D01*
X10337041Y-19695583D01*
X10118353Y-19605000D01*
X9881647Y-19605000D01*
X9662959Y-19695583D01*
X9495583Y-19862959D01*
X9405000Y-20081647D01*
X8803579Y-20081647D01*
X8754417Y-19962959D01*
X8645000Y-19853542D01*
X8645000Y-19413614D01*
X9658614Y-18400000D01*
X10818117Y-18400000D01*
X10822116Y-18420103D01*
X10887317Y-18517683D01*
X10984897Y-18582884D01*
X11100000Y-18605779D01*
X12600000Y-18605779D01*
X12715103Y-18582884D01*
X12812683Y-18517683D01*
X12877884Y-18420103D01*
X12900779Y-18305000D01*
X12900779Y-17705000D01*
X12877884Y-17589897D01*
X12812683Y-17492317D01*
X12715103Y-17427116D01*
X12600000Y-17404221D01*
X11100000Y-17404221D01*
X10984897Y-17427116D01*
X10887317Y-17492317D01*
X10822116Y-17589897D01*
X10818117Y-17610000D01*
X9533901Y-17610000D01*
X9495000Y-17602262D01*
X9456099Y-17610000D01*
X9340879Y-17632919D01*
X9210221Y-17720221D01*
X9188184Y-17753202D01*
X7998200Y-18943186D01*
X7965222Y-18965221D01*
X7943187Y-18998199D01*
X7943186Y-18998200D01*
X7877919Y-19095880D01*
X7847262Y-19250000D01*
X7855001Y-19288905D01*
X7855000Y-19853542D01*
X7745583Y-19962959D01*
X7655000Y-20181647D01*
X4945000Y-20181647D01*
X4945000Y-20131647D01*
X4854417Y-19912959D01*
X4687041Y-19745583D01*
X4468353Y-19655000D01*
X4231647Y-19655000D01*
X4012959Y-19745583D01*
X3845583Y-19912959D01*
X3755000Y-20131647D01*
X3755000Y-20368353D01*
X3845583Y-20587041D01*
X3855000Y-20596458D01*
X3855001Y-21999221D01*
X3100000Y-21999221D01*
X2984897Y-22022116D01*
X2887317Y-22087317D01*
X2822116Y-22184897D01*
X2799221Y-22300000D01*
X2799221Y-22353107D01*
X2775779Y-22329665D01*
X2775779Y-21893750D01*
X2736232Y-21694935D01*
X2623612Y-21526388D01*
X2455065Y-21413768D01*
X2256250Y-21374221D01*
X1743750Y-21374221D01*
X1544935Y-21413768D01*
X1376388Y-21526388D01*
X1263768Y-21694935D01*
X1224221Y-21893750D01*
X1095000Y-21893750D01*
X1095000Y-21059110D01*
X1181647Y-21095000D01*
X1418353Y-21095000D01*
X1570220Y-21032095D01*
X1587317Y-21057683D01*
X1684897Y-21122884D01*
X1800000Y-21145779D01*
X3300000Y-21145779D01*
X3415103Y-21122884D01*
X3512683Y-21057683D01*
X3577884Y-20960103D01*
X3600779Y-20845000D01*
X3600779Y-20245000D01*
X3577884Y-20129897D01*
X3512683Y-20032317D01*
X3415103Y-19967116D01*
X3300000Y-19944221D01*
X1800000Y-19944221D01*
X1684897Y-19967116D01*
X1639145Y-19997687D01*
X1637041Y-19995583D01*
X1418353Y-19905000D01*
X1181647Y-19905000D01*
X1095000Y-19940890D01*
X1095000Y-17705000D01*
X1499221Y-17705000D01*
X1499221Y-18305000D01*
X1522116Y-18420103D01*
X1587317Y-18517683D01*
X1684897Y-18582884D01*
X1800000Y-18605779D01*
X3300000Y-18605779D01*
X3415103Y-18582884D01*
X3512683Y-18517683D01*
X3577884Y-18420103D01*
X3578010Y-18419468D01*
X3605001Y-18446459D01*
X3605000Y-18636385D01*
X3492533Y-18748853D01*
X3415103Y-18697116D01*
X3300000Y-18674221D01*
X1800000Y-18674221D01*
X1684897Y-18697116D01*
X1587317Y-18762317D01*
X1522116Y-18859897D01*
X1499221Y-18975000D01*
X1499221Y-19575000D01*
X1522116Y-19690103D01*
X1587317Y-19787683D01*
X1684897Y-19852884D01*
X1800000Y-19875779D01*
X3300000Y-19875779D01*
X3415103Y-19852884D01*
X3512683Y-19787683D01*
X3577884Y-19690103D01*
X3582623Y-19666276D01*
X3679121Y-19647081D01*
X3809779Y-19559779D01*
X3831816Y-19526798D01*
X4251801Y-19106814D01*
X4284779Y-19084779D01*
X4372081Y-18954121D01*
X4395000Y-18838901D01*
X4395000Y-18838900D01*
X4402738Y-18800001D01*
X4395000Y-18761101D01*
X4395000Y-18446458D01*
X4504417Y-18337041D01*
X4595000Y-18118353D01*
X4595000Y-17881647D01*
X4504417Y-17662959D01*
X4337041Y-17495583D01*
X4118353Y-17405000D01*
X3881647Y-17405000D01*
X3662959Y-17495583D01*
X3574183Y-17584359D01*
X3512683Y-17492317D01*
X3415103Y-17427116D01*
X3300000Y-17404221D01*
X1800000Y-17404221D01*
X1684897Y-17427116D01*
X1587317Y-17492317D01*
X1522116Y-17589897D01*
X1499221Y-17705000D01*
X1095000Y-17705000D01*
X1095000Y-16435000D01*
X1499221Y-16435000D01*
X1499221Y-17035000D01*
X1522116Y-17150103D01*
X1587317Y-17247683D01*
X1684897Y-17312884D01*
X1800000Y-17335779D01*
X3300000Y-17335779D01*
X3415103Y-17312884D01*
X3512683Y-17247683D01*
X3577884Y-17150103D01*
X3600779Y-17035000D01*
X3600779Y-16435000D01*
X10799221Y-16435000D01*
X10799221Y-17035000D01*
X10822116Y-17150103D01*
X10887317Y-17247683D01*
X10984897Y-17312884D01*
X11100000Y-17335779D01*
X12600000Y-17335779D01*
X12715103Y-17312884D01*
X12812683Y-17247683D01*
X12877884Y-17150103D01*
X12900779Y-17035000D01*
X12900779Y-16435000D01*
X12877884Y-16319897D01*
X12812683Y-16222317D01*
X12715103Y-16157116D01*
X12600000Y-16134221D01*
X11100000Y-16134221D01*
X10984897Y-16157116D01*
X10887317Y-16222317D01*
X10822116Y-16319897D01*
X10799221Y-16435000D01*
X3600779Y-16435000D01*
X3577884Y-16319897D01*
X3512683Y-16222317D01*
X3415103Y-16157116D01*
X3300000Y-16134221D01*
X1800000Y-16134221D01*
X1684897Y-16157116D01*
X1587317Y-16222317D01*
X1522116Y-16319897D01*
X1499221Y-16435000D01*
X1095000Y-16435000D01*
X1095000Y-15359110D01*
X1181647Y-15395000D01*
X1418353Y-15395000D01*
X1499221Y-15361504D01*
X1499221Y-15765000D01*
X1522116Y-15880103D01*
X1587317Y-15977683D01*
X1684897Y-16042884D01*
X1800000Y-16065779D01*
X3300000Y-16065779D01*
X3415103Y-16042884D01*
X3512683Y-15977683D01*
X3577884Y-15880103D01*
X3600779Y-15765000D01*
X3600779Y-15181647D01*
X9105000Y-15181647D01*
X9105000Y-15418353D01*
X9195583Y-15637041D01*
X9362959Y-15804417D01*
X9581647Y-15895000D01*
X9818353Y-15895000D01*
X10037041Y-15804417D01*
X10204417Y-15637041D01*
X10295000Y-15418353D01*
X10295000Y-15269480D01*
X10306813Y-15251801D01*
X10364811Y-15165000D01*
X10799221Y-15165000D01*
X10799221Y-15765000D01*
X10822116Y-15880103D01*
X10887317Y-15977683D01*
X10984897Y-16042884D01*
X11100000Y-16065779D01*
X12600000Y-16065779D01*
X12715103Y-16042884D01*
X12812683Y-15977683D01*
X12877884Y-15880103D01*
X12900779Y-15765000D01*
X12900779Y-15165000D01*
X12877884Y-15049897D01*
X12812683Y-14952317D01*
X12715103Y-14887116D01*
X12600000Y-14864221D01*
X11100000Y-14864221D01*
X10984897Y-14887116D01*
X10887317Y-14952317D01*
X10822116Y-15049897D01*
X10799221Y-15165000D01*
X10364811Y-15165000D01*
X10372080Y-15154122D01*
X10402737Y-15000001D01*
X10394998Y-14961096D01*
X10394999Y-13895000D01*
X10799221Y-13895000D01*
X10799221Y-14495000D01*
X10822116Y-14610103D01*
X10887317Y-14707683D01*
X10984897Y-14772884D01*
X11100000Y-14795779D01*
X12600000Y-14795779D01*
X12715103Y-14772884D01*
X12812683Y-14707683D01*
X12877884Y-14610103D01*
X12900779Y-14495000D01*
X12900779Y-13895000D01*
X12877884Y-13779897D01*
X12812683Y-13682317D01*
X12715103Y-13617116D01*
X12600000Y-13594221D01*
X11100000Y-13594221D01*
X10984897Y-13617116D01*
X10887317Y-13682317D01*
X10822116Y-13779897D01*
X10799221Y-13895000D01*
X10394999Y-13895000D01*
X10395000Y-13863614D01*
X10860726Y-13397888D01*
X10887317Y-13437683D01*
X10984897Y-13502884D01*
X11100000Y-13525779D01*
X12600000Y-13525779D01*
X12715103Y-13502884D01*
X12812683Y-13437683D01*
X12877884Y-13340103D01*
X12900779Y-13225000D01*
X12900779Y-12625000D01*
X12877884Y-12509897D01*
X12812683Y-12412317D01*
X12715103Y-12347116D01*
X12600000Y-12324221D01*
X11100000Y-12324221D01*
X10984897Y-12347116D01*
X10887317Y-12412317D01*
X10822116Y-12509897D01*
X10818117Y-12530000D01*
X10813901Y-12530000D01*
X10775000Y-12522262D01*
X10736099Y-12530000D01*
X10620879Y-12552919D01*
X10490221Y-12640221D01*
X10468184Y-12673202D01*
X9748200Y-13393186D01*
X9715222Y-13415221D01*
X9693187Y-13448199D01*
X9693186Y-13448200D01*
X9627919Y-13545880D01*
X9597262Y-13700000D01*
X9605001Y-13738905D01*
X9604999Y-14705000D01*
X9581647Y-14705000D01*
X9362959Y-14795583D01*
X9195583Y-14962959D01*
X9105000Y-15181647D01*
X3600779Y-15181647D01*
X3600779Y-15165000D01*
X3577884Y-15049897D01*
X3512683Y-14952317D01*
X3415103Y-14887116D01*
X3300000Y-14864221D01*
X1895000Y-14864221D01*
X1895000Y-14795779D01*
X3300000Y-14795779D01*
X3415103Y-14772884D01*
X3512683Y-14707683D01*
X3577884Y-14610103D01*
X3600779Y-14495000D01*
X3600779Y-13895000D01*
X3577884Y-13779897D01*
X3512683Y-13682317D01*
X3415103Y-13617116D01*
X3395126Y-13613142D01*
X3523749Y-13559865D01*
X3634865Y-13448750D01*
X3695000Y-13303571D01*
X3695000Y-13033750D01*
X3596250Y-12935000D01*
X2560000Y-12935000D01*
X2560000Y-12955000D01*
X2540000Y-12955000D01*
X2540000Y-12935000D01*
X2520000Y-12935000D01*
X2520000Y-12915000D01*
X2540000Y-12915000D01*
X2540000Y-12895000D01*
X2560000Y-12895000D01*
X2560000Y-12915000D01*
X3596250Y-12915000D01*
X3695000Y-12816250D01*
X3695000Y-12695000D01*
X10061099Y-12695000D01*
X10100000Y-12702738D01*
X10138901Y-12695000D01*
X10254121Y-12672081D01*
X10384779Y-12584779D01*
X10406816Y-12551798D01*
X10848710Y-12109904D01*
X10887317Y-12167683D01*
X10984897Y-12232884D01*
X11100000Y-12255779D01*
X12600000Y-12255779D01*
X12715103Y-12232884D01*
X12812683Y-12167683D01*
X12877884Y-12070103D01*
X12900779Y-11955000D01*
X12900779Y-11355000D01*
X12877884Y-11239897D01*
X12812683Y-11142317D01*
X12715103Y-11077116D01*
X12600000Y-11054221D01*
X11100000Y-11054221D01*
X10984897Y-11077116D01*
X10887317Y-11142317D01*
X10822116Y-11239897D01*
X10818117Y-11260000D01*
X10783901Y-11260000D01*
X10745000Y-11252262D01*
X10706099Y-11260000D01*
X10590879Y-11282919D01*
X10460221Y-11370221D01*
X10438184Y-11403202D01*
X9936386Y-11905000D01*
X3600779Y-11905000D01*
X3600779Y-11355000D01*
X3577884Y-11239897D01*
X3512683Y-11142317D01*
X3415103Y-11077116D01*
X3300000Y-11054221D01*
X1800000Y-11054221D01*
X1684897Y-11077116D01*
X1587317Y-11142317D01*
X1522116Y-11239897D01*
X1509166Y-11305000D01*
X1146458Y-11305000D01*
X1095000Y-11253542D01*
X1095000Y-4600000D01*
X3149221Y-4600000D01*
X3149221Y-7100000D01*
X3172116Y-7215103D01*
X3237317Y-7312683D01*
X3334897Y-7377884D01*
X3450000Y-7400779D01*
X3605001Y-7400779D01*
X3605001Y-7553541D01*
X3495583Y-7662959D01*
X3405000Y-7881647D01*
X3405000Y-8118353D01*
X3495583Y-8337041D01*
X3662959Y-8504417D01*
X3881647Y-8595000D01*
X4118353Y-8595000D01*
X4337041Y-8504417D01*
X4504417Y-8337041D01*
X4595000Y-8118353D01*
X4595000Y-7881647D01*
X4504417Y-7662959D01*
X4395000Y-7553542D01*
X4395000Y-7400779D01*
X4550000Y-7400779D01*
X4665103Y-7377884D01*
X4762683Y-7312683D01*
X4827884Y-7215103D01*
X4850779Y-7100000D01*
X4850779Y-4600000D01*
X4827884Y-4484897D01*
X4762683Y-4387317D01*
X4665103Y-4322116D01*
X4550000Y-4299221D01*
X3450000Y-4299221D01*
X3334897Y-4322116D01*
X3237317Y-4387317D01*
X3172116Y-4484897D01*
X3149221Y-4600000D01*
X1095000Y-4600000D01*
X1095000Y-2931919D01*
X4355000Y-2931919D01*
X4355000Y-3268081D01*
X4483643Y-3578654D01*
X4721346Y-3816357D01*
X5031919Y-3945000D01*
X5368081Y-3945000D01*
X5678654Y-3816357D01*
X5916357Y-3578654D01*
X6045000Y-3268081D01*
X6045000Y-2931919D01*
X5916357Y-2621346D01*
X5678654Y-2383643D01*
X5368081Y-2255000D01*
X5031919Y-2255000D01*
X4721346Y-2383643D01*
X4483643Y-2621346D01*
X4355000Y-2931919D01*
X1095000Y-2931919D01*
X1095000Y-2009358D01*
X1165608Y-1654384D01*
X1361384Y-1361384D01*
X1654384Y-1165608D01*
X2009358Y-1095000D01*
X12990642Y-1095000D01*
X13345616Y-1165608D01*
G04 #@! TD*
M02*
