M48
;DRILL file {KiCad 5.0.2+dfsg1-1} date Fri 22 Feb 2019 03:29:24 PM MSK
;FORMAT={-:-/ absolute / metric / decimal}
FMAT,2
METRIC,TZ
T1C0.400
T2C0.900
T3C1.000
%
G90
G05
T1
X0.7Y-11.7
X1.3Y-14.8
X1.3Y-20.5
X2.6Y-10.2
X3.7Y-24.3
X4.Y-8.
X4.Y-15.3
X4.Y-18.
X4.2Y-20.4
X5.6Y-7.7
X6.3Y-20.3
X6.5Y-7.7
X8.25Y-20.3
X8.5Y-7.7
X9.4Y-7.7
X10.Y-15.1
X10.Y-19.4
X10.Y-20.2
X11.Y-8.
X11.8Y-10.2
X13.Y-24.7
T3
X2.44Y-29.1
X4.98Y-29.1
X7.52Y-29.1
X10.06Y-29.1
X12.6Y-29.1
T2
X1.8Y-3.9G85X1.8Y-2.3
G05
X13.2Y-3.9G85X13.2Y-2.3
G05
T0
M30
