G04 #@! TF.GenerationSoftware,KiCad,Pcbnew,5.0.2+dfsg1-1*
G04 #@! TF.CreationDate,2019-07-06T15:38:30+03:00*
G04 #@! TF.ProjectId,PocketAdmin_Panel,506f636b-6574-4416-946d-696e5f50616e,1.2*
G04 #@! TF.SameCoordinates,PX3938700PY1c9c380*
G04 #@! TF.FileFunction,Profile,NP*
%FSLAX46Y46*%
G04 Gerber Fmt 4.6, Leading zero omitted, Abs format (unit mm)*
G04 Created by KiCad (PCBNEW 5.0.2+dfsg1-1) date Sat 06 Jul 2019 03:38:30 PM MSK*
%MOMM*%
%LPD*%
G01*
G04 APERTURE LIST*
%ADD10C,0.150000*%
%ADD11C,0.200000*%
G04 APERTURE END LIST*
D10*
X286500000Y-192200000D02*
G75*
G02X286500000Y-194600000I0J-1200000D01*
G01*
X260500000Y-192200000D02*
G75*
G02X260500000Y-194600000I0J-1200000D01*
G01*
X234500000Y-192200000D02*
G75*
G02X234500000Y-194600000I0J-1200000D01*
G01*
X208500000Y-192200000D02*
G75*
G02X208500000Y-194600000I0J-1200000D01*
G01*
X182500000Y-192200000D02*
G75*
G02X182500000Y-194600000I0J-1200000D01*
G01*
X156500000Y-192200000D02*
G75*
G02X156500000Y-194600000I0J-1200000D01*
G01*
X130500000Y-192200000D02*
G75*
G02X130500000Y-194600000I0J-1200000D01*
G01*
X104500000Y-192200000D02*
G75*
G02X104500000Y-194600000I0J-1200000D01*
G01*
X78500000Y-192200000D02*
G75*
G02X78500000Y-194600000I0J-1200000D01*
G01*
X52500000Y-192200000D02*
G75*
G02X52500000Y-194600000I0J-1200000D01*
G01*
X26500000Y-192200000D02*
G75*
G02X26500000Y-194600000I0J-1200000D01*
G01*
X286500000Y-144400000D02*
G75*
G02X286500000Y-146800000I0J-1200000D01*
G01*
X260500000Y-144400000D02*
G75*
G02X260500000Y-146800000I0J-1200000D01*
G01*
X234500000Y-144400000D02*
G75*
G02X234500000Y-146800000I0J-1200000D01*
G01*
X208500000Y-144400000D02*
G75*
G02X208500000Y-146800000I0J-1200000D01*
G01*
X182500000Y-144400000D02*
G75*
G02X182500000Y-146800000I0J-1200000D01*
G01*
X156500000Y-144400000D02*
G75*
G02X156500000Y-146800000I0J-1200000D01*
G01*
X130500000Y-144400000D02*
G75*
G02X130500000Y-146800000I0J-1200000D01*
G01*
X104500000Y-144400000D02*
G75*
G02X104500000Y-146800000I0J-1200000D01*
G01*
X78500000Y-144400000D02*
G75*
G02X78500000Y-146800000I0J-1200000D01*
G01*
X52500000Y-144400000D02*
G75*
G02X52500000Y-146800000I0J-1200000D01*
G01*
X26500000Y-144400000D02*
G75*
G02X26500000Y-146800000I0J-1200000D01*
G01*
X286500000Y-96600000D02*
G75*
G02X286500000Y-99000000I0J-1200000D01*
G01*
X260500000Y-96600000D02*
G75*
G02X260500000Y-99000000I0J-1200000D01*
G01*
X234500000Y-96600000D02*
G75*
G02X234500000Y-99000000I0J-1200000D01*
G01*
X208500000Y-96600000D02*
G75*
G02X208500000Y-99000000I0J-1200000D01*
G01*
X182500000Y-96600000D02*
G75*
G02X182500000Y-99000000I0J-1200000D01*
G01*
X156500000Y-96600000D02*
G75*
G02X156500000Y-99000000I0J-1200000D01*
G01*
X130500000Y-96600000D02*
G75*
G02X130500000Y-99000000I0J-1200000D01*
G01*
X104500000Y-96600000D02*
G75*
G02X104500000Y-99000000I0J-1200000D01*
G01*
X78500000Y-96600000D02*
G75*
G02X78500000Y-99000000I0J-1200000D01*
G01*
X52500000Y-96600000D02*
G75*
G02X52500000Y-99000000I0J-1200000D01*
G01*
X26500000Y-96600000D02*
G75*
G02X26500000Y-99000000I0J-1200000D01*
G01*
X286500000Y-48800000D02*
G75*
G02X286500000Y-51200000I0J-1200000D01*
G01*
X260500000Y-48800000D02*
G75*
G02X260500000Y-51200000I0J-1200000D01*
G01*
X234500000Y-48800000D02*
G75*
G02X234500000Y-51200000I0J-1200000D01*
G01*
X208500000Y-48800000D02*
G75*
G02X208500000Y-51200000I0J-1200000D01*
G01*
X182500000Y-48800000D02*
G75*
G02X182500000Y-51200000I0J-1200000D01*
G01*
X156500000Y-48800000D02*
G75*
G02X156500000Y-51200000I0J-1200000D01*
G01*
X130500000Y-48800000D02*
G75*
G02X130500000Y-51200000I0J-1200000D01*
G01*
X104500000Y-48800000D02*
G75*
G02X104500000Y-51200000I0J-1200000D01*
G01*
X78500000Y-48800000D02*
G75*
G02X78500000Y-51200000I0J-1200000D01*
G01*
X52500000Y-48800000D02*
G75*
G02X52500000Y-51200000I0J-1200000D01*
G01*
X273500000Y-194600000D02*
X286500000Y-194600000D01*
X247500000Y-194600000D02*
X260500000Y-194600000D01*
X221500000Y-194600000D02*
X234500000Y-194600000D01*
X195500000Y-194600000D02*
X208500000Y-194600000D01*
X169500000Y-194600000D02*
X182500000Y-194600000D01*
X143500000Y-194600000D02*
X156500000Y-194600000D01*
X117500000Y-194600000D02*
X130500000Y-194600000D01*
X91500000Y-194600000D02*
X104500000Y-194600000D01*
X65500000Y-194600000D02*
X78500000Y-194600000D01*
X39500000Y-194600000D02*
X52500000Y-194600000D01*
X13500000Y-194600000D02*
X26500000Y-194600000D01*
X273500000Y-146800000D02*
X286500000Y-146800000D01*
X247500000Y-146800000D02*
X260500000Y-146800000D01*
X221500000Y-146800000D02*
X234500000Y-146800000D01*
X195500000Y-146800000D02*
X208500000Y-146800000D01*
X169500000Y-146800000D02*
X182500000Y-146800000D01*
X143500000Y-146800000D02*
X156500000Y-146800000D01*
X117500000Y-146800000D02*
X130500000Y-146800000D01*
X91500000Y-146800000D02*
X104500000Y-146800000D01*
X65500000Y-146800000D02*
X78500000Y-146800000D01*
X39500000Y-146800000D02*
X52500000Y-146800000D01*
X13500000Y-146800000D02*
X26500000Y-146800000D01*
X273500000Y-99000000D02*
X286500000Y-99000000D01*
X247500000Y-99000000D02*
X260500000Y-99000000D01*
X221500000Y-99000000D02*
X234500000Y-99000000D01*
X195500000Y-99000000D02*
X208500000Y-99000000D01*
X169500000Y-99000000D02*
X182500000Y-99000000D01*
X143500000Y-99000000D02*
X156500000Y-99000000D01*
X117500000Y-99000000D02*
X130500000Y-99000000D01*
X91500000Y-99000000D02*
X104500000Y-99000000D01*
X65500000Y-99000000D02*
X78500000Y-99000000D01*
X39500000Y-99000000D02*
X52500000Y-99000000D01*
X13500000Y-99000000D02*
X26500000Y-99000000D01*
X273500000Y-51200000D02*
X286500000Y-51200000D01*
X247500000Y-51200000D02*
X260500000Y-51200000D01*
X221500000Y-51200000D02*
X234500000Y-51200000D01*
X195500000Y-51200000D02*
X208500000Y-51200000D01*
X169500000Y-51200000D02*
X182500000Y-51200000D01*
X143500000Y-51200000D02*
X156500000Y-51200000D01*
X117500000Y-51200000D02*
X130500000Y-51200000D01*
X91500000Y-51200000D02*
X104500000Y-51200000D01*
X65500000Y-51200000D02*
X78500000Y-51200000D01*
X39500000Y-51200000D02*
X52500000Y-51200000D01*
X289900000Y-191200000D02*
G75*
G02X287500000Y-191200000I-1200000J0D01*
G01*
X263900000Y-191200000D02*
G75*
G02X261500000Y-191200000I-1200000J0D01*
G01*
X237900000Y-191200000D02*
G75*
G02X235500000Y-191200000I-1200000J0D01*
G01*
X211900000Y-191200000D02*
G75*
G02X209500000Y-191200000I-1200000J0D01*
G01*
X185900000Y-191200000D02*
G75*
G02X183500000Y-191200000I-1200000J0D01*
G01*
X159900000Y-191200000D02*
G75*
G02X157500000Y-191200000I-1200000J0D01*
G01*
X133900000Y-191200000D02*
G75*
G02X131500000Y-191200000I-1200000J0D01*
G01*
X107900000Y-191200000D02*
G75*
G02X105500000Y-191200000I-1200000J0D01*
G01*
X81900000Y-191200000D02*
G75*
G02X79500000Y-191200000I-1200000J0D01*
G01*
X55900000Y-191200000D02*
G75*
G02X53500000Y-191200000I-1200000J0D01*
G01*
X29900000Y-191200000D02*
G75*
G02X27500000Y-191200000I-1200000J0D01*
G01*
X289900000Y-143400000D02*
G75*
G02X287500000Y-143400000I-1200000J0D01*
G01*
X263900000Y-143400000D02*
G75*
G02X261500000Y-143400000I-1200000J0D01*
G01*
X237900000Y-143400000D02*
G75*
G02X235500000Y-143400000I-1200000J0D01*
G01*
X211900000Y-143400000D02*
G75*
G02X209500000Y-143400000I-1200000J0D01*
G01*
X185900000Y-143400000D02*
G75*
G02X183500000Y-143400000I-1200000J0D01*
G01*
X159900000Y-143400000D02*
G75*
G02X157500000Y-143400000I-1200000J0D01*
G01*
X133900000Y-143400000D02*
G75*
G02X131500000Y-143400000I-1200000J0D01*
G01*
X107900000Y-143400000D02*
G75*
G02X105500000Y-143400000I-1200000J0D01*
G01*
X81900000Y-143400000D02*
G75*
G02X79500000Y-143400000I-1200000J0D01*
G01*
X55900000Y-143400000D02*
G75*
G02X53500000Y-143400000I-1200000J0D01*
G01*
X29900000Y-143400000D02*
G75*
G02X27500000Y-143400000I-1200000J0D01*
G01*
X289900000Y-95600000D02*
G75*
G02X287500000Y-95600000I-1200000J0D01*
G01*
X263900000Y-95600000D02*
G75*
G02X261500000Y-95600000I-1200000J0D01*
G01*
X237900000Y-95600000D02*
G75*
G02X235500000Y-95600000I-1200000J0D01*
G01*
X211900000Y-95600000D02*
G75*
G02X209500000Y-95600000I-1200000J0D01*
G01*
X185900000Y-95600000D02*
G75*
G02X183500000Y-95600000I-1200000J0D01*
G01*
X159900000Y-95600000D02*
G75*
G02X157500000Y-95600000I-1200000J0D01*
G01*
X133900000Y-95600000D02*
G75*
G02X131500000Y-95600000I-1200000J0D01*
G01*
X107900000Y-95600000D02*
G75*
G02X105500000Y-95600000I-1200000J0D01*
G01*
X81900000Y-95600000D02*
G75*
G02X79500000Y-95600000I-1200000J0D01*
G01*
X55900000Y-95600000D02*
G75*
G02X53500000Y-95600000I-1200000J0D01*
G01*
X29900000Y-95600000D02*
G75*
G02X27500000Y-95600000I-1200000J0D01*
G01*
X289900000Y-47800000D02*
G75*
G02X287500000Y-47800000I-1200000J0D01*
G01*
X263900000Y-47800000D02*
G75*
G02X261500000Y-47800000I-1200000J0D01*
G01*
X237900000Y-47800000D02*
G75*
G02X235500000Y-47800000I-1200000J0D01*
G01*
X211900000Y-47800000D02*
G75*
G02X209500000Y-47800000I-1200000J0D01*
G01*
X185900000Y-47800000D02*
G75*
G02X183500000Y-47800000I-1200000J0D01*
G01*
X159900000Y-47800000D02*
G75*
G02X157500000Y-47800000I-1200000J0D01*
G01*
X133900000Y-47800000D02*
G75*
G02X131500000Y-47800000I-1200000J0D01*
G01*
X107900000Y-47800000D02*
G75*
G02X105500000Y-47800000I-1200000J0D01*
G01*
X81900000Y-47800000D02*
G75*
G02X79500000Y-47800000I-1200000J0D01*
G01*
X55900000Y-47800000D02*
G75*
G02X53500000Y-47800000I-1200000J0D01*
G01*
X287500000Y-162200000D02*
G75*
G02X289900000Y-162200000I1200000J0D01*
G01*
X261500000Y-162200000D02*
G75*
G02X263900000Y-162200000I1200000J0D01*
G01*
X235500000Y-162200000D02*
G75*
G02X237900000Y-162200000I1200000J0D01*
G01*
X209500000Y-162200000D02*
G75*
G02X211900000Y-162200000I1200000J0D01*
G01*
X183500000Y-162200000D02*
G75*
G02X185900000Y-162200000I1200000J0D01*
G01*
X157500000Y-162200000D02*
G75*
G02X159900000Y-162200000I1200000J0D01*
G01*
X131500000Y-162200000D02*
G75*
G02X133900000Y-162200000I1200000J0D01*
G01*
X105500000Y-162200000D02*
G75*
G02X107900000Y-162200000I1200000J0D01*
G01*
X79500000Y-162200000D02*
G75*
G02X81900000Y-162200000I1200000J0D01*
G01*
X53500000Y-162200000D02*
G75*
G02X55900000Y-162200000I1200000J0D01*
G01*
X27500000Y-162200000D02*
G75*
G02X29900000Y-162200000I1200000J0D01*
G01*
X287500000Y-114400000D02*
G75*
G02X289900000Y-114400000I1200000J0D01*
G01*
X261500000Y-114400000D02*
G75*
G02X263900000Y-114400000I1200000J0D01*
G01*
X235500000Y-114400000D02*
G75*
G02X237900000Y-114400000I1200000J0D01*
G01*
X209500000Y-114400000D02*
G75*
G02X211900000Y-114400000I1200000J0D01*
G01*
X183500000Y-114400000D02*
G75*
G02X185900000Y-114400000I1200000J0D01*
G01*
X157500000Y-114400000D02*
G75*
G02X159900000Y-114400000I1200000J0D01*
G01*
X131500000Y-114400000D02*
G75*
G02X133900000Y-114400000I1200000J0D01*
G01*
X105500000Y-114400000D02*
G75*
G02X107900000Y-114400000I1200000J0D01*
G01*
X79500000Y-114400000D02*
G75*
G02X81900000Y-114400000I1200000J0D01*
G01*
X53500000Y-114400000D02*
G75*
G02X55900000Y-114400000I1200000J0D01*
G01*
X27500000Y-114400000D02*
G75*
G02X29900000Y-114400000I1200000J0D01*
G01*
X287500000Y-66600000D02*
G75*
G02X289900000Y-66600000I1200000J0D01*
G01*
X261500000Y-66600000D02*
G75*
G02X263900000Y-66600000I1200000J0D01*
G01*
X235500000Y-66600000D02*
G75*
G02X237900000Y-66600000I1200000J0D01*
G01*
X209500000Y-66600000D02*
G75*
G02X211900000Y-66600000I1200000J0D01*
G01*
X183500000Y-66600000D02*
G75*
G02X185900000Y-66600000I1200000J0D01*
G01*
X157500000Y-66600000D02*
G75*
G02X159900000Y-66600000I1200000J0D01*
G01*
X131500000Y-66600000D02*
G75*
G02X133900000Y-66600000I1200000J0D01*
G01*
X105500000Y-66600000D02*
G75*
G02X107900000Y-66600000I1200000J0D01*
G01*
X79500000Y-66600000D02*
G75*
G02X81900000Y-66600000I1200000J0D01*
G01*
X53500000Y-66600000D02*
G75*
G02X55900000Y-66600000I1200000J0D01*
G01*
X27500000Y-66600000D02*
G75*
G02X29900000Y-66600000I1200000J0D01*
G01*
X287500000Y-18800000D02*
G75*
G02X289900000Y-18800000I1200000J0D01*
G01*
X261500000Y-18800000D02*
G75*
G02X263900000Y-18800000I1200000J0D01*
G01*
X235500000Y-18800000D02*
G75*
G02X237900000Y-18800000I1200000J0D01*
G01*
X209500000Y-18800000D02*
G75*
G02X211900000Y-18800000I1200000J0D01*
G01*
X183500000Y-18800000D02*
G75*
G02X185900000Y-18800000I1200000J0D01*
G01*
X157500000Y-18800000D02*
G75*
G02X159900000Y-18800000I1200000J0D01*
G01*
X131500000Y-18800000D02*
G75*
G02X133900000Y-18800000I1200000J0D01*
G01*
X105500000Y-18800000D02*
G75*
G02X107900000Y-18800000I1200000J0D01*
G01*
X79500000Y-18800000D02*
G75*
G02X81900000Y-18800000I1200000J0D01*
G01*
X53500000Y-18800000D02*
G75*
G02X55900000Y-18800000I1200000J0D01*
G01*
X289900000Y-162200000D02*
X289900000Y-191200000D01*
X263900000Y-162200000D02*
X263900000Y-191200000D01*
X237900000Y-162200000D02*
X237900000Y-191200000D01*
X211900000Y-162200000D02*
X211900000Y-191200000D01*
X185900000Y-162200000D02*
X185900000Y-191200000D01*
X159900000Y-162200000D02*
X159900000Y-191200000D01*
X133900000Y-162200000D02*
X133900000Y-191200000D01*
X107900000Y-162200000D02*
X107900000Y-191200000D01*
X81900000Y-162200000D02*
X81900000Y-191200000D01*
X55900000Y-162200000D02*
X55900000Y-191200000D01*
X29900000Y-162200000D02*
X29900000Y-191200000D01*
X289900000Y-114400000D02*
X289900000Y-143400000D01*
X263900000Y-114400000D02*
X263900000Y-143400000D01*
X237900000Y-114400000D02*
X237900000Y-143400000D01*
X211900000Y-114400000D02*
X211900000Y-143400000D01*
X185900000Y-114400000D02*
X185900000Y-143400000D01*
X159900000Y-114400000D02*
X159900000Y-143400000D01*
X133900000Y-114400000D02*
X133900000Y-143400000D01*
X107900000Y-114400000D02*
X107900000Y-143400000D01*
X81900000Y-114400000D02*
X81900000Y-143400000D01*
X55900000Y-114400000D02*
X55900000Y-143400000D01*
X29900000Y-114400000D02*
X29900000Y-143400000D01*
X289900000Y-66600000D02*
X289900000Y-95600000D01*
X263900000Y-66600000D02*
X263900000Y-95600000D01*
X237900000Y-66600000D02*
X237900000Y-95600000D01*
X211900000Y-66600000D02*
X211900000Y-95600000D01*
X185900000Y-66600000D02*
X185900000Y-95600000D01*
X159900000Y-66600000D02*
X159900000Y-95600000D01*
X133900000Y-66600000D02*
X133900000Y-95600000D01*
X107900000Y-66600000D02*
X107900000Y-95600000D01*
X81900000Y-66600000D02*
X81900000Y-95600000D01*
X55900000Y-66600000D02*
X55900000Y-95600000D01*
X29900000Y-66600000D02*
X29900000Y-95600000D01*
X289900000Y-18800000D02*
X289900000Y-47800000D01*
X263900000Y-18800000D02*
X263900000Y-47800000D01*
X237900000Y-18800000D02*
X237900000Y-47800000D01*
X211900000Y-18800000D02*
X211900000Y-47800000D01*
X185900000Y-18800000D02*
X185900000Y-47800000D01*
X159900000Y-18800000D02*
X159900000Y-47800000D01*
X133900000Y-18800000D02*
X133900000Y-47800000D01*
X107900000Y-18800000D02*
X107900000Y-47800000D01*
X81900000Y-18800000D02*
X81900000Y-47800000D01*
X55900000Y-18800000D02*
X55900000Y-47800000D01*
X270100000Y-162200000D02*
G75*
G02X272500000Y-162200000I1200000J0D01*
G01*
X244100000Y-162200000D02*
G75*
G02X246500000Y-162200000I1200000J0D01*
G01*
X218100000Y-162200000D02*
G75*
G02X220500000Y-162200000I1200000J0D01*
G01*
X192100000Y-162200000D02*
G75*
G02X194500000Y-162200000I1200000J0D01*
G01*
X166100000Y-162200000D02*
G75*
G02X168500000Y-162200000I1200000J0D01*
G01*
X140100000Y-162200000D02*
G75*
G02X142500000Y-162200000I1200000J0D01*
G01*
X114100000Y-162200000D02*
G75*
G02X116500000Y-162200000I1200000J0D01*
G01*
X88100000Y-162200000D02*
G75*
G02X90500000Y-162200000I1200000J0D01*
G01*
X62100000Y-162200000D02*
G75*
G02X64500000Y-162200000I1200000J0D01*
G01*
X36100000Y-162200000D02*
G75*
G02X38500000Y-162200000I1200000J0D01*
G01*
X10100000Y-162200000D02*
G75*
G02X12500000Y-162200000I1200000J0D01*
G01*
X270100000Y-114400000D02*
G75*
G02X272500000Y-114400000I1200000J0D01*
G01*
X244100000Y-114400000D02*
G75*
G02X246500000Y-114400000I1200000J0D01*
G01*
X218100000Y-114400000D02*
G75*
G02X220500000Y-114400000I1200000J0D01*
G01*
X192100000Y-114400000D02*
G75*
G02X194500000Y-114400000I1200000J0D01*
G01*
X166100000Y-114400000D02*
G75*
G02X168500000Y-114400000I1200000J0D01*
G01*
X140100000Y-114400000D02*
G75*
G02X142500000Y-114400000I1200000J0D01*
G01*
X114100000Y-114400000D02*
G75*
G02X116500000Y-114400000I1200000J0D01*
G01*
X88100000Y-114400000D02*
G75*
G02X90500000Y-114400000I1200000J0D01*
G01*
X62100000Y-114400000D02*
G75*
G02X64500000Y-114400000I1200000J0D01*
G01*
X36100000Y-114400000D02*
G75*
G02X38500000Y-114400000I1200000J0D01*
G01*
X10100000Y-114400000D02*
G75*
G02X12500000Y-114400000I1200000J0D01*
G01*
X270100000Y-66600000D02*
G75*
G02X272500000Y-66600000I1200000J0D01*
G01*
X244100000Y-66600000D02*
G75*
G02X246500000Y-66600000I1200000J0D01*
G01*
X218100000Y-66600000D02*
G75*
G02X220500000Y-66600000I1200000J0D01*
G01*
X192100000Y-66600000D02*
G75*
G02X194500000Y-66600000I1200000J0D01*
G01*
X166100000Y-66600000D02*
G75*
G02X168500000Y-66600000I1200000J0D01*
G01*
X140100000Y-66600000D02*
G75*
G02X142500000Y-66600000I1200000J0D01*
G01*
X114100000Y-66600000D02*
G75*
G02X116500000Y-66600000I1200000J0D01*
G01*
X88100000Y-66600000D02*
G75*
G02X90500000Y-66600000I1200000J0D01*
G01*
X62100000Y-66600000D02*
G75*
G02X64500000Y-66600000I1200000J0D01*
G01*
X36100000Y-66600000D02*
G75*
G02X38500000Y-66600000I1200000J0D01*
G01*
X10100000Y-66600000D02*
G75*
G02X12500000Y-66600000I1200000J0D01*
G01*
X270100000Y-18800000D02*
G75*
G02X272500000Y-18800000I1200000J0D01*
G01*
X244100000Y-18800000D02*
G75*
G02X246500000Y-18800000I1200000J0D01*
G01*
X218100000Y-18800000D02*
G75*
G02X220500000Y-18800000I1200000J0D01*
G01*
X192100000Y-18800000D02*
G75*
G02X194500000Y-18800000I1200000J0D01*
G01*
X166100000Y-18800000D02*
G75*
G02X168500000Y-18800000I1200000J0D01*
G01*
X140100000Y-18800000D02*
G75*
G02X142500000Y-18800000I1200000J0D01*
G01*
X114100000Y-18800000D02*
G75*
G02X116500000Y-18800000I1200000J0D01*
G01*
X88100000Y-18800000D02*
G75*
G02X90500000Y-18800000I1200000J0D01*
G01*
X62100000Y-18800000D02*
G75*
G02X64500000Y-18800000I1200000J0D01*
G01*
X36100000Y-18800000D02*
G75*
G02X38500000Y-18800000I1200000J0D01*
G01*
X272500000Y-191200000D02*
G75*
G02X270100000Y-191200000I-1200000J0D01*
G01*
X246500000Y-191200000D02*
G75*
G02X244100000Y-191200000I-1200000J0D01*
G01*
X220500000Y-191200000D02*
G75*
G02X218100000Y-191200000I-1200000J0D01*
G01*
X194500000Y-191200000D02*
G75*
G02X192100000Y-191200000I-1200000J0D01*
G01*
X168500000Y-191200000D02*
G75*
G02X166100000Y-191200000I-1200000J0D01*
G01*
X142500000Y-191200000D02*
G75*
G02X140100000Y-191200000I-1200000J0D01*
G01*
X116500000Y-191200000D02*
G75*
G02X114100000Y-191200000I-1200000J0D01*
G01*
X90500000Y-191200000D02*
G75*
G02X88100000Y-191200000I-1200000J0D01*
G01*
X64500000Y-191200000D02*
G75*
G02X62100000Y-191200000I-1200000J0D01*
G01*
X38500000Y-191200000D02*
G75*
G02X36100000Y-191200000I-1200000J0D01*
G01*
X12500000Y-191200000D02*
G75*
G02X10100000Y-191200000I-1200000J0D01*
G01*
X272500000Y-143400000D02*
G75*
G02X270100000Y-143400000I-1200000J0D01*
G01*
X246500000Y-143400000D02*
G75*
G02X244100000Y-143400000I-1200000J0D01*
G01*
X220500000Y-143400000D02*
G75*
G02X218100000Y-143400000I-1200000J0D01*
G01*
X194500000Y-143400000D02*
G75*
G02X192100000Y-143400000I-1200000J0D01*
G01*
X168500000Y-143400000D02*
G75*
G02X166100000Y-143400000I-1200000J0D01*
G01*
X142500000Y-143400000D02*
G75*
G02X140100000Y-143400000I-1200000J0D01*
G01*
X116500000Y-143400000D02*
G75*
G02X114100000Y-143400000I-1200000J0D01*
G01*
X90500000Y-143400000D02*
G75*
G02X88100000Y-143400000I-1200000J0D01*
G01*
X64500000Y-143400000D02*
G75*
G02X62100000Y-143400000I-1200000J0D01*
G01*
X38500000Y-143400000D02*
G75*
G02X36100000Y-143400000I-1200000J0D01*
G01*
X12500000Y-143400000D02*
G75*
G02X10100000Y-143400000I-1200000J0D01*
G01*
X272500000Y-95600000D02*
G75*
G02X270100000Y-95600000I-1200000J0D01*
G01*
X246500000Y-95600000D02*
G75*
G02X244100000Y-95600000I-1200000J0D01*
G01*
X220500000Y-95600000D02*
G75*
G02X218100000Y-95600000I-1200000J0D01*
G01*
X194500000Y-95600000D02*
G75*
G02X192100000Y-95600000I-1200000J0D01*
G01*
X168500000Y-95600000D02*
G75*
G02X166100000Y-95600000I-1200000J0D01*
G01*
X142500000Y-95600000D02*
G75*
G02X140100000Y-95600000I-1200000J0D01*
G01*
X116500000Y-95600000D02*
G75*
G02X114100000Y-95600000I-1200000J0D01*
G01*
X90500000Y-95600000D02*
G75*
G02X88100000Y-95600000I-1200000J0D01*
G01*
X64500000Y-95600000D02*
G75*
G02X62100000Y-95600000I-1200000J0D01*
G01*
X38500000Y-95600000D02*
G75*
G02X36100000Y-95600000I-1200000J0D01*
G01*
X12500000Y-95600000D02*
G75*
G02X10100000Y-95600000I-1200000J0D01*
G01*
X272500000Y-47800000D02*
G75*
G02X270100000Y-47800000I-1200000J0D01*
G01*
X246500000Y-47800000D02*
G75*
G02X244100000Y-47800000I-1200000J0D01*
G01*
X220500000Y-47800000D02*
G75*
G02X218100000Y-47800000I-1200000J0D01*
G01*
X194500000Y-47800000D02*
G75*
G02X192100000Y-47800000I-1200000J0D01*
G01*
X168500000Y-47800000D02*
G75*
G02X166100000Y-47800000I-1200000J0D01*
G01*
X142500000Y-47800000D02*
G75*
G02X140100000Y-47800000I-1200000J0D01*
G01*
X116500000Y-47800000D02*
G75*
G02X114100000Y-47800000I-1200000J0D01*
G01*
X90500000Y-47800000D02*
G75*
G02X88100000Y-47800000I-1200000J0D01*
G01*
X64500000Y-47800000D02*
G75*
G02X62100000Y-47800000I-1200000J0D01*
G01*
X38500000Y-47800000D02*
G75*
G02X36100000Y-47800000I-1200000J0D01*
G01*
X273500000Y-192200000D02*
X286500000Y-192200000D01*
X247500000Y-192200000D02*
X260500000Y-192200000D01*
X221500000Y-192200000D02*
X234500000Y-192200000D01*
X195500000Y-192200000D02*
X208500000Y-192200000D01*
X169500000Y-192200000D02*
X182500000Y-192200000D01*
X143500000Y-192200000D02*
X156500000Y-192200000D01*
X117500000Y-192200000D02*
X130500000Y-192200000D01*
X91500000Y-192200000D02*
X104500000Y-192200000D01*
X65500000Y-192200000D02*
X78500000Y-192200000D01*
X39500000Y-192200000D02*
X52500000Y-192200000D01*
X13500000Y-192200000D02*
X26500000Y-192200000D01*
X273500000Y-144400000D02*
X286500000Y-144400000D01*
X247500000Y-144400000D02*
X260500000Y-144400000D01*
X221500000Y-144400000D02*
X234500000Y-144400000D01*
X195500000Y-144400000D02*
X208500000Y-144400000D01*
X169500000Y-144400000D02*
X182500000Y-144400000D01*
X143500000Y-144400000D02*
X156500000Y-144400000D01*
X117500000Y-144400000D02*
X130500000Y-144400000D01*
X91500000Y-144400000D02*
X104500000Y-144400000D01*
X65500000Y-144400000D02*
X78500000Y-144400000D01*
X39500000Y-144400000D02*
X52500000Y-144400000D01*
X13500000Y-144400000D02*
X26500000Y-144400000D01*
X273500000Y-96600000D02*
X286500000Y-96600000D01*
X247500000Y-96600000D02*
X260500000Y-96600000D01*
X221500000Y-96600000D02*
X234500000Y-96600000D01*
X195500000Y-96600000D02*
X208500000Y-96600000D01*
X169500000Y-96600000D02*
X182500000Y-96600000D01*
X143500000Y-96600000D02*
X156500000Y-96600000D01*
X117500000Y-96600000D02*
X130500000Y-96600000D01*
X91500000Y-96600000D02*
X104500000Y-96600000D01*
X65500000Y-96600000D02*
X78500000Y-96600000D01*
X39500000Y-96600000D02*
X52500000Y-96600000D01*
X13500000Y-96600000D02*
X26500000Y-96600000D01*
X273500000Y-48800000D02*
X286500000Y-48800000D01*
X247500000Y-48800000D02*
X260500000Y-48800000D01*
X221500000Y-48800000D02*
X234500000Y-48800000D01*
X195500000Y-48800000D02*
X208500000Y-48800000D01*
X169500000Y-48800000D02*
X182500000Y-48800000D01*
X143500000Y-48800000D02*
X156500000Y-48800000D01*
X117500000Y-48800000D02*
X130500000Y-48800000D01*
X91500000Y-48800000D02*
X104500000Y-48800000D01*
X65500000Y-48800000D02*
X78500000Y-48800000D01*
X39500000Y-48800000D02*
X52500000Y-48800000D01*
X286500000Y-158800000D02*
G75*
G02X286500000Y-161200000I0J-1200000D01*
G01*
X260500000Y-158800000D02*
G75*
G02X260500000Y-161200000I0J-1200000D01*
G01*
X234500000Y-158800000D02*
G75*
G02X234500000Y-161200000I0J-1200000D01*
G01*
X208500000Y-158800000D02*
G75*
G02X208500000Y-161200000I0J-1200000D01*
G01*
X182500000Y-158800000D02*
G75*
G02X182500000Y-161200000I0J-1200000D01*
G01*
X156500000Y-158800000D02*
G75*
G02X156500000Y-161200000I0J-1200000D01*
G01*
X130500000Y-158800000D02*
G75*
G02X130500000Y-161200000I0J-1200000D01*
G01*
X104500000Y-158800000D02*
G75*
G02X104500000Y-161200000I0J-1200000D01*
G01*
X78500000Y-158800000D02*
G75*
G02X78500000Y-161200000I0J-1200000D01*
G01*
X52500000Y-158800000D02*
G75*
G02X52500000Y-161200000I0J-1200000D01*
G01*
X26500000Y-158800000D02*
G75*
G02X26500000Y-161200000I0J-1200000D01*
G01*
X286500000Y-111000000D02*
G75*
G02X286500000Y-113400000I0J-1200000D01*
G01*
X260500000Y-111000000D02*
G75*
G02X260500000Y-113400000I0J-1200000D01*
G01*
X234500000Y-111000000D02*
G75*
G02X234500000Y-113400000I0J-1200000D01*
G01*
X208500000Y-111000000D02*
G75*
G02X208500000Y-113400000I0J-1200000D01*
G01*
X182500000Y-111000000D02*
G75*
G02X182500000Y-113400000I0J-1200000D01*
G01*
X156500000Y-111000000D02*
G75*
G02X156500000Y-113400000I0J-1200000D01*
G01*
X130500000Y-111000000D02*
G75*
G02X130500000Y-113400000I0J-1200000D01*
G01*
X104500000Y-111000000D02*
G75*
G02X104500000Y-113400000I0J-1200000D01*
G01*
X78500000Y-111000000D02*
G75*
G02X78500000Y-113400000I0J-1200000D01*
G01*
X52500000Y-111000000D02*
G75*
G02X52500000Y-113400000I0J-1200000D01*
G01*
X26500000Y-111000000D02*
G75*
G02X26500000Y-113400000I0J-1200000D01*
G01*
X286500000Y-63200000D02*
G75*
G02X286500000Y-65600000I0J-1200000D01*
G01*
X260500000Y-63200000D02*
G75*
G02X260500000Y-65600000I0J-1200000D01*
G01*
X234500000Y-63200000D02*
G75*
G02X234500000Y-65600000I0J-1200000D01*
G01*
X208500000Y-63200000D02*
G75*
G02X208500000Y-65600000I0J-1200000D01*
G01*
X182500000Y-63200000D02*
G75*
G02X182500000Y-65600000I0J-1200000D01*
G01*
X156500000Y-63200000D02*
G75*
G02X156500000Y-65600000I0J-1200000D01*
G01*
X130500000Y-63200000D02*
G75*
G02X130500000Y-65600000I0J-1200000D01*
G01*
X104500000Y-63200000D02*
G75*
G02X104500000Y-65600000I0J-1200000D01*
G01*
X78500000Y-63200000D02*
G75*
G02X78500000Y-65600000I0J-1200000D01*
G01*
X52500000Y-63200000D02*
G75*
G02X52500000Y-65600000I0J-1200000D01*
G01*
X26500000Y-63200000D02*
G75*
G02X26500000Y-65600000I0J-1200000D01*
G01*
X286500000Y-15400000D02*
G75*
G02X286500000Y-17800000I0J-1200000D01*
G01*
X260500000Y-15400000D02*
G75*
G02X260500000Y-17800000I0J-1200000D01*
G01*
X234500000Y-15400000D02*
G75*
G02X234500000Y-17800000I0J-1200000D01*
G01*
X208500000Y-15400000D02*
G75*
G02X208500000Y-17800000I0J-1200000D01*
G01*
X182500000Y-15400000D02*
G75*
G02X182500000Y-17800000I0J-1200000D01*
G01*
X156500000Y-15400000D02*
G75*
G02X156500000Y-17800000I0J-1200000D01*
G01*
X130500000Y-15400000D02*
G75*
G02X130500000Y-17800000I0J-1200000D01*
G01*
X104500000Y-15400000D02*
G75*
G02X104500000Y-17800000I0J-1200000D01*
G01*
X78500000Y-15400000D02*
G75*
G02X78500000Y-17800000I0J-1200000D01*
G01*
X52500000Y-15400000D02*
G75*
G02X52500000Y-17800000I0J-1200000D01*
G01*
X273500000Y-161200000D02*
G75*
G02X273500000Y-158800000I0J1200000D01*
G01*
X247500000Y-161200000D02*
G75*
G02X247500000Y-158800000I0J1200000D01*
G01*
X221500000Y-161200000D02*
G75*
G02X221500000Y-158800000I0J1200000D01*
G01*
X195500000Y-161200000D02*
G75*
G02X195500000Y-158800000I0J1200000D01*
G01*
X169500000Y-161200000D02*
G75*
G02X169500000Y-158800000I0J1200000D01*
G01*
X143500000Y-161200000D02*
G75*
G02X143500000Y-158800000I0J1200000D01*
G01*
X117500000Y-161200000D02*
G75*
G02X117500000Y-158800000I0J1200000D01*
G01*
X91500000Y-161200000D02*
G75*
G02X91500000Y-158800000I0J1200000D01*
G01*
X65500000Y-161200000D02*
G75*
G02X65500000Y-158800000I0J1200000D01*
G01*
X39500000Y-161200000D02*
G75*
G02X39500000Y-158800000I0J1200000D01*
G01*
X13500000Y-161200000D02*
G75*
G02X13500000Y-158800000I0J1200000D01*
G01*
X273500000Y-113400000D02*
G75*
G02X273500000Y-111000000I0J1200000D01*
G01*
X247500000Y-113400000D02*
G75*
G02X247500000Y-111000000I0J1200000D01*
G01*
X221500000Y-113400000D02*
G75*
G02X221500000Y-111000000I0J1200000D01*
G01*
X195500000Y-113400000D02*
G75*
G02X195500000Y-111000000I0J1200000D01*
G01*
X169500000Y-113400000D02*
G75*
G02X169500000Y-111000000I0J1200000D01*
G01*
X143500000Y-113400000D02*
G75*
G02X143500000Y-111000000I0J1200000D01*
G01*
X117500000Y-113400000D02*
G75*
G02X117500000Y-111000000I0J1200000D01*
G01*
X91500000Y-113400000D02*
G75*
G02X91500000Y-111000000I0J1200000D01*
G01*
X65500000Y-113400000D02*
G75*
G02X65500000Y-111000000I0J1200000D01*
G01*
X39500000Y-113400000D02*
G75*
G02X39500000Y-111000000I0J1200000D01*
G01*
X13500000Y-113400000D02*
G75*
G02X13500000Y-111000000I0J1200000D01*
G01*
X273500000Y-65600000D02*
G75*
G02X273500000Y-63200000I0J1200000D01*
G01*
X247500000Y-65600000D02*
G75*
G02X247500000Y-63200000I0J1200000D01*
G01*
X221500000Y-65600000D02*
G75*
G02X221500000Y-63200000I0J1200000D01*
G01*
X195500000Y-65600000D02*
G75*
G02X195500000Y-63200000I0J1200000D01*
G01*
X169500000Y-65600000D02*
G75*
G02X169500000Y-63200000I0J1200000D01*
G01*
X143500000Y-65600000D02*
G75*
G02X143500000Y-63200000I0J1200000D01*
G01*
X117500000Y-65600000D02*
G75*
G02X117500000Y-63200000I0J1200000D01*
G01*
X91500000Y-65600000D02*
G75*
G02X91500000Y-63200000I0J1200000D01*
G01*
X65500000Y-65600000D02*
G75*
G02X65500000Y-63200000I0J1200000D01*
G01*
X39500000Y-65600000D02*
G75*
G02X39500000Y-63200000I0J1200000D01*
G01*
X13500000Y-65600000D02*
G75*
G02X13500000Y-63200000I0J1200000D01*
G01*
X273500000Y-17800000D02*
G75*
G02X273500000Y-15400000I0J1200000D01*
G01*
X247500000Y-17800000D02*
G75*
G02X247500000Y-15400000I0J1200000D01*
G01*
X221500000Y-17800000D02*
G75*
G02X221500000Y-15400000I0J1200000D01*
G01*
X195500000Y-17800000D02*
G75*
G02X195500000Y-15400000I0J1200000D01*
G01*
X169500000Y-17800000D02*
G75*
G02X169500000Y-15400000I0J1200000D01*
G01*
X143500000Y-17800000D02*
G75*
G02X143500000Y-15400000I0J1200000D01*
G01*
X117500000Y-17800000D02*
G75*
G02X117500000Y-15400000I0J1200000D01*
G01*
X91500000Y-17800000D02*
G75*
G02X91500000Y-15400000I0J1200000D01*
G01*
X65500000Y-17800000D02*
G75*
G02X65500000Y-15400000I0J1200000D01*
G01*
X39500000Y-17800000D02*
G75*
G02X39500000Y-15400000I0J1200000D01*
G01*
X270100000Y-162200000D02*
X270100000Y-191200000D01*
X244100000Y-162200000D02*
X244100000Y-191200000D01*
X218100000Y-162200000D02*
X218100000Y-191200000D01*
X192100000Y-162200000D02*
X192100000Y-191200000D01*
X166100000Y-162200000D02*
X166100000Y-191200000D01*
X140100000Y-162200000D02*
X140100000Y-191200000D01*
X114100000Y-162200000D02*
X114100000Y-191200000D01*
X88100000Y-162200000D02*
X88100000Y-191200000D01*
X62100000Y-162200000D02*
X62100000Y-191200000D01*
X36100000Y-162200000D02*
X36100000Y-191200000D01*
X10100000Y-162200000D02*
X10100000Y-191200000D01*
X270100000Y-114400000D02*
X270100000Y-143400000D01*
X244100000Y-114400000D02*
X244100000Y-143400000D01*
X218100000Y-114400000D02*
X218100000Y-143400000D01*
X192100000Y-114400000D02*
X192100000Y-143400000D01*
X166100000Y-114400000D02*
X166100000Y-143400000D01*
X140100000Y-114400000D02*
X140100000Y-143400000D01*
X114100000Y-114400000D02*
X114100000Y-143400000D01*
X88100000Y-114400000D02*
X88100000Y-143400000D01*
X62100000Y-114400000D02*
X62100000Y-143400000D01*
X36100000Y-114400000D02*
X36100000Y-143400000D01*
X10100000Y-114400000D02*
X10100000Y-143400000D01*
X270100000Y-66600000D02*
X270100000Y-95600000D01*
X244100000Y-66600000D02*
X244100000Y-95600000D01*
X218100000Y-66600000D02*
X218100000Y-95600000D01*
X192100000Y-66600000D02*
X192100000Y-95600000D01*
X166100000Y-66600000D02*
X166100000Y-95600000D01*
X140100000Y-66600000D02*
X140100000Y-95600000D01*
X114100000Y-66600000D02*
X114100000Y-95600000D01*
X88100000Y-66600000D02*
X88100000Y-95600000D01*
X62100000Y-66600000D02*
X62100000Y-95600000D01*
X36100000Y-66600000D02*
X36100000Y-95600000D01*
X10100000Y-66600000D02*
X10100000Y-95600000D01*
X270100000Y-18800000D02*
X270100000Y-47800000D01*
X244100000Y-18800000D02*
X244100000Y-47800000D01*
X218100000Y-18800000D02*
X218100000Y-47800000D01*
X192100000Y-18800000D02*
X192100000Y-47800000D01*
X166100000Y-18800000D02*
X166100000Y-47800000D01*
X140100000Y-18800000D02*
X140100000Y-47800000D01*
X114100000Y-18800000D02*
X114100000Y-47800000D01*
X88100000Y-18800000D02*
X88100000Y-47800000D01*
X62100000Y-18800000D02*
X62100000Y-47800000D01*
X36100000Y-18800000D02*
X36100000Y-47800000D01*
X273500000Y-194600000D02*
G75*
G02X273500000Y-192200000I0J1200000D01*
G01*
X247500000Y-194600000D02*
G75*
G02X247500000Y-192200000I0J1200000D01*
G01*
X221500000Y-194600000D02*
G75*
G02X221500000Y-192200000I0J1200000D01*
G01*
X195500000Y-194600000D02*
G75*
G02X195500000Y-192200000I0J1200000D01*
G01*
X169500000Y-194600000D02*
G75*
G02X169500000Y-192200000I0J1200000D01*
G01*
X143500000Y-194600000D02*
G75*
G02X143500000Y-192200000I0J1200000D01*
G01*
X117500000Y-194600000D02*
G75*
G02X117500000Y-192200000I0J1200000D01*
G01*
X91500000Y-194600000D02*
G75*
G02X91500000Y-192200000I0J1200000D01*
G01*
X65500000Y-194600000D02*
G75*
G02X65500000Y-192200000I0J1200000D01*
G01*
X39500000Y-194600000D02*
G75*
G02X39500000Y-192200000I0J1200000D01*
G01*
X13500000Y-194600000D02*
G75*
G02X13500000Y-192200000I0J1200000D01*
G01*
X273500000Y-146800000D02*
G75*
G02X273500000Y-144400000I0J1200000D01*
G01*
X247500000Y-146800000D02*
G75*
G02X247500000Y-144400000I0J1200000D01*
G01*
X221500000Y-146800000D02*
G75*
G02X221500000Y-144400000I0J1200000D01*
G01*
X195500000Y-146800000D02*
G75*
G02X195500000Y-144400000I0J1200000D01*
G01*
X169500000Y-146800000D02*
G75*
G02X169500000Y-144400000I0J1200000D01*
G01*
X143500000Y-146800000D02*
G75*
G02X143500000Y-144400000I0J1200000D01*
G01*
X117500000Y-146800000D02*
G75*
G02X117500000Y-144400000I0J1200000D01*
G01*
X91500000Y-146800000D02*
G75*
G02X91500000Y-144400000I0J1200000D01*
G01*
X65500000Y-146800000D02*
G75*
G02X65500000Y-144400000I0J1200000D01*
G01*
X39500000Y-146800000D02*
G75*
G02X39500000Y-144400000I0J1200000D01*
G01*
X13500000Y-146800000D02*
G75*
G02X13500000Y-144400000I0J1200000D01*
G01*
X273500000Y-99000000D02*
G75*
G02X273500000Y-96600000I0J1200000D01*
G01*
X247500000Y-99000000D02*
G75*
G02X247500000Y-96600000I0J1200000D01*
G01*
X221500000Y-99000000D02*
G75*
G02X221500000Y-96600000I0J1200000D01*
G01*
X195500000Y-99000000D02*
G75*
G02X195500000Y-96600000I0J1200000D01*
G01*
X169500000Y-99000000D02*
G75*
G02X169500000Y-96600000I0J1200000D01*
G01*
X143500000Y-99000000D02*
G75*
G02X143500000Y-96600000I0J1200000D01*
G01*
X117500000Y-99000000D02*
G75*
G02X117500000Y-96600000I0J1200000D01*
G01*
X91500000Y-99000000D02*
G75*
G02X91500000Y-96600000I0J1200000D01*
G01*
X65500000Y-99000000D02*
G75*
G02X65500000Y-96600000I0J1200000D01*
G01*
X39500000Y-99000000D02*
G75*
G02X39500000Y-96600000I0J1200000D01*
G01*
X13500000Y-99000000D02*
G75*
G02X13500000Y-96600000I0J1200000D01*
G01*
X273500000Y-51200000D02*
G75*
G02X273500000Y-48800000I0J1200000D01*
G01*
X247500000Y-51200000D02*
G75*
G02X247500000Y-48800000I0J1200000D01*
G01*
X221500000Y-51200000D02*
G75*
G02X221500000Y-48800000I0J1200000D01*
G01*
X195500000Y-51200000D02*
G75*
G02X195500000Y-48800000I0J1200000D01*
G01*
X169500000Y-51200000D02*
G75*
G02X169500000Y-48800000I0J1200000D01*
G01*
X143500000Y-51200000D02*
G75*
G02X143500000Y-48800000I0J1200000D01*
G01*
X117500000Y-51200000D02*
G75*
G02X117500000Y-48800000I0J1200000D01*
G01*
X91500000Y-51200000D02*
G75*
G02X91500000Y-48800000I0J1200000D01*
G01*
X65500000Y-51200000D02*
G75*
G02X65500000Y-48800000I0J1200000D01*
G01*
X39500000Y-51200000D02*
G75*
G02X39500000Y-48800000I0J1200000D01*
G01*
X287500000Y-162200000D02*
X287500000Y-191200000D01*
X261500000Y-162200000D02*
X261500000Y-191200000D01*
X235500000Y-162200000D02*
X235500000Y-191200000D01*
X209500000Y-162200000D02*
X209500000Y-191200000D01*
X183500000Y-162200000D02*
X183500000Y-191200000D01*
X157500000Y-162200000D02*
X157500000Y-191200000D01*
X131500000Y-162200000D02*
X131500000Y-191200000D01*
X105500000Y-162200000D02*
X105500000Y-191200000D01*
X79500000Y-162200000D02*
X79500000Y-191200000D01*
X53500000Y-162200000D02*
X53500000Y-191200000D01*
X27500000Y-162200000D02*
X27500000Y-191200000D01*
X287500000Y-114400000D02*
X287500000Y-143400000D01*
X261500000Y-114400000D02*
X261500000Y-143400000D01*
X235500000Y-114400000D02*
X235500000Y-143400000D01*
X209500000Y-114400000D02*
X209500000Y-143400000D01*
X183500000Y-114400000D02*
X183500000Y-143400000D01*
X157500000Y-114400000D02*
X157500000Y-143400000D01*
X131500000Y-114400000D02*
X131500000Y-143400000D01*
X105500000Y-114400000D02*
X105500000Y-143400000D01*
X79500000Y-114400000D02*
X79500000Y-143400000D01*
X53500000Y-114400000D02*
X53500000Y-143400000D01*
X27500000Y-114400000D02*
X27500000Y-143400000D01*
X287500000Y-66600000D02*
X287500000Y-95600000D01*
X261500000Y-66600000D02*
X261500000Y-95600000D01*
X235500000Y-66600000D02*
X235500000Y-95600000D01*
X209500000Y-66600000D02*
X209500000Y-95600000D01*
X183500000Y-66600000D02*
X183500000Y-95600000D01*
X157500000Y-66600000D02*
X157500000Y-95600000D01*
X131500000Y-66600000D02*
X131500000Y-95600000D01*
X105500000Y-66600000D02*
X105500000Y-95600000D01*
X79500000Y-66600000D02*
X79500000Y-95600000D01*
X53500000Y-66600000D02*
X53500000Y-95600000D01*
X27500000Y-66600000D02*
X27500000Y-95600000D01*
X287500000Y-18800000D02*
X287500000Y-47800000D01*
X261500000Y-18800000D02*
X261500000Y-47800000D01*
X235500000Y-18800000D02*
X235500000Y-47800000D01*
X209500000Y-18800000D02*
X209500000Y-47800000D01*
X183500000Y-18800000D02*
X183500000Y-47800000D01*
X157500000Y-18800000D02*
X157500000Y-47800000D01*
X131500000Y-18800000D02*
X131500000Y-47800000D01*
X105500000Y-18800000D02*
X105500000Y-47800000D01*
X79500000Y-18800000D02*
X79500000Y-47800000D01*
X53500000Y-18800000D02*
X53500000Y-47800000D01*
X273500000Y-158800000D02*
X286500000Y-158800000D01*
X247500000Y-158800000D02*
X260500000Y-158800000D01*
X221500000Y-158800000D02*
X234500000Y-158800000D01*
X195500000Y-158800000D02*
X208500000Y-158800000D01*
X169500000Y-158800000D02*
X182500000Y-158800000D01*
X143500000Y-158800000D02*
X156500000Y-158800000D01*
X117500000Y-158800000D02*
X130500000Y-158800000D01*
X91500000Y-158800000D02*
X104500000Y-158800000D01*
X65500000Y-158800000D02*
X78500000Y-158800000D01*
X39500000Y-158800000D02*
X52500000Y-158800000D01*
X13500000Y-158800000D02*
X26500000Y-158800000D01*
X273500000Y-111000000D02*
X286500000Y-111000000D01*
X247500000Y-111000000D02*
X260500000Y-111000000D01*
X221500000Y-111000000D02*
X234500000Y-111000000D01*
X195500000Y-111000000D02*
X208500000Y-111000000D01*
X169500000Y-111000000D02*
X182500000Y-111000000D01*
X143500000Y-111000000D02*
X156500000Y-111000000D01*
X117500000Y-111000000D02*
X130500000Y-111000000D01*
X91500000Y-111000000D02*
X104500000Y-111000000D01*
X65500000Y-111000000D02*
X78500000Y-111000000D01*
X39500000Y-111000000D02*
X52500000Y-111000000D01*
X13500000Y-111000000D02*
X26500000Y-111000000D01*
X273500000Y-63200000D02*
X286500000Y-63200000D01*
X247500000Y-63200000D02*
X260500000Y-63200000D01*
X221500000Y-63200000D02*
X234500000Y-63200000D01*
X195500000Y-63200000D02*
X208500000Y-63200000D01*
X169500000Y-63200000D02*
X182500000Y-63200000D01*
X143500000Y-63200000D02*
X156500000Y-63200000D01*
X117500000Y-63200000D02*
X130500000Y-63200000D01*
X91500000Y-63200000D02*
X104500000Y-63200000D01*
X65500000Y-63200000D02*
X78500000Y-63200000D01*
X39500000Y-63200000D02*
X52500000Y-63200000D01*
X13500000Y-63200000D02*
X26500000Y-63200000D01*
X273500000Y-15400000D02*
X286500000Y-15400000D01*
X247500000Y-15400000D02*
X260500000Y-15400000D01*
X221500000Y-15400000D02*
X234500000Y-15400000D01*
X195500000Y-15400000D02*
X208500000Y-15400000D01*
X169500000Y-15400000D02*
X182500000Y-15400000D01*
X143500000Y-15400000D02*
X156500000Y-15400000D01*
X117500000Y-15400000D02*
X130500000Y-15400000D01*
X91500000Y-15400000D02*
X104500000Y-15400000D01*
X65500000Y-15400000D02*
X78500000Y-15400000D01*
X39500000Y-15400000D02*
X52500000Y-15400000D01*
X272500000Y-162200000D02*
X272500000Y-191200000D01*
X246500000Y-162200000D02*
X246500000Y-191200000D01*
X220500000Y-162200000D02*
X220500000Y-191200000D01*
X194500000Y-162200000D02*
X194500000Y-191200000D01*
X168500000Y-162200000D02*
X168500000Y-191200000D01*
X142500000Y-162200000D02*
X142500000Y-191200000D01*
X116500000Y-162200000D02*
X116500000Y-191200000D01*
X90500000Y-162200000D02*
X90500000Y-191200000D01*
X64500000Y-162200000D02*
X64500000Y-191200000D01*
X38500000Y-162200000D02*
X38500000Y-191200000D01*
X12500000Y-162200000D02*
X12500000Y-191200000D01*
X272500000Y-114400000D02*
X272500000Y-143400000D01*
X246500000Y-114400000D02*
X246500000Y-143400000D01*
X220500000Y-114400000D02*
X220500000Y-143400000D01*
X194500000Y-114400000D02*
X194500000Y-143400000D01*
X168500000Y-114400000D02*
X168500000Y-143400000D01*
X142500000Y-114400000D02*
X142500000Y-143400000D01*
X116500000Y-114400000D02*
X116500000Y-143400000D01*
X90500000Y-114400000D02*
X90500000Y-143400000D01*
X64500000Y-114400000D02*
X64500000Y-143400000D01*
X38500000Y-114400000D02*
X38500000Y-143400000D01*
X12500000Y-114400000D02*
X12500000Y-143400000D01*
X272500000Y-66600000D02*
X272500000Y-95600000D01*
X246500000Y-66600000D02*
X246500000Y-95600000D01*
X220500000Y-66600000D02*
X220500000Y-95600000D01*
X194500000Y-66600000D02*
X194500000Y-95600000D01*
X168500000Y-66600000D02*
X168500000Y-95600000D01*
X142500000Y-66600000D02*
X142500000Y-95600000D01*
X116500000Y-66600000D02*
X116500000Y-95600000D01*
X90500000Y-66600000D02*
X90500000Y-95600000D01*
X64500000Y-66600000D02*
X64500000Y-95600000D01*
X38500000Y-66600000D02*
X38500000Y-95600000D01*
X12500000Y-66600000D02*
X12500000Y-95600000D01*
X272500000Y-18800000D02*
X272500000Y-47800000D01*
X246500000Y-18800000D02*
X246500000Y-47800000D01*
X220500000Y-18800000D02*
X220500000Y-47800000D01*
X194500000Y-18800000D02*
X194500000Y-47800000D01*
X168500000Y-18800000D02*
X168500000Y-47800000D01*
X142500000Y-18800000D02*
X142500000Y-47800000D01*
X116500000Y-18800000D02*
X116500000Y-47800000D01*
X90500000Y-18800000D02*
X90500000Y-47800000D01*
X64500000Y-18800000D02*
X64500000Y-47800000D01*
X38500000Y-18800000D02*
X38500000Y-47800000D01*
X273500000Y-161200000D02*
X286500000Y-161200000D01*
X247500000Y-161200000D02*
X260500000Y-161200000D01*
X221500000Y-161200000D02*
X234500000Y-161200000D01*
X195500000Y-161200000D02*
X208500000Y-161200000D01*
X169500000Y-161200000D02*
X182500000Y-161200000D01*
X143500000Y-161200000D02*
X156500000Y-161200000D01*
X117500000Y-161200000D02*
X130500000Y-161200000D01*
X91500000Y-161200000D02*
X104500000Y-161200000D01*
X65500000Y-161200000D02*
X78500000Y-161200000D01*
X39500000Y-161200000D02*
X52500000Y-161200000D01*
X13500000Y-161200000D02*
X26500000Y-161200000D01*
X273500000Y-113400000D02*
X286500000Y-113400000D01*
X247500000Y-113400000D02*
X260500000Y-113400000D01*
X221500000Y-113400000D02*
X234500000Y-113400000D01*
X195500000Y-113400000D02*
X208500000Y-113400000D01*
X169500000Y-113400000D02*
X182500000Y-113400000D01*
X143500000Y-113400000D02*
X156500000Y-113400000D01*
X117500000Y-113400000D02*
X130500000Y-113400000D01*
X91500000Y-113400000D02*
X104500000Y-113400000D01*
X65500000Y-113400000D02*
X78500000Y-113400000D01*
X39500000Y-113400000D02*
X52500000Y-113400000D01*
X13500000Y-113400000D02*
X26500000Y-113400000D01*
X273500000Y-65600000D02*
X286500000Y-65600000D01*
X247500000Y-65600000D02*
X260500000Y-65600000D01*
X221500000Y-65600000D02*
X234500000Y-65600000D01*
X195500000Y-65600000D02*
X208500000Y-65600000D01*
X169500000Y-65600000D02*
X182500000Y-65600000D01*
X143500000Y-65600000D02*
X156500000Y-65600000D01*
X117500000Y-65600000D02*
X130500000Y-65600000D01*
X91500000Y-65600000D02*
X104500000Y-65600000D01*
X65500000Y-65600000D02*
X78500000Y-65600000D01*
X39500000Y-65600000D02*
X52500000Y-65600000D01*
X13500000Y-65600000D02*
X26500000Y-65600000D01*
X273500000Y-17800000D02*
X286500000Y-17800000D01*
X247500000Y-17800000D02*
X260500000Y-17800000D01*
X221500000Y-17800000D02*
X234500000Y-17800000D01*
X195500000Y-17800000D02*
X208500000Y-17800000D01*
X169500000Y-17800000D02*
X182500000Y-17800000D01*
X143500000Y-17800000D02*
X156500000Y-17800000D01*
X117500000Y-17800000D02*
X130500000Y-17800000D01*
X91500000Y-17800000D02*
X104500000Y-17800000D01*
X65500000Y-17800000D02*
X78500000Y-17800000D01*
X39500000Y-17800000D02*
X52500000Y-17800000D01*
X29900000Y-47800000D02*
G75*
G02X27500000Y-47800000I-1200000J0D01*
G01*
X10100000Y-18800000D02*
G75*
G02X12500000Y-18800000I1200000J0D01*
G01*
X13500000Y-17800000D02*
G75*
G02X13500000Y-15400000I0J1200000D01*
G01*
X27500000Y-18800000D02*
G75*
G02X29900000Y-18800000I1200000J0D01*
G01*
X26500000Y-15400000D02*
G75*
G02X26500000Y-17800000I0J-1200000D01*
G01*
X13500000Y-15400000D02*
X26500000Y-15400000D01*
X29900000Y-18800000D02*
X29900000Y-47800000D01*
X26500000Y-48800000D02*
G75*
G02X26500000Y-51200000I0J-1200000D01*
G01*
X13500000Y-51200000D02*
G75*
G02X13500000Y-48800000I0J1200000D01*
G01*
X13500000Y-51200000D02*
X26500000Y-51200000D01*
X12500000Y-47800000D02*
G75*
G02X10100000Y-47800000I-1200000J0D01*
G01*
X10100000Y-18800000D02*
X10100000Y-47800000D01*
D11*
X0Y-210000000D02*
X0Y0D01*
X300000000Y-210000000D02*
X0Y-210000000D01*
X300000000Y0D02*
X300000000Y-210000000D01*
X0Y0D02*
X300000000Y0D01*
D10*
X13500000Y-48800000D02*
X26500000Y-48800000D01*
X27500000Y-18800000D02*
X27500000Y-47800000D01*
X13500000Y-17800000D02*
X26500000Y-17800000D01*
X12500000Y-18800000D02*
X12500000Y-47800000D01*
M02*
