G04 #@! TF.GenerationSoftware,KiCad,Pcbnew,5.0.2+dfsg1-1*
G04 #@! TF.CreationDate,2019-07-08T23:05:53+03:00*
G04 #@! TF.ProjectId,PocketAdmin_Panel,506f636b-6574-4416-946d-696e5f50616e,1.2*
G04 #@! TF.SameCoordinates,PX3dfd240PYd8f5fe0*
G04 #@! TF.FileFunction,Profile,NP*
%FSLAX46Y46*%
G04 Gerber Fmt 4.6, Leading zero omitted, Abs format (unit mm)*
G04 Created by KiCad (PCBNEW 5.0.2+dfsg1-1) date Mon 08 Jul 2019 11:05:53 PM MSK*
%MOMM*%
%LPD*%
G01*
G04 APERTURE LIST*
%ADD10C,0.150000*%
%ADD11C,0.200000*%
G04 APERTURE END LIST*
D10*
X267500000Y35300000D02*
X267500000Y6300000D01*
X241500000Y35300000D02*
X241500000Y6300000D01*
X215500000Y35300000D02*
X215500000Y6300000D01*
X189500000Y35300000D02*
X189500000Y6300000D01*
X163500000Y35300000D02*
X163500000Y6300000D01*
X137500000Y35300000D02*
X137500000Y6300000D01*
X111500000Y35300000D02*
X111500000Y6300000D01*
X85500000Y35300000D02*
X85500000Y6300000D01*
X59500000Y35300000D02*
X59500000Y6300000D01*
X33500000Y35300000D02*
X33500000Y6300000D01*
X7500000Y35300000D02*
X7500000Y6300000D01*
X267500000Y83100000D02*
X267500000Y54100000D01*
X241500000Y83100000D02*
X241500000Y54100000D01*
X215500000Y83100000D02*
X215500000Y54100000D01*
X189500000Y83100000D02*
X189500000Y54100000D01*
X163500000Y83100000D02*
X163500000Y54100000D01*
X137500000Y83100000D02*
X137500000Y54100000D01*
X111500000Y83100000D02*
X111500000Y54100000D01*
X85500000Y83100000D02*
X85500000Y54100000D01*
X59500000Y83100000D02*
X59500000Y54100000D01*
X33500000Y83100000D02*
X33500000Y54100000D01*
X7500000Y83100000D02*
X7500000Y54100000D01*
X267500000Y130900000D02*
X267500000Y101900000D01*
X241500000Y130900000D02*
X241500000Y101900000D01*
X215500000Y130900000D02*
X215500000Y101900000D01*
X189500000Y130900000D02*
X189500000Y101900000D01*
X163500000Y130900000D02*
X163500000Y101900000D01*
X137500000Y130900000D02*
X137500000Y101900000D01*
X111500000Y130900000D02*
X111500000Y101900000D01*
X85500000Y130900000D02*
X85500000Y101900000D01*
X59500000Y130900000D02*
X59500000Y101900000D01*
X33500000Y130900000D02*
X33500000Y101900000D01*
X7500000Y130900000D02*
X7500000Y101900000D01*
X267500000Y178700000D02*
X267500000Y149700000D01*
X241500000Y178700000D02*
X241500000Y149700000D01*
X215500000Y178700000D02*
X215500000Y149700000D01*
X189500000Y178700000D02*
X189500000Y149700000D01*
X163500000Y178700000D02*
X163500000Y149700000D01*
X137500000Y178700000D02*
X137500000Y149700000D01*
X111500000Y178700000D02*
X111500000Y149700000D01*
X85500000Y178700000D02*
X85500000Y149700000D01*
X59500000Y178700000D02*
X59500000Y149700000D01*
X33500000Y178700000D02*
X33500000Y149700000D01*
X268500000Y36300000D02*
X281500000Y36300000D01*
X242500000Y36300000D02*
X255500000Y36300000D01*
X216500000Y36300000D02*
X229500000Y36300000D01*
X190500000Y36300000D02*
X203500000Y36300000D01*
X164500000Y36300000D02*
X177500000Y36300000D01*
X138500000Y36300000D02*
X151500000Y36300000D01*
X112500000Y36300000D02*
X125500000Y36300000D01*
X86500000Y36300000D02*
X99500000Y36300000D01*
X60500000Y36300000D02*
X73500000Y36300000D01*
X34500000Y36300000D02*
X47500000Y36300000D01*
X8500000Y36300000D02*
X21500000Y36300000D01*
X268500000Y84100000D02*
X281500000Y84100000D01*
X242500000Y84100000D02*
X255500000Y84100000D01*
X216500000Y84100000D02*
X229500000Y84100000D01*
X190500000Y84100000D02*
X203500000Y84100000D01*
X164500000Y84100000D02*
X177500000Y84100000D01*
X138500000Y84100000D02*
X151500000Y84100000D01*
X112500000Y84100000D02*
X125500000Y84100000D01*
X86500000Y84100000D02*
X99500000Y84100000D01*
X60500000Y84100000D02*
X73500000Y84100000D01*
X34500000Y84100000D02*
X47500000Y84100000D01*
X8500000Y84100000D02*
X21500000Y84100000D01*
X268500000Y131900000D02*
X281500000Y131900000D01*
X242500000Y131900000D02*
X255500000Y131900000D01*
X216500000Y131900000D02*
X229500000Y131900000D01*
X190500000Y131900000D02*
X203500000Y131900000D01*
X164500000Y131900000D02*
X177500000Y131900000D01*
X138500000Y131900000D02*
X151500000Y131900000D01*
X112500000Y131900000D02*
X125500000Y131900000D01*
X86500000Y131900000D02*
X99500000Y131900000D01*
X60500000Y131900000D02*
X73500000Y131900000D01*
X34500000Y131900000D02*
X47500000Y131900000D01*
X8500000Y131900000D02*
X21500000Y131900000D01*
X268500000Y179700000D02*
X281500000Y179700000D01*
X242500000Y179700000D02*
X255500000Y179700000D01*
X216500000Y179700000D02*
X229500000Y179700000D01*
X190500000Y179700000D02*
X203500000Y179700000D01*
X164500000Y179700000D02*
X177500000Y179700000D01*
X138500000Y179700000D02*
X151500000Y179700000D01*
X112500000Y179700000D02*
X125500000Y179700000D01*
X86500000Y179700000D02*
X99500000Y179700000D01*
X60500000Y179700000D02*
X73500000Y179700000D01*
X34500000Y179700000D02*
X47500000Y179700000D01*
X282500000Y35300000D02*
X282500000Y6300000D01*
X256500000Y35300000D02*
X256500000Y6300000D01*
X230500000Y35300000D02*
X230500000Y6300000D01*
X204500000Y35300000D02*
X204500000Y6300000D01*
X178500000Y35300000D02*
X178500000Y6300000D01*
X152500000Y35300000D02*
X152500000Y6300000D01*
X126500000Y35300000D02*
X126500000Y6300000D01*
X100500000Y35300000D02*
X100500000Y6300000D01*
X74500000Y35300000D02*
X74500000Y6300000D01*
X48500000Y35300000D02*
X48500000Y6300000D01*
X22500000Y35300000D02*
X22500000Y6300000D01*
X282500000Y83100000D02*
X282500000Y54100000D01*
X256500000Y83100000D02*
X256500000Y54100000D01*
X230500000Y83100000D02*
X230500000Y54100000D01*
X204500000Y83100000D02*
X204500000Y54100000D01*
X178500000Y83100000D02*
X178500000Y54100000D01*
X152500000Y83100000D02*
X152500000Y54100000D01*
X126500000Y83100000D02*
X126500000Y54100000D01*
X100500000Y83100000D02*
X100500000Y54100000D01*
X74500000Y83100000D02*
X74500000Y54100000D01*
X48500000Y83100000D02*
X48500000Y54100000D01*
X22500000Y83100000D02*
X22500000Y54100000D01*
X282500000Y130900000D02*
X282500000Y101900000D01*
X256500000Y130900000D02*
X256500000Y101900000D01*
X230500000Y130900000D02*
X230500000Y101900000D01*
X204500000Y130900000D02*
X204500000Y101900000D01*
X178500000Y130900000D02*
X178500000Y101900000D01*
X152500000Y130900000D02*
X152500000Y101900000D01*
X126500000Y130900000D02*
X126500000Y101900000D01*
X100500000Y130900000D02*
X100500000Y101900000D01*
X74500000Y130900000D02*
X74500000Y101900000D01*
X48500000Y130900000D02*
X48500000Y101900000D01*
X22500000Y130900000D02*
X22500000Y101900000D01*
X282500000Y178700000D02*
X282500000Y149700000D01*
X256500000Y178700000D02*
X256500000Y149700000D01*
X230500000Y178700000D02*
X230500000Y149700000D01*
X204500000Y178700000D02*
X204500000Y149700000D01*
X178500000Y178700000D02*
X178500000Y149700000D01*
X152500000Y178700000D02*
X152500000Y149700000D01*
X126500000Y178700000D02*
X126500000Y149700000D01*
X100500000Y178700000D02*
X100500000Y149700000D01*
X74500000Y178700000D02*
X74500000Y149700000D01*
X48500000Y178700000D02*
X48500000Y149700000D01*
X268500000Y5300000D02*
X281500000Y5300000D01*
X242500000Y5300000D02*
X255500000Y5300000D01*
X216500000Y5300000D02*
X229500000Y5300000D01*
X190500000Y5300000D02*
X203500000Y5300000D01*
X164500000Y5300000D02*
X177500000Y5300000D01*
X138500000Y5300000D02*
X151500000Y5300000D01*
X112500000Y5300000D02*
X125500000Y5300000D01*
X86500000Y5300000D02*
X99500000Y5300000D01*
X60500000Y5300000D02*
X73500000Y5300000D01*
X34500000Y5300000D02*
X47500000Y5300000D01*
X8500000Y5300000D02*
X21500000Y5300000D01*
X268500000Y53100000D02*
X281500000Y53100000D01*
X242500000Y53100000D02*
X255500000Y53100000D01*
X216500000Y53100000D02*
X229500000Y53100000D01*
X190500000Y53100000D02*
X203500000Y53100000D01*
X164500000Y53100000D02*
X177500000Y53100000D01*
X138500000Y53100000D02*
X151500000Y53100000D01*
X112500000Y53100000D02*
X125500000Y53100000D01*
X86500000Y53100000D02*
X99500000Y53100000D01*
X60500000Y53100000D02*
X73500000Y53100000D01*
X34500000Y53100000D02*
X47500000Y53100000D01*
X8500000Y53100000D02*
X21500000Y53100000D01*
X268500000Y100900000D02*
X281500000Y100900000D01*
X242500000Y100900000D02*
X255500000Y100900000D01*
X216500000Y100900000D02*
X229500000Y100900000D01*
X190500000Y100900000D02*
X203500000Y100900000D01*
X164500000Y100900000D02*
X177500000Y100900000D01*
X138500000Y100900000D02*
X151500000Y100900000D01*
X112500000Y100900000D02*
X125500000Y100900000D01*
X86500000Y100900000D02*
X99500000Y100900000D01*
X60500000Y100900000D02*
X73500000Y100900000D01*
X34500000Y100900000D02*
X47500000Y100900000D01*
X8500000Y100900000D02*
X21500000Y100900000D01*
X268500000Y148700000D02*
X281500000Y148700000D01*
X242500000Y148700000D02*
X255500000Y148700000D01*
X216500000Y148700000D02*
X229500000Y148700000D01*
X190500000Y148700000D02*
X203500000Y148700000D01*
X164500000Y148700000D02*
X177500000Y148700000D01*
X138500000Y148700000D02*
X151500000Y148700000D01*
X112500000Y148700000D02*
X125500000Y148700000D01*
X86500000Y148700000D02*
X99500000Y148700000D01*
X60500000Y148700000D02*
X73500000Y148700000D01*
X34500000Y148700000D02*
X47500000Y148700000D01*
X265100000Y35300000D02*
X265100000Y6300000D01*
X239100000Y35300000D02*
X239100000Y6300000D01*
X213100000Y35300000D02*
X213100000Y6300000D01*
X187100000Y35300000D02*
X187100000Y6300000D01*
X161100000Y35300000D02*
X161100000Y6300000D01*
X135100000Y35300000D02*
X135100000Y6300000D01*
X109100000Y35300000D02*
X109100000Y6300000D01*
X83100000Y35300000D02*
X83100000Y6300000D01*
X57100000Y35300000D02*
X57100000Y6300000D01*
X31100000Y35300000D02*
X31100000Y6300000D01*
X5100000Y35300000D02*
X5100000Y6300000D01*
X265100000Y83100000D02*
X265100000Y54100000D01*
X239100000Y83100000D02*
X239100000Y54100000D01*
X213100000Y83100000D02*
X213100000Y54100000D01*
X187100000Y83100000D02*
X187100000Y54100000D01*
X161100000Y83100000D02*
X161100000Y54100000D01*
X135100000Y83100000D02*
X135100000Y54100000D01*
X109100000Y83100000D02*
X109100000Y54100000D01*
X83100000Y83100000D02*
X83100000Y54100000D01*
X57100000Y83100000D02*
X57100000Y54100000D01*
X31100000Y83100000D02*
X31100000Y54100000D01*
X5100000Y83100000D02*
X5100000Y54100000D01*
X265100000Y130900000D02*
X265100000Y101900000D01*
X239100000Y130900000D02*
X239100000Y101900000D01*
X213100000Y130900000D02*
X213100000Y101900000D01*
X187100000Y130900000D02*
X187100000Y101900000D01*
X161100000Y130900000D02*
X161100000Y101900000D01*
X135100000Y130900000D02*
X135100000Y101900000D01*
X109100000Y130900000D02*
X109100000Y101900000D01*
X83100000Y130900000D02*
X83100000Y101900000D01*
X57100000Y130900000D02*
X57100000Y101900000D01*
X31100000Y130900000D02*
X31100000Y101900000D01*
X5100000Y130900000D02*
X5100000Y101900000D01*
X265100000Y178700000D02*
X265100000Y149700000D01*
X239100000Y178700000D02*
X239100000Y149700000D01*
X213100000Y178700000D02*
X213100000Y149700000D01*
X187100000Y178700000D02*
X187100000Y149700000D01*
X161100000Y178700000D02*
X161100000Y149700000D01*
X135100000Y178700000D02*
X135100000Y149700000D01*
X109100000Y178700000D02*
X109100000Y149700000D01*
X83100000Y178700000D02*
X83100000Y149700000D01*
X57100000Y178700000D02*
X57100000Y149700000D01*
X31100000Y178700000D02*
X31100000Y149700000D01*
X267500000Y6300000D02*
G75*
G02X265100000Y6300000I-1200000J0D01*
G01*
X241500000Y6300000D02*
G75*
G02X239100000Y6300000I-1200000J0D01*
G01*
X215500000Y6300000D02*
G75*
G02X213100000Y6300000I-1200000J0D01*
G01*
X189500000Y6300000D02*
G75*
G02X187100000Y6300000I-1200000J0D01*
G01*
X163500000Y6300000D02*
G75*
G02X161100000Y6300000I-1200000J0D01*
G01*
X137500000Y6300000D02*
G75*
G02X135100000Y6300000I-1200000J0D01*
G01*
X111500000Y6300000D02*
G75*
G02X109100000Y6300000I-1200000J0D01*
G01*
X85500000Y6300000D02*
G75*
G02X83100000Y6300000I-1200000J0D01*
G01*
X59500000Y6300000D02*
G75*
G02X57100000Y6300000I-1200000J0D01*
G01*
X33500000Y6300000D02*
G75*
G02X31100000Y6300000I-1200000J0D01*
G01*
X7500000Y6300000D02*
G75*
G02X5100000Y6300000I-1200000J0D01*
G01*
X267500000Y54100000D02*
G75*
G02X265100000Y54100000I-1200000J0D01*
G01*
X241500000Y54100000D02*
G75*
G02X239100000Y54100000I-1200000J0D01*
G01*
X215500000Y54100000D02*
G75*
G02X213100000Y54100000I-1200000J0D01*
G01*
X189500000Y54100000D02*
G75*
G02X187100000Y54100000I-1200000J0D01*
G01*
X163500000Y54100000D02*
G75*
G02X161100000Y54100000I-1200000J0D01*
G01*
X137500000Y54100000D02*
G75*
G02X135100000Y54100000I-1200000J0D01*
G01*
X111500000Y54100000D02*
G75*
G02X109100000Y54100000I-1200000J0D01*
G01*
X85500000Y54100000D02*
G75*
G02X83100000Y54100000I-1200000J0D01*
G01*
X59500000Y54100000D02*
G75*
G02X57100000Y54100000I-1200000J0D01*
G01*
X33500000Y54100000D02*
G75*
G02X31100000Y54100000I-1200000J0D01*
G01*
X7500000Y54100000D02*
G75*
G02X5100000Y54100000I-1200000J0D01*
G01*
X267500000Y101900000D02*
G75*
G02X265100000Y101900000I-1200000J0D01*
G01*
X241500000Y101900000D02*
G75*
G02X239100000Y101900000I-1200000J0D01*
G01*
X215500000Y101900000D02*
G75*
G02X213100000Y101900000I-1200000J0D01*
G01*
X189500000Y101900000D02*
G75*
G02X187100000Y101900000I-1200000J0D01*
G01*
X163500000Y101900000D02*
G75*
G02X161100000Y101900000I-1200000J0D01*
G01*
X137500000Y101900000D02*
G75*
G02X135100000Y101900000I-1200000J0D01*
G01*
X111500000Y101900000D02*
G75*
G02X109100000Y101900000I-1200000J0D01*
G01*
X85500000Y101900000D02*
G75*
G02X83100000Y101900000I-1200000J0D01*
G01*
X59500000Y101900000D02*
G75*
G02X57100000Y101900000I-1200000J0D01*
G01*
X33500000Y101900000D02*
G75*
G02X31100000Y101900000I-1200000J0D01*
G01*
X7500000Y101900000D02*
G75*
G02X5100000Y101900000I-1200000J0D01*
G01*
X267500000Y149700000D02*
G75*
G02X265100000Y149700000I-1200000J0D01*
G01*
X241500000Y149700000D02*
G75*
G02X239100000Y149700000I-1200000J0D01*
G01*
X215500000Y149700000D02*
G75*
G02X213100000Y149700000I-1200000J0D01*
G01*
X189500000Y149700000D02*
G75*
G02X187100000Y149700000I-1200000J0D01*
G01*
X163500000Y149700000D02*
G75*
G02X161100000Y149700000I-1200000J0D01*
G01*
X137500000Y149700000D02*
G75*
G02X135100000Y149700000I-1200000J0D01*
G01*
X111500000Y149700000D02*
G75*
G02X109100000Y149700000I-1200000J0D01*
G01*
X85500000Y149700000D02*
G75*
G02X83100000Y149700000I-1200000J0D01*
G01*
X59500000Y149700000D02*
G75*
G02X57100000Y149700000I-1200000J0D01*
G01*
X33500000Y149700000D02*
G75*
G02X31100000Y149700000I-1200000J0D01*
G01*
X268500000Y2900000D02*
X281500000Y2900000D01*
X242500000Y2900000D02*
X255500000Y2900000D01*
X216500000Y2900000D02*
X229500000Y2900000D01*
X190500000Y2900000D02*
X203500000Y2900000D01*
X164500000Y2900000D02*
X177500000Y2900000D01*
X138500000Y2900000D02*
X151500000Y2900000D01*
X112500000Y2900000D02*
X125500000Y2900000D01*
X86500000Y2900000D02*
X99500000Y2900000D01*
X60500000Y2900000D02*
X73500000Y2900000D01*
X34500000Y2900000D02*
X47500000Y2900000D01*
X8500000Y2900000D02*
X21500000Y2900000D01*
X268500000Y50700000D02*
X281500000Y50700000D01*
X242500000Y50700000D02*
X255500000Y50700000D01*
X216500000Y50700000D02*
X229500000Y50700000D01*
X190500000Y50700000D02*
X203500000Y50700000D01*
X164500000Y50700000D02*
X177500000Y50700000D01*
X138500000Y50700000D02*
X151500000Y50700000D01*
X112500000Y50700000D02*
X125500000Y50700000D01*
X86500000Y50700000D02*
X99500000Y50700000D01*
X60500000Y50700000D02*
X73500000Y50700000D01*
X34500000Y50700000D02*
X47500000Y50700000D01*
X8500000Y50700000D02*
X21500000Y50700000D01*
X268500000Y98500000D02*
X281500000Y98500000D01*
X242500000Y98500000D02*
X255500000Y98500000D01*
X216500000Y98500000D02*
X229500000Y98500000D01*
X190500000Y98500000D02*
X203500000Y98500000D01*
X164500000Y98500000D02*
X177500000Y98500000D01*
X138500000Y98500000D02*
X151500000Y98500000D01*
X112500000Y98500000D02*
X125500000Y98500000D01*
X86500000Y98500000D02*
X99500000Y98500000D01*
X60500000Y98500000D02*
X73500000Y98500000D01*
X34500000Y98500000D02*
X47500000Y98500000D01*
X8500000Y98500000D02*
X21500000Y98500000D01*
X268500000Y146300000D02*
X281500000Y146300000D01*
X242500000Y146300000D02*
X255500000Y146300000D01*
X216500000Y146300000D02*
X229500000Y146300000D01*
X190500000Y146300000D02*
X203500000Y146300000D01*
X164500000Y146300000D02*
X177500000Y146300000D01*
X138500000Y146300000D02*
X151500000Y146300000D01*
X112500000Y146300000D02*
X125500000Y146300000D01*
X86500000Y146300000D02*
X99500000Y146300000D01*
X60500000Y146300000D02*
X73500000Y146300000D01*
X34500000Y146300000D02*
X47500000Y146300000D01*
X268500000Y2900000D02*
G75*
G02X268500000Y5300000I0J1200000D01*
G01*
X242500000Y2900000D02*
G75*
G02X242500000Y5300000I0J1200000D01*
G01*
X216500000Y2900000D02*
G75*
G02X216500000Y5300000I0J1200000D01*
G01*
X190500000Y2900000D02*
G75*
G02X190500000Y5300000I0J1200000D01*
G01*
X164500000Y2900000D02*
G75*
G02X164500000Y5300000I0J1200000D01*
G01*
X138500000Y2900000D02*
G75*
G02X138500000Y5300000I0J1200000D01*
G01*
X112500000Y2900000D02*
G75*
G02X112500000Y5300000I0J1200000D01*
G01*
X86500000Y2900000D02*
G75*
G02X86500000Y5300000I0J1200000D01*
G01*
X60500000Y2900000D02*
G75*
G02X60500000Y5300000I0J1200000D01*
G01*
X34500000Y2900000D02*
G75*
G02X34500000Y5300000I0J1200000D01*
G01*
X8500000Y2900000D02*
G75*
G02X8500000Y5300000I0J1200000D01*
G01*
X268500000Y50700000D02*
G75*
G02X268500000Y53100000I0J1200000D01*
G01*
X242500000Y50700000D02*
G75*
G02X242500000Y53100000I0J1200000D01*
G01*
X216500000Y50700000D02*
G75*
G02X216500000Y53100000I0J1200000D01*
G01*
X190500000Y50700000D02*
G75*
G02X190500000Y53100000I0J1200000D01*
G01*
X164500000Y50700000D02*
G75*
G02X164500000Y53100000I0J1200000D01*
G01*
X138500000Y50700000D02*
G75*
G02X138500000Y53100000I0J1200000D01*
G01*
X112500000Y50700000D02*
G75*
G02X112500000Y53100000I0J1200000D01*
G01*
X86500000Y50700000D02*
G75*
G02X86500000Y53100000I0J1200000D01*
G01*
X60500000Y50700000D02*
G75*
G02X60500000Y53100000I0J1200000D01*
G01*
X34500000Y50700000D02*
G75*
G02X34500000Y53100000I0J1200000D01*
G01*
X8500000Y50700000D02*
G75*
G02X8500000Y53100000I0J1200000D01*
G01*
X268500000Y98500000D02*
G75*
G02X268500000Y100900000I0J1200000D01*
G01*
X242500000Y98500000D02*
G75*
G02X242500000Y100900000I0J1200000D01*
G01*
X216500000Y98500000D02*
G75*
G02X216500000Y100900000I0J1200000D01*
G01*
X190500000Y98500000D02*
G75*
G02X190500000Y100900000I0J1200000D01*
G01*
X164500000Y98500000D02*
G75*
G02X164500000Y100900000I0J1200000D01*
G01*
X138500000Y98500000D02*
G75*
G02X138500000Y100900000I0J1200000D01*
G01*
X112500000Y98500000D02*
G75*
G02X112500000Y100900000I0J1200000D01*
G01*
X86500000Y98500000D02*
G75*
G02X86500000Y100900000I0J1200000D01*
G01*
X60500000Y98500000D02*
G75*
G02X60500000Y100900000I0J1200000D01*
G01*
X34500000Y98500000D02*
G75*
G02X34500000Y100900000I0J1200000D01*
G01*
X8500000Y98500000D02*
G75*
G02X8500000Y100900000I0J1200000D01*
G01*
X268500000Y146300000D02*
G75*
G02X268500000Y148700000I0J1200000D01*
G01*
X242500000Y146300000D02*
G75*
G02X242500000Y148700000I0J1200000D01*
G01*
X216500000Y146300000D02*
G75*
G02X216500000Y148700000I0J1200000D01*
G01*
X190500000Y146300000D02*
G75*
G02X190500000Y148700000I0J1200000D01*
G01*
X164500000Y146300000D02*
G75*
G02X164500000Y148700000I0J1200000D01*
G01*
X138500000Y146300000D02*
G75*
G02X138500000Y148700000I0J1200000D01*
G01*
X112500000Y146300000D02*
G75*
G02X112500000Y148700000I0J1200000D01*
G01*
X86500000Y146300000D02*
G75*
G02X86500000Y148700000I0J1200000D01*
G01*
X60500000Y146300000D02*
G75*
G02X60500000Y148700000I0J1200000D01*
G01*
X34500000Y146300000D02*
G75*
G02X34500000Y148700000I0J1200000D01*
G01*
X281500000Y5300000D02*
G75*
G02X281500000Y2900000I0J-1200000D01*
G01*
X255500000Y5300000D02*
G75*
G02X255500000Y2900000I0J-1200000D01*
G01*
X229500000Y5300000D02*
G75*
G02X229500000Y2900000I0J-1200000D01*
G01*
X203500000Y5300000D02*
G75*
G02X203500000Y2900000I0J-1200000D01*
G01*
X177500000Y5300000D02*
G75*
G02X177500000Y2900000I0J-1200000D01*
G01*
X151500000Y5300000D02*
G75*
G02X151500000Y2900000I0J-1200000D01*
G01*
X125500000Y5300000D02*
G75*
G02X125500000Y2900000I0J-1200000D01*
G01*
X99500000Y5300000D02*
G75*
G02X99500000Y2900000I0J-1200000D01*
G01*
X73500000Y5300000D02*
G75*
G02X73500000Y2900000I0J-1200000D01*
G01*
X47500000Y5300000D02*
G75*
G02X47500000Y2900000I0J-1200000D01*
G01*
X21500000Y5300000D02*
G75*
G02X21500000Y2900000I0J-1200000D01*
G01*
X281500000Y53100000D02*
G75*
G02X281500000Y50700000I0J-1200000D01*
G01*
X255500000Y53100000D02*
G75*
G02X255500000Y50700000I0J-1200000D01*
G01*
X229500000Y53100000D02*
G75*
G02X229500000Y50700000I0J-1200000D01*
G01*
X203500000Y53100000D02*
G75*
G02X203500000Y50700000I0J-1200000D01*
G01*
X177500000Y53100000D02*
G75*
G02X177500000Y50700000I0J-1200000D01*
G01*
X151500000Y53100000D02*
G75*
G02X151500000Y50700000I0J-1200000D01*
G01*
X125500000Y53100000D02*
G75*
G02X125500000Y50700000I0J-1200000D01*
G01*
X99500000Y53100000D02*
G75*
G02X99500000Y50700000I0J-1200000D01*
G01*
X73500000Y53100000D02*
G75*
G02X73500000Y50700000I0J-1200000D01*
G01*
X47500000Y53100000D02*
G75*
G02X47500000Y50700000I0J-1200000D01*
G01*
X21500000Y53100000D02*
G75*
G02X21500000Y50700000I0J-1200000D01*
G01*
X281500000Y100900000D02*
G75*
G02X281500000Y98500000I0J-1200000D01*
G01*
X255500000Y100900000D02*
G75*
G02X255500000Y98500000I0J-1200000D01*
G01*
X229500000Y100900000D02*
G75*
G02X229500000Y98500000I0J-1200000D01*
G01*
X203500000Y100900000D02*
G75*
G02X203500000Y98500000I0J-1200000D01*
G01*
X177500000Y100900000D02*
G75*
G02X177500000Y98500000I0J-1200000D01*
G01*
X151500000Y100900000D02*
G75*
G02X151500000Y98500000I0J-1200000D01*
G01*
X125500000Y100900000D02*
G75*
G02X125500000Y98500000I0J-1200000D01*
G01*
X99500000Y100900000D02*
G75*
G02X99500000Y98500000I0J-1200000D01*
G01*
X73500000Y100900000D02*
G75*
G02X73500000Y98500000I0J-1200000D01*
G01*
X47500000Y100900000D02*
G75*
G02X47500000Y98500000I0J-1200000D01*
G01*
X21500000Y100900000D02*
G75*
G02X21500000Y98500000I0J-1200000D01*
G01*
X281500000Y148700000D02*
G75*
G02X281500000Y146300000I0J-1200000D01*
G01*
X255500000Y148700000D02*
G75*
G02X255500000Y146300000I0J-1200000D01*
G01*
X229500000Y148700000D02*
G75*
G02X229500000Y146300000I0J-1200000D01*
G01*
X203500000Y148700000D02*
G75*
G02X203500000Y146300000I0J-1200000D01*
G01*
X177500000Y148700000D02*
G75*
G02X177500000Y146300000I0J-1200000D01*
G01*
X151500000Y148700000D02*
G75*
G02X151500000Y146300000I0J-1200000D01*
G01*
X125500000Y148700000D02*
G75*
G02X125500000Y146300000I0J-1200000D01*
G01*
X99500000Y148700000D02*
G75*
G02X99500000Y146300000I0J-1200000D01*
G01*
X73500000Y148700000D02*
G75*
G02X73500000Y146300000I0J-1200000D01*
G01*
X47500000Y148700000D02*
G75*
G02X47500000Y146300000I0J-1200000D01*
G01*
X284900000Y35300000D02*
X284900000Y6300000D01*
X258900000Y35300000D02*
X258900000Y6300000D01*
X232900000Y35300000D02*
X232900000Y6300000D01*
X206900000Y35300000D02*
X206900000Y6300000D01*
X180900000Y35300000D02*
X180900000Y6300000D01*
X154900000Y35300000D02*
X154900000Y6300000D01*
X128900000Y35300000D02*
X128900000Y6300000D01*
X102900000Y35300000D02*
X102900000Y6300000D01*
X76900000Y35300000D02*
X76900000Y6300000D01*
X50900000Y35300000D02*
X50900000Y6300000D01*
X24900000Y35300000D02*
X24900000Y6300000D01*
X284900000Y83100000D02*
X284900000Y54100000D01*
X258900000Y83100000D02*
X258900000Y54100000D01*
X232900000Y83100000D02*
X232900000Y54100000D01*
X206900000Y83100000D02*
X206900000Y54100000D01*
X180900000Y83100000D02*
X180900000Y54100000D01*
X154900000Y83100000D02*
X154900000Y54100000D01*
X128900000Y83100000D02*
X128900000Y54100000D01*
X102900000Y83100000D02*
X102900000Y54100000D01*
X76900000Y83100000D02*
X76900000Y54100000D01*
X50900000Y83100000D02*
X50900000Y54100000D01*
X24900000Y83100000D02*
X24900000Y54100000D01*
X284900000Y130900000D02*
X284900000Y101900000D01*
X258900000Y130900000D02*
X258900000Y101900000D01*
X232900000Y130900000D02*
X232900000Y101900000D01*
X206900000Y130900000D02*
X206900000Y101900000D01*
X180900000Y130900000D02*
X180900000Y101900000D01*
X154900000Y130900000D02*
X154900000Y101900000D01*
X128900000Y130900000D02*
X128900000Y101900000D01*
X102900000Y130900000D02*
X102900000Y101900000D01*
X76900000Y130900000D02*
X76900000Y101900000D01*
X50900000Y130900000D02*
X50900000Y101900000D01*
X24900000Y130900000D02*
X24900000Y101900000D01*
X284900000Y178700000D02*
X284900000Y149700000D01*
X258900000Y178700000D02*
X258900000Y149700000D01*
X232900000Y178700000D02*
X232900000Y149700000D01*
X206900000Y178700000D02*
X206900000Y149700000D01*
X180900000Y178700000D02*
X180900000Y149700000D01*
X154900000Y178700000D02*
X154900000Y149700000D01*
X128900000Y178700000D02*
X128900000Y149700000D01*
X102900000Y178700000D02*
X102900000Y149700000D01*
X76900000Y178700000D02*
X76900000Y149700000D01*
X50900000Y178700000D02*
X50900000Y149700000D01*
X268500000Y38700000D02*
X281500000Y38700000D01*
X242500000Y38700000D02*
X255500000Y38700000D01*
X216500000Y38700000D02*
X229500000Y38700000D01*
X190500000Y38700000D02*
X203500000Y38700000D01*
X164500000Y38700000D02*
X177500000Y38700000D01*
X138500000Y38700000D02*
X151500000Y38700000D01*
X112500000Y38700000D02*
X125500000Y38700000D01*
X86500000Y38700000D02*
X99500000Y38700000D01*
X60500000Y38700000D02*
X73500000Y38700000D01*
X34500000Y38700000D02*
X47500000Y38700000D01*
X8500000Y38700000D02*
X21500000Y38700000D01*
X268500000Y86500000D02*
X281500000Y86500000D01*
X242500000Y86500000D02*
X255500000Y86500000D01*
X216500000Y86500000D02*
X229500000Y86500000D01*
X190500000Y86500000D02*
X203500000Y86500000D01*
X164500000Y86500000D02*
X177500000Y86500000D01*
X138500000Y86500000D02*
X151500000Y86500000D01*
X112500000Y86500000D02*
X125500000Y86500000D01*
X86500000Y86500000D02*
X99500000Y86500000D01*
X60500000Y86500000D02*
X73500000Y86500000D01*
X34500000Y86500000D02*
X47500000Y86500000D01*
X8500000Y86500000D02*
X21500000Y86500000D01*
X268500000Y134300000D02*
X281500000Y134300000D01*
X242500000Y134300000D02*
X255500000Y134300000D01*
X216500000Y134300000D02*
X229500000Y134300000D01*
X190500000Y134300000D02*
X203500000Y134300000D01*
X164500000Y134300000D02*
X177500000Y134300000D01*
X138500000Y134300000D02*
X151500000Y134300000D01*
X112500000Y134300000D02*
X125500000Y134300000D01*
X86500000Y134300000D02*
X99500000Y134300000D01*
X60500000Y134300000D02*
X73500000Y134300000D01*
X34500000Y134300000D02*
X47500000Y134300000D01*
X8500000Y134300000D02*
X21500000Y134300000D01*
X268500000Y182100000D02*
X281500000Y182100000D01*
X242500000Y182100000D02*
X255500000Y182100000D01*
X216500000Y182100000D02*
X229500000Y182100000D01*
X190500000Y182100000D02*
X203500000Y182100000D01*
X164500000Y182100000D02*
X177500000Y182100000D01*
X138500000Y182100000D02*
X151500000Y182100000D01*
X112500000Y182100000D02*
X125500000Y182100000D01*
X86500000Y182100000D02*
X99500000Y182100000D01*
X60500000Y182100000D02*
X73500000Y182100000D01*
X34500000Y182100000D02*
X47500000Y182100000D01*
X281500000Y38700000D02*
G75*
G02X281500000Y36300000I0J-1200000D01*
G01*
X255500000Y38700000D02*
G75*
G02X255500000Y36300000I0J-1200000D01*
G01*
X229500000Y38700000D02*
G75*
G02X229500000Y36300000I0J-1200000D01*
G01*
X203500000Y38700000D02*
G75*
G02X203500000Y36300000I0J-1200000D01*
G01*
X177500000Y38700000D02*
G75*
G02X177500000Y36300000I0J-1200000D01*
G01*
X151500000Y38700000D02*
G75*
G02X151500000Y36300000I0J-1200000D01*
G01*
X125500000Y38700000D02*
G75*
G02X125500000Y36300000I0J-1200000D01*
G01*
X99500000Y38700000D02*
G75*
G02X99500000Y36300000I0J-1200000D01*
G01*
X73500000Y38700000D02*
G75*
G02X73500000Y36300000I0J-1200000D01*
G01*
X47500000Y38700000D02*
G75*
G02X47500000Y36300000I0J-1200000D01*
G01*
X21500000Y38700000D02*
G75*
G02X21500000Y36300000I0J-1200000D01*
G01*
X281500000Y86500000D02*
G75*
G02X281500000Y84100000I0J-1200000D01*
G01*
X255500000Y86500000D02*
G75*
G02X255500000Y84100000I0J-1200000D01*
G01*
X229500000Y86500000D02*
G75*
G02X229500000Y84100000I0J-1200000D01*
G01*
X203500000Y86500000D02*
G75*
G02X203500000Y84100000I0J-1200000D01*
G01*
X177500000Y86500000D02*
G75*
G02X177500000Y84100000I0J-1200000D01*
G01*
X151500000Y86500000D02*
G75*
G02X151500000Y84100000I0J-1200000D01*
G01*
X125500000Y86500000D02*
G75*
G02X125500000Y84100000I0J-1200000D01*
G01*
X99500000Y86500000D02*
G75*
G02X99500000Y84100000I0J-1200000D01*
G01*
X73500000Y86500000D02*
G75*
G02X73500000Y84100000I0J-1200000D01*
G01*
X47500000Y86500000D02*
G75*
G02X47500000Y84100000I0J-1200000D01*
G01*
X21500000Y86500000D02*
G75*
G02X21500000Y84100000I0J-1200000D01*
G01*
X281500000Y134300000D02*
G75*
G02X281500000Y131900000I0J-1200000D01*
G01*
X255500000Y134300000D02*
G75*
G02X255500000Y131900000I0J-1200000D01*
G01*
X229500000Y134300000D02*
G75*
G02X229500000Y131900000I0J-1200000D01*
G01*
X203500000Y134300000D02*
G75*
G02X203500000Y131900000I0J-1200000D01*
G01*
X177500000Y134300000D02*
G75*
G02X177500000Y131900000I0J-1200000D01*
G01*
X151500000Y134300000D02*
G75*
G02X151500000Y131900000I0J-1200000D01*
G01*
X125500000Y134300000D02*
G75*
G02X125500000Y131900000I0J-1200000D01*
G01*
X99500000Y134300000D02*
G75*
G02X99500000Y131900000I0J-1200000D01*
G01*
X73500000Y134300000D02*
G75*
G02X73500000Y131900000I0J-1200000D01*
G01*
X47500000Y134300000D02*
G75*
G02X47500000Y131900000I0J-1200000D01*
G01*
X21500000Y134300000D02*
G75*
G02X21500000Y131900000I0J-1200000D01*
G01*
X281500000Y182100000D02*
G75*
G02X281500000Y179700000I0J-1200000D01*
G01*
X255500000Y182100000D02*
G75*
G02X255500000Y179700000I0J-1200000D01*
G01*
X229500000Y182100000D02*
G75*
G02X229500000Y179700000I0J-1200000D01*
G01*
X203500000Y182100000D02*
G75*
G02X203500000Y179700000I0J-1200000D01*
G01*
X177500000Y182100000D02*
G75*
G02X177500000Y179700000I0J-1200000D01*
G01*
X151500000Y182100000D02*
G75*
G02X151500000Y179700000I0J-1200000D01*
G01*
X125500000Y182100000D02*
G75*
G02X125500000Y179700000I0J-1200000D01*
G01*
X99500000Y182100000D02*
G75*
G02X99500000Y179700000I0J-1200000D01*
G01*
X73500000Y182100000D02*
G75*
G02X73500000Y179700000I0J-1200000D01*
G01*
X47500000Y182100000D02*
G75*
G02X47500000Y179700000I0J-1200000D01*
G01*
X282500000Y35300000D02*
G75*
G02X284900000Y35300000I1200000J0D01*
G01*
X256500000Y35300000D02*
G75*
G02X258900000Y35300000I1200000J0D01*
G01*
X230500000Y35300000D02*
G75*
G02X232900000Y35300000I1200000J0D01*
G01*
X204500000Y35300000D02*
G75*
G02X206900000Y35300000I1200000J0D01*
G01*
X178500000Y35300000D02*
G75*
G02X180900000Y35300000I1200000J0D01*
G01*
X152500000Y35300000D02*
G75*
G02X154900000Y35300000I1200000J0D01*
G01*
X126500000Y35300000D02*
G75*
G02X128900000Y35300000I1200000J0D01*
G01*
X100500000Y35300000D02*
G75*
G02X102900000Y35300000I1200000J0D01*
G01*
X74500000Y35300000D02*
G75*
G02X76900000Y35300000I1200000J0D01*
G01*
X48500000Y35300000D02*
G75*
G02X50900000Y35300000I1200000J0D01*
G01*
X22500000Y35300000D02*
G75*
G02X24900000Y35300000I1200000J0D01*
G01*
X282500000Y83100000D02*
G75*
G02X284900000Y83100000I1200000J0D01*
G01*
X256500000Y83100000D02*
G75*
G02X258900000Y83100000I1200000J0D01*
G01*
X230500000Y83100000D02*
G75*
G02X232900000Y83100000I1200000J0D01*
G01*
X204500000Y83100000D02*
G75*
G02X206900000Y83100000I1200000J0D01*
G01*
X178500000Y83100000D02*
G75*
G02X180900000Y83100000I1200000J0D01*
G01*
X152500000Y83100000D02*
G75*
G02X154900000Y83100000I1200000J0D01*
G01*
X126500000Y83100000D02*
G75*
G02X128900000Y83100000I1200000J0D01*
G01*
X100500000Y83100000D02*
G75*
G02X102900000Y83100000I1200000J0D01*
G01*
X74500000Y83100000D02*
G75*
G02X76900000Y83100000I1200000J0D01*
G01*
X48500000Y83100000D02*
G75*
G02X50900000Y83100000I1200000J0D01*
G01*
X22500000Y83100000D02*
G75*
G02X24900000Y83100000I1200000J0D01*
G01*
X282500000Y130900000D02*
G75*
G02X284900000Y130900000I1200000J0D01*
G01*
X256500000Y130900000D02*
G75*
G02X258900000Y130900000I1200000J0D01*
G01*
X230500000Y130900000D02*
G75*
G02X232900000Y130900000I1200000J0D01*
G01*
X204500000Y130900000D02*
G75*
G02X206900000Y130900000I1200000J0D01*
G01*
X178500000Y130900000D02*
G75*
G02X180900000Y130900000I1200000J0D01*
G01*
X152500000Y130900000D02*
G75*
G02X154900000Y130900000I1200000J0D01*
G01*
X126500000Y130900000D02*
G75*
G02X128900000Y130900000I1200000J0D01*
G01*
X100500000Y130900000D02*
G75*
G02X102900000Y130900000I1200000J0D01*
G01*
X74500000Y130900000D02*
G75*
G02X76900000Y130900000I1200000J0D01*
G01*
X48500000Y130900000D02*
G75*
G02X50900000Y130900000I1200000J0D01*
G01*
X22500000Y130900000D02*
G75*
G02X24900000Y130900000I1200000J0D01*
G01*
X282500000Y178700000D02*
G75*
G02X284900000Y178700000I1200000J0D01*
G01*
X256500000Y178700000D02*
G75*
G02X258900000Y178700000I1200000J0D01*
G01*
X230500000Y178700000D02*
G75*
G02X232900000Y178700000I1200000J0D01*
G01*
X204500000Y178700000D02*
G75*
G02X206900000Y178700000I1200000J0D01*
G01*
X178500000Y178700000D02*
G75*
G02X180900000Y178700000I1200000J0D01*
G01*
X152500000Y178700000D02*
G75*
G02X154900000Y178700000I1200000J0D01*
G01*
X126500000Y178700000D02*
G75*
G02X128900000Y178700000I1200000J0D01*
G01*
X100500000Y178700000D02*
G75*
G02X102900000Y178700000I1200000J0D01*
G01*
X74500000Y178700000D02*
G75*
G02X76900000Y178700000I1200000J0D01*
G01*
X48500000Y178700000D02*
G75*
G02X50900000Y178700000I1200000J0D01*
G01*
X268500000Y36300000D02*
G75*
G02X268500000Y38700000I0J1200000D01*
G01*
X242500000Y36300000D02*
G75*
G02X242500000Y38700000I0J1200000D01*
G01*
X216500000Y36300000D02*
G75*
G02X216500000Y38700000I0J1200000D01*
G01*
X190500000Y36300000D02*
G75*
G02X190500000Y38700000I0J1200000D01*
G01*
X164500000Y36300000D02*
G75*
G02X164500000Y38700000I0J1200000D01*
G01*
X138500000Y36300000D02*
G75*
G02X138500000Y38700000I0J1200000D01*
G01*
X112500000Y36300000D02*
G75*
G02X112500000Y38700000I0J1200000D01*
G01*
X86500000Y36300000D02*
G75*
G02X86500000Y38700000I0J1200000D01*
G01*
X60500000Y36300000D02*
G75*
G02X60500000Y38700000I0J1200000D01*
G01*
X34500000Y36300000D02*
G75*
G02X34500000Y38700000I0J1200000D01*
G01*
X8500000Y36300000D02*
G75*
G02X8500000Y38700000I0J1200000D01*
G01*
X268500000Y84100000D02*
G75*
G02X268500000Y86500000I0J1200000D01*
G01*
X242500000Y84100000D02*
G75*
G02X242500000Y86500000I0J1200000D01*
G01*
X216500000Y84100000D02*
G75*
G02X216500000Y86500000I0J1200000D01*
G01*
X190500000Y84100000D02*
G75*
G02X190500000Y86500000I0J1200000D01*
G01*
X164500000Y84100000D02*
G75*
G02X164500000Y86500000I0J1200000D01*
G01*
X138500000Y84100000D02*
G75*
G02X138500000Y86500000I0J1200000D01*
G01*
X112500000Y84100000D02*
G75*
G02X112500000Y86500000I0J1200000D01*
G01*
X86500000Y84100000D02*
G75*
G02X86500000Y86500000I0J1200000D01*
G01*
X60500000Y84100000D02*
G75*
G02X60500000Y86500000I0J1200000D01*
G01*
X34500000Y84100000D02*
G75*
G02X34500000Y86500000I0J1200000D01*
G01*
X8500000Y84100000D02*
G75*
G02X8500000Y86500000I0J1200000D01*
G01*
X268500000Y131900000D02*
G75*
G02X268500000Y134300000I0J1200000D01*
G01*
X242500000Y131900000D02*
G75*
G02X242500000Y134300000I0J1200000D01*
G01*
X216500000Y131900000D02*
G75*
G02X216500000Y134300000I0J1200000D01*
G01*
X190500000Y131900000D02*
G75*
G02X190500000Y134300000I0J1200000D01*
G01*
X164500000Y131900000D02*
G75*
G02X164500000Y134300000I0J1200000D01*
G01*
X138500000Y131900000D02*
G75*
G02X138500000Y134300000I0J1200000D01*
G01*
X112500000Y131900000D02*
G75*
G02X112500000Y134300000I0J1200000D01*
G01*
X86500000Y131900000D02*
G75*
G02X86500000Y134300000I0J1200000D01*
G01*
X60500000Y131900000D02*
G75*
G02X60500000Y134300000I0J1200000D01*
G01*
X34500000Y131900000D02*
G75*
G02X34500000Y134300000I0J1200000D01*
G01*
X8500000Y131900000D02*
G75*
G02X8500000Y134300000I0J1200000D01*
G01*
X268500000Y179700000D02*
G75*
G02X268500000Y182100000I0J1200000D01*
G01*
X242500000Y179700000D02*
G75*
G02X242500000Y182100000I0J1200000D01*
G01*
X216500000Y179700000D02*
G75*
G02X216500000Y182100000I0J1200000D01*
G01*
X190500000Y179700000D02*
G75*
G02X190500000Y182100000I0J1200000D01*
G01*
X164500000Y179700000D02*
G75*
G02X164500000Y182100000I0J1200000D01*
G01*
X138500000Y179700000D02*
G75*
G02X138500000Y182100000I0J1200000D01*
G01*
X112500000Y179700000D02*
G75*
G02X112500000Y182100000I0J1200000D01*
G01*
X86500000Y179700000D02*
G75*
G02X86500000Y182100000I0J1200000D01*
G01*
X60500000Y179700000D02*
G75*
G02X60500000Y182100000I0J1200000D01*
G01*
X34500000Y179700000D02*
G75*
G02X34500000Y182100000I0J1200000D01*
G01*
X265100000Y35300000D02*
G75*
G02X267500000Y35300000I1200000J0D01*
G01*
X239100000Y35300000D02*
G75*
G02X241500000Y35300000I1200000J0D01*
G01*
X213100000Y35300000D02*
G75*
G02X215500000Y35300000I1200000J0D01*
G01*
X187100000Y35300000D02*
G75*
G02X189500000Y35300000I1200000J0D01*
G01*
X161100000Y35300000D02*
G75*
G02X163500000Y35300000I1200000J0D01*
G01*
X135100000Y35300000D02*
G75*
G02X137500000Y35300000I1200000J0D01*
G01*
X109100000Y35300000D02*
G75*
G02X111500000Y35300000I1200000J0D01*
G01*
X83100000Y35300000D02*
G75*
G02X85500000Y35300000I1200000J0D01*
G01*
X57100000Y35300000D02*
G75*
G02X59500000Y35300000I1200000J0D01*
G01*
X31100000Y35300000D02*
G75*
G02X33500000Y35300000I1200000J0D01*
G01*
X5100000Y35300000D02*
G75*
G02X7500000Y35300000I1200000J0D01*
G01*
X265100000Y83100000D02*
G75*
G02X267500000Y83100000I1200000J0D01*
G01*
X239100000Y83100000D02*
G75*
G02X241500000Y83100000I1200000J0D01*
G01*
X213100000Y83100000D02*
G75*
G02X215500000Y83100000I1200000J0D01*
G01*
X187100000Y83100000D02*
G75*
G02X189500000Y83100000I1200000J0D01*
G01*
X161100000Y83100000D02*
G75*
G02X163500000Y83100000I1200000J0D01*
G01*
X135100000Y83100000D02*
G75*
G02X137500000Y83100000I1200000J0D01*
G01*
X109100000Y83100000D02*
G75*
G02X111500000Y83100000I1200000J0D01*
G01*
X83100000Y83100000D02*
G75*
G02X85500000Y83100000I1200000J0D01*
G01*
X57100000Y83100000D02*
G75*
G02X59500000Y83100000I1200000J0D01*
G01*
X31100000Y83100000D02*
G75*
G02X33500000Y83100000I1200000J0D01*
G01*
X5100000Y83100000D02*
G75*
G02X7500000Y83100000I1200000J0D01*
G01*
X265100000Y130900000D02*
G75*
G02X267500000Y130900000I1200000J0D01*
G01*
X239100000Y130900000D02*
G75*
G02X241500000Y130900000I1200000J0D01*
G01*
X213100000Y130900000D02*
G75*
G02X215500000Y130900000I1200000J0D01*
G01*
X187100000Y130900000D02*
G75*
G02X189500000Y130900000I1200000J0D01*
G01*
X161100000Y130900000D02*
G75*
G02X163500000Y130900000I1200000J0D01*
G01*
X135100000Y130900000D02*
G75*
G02X137500000Y130900000I1200000J0D01*
G01*
X109100000Y130900000D02*
G75*
G02X111500000Y130900000I1200000J0D01*
G01*
X83100000Y130900000D02*
G75*
G02X85500000Y130900000I1200000J0D01*
G01*
X57100000Y130900000D02*
G75*
G02X59500000Y130900000I1200000J0D01*
G01*
X31100000Y130900000D02*
G75*
G02X33500000Y130900000I1200000J0D01*
G01*
X5100000Y130900000D02*
G75*
G02X7500000Y130900000I1200000J0D01*
G01*
X265100000Y178700000D02*
G75*
G02X267500000Y178700000I1200000J0D01*
G01*
X239100000Y178700000D02*
G75*
G02X241500000Y178700000I1200000J0D01*
G01*
X213100000Y178700000D02*
G75*
G02X215500000Y178700000I1200000J0D01*
G01*
X187100000Y178700000D02*
G75*
G02X189500000Y178700000I1200000J0D01*
G01*
X161100000Y178700000D02*
G75*
G02X163500000Y178700000I1200000J0D01*
G01*
X135100000Y178700000D02*
G75*
G02X137500000Y178700000I1200000J0D01*
G01*
X109100000Y178700000D02*
G75*
G02X111500000Y178700000I1200000J0D01*
G01*
X83100000Y178700000D02*
G75*
G02X85500000Y178700000I1200000J0D01*
G01*
X57100000Y178700000D02*
G75*
G02X59500000Y178700000I1200000J0D01*
G01*
X31100000Y178700000D02*
G75*
G02X33500000Y178700000I1200000J0D01*
G01*
X284900000Y6300000D02*
G75*
G02X282500000Y6300000I-1200000J0D01*
G01*
X258900000Y6300000D02*
G75*
G02X256500000Y6300000I-1200000J0D01*
G01*
X232900000Y6300000D02*
G75*
G02X230500000Y6300000I-1200000J0D01*
G01*
X206900000Y6300000D02*
G75*
G02X204500000Y6300000I-1200000J0D01*
G01*
X180900000Y6300000D02*
G75*
G02X178500000Y6300000I-1200000J0D01*
G01*
X154900000Y6300000D02*
G75*
G02X152500000Y6300000I-1200000J0D01*
G01*
X128900000Y6300000D02*
G75*
G02X126500000Y6300000I-1200000J0D01*
G01*
X102900000Y6300000D02*
G75*
G02X100500000Y6300000I-1200000J0D01*
G01*
X76900000Y6300000D02*
G75*
G02X74500000Y6300000I-1200000J0D01*
G01*
X50900000Y6300000D02*
G75*
G02X48500000Y6300000I-1200000J0D01*
G01*
X24900000Y6300000D02*
G75*
G02X22500000Y6300000I-1200000J0D01*
G01*
X284900000Y54100000D02*
G75*
G02X282500000Y54100000I-1200000J0D01*
G01*
X258900000Y54100000D02*
G75*
G02X256500000Y54100000I-1200000J0D01*
G01*
X232900000Y54100000D02*
G75*
G02X230500000Y54100000I-1200000J0D01*
G01*
X206900000Y54100000D02*
G75*
G02X204500000Y54100000I-1200000J0D01*
G01*
X180900000Y54100000D02*
G75*
G02X178500000Y54100000I-1200000J0D01*
G01*
X154900000Y54100000D02*
G75*
G02X152500000Y54100000I-1200000J0D01*
G01*
X128900000Y54100000D02*
G75*
G02X126500000Y54100000I-1200000J0D01*
G01*
X102900000Y54100000D02*
G75*
G02X100500000Y54100000I-1200000J0D01*
G01*
X76900000Y54100000D02*
G75*
G02X74500000Y54100000I-1200000J0D01*
G01*
X50900000Y54100000D02*
G75*
G02X48500000Y54100000I-1200000J0D01*
G01*
X24900000Y54100000D02*
G75*
G02X22500000Y54100000I-1200000J0D01*
G01*
X284900000Y101900000D02*
G75*
G02X282500000Y101900000I-1200000J0D01*
G01*
X258900000Y101900000D02*
G75*
G02X256500000Y101900000I-1200000J0D01*
G01*
X232900000Y101900000D02*
G75*
G02X230500000Y101900000I-1200000J0D01*
G01*
X206900000Y101900000D02*
G75*
G02X204500000Y101900000I-1200000J0D01*
G01*
X180900000Y101900000D02*
G75*
G02X178500000Y101900000I-1200000J0D01*
G01*
X154900000Y101900000D02*
G75*
G02X152500000Y101900000I-1200000J0D01*
G01*
X128900000Y101900000D02*
G75*
G02X126500000Y101900000I-1200000J0D01*
G01*
X102900000Y101900000D02*
G75*
G02X100500000Y101900000I-1200000J0D01*
G01*
X76900000Y101900000D02*
G75*
G02X74500000Y101900000I-1200000J0D01*
G01*
X50900000Y101900000D02*
G75*
G02X48500000Y101900000I-1200000J0D01*
G01*
X24900000Y101900000D02*
G75*
G02X22500000Y101900000I-1200000J0D01*
G01*
X284900000Y149700000D02*
G75*
G02X282500000Y149700000I-1200000J0D01*
G01*
X258900000Y149700000D02*
G75*
G02X256500000Y149700000I-1200000J0D01*
G01*
X232900000Y149700000D02*
G75*
G02X230500000Y149700000I-1200000J0D01*
G01*
X206900000Y149700000D02*
G75*
G02X204500000Y149700000I-1200000J0D01*
G01*
X180900000Y149700000D02*
G75*
G02X178500000Y149700000I-1200000J0D01*
G01*
X154900000Y149700000D02*
G75*
G02X152500000Y149700000I-1200000J0D01*
G01*
X128900000Y149700000D02*
G75*
G02X126500000Y149700000I-1200000J0D01*
G01*
X102900000Y149700000D02*
G75*
G02X100500000Y149700000I-1200000J0D01*
G01*
X76900000Y149700000D02*
G75*
G02X74500000Y149700000I-1200000J0D01*
G01*
X50900000Y149700000D02*
G75*
G02X48500000Y149700000I-1200000J0D01*
G01*
X24900000Y149700000D02*
G75*
G02X22500000Y149700000I-1200000J0D01*
G01*
X5100000Y178700000D02*
G75*
G02X7500000Y178700000I1200000J0D01*
G01*
X8500000Y179700000D02*
G75*
G02X8500000Y182100000I0J1200000D01*
G01*
X22500000Y178700000D02*
G75*
G02X24900000Y178700000I1200000J0D01*
G01*
X21500000Y182100000D02*
G75*
G02X21500000Y179700000I0J-1200000D01*
G01*
X8500000Y182100000D02*
X21500000Y182100000D01*
X24900000Y178700000D02*
X24900000Y149700000D01*
X21500000Y148700000D02*
G75*
G02X21500000Y146300000I0J-1200000D01*
G01*
X8500000Y146300000D02*
G75*
G02X8500000Y148700000I0J1200000D01*
G01*
X8500000Y146300000D02*
X21500000Y146300000D01*
X7500000Y149700000D02*
G75*
G02X5100000Y149700000I-1200000J0D01*
G01*
X5100000Y178700000D02*
X5100000Y149700000D01*
D11*
X-5000000Y-12500000D02*
X-5000000Y197500000D01*
X295000000Y-12500000D02*
X-5000000Y-12500000D01*
X295000000Y197500000D02*
X295000000Y-12500000D01*
X-5000000Y197500000D02*
X295000000Y197500000D01*
D10*
X8500000Y148700000D02*
X21500000Y148700000D01*
X22500000Y178700000D02*
X22500000Y149700000D01*
X8500000Y179700000D02*
X21500000Y179700000D01*
X7500000Y178700000D02*
X7500000Y149700000D01*
M02*
