M48
;DRILL file {KiCad 5.0.2+dfsg1-1} date Mon 08 Jul 2019 11:05:54 PM MSK
;FORMAT={-:-/ absolute / metric / decimal}
FMAT,2
METRIC,TZ
T1C1.100
T2C3.200
%
G90
G05
T1
X116.7Y176.6
X121.3Y176.6
X246.7Y176.6
X251.3Y176.6
X38.7Y81.
X43.3Y81.
X12.7Y128.8
X17.3Y128.8
X220.7Y81.
X225.3Y81.
X90.7Y176.6
X95.3Y176.6
X168.7Y128.8
X173.3Y128.8
X272.7Y33.2
X277.3Y33.2
X272.7Y176.6
X277.3Y176.6
X38.7Y33.2
X43.3Y33.2
X116.7Y128.8
X121.3Y128.8
X12.7Y33.2
X17.3Y33.2
X246.7Y33.2
X251.3Y33.2
X272.7Y81.
X277.3Y81.
X142.7Y128.8
X147.3Y128.8
X38.7Y128.8
X43.3Y128.8
X246.7Y81.
X251.3Y81.
X64.7Y128.8
X69.3Y128.8
X246.7Y128.8
X251.3Y128.8
X194.7Y128.8
X199.3Y128.8
X64.7Y33.2
X69.3Y33.2
X64.7Y81.
X69.3Y81.
X90.7Y128.8
X95.3Y128.8
X220.7Y128.8
X225.3Y128.8
X90.7Y81.
X95.3Y81.
X142.7Y176.6
X147.3Y176.6
X38.7Y176.6
X43.3Y176.6
X116.7Y81.
X121.3Y81.
X12.7Y176.6
X17.3Y176.6
X220.7Y33.2
X225.3Y33.2
X168.7Y33.2
X173.3Y33.2
X194.7Y33.2
X199.3Y33.2
X220.7Y176.6
X225.3Y176.6
X272.7Y128.8
X277.3Y128.8
X116.7Y33.2
X121.3Y33.2
X194.7Y81.
X199.3Y81.
X90.7Y33.2
X95.3Y33.2
X12.7Y81.
X17.3Y81.
X168.7Y176.6
X173.3Y176.6
X64.7Y176.6
X69.3Y176.6
X142.7Y81.
X147.3Y81.
X194.7Y176.6
X199.3Y176.6
X142.7Y33.2
X147.3Y33.2
X168.7Y81.
X173.3Y81.
T2
X0.Y-7.5
X0.Y192.5
X290.Y-7.5
X290.Y192.5
T0
M30
