M48
;DRILL file {KiCad 5.0.2+dfsg1-1} date Sat 06 Jul 2019 03:38:43 PM MSK
;FORMAT={-:-/ absolute / metric / decimal}
FMAT,2
METRIC,TZ
T1C0.400
T2C0.900
T3C1.000
%
G90
G05
T1
X13.2Y-29.5
X13.2Y-77.3
X13.2Y-125.1
X13.2Y-172.9
X13.8Y-32.6
X13.8Y-38.3
X13.8Y-80.4
X13.8Y-86.1
X13.8Y-128.2
X13.8Y-133.9
X13.8Y-176.
X13.8Y-181.7
X15.1Y-28.
X15.1Y-75.8
X15.1Y-123.6
X15.1Y-171.4
X16.2Y-42.1
X16.2Y-89.9
X16.2Y-137.7
X16.2Y-185.5
X16.5Y-25.8
X16.5Y-33.1
X16.5Y-35.8
X16.5Y-73.6
X16.5Y-80.9
X16.5Y-83.6
X16.5Y-121.4
X16.5Y-128.7
X16.5Y-131.4
X16.5Y-169.2
X16.5Y-176.5
X16.5Y-179.2
X16.85Y-38.05
X16.85Y-85.85
X16.85Y-133.65
X16.85Y-181.45
X18.1Y-25.5
X18.1Y-73.3
X18.1Y-121.1
X18.1Y-168.9
X18.2Y-29.3
X18.2Y-77.1
X18.2Y-124.9
X18.2Y-172.7
X18.8Y-38.1
X18.8Y-85.9
X18.8Y-133.7
X18.8Y-181.5
X19.Y-25.5
X19.Y-73.3
X19.Y-121.1
X19.Y-168.9
X20.75Y-38.1
X20.75Y-85.9
X20.75Y-133.7
X20.75Y-181.5
X21.Y-25.5
X21.Y-73.3
X21.Y-121.1
X21.Y-168.9
X22.25Y-25.5
X22.25Y-73.3
X22.25Y-121.1
X22.25Y-168.9
X22.5Y-32.9
X22.5Y-37.2
X22.5Y-38.
X22.5Y-80.7
X22.5Y-85.
X22.5Y-85.8
X22.5Y-128.5
X22.5Y-132.8
X22.5Y-133.6
X22.5Y-176.3
X22.5Y-180.6
X22.5Y-181.4
X23.5Y-25.8
X23.5Y-73.6
X23.5Y-121.4
X23.5Y-169.2
X24.3Y-28.
X24.3Y-75.8
X24.3Y-123.6
X24.3Y-171.4
X25.6Y-42.8
X25.6Y-90.6
X25.6Y-138.4
X25.6Y-186.2
X39.2Y-29.5
X39.2Y-77.3
X39.2Y-125.1
X39.2Y-172.9
X39.8Y-32.6
X39.8Y-38.3
X39.8Y-80.4
X39.8Y-86.1
X39.8Y-128.2
X39.8Y-133.9
X39.8Y-176.
X39.8Y-181.7
X41.1Y-28.
X41.1Y-75.8
X41.1Y-123.6
X41.1Y-171.4
X42.2Y-42.1
X42.2Y-89.9
X42.2Y-137.7
X42.2Y-185.5
X42.5Y-25.8
X42.5Y-33.1
X42.5Y-35.8
X42.5Y-73.6
X42.5Y-80.9
X42.5Y-83.6
X42.5Y-121.4
X42.5Y-128.7
X42.5Y-131.4
X42.5Y-169.2
X42.5Y-176.5
X42.5Y-179.2
X42.85Y-38.05
X42.85Y-85.85
X42.85Y-133.65
X42.85Y-181.45
X44.1Y-25.5
X44.1Y-73.3
X44.1Y-121.1
X44.1Y-168.9
X44.2Y-29.3
X44.2Y-77.1
X44.2Y-124.9
X44.2Y-172.7
X44.8Y-38.1
X44.8Y-85.9
X44.8Y-133.7
X44.8Y-181.5
X45.Y-25.5
X45.Y-73.3
X45.Y-121.1
X45.Y-168.9
X46.75Y-38.1
X46.75Y-85.9
X46.75Y-133.7
X46.75Y-181.5
X47.Y-25.5
X47.Y-73.3
X47.Y-121.1
X47.Y-168.9
X48.25Y-25.5
X48.25Y-73.3
X48.25Y-121.1
X48.25Y-168.9
X48.5Y-32.9
X48.5Y-37.2
X48.5Y-38.
X48.5Y-80.7
X48.5Y-85.
X48.5Y-85.8
X48.5Y-128.5
X48.5Y-132.8
X48.5Y-133.6
X48.5Y-176.3
X48.5Y-180.6
X48.5Y-181.4
X49.5Y-25.8
X49.5Y-73.6
X49.5Y-121.4
X49.5Y-169.2
X50.3Y-28.
X50.3Y-75.8
X50.3Y-123.6
X50.3Y-171.4
X51.6Y-42.8
X51.6Y-90.6
X51.6Y-138.4
X51.6Y-186.2
X65.2Y-29.5
X65.2Y-77.3
X65.2Y-125.1
X65.2Y-172.9
X65.8Y-32.6
X65.8Y-38.3
X65.8Y-80.4
X65.8Y-86.1
X65.8Y-128.2
X65.8Y-133.9
X65.8Y-176.
X65.8Y-181.7
X67.1Y-28.
X67.1Y-75.8
X67.1Y-123.6
X67.1Y-171.4
X68.2Y-42.1
X68.2Y-89.9
X68.2Y-137.7
X68.2Y-185.5
X68.5Y-25.8
X68.5Y-33.1
X68.5Y-35.8
X68.5Y-73.6
X68.5Y-80.9
X68.5Y-83.6
X68.5Y-121.4
X68.5Y-128.7
X68.5Y-131.4
X68.5Y-169.2
X68.5Y-176.5
X68.5Y-179.2
X68.85Y-38.05
X68.85Y-85.85
X68.85Y-133.65
X68.85Y-181.45
X70.1Y-25.5
X70.1Y-73.3
X70.1Y-121.1
X70.1Y-168.9
X70.2Y-29.3
X70.2Y-77.1
X70.2Y-124.9
X70.2Y-172.7
X70.8Y-38.1
X70.8Y-85.9
X70.8Y-133.7
X70.8Y-181.5
X71.Y-25.5
X71.Y-73.3
X71.Y-121.1
X71.Y-168.9
X72.75Y-38.1
X72.75Y-85.9
X72.75Y-133.7
X72.75Y-181.5
X73.Y-25.5
X73.Y-73.3
X73.Y-121.1
X73.Y-168.9
X74.25Y-25.5
X74.25Y-73.3
X74.25Y-121.1
X74.25Y-168.9
X74.5Y-32.9
X74.5Y-37.2
X74.5Y-38.
X74.5Y-80.7
X74.5Y-85.
X74.5Y-85.8
X74.5Y-128.5
X74.5Y-132.8
X74.5Y-133.6
X74.5Y-176.3
X74.5Y-180.6
X74.5Y-181.4
X75.5Y-25.8
X75.5Y-73.6
X75.5Y-121.4
X75.5Y-169.2
X76.3Y-28.
X76.3Y-75.8
X76.3Y-123.6
X76.3Y-171.4
X77.6Y-42.8
X77.6Y-90.6
X77.6Y-138.4
X77.6Y-186.2
X91.2Y-29.5
X91.2Y-77.3
X91.2Y-125.1
X91.2Y-172.9
X91.8Y-32.6
X91.8Y-38.3
X91.8Y-80.4
X91.8Y-86.1
X91.8Y-128.2
X91.8Y-133.9
X91.8Y-176.
X91.8Y-181.7
X93.1Y-28.
X93.1Y-75.8
X93.1Y-123.6
X93.1Y-171.4
X94.2Y-42.1
X94.2Y-89.9
X94.2Y-137.7
X94.2Y-185.5
X94.5Y-25.8
X94.5Y-33.1
X94.5Y-35.8
X94.5Y-73.6
X94.5Y-80.9
X94.5Y-83.6
X94.5Y-121.4
X94.5Y-128.7
X94.5Y-131.4
X94.5Y-169.2
X94.5Y-176.5
X94.5Y-179.2
X94.85Y-38.05
X94.85Y-85.85
X94.85Y-133.65
X94.85Y-181.45
X96.1Y-25.5
X96.1Y-73.3
X96.1Y-121.1
X96.1Y-168.9
X96.2Y-29.3
X96.2Y-77.1
X96.2Y-124.9
X96.2Y-172.7
X96.8Y-38.1
X96.8Y-85.9
X96.8Y-133.7
X96.8Y-181.5
X97.Y-25.5
X97.Y-73.3
X97.Y-121.1
X97.Y-168.9
X98.75Y-38.1
X98.75Y-85.9
X98.75Y-133.7
X98.75Y-181.5
X99.Y-25.5
X99.Y-73.3
X99.Y-121.1
X99.Y-168.9
X100.25Y-25.5
X100.25Y-73.3
X100.25Y-121.1
X100.25Y-168.9
X100.5Y-32.9
X100.5Y-37.2
X100.5Y-38.
X100.5Y-80.7
X100.5Y-85.
X100.5Y-85.8
X100.5Y-128.5
X100.5Y-132.8
X100.5Y-133.6
X100.5Y-176.3
X100.5Y-180.6
X100.5Y-181.4
X101.5Y-25.8
X101.5Y-73.6
X101.5Y-121.4
X101.5Y-169.2
X102.3Y-28.
X102.3Y-75.8
X102.3Y-123.6
X102.3Y-171.4
X103.6Y-42.8
X103.6Y-90.6
X103.6Y-138.4
X103.6Y-186.2
X117.2Y-29.5
X117.2Y-77.3
X117.2Y-125.1
X117.2Y-172.9
X117.8Y-32.6
X117.8Y-38.3
X117.8Y-80.4
X117.8Y-86.1
X117.8Y-128.2
X117.8Y-133.9
X117.8Y-176.
X117.8Y-181.7
X119.1Y-28.
X119.1Y-75.8
X119.1Y-123.6
X119.1Y-171.4
X120.2Y-42.1
X120.2Y-89.9
X120.2Y-137.7
X120.2Y-185.5
X120.5Y-25.8
X120.5Y-33.1
X120.5Y-35.8
X120.5Y-73.6
X120.5Y-80.9
X120.5Y-83.6
X120.5Y-121.4
X120.5Y-128.7
X120.5Y-131.4
X120.5Y-169.2
X120.5Y-176.5
X120.5Y-179.2
X120.85Y-38.05
X120.85Y-85.85
X120.85Y-133.65
X120.85Y-181.45
X122.1Y-25.5
X122.1Y-73.3
X122.1Y-121.1
X122.1Y-168.9
X122.2Y-29.3
X122.2Y-77.1
X122.2Y-124.9
X122.2Y-172.7
X122.8Y-38.1
X122.8Y-85.9
X122.8Y-133.7
X122.8Y-181.5
X123.Y-25.5
X123.Y-73.3
X123.Y-121.1
X123.Y-168.9
X124.75Y-38.1
X124.75Y-85.9
X124.75Y-133.7
X124.75Y-181.5
X125.Y-25.5
X125.Y-73.3
X125.Y-121.1
X125.Y-168.9
X126.25Y-25.5
X126.25Y-73.3
X126.25Y-121.1
X126.25Y-168.9
X126.5Y-32.9
X126.5Y-37.2
X126.5Y-38.
X126.5Y-80.7
X126.5Y-85.
X126.5Y-85.8
X126.5Y-128.5
X126.5Y-132.8
X126.5Y-133.6
X126.5Y-176.3
X126.5Y-180.6
X126.5Y-181.4
X127.5Y-25.8
X127.5Y-73.6
X127.5Y-121.4
X127.5Y-169.2
X128.3Y-28.
X128.3Y-75.8
X128.3Y-123.6
X128.3Y-171.4
X129.6Y-42.8
X129.6Y-90.6
X129.6Y-138.4
X129.6Y-186.2
X143.2Y-29.5
X143.2Y-77.3
X143.2Y-125.1
X143.2Y-172.9
X143.8Y-32.6
X143.8Y-38.3
X143.8Y-80.4
X143.8Y-86.1
X143.8Y-128.2
X143.8Y-133.9
X143.8Y-176.
X143.8Y-181.7
X145.1Y-28.
X145.1Y-75.8
X145.1Y-123.6
X145.1Y-171.4
X146.2Y-42.1
X146.2Y-89.9
X146.2Y-137.7
X146.2Y-185.5
X146.5Y-25.8
X146.5Y-33.1
X146.5Y-35.8
X146.5Y-73.6
X146.5Y-80.9
X146.5Y-83.6
X146.5Y-121.4
X146.5Y-128.7
X146.5Y-131.4
X146.5Y-169.2
X146.5Y-176.5
X146.5Y-179.2
X146.85Y-38.05
X146.85Y-85.85
X146.85Y-133.65
X146.85Y-181.45
X148.1Y-25.5
X148.1Y-73.3
X148.1Y-121.1
X148.1Y-168.9
X148.2Y-29.3
X148.2Y-77.1
X148.2Y-124.9
X148.2Y-172.7
X148.8Y-38.1
X148.8Y-85.9
X148.8Y-133.7
X148.8Y-181.5
X149.Y-25.5
X149.Y-73.3
X149.Y-121.1
X149.Y-168.9
X150.75Y-38.1
X150.75Y-85.9
X150.75Y-133.7
X150.75Y-181.5
X151.Y-25.5
X151.Y-73.3
X151.Y-121.1
X151.Y-168.9
X152.25Y-25.5
X152.25Y-73.3
X152.25Y-121.1
X152.25Y-168.9
X152.5Y-32.9
X152.5Y-37.2
X152.5Y-38.
X152.5Y-80.7
X152.5Y-85.
X152.5Y-85.8
X152.5Y-128.5
X152.5Y-132.8
X152.5Y-133.6
X152.5Y-176.3
X152.5Y-180.6
X152.5Y-181.4
X153.5Y-25.8
X153.5Y-73.6
X153.5Y-121.4
X153.5Y-169.2
X154.3Y-28.
X154.3Y-75.8
X154.3Y-123.6
X154.3Y-171.4
X155.6Y-42.8
X155.6Y-90.6
X155.6Y-138.4
X155.6Y-186.2
X169.2Y-29.5
X169.2Y-77.3
X169.2Y-125.1
X169.2Y-172.9
X169.8Y-32.6
X169.8Y-38.3
X169.8Y-80.4
X169.8Y-86.1
X169.8Y-128.2
X169.8Y-133.9
X169.8Y-176.
X169.8Y-181.7
X171.1Y-28.
X171.1Y-75.8
X171.1Y-123.6
X171.1Y-171.4
X172.2Y-42.1
X172.2Y-89.9
X172.2Y-137.7
X172.2Y-185.5
X172.5Y-25.8
X172.5Y-33.1
X172.5Y-35.8
X172.5Y-73.6
X172.5Y-80.9
X172.5Y-83.6
X172.5Y-121.4
X172.5Y-128.7
X172.5Y-131.4
X172.5Y-169.2
X172.5Y-176.5
X172.5Y-179.2
X172.85Y-38.05
X172.85Y-85.85
X172.85Y-133.65
X172.85Y-181.45
X174.1Y-25.5
X174.1Y-73.3
X174.1Y-121.1
X174.1Y-168.9
X174.2Y-29.3
X174.2Y-77.1
X174.2Y-124.9
X174.2Y-172.7
X174.8Y-38.1
X174.8Y-85.9
X174.8Y-133.7
X174.8Y-181.5
X175.Y-25.5
X175.Y-73.3
X175.Y-121.1
X175.Y-168.9
X176.75Y-38.1
X176.75Y-85.9
X176.75Y-133.7
X176.75Y-181.5
X177.Y-25.5
X177.Y-73.3
X177.Y-121.1
X177.Y-168.9
X178.25Y-25.5
X178.25Y-73.3
X178.25Y-121.1
X178.25Y-168.9
X178.5Y-32.9
X178.5Y-37.2
X178.5Y-38.
X178.5Y-80.7
X178.5Y-85.
X178.5Y-85.8
X178.5Y-128.5
X178.5Y-132.8
X178.5Y-133.6
X178.5Y-176.3
X178.5Y-180.6
X178.5Y-181.4
X179.5Y-25.8
X179.5Y-73.6
X179.5Y-121.4
X179.5Y-169.2
X180.3Y-28.
X180.3Y-75.8
X180.3Y-123.6
X180.3Y-171.4
X181.6Y-42.8
X181.6Y-90.6
X181.6Y-138.4
X181.6Y-186.2
X195.2Y-29.5
X195.2Y-77.3
X195.2Y-125.1
X195.2Y-172.9
X195.8Y-32.6
X195.8Y-38.3
X195.8Y-80.4
X195.8Y-86.1
X195.8Y-128.2
X195.8Y-133.9
X195.8Y-176.
X195.8Y-181.7
X197.1Y-28.
X197.1Y-75.8
X197.1Y-123.6
X197.1Y-171.4
X198.2Y-42.1
X198.2Y-89.9
X198.2Y-137.7
X198.2Y-185.5
X198.5Y-25.8
X198.5Y-33.1
X198.5Y-35.8
X198.5Y-73.6
X198.5Y-80.9
X198.5Y-83.6
X198.5Y-121.4
X198.5Y-128.7
X198.5Y-131.4
X198.5Y-169.2
X198.5Y-176.5
X198.5Y-179.2
X198.85Y-38.05
X198.85Y-85.85
X198.85Y-133.65
X198.85Y-181.45
X200.1Y-25.5
X200.1Y-73.3
X200.1Y-121.1
X200.1Y-168.9
X200.2Y-29.3
X200.2Y-77.1
X200.2Y-124.9
X200.2Y-172.7
X200.8Y-38.1
X200.8Y-85.9
X200.8Y-133.7
X200.8Y-181.5
X201.Y-25.5
X201.Y-73.3
X201.Y-121.1
X201.Y-168.9
X202.75Y-38.1
X202.75Y-85.9
X202.75Y-133.7
X202.75Y-181.5
X203.Y-25.5
X203.Y-73.3
X203.Y-121.1
X203.Y-168.9
X204.25Y-25.5
X204.25Y-73.3
X204.25Y-121.1
X204.25Y-168.9
X204.5Y-32.9
X204.5Y-37.2
X204.5Y-38.
X204.5Y-80.7
X204.5Y-85.
X204.5Y-85.8
X204.5Y-128.5
X204.5Y-132.8
X204.5Y-133.6
X204.5Y-176.3
X204.5Y-180.6
X204.5Y-181.4
X205.5Y-25.8
X205.5Y-73.6
X205.5Y-121.4
X205.5Y-169.2
X206.3Y-28.
X206.3Y-75.8
X206.3Y-123.6
X206.3Y-171.4
X207.6Y-42.8
X207.6Y-90.6
X207.6Y-138.4
X207.6Y-186.2
X221.2Y-29.5
X221.2Y-77.3
X221.2Y-125.1
X221.2Y-172.9
X221.8Y-32.6
X221.8Y-38.3
X221.8Y-80.4
X221.8Y-86.1
X221.8Y-128.2
X221.8Y-133.9
X221.8Y-176.
X221.8Y-181.7
X223.1Y-28.
X223.1Y-75.8
X223.1Y-123.6
X223.1Y-171.4
X224.2Y-42.1
X224.2Y-89.9
X224.2Y-137.7
X224.2Y-185.5
X224.5Y-25.8
X224.5Y-33.1
X224.5Y-35.8
X224.5Y-73.6
X224.5Y-80.9
X224.5Y-83.6
X224.5Y-121.4
X224.5Y-128.7
X224.5Y-131.4
X224.5Y-169.2
X224.5Y-176.5
X224.5Y-179.2
X224.85Y-38.05
X224.85Y-85.85
X224.85Y-133.65
X224.85Y-181.45
X226.1Y-25.5
X226.1Y-73.3
X226.1Y-121.1
X226.1Y-168.9
X226.2Y-29.3
X226.2Y-77.1
X226.2Y-124.9
X226.2Y-172.7
X226.8Y-38.1
X226.8Y-85.9
X226.8Y-133.7
X226.8Y-181.5
X227.Y-25.5
X227.Y-73.3
X227.Y-121.1
X227.Y-168.9
X228.75Y-38.1
X228.75Y-85.9
X228.75Y-133.7
X228.75Y-181.5
X229.Y-25.5
X229.Y-73.3
X229.Y-121.1
X229.Y-168.9
X230.25Y-25.5
X230.25Y-73.3
X230.25Y-121.1
X230.25Y-168.9
X230.5Y-32.9
X230.5Y-37.2
X230.5Y-38.
X230.5Y-80.7
X230.5Y-85.
X230.5Y-85.8
X230.5Y-128.5
X230.5Y-132.8
X230.5Y-133.6
X230.5Y-176.3
X230.5Y-180.6
X230.5Y-181.4
X231.5Y-25.8
X231.5Y-73.6
X231.5Y-121.4
X231.5Y-169.2
X232.3Y-28.
X232.3Y-75.8
X232.3Y-123.6
X232.3Y-171.4
X233.6Y-42.8
X233.6Y-90.6
X233.6Y-138.4
X233.6Y-186.2
X247.2Y-29.5
X247.2Y-77.3
X247.2Y-125.1
X247.2Y-172.9
X247.8Y-32.6
X247.8Y-38.3
X247.8Y-80.4
X247.8Y-86.1
X247.8Y-128.2
X247.8Y-133.9
X247.8Y-176.
X247.8Y-181.7
X249.1Y-28.
X249.1Y-75.8
X249.1Y-123.6
X249.1Y-171.4
X250.2Y-42.1
X250.2Y-89.9
X250.2Y-137.7
X250.2Y-185.5
X250.5Y-25.8
X250.5Y-33.1
X250.5Y-35.8
X250.5Y-73.6
X250.5Y-80.9
X250.5Y-83.6
X250.5Y-121.4
X250.5Y-128.7
X250.5Y-131.4
X250.5Y-169.2
X250.5Y-176.5
X250.5Y-179.2
X250.85Y-38.05
X250.85Y-85.85
X250.85Y-133.65
X250.85Y-181.45
X252.1Y-25.5
X252.1Y-73.3
X252.1Y-121.1
X252.1Y-168.9
X252.2Y-29.3
X252.2Y-77.1
X252.2Y-124.9
X252.2Y-172.7
X252.8Y-38.1
X252.8Y-85.9
X252.8Y-133.7
X252.8Y-181.5
X253.Y-25.5
X253.Y-73.3
X253.Y-121.1
X253.Y-168.9
X254.75Y-38.1
X254.75Y-85.9
X254.75Y-133.7
X254.75Y-181.5
X255.Y-25.5
X255.Y-73.3
X255.Y-121.1
X255.Y-168.9
X256.25Y-25.5
X256.25Y-73.3
X256.25Y-121.1
X256.25Y-168.9
X256.5Y-32.9
X256.5Y-37.2
X256.5Y-38.
X256.5Y-80.7
X256.5Y-85.
X256.5Y-85.8
X256.5Y-128.5
X256.5Y-132.8
X256.5Y-133.6
X256.5Y-176.3
X256.5Y-180.6
X256.5Y-181.4
X257.5Y-25.8
X257.5Y-73.6
X257.5Y-121.4
X257.5Y-169.2
X258.3Y-28.
X258.3Y-75.8
X258.3Y-123.6
X258.3Y-171.4
X259.6Y-42.8
X259.6Y-90.6
X259.6Y-138.4
X259.6Y-186.2
X273.2Y-29.5
X273.2Y-77.3
X273.2Y-125.1
X273.2Y-172.9
X273.8Y-32.6
X273.8Y-38.3
X273.8Y-80.4
X273.8Y-86.1
X273.8Y-128.2
X273.8Y-133.9
X273.8Y-176.
X273.8Y-181.7
X275.1Y-28.
X275.1Y-75.8
X275.1Y-123.6
X275.1Y-171.4
X276.2Y-42.1
X276.2Y-89.9
X276.2Y-137.7
X276.2Y-185.5
X276.5Y-25.8
X276.5Y-33.1
X276.5Y-35.8
X276.5Y-73.6
X276.5Y-80.9
X276.5Y-83.6
X276.5Y-121.4
X276.5Y-128.7
X276.5Y-131.4
X276.5Y-169.2
X276.5Y-176.5
X276.5Y-179.2
X276.85Y-38.05
X276.85Y-85.85
X276.85Y-133.65
X276.85Y-181.45
X278.1Y-25.5
X278.1Y-73.3
X278.1Y-121.1
X278.1Y-168.9
X278.2Y-29.3
X278.2Y-77.1
X278.2Y-124.9
X278.2Y-172.7
X278.8Y-38.1
X278.8Y-85.9
X278.8Y-133.7
X278.8Y-181.5
X279.Y-25.5
X279.Y-73.3
X279.Y-121.1
X279.Y-168.9
X280.75Y-38.1
X280.75Y-85.9
X280.75Y-133.7
X280.75Y-181.5
X281.Y-25.5
X281.Y-73.3
X281.Y-121.1
X281.Y-168.9
X282.25Y-25.5
X282.25Y-73.3
X282.25Y-121.1
X282.25Y-168.9
X282.5Y-32.9
X282.5Y-37.2
X282.5Y-38.
X282.5Y-80.7
X282.5Y-85.
X282.5Y-85.8
X282.5Y-128.5
X282.5Y-132.8
X282.5Y-133.6
X282.5Y-176.3
X282.5Y-180.6
X282.5Y-181.4
X283.5Y-25.8
X283.5Y-73.6
X283.5Y-121.4
X283.5Y-169.2
X284.3Y-28.
X284.3Y-75.8
X284.3Y-123.6
X284.3Y-171.4
X285.6Y-42.8
X285.6Y-90.6
X285.6Y-138.4
X285.6Y-186.2
T3
X222.94Y-142.5
X225.48Y-142.5
X228.02Y-142.5
X230.56Y-142.5
X233.1Y-142.5
X40.94Y-46.9
X43.48Y-46.9
X46.02Y-46.9
X48.56Y-46.9
X51.1Y-46.9
X144.94Y-142.5
X147.48Y-142.5
X150.02Y-142.5
X152.56Y-142.5
X155.1Y-142.5
X170.94Y-142.5
X173.48Y-142.5
X176.02Y-142.5
X178.56Y-142.5
X181.1Y-142.5
X248.94Y-142.5
X251.48Y-142.5
X254.02Y-142.5
X256.56Y-142.5
X259.1Y-142.5
X274.94Y-190.3
X277.48Y-190.3
X280.02Y-190.3
X282.56Y-190.3
X285.1Y-190.3
X196.94Y-94.7
X199.48Y-94.7
X202.02Y-94.7
X204.56Y-94.7
X207.1Y-94.7
X14.94Y-190.3
X17.48Y-190.3
X20.02Y-190.3
X22.56Y-190.3
X25.1Y-190.3
X66.94Y-46.9
X69.48Y-46.9
X72.02Y-46.9
X74.56Y-46.9
X77.1Y-46.9
X248.94Y-94.7
X251.48Y-94.7
X254.02Y-94.7
X256.56Y-94.7
X259.1Y-94.7
X196.94Y-46.9
X199.48Y-46.9
X202.02Y-46.9
X204.56Y-46.9
X207.1Y-46.9
X248.94Y-190.3
X251.48Y-190.3
X254.02Y-190.3
X256.56Y-190.3
X259.1Y-190.3
X92.94Y-46.9
X95.48Y-46.9
X98.02Y-46.9
X100.56Y-46.9
X103.1Y-46.9
X92.94Y-94.7
X95.48Y-94.7
X98.02Y-94.7
X100.56Y-94.7
X103.1Y-94.7
X274.94Y-94.7
X277.48Y-94.7
X280.02Y-94.7
X282.56Y-94.7
X285.1Y-94.7
X14.94Y-142.5
X17.48Y-142.5
X20.02Y-142.5
X22.56Y-142.5
X25.1Y-142.5
X66.94Y-190.3
X69.48Y-190.3
X72.02Y-190.3
X74.56Y-190.3
X77.1Y-190.3
X144.94Y-46.9
X147.48Y-46.9
X150.02Y-46.9
X152.56Y-46.9
X155.1Y-46.9
X118.94Y-46.9
X121.48Y-46.9
X124.02Y-46.9
X126.56Y-46.9
X129.1Y-46.9
X66.94Y-94.7
X69.48Y-94.7
X72.02Y-94.7
X74.56Y-94.7
X77.1Y-94.7
X92.94Y-190.3
X95.48Y-190.3
X98.02Y-190.3
X100.56Y-190.3
X103.1Y-190.3
X170.94Y-46.9
X173.48Y-46.9
X176.02Y-46.9
X178.56Y-46.9
X181.1Y-46.9
X66.94Y-142.5
X69.48Y-142.5
X72.02Y-142.5
X74.56Y-142.5
X77.1Y-142.5
X222.94Y-46.9
X225.48Y-46.9
X228.02Y-46.9
X230.56Y-46.9
X233.1Y-46.9
X196.94Y-142.5
X199.48Y-142.5
X202.02Y-142.5
X204.56Y-142.5
X207.1Y-142.5
X222.94Y-94.7
X225.48Y-94.7
X228.02Y-94.7
X230.56Y-94.7
X233.1Y-94.7
X170.94Y-190.3
X173.48Y-190.3
X176.02Y-190.3
X178.56Y-190.3
X181.1Y-190.3
X40.94Y-190.3
X43.48Y-190.3
X46.02Y-190.3
X48.56Y-190.3
X51.1Y-190.3
X40.94Y-142.5
X43.48Y-142.5
X46.02Y-142.5
X48.56Y-142.5
X51.1Y-142.5
X118.94Y-94.7
X121.48Y-94.7
X124.02Y-94.7
X126.56Y-94.7
X129.1Y-94.7
X248.94Y-46.9
X251.48Y-46.9
X254.02Y-46.9
X256.56Y-46.9
X259.1Y-46.9
X14.94Y-46.9
X17.48Y-46.9
X20.02Y-46.9
X22.56Y-46.9
X25.1Y-46.9
X196.94Y-190.3
X199.48Y-190.3
X202.02Y-190.3
X204.56Y-190.3
X207.1Y-190.3
X170.94Y-94.7
X173.48Y-94.7
X176.02Y-94.7
X178.56Y-94.7
X181.1Y-94.7
X144.94Y-190.3
X147.48Y-190.3
X150.02Y-190.3
X152.56Y-190.3
X155.1Y-190.3
X118.94Y-190.3
X121.48Y-190.3
X124.02Y-190.3
X126.56Y-190.3
X129.1Y-190.3
X274.94Y-46.9
X277.48Y-46.9
X280.02Y-46.9
X282.56Y-46.9
X285.1Y-46.9
X144.94Y-94.7
X147.48Y-94.7
X150.02Y-94.7
X152.56Y-94.7
X155.1Y-94.7
X222.94Y-190.3
X225.48Y-190.3
X228.02Y-190.3
X230.56Y-190.3
X233.1Y-190.3
X92.94Y-142.5
X95.48Y-142.5
X98.02Y-142.5
X100.56Y-142.5
X103.1Y-142.5
X14.94Y-94.7
X17.48Y-94.7
X20.02Y-94.7
X22.56Y-94.7
X25.1Y-94.7
X118.94Y-142.5
X121.48Y-142.5
X124.02Y-142.5
X126.56Y-142.5
X129.1Y-142.5
X40.94Y-94.7
X43.48Y-94.7
X46.02Y-94.7
X48.56Y-94.7
X51.1Y-94.7
X274.94Y-142.5
X277.48Y-142.5
X280.02Y-142.5
X282.56Y-142.5
X285.1Y-142.5
T2
X92.3Y-69.5G85X92.3Y-67.9
G05
X103.7Y-69.5G85X103.7Y-67.9
G05
X40.3Y-117.3G85X40.3Y-115.7
G05
X51.7Y-117.3G85X51.7Y-115.7
G05
X222.3Y-21.7G85X222.3Y-20.1
G05
X233.7Y-21.7G85X233.7Y-20.1
G05
X196.3Y-21.7G85X196.3Y-20.1
G05
X207.7Y-21.7G85X207.7Y-20.1
G05
X118.3Y-69.5G85X118.3Y-67.9
G05
X129.7Y-69.5G85X129.7Y-67.9
G05
X14.3Y-69.5G85X14.3Y-67.9
G05
X25.7Y-69.5G85X25.7Y-67.9
G05
X40.3Y-69.5G85X40.3Y-67.9
G05
X51.7Y-69.5G85X51.7Y-67.9
G05
X144.3Y-165.1G85X144.3Y-163.5
G05
X155.7Y-165.1G85X155.7Y-163.5
G05
X248.3Y-117.3G85X248.3Y-115.7
G05
X259.7Y-117.3G85X259.7Y-115.7
G05
X118.3Y-165.1G85X118.3Y-163.5
G05
X129.7Y-165.1G85X129.7Y-163.5
G05
X66.3Y-165.1G85X66.3Y-163.5
G05
X77.7Y-165.1G85X77.7Y-163.5
G05
X144.3Y-69.5G85X144.3Y-67.9
G05
X155.7Y-69.5G85X155.7Y-67.9
G05
X144.3Y-21.7G85X144.3Y-20.1
G05
X155.7Y-21.7G85X155.7Y-20.1
G05
X170.3Y-117.3G85X170.3Y-115.7
G05
X181.7Y-117.3G85X181.7Y-115.7
G05
X196.3Y-69.5G85X196.3Y-67.9
G05
X207.7Y-69.5G85X207.7Y-67.9
G05
X66.3Y-69.5G85X66.3Y-67.9
G05
X77.7Y-69.5G85X77.7Y-67.9
G05
X66.3Y-21.7G85X66.3Y-20.1
G05
X77.7Y-21.7G85X77.7Y-20.1
G05
X196.3Y-117.3G85X196.3Y-115.7
G05
X207.7Y-117.3G85X207.7Y-115.7
G05
X92.3Y-165.1G85X92.3Y-163.5
G05
X103.7Y-165.1G85X103.7Y-163.5
G05
X170.3Y-165.1G85X170.3Y-163.5
G05
X181.7Y-165.1G85X181.7Y-163.5
G05
X196.3Y-165.1G85X196.3Y-163.5
G05
X207.7Y-165.1G85X207.7Y-163.5
G05
X170.3Y-21.7G85X170.3Y-20.1
G05
X181.7Y-21.7G85X181.7Y-20.1
G05
X14.3Y-21.7G85X14.3Y-20.1
G05
X25.7Y-21.7G85X25.7Y-20.1
G05
X170.3Y-69.5G85X170.3Y-67.9
G05
X181.7Y-69.5G85X181.7Y-67.9
G05
X66.3Y-117.3G85X66.3Y-115.7
G05
X77.7Y-117.3G85X77.7Y-115.7
G05
X118.3Y-117.3G85X118.3Y-115.7
G05
X129.7Y-117.3G85X129.7Y-115.7
G05
X92.3Y-117.3G85X92.3Y-115.7
G05
X103.7Y-117.3G85X103.7Y-115.7
G05
X14.3Y-165.1G85X14.3Y-163.5
G05
X25.7Y-165.1G85X25.7Y-163.5
G05
X274.3Y-117.3G85X274.3Y-115.7
G05
X285.7Y-117.3G85X285.7Y-115.7
G05
X144.3Y-117.3G85X144.3Y-115.7
G05
X155.7Y-117.3G85X155.7Y-115.7
G05
X274.3Y-69.5G85X274.3Y-67.9
G05
X285.7Y-69.5G85X285.7Y-67.9
G05
X222.3Y-117.3G85X222.3Y-115.7
G05
X233.7Y-117.3G85X233.7Y-115.7
G05
X248.3Y-69.5G85X248.3Y-67.9
G05
X259.7Y-69.5G85X259.7Y-67.9
G05
X40.3Y-165.1G85X40.3Y-163.5
G05
X51.7Y-165.1G85X51.7Y-163.5
G05
X248.3Y-165.1G85X248.3Y-163.5
G05
X259.7Y-165.1G85X259.7Y-163.5
G05
X222.3Y-165.1G85X222.3Y-163.5
G05
X233.7Y-165.1G85X233.7Y-163.5
G05
X248.3Y-21.7G85X248.3Y-20.1
G05
X259.7Y-21.7G85X259.7Y-20.1
G05
X40.3Y-21.7G85X40.3Y-20.1
G05
X51.7Y-21.7G85X51.7Y-20.1
G05
X118.3Y-21.7G85X118.3Y-20.1
G05
X129.7Y-21.7G85X129.7Y-20.1
G05
X222.3Y-69.5G85X222.3Y-67.9
G05
X233.7Y-69.5G85X233.7Y-67.9
G05
X274.3Y-21.7G85X274.3Y-20.1
G05
X285.7Y-21.7G85X285.7Y-20.1
G05
X274.3Y-165.1G85X274.3Y-163.5
G05
X285.7Y-165.1G85X285.7Y-163.5
G05
X92.3Y-21.7G85X92.3Y-20.1
G05
X103.7Y-21.7G85X103.7Y-20.1
G05
X14.3Y-117.3G85X14.3Y-115.7
G05
X25.7Y-117.3G85X25.7Y-115.7
G05
T0
M30
