M48
;DRILL file {KiCad 5.0.2+dfsg1-1} date Mon 08 Jul 2019 11:05:54 PM MSK
;FORMAT={-:-/ absolute / metric / decimal}
FMAT,2
METRIC,TZ
T1C0.400
T2C0.900
T3C1.000
%
G90
G05
T1
X8.2Y168.
X8.2Y120.2
X8.2Y72.4
X8.2Y24.6
X8.8Y164.9
X8.8Y159.2
X8.8Y117.1
X8.8Y111.4
X8.8Y69.3
X8.8Y63.6
X8.8Y21.5
X8.8Y15.8
X10.1Y169.8
X10.1Y122.
X10.1Y74.2
X10.1Y26.4
X11.2Y155.4
X11.2Y107.6
X11.2Y59.8
X11.2Y12.
X11.5Y171.7
X11.5Y164.4
X11.5Y161.7
X11.5Y123.9
X11.5Y116.6
X11.5Y113.9
X11.5Y76.1
X11.5Y68.8
X11.5Y66.1
X11.5Y28.3
X11.5Y21.
X11.5Y18.3
X11.85Y159.45
X11.85Y111.65
X11.85Y63.85
X11.85Y16.05
X13.1Y172.
X13.1Y124.2
X13.1Y76.4
X13.1Y28.6
X13.2Y168.2
X13.2Y120.4
X13.2Y72.6
X13.2Y24.8
X13.8Y159.4
X13.8Y111.6
X13.8Y63.8
X13.8Y16.
X14.Y172.
X14.Y124.2
X14.Y76.4
X14.Y28.6
X15.75Y159.4
X15.75Y111.6
X15.75Y63.8
X15.75Y16.
X16.Y172.
X16.Y124.2
X16.Y76.4
X16.Y28.6
X17.2Y164.4
X17.2Y116.6
X17.2Y68.8
X17.2Y21.
X17.25Y172.
X17.25Y124.2
X17.25Y76.4
X17.25Y28.6
X17.5Y160.3
X17.5Y159.5
X17.5Y112.5
X17.5Y111.7
X17.5Y64.7
X17.5Y63.9
X17.5Y16.9
X17.5Y16.1
X18.5Y171.7
X18.5Y123.9
X18.5Y76.1
X18.5Y28.3
X19.5Y169.8
X19.5Y122.
X19.5Y74.2
X19.5Y26.4
X20.6Y154.7
X20.6Y106.9
X20.6Y59.1
X20.6Y11.3
X34.2Y168.
X34.2Y120.2
X34.2Y72.4
X34.2Y24.6
X34.8Y164.9
X34.8Y159.2
X34.8Y117.1
X34.8Y111.4
X34.8Y69.3
X34.8Y63.6
X34.8Y21.5
X34.8Y15.8
X36.1Y169.8
X36.1Y122.
X36.1Y74.2
X36.1Y26.4
X37.2Y155.4
X37.2Y107.6
X37.2Y59.8
X37.2Y12.
X37.5Y171.7
X37.5Y164.4
X37.5Y161.7
X37.5Y123.9
X37.5Y116.6
X37.5Y113.9
X37.5Y76.1
X37.5Y68.8
X37.5Y66.1
X37.5Y28.3
X37.5Y21.
X37.5Y18.3
X37.85Y159.45
X37.85Y111.65
X37.85Y63.85
X37.85Y16.05
X39.1Y172.
X39.1Y124.2
X39.1Y76.4
X39.1Y28.6
X39.2Y168.2
X39.2Y120.4
X39.2Y72.6
X39.2Y24.8
X39.8Y159.4
X39.8Y111.6
X39.8Y63.8
X39.8Y16.
X40.Y172.
X40.Y124.2
X40.Y76.4
X40.Y28.6
X41.75Y159.4
X41.75Y111.6
X41.75Y63.8
X41.75Y16.
X42.Y172.
X42.Y124.2
X42.Y76.4
X42.Y28.6
X43.2Y164.4
X43.2Y116.6
X43.2Y68.8
X43.2Y21.
X43.25Y172.
X43.25Y124.2
X43.25Y76.4
X43.25Y28.6
X43.5Y160.3
X43.5Y159.5
X43.5Y112.5
X43.5Y111.7
X43.5Y64.7
X43.5Y63.9
X43.5Y16.9
X43.5Y16.1
X44.5Y171.7
X44.5Y123.9
X44.5Y76.1
X44.5Y28.3
X45.5Y169.8
X45.5Y122.
X45.5Y74.2
X45.5Y26.4
X46.6Y154.7
X46.6Y106.9
X46.6Y59.1
X46.6Y11.3
X60.2Y168.
X60.2Y120.2
X60.2Y72.4
X60.2Y24.6
X60.8Y164.9
X60.8Y159.2
X60.8Y117.1
X60.8Y111.4
X60.8Y69.3
X60.8Y63.6
X60.8Y21.5
X60.8Y15.8
X62.1Y169.8
X62.1Y122.
X62.1Y74.2
X62.1Y26.4
X63.2Y155.4
X63.2Y107.6
X63.2Y59.8
X63.2Y12.
X63.5Y171.7
X63.5Y164.4
X63.5Y161.7
X63.5Y123.9
X63.5Y116.6
X63.5Y113.9
X63.5Y76.1
X63.5Y68.8
X63.5Y66.1
X63.5Y28.3
X63.5Y21.
X63.5Y18.3
X63.85Y159.45
X63.85Y111.65
X63.85Y63.85
X63.85Y16.05
X65.1Y172.
X65.1Y124.2
X65.1Y76.4
X65.1Y28.6
X65.2Y168.2
X65.2Y120.4
X65.2Y72.6
X65.2Y24.8
X65.8Y159.4
X65.8Y111.6
X65.8Y63.8
X65.8Y16.
X66.Y172.
X66.Y124.2
X66.Y76.4
X66.Y28.6
X67.75Y159.4
X67.75Y111.6
X67.75Y63.8
X67.75Y16.
X68.Y172.
X68.Y124.2
X68.Y76.4
X68.Y28.6
X69.2Y164.4
X69.2Y116.6
X69.2Y68.8
X69.2Y21.
X69.25Y172.
X69.25Y124.2
X69.25Y76.4
X69.25Y28.6
X69.5Y160.3
X69.5Y159.5
X69.5Y112.5
X69.5Y111.7
X69.5Y64.7
X69.5Y63.9
X69.5Y16.9
X69.5Y16.1
X70.5Y171.7
X70.5Y123.9
X70.5Y76.1
X70.5Y28.3
X71.5Y169.8
X71.5Y122.
X71.5Y74.2
X71.5Y26.4
X72.6Y154.7
X72.6Y106.9
X72.6Y59.1
X72.6Y11.3
X86.2Y168.
X86.2Y120.2
X86.2Y72.4
X86.2Y24.6
X86.8Y164.9
X86.8Y159.2
X86.8Y117.1
X86.8Y111.4
X86.8Y69.3
X86.8Y63.6
X86.8Y21.5
X86.8Y15.8
X88.1Y169.8
X88.1Y122.
X88.1Y74.2
X88.1Y26.4
X89.2Y155.4
X89.2Y107.6
X89.2Y59.8
X89.2Y12.
X89.5Y171.7
X89.5Y164.4
X89.5Y161.7
X89.5Y123.9
X89.5Y116.6
X89.5Y113.9
X89.5Y76.1
X89.5Y68.8
X89.5Y66.1
X89.5Y28.3
X89.5Y21.
X89.5Y18.3
X89.85Y159.45
X89.85Y111.65
X89.85Y63.85
X89.85Y16.05
X91.1Y172.
X91.1Y124.2
X91.1Y76.4
X91.1Y28.6
X91.2Y168.2
X91.2Y120.4
X91.2Y72.6
X91.2Y24.8
X91.8Y159.4
X91.8Y111.6
X91.8Y63.8
X91.8Y16.
X92.Y172.
X92.Y124.2
X92.Y76.4
X92.Y28.6
X93.75Y159.4
X93.75Y111.6
X93.75Y63.8
X93.75Y16.
X94.Y172.
X94.Y124.2
X94.Y76.4
X94.Y28.6
X95.2Y164.4
X95.2Y116.6
X95.2Y68.8
X95.2Y21.
X95.25Y172.
X95.25Y124.2
X95.25Y76.4
X95.25Y28.6
X95.5Y160.3
X95.5Y159.5
X95.5Y112.5
X95.5Y111.7
X95.5Y64.7
X95.5Y63.9
X95.5Y16.9
X95.5Y16.1
X96.5Y171.7
X96.5Y123.9
X96.5Y76.1
X96.5Y28.3
X97.5Y169.8
X97.5Y122.
X97.5Y74.2
X97.5Y26.4
X98.6Y154.7
X98.6Y106.9
X98.6Y59.1
X98.6Y11.3
X112.2Y168.
X112.2Y120.2
X112.2Y72.4
X112.2Y24.6
X112.8Y164.9
X112.8Y159.2
X112.8Y117.1
X112.8Y111.4
X112.8Y69.3
X112.8Y63.6
X112.8Y21.5
X112.8Y15.8
X114.1Y169.8
X114.1Y122.
X114.1Y74.2
X114.1Y26.4
X115.2Y155.4
X115.2Y107.6
X115.2Y59.8
X115.2Y12.
X115.5Y171.7
X115.5Y164.4
X115.5Y161.7
X115.5Y123.9
X115.5Y116.6
X115.5Y113.9
X115.5Y76.1
X115.5Y68.8
X115.5Y66.1
X115.5Y28.3
X115.5Y21.
X115.5Y18.3
X115.85Y159.45
X115.85Y111.65
X115.85Y63.85
X115.85Y16.05
X117.1Y172.
X117.1Y124.2
X117.1Y76.4
X117.1Y28.6
X117.2Y168.2
X117.2Y120.4
X117.2Y72.6
X117.2Y24.8
X117.8Y159.4
X117.8Y111.6
X117.8Y63.8
X117.8Y16.
X118.Y172.
X118.Y124.2
X118.Y76.4
X118.Y28.6
X119.75Y159.4
X119.75Y111.6
X119.75Y63.8
X119.75Y16.
X120.Y172.
X120.Y124.2
X120.Y76.4
X120.Y28.6
X121.2Y164.4
X121.2Y116.6
X121.2Y68.8
X121.2Y21.
X121.25Y172.
X121.25Y124.2
X121.25Y76.4
X121.25Y28.6
X121.5Y160.3
X121.5Y159.5
X121.5Y112.5
X121.5Y111.7
X121.5Y64.7
X121.5Y63.9
X121.5Y16.9
X121.5Y16.1
X122.5Y171.7
X122.5Y123.9
X122.5Y76.1
X122.5Y28.3
X123.5Y169.8
X123.5Y122.
X123.5Y74.2
X123.5Y26.4
X124.6Y154.7
X124.6Y106.9
X124.6Y59.1
X124.6Y11.3
X138.2Y168.
X138.2Y120.2
X138.2Y72.4
X138.2Y24.6
X138.8Y164.9
X138.8Y159.2
X138.8Y117.1
X138.8Y111.4
X138.8Y69.3
X138.8Y63.6
X138.8Y21.5
X138.8Y15.8
X140.1Y169.8
X140.1Y122.
X140.1Y74.2
X140.1Y26.4
X141.2Y155.4
X141.2Y107.6
X141.2Y59.8
X141.2Y12.
X141.5Y171.7
X141.5Y164.4
X141.5Y161.7
X141.5Y123.9
X141.5Y116.6
X141.5Y113.9
X141.5Y76.1
X141.5Y68.8
X141.5Y66.1
X141.5Y28.3
X141.5Y21.
X141.5Y18.3
X141.85Y159.45
X141.85Y111.65
X141.85Y63.85
X141.85Y16.05
X143.1Y172.
X143.1Y124.2
X143.1Y76.4
X143.1Y28.6
X143.2Y168.2
X143.2Y120.4
X143.2Y72.6
X143.2Y24.8
X143.8Y159.4
X143.8Y111.6
X143.8Y63.8
X143.8Y16.
X144.Y172.
X144.Y124.2
X144.Y76.4
X144.Y28.6
X145.75Y159.4
X145.75Y111.6
X145.75Y63.8
X145.75Y16.
X146.Y172.
X146.Y124.2
X146.Y76.4
X146.Y28.6
X147.2Y164.4
X147.2Y116.6
X147.2Y68.8
X147.2Y21.
X147.25Y172.
X147.25Y124.2
X147.25Y76.4
X147.25Y28.6
X147.5Y160.3
X147.5Y159.5
X147.5Y112.5
X147.5Y111.7
X147.5Y64.7
X147.5Y63.9
X147.5Y16.9
X147.5Y16.1
X148.5Y171.7
X148.5Y123.9
X148.5Y76.1
X148.5Y28.3
X149.5Y169.8
X149.5Y122.
X149.5Y74.2
X149.5Y26.4
X150.6Y154.7
X150.6Y106.9
X150.6Y59.1
X150.6Y11.3
X164.2Y168.
X164.2Y120.2
X164.2Y72.4
X164.2Y24.6
X164.8Y164.9
X164.8Y159.2
X164.8Y117.1
X164.8Y111.4
X164.8Y69.3
X164.8Y63.6
X164.8Y21.5
X164.8Y15.8
X166.1Y169.8
X166.1Y122.
X166.1Y74.2
X166.1Y26.4
X167.2Y155.4
X167.2Y107.6
X167.2Y59.8
X167.2Y12.
X167.5Y171.7
X167.5Y164.4
X167.5Y161.7
X167.5Y123.9
X167.5Y116.6
X167.5Y113.9
X167.5Y76.1
X167.5Y68.8
X167.5Y66.1
X167.5Y28.3
X167.5Y21.
X167.5Y18.3
X167.85Y159.45
X167.85Y111.65
X167.85Y63.85
X167.85Y16.05
X169.1Y172.
X169.1Y124.2
X169.1Y76.4
X169.1Y28.6
X169.2Y168.2
X169.2Y120.4
X169.2Y72.6
X169.2Y24.8
X169.8Y159.4
X169.8Y111.6
X169.8Y63.8
X169.8Y16.
X170.Y172.
X170.Y124.2
X170.Y76.4
X170.Y28.6
X171.75Y159.4
X171.75Y111.6
X171.75Y63.8
X171.75Y16.
X172.Y172.
X172.Y124.2
X172.Y76.4
X172.Y28.6
X173.2Y164.4
X173.2Y116.6
X173.2Y68.8
X173.2Y21.
X173.25Y172.
X173.25Y124.2
X173.25Y76.4
X173.25Y28.6
X173.5Y160.3
X173.5Y159.5
X173.5Y112.5
X173.5Y111.7
X173.5Y64.7
X173.5Y63.9
X173.5Y16.9
X173.5Y16.1
X174.5Y171.7
X174.5Y123.9
X174.5Y76.1
X174.5Y28.3
X175.5Y169.8
X175.5Y122.
X175.5Y74.2
X175.5Y26.4
X176.6Y154.7
X176.6Y106.9
X176.6Y59.1
X176.6Y11.3
X190.2Y168.
X190.2Y120.2
X190.2Y72.4
X190.2Y24.6
X190.8Y164.9
X190.8Y159.2
X190.8Y117.1
X190.8Y111.4
X190.8Y69.3
X190.8Y63.6
X190.8Y21.5
X190.8Y15.8
X192.1Y169.8
X192.1Y122.
X192.1Y74.2
X192.1Y26.4
X193.2Y155.4
X193.2Y107.6
X193.2Y59.8
X193.2Y12.
X193.5Y171.7
X193.5Y164.4
X193.5Y161.7
X193.5Y123.9
X193.5Y116.6
X193.5Y113.9
X193.5Y76.1
X193.5Y68.8
X193.5Y66.1
X193.5Y28.3
X193.5Y21.
X193.5Y18.3
X193.85Y159.45
X193.85Y111.65
X193.85Y63.85
X193.85Y16.05
X195.1Y172.
X195.1Y124.2
X195.1Y76.4
X195.1Y28.6
X195.2Y168.2
X195.2Y120.4
X195.2Y72.6
X195.2Y24.8
X195.8Y159.4
X195.8Y111.6
X195.8Y63.8
X195.8Y16.
X196.Y172.
X196.Y124.2
X196.Y76.4
X196.Y28.6
X197.75Y159.4
X197.75Y111.6
X197.75Y63.8
X197.75Y16.
X198.Y172.
X198.Y124.2
X198.Y76.4
X198.Y28.6
X199.2Y164.4
X199.2Y116.6
X199.2Y68.8
X199.2Y21.
X199.25Y172.
X199.25Y124.2
X199.25Y76.4
X199.25Y28.6
X199.5Y160.3
X199.5Y159.5
X199.5Y112.5
X199.5Y111.7
X199.5Y64.7
X199.5Y63.9
X199.5Y16.9
X199.5Y16.1
X200.5Y171.7
X200.5Y123.9
X200.5Y76.1
X200.5Y28.3
X201.5Y169.8
X201.5Y122.
X201.5Y74.2
X201.5Y26.4
X202.6Y154.7
X202.6Y106.9
X202.6Y59.1
X202.6Y11.3
X216.2Y168.
X216.2Y120.2
X216.2Y72.4
X216.2Y24.6
X216.8Y164.9
X216.8Y159.2
X216.8Y117.1
X216.8Y111.4
X216.8Y69.3
X216.8Y63.6
X216.8Y21.5
X216.8Y15.8
X218.1Y169.8
X218.1Y122.
X218.1Y74.2
X218.1Y26.4
X219.2Y155.4
X219.2Y107.6
X219.2Y59.8
X219.2Y12.
X219.5Y171.7
X219.5Y164.4
X219.5Y161.7
X219.5Y123.9
X219.5Y116.6
X219.5Y113.9
X219.5Y76.1
X219.5Y68.8
X219.5Y66.1
X219.5Y28.3
X219.5Y21.
X219.5Y18.3
X219.85Y159.45
X219.85Y111.65
X219.85Y63.85
X219.85Y16.05
X221.1Y172.
X221.1Y124.2
X221.1Y76.4
X221.1Y28.6
X221.2Y168.2
X221.2Y120.4
X221.2Y72.6
X221.2Y24.8
X221.8Y159.4
X221.8Y111.6
X221.8Y63.8
X221.8Y16.
X222.Y172.
X222.Y124.2
X222.Y76.4
X222.Y28.6
X223.75Y159.4
X223.75Y111.6
X223.75Y63.8
X223.75Y16.
X224.Y172.
X224.Y124.2
X224.Y76.4
X224.Y28.6
X225.2Y164.4
X225.2Y116.6
X225.2Y68.8
X225.2Y21.
X225.25Y172.
X225.25Y124.2
X225.25Y76.4
X225.25Y28.6
X225.5Y160.3
X225.5Y159.5
X225.5Y112.5
X225.5Y111.7
X225.5Y64.7
X225.5Y63.9
X225.5Y16.9
X225.5Y16.1
X226.5Y171.7
X226.5Y123.9
X226.5Y76.1
X226.5Y28.3
X227.5Y169.8
X227.5Y122.
X227.5Y74.2
X227.5Y26.4
X228.6Y154.7
X228.6Y106.9
X228.6Y59.1
X228.6Y11.3
X242.2Y168.
X242.2Y120.2
X242.2Y72.4
X242.2Y24.6
X242.8Y164.9
X242.8Y159.2
X242.8Y117.1
X242.8Y111.4
X242.8Y69.3
X242.8Y63.6
X242.8Y21.5
X242.8Y15.8
X244.1Y169.8
X244.1Y122.
X244.1Y74.2
X244.1Y26.4
X245.2Y155.4
X245.2Y107.6
X245.2Y59.8
X245.2Y12.
X245.5Y171.7
X245.5Y164.4
X245.5Y161.7
X245.5Y123.9
X245.5Y116.6
X245.5Y113.9
X245.5Y76.1
X245.5Y68.8
X245.5Y66.1
X245.5Y28.3
X245.5Y21.
X245.5Y18.3
X245.85Y159.45
X245.85Y111.65
X245.85Y63.85
X245.85Y16.05
X247.1Y172.
X247.1Y124.2
X247.1Y76.4
X247.1Y28.6
X247.2Y168.2
X247.2Y120.4
X247.2Y72.6
X247.2Y24.8
X247.8Y159.4
X247.8Y111.6
X247.8Y63.8
X247.8Y16.
X248.Y172.
X248.Y124.2
X248.Y76.4
X248.Y28.6
X249.75Y159.4
X249.75Y111.6
X249.75Y63.8
X249.75Y16.
X250.Y172.
X250.Y124.2
X250.Y76.4
X250.Y28.6
X251.2Y164.4
X251.2Y116.6
X251.2Y68.8
X251.2Y21.
X251.25Y172.
X251.25Y124.2
X251.25Y76.4
X251.25Y28.6
X251.5Y160.3
X251.5Y159.5
X251.5Y112.5
X251.5Y111.7
X251.5Y64.7
X251.5Y63.9
X251.5Y16.9
X251.5Y16.1
X252.5Y171.7
X252.5Y123.9
X252.5Y76.1
X252.5Y28.3
X253.5Y169.8
X253.5Y122.
X253.5Y74.2
X253.5Y26.4
X254.6Y154.7
X254.6Y106.9
X254.6Y59.1
X254.6Y11.3
X268.2Y168.
X268.2Y120.2
X268.2Y72.4
X268.2Y24.6
X268.8Y164.9
X268.8Y159.2
X268.8Y117.1
X268.8Y111.4
X268.8Y69.3
X268.8Y63.6
X268.8Y21.5
X268.8Y15.8
X270.1Y169.8
X270.1Y122.
X270.1Y74.2
X270.1Y26.4
X271.2Y155.4
X271.2Y107.6
X271.2Y59.8
X271.2Y12.
X271.5Y171.7
X271.5Y164.4
X271.5Y161.7
X271.5Y123.9
X271.5Y116.6
X271.5Y113.9
X271.5Y76.1
X271.5Y68.8
X271.5Y66.1
X271.5Y28.3
X271.5Y21.
X271.5Y18.3
X271.85Y159.45
X271.85Y111.65
X271.85Y63.85
X271.85Y16.05
X273.1Y172.
X273.1Y124.2
X273.1Y76.4
X273.1Y28.6
X273.2Y168.2
X273.2Y120.4
X273.2Y72.6
X273.2Y24.8
X273.8Y159.4
X273.8Y111.6
X273.8Y63.8
X273.8Y16.
X274.Y172.
X274.Y124.2
X274.Y76.4
X274.Y28.6
X275.75Y159.4
X275.75Y111.6
X275.75Y63.8
X275.75Y16.
X276.Y172.
X276.Y124.2
X276.Y76.4
X276.Y28.6
X277.2Y164.4
X277.2Y116.6
X277.2Y68.8
X277.2Y21.
X277.25Y172.
X277.25Y124.2
X277.25Y76.4
X277.25Y28.6
X277.5Y160.3
X277.5Y159.5
X277.5Y112.5
X277.5Y111.7
X277.5Y64.7
X277.5Y63.9
X277.5Y16.9
X277.5Y16.1
X278.5Y171.7
X278.5Y123.9
X278.5Y76.1
X278.5Y28.3
X279.5Y169.8
X279.5Y122.
X279.5Y74.2
X279.5Y26.4
X280.6Y154.7
X280.6Y106.9
X280.6Y59.1
X280.6Y11.3
T3
X217.94Y150.6
X220.48Y150.6
X223.02Y150.6
X225.56Y150.6
X228.1Y150.6
X165.94Y150.6
X168.48Y150.6
X171.02Y150.6
X173.56Y150.6
X176.1Y150.6
X139.94Y7.2
X142.48Y7.2
X145.02Y7.2
X147.56Y7.2
X150.1Y7.2
X113.94Y150.6
X116.48Y150.6
X119.02Y150.6
X121.56Y150.6
X124.1Y150.6
X217.94Y7.2
X220.48Y7.2
X223.02Y7.2
X225.56Y7.2
X228.1Y7.2
X87.94Y7.2
X90.48Y7.2
X93.02Y7.2
X95.56Y7.2
X98.1Y7.2
X243.94Y102.8
X246.48Y102.8
X249.02Y102.8
X251.56Y102.8
X254.1Y102.8
X35.94Y102.8
X38.48Y102.8
X41.02Y102.8
X43.56Y102.8
X46.1Y102.8
X35.94Y55.
X38.48Y55.
X41.02Y55.
X43.56Y55.
X46.1Y55.
X113.94Y102.8
X116.48Y102.8
X119.02Y102.8
X121.56Y102.8
X124.1Y102.8
X269.94Y150.6
X272.48Y150.6
X275.02Y150.6
X277.56Y150.6
X280.1Y150.6
X217.94Y55.
X220.48Y55.
X223.02Y55.
X225.56Y55.
X228.1Y55.
X165.94Y55.
X168.48Y55.
X171.02Y55.
X173.56Y55.
X176.1Y55.
X113.94Y55.
X116.48Y55.
X119.02Y55.
X121.56Y55.
X124.1Y55.
X35.94Y150.6
X38.48Y150.6
X41.02Y150.6
X43.56Y150.6
X46.1Y150.6
X9.94Y7.2
X12.48Y7.2
X15.02Y7.2
X17.56Y7.2
X20.1Y7.2
X165.94Y102.8
X168.48Y102.8
X171.02Y102.8
X173.56Y102.8
X176.1Y102.8
X269.94Y55.
X272.48Y55.
X275.02Y55.
X277.56Y55.
X280.1Y55.
X191.94Y150.6
X194.48Y150.6
X197.02Y150.6
X199.56Y150.6
X202.1Y150.6
X139.94Y150.6
X142.48Y150.6
X145.02Y150.6
X147.56Y150.6
X150.1Y150.6
X113.94Y7.2
X116.48Y7.2
X119.02Y7.2
X121.56Y7.2
X124.1Y7.2
X87.94Y150.6
X90.48Y150.6
X93.02Y150.6
X95.56Y150.6
X98.1Y150.6
X191.94Y7.2
X194.48Y7.2
X197.02Y7.2
X199.56Y7.2
X202.1Y7.2
X61.94Y7.2
X64.48Y7.2
X67.02Y7.2
X69.56Y7.2
X72.1Y7.2
X217.94Y102.8
X220.48Y102.8
X223.02Y102.8
X225.56Y102.8
X228.1Y102.8
X9.94Y102.8
X12.48Y102.8
X15.02Y102.8
X17.56Y102.8
X20.1Y102.8
X269.94Y7.2
X272.48Y7.2
X275.02Y7.2
X277.56Y7.2
X280.1Y7.2
X9.94Y55.
X12.48Y55.
X15.02Y55.
X17.56Y55.
X20.1Y55.
X87.94Y102.8
X90.48Y102.8
X93.02Y102.8
X95.56Y102.8
X98.1Y102.8
X243.94Y150.6
X246.48Y150.6
X249.02Y150.6
X251.56Y150.6
X254.1Y150.6
X139.94Y55.
X142.48Y55.
X145.02Y55.
X147.56Y55.
X150.1Y55.
X61.94Y150.6
X64.48Y150.6
X67.02Y150.6
X69.56Y150.6
X72.1Y150.6
X243.94Y7.2
X246.48Y7.2
X249.02Y7.2
X251.56Y7.2
X254.1Y7.2
X61.94Y102.8
X64.48Y102.8
X67.02Y102.8
X69.56Y102.8
X72.1Y102.8
X61.94Y55.
X64.48Y55.
X67.02Y55.
X69.56Y55.
X72.1Y55.
X139.94Y102.8
X142.48Y102.8
X145.02Y102.8
X147.56Y102.8
X150.1Y102.8
X243.94Y55.
X246.48Y55.
X249.02Y55.
X251.56Y55.
X254.1Y55.
X191.94Y55.
X194.48Y55.
X197.02Y55.
X199.56Y55.
X202.1Y55.
X9.94Y150.6
X12.48Y150.6
X15.02Y150.6
X17.56Y150.6
X20.1Y150.6
X165.94Y7.2
X168.48Y7.2
X171.02Y7.2
X173.56Y7.2
X176.1Y7.2
X35.94Y7.2
X38.48Y7.2
X41.02Y7.2
X43.56Y7.2
X46.1Y7.2
X87.94Y55.
X90.48Y55.
X93.02Y55.
X95.56Y55.
X98.1Y55.
X191.94Y102.8
X194.48Y102.8
X197.02Y102.8
X199.56Y102.8
X202.1Y102.8
X269.94Y102.8
X272.48Y102.8
X275.02Y102.8
X277.56Y102.8
X280.1Y102.8
T2
X243.3Y175.8G85X243.3Y177.4
G05
X254.7Y175.8G85X254.7Y177.4
G05
X35.3Y80.2G85X35.3Y81.8
G05
X46.7Y80.2G85X46.7Y81.8
G05
X9.3Y128.G85X9.3Y129.6
G05
X20.7Y128.G85X20.7Y129.6
G05
X217.3Y80.2G85X217.3Y81.8
G05
X228.7Y80.2G85X228.7Y81.8
G05
X87.3Y175.8G85X87.3Y177.4
G05
X98.7Y175.8G85X98.7Y177.4
G05
X165.3Y128.G85X165.3Y129.6
G05
X176.7Y128.G85X176.7Y129.6
G05
X269.3Y32.4G85X269.3Y34.
G05
X280.7Y32.4G85X280.7Y34.
G05
X269.3Y175.8G85X269.3Y177.4
G05
X280.7Y175.8G85X280.7Y177.4
G05
X35.3Y32.4G85X35.3Y34.
G05
X46.7Y32.4G85X46.7Y34.
G05
X113.3Y128.G85X113.3Y129.6
G05
X124.7Y128.G85X124.7Y129.6
G05
X9.3Y32.4G85X9.3Y34.
G05
X20.7Y32.4G85X20.7Y34.
G05
X243.3Y32.4G85X243.3Y34.
G05
X254.7Y32.4G85X254.7Y34.
G05
X269.3Y80.2G85X269.3Y81.8
G05
X280.7Y80.2G85X280.7Y81.8
G05
X139.3Y128.G85X139.3Y129.6
G05
X150.7Y128.G85X150.7Y129.6
G05
X35.3Y128.G85X35.3Y129.6
G05
X46.7Y128.G85X46.7Y129.6
G05
X243.3Y80.2G85X243.3Y81.8
G05
X254.7Y80.2G85X254.7Y81.8
G05
X61.3Y128.G85X61.3Y129.6
G05
X72.7Y128.G85X72.7Y129.6
G05
X243.3Y128.G85X243.3Y129.6
G05
X254.7Y128.G85X254.7Y129.6
G05
X191.3Y128.G85X191.3Y129.6
G05
X202.7Y128.G85X202.7Y129.6
G05
X61.3Y32.4G85X61.3Y34.
G05
X72.7Y32.4G85X72.7Y34.
G05
X61.3Y80.2G85X61.3Y81.8
G05
X72.7Y80.2G85X72.7Y81.8
G05
X87.3Y128.G85X87.3Y129.6
G05
X98.7Y128.G85X98.7Y129.6
G05
X217.3Y128.G85X217.3Y129.6
G05
X228.7Y128.G85X228.7Y129.6
G05
X87.3Y80.2G85X87.3Y81.8
G05
X98.7Y80.2G85X98.7Y81.8
G05
X139.3Y175.8G85X139.3Y177.4
G05
X150.7Y175.8G85X150.7Y177.4
G05
X35.3Y175.8G85X35.3Y177.4
G05
X46.7Y175.8G85X46.7Y177.4
G05
X113.3Y80.2G85X113.3Y81.8
G05
X124.7Y80.2G85X124.7Y81.8
G05
X9.3Y175.8G85X9.3Y177.4
G05
X20.7Y175.8G85X20.7Y177.4
G05
X217.3Y32.4G85X217.3Y34.
G05
X228.7Y32.4G85X228.7Y34.
G05
X165.3Y32.4G85X165.3Y34.
G05
X176.7Y32.4G85X176.7Y34.
G05
X191.3Y32.4G85X191.3Y34.
G05
X202.7Y32.4G85X202.7Y34.
G05
X217.3Y175.8G85X217.3Y177.4
G05
X228.7Y175.8G85X228.7Y177.4
G05
X269.3Y128.G85X269.3Y129.6
G05
X280.7Y128.G85X280.7Y129.6
G05
X113.3Y32.4G85X113.3Y34.
G05
X124.7Y32.4G85X124.7Y34.
G05
X191.3Y80.2G85X191.3Y81.8
G05
X202.7Y80.2G85X202.7Y81.8
G05
X87.3Y32.4G85X87.3Y34.
G05
X98.7Y32.4G85X98.7Y34.
G05
X9.3Y80.2G85X9.3Y81.8
G05
X20.7Y80.2G85X20.7Y81.8
G05
X165.3Y175.8G85X165.3Y177.4
G05
X176.7Y175.8G85X176.7Y177.4
G05
X61.3Y175.8G85X61.3Y177.4
G05
X72.7Y175.8G85X72.7Y177.4
G05
X139.3Y80.2G85X139.3Y81.8
G05
X150.7Y80.2G85X150.7Y81.8
G05
X191.3Y175.8G85X191.3Y177.4
G05
X202.7Y175.8G85X202.7Y177.4
G05
X139.3Y32.4G85X139.3Y34.
G05
X150.7Y32.4G85X150.7Y34.
G05
X165.3Y80.2G85X165.3Y81.8
G05
X176.7Y80.2G85X176.7Y81.8
G05
X113.3Y175.8G85X113.3Y177.4
G05
X124.7Y175.8G85X124.7Y177.4
G05
T0
M30
